<?xml version="1.0" encoding="UTF-8" standalone="no"?>
<!DOCTYPE svg PUBLIC "-//W3C//DTD SVG 1.1//EN"
 "http://www.w3.org/Graphics/SVG/1.1/DTD/svg11.dtd">
<!-- Generated by graphviz version 14.1.4 (20260321.0153)
 -->
<!-- Title: jouer_arcade1 Pages: 1 -->
<svg width="493pt" height="218pt"
 viewBox="0.00 0.00 493.00 218.00" xmlns="http://www.w3.org/2000/svg" xmlns:xlink="http://www.w3.org/1999/xlink">

<svg id="main" version="1.1" xmlns="http://www.w3.org/2000/svg" xmlns:xlink="http://www.w3.org/1999/xlink" xml:space="preserve">

<style type="text/css"><![CDATA[
.node, .edge {opacity: 0.7;}
.node.selected, .edge.selected {opacity: 1;}
.edge:hover path { stroke: red; }
.edge:hover polygon { stroke: red; fill: red; }
]]></style>
<script type="application/ecmascript" xlink:href="svg.min.js"/>
<svg id="graph" class="graph">
<g id="graph0" class="graph" transform="scale(1 1) rotate(0) translate(4 214)">
<title>jouer_arcade1</title>
<!-- Node1 -->
<g id="Node000001" class="node">
<title>Node1</title>
<g id="a_Node000001"><a xlink:title="Lance arcade1 et gere son deroulement complet.">
<polygon fill="#999999" stroke="#666666" points="76.75,-115 0,-115 0,-95 76.75,-95 76.75,-115"/>
<text xml:space="preserve" text-anchor="middle" x="38.38" y="-101.5" font-family="Helvetica,sans-Serif" font-size="10.00">jouer_arcade1</text>
</a>
</g>
</g>
<!-- Node2 -->
<g id="Node000002" class="node">
<title>Node2</title>
<g id="a_Node000002"><a xlink:href="arcade_8c.html#a302398ea76b63c15ea172ce82377984d" target="_top" xlink:title=" ">
<polygon fill="white" stroke="#666666" points="224,-210 122.5,-210 122.5,-190 224,-190 224,-210"/>
<text xml:space="preserve" text-anchor="middle" x="173.25" y="-196.5" font-family="Helvetica,sans-Serif" font-size="10.00">arcade_draw_frame</text>
</a>
</g>
</g>
<!-- Node1&#45;&gt;Node2 -->
<g id="edge1_Node000001_Node000002" class="edge">
<title>Node1&#45;&gt;Node2</title>
<g id="a_edge1_Node000001_Node000002"><a xlink:title=" ">
<path fill="none" stroke="#63b8ff" d="M46.72,-115.43C58.72,-131.72 84.09,-163.19 112.75,-181 115.04,-182.42 117.45,-183.75 119.93,-184.99"/>
<polygon fill="#63b8ff" stroke="#63b8ff" points="118.48,-188.17 129.04,-188.96 121.27,-181.75 118.48,-188.17"/>
</a>
</g>
</g>
<!-- Node3 -->
<g id="Node000003" class="node">
<title>Node3</title>
<g id="a_Node000003"><a xlink:href="arcade_8c.html#a25752e139d33d2208840bba4bd7597df" target="_top" xlink:title=" ">
<polygon fill="white" stroke="#666666" points="219.5,-172 127,-172 127,-152 219.5,-152 219.5,-172"/>
<text xml:space="preserve" text-anchor="middle" x="173.25" y="-158.5" font-family="Helvetica,sans-Serif" font-size="10.00">arcade_draw_hud</text>
</a>
</g>
</g>
<!-- Node1&#45;&gt;Node3 -->
<g id="edge2_Node000001_Node000003" class="edge">
<title>Node1&#45;&gt;Node3</title>
<g id="a_edge2_Node000001_Node000003"><a xlink:title=" ">
<path fill="none" stroke="#63b8ff" d="M62.08,-115.49C76.52,-122.09 95.66,-130.71 112.75,-138 119.98,-141.08 127.74,-144.29 135.2,-147.32"/>
<polygon fill="#63b8ff" stroke="#63b8ff" points="133.81,-150.53 144.39,-151.02 136.43,-144.04 133.81,-150.53"/>
</a>
</g>
</g>
<!-- Node4 -->
<g id="Node000004" class="node">
<title>Node4</title>
<g id="a_Node000004"><a xlink:href="arcade_8c.html#adcd100b7250411e655a98a61dace3f5a" target="_top" xlink:title=" ">
<polygon fill="white" stroke="#666666" points="363,-134 269.75,-134 269.75,-114 363,-114 363,-134"/>
<text xml:space="preserve" text-anchor="middle" x="316.38" y="-120.5" font-family="Helvetica,sans-Serif" font-size="10.00">arcade_draw_text</text>
</a>
</g>
</g>
<!-- Node1&#45;&gt;Node4 -->
<g id="edge7_Node000001_Node000004" class="edge">
<title>Node1&#45;&gt;Node4</title>
<g id="a_edge7_Node000001_Node000004"><a xlink:title=" ">
<path fill="none" stroke="#63b8ff" d="M77.17,-107.6C123.9,-110.82 203.87,-116.32 258.14,-120.06"/>
<polygon fill="#63b8ff" stroke="#63b8ff" points="257.58,-123.53 267.8,-120.72 258.06,-116.55 257.58,-123.53"/>
</a>
</g>
</g>
<!-- Node6 -->
<g id="Node000006" class="node">
<title>Node6</title>
<g id="a_Node000006"><a xlink:href="arcade_8c.html#af12f65de40144cb2fb5188f647a813d9" target="_top" xlink:title=" ">
<polygon fill="white" stroke="#666666" points="233.75,-96 112.75,-96 112.75,-76 233.75,-76 233.75,-96"/>
<text xml:space="preserve" text-anchor="middle" x="173.25" y="-82.5" font-family="Helvetica,sans-Serif" font-size="10.00">arcade_draw_info_panel</text>
</a>
</g>
</g>
<!-- Node1&#45;&gt;Node6 -->
<g id="edge5_Node000001_Node000006" class="edge">
<title>Node1&#45;&gt;Node6</title>
<g id="a_edge5_Node000001_Node000006"><a xlink:title=" ">
<path fill="none" stroke="#63b8ff" d="M77.1,-99.61C84.64,-98.53 92.79,-97.36 101.05,-96.18"/>
<polygon fill="#63b8ff" stroke="#63b8ff" points="101.41,-99.66 110.82,-94.78 100.42,-92.74 101.41,-99.66"/>
</a>
</g>
</g>
<!-- Node7 -->
<g id="Node000007" class="node">
<title>Node7</title>
<g id="a_Node000007"><a xlink:href="arcade_8c.html#a54ba5992dc6aa01bb3e89a4778cd341b" target="_top" xlink:title=" ">
<polygon fill="white" stroke="#666666" points="213.12,-58 133.38,-58 133.38,-38 213.12,-38 213.12,-58"/>
<text xml:space="preserve" text-anchor="middle" x="173.25" y="-44.5" font-family="Helvetica,sans-Serif" font-size="10.00">reset_ennemis</text>
</a>
</g>
</g>
<!-- Node1&#45;&gt;Node7 -->
<g id="edge8_Node000001_Node000007" class="edge">
<title>Node1&#45;&gt;Node7</title>
<g id="a_edge8_Node000001_Node000007"><a xlink:title=" ">
<path fill="none" stroke="#63b8ff" d="M57.36,-94.6C71.97,-86.41 93.27,-75.09 112.75,-67 116.8,-65.32 121.06,-63.69 125.36,-62.15"/>
<polygon fill="#63b8ff" stroke="#63b8ff" points="126.27,-65.53 134.6,-58.98 124,-58.91 126.27,-65.53"/>
</a>
</g>
</g>
<!-- Node8 -->
<g id="Node000008" class="node">
<title>Node8</title>
<g id="a_Node000008"><a xlink:href="arcade_8c.html#a089e8c3dac7fec494bc744df93cc474c" target="_top" xlink:title=" ">
<polygon fill="white" stroke="#666666" points="216.88,-20 129.62,-20 129.62,0 216.88,0 216.88,-20"/>
<text xml:space="preserve" text-anchor="middle" x="173.25" y="-6.5" font-family="Helvetica,sans-Serif" font-size="10.00">reset_projectiles</text>
</a>
</g>
</g>
<!-- Node1&#45;&gt;Node8 -->
<g id="edge9_Node000001_Node000008" class="edge">
<title>Node1&#45;&gt;Node8</title>
<g id="a_edge9_Node000001_Node000008"><a xlink:title=" ">
<path fill="none" stroke="#63b8ff" d="M46.72,-94.57C58.72,-78.28 84.09,-46.81 112.75,-29 115.04,-27.58 117.45,-26.25 119.93,-25.01"/>
<polygon fill="#63b8ff" stroke="#63b8ff" points="121.27,-28.25 129.04,-21.04 118.48,-21.83 121.27,-28.25"/>
</a>
</g>
</g>
<!-- Node3&#45;&gt;Node4 -->
<g id="edge3_Node000003_Node000004" class="edge">
<title>Node3&#45;&gt;Node4</title>
<g id="a_edge3_Node000003_Node000004"><a xlink:title=" ">
<path fill="none" stroke="#63b8ff" d="M213.19,-151.52C229.38,-147.15 248.38,-142.04 265.58,-137.41"/>
<polygon fill="#63b8ff" stroke="#63b8ff" points="266.36,-140.82 275.1,-134.84 264.54,-134.06 266.36,-140.82"/>
</a>
</g>
</g>
<!-- Node5 -->
<g id="Node000005" class="node">
<title>Node5</title>
<g id="a_Node000005"><a xlink:href="arcade_8c.html#aef73159add1b6705e8ecc9411076a194" target="_top" xlink:title=" ">
<polygon fill="white" stroke="#666666" points="484.75,-134 399,-134 399,-114 484.75,-114 484.75,-134"/>
<text xml:space="preserve" text-anchor="middle" x="441.88" y="-120.5" font-family="Helvetica,sans-Serif" font-size="10.00">arcade_get_font</text>
</a>
</g>
</g>
<!-- Node4&#45;&gt;Node5 -->
<g id="edge4_Node000004_Node000005" class="edge">
<title>Node4&#45;&gt;Node5</title>
<g id="a_edge4_Node000004_Node000005"><a xlink:title=" ">
<path fill="none" stroke="#63b8ff" d="M363.36,-124C371.1,-124 379.2,-124 387.11,-124"/>
<polygon fill="#63b8ff" stroke="#63b8ff" points="387.01,-127.5 397.01,-124 387.01,-120.5 387.01,-127.5"/>
</a>
</g>
</g>
<!-- Node6&#45;&gt;Node4 -->
<g id="edge6_Node000006_Node000004" class="edge">
<title>Node6&#45;&gt;Node4</title>
<g id="a_edge6_Node000006_Node000004"><a xlink:title=" ">
<path fill="none" stroke="#63b8ff" d="M213.19,-96.48C229.38,-100.85 248.38,-105.96 265.58,-110.59"/>
<polygon fill="#63b8ff" stroke="#63b8ff" points="264.54,-113.94 275.1,-113.16 266.36,-107.18 264.54,-113.94"/>
</a>
</g>
</g>
</g>
</svg>
</svg>

<style type='text/css'>
<![CDATA[
[data-mouse-over-selected='false'] { opacity: 0.7; }
[data-mouse-over-selected='true']  { opacity: 1.0; }
]]>
</style>
<script type="application/ecmascript"><![CDATA[
document.addEventListener('DOMContentLoaded', (event) => {
  highlightEdges();
  highlightAdjacentNodes();
});
]]></script>
</svg>
