<?xml version="1.0" encoding="UTF-8" standalone="no"?>
<!DOCTYPE svg PUBLIC "-//W3C//DTD SVG 1.1//EN"
 "http://www.w3.org/Graphics/SVG/1.1/DTD/svg11.dtd">
<!-- Generated by graphviz version 14.1.4 (20260321.0153)
 -->
<!-- Title: jouer_arcade2 Pages: 1 -->
<svg width="493pt" height="142pt"
 viewBox="0.00 0.00 493.00 142.00" xmlns="http://www.w3.org/2000/svg" xmlns:xlink="http://www.w3.org/1999/xlink">

<svg id="main" version="1.1" xmlns="http://www.w3.org/2000/svg" xmlns:xlink="http://www.w3.org/1999/xlink" xml:space="preserve">

<style type="text/css"><![CDATA[
.node, .edge {opacity: 0.7;}
.node.selected, .edge.selected {opacity: 1;}
.edge:hover path { stroke: red; }
.edge:hover polygon { stroke: red; fill: red; }
]]></style>
<script type="application/ecmascript" xlink:href="svg.min.js"/>
<svg id="graph" class="graph">
<g id="graph0" class="graph" transform="scale(1 1) rotate(0) translate(4 138)">
<title>jouer_arcade2</title>
<!-- Node1 -->
<g id="Node000001" class="node">
<title>Node1</title>
<g id="a_Node000001"><a xlink:title="Lance arcade2 et gere son deroulement complet.">
<polygon fill="#999999" stroke="#666666" points="76.75,-77 0,-77 0,-57 76.75,-57 76.75,-77"/>
<text xml:space="preserve" text-anchor="middle" x="38.38" y="-63.5" font-family="Helvetica,sans-Serif" font-size="10.00">jouer_arcade2</text>
</a>
</g>
</g>
<!-- Node2 -->
<g id="Node000002" class="node">
<title>Node2</title>
<g id="a_Node000002"><a xlink:href="arcade_8c.html#a302398ea76b63c15ea172ce82377984d" target="_top" xlink:title=" ">
<polygon fill="white" stroke="#666666" points="224,-134 122.5,-134 122.5,-114 224,-114 224,-134"/>
<text xml:space="preserve" text-anchor="middle" x="173.25" y="-120.5" font-family="Helvetica,sans-Serif" font-size="10.00">arcade_draw_frame</text>
</a>
</g>
</g>
<!-- Node1&#45;&gt;Node2 -->
<g id="edge1_Node000001_Node000002" class="edge">
<title>Node1&#45;&gt;Node2</title>
<g id="a_edge1_Node000001_Node000002"><a xlink:title=" ">
<path fill="none" stroke="#63b8ff" d="M57.36,-77.4C71.97,-85.59 93.27,-96.91 112.75,-105 116.8,-106.68 121.06,-108.31 125.36,-109.85"/>
<polygon fill="#63b8ff" stroke="#63b8ff" points="124,-113.09 134.6,-113.02 126.27,-106.47 124,-113.09"/>
</a>
</g>
</g>
<!-- Node3 -->
<g id="Node000003" class="node">
<title>Node3</title>
<g id="a_Node000003"><a xlink:href="arcade_8c.html#a25752e139d33d2208840bba4bd7597df" target="_top" xlink:title=" ">
<polygon fill="white" stroke="#666666" points="219.5,-96 127,-96 127,-76 219.5,-76 219.5,-96"/>
<text xml:space="preserve" text-anchor="middle" x="173.25" y="-82.5" font-family="Helvetica,sans-Serif" font-size="10.00">arcade_draw_hud</text>
</a>
</g>
</g>
<!-- Node1&#45;&gt;Node3 -->
<g id="edge2_Node000001_Node000003" class="edge">
<title>Node1&#45;&gt;Node3</title>
<g id="a_edge2_Node000001_Node000003"><a xlink:title=" ">
<path fill="none" stroke="#63b8ff" d="M77.1,-72.39C89.08,-74.11 102.62,-76.04 115.63,-77.9"/>
<polygon fill="#63b8ff" stroke="#63b8ff" points="114.99,-81.35 125.39,-79.3 115.99,-74.42 114.99,-81.35"/>
</a>
</g>
</g>
<!-- Node4 -->
<g id="Node000004" class="node">
<title>Node4</title>
<g id="a_Node000004"><a xlink:href="arcade_8c.html#adcd100b7250411e655a98a61dace3f5a" target="_top" xlink:title=" ">
<polygon fill="white" stroke="#666666" points="363,-58 269.75,-58 269.75,-38 363,-38 363,-58"/>
<text xml:space="preserve" text-anchor="middle" x="316.38" y="-44.5" font-family="Helvetica,sans-Serif" font-size="10.00">arcade_draw_text</text>
</a>
</g>
</g>
<!-- Node1&#45;&gt;Node4 -->
<g id="edge7_Node000001_Node000004" class="edge">
<title>Node1&#45;&gt;Node4</title>
<g id="a_edge7_Node000001_Node000004"><a xlink:title=" ">
<path fill="none" stroke="#63b8ff" d="M77.17,-64.4C123.9,-61.18 203.87,-55.68 258.14,-51.94"/>
<polygon fill="#63b8ff" stroke="#63b8ff" points="258.06,-55.45 267.8,-51.28 257.58,-48.47 258.06,-55.45"/>
</a>
</g>
</g>
<!-- Node6 -->
<g id="Node000006" class="node">
<title>Node6</title>
<g id="a_Node000006"><a xlink:href="arcade_8c.html#af12f65de40144cb2fb5188f647a813d9" target="_top" xlink:title=" ">
<polygon fill="white" stroke="#666666" points="233.75,-20 112.75,-20 112.75,0 233.75,0 233.75,-20"/>
<text xml:space="preserve" text-anchor="middle" x="173.25" y="-6.5" font-family="Helvetica,sans-Serif" font-size="10.00">arcade_draw_info_panel</text>
</a>
</g>
</g>
<!-- Node1&#45;&gt;Node6 -->
<g id="edge5_Node000001_Node000006" class="edge">
<title>Node1&#45;&gt;Node6</title>
<g id="a_edge5_Node000001_Node000006"><a xlink:title=" ">
<path fill="none" stroke="#63b8ff" d="M62.08,-56.51C76.52,-49.91 95.66,-41.29 112.75,-34 119.98,-30.92 127.74,-27.71 135.2,-24.68"/>
<polygon fill="#63b8ff" stroke="#63b8ff" points="136.43,-27.96 144.39,-20.98 133.81,-21.47 136.43,-27.96"/>
</a>
</g>
</g>
<!-- Node3&#45;&gt;Node4 -->
<g id="edge3_Node000003_Node000004" class="edge">
<title>Node3&#45;&gt;Node4</title>
<g id="a_edge3_Node000003_Node000004"><a xlink:title=" ">
<path fill="none" stroke="#63b8ff" d="M213.19,-75.52C229.38,-71.15 248.38,-66.04 265.58,-61.41"/>
<polygon fill="#63b8ff" stroke="#63b8ff" points="266.36,-64.82 275.1,-58.84 264.54,-58.06 266.36,-64.82"/>
</a>
</g>
</g>
<!-- Node5 -->
<g id="Node000005" class="node">
<title>Node5</title>
<g id="a_Node000005"><a xlink:href="arcade_8c.html#aef73159add1b6705e8ecc9411076a194" target="_top" xlink:title=" ">
<polygon fill="white" stroke="#666666" points="484.75,-58 399,-58 399,-38 484.75,-38 484.75,-58"/>
<text xml:space="preserve" text-anchor="middle" x="441.88" y="-44.5" font-family="Helvetica,sans-Serif" font-size="10.00">arcade_get_font</text>
</a>
</g>
</g>
<!-- Node4&#45;&gt;Node5 -->
<g id="edge4_Node000004_Node000005" class="edge">
<title>Node4&#45;&gt;Node5</title>
<g id="a_edge4_Node000004_Node000005"><a xlink:title=" ">
<path fill="none" stroke="#63b8ff" d="M363.36,-48C371.1,-48 379.2,-48 387.11,-48"/>
<polygon fill="#63b8ff" stroke="#63b8ff" points="387.01,-51.5 397.01,-48 387.01,-44.5 387.01,-51.5"/>
</a>
</g>
</g>
<!-- Node6&#45;&gt;Node4 -->
<g id="edge6_Node000006_Node000004" class="edge">
<title>Node6&#45;&gt;Node4</title>
<g id="a_edge6_Node000006_Node000004"><a xlink:title=" ">
<path fill="none" stroke="#63b8ff" d="M213.19,-20.48C229.38,-24.85 248.38,-29.96 265.58,-34.59"/>
<polygon fill="#63b8ff" stroke="#63b8ff" points="264.54,-37.94 275.1,-37.16 266.36,-31.18 264.54,-37.94"/>
</a>
</g>
</g>
</g>
</svg>
</svg>

<style type='text/css'>
<![CDATA[
[data-mouse-over-selected='false'] { opacity: 0.7; }
[data-mouse-over-selected='true']  { opacity: 1.0; }
]]>
</style>
<script type="application/ecmascript"><![CDATA[
document.addEventListener('DOMContentLoaded', (event) => {
  highlightEdges();
  highlightAdjacentNodes();
});
]]></script>
</svg>
