<?xml version="1.0" encoding="UTF-8" standalone="no"?>
<!DOCTYPE svg PUBLIC "-//W3C//DTD SVG 1.1//EN"
 "http://www.w3.org/Graphics/SVG/1.1/DTD/svg11.dtd">
<!-- Generated by graphviz version 14.1.4 (20260321.0153)
 -->
<!-- Title: arcade_draw_frame Pages: 1 -->
<svg width="791pt" height="104pt"
 viewBox="0.00 0.00 791.00 104.00" xmlns="http://www.w3.org/2000/svg" xmlns:xlink="http://www.w3.org/1999/xlink">
<g id="graph0" class="graph" transform="scale(1 1) rotate(0) translate(4 100)">
<title>arcade_draw_frame</title>
<!-- Node1 -->
<g id="Node000001" class="node">
<title>Node1</title>
<g id="a_Node000001"><a xlink:title=" ">
<polygon fill="#999999" stroke="#666666" points="782.5,-58 681,-58 681,-38 782.5,-38 782.5,-58"/>
<text xml:space="preserve" text-anchor="middle" x="731.75" y="-44.5" font-family="Helvetica,sans-Serif" font-size="10.00">arcade_draw_frame</text>
</a>
</g>
</g>
<!-- Node2 -->
<g id="Node000002" class="node">
<title>Node2</title>
<g id="a_Node000002"><a xlink:href="arcade_8c.html#ac90ef500e15768a0d93b6e4d0c324a5c" target="_top" xlink:title="Lance arcade1 et gere son deroulement complet.">
<polygon fill="white" stroke="#666666" points="645,-96 568.25,-96 568.25,-76 645,-76 645,-96"/>
<text xml:space="preserve" text-anchor="middle" x="606.62" y="-82.5" font-family="Helvetica,sans-Serif" font-size="10.00">jouer_arcade1</text>
</a>
</g>
</g>
<!-- Node1&#45;&gt;Node2 -->
<g id="edge1_Node000001_Node000002" class="edge">
<title>Node1&#45;&gt;Node2</title>
<g id="a_edge1_Node000001_Node000002"><a xlink:title=" ">
<path fill="none" stroke="#63b8ff" d="M685.89,-61.84C671.23,-66.37 655.2,-71.32 641.48,-75.55"/>
<polygon fill="#63b8ff" stroke="#63b8ff" points="686.81,-65.22 695.33,-58.93 684.75,-58.54 686.81,-65.22"/>
</a>
</g>
</g>
<!-- Node8 -->
<g id="Node000008" class="node">
<title>Node8</title>
<g id="a_Node000008"><a xlink:href="arcade_8c.html#a97cf0885563c96f017c3408ca0cb0670" target="_top" xlink:title="Lance arcade2 et gere son deroulement complet.">
<polygon fill="white" stroke="#666666" points="645,-58 568.25,-58 568.25,-38 645,-38 645,-58"/>
<text xml:space="preserve" text-anchor="middle" x="606.62" y="-44.5" font-family="Helvetica,sans-Serif" font-size="10.00">jouer_arcade2</text>
</a>
</g>
</g>
<!-- Node1&#45;&gt;Node8 -->
<g id="edge9_Node000001_Node000008" class="edge">
<title>Node1&#45;&gt;Node8</title>
<g id="a_edge9_Node000001_Node000008"><a xlink:title=" ">
<path fill="none" stroke="#63b8ff" d="M669.16,-48C660.98,-48 652.8,-48 645.19,-48"/>
<polygon fill="#63b8ff" stroke="#63b8ff" points="669.16,-51.5 679.16,-48 669.16,-44.5 669.16,-51.5"/>
</a>
</g>
</g>
<!-- Node9 -->
<g id="Node000009" class="node">
<title>Node9</title>
<g id="a_Node000009"><a xlink:href="arcade_8c.html#a4d835eb6e2ce82e2c147bbc29a36a3ce" target="_top" xlink:title="Lance arcade3 et gere son deroulement complet.">
<polygon fill="white" stroke="#666666" points="645,-20 568.25,-20 568.25,0 645,0 645,-20"/>
<text xml:space="preserve" text-anchor="middle" x="606.62" y="-6.5" font-family="Helvetica,sans-Serif" font-size="10.00">jouer_arcade3</text>
</a>
</g>
</g>
<!-- Node1&#45;&gt;Node9 -->
<g id="edge11_Node000001_Node000009" class="edge">
<title>Node1&#45;&gt;Node9</title>
<g id="a_edge11_Node000001_Node000009"><a xlink:title=" ">
<path fill="none" stroke="#63b8ff" d="M685.89,-34.16C671.23,-29.63 655.2,-24.68 641.48,-20.45"/>
<polygon fill="#63b8ff" stroke="#63b8ff" points="684.75,-37.46 695.33,-37.07 686.81,-30.78 684.75,-37.46"/>
</a>
</g>
</g>
<!-- Node3 -->
<g id="Node000003" class="node">
<title>Node3</title>
<g id="a_Node000003"><a xlink:href="vaisseau_8c.html#ace614afc8df3a40bd5ea0771044ff217" target="_top" xlink:title=" ">
<polygon fill="white" stroke="#666666" points="532.25,-58 418,-58 418,-38 532.25,-38 532.25,-58"/>
<text xml:space="preserve" text-anchor="middle" x="475.12" y="-44.5" font-family="Helvetica,sans-Serif" font-size="10.00">gerer_interaction_objet</text>
</a>
</g>
</g>
<!-- Node2&#45;&gt;Node3 -->
<g id="edge2_Node000002_Node000003" class="edge">
<title>Node2&#45;&gt;Node3</title>
<g id="a_edge2_Node000002_Node000003"><a xlink:title=" ">
<path fill="none" stroke="#63b8ff" d="M558.9,-72.29C543.35,-67.73 526.3,-62.72 511.74,-58.45"/>
<polygon fill="#63b8ff" stroke="#63b8ff" points="557.86,-75.63 568.44,-75.09 559.83,-68.92 557.86,-75.63"/>
</a>
</g>
</g>
<!-- Node4 -->
<g id="Node000004" class="node">
<title>Node4</title>
<g id="a_Node000004"><a xlink:href="vaisseau_8c.html#a8ea9afc9440149ddd36e96b97d8ed6c5" target="_top" xlink:title="Lance la scene interieure du vaisseau (deplacement, interactions, mini&#45;jeux, sortie).">
<polygon fill="white" stroke="#666666" points="382,-77 327,-77 327,-57 382,-57 382,-77"/>
<text xml:space="preserve" text-anchor="middle" x="354.5" y="-63.5" font-family="Helvetica,sans-Serif" font-size="10.00">vaisseau</text>
</a>
</g>
</g>
<!-- Node3&#45;&gt;Node4 -->
<g id="edge3_Node000003_Node000004" class="edge">
<title>Node3&#45;&gt;Node4</title>
<g id="a_edge3_Node000003_Node000004"><a xlink:title=" ">
<path fill="none" stroke="#63b8ff" d="M406.37,-58.85C397.89,-60.21 389.65,-61.53 382.35,-62.7"/>
<polygon fill="#63b8ff" stroke="#63b8ff" points="406.78,-62.33 416.1,-57.29 405.67,-55.42 406.78,-62.33"/>
</a>
</g>
</g>
<!-- Node5 -->
<g id="Node000005" class="node">
<title>Node5</title>
<g id="a_Node000005"><a xlink:href="cinematique_8c.html#a418cc3e727578f4cd509ad27cd6a2a31" target="_top" xlink:title="Lance cinematique fin et gere son deroulement complet.">
<polygon fill="white" stroke="#666666" points="291,-77 180.5,-77 180.5,-57 291,-57 291,-77"/>
<text xml:space="preserve" text-anchor="middle" x="235.75" y="-63.5" font-family="Helvetica,sans-Serif" font-size="10.00">jouer_cinematique_fin</text>
</a>
</g>
</g>
<!-- Node4&#45;&gt;Node5 -->
<g id="edge4_Node000004_Node000005" class="edge">
<title>Node4&#45;&gt;Node5</title>
<g id="a_edge4_Node000004_Node000005"><a xlink:title=" ">
<path fill="none" stroke="#63b8ff" d="M315.4,-67C307.61,-67 299.28,-67 291.05,-67"/>
<polygon fill="#63b8ff" stroke="#63b8ff" points="315.2,-70.5 325.2,-67 315.2,-63.5 315.2,-70.5"/>
</a>
</g>
</g>
<!-- Node7 -->
<g id="Node000007" class="node">
<title>Node7</title>
<g id="a_Node000007"><a xlink:href="main_8c.html#a0ddf1224851353fc92bfbff6f499fa97" target="_top" xlink:title=" ">
<polygon fill="white" stroke="#666666" points="37,-96 0,-96 0,-76 37,-76 37,-96"/>
<text xml:space="preserve" text-anchor="middle" x="18.5" y="-82.5" font-family="Helvetica,sans-Serif" font-size="10.00">main</text>
</a>
</g>
</g>
<!-- Node4&#45;&gt;Node7 -->
<g id="edge8_Node000004_Node000007" class="edge">
<title>Node4&#45;&gt;Node7</title>
<g id="a_edge8_Node000004_Node000007"><a xlink:title=" ">
<path fill="none" stroke="#63b8ff" d="M315.58,-80.47C307.57,-82.77 299.08,-84.8 291,-86 196.35,-100.07 81.09,-91.83 37.42,-87.81"/>
<polygon fill="#63b8ff" stroke="#63b8ff" points="316.55,-83.84 325.07,-77.55 314.49,-77.15 316.55,-83.84"/>
</a>
</g>
</g>
<!-- Node6 -->
<g id="Node000006" class="node">
<title>Node6</title>
<g id="a_Node000006"><a xlink:href="map_8c.html#ad462ccdd50801fb085dc8134fc3765d1" target="_top" xlink:title="Affiche la carte et met a jour les elements visuels associes.">
<polygon fill="white" stroke="#666666" points="144.5,-77 73,-77 73,-57 144.5,-57 144.5,-77"/>
<text xml:space="preserve" text-anchor="middle" x="108.75" y="-63.5" font-family="Helvetica,sans-Serif" font-size="10.00">afficher_map</text>
</a>
</g>
</g>
<!-- Node5&#45;&gt;Node6 -->
<g id="edge5_Node000005_Node000006" class="edge">
<title>Node5&#45;&gt;Node6</title>
<g id="a_edge5_Node000005_Node000006"><a xlink:title=" ">
<path fill="none" stroke="#63b8ff" d="M169,-67C160.72,-67 152.51,-67 144.96,-67"/>
<polygon fill="#63b8ff" stroke="#63b8ff" points="168.77,-70.5 178.77,-67 168.77,-63.5 168.77,-70.5"/>
</a>
</g>
</g>
<!-- Node6&#45;&gt;Node3 -->
<g id="edge6_Node000006_Node000003" class="edge">
<title>Node6&#45;&gt;Node3</title>
<g id="a_edge6_Node000006_Node000003"><a xlink:title=" ">
<path fill="none" stroke="#63b8ff" d="M152.33,-53.64C161.53,-51.29 171.27,-49.22 180.5,-48 262.37,-37.2 358.21,-40.07 417.55,-43.63"/>
<polygon fill="#63b8ff" stroke="#63b8ff" points="151.64,-50.2 142.9,-56.19 153.47,-56.95 151.64,-50.2"/>
</a>
</g>
</g>
<!-- Node6&#45;&gt;Node7 -->
<g id="edge7_Node000006_Node000007" class="edge">
<title>Node6&#45;&gt;Node7</title>
<g id="a_edge7_Node000006_Node000007"><a xlink:title=" ">
<path fill="none" stroke="#63b8ff" d="M61.39,-76.98C52.82,-78.83 44.36,-80.65 37.31,-82.17"/>
<polygon fill="#63b8ff" stroke="#63b8ff" points="62.1,-80.41 71.14,-74.88 60.63,-73.57 62.1,-80.41"/>
</a>
</g>
</g>
<!-- Node8&#45;&gt;Node3 -->
<g id="edge10_Node000008_Node000003" class="edge">
<title>Node8&#45;&gt;Node3</title>
<g id="a_edge10_Node000008_Node000003"><a xlink:title=" ">
<path fill="none" stroke="#63b8ff" d="M556.32,-48C548.54,-48 540.44,-48 532.51,-48"/>
<polygon fill="#63b8ff" stroke="#63b8ff" points="556.31,-51.5 566.31,-48 556.31,-44.5 556.31,-51.5"/>
</a>
</g>
</g>
<!-- Node9&#45;&gt;Node3 -->
<g id="edge12_Node000009_Node000003" class="edge">
<title>Node9&#45;&gt;Node3</title>
<g id="a_edge12_Node000009_Node000003"><a xlink:title=" ">
<path fill="none" stroke="#63b8ff" d="M558.9,-23.71C543.35,-28.27 526.3,-33.28 511.74,-37.55"/>
<polygon fill="#63b8ff" stroke="#63b8ff" points="559.83,-27.08 568.44,-20.91 557.86,-20.37 559.83,-27.08"/>
</a>
</g>
</g>
</g>
</svg>
