<?xml version="1.0" encoding="UTF-8" standalone="no"?>
<!DOCTYPE svg PUBLIC "-//W3C//DTD SVG 1.1//EN"
 "http://www.w3.org/Graphics/SVG/1.1/DTD/svg11.dtd">
<!-- Generated by graphviz version 14.1.4 (20260321.0153)
 -->
<!-- Title: arcade_draw_text Pages: 1 -->
<svg width="214pt" height="104pt"
 viewBox="0.00 0.00 214.00 104.00" xmlns="http://www.w3.org/2000/svg" xmlns:xlink="http://www.w3.org/1999/xlink">
<g id="graph0" class="graph" transform="scale(1 1) rotate(0) translate(4 100)">
<title>arcade_draw_text</title>
<!-- Node1 -->
<g id="Node000001" class="node">
<title>Node1</title>
<g id="a_Node000001"><a xlink:title=" ">
<polygon fill="#999999" stroke="#666666" points="206,-58 112.75,-58 112.75,-38 206,-38 206,-58"/>
<text xml:space="preserve" text-anchor="middle" x="159.38" y="-44.5" font-family="Helvetica,sans-Serif" font-size="10.00">arcade_draw_text</text>
</a>
</g>
</g>
<!-- Node2 -->
<g id="Node000002" class="node">
<title>Node2</title>
<g id="a_Node000002"><a xlink:href="arcade_8c.html#ac90ef500e15768a0d93b6e4d0c324a5c" target="_top" xlink:title="Lance arcade1 et gere son deroulement complet.">
<polygon fill="white" stroke="#666666" points="76.75,-96 0,-96 0,-76 76.75,-76 76.75,-96"/>
<text xml:space="preserve" text-anchor="middle" x="38.38" y="-82.5" font-family="Helvetica,sans-Serif" font-size="10.00">jouer_arcade1</text>
</a>
</g>
</g>
<!-- Node1&#45;&gt;Node2 -->
<g id="edge1_Node000001_Node000002" class="edge">
<title>Node1&#45;&gt;Node2</title>
<g id="a_edge1_Node000001_Node000002"><a xlink:title=" ">
<path fill="none" stroke="#63b8ff" d="M114.6,-61.98C100.55,-66.47 85.22,-71.36 72.1,-75.55"/>
<polygon fill="#63b8ff" stroke="#63b8ff" points="115.64,-65.32 124.1,-58.94 113.51,-58.65 115.64,-65.32"/>
</a>
</g>
</g>
<!-- Node3 -->
<g id="Node000003" class="node">
<title>Node3</title>
<g id="a_Node000003"><a xlink:href="arcade_8c.html#a97cf0885563c96f017c3408ca0cb0670" target="_top" xlink:title="Lance arcade2 et gere son deroulement complet.">
<polygon fill="white" stroke="#666666" points="76.75,-58 0,-58 0,-38 76.75,-38 76.75,-58"/>
<text xml:space="preserve" text-anchor="middle" x="38.38" y="-44.5" font-family="Helvetica,sans-Serif" font-size="10.00">jouer_arcade2</text>
</a>
</g>
</g>
<!-- Node1&#45;&gt;Node3 -->
<g id="edge2_Node000001_Node000003" class="edge">
<title>Node1&#45;&gt;Node3</title>
<g id="a_edge2_Node000001_Node000003"><a xlink:title=" ">
<path fill="none" stroke="#63b8ff" d="M101.02,-48C92.92,-48 84.77,-48 77.17,-48"/>
<polygon fill="#63b8ff" stroke="#63b8ff" points="100.85,-51.5 110.85,-48 100.85,-44.5 100.85,-51.5"/>
</a>
</g>
</g>
<!-- Node4 -->
<g id="Node000004" class="node">
<title>Node4</title>
<g id="a_Node000004"><a xlink:href="arcade_8c.html#a4d835eb6e2ce82e2c147bbc29a36a3ce" target="_top" xlink:title="Lance arcade3 et gere son deroulement complet.">
<polygon fill="white" stroke="#666666" points="76.75,-20 0,-20 0,0 76.75,0 76.75,-20"/>
<text xml:space="preserve" text-anchor="middle" x="38.38" y="-6.5" font-family="Helvetica,sans-Serif" font-size="10.00">jouer_arcade3</text>
</a>
</g>
</g>
<!-- Node1&#45;&gt;Node4 -->
<g id="edge3_Node000001_Node000004" class="edge">
<title>Node1&#45;&gt;Node4</title>
<g id="a_edge3_Node000001_Node000004"><a xlink:title=" ">
<path fill="none" stroke="#63b8ff" d="M114.6,-34.02C100.55,-29.53 85.22,-24.64 72.1,-20.45"/>
<polygon fill="#63b8ff" stroke="#63b8ff" points="113.51,-37.35 124.1,-37.06 115.64,-30.68 113.51,-37.35"/>
</a>
</g>
</g>
</g>
</svg>
