<?xml version="1.0" encoding="UTF-8" standalone="no"?>
<!DOCTYPE svg PUBLIC "-//W3C//DTD SVG 1.1//EN"
 "http://www.w3.org/Graphics/SVG/1.1/DTD/svg11.dtd">
<!-- Generated by graphviz version 14.1.4 (20260321.0153)
 -->
<!-- Title: arcade_draw_hud Pages: 1 -->
<svg width="797pt" height="142pt"
 viewBox="0.00 0.00 797.00 142.00" xmlns="http://www.w3.org/2000/svg" xmlns:xlink="http://www.w3.org/1999/xlink">
<g id="graph0" class="graph" transform="scale(1 1) rotate(0) translate(4 138)">
<title>arcade_draw_hud</title>
<!-- Node1 -->
<g id="Node000001" class="node">
<title>Node1</title>
<g id="a_Node000001"><a xlink:title=" ">
<polygon fill="#999999" stroke="#666666" points="788.5,-77 696,-77 696,-57 788.5,-57 788.5,-77"/>
<text xml:space="preserve" text-anchor="middle" x="742.25" y="-63.5" font-family="Helvetica,sans-Serif" font-size="10.00">arcade_draw_hud</text>
</a>
</g>
</g>
<!-- Node2 -->
<g id="Node000002" class="node">
<title>Node2</title>
<g id="a_Node000002"><a xlink:href="arcade_8c.html#ac90ef500e15768a0d93b6e4d0c324a5c" target="_top" xlink:title="Lance arcade1 et gere son deroulement complet.">
<polygon fill="white" stroke="#666666" points="660,-96 583.25,-96 583.25,-76 660,-76 660,-96"/>
<text xml:space="preserve" text-anchor="middle" x="621.62" y="-82.5" font-family="Helvetica,sans-Serif" font-size="10.00">jouer_arcade1</text>
</a>
</g>
</g>
<!-- Node1&#45;&gt;Node2 -->
<g id="edge1_Node000001_Node000002" class="edge">
<title>Node1&#45;&gt;Node2</title>
<g id="a_edge1_Node000001_Node000002"><a xlink:title=" ">
<path fill="none" stroke="#63b8ff" d="M684.54,-76.08C676.26,-77.41 667.91,-78.75 660.14,-79.99"/>
<polygon fill="#63b8ff" stroke="#63b8ff" points="684.91,-79.57 694.23,-74.53 683.8,-72.66 684.91,-79.57"/>
</a>
</g>
</g>
<!-- Node8 -->
<g id="Node000008" class="node">
<title>Node8</title>
<g id="a_Node000008"><a xlink:href="arcade_8c.html#a97cf0885563c96f017c3408ca0cb0670" target="_top" xlink:title="Lance arcade2 et gere son deroulement complet.">
<polygon fill="white" stroke="#666666" points="660,-58 583.25,-58 583.25,-38 660,-38 660,-58"/>
<text xml:space="preserve" text-anchor="middle" x="621.62" y="-44.5" font-family="Helvetica,sans-Serif" font-size="10.00">jouer_arcade2</text>
</a>
</g>
</g>
<!-- Node1&#45;&gt;Node8 -->
<g id="edge9_Node000001_Node000008" class="edge">
<title>Node1&#45;&gt;Node8</title>
<g id="a_edge9_Node000001_Node000008"><a xlink:title=" ">
<path fill="none" stroke="#63b8ff" d="M684.54,-57.92C676.26,-56.59 667.91,-55.25 660.14,-54.01"/>
<polygon fill="#63b8ff" stroke="#63b8ff" points="683.8,-61.34 694.23,-59.47 684.91,-54.43 683.8,-61.34"/>
</a>
</g>
</g>
<!-- Node9 -->
<g id="Node000009" class="node">
<title>Node9</title>
<g id="a_Node000009"><a xlink:href="arcade_8c.html#a4d835eb6e2ce82e2c147bbc29a36a3ce" target="_top" xlink:title="Lance arcade3 et gere son deroulement complet.">
<polygon fill="white" stroke="#666666" points="660,-134 583.25,-134 583.25,-114 660,-114 660,-134"/>
<text xml:space="preserve" text-anchor="middle" x="621.62" y="-120.5" font-family="Helvetica,sans-Serif" font-size="10.00">jouer_arcade3</text>
</a>
</g>
</g>
<!-- Node1&#45;&gt;Node9 -->
<g id="edge11_Node000001_Node000009" class="edge">
<title>Node1&#45;&gt;Node9</title>
<g id="a_edge11_Node000001_Node000009"><a xlink:title=" ">
<path fill="none" stroke="#63b8ff" d="M709.3,-82.35C688.69,-92.26 662.43,-104.87 644.24,-113.61"/>
<polygon fill="#63b8ff" stroke="#63b8ff" points="710.63,-85.6 718.13,-78.11 707.6,-79.29 710.63,-85.6"/>
</a>
</g>
</g>
<!-- Node10 -->
<g id="Node000010" class="node">
<title>Node10</title>
<g id="a_Node000010"><a xlink:href="arcade_8c.html#a60b12154cf6385b2392e62c0fb9c4e8a" target="_top" xlink:title="Lance le mini&#45;jeu Simon utilise dans la progression.">
<polygon fill="white" stroke="#666666" points="642.75,-20 600.5,-20 600.5,0 642.75,0 642.75,-20"/>
<text xml:space="preserve" text-anchor="middle" x="621.62" y="-6.5" font-family="Helvetica,sans-Serif" font-size="10.00">simon</text>
</a>
</g>
</g>
<!-- Node1&#45;&gt;Node10 -->
<g id="edge13_Node000001_Node000010" class="edge">
<title>Node1&#45;&gt;Node10</title>
<g id="a_edge13_Node000001_Node000010"><a xlink:title=" ">
<path fill="none" stroke="#63b8ff" d="M709.39,-51.69C688.31,-41.56 661.3,-28.58 643.06,-19.82"/>
<polygon fill="#63b8ff" stroke="#63b8ff" points="707.6,-54.71 718.13,-55.89 710.63,-48.4 707.6,-54.71"/>
</a>
</g>
</g>
<!-- Node3 -->
<g id="Node000003" class="node">
<title>Node3</title>
<g id="a_Node000003"><a xlink:href="vaisseau_8c.html#ace614afc8df3a40bd5ea0771044ff217" target="_top" xlink:title=" ">
<polygon fill="white" stroke="#666666" points="547.25,-96 433,-96 433,-76 547.25,-76 547.25,-96"/>
<text xml:space="preserve" text-anchor="middle" x="490.12" y="-82.5" font-family="Helvetica,sans-Serif" font-size="10.00">gerer_interaction_objet</text>
</a>
</g>
</g>
<!-- Node2&#45;&gt;Node3 -->
<g id="edge2_Node000002_Node000003" class="edge">
<title>Node2&#45;&gt;Node3</title>
<g id="a_edge2_Node000002_Node000003"><a xlink:title=" ">
<path fill="none" stroke="#63b8ff" d="M571.32,-86C563.54,-86 555.44,-86 547.51,-86"/>
<polygon fill="#63b8ff" stroke="#63b8ff" points="571.31,-89.5 581.31,-86 571.31,-82.5 571.31,-89.5"/>
</a>
</g>
</g>
<!-- Node4 -->
<g id="Node000004" class="node">
<title>Node4</title>
<g id="a_Node000004"><a xlink:href="vaisseau_8c.html#a8ea9afc9440149ddd36e96b97d8ed6c5" target="_top" xlink:title="Lance la scene interieure du vaisseau (deplacement, interactions, mini&#45;jeux, sortie).">
<polygon fill="white" stroke="#666666" points="389.5,-96 334.5,-96 334.5,-76 389.5,-76 389.5,-96"/>
<text xml:space="preserve" text-anchor="middle" x="362" y="-82.5" font-family="Helvetica,sans-Serif" font-size="10.00">vaisseau</text>
</a>
</g>
</g>
<!-- Node3&#45;&gt;Node4 -->
<g id="edge3_Node000003_Node000004" class="edge">
<title>Node3&#45;&gt;Node4</title>
<g id="a_edge3_Node000003_Node000004"><a xlink:title=" ">
<path fill="none" stroke="#63b8ff" d="M421.45,-86C410.2,-86 399.15,-86 389.74,-86"/>
<polygon fill="#63b8ff" stroke="#63b8ff" points="421.19,-89.5 431.19,-86 421.19,-82.5 421.19,-89.5"/>
</a>
</g>
</g>
<!-- Node5 -->
<g id="Node000005" class="node">
<title>Node5</title>
<g id="a_Node000005"><a xlink:href="cinematique_8c.html#a418cc3e727578f4cd509ad27cd6a2a31" target="_top" xlink:title="Lance cinematique fin et gere son deroulement complet.">
<polygon fill="white" stroke="#666666" points="291,-96 180.5,-96 180.5,-76 291,-76 291,-96"/>
<text xml:space="preserve" text-anchor="middle" x="235.75" y="-82.5" font-family="Helvetica,sans-Serif" font-size="10.00">jouer_cinematique_fin</text>
</a>
</g>
</g>
<!-- Node4&#45;&gt;Node5 -->
<g id="edge4_Node000004_Node000005" class="edge">
<title>Node4&#45;&gt;Node5</title>
<g id="a_edge4_Node000004_Node000005"><a xlink:title=" ">
<path fill="none" stroke="#63b8ff" d="M322.58,-86C312.74,-86 301.97,-86 291.48,-86"/>
<polygon fill="#63b8ff" stroke="#63b8ff" points="322.53,-89.5 332.53,-86 322.53,-82.5 322.53,-89.5"/>
</a>
</g>
</g>
<!-- Node7 -->
<g id="Node000007" class="node">
<title>Node7</title>
<g id="a_Node000007"><a xlink:href="main_8c.html#a0ddf1224851353fc92bfbff6f499fa97" target="_top" xlink:title=" ">
<polygon fill="white" stroke="#666666" points="37,-77 0,-77 0,-57 37,-57 37,-77"/>
<text xml:space="preserve" text-anchor="middle" x="18.5" y="-63.5" font-family="Helvetica,sans-Serif" font-size="10.00">main</text>
</a>
</g>
</g>
<!-- Node4&#45;&gt;Node7 -->
<g id="edge8_Node000004_Node000007" class="edge">
<title>Node4&#45;&gt;Node7</title>
<g id="a_edge8_Node000004_Node000007"><a xlink:title=" ">
<path fill="none" stroke="#63b8ff" d="M323.3,-98.2C312.94,-101 301.63,-103.58 291,-105 194.6,-117.85 167.03,-110.82 73,-86 60.8,-82.78 47.43,-78.03 37.1,-74.08"/>
<polygon fill="#63b8ff" stroke="#63b8ff" points="323.98,-101.64 332.63,-95.52 322.05,-94.91 323.98,-101.64"/>
</a>
</g>
</g>
<!-- Node6 -->
<g id="Node000006" class="node">
<title>Node6</title>
<g id="a_Node000006"><a xlink:href="map_8c.html#ad462ccdd50801fb085dc8134fc3765d1" target="_top" xlink:title="Affiche la carte et met a jour les elements visuels associes.">
<polygon fill="white" stroke="#666666" points="144.5,-77 73,-77 73,-57 144.5,-57 144.5,-77"/>
<text xml:space="preserve" text-anchor="middle" x="108.75" y="-63.5" font-family="Helvetica,sans-Serif" font-size="10.00">afficher_map</text>
</a>
</g>
</g>
<!-- Node5&#45;&gt;Node6 -->
<g id="edge5_Node000005_Node000006" class="edge">
<title>Node5&#45;&gt;Node6</title>
<g id="a_edge5_Node000005_Node000006"><a xlink:title=" ">
<path fill="none" stroke="#63b8ff" d="M169,-76.01C160.72,-74.75 152.51,-73.5 144.96,-72.35"/>
<polygon fill="#63b8ff" stroke="#63b8ff" points="168.38,-79.45 178.79,-77.49 169.43,-72.53 168.38,-79.45"/>
</a>
</g>
</g>
<!-- Node6&#45;&gt;Node3 -->
<g id="edge6_Node000006_Node000003" class="edge">
<title>Node6&#45;&gt;Node3</title>
<g id="a_edge6_Node000006_Node000003"><a xlink:title=" ">
<path fill="none" stroke="#63b8ff" d="M156.28,-64.11C213.22,-61.23 312.47,-58.37 397,-67 413.73,-68.71 431.92,-72.12 447.67,-75.58"/>
<polygon fill="#63b8ff" stroke="#63b8ff" points="156.11,-60.61 146.31,-64.63 156.48,-67.6 156.11,-60.61"/>
</a>
</g>
</g>
<!-- Node6&#45;&gt;Node7 -->
<g id="edge7_Node000006_Node000007" class="edge">
<title>Node6&#45;&gt;Node7</title>
<g id="a_edge7_Node000006_Node000007"><a xlink:title=" ">
<path fill="none" stroke="#63b8ff" d="M61.39,-67C52.82,-67 44.36,-67 37.31,-67"/>
<polygon fill="#63b8ff" stroke="#63b8ff" points="61.1,-70.5 71.1,-67 61.1,-63.5 61.1,-70.5"/>
</a>
</g>
</g>
<!-- Node8&#45;&gt;Node3 -->
<g id="edge10_Node000008_Node000003" class="edge">
<title>Node8&#45;&gt;Node3</title>
<g id="a_edge10_Node000008_Node000003"><a xlink:title=" ">
<path fill="none" stroke="#63b8ff" d="M573.9,-61.71C558.35,-66.27 541.3,-71.28 526.74,-75.55"/>
<polygon fill="#63b8ff" stroke="#63b8ff" points="574.83,-65.08 583.44,-58.91 572.86,-58.37 574.83,-65.08"/>
</a>
</g>
</g>
<!-- Node9&#45;&gt;Node3 -->
<g id="edge12_Node000009_Node000003" class="edge">
<title>Node9&#45;&gt;Node3</title>
<g id="a_edge12_Node000009_Node000003"><a xlink:title=" ">
<path fill="none" stroke="#63b8ff" d="M573.9,-110.29C558.35,-105.73 541.3,-100.72 526.74,-96.45"/>
<polygon fill="#63b8ff" stroke="#63b8ff" points="572.86,-113.63 583.44,-113.09 574.83,-106.92 572.86,-113.63"/>
</a>
</g>
</g>
<!-- Node11 -->
<g id="Node000011" class="node">
<title>Node11</title>
<g id="a_Node000011"><a xlink:href="jeux_8c.html#a2d7491d04e8c2bdb52bb6ed7d75e4d78" target="_top" xlink:title="Execute la boucle principale de gameplay pour la planete courante.">
<polygon fill="white" stroke="#666666" points="397,-20 327,-20 327,0 397,0 397,-20"/>
<text xml:space="preserve" text-anchor="middle" x="362" y="-6.5" font-family="Helvetica,sans-Serif" font-size="10.00">jeu_principal</text>
</a>
</g>
</g>
<!-- Node10&#45;&gt;Node11 -->
<g id="edge14_Node000010_Node000011" class="edge">
<title>Node10&#45;&gt;Node11</title>
<g id="a_edge14_Node000010_Node000011"><a xlink:title=" ">
<path fill="none" stroke="#63b8ff" d="M589.03,-10C540.32,-10 447.26,-10 397.09,-10"/>
<polygon fill="#63b8ff" stroke="#63b8ff" points="588.9,-13.5 598.9,-10 588.9,-6.5 588.9,-13.5"/>
</a>
</g>
</g>
<!-- Node11&#45;&gt;Node7 -->
<g id="edge15_Node000011_Node000007" class="edge">
<title>Node11&#45;&gt;Node7</title>
<g id="a_edge15_Node000011_Node000007"><a xlink:title=" ">
<path fill="none" stroke="#63b8ff" d="M315.71,-13.02C258.52,-17.51 157.41,-27.68 73,-48 60.73,-50.95 47.36,-55.7 37.05,-59.71"/>
<polygon fill="#63b8ff" stroke="#63b8ff" points="315.66,-16.53 325.37,-12.29 315.14,-9.55 315.66,-16.53"/>
</a>
</g>
</g>
</g>
</svg>
