<?xml version="1.0" encoding="UTF-8" standalone="no"?>
<!DOCTYPE svg PUBLIC "-//W3C//DTD SVG 1.1//EN"
 "http://www.w3.org/Graphics/SVG/1.1/DTD/svg11.dtd">
<!-- Generated by graphviz version 14.1.4 (20260321.0153)
 -->
<!-- Title: arcade_get_font Pages: 1 -->
<svg width="1061pt" height="181pt"
 viewBox="0.00 0.00 1061.00 181.00" xmlns="http://www.w3.org/2000/svg" xmlns:xlink="http://www.w3.org/1999/xlink">
<g id="graph0" class="graph" transform="scale(1 1) rotate(0) translate(4 176.88)">
<title>arcade_get_font</title>
<!-- Node1 -->
<g id="Node000001" class="node">
<title>Node1</title>
<g id="a_Node000001"><a xlink:title=" ">
<polygon fill="#999999" stroke="#666666" points="1053,-77 967.25,-77 967.25,-57 1053,-57 1053,-77"/>
<text xml:space="preserve" text-anchor="middle" x="1010.12" y="-63.5" font-family="Helvetica,sans-Serif" font-size="10.00">arcade_get_font</text>
</a>
</g>
</g>
<!-- Node2 -->
<g id="Node000002" class="node">
<title>Node2</title>
<g id="a_Node000002"><a xlink:href="arcade_8c.html#adcd100b7250411e655a98a61dace3f5a" target="_top" xlink:title=" ">
<polygon fill="white" stroke="#666666" points="931.25,-115 838,-115 838,-95 931.25,-95 931.25,-115"/>
<text xml:space="preserve" text-anchor="middle" x="884.62" y="-101.5" font-family="Helvetica,sans-Serif" font-size="10.00">arcade_draw_text</text>
</a>
</g>
</g>
<!-- Node1&#45;&gt;Node2 -->
<g id="edge1_Node000001_Node000002" class="edge">
<title>Node1&#45;&gt;Node2</title>
<g id="a_edge1_Node000001_Node000002"><a xlink:title=" ">
<path fill="none" stroke="#63b8ff" d="M964.13,-80.84C949.42,-85.37 933.34,-90.32 919.59,-94.55"/>
<polygon fill="#63b8ff" stroke="#63b8ff" points="965.08,-84.22 973.6,-77.93 963.02,-77.53 965.08,-84.22"/>
</a>
</g>
</g>
<!-- Node16 -->
<g id="Node000016" class="node">
<title>Node16</title>
<g id="a_Node000016"><a xlink:href="arcade_8c.html#a6af91075a7d4eb204378373cbe08646a" target="_top" xlink:title=" ">
<polygon fill="white" stroke="#666666" points="788.88,-20 694.12,-20 694.12,0 788.88,0 788.88,-20"/>
<text xml:space="preserve" text-anchor="middle" x="741.5" y="-6.5" font-family="Helvetica,sans-Serif" font-size="10.00">minijeu_draw_text</text>
</a>
</g>
</g>
<!-- Node1&#45;&gt;Node16 -->
<g id="edge28_Node000001_Node000016" class="edge">
<title>Node1&#45;&gt;Node16</title>
<g id="a_edge28_Node000001_Node000016"><a xlink:title=" ">
<path fill="none" stroke="#63b8ff" d="M955.91,-55.62C907.13,-45.19 835.59,-29.9 789.03,-19.95"/>
<polygon fill="#63b8ff" stroke="#63b8ff" points="954.89,-58.98 965.4,-57.65 956.35,-52.14 954.89,-58.98"/>
</a>
</g>
</g>
<!-- Node3 -->
<g id="Node000003" class="node">
<title>Node3</title>
<g id="a_Node000003"><a xlink:href="arcade_8c.html#a25752e139d33d2208840bba4bd7597df" target="_top" xlink:title=" ">
<polygon fill="white" stroke="#666666" points="787.75,-134 695.25,-134 695.25,-114 787.75,-114 787.75,-134"/>
<text xml:space="preserve" text-anchor="middle" x="741.5" y="-120.5" font-family="Helvetica,sans-Serif" font-size="10.00">arcade_draw_hud</text>
</a>
</g>
</g>
<!-- Node2&#45;&gt;Node3 -->
<g id="edge2_Node000002_Node000003" class="edge">
<title>Node2&#45;&gt;Node3</title>
<g id="a_edge2_Node000002_Node000003"><a xlink:title=" ">
<path fill="none" stroke="#63b8ff" d="M826.72,-112.66C813.88,-114.39 800.4,-116.2 788.09,-117.86"/>
<polygon fill="#63b8ff" stroke="#63b8ff" points="826.86,-116.17 836.31,-111.37 825.93,-109.24 826.86,-116.17"/>
</a>
</g>
</g>
<!-- Node4 -->
<g id="Node000004" class="node">
<title>Node4</title>
<g id="a_Node000004"><a xlink:href="arcade_8c.html#ac90ef500e15768a0d93b6e4d0c324a5c" target="_top" xlink:title="Lance arcade1 et gere son deroulement complet.">
<polygon fill="white" stroke="#666666" points="645,-172 568.25,-172 568.25,-152 645,-152 645,-172"/>
<text xml:space="preserve" text-anchor="middle" x="606.62" y="-158.5" font-family="Helvetica,sans-Serif" font-size="10.00">jouer_arcade1</text>
</a>
</g>
</g>
<!-- Node2&#45;&gt;Node4 -->
<g id="edge25_Node000002_Node000004" class="edge">
<title>Node2&#45;&gt;Node4</title>
<g id="a_edge25_Node000002_Node000004"><a xlink:title=" ">
<path fill="none" stroke="#63b8ff" d="M864.99,-122.67C849.48,-136.08 826.13,-153.45 802,-161 749.5,-177.42 685.06,-173.34 645.16,-168.2"/>
<polygon fill="#63b8ff" stroke="#63b8ff" points="866.92,-125.64 872.02,-116.35 862.25,-120.43 866.92,-125.64"/>
</a>
</g>
</g>
<!-- Node10 -->
<g id="Node000010" class="node">
<title>Node10</title>
<g id="a_Node000010"><a xlink:href="arcade_8c.html#a97cf0885563c96f017c3408ca0cb0670" target="_top" xlink:title="Lance arcade2 et gere son deroulement complet.">
<polygon fill="white" stroke="#666666" points="645,-134 568.25,-134 568.25,-114 645,-114 645,-134"/>
<text xml:space="preserve" text-anchor="middle" x="606.62" y="-120.5" font-family="Helvetica,sans-Serif" font-size="10.00">jouer_arcade2</text>
</a>
</g>
</g>
<!-- Node2&#45;&gt;Node10 -->
<g id="edge26_Node000002_Node000010" class="edge">
<title>Node2&#45;&gt;Node10</title>
<g id="a_edge26_Node000002_Node000010"><a xlink:title=" ">
<path fill="none" stroke="#63b8ff" d="M857.01,-121C841.54,-129.36 821.34,-138.72 802,-143 749.49,-154.62 734.35,-149.79 681,-143 667.55,-141.29 653.05,-137.88 640.52,-134.41"/>
<polygon fill="#63b8ff" stroke="#63b8ff" points="858.57,-124.14 865.57,-116.19 855.14,-118.04 858.57,-124.14"/>
</a>
</g>
</g>
<!-- Node11 -->
<g id="Node000011" class="node">
<title>Node11</title>
<g id="a_Node000011"><a xlink:href="arcade_8c.html#a4d835eb6e2ce82e2c147bbc29a36a3ce" target="_top" xlink:title="Lance arcade3 et gere son deroulement complet.">
<polygon fill="white" stroke="#666666" points="645,-96 568.25,-96 568.25,-76 645,-76 645,-96"/>
<text xml:space="preserve" text-anchor="middle" x="606.62" y="-82.5" font-family="Helvetica,sans-Serif" font-size="10.00">jouer_arcade3</text>
</a>
</g>
</g>
<!-- Node2&#45;&gt;Node11 -->
<g id="edge27_Node000002_Node000011" class="edge">
<title>Node2&#45;&gt;Node11</title>
<g id="a_edge27_Node000002_Node000011"><a xlink:title=" ">
<path fill="none" stroke="#63b8ff" d="M857.01,-89C841.54,-80.64 821.34,-71.28 802,-67 749.49,-55.38 734.35,-60.21 681,-67 667.55,-68.71 653.05,-72.12 640.52,-75.59"/>
<polygon fill="#63b8ff" stroke="#63b8ff" points="855.14,-91.96 865.57,-93.81 858.57,-85.86 855.14,-91.96"/>
</a>
</g>
</g>
<!-- Node14 -->
<g id="Node000014" class="node">
<title>Node14</title>
<g id="a_Node000014"><a xlink:href="arcade_8c.html#af12f65de40144cb2fb5188f647a813d9" target="_top" xlink:title=" ">
<polygon fill="white" stroke="#666666" points="802,-96 681,-96 681,-76 802,-76 802,-96"/>
<text xml:space="preserve" text-anchor="middle" x="741.5" y="-82.5" font-family="Helvetica,sans-Serif" font-size="10.00">arcade_draw_info_panel</text>
</a>
</g>
</g>
<!-- Node2&#45;&gt;Node14 -->
<g id="edge18_Node000002_Node000014" class="edge">
<title>Node2&#45;&gt;Node14</title>
<g id="a_edge18_Node000002_Node000014"><a xlink:title=" ">
<path fill="none" stroke="#63b8ff" d="M826.45,-97.3C818.55,-96.24 810.43,-95.15 802.48,-94.08"/>
<polygon fill="#63b8ff" stroke="#63b8ff" points="825.93,-100.76 836.31,-98.63 826.86,-93.83 825.93,-100.76"/>
</a>
</g>
</g>
<!-- Node3&#45;&gt;Node4 -->
<g id="edge3_Node000003_Node000004" class="edge">
<title>Node3&#45;&gt;Node4</title>
<g id="a_edge3_Node000003_Node000004"><a xlink:title=" ">
<path fill="none" stroke="#63b8ff" d="M693.02,-137.58C676.95,-142.18 659.26,-147.23 644.17,-151.55"/>
<polygon fill="#63b8ff" stroke="#63b8ff" points="693.73,-141.02 702.38,-134.9 691.81,-134.29 693.73,-141.02"/>
</a>
</g>
</g>
<!-- Node3&#45;&gt;Node10 -->
<g id="edge11_Node000003_Node000010" class="edge">
<title>Node3&#45;&gt;Node10</title>
<g id="a_edge11_Node000003_Node000010"><a xlink:title=" ">
<path fill="none" stroke="#63b8ff" d="M683.63,-124C670.74,-124 657.37,-124 645.5,-124"/>
<polygon fill="#63b8ff" stroke="#63b8ff" points="683.26,-127.5 693.26,-124 683.26,-120.5 683.26,-127.5"/>
</a>
</g>
</g>
<!-- Node3&#45;&gt;Node11 -->
<g id="edge13_Node000003_Node000011" class="edge">
<title>Node3&#45;&gt;Node11</title>
<g id="a_edge13_Node000003_Node000011"><a xlink:title=" ">
<path fill="none" stroke="#63b8ff" d="M693.02,-110.42C676.95,-105.82 659.26,-100.77 644.17,-96.45"/>
<polygon fill="#63b8ff" stroke="#63b8ff" points="691.81,-113.71 702.38,-113.1 693.73,-106.98 691.81,-113.71"/>
</a>
</g>
</g>
<!-- Node12 -->
<g id="Node000012" class="node">
<title>Node12</title>
<g id="a_Node000012"><a xlink:href="arcade_8c.html#a60b12154cf6385b2392e62c0fb9c4e8a" target="_top" xlink:title="Lance le mini&#45;jeu Simon utilise dans la progression.">
<polygon fill="white" stroke="#666666" points="627.75,-58 585.5,-58 585.5,-38 627.75,-38 627.75,-58"/>
<text xml:space="preserve" text-anchor="middle" x="606.62" y="-44.5" font-family="Helvetica,sans-Serif" font-size="10.00">simon</text>
</a>
</g>
</g>
<!-- Node3&#45;&gt;Node12 -->
<g id="edge15_Node000003_Node000012" class="edge">
<title>Node3&#45;&gt;Node12</title>
<g id="a_edge15_Node000003_Node000012"><a xlink:title=" ">
<path fill="none" stroke="#63b8ff" d="M688.17,-109.01C685.69,-107.77 683.29,-106.44 681,-105 661.3,-92.63 663.64,-80.92 645,-67 639.87,-63.17 633.85,-59.72 628.16,-56.86"/>
<polygon fill="#63b8ff" stroke="#63b8ff" points="686.7,-112.19 697.26,-113 689.51,-105.78 686.7,-112.19"/>
</a>
</g>
</g>
<!-- Node5 -->
<g id="Node000005" class="node">
<title>Node5</title>
<g id="a_Node000005"><a xlink:href="vaisseau_8c.html#ace614afc8df3a40bd5ea0771044ff217" target="_top" xlink:title=" ">
<polygon fill="white" stroke="#666666" points="532.25,-134 418,-134 418,-114 532.25,-114 532.25,-134"/>
<text xml:space="preserve" text-anchor="middle" x="475.12" y="-120.5" font-family="Helvetica,sans-Serif" font-size="10.00">gerer_interaction_objet</text>
</a>
</g>
</g>
<!-- Node4&#45;&gt;Node5 -->
<g id="edge4_Node000004_Node000005" class="edge">
<title>Node4&#45;&gt;Node5</title>
<g id="a_edge4_Node000004_Node000005"><a xlink:title=" ">
<path fill="none" stroke="#63b8ff" d="M558.9,-148.29C543.35,-143.73 526.3,-138.72 511.74,-134.45"/>
<polygon fill="#63b8ff" stroke="#63b8ff" points="557.86,-151.63 568.44,-151.09 559.83,-144.92 557.86,-151.63"/>
</a>
</g>
</g>
<!-- Node6 -->
<g id="Node000006" class="node">
<title>Node6</title>
<g id="a_Node000006"><a xlink:href="vaisseau_8c.html#a8ea9afc9440149ddd36e96b97d8ed6c5" target="_top" xlink:title="Lance la scene interieure du vaisseau (deplacement, interactions, mini&#45;jeux, sortie).">
<polygon fill="white" stroke="#666666" points="382,-115 327,-115 327,-95 382,-95 382,-115"/>
<text xml:space="preserve" text-anchor="middle" x="354.5" y="-101.5" font-family="Helvetica,sans-Serif" font-size="10.00">vaisseau</text>
</a>
</g>
</g>
<!-- Node5&#45;&gt;Node6 -->
<g id="edge5_Node000005_Node000006" class="edge">
<title>Node5&#45;&gt;Node6</title>
<g id="a_edge5_Node000005_Node000006"><a xlink:title=" ">
<path fill="none" stroke="#63b8ff" d="M406.37,-113.15C397.89,-111.79 389.65,-110.47 382.35,-109.3"/>
<polygon fill="#63b8ff" stroke="#63b8ff" points="405.67,-116.58 416.1,-114.71 406.78,-109.67 405.67,-116.58"/>
</a>
</g>
</g>
<!-- Node7 -->
<g id="Node000007" class="node">
<title>Node7</title>
<g id="a_Node000007"><a xlink:href="cinematique_8c.html#a418cc3e727578f4cd509ad27cd6a2a31" target="_top" xlink:title="Lance cinematique fin et gere son deroulement complet.">
<polygon fill="white" stroke="#666666" points="291,-115 180.5,-115 180.5,-95 291,-95 291,-115"/>
<text xml:space="preserve" text-anchor="middle" x="235.75" y="-101.5" font-family="Helvetica,sans-Serif" font-size="10.00">jouer_cinematique_fin</text>
</a>
</g>
</g>
<!-- Node6&#45;&gt;Node7 -->
<g id="edge6_Node000006_Node000007" class="edge">
<title>Node6&#45;&gt;Node7</title>
<g id="a_edge6_Node000006_Node000007"><a xlink:title=" ">
<path fill="none" stroke="#63b8ff" d="M315.4,-105C307.61,-105 299.28,-105 291.05,-105"/>
<polygon fill="#63b8ff" stroke="#63b8ff" points="315.2,-108.5 325.2,-105 315.2,-101.5 315.2,-108.5"/>
</a>
</g>
</g>
<!-- Node9 -->
<g id="Node000009" class="node">
<title>Node9</title>
<g id="a_Node000009"><a xlink:href="main_8c.html#a0ddf1224851353fc92bfbff6f499fa97" target="_top" xlink:title=" ">
<polygon fill="white" stroke="#666666" points="37,-77 0,-77 0,-57 37,-57 37,-77"/>
<text xml:space="preserve" text-anchor="middle" x="18.5" y="-63.5" font-family="Helvetica,sans-Serif" font-size="10.00">main</text>
</a>
</g>
</g>
<!-- Node6&#45;&gt;Node9 -->
<g id="edge10_Node000006_Node000009" class="edge">
<title>Node6&#45;&gt;Node9</title>
<g id="a_edge10_Node000006_Node000009"><a xlink:title=" ">
<path fill="none" stroke="#63b8ff" d="M316.02,-92.11C307.85,-89.73 299.2,-87.51 291,-86 196.67,-68.59 81.22,-66.84 37.46,-66.87"/>
<polygon fill="#63b8ff" stroke="#63b8ff" points="314.72,-95.38 325.31,-94.98 316.78,-88.69 314.72,-95.38"/>
</a>
</g>
</g>
<!-- Node8 -->
<g id="Node000008" class="node">
<title>Node8</title>
<g id="a_Node000008"><a xlink:href="map_8c.html#ad462ccdd50801fb085dc8134fc3765d1" target="_top" xlink:title="Affiche la carte et met a jour les elements visuels associes.">
<polygon fill="white" stroke="#666666" points="144.5,-115 73,-115 73,-95 144.5,-95 144.5,-115"/>
<text xml:space="preserve" text-anchor="middle" x="108.75" y="-101.5" font-family="Helvetica,sans-Serif" font-size="10.00">afficher_map</text>
</a>
</g>
</g>
<!-- Node7&#45;&gt;Node8 -->
<g id="edge7_Node000007_Node000008" class="edge">
<title>Node7&#45;&gt;Node8</title>
<g id="a_edge7_Node000007_Node000008"><a xlink:title=" ">
<path fill="none" stroke="#63b8ff" d="M169,-105C160.72,-105 152.51,-105 144.96,-105"/>
<polygon fill="#63b8ff" stroke="#63b8ff" points="168.77,-108.5 178.77,-105 168.77,-101.5 168.77,-108.5"/>
</a>
</g>
</g>
<!-- Node8&#45;&gt;Node5 -->
<g id="edge8_Node000008_Node000005" class="edge">
<title>Node8&#45;&gt;Node5</title>
<g id="a_edge8_Node000008_Node000005"><a xlink:title=" ">
<path fill="none" stroke="#63b8ff" d="M152.33,-118.36C161.53,-120.71 171.27,-122.78 180.5,-124 262.37,-134.8 358.21,-131.93 417.55,-128.37"/>
<polygon fill="#63b8ff" stroke="#63b8ff" points="153.47,-115.05 142.9,-115.81 151.64,-121.8 153.47,-115.05"/>
</a>
</g>
</g>
<!-- Node8&#45;&gt;Node9 -->
<g id="edge9_Node000008_Node000009" class="edge">
<title>Node8&#45;&gt;Node9</title>
<g id="a_edge9_Node000008_Node000009"><a xlink:title=" ">
<path fill="none" stroke="#63b8ff" d="M73.25,-90.14C61,-84.87 47.72,-79.15 37.43,-74.72"/>
<polygon fill="#63b8ff" stroke="#63b8ff" points="71.68,-93.28 82.25,-94.02 74.44,-86.85 71.68,-93.28"/>
</a>
</g>
</g>
<!-- Node10&#45;&gt;Node5 -->
<g id="edge12_Node000010_Node000005" class="edge">
<title>Node10&#45;&gt;Node5</title>
<g id="a_edge12_Node000010_Node000005"><a xlink:title=" ">
<path fill="none" stroke="#63b8ff" d="M556.32,-124C548.54,-124 540.44,-124 532.51,-124"/>
<polygon fill="#63b8ff" stroke="#63b8ff" points="556.31,-127.5 566.31,-124 556.31,-120.5 556.31,-127.5"/>
</a>
</g>
</g>
<!-- Node11&#45;&gt;Node5 -->
<g id="edge14_Node000011_Node000005" class="edge">
<title>Node11&#45;&gt;Node5</title>
<g id="a_edge14_Node000011_Node000005"><a xlink:title=" ">
<path fill="none" stroke="#63b8ff" d="M558.9,-99.71C543.35,-104.27 526.3,-109.28 511.74,-113.55"/>
<polygon fill="#63b8ff" stroke="#63b8ff" points="559.83,-103.08 568.44,-96.91 557.86,-96.37 559.83,-103.08"/>
</a>
</g>
</g>
<!-- Node13 -->
<g id="Node000013" class="node">
<title>Node13</title>
<g id="a_Node000013"><a xlink:href="jeux_8c.html#a2d7491d04e8c2bdb52bb6ed7d75e4d78" target="_top" xlink:title="Execute la boucle principale de gameplay pour la planete courante.">
<polygon fill="white" stroke="#666666" points="510.12,-39 440.12,-39 440.12,-19 510.12,-19 510.12,-39"/>
<text xml:space="preserve" text-anchor="middle" x="475.12" y="-25.5" font-family="Helvetica,sans-Serif" font-size="10.00">jeu_principal</text>
</a>
</g>
</g>
<!-- Node12&#45;&gt;Node13 -->
<g id="edge16_Node000012_Node000013" class="edge">
<title>Node12&#45;&gt;Node13</title>
<g id="a_edge16_Node000012_Node000013"><a xlink:title=" ">
<path fill="none" stroke="#63b8ff" d="M573.9,-43.35C554.66,-40.52 530.11,-36.92 510.42,-34.03"/>
<polygon fill="#63b8ff" stroke="#63b8ff" points="573.21,-46.78 583.61,-44.77 574.22,-39.86 573.21,-46.78"/>
</a>
</g>
</g>
<!-- Node13&#45;&gt;Node9 -->
<g id="edge17_Node000013_Node000009" class="edge">
<title>Node13&#45;&gt;Node9</title>
<g id="a_edge17_Node000013_Node000009"><a xlink:title=" ">
<path fill="none" stroke="#63b8ff" d="M428.65,-32.8C330.48,-41.01 102.35,-60.08 37.18,-65.52"/>
<polygon fill="#63b8ff" stroke="#63b8ff" points="428.77,-36.3 438.45,-31.98 428.19,-29.33 428.77,-36.3"/>
</a>
</g>
</g>
<!-- Node14&#45;&gt;Node4 -->
<g id="edge19_Node000014_Node000004" class="edge">
<title>Node14&#45;&gt;Node4</title>
<g id="a_edge19_Node000014_Node000004"><a xlink:title=" ">
<path fill="none" stroke="#63b8ff" d="M688.17,-100.99C685.69,-102.23 683.29,-103.56 681,-105 661.3,-117.37 663.64,-129.08 645,-143 640.8,-146.14 636.01,-149.01 631.29,-151.52"/>
<polygon fill="#63b8ff" stroke="#63b8ff" points="689.51,-104.22 697.26,-97 686.7,-97.81 689.51,-104.22"/>
</a>
</g>
</g>
<!-- Node14&#45;&gt;Node10 -->
<g id="edge20_Node000014_Node000010" class="edge">
<title>Node14&#45;&gt;Node10</title>
<g id="a_edge20_Node000014_Node000010"><a xlink:title=" ">
<path fill="none" stroke="#63b8ff" d="M693.02,-99.58C676.95,-104.18 659.26,-109.23 644.17,-113.55"/>
<polygon fill="#63b8ff" stroke="#63b8ff" points="693.73,-103.02 702.38,-96.9 691.81,-96.29 693.73,-103.02"/>
</a>
</g>
</g>
<!-- Node14&#45;&gt;Node11 -->
<g id="edge21_Node000014_Node000011" class="edge">
<title>Node14&#45;&gt;Node11</title>
<g id="a_edge21_Node000014_Node000011"><a xlink:title=" ">
<path fill="none" stroke="#63b8ff" d="M669.4,-86C661.14,-86 652.98,-86 645.43,-86"/>
<polygon fill="#63b8ff" stroke="#63b8ff" points="669.16,-89.5 679.16,-86 669.16,-82.5 669.16,-89.5"/>
</a>
</g>
</g>
<!-- Node14&#45;&gt;Node12 -->
<g id="edge24_Node000014_Node000012" class="edge">
<title>Node14&#45;&gt;Node12</title>
<g id="a_edge24_Node000014_Node000012"><a xlink:title=" ">
<path fill="none" stroke="#63b8ff" d="M692.88,-72.38C670.62,-66.02 645.3,-58.78 628.08,-53.85"/>
<polygon fill="#63b8ff" stroke="#63b8ff" points="691.81,-75.72 702.38,-75.1 693.73,-68.98 691.81,-75.72"/>
</a>
</g>
</g>
<!-- Node15 -->
<g id="Node000015" class="node">
<title>Node15</title>
<g id="a_Node000015"><a xlink:href="arcade_8c.html#a9be93ac88e97809a94f0ae9b48152aa9" target="_top" xlink:title="Lance le mini&#45;jeu Mastermind utilise dans la progression.">
<polygon fill="white" stroke="#666666" points="640.12,-20 573.12,-20 573.12,0 640.12,0 640.12,-20"/>
<text xml:space="preserve" text-anchor="middle" x="606.62" y="-6.5" font-family="Helvetica,sans-Serif" font-size="10.00">mastermind</text>
</a>
</g>
</g>
<!-- Node14&#45;&gt;Node15 -->
<g id="edge22_Node000014_Node000015" class="edge">
<title>Node14&#45;&gt;Node15</title>
<g id="a_edge22_Node000014_Node000015"><a xlink:title=" ">
<path fill="none" stroke="#63b8ff" d="M714.05,-69.56C695.03,-57.9 668.68,-42.07 645,-29 639.77,-26.12 634.06,-23.13 628.71,-20.4"/>
<polygon fill="#63b8ff" stroke="#63b8ff" points="712.16,-72.5 722.51,-74.77 715.83,-66.54 712.16,-72.5"/>
</a>
</g>
</g>
<!-- Node15&#45;&gt;Node13 -->
<g id="edge23_Node000015_Node000013" class="edge">
<title>Node15&#45;&gt;Node13</title>
<g id="a_edge23_Node000015_Node000013"><a xlink:title=" ">
<path fill="none" stroke="#63b8ff" d="M561.78,-16.43C545.09,-18.88 526.31,-21.64 510.61,-23.94"/>
<polygon fill="#63b8ff" stroke="#63b8ff" points="562.06,-19.93 571.45,-15.01 561.05,-13 562.06,-19.93"/>
</a>
</g>
</g>
<!-- Node16&#45;&gt;Node12 -->
<g id="edge30_Node000016_Node000012" class="edge">
<title>Node16&#45;&gt;Node12</title>
<g id="a_edge30_Node000016_Node000012"><a xlink:title=" ">
<path fill="none" stroke="#63b8ff" d="M692.88,-23.62C670.62,-29.98 645.3,-37.22 628.08,-42.15"/>
<polygon fill="#63b8ff" stroke="#63b8ff" points="693.73,-27.02 702.38,-20.9 691.81,-20.28 693.73,-27.02"/>
</a>
</g>
</g>
<!-- Node16&#45;&gt;Node15 -->
<g id="edge29_Node000016_Node000015" class="edge">
<title>Node16&#45;&gt;Node15</title>
<g id="a_edge29_Node000016_Node000015"><a xlink:title=" ">
<path fill="none" stroke="#63b8ff" d="M682.28,-10C667.89,-10 652.98,-10 640.3,-10"/>
<polygon fill="#63b8ff" stroke="#63b8ff" points="682.14,-13.5 692.14,-10 682.14,-6.5 682.14,-13.5"/>
</a>
</g>
</g>
</g>
</svg>
