<?xml version="1.0" encoding="UTF-8" standalone="no"?>
<!DOCTYPE svg PUBLIC "-//W3C//DTD SVG 1.1//EN"
 "http://www.w3.org/Graphics/SVG/1.1/DTD/svg11.dtd">
<!-- Generated by graphviz version 14.1.4 (20260321.0153)
 -->
<!-- Title: mastermind Pages: 1 -->
<svg width="485pt" height="85pt"
 viewBox="0.00 0.00 485.00 85.00" xmlns="http://www.w3.org/2000/svg" xmlns:xlink="http://www.w3.org/1999/xlink">

<svg id="main" version="1.1" xmlns="http://www.w3.org/2000/svg" xmlns:xlink="http://www.w3.org/1999/xlink" xml:space="preserve">

<style type="text/css"><![CDATA[
.node, .edge {opacity: 0.7;}
.node.selected, .edge.selected {opacity: 1;}
.edge:hover path { stroke: red; }
.edge:hover polygon { stroke: red; fill: red; }
]]></style>
<script type="application/ecmascript" xlink:href="svg.min.js"/>
<svg id="graph" class="graph">
<g id="graph0" class="graph" transform="scale(1 1) rotate(0) translate(4 81)">
<title>mastermind</title>
<!-- Node1 -->
<g id="Node000001" class="node">
<title>Node1</title>
<g id="a_Node000001"><a xlink:title="Lance le mini&#45;jeu Mastermind utilise dans la progression.">
<polygon fill="#999999" stroke="#666666" points="67,-39 0,-39 0,-19 67,-19 67,-39"/>
<text xml:space="preserve" text-anchor="middle" x="33.5" y="-25.5" font-family="Helvetica,sans-Serif" font-size="10.00">mastermind</text>
</a>
</g>
</g>
<!-- Node2 -->
<g id="Node000002" class="node">
<title>Node2</title>
<g id="a_Node000002"><a xlink:href="arcade_8c.html#af12f65de40144cb2fb5188f647a813d9" target="_top" xlink:title=" ">
<polygon fill="white" stroke="#666666" points="224,-77 103,-77 103,-57 224,-57 224,-77"/>
<text xml:space="preserve" text-anchor="middle" x="163.5" y="-63.5" font-family="Helvetica,sans-Serif" font-size="10.00">arcade_draw_info_panel</text>
</a>
</g>
</g>
<!-- Node1&#45;&gt;Node2 -->
<g id="edge1_Node000001_Node000002" class="edge">
<title>Node1&#45;&gt;Node2</title>
<g id="a_edge1_Node000001_Node000002"><a xlink:title=" ">
<path fill="none" stroke="#63b8ff" d="M67.46,-38.79C82.39,-43.22 100.29,-48.53 116.5,-53.35"/>
<polygon fill="#63b8ff" stroke="#63b8ff" points="115.37,-56.66 125.96,-56.15 117.37,-49.95 115.37,-56.66"/>
</a>
</g>
</g>
<!-- Node5 -->
<g id="Node000005" class="node">
<title>Node5</title>
<g id="a_Node000005"><a xlink:href="arcade_8c.html#ae8d9caebe1f074127a0cce2bea541aeb" target="_top" xlink:title=" ">
<polygon fill="white" stroke="#666666" points="215,-39 112,-39 112,-19 215,-19 215,-39"/>
<text xml:space="preserve" text-anchor="middle" x="163.5" y="-25.5" font-family="Helvetica,sans-Serif" font-size="10.00">minijeu_draw_frame</text>
</a>
</g>
</g>
<!-- Node1&#45;&gt;Node5 -->
<g id="edge4_Node000001_Node000005" class="edge">
<title>Node1&#45;&gt;Node5</title>
<g id="a_edge4_Node000001_Node000005"><a xlink:title=" ">
<path fill="none" stroke="#63b8ff" d="M67.46,-29C77.57,-29 89.05,-29 100.44,-29"/>
<polygon fill="#63b8ff" stroke="#63b8ff" points="100.24,-32.5 110.24,-29 100.24,-25.5 100.24,-32.5"/>
</a>
</g>
</g>
<!-- Node6 -->
<g id="Node000006" class="node">
<title>Node6</title>
<g id="a_Node000006"><a xlink:href="arcade_8c.html#a6af91075a7d4eb204378373cbe08646a" target="_top" xlink:title=" ">
<polygon fill="white" stroke="#666666" points="354.75,-20 260,-20 260,0 354.75,0 354.75,-20"/>
<text xml:space="preserve" text-anchor="middle" x="307.38" y="-6.5" font-family="Helvetica,sans-Serif" font-size="10.00">minijeu_draw_text</text>
</a>
</g>
</g>
<!-- Node1&#45;&gt;Node6 -->
<g id="edge5_Node000001_Node000006" class="edge">
<title>Node1&#45;&gt;Node6</title>
<g id="a_edge5_Node000001_Node000006"><a xlink:title=" ">
<path fill="none" stroke="#63b8ff" d="M65.16,-18.59C76.86,-15.13 90.4,-11.71 103,-10 151.66,-3.38 207.49,-3.95 248.32,-5.86"/>
<polygon fill="#63b8ff" stroke="#63b8ff" points="248.01,-9.34 258.18,-6.36 248.37,-2.35 248.01,-9.34"/>
</a>
</g>
</g>
<!-- Node3 -->
<g id="Node000003" class="node">
<title>Node3</title>
<g id="a_Node000003"><a xlink:href="arcade_8c.html#adcd100b7250411e655a98a61dace3f5a" target="_top" xlink:title=" ">
<polygon fill="white" stroke="#666666" points="354,-67 260.75,-67 260.75,-47 354,-47 354,-67"/>
<text xml:space="preserve" text-anchor="middle" x="307.38" y="-53.5" font-family="Helvetica,sans-Serif" font-size="10.00">arcade_draw_text</text>
</a>
</g>
</g>
<!-- Node2&#45;&gt;Node3 -->
<g id="edge2_Node000002_Node000003" class="edge">
<title>Node2&#45;&gt;Node3</title>
<g id="a_edge2_Node000002_Node000003"><a xlink:title=" ">
<path fill="none" stroke="#63b8ff" d="M224.26,-62.79C232.49,-62.21 240.93,-61.61 249.12,-61.04"/>
<polygon fill="#63b8ff" stroke="#63b8ff" points="249.24,-64.54 258.97,-60.34 248.75,-57.55 249.24,-64.54"/>
</a>
</g>
</g>
<!-- Node4 -->
<g id="Node000004" class="node">
<title>Node4</title>
<g id="a_Node000004"><a xlink:href="arcade_8c.html#aef73159add1b6705e8ecc9411076a194" target="_top" xlink:title=" ">
<polygon fill="white" stroke="#666666" points="476.5,-39 390.75,-39 390.75,-19 476.5,-19 476.5,-39"/>
<text xml:space="preserve" text-anchor="middle" x="433.62" y="-25.5" font-family="Helvetica,sans-Serif" font-size="10.00">arcade_get_font</text>
</a>
</g>
</g>
<!-- Node3&#45;&gt;Node4 -->
<g id="edge3_Node000003_Node000004" class="edge">
<title>Node3&#45;&gt;Node4</title>
<g id="a_edge3_Node000003_Node000004"><a xlink:title=" ">
<path fill="none" stroke="#63b8ff" d="M354.29,-46.65C362.46,-44.81 371.04,-42.88 379.4,-40.99"/>
<polygon fill="#63b8ff" stroke="#63b8ff" points="380.14,-44.42 389.12,-38.8 378.6,-37.59 380.14,-44.42"/>
</a>
</g>
</g>
<!-- Node6&#45;&gt;Node4 -->
<g id="edge6_Node000006_Node000004" class="edge">
<title>Node6&#45;&gt;Node4</title>
<g id="a_edge6_Node000006_Node000004"><a xlink:title=" ">
<path fill="none" stroke="#63b8ff" d="M354.99,-17.13C362.86,-18.33 371.07,-19.59 379.1,-20.81"/>
<polygon fill="#63b8ff" stroke="#63b8ff" points="378.34,-24.24 388.75,-22.29 379.4,-17.32 378.34,-24.24"/>
</a>
</g>
</g>
</g>
</svg>
</svg>

<style type='text/css'>
<![CDATA[
[data-mouse-over-selected='false'] { opacity: 0.7; }
[data-mouse-over-selected='true']  { opacity: 1.0; }
]]>
</style>
<script type="application/ecmascript"><![CDATA[
document.addEventListener('DOMContentLoaded', (event) => {
  highlightEdges();
  highlightAdjacentNodes();
});
]]></script>
</svg>
