<?xml version="1.0" encoding="UTF-8" standalone="no"?>
<!DOCTYPE svg PUBLIC "-//W3C//DTD SVG 1.1//EN"
 "http://www.w3.org/Graphics/SVG/1.1/DTD/svg11.dtd">
<!-- Generated by graphviz version 14.1.4 (20260321.0153)
 -->
<!-- Title: simon Pages: 1 -->
<svg width="460pt" height="125pt"
 viewBox="0.00 0.00 460.00 125.00" xmlns="http://www.w3.org/2000/svg" xmlns:xlink="http://www.w3.org/1999/xlink">

<svg id="main" version="1.1" xmlns="http://www.w3.org/2000/svg" xmlns:xlink="http://www.w3.org/1999/xlink" xml:space="preserve">

<style type="text/css"><![CDATA[
.node, .edge {opacity: 0.7;}
.node.selected, .edge.selected {opacity: 1;}
.edge:hover path { stroke: red; }
.edge:hover polygon { stroke: red; fill: red; }
]]></style>
<script type="application/ecmascript" xlink:href="svg.min.js"/>
<svg id="graph" class="graph">
<g id="graph0" class="graph" transform="scale(1 1) rotate(0) translate(4 121.42)">
<title>simon</title>
<!-- Node1 -->
<g id="Node000001" class="node">
<title>Node1</title>
<g id="a_Node000001"><a xlink:title="Lance le mini&#45;jeu Simon utilise dans la progression.">
<polygon fill="#999999" stroke="#666666" points="42.25,-60.42 0,-60.42 0,-40.42 42.25,-40.42 42.25,-60.42"/>
<text xml:space="preserve" text-anchor="middle" x="21.12" y="-46.92" font-family="Helvetica,sans-Serif" font-size="10.00">simon</text>
</a>
</g>
</g>
<!-- Node2 -->
<g id="Node000002" class="node">
<title>Node2</title>
<g id="a_Node000002"><a xlink:href="arcade_8c.html#a25752e139d33d2208840bba4bd7597df" target="_top" xlink:title=" ">
<polygon fill="white" stroke="#666666" points="185,-117.42 92.5,-117.42 92.5,-97.42 185,-97.42 185,-117.42"/>
<text xml:space="preserve" text-anchor="middle" x="138.75" y="-103.92" font-family="Helvetica,sans-Serif" font-size="10.00">arcade_draw_hud</text>
</a>
</g>
</g>
<!-- Node1&#45;&gt;Node2 -->
<g id="edge1_Node000001_Node000002" class="edge">
<title>Node1&#45;&gt;Node2</title>
<g id="a_edge1_Node000001_Node000002"><a xlink:title=" ">
<path fill="none" stroke="#63b8ff" d="M34.86,-60.6C45.83,-68.99 62.37,-80.71 78.25,-88.42 81.57,-90.03 85.05,-91.55 88.6,-92.97"/>
<polygon fill="#63b8ff" stroke="#63b8ff" points="87.33,-96.23 97.93,-96.42 89.76,-89.67 87.33,-96.23"/>
</a>
</g>
</g>
<!-- Node5 -->
<g id="Node000005" class="node">
<title>Node5</title>
<g id="a_Node000005"><a xlink:href="arcade_8c.html#af12f65de40144cb2fb5188f647a813d9" target="_top" xlink:title=" ">
<polygon fill="white" stroke="#666666" points="199.25,-79.42 78.25,-79.42 78.25,-59.42 199.25,-59.42 199.25,-79.42"/>
<text xml:space="preserve" text-anchor="middle" x="138.75" y="-65.92" font-family="Helvetica,sans-Serif" font-size="10.00">arcade_draw_info_panel</text>
</a>
</g>
</g>
<!-- Node1&#45;&gt;Node5 -->
<g id="edge4_Node000001_Node000005" class="edge">
<title>Node1&#45;&gt;Node5</title>
<g id="a_edge4_Node000001_Node000005"><a xlink:title=" ">
<path fill="none" stroke="#63b8ff" d="M42.53,-53.77C49.55,-54.93 57.86,-56.29 66.6,-57.73"/>
<polygon fill="#63b8ff" stroke="#63b8ff" points="65.91,-61.16 76.34,-59.33 67.04,-54.25 65.91,-61.16"/>
</a>
</g>
</g>
<!-- Node6 -->
<g id="Node000006" class="node">
<title>Node6</title>
<g id="a_Node000006"><a xlink:href="arcade_8c.html#ae8d9caebe1f074127a0cce2bea541aeb" target="_top" xlink:title=" ">
<polygon fill="white" stroke="#666666" points="190.25,-41.42 87.25,-41.42 87.25,-21.42 190.25,-21.42 190.25,-41.42"/>
<text xml:space="preserve" text-anchor="middle" x="138.75" y="-27.92" font-family="Helvetica,sans-Serif" font-size="10.00">minijeu_draw_frame</text>
</a>
</g>
</g>
<!-- Node1&#45;&gt;Node6 -->
<g id="edge6_Node000001_Node000006" class="edge">
<title>Node1&#45;&gt;Node6</title>
<g id="a_edge6_Node000001_Node000006"><a xlink:title=" ">
<path fill="none" stroke="#63b8ff" d="M42.53,-47.07C51.96,-45.52 63.72,-43.59 75.72,-41.61"/>
<polygon fill="#63b8ff" stroke="#63b8ff" points="75.96,-45.12 85.26,-40.05 74.82,-38.21 75.96,-45.12"/>
</a>
</g>
</g>
<!-- Node7 -->
<g id="Node000007" class="node">
<title>Node7</title>
<g id="a_Node000007"><a xlink:href="arcade_8c.html#a6af91075a7d4eb204378373cbe08646a" target="_top" xlink:title=" ">
<polygon fill="white" stroke="#666666" points="330,-22.42 235.25,-22.42 235.25,-2.42 330,-2.42 330,-22.42"/>
<text xml:space="preserve" text-anchor="middle" x="282.62" y="-8.92" font-family="Helvetica,sans-Serif" font-size="10.00">minijeu_draw_text</text>
</a>
</g>
</g>
<!-- Node1&#45;&gt;Node7 -->
<g id="edge7_Node000001_Node000007" class="edge">
<title>Node1&#45;&gt;Node7</title>
<g id="a_edge7_Node000001_Node000007"><a xlink:title=" ">
<path fill="none" stroke="#63b8ff" d="M33.09,-40.02C43.7,-30.74 60.7,-17.8 78.25,-12.42 125.61,2.1 182.15,0.71 223.58,-3.52"/>
<polygon fill="#63b8ff" stroke="#63b8ff" points="223.01,-6.98 233.34,-4.61 223.79,-0.02 223.01,-6.98"/>
</a>
</g>
</g>
<!-- Node3 -->
<g id="Node000003" class="node">
<title>Node3</title>
<g id="a_Node000003"><a xlink:href="arcade_8c.html#adcd100b7250411e655a98a61dace3f5a" target="_top" xlink:title=" ">
<polygon fill="white" stroke="#666666" points="329.25,-79.42 236,-79.42 236,-59.42 329.25,-59.42 329.25,-79.42"/>
<text xml:space="preserve" text-anchor="middle" x="282.62" y="-65.92" font-family="Helvetica,sans-Serif" font-size="10.00">arcade_draw_text</text>
</a>
</g>
</g>
<!-- Node2&#45;&gt;Node3 -->
<g id="edge2_Node000002_Node000003" class="edge">
<title>Node2&#45;&gt;Node3</title>
<g id="a_edge2_Node000002_Node000003"><a xlink:title=" ">
<path fill="none" stroke="#63b8ff" d="M178.89,-96.94C195.18,-92.58 214.28,-87.46 231.56,-82.83"/>
<polygon fill="#63b8ff" stroke="#63b8ff" points="232.39,-86.23 241.15,-80.26 230.58,-79.47 232.39,-86.23"/>
</a>
</g>
</g>
<!-- Node4 -->
<g id="Node000004" class="node">
<title>Node4</title>
<g id="a_Node000004"><a xlink:href="arcade_8c.html#aef73159add1b6705e8ecc9411076a194" target="_top" xlink:title=" ">
<polygon fill="white" stroke="#666666" points="451.75,-60.42 366,-60.42 366,-40.42 451.75,-40.42 451.75,-60.42"/>
<text xml:space="preserve" text-anchor="middle" x="408.88" y="-46.92" font-family="Helvetica,sans-Serif" font-size="10.00">arcade_get_font</text>
</a>
</g>
</g>
<!-- Node3&#45;&gt;Node4 -->
<g id="edge3_Node000003_Node000004" class="edge">
<title>Node3&#45;&gt;Node4</title>
<g id="a_edge3_Node000003_Node000004"><a xlink:title=" ">
<path fill="none" stroke="#63b8ff" d="M329.54,-62.4C337.71,-61.15 346.29,-59.84 354.65,-58.56"/>
<polygon fill="#63b8ff" stroke="#63b8ff" points="355,-62.05 364.35,-57.08 353.94,-55.13 355,-62.05"/>
</a>
</g>
</g>
<!-- Node5&#45;&gt;Node3 -->
<g id="edge5_Node000005_Node000003" class="edge">
<title>Node5&#45;&gt;Node3</title>
<g id="a_edge5_Node000005_Node000003"><a xlink:title=" ">
<path fill="none" stroke="#63b8ff" d="M199.51,-69.42C207.74,-69.42 216.18,-69.42 224.37,-69.42"/>
<polygon fill="#63b8ff" stroke="#63b8ff" points="224.22,-72.92 234.22,-69.42 224.22,-65.92 224.22,-72.92"/>
</a>
</g>
</g>
<!-- Node7&#45;&gt;Node4 -->
<g id="edge8_Node000007_Node000004" class="edge">
<title>Node7&#45;&gt;Node4</title>
<g id="a_edge8_Node000007_Node000004"><a xlink:title=" ">
<path fill="none" stroke="#63b8ff" d="M317.91,-22.91C331.76,-27.14 347.94,-32.09 362.73,-36.61"/>
<polygon fill="#63b8ff" stroke="#63b8ff" points="361.67,-39.95 372.26,-39.53 363.72,-33.26 361.67,-39.95"/>
</a>
</g>
</g>
</g>
</svg>
</svg>

<style type='text/css'>
<![CDATA[
[data-mouse-over-selected='false'] { opacity: 0.7; }
[data-mouse-over-selected='true']  { opacity: 1.0; }
]]>
</style>
<script type="application/ecmascript"><![CDATA[
document.addEventListener('DOMContentLoaded', (event) => {
  highlightEdges();
  highlightAdjacentNodes();
});
]]></script>
</svg>
