<?xml version="1.0" encoding="UTF-8" standalone="no"?>
<!DOCTYPE svg PUBLIC "-//W3C//DTD SVG 1.1//EN"
 "http://www.w3.org/Graphics/SVG/1.1/DTD/svg11.dtd">
<!-- Generated by graphviz version 14.1.4 (20260321.0153)
 -->
<!-- Title: src/arcade.c Pages: 1 -->
<svg width="1514pt" height="196pt"
 viewBox="0.00 0.00 1514.00 196.00" xmlns="http://www.w3.org/2000/svg" xmlns:xlink="http://www.w3.org/1999/xlink">
<g id="graph0" class="graph" transform="scale(1 1) rotate(0) translate(4 192)">
<title>src/arcade.c</title>
<!-- Node1 -->
<g id="Node000001" class="node">
<title>Node1</title>
<g id="a_Node000001"><a xlink:title="Gestion de la séquence d&#39;arcade et de ses ecrans associes.">
<polygon fill="#999999" stroke="#666666" points="1434.56,-188 1364.56,-188 1364.56,-168 1434.56,-168 1434.56,-188"/>
<text xml:space="preserve" text-anchor="middle" x="1399.56" y="-174.5" font-family="Helvetica,sans-Serif" font-size="10.00">src/arcade.c</text>
</a>
</g>
</g>
<!-- Node2 -->
<g id="Node000002" class="node">
<title>Node2</title>
<g id="a_Node000002"><a xlink:href="main_8h.html" target="_top" xlink:title="Declarations globales et utilitaires partages entre les modules du jeu.">
<polygon fill="white" stroke="#666666" points="827.94,-132 745.19,-132 745.19,-112 827.94,-112 827.94,-132"/>
<text xml:space="preserve" text-anchor="middle" x="786.56" y="-118.5" font-family="Helvetica,sans-Serif" font-size="10.00">headers/main.h</text>
</a>
</g>
</g>
<!-- Node1&#45;&gt;Node2 -->
<g id="edge1_Node000001_Node000002" class="edge">
<title>Node1&#45;&gt;Node2</title>
<g id="a_edge1_Node000001_Node000002"><a xlink:title=" ">
<path fill="none" stroke="#63b8ff" d="M1364.4,-173.9C1261.76,-164.86 962.03,-138.46 839.6,-127.67"/>
<polygon fill="#63b8ff" stroke="#63b8ff" points="840.09,-124.2 829.82,-126.81 839.48,-131.17 840.09,-124.2"/>
</a>
</g>
</g>
<!-- Node5 -->
<g id="Node000005" class="node">
<title>Node5</title>
<g id="a_Node000005"><a xlink:title=" ">
<polygon fill="#e0e0e0" stroke="#999999" points="1358.56,-76 1312.56,-76 1312.56,-56 1358.56,-56 1358.56,-76"/>
<text xml:space="preserve" text-anchor="middle" x="1335.56" y="-62.5" font-family="Helvetica,sans-Serif" font-size="10.00">math.h</text>
</a>
</g>
</g>
<!-- Node1&#45;&gt;Node5 -->
<g id="edge65_Node000001_Node000005" class="edge">
<title>Node1&#45;&gt;Node5</title>
<g id="a_edge65_Node000001_Node000005"><a xlink:title=" ">
<path fill="none" stroke="#63b8ff" d="M1394.11,-167.62C1383.62,-149.6 1360.47,-109.81 1346.63,-86.02"/>
<polygon fill="#63b8ff" stroke="#63b8ff" points="1349.82,-84.55 1341.77,-77.66 1343.77,-88.07 1349.82,-84.55"/>
</a>
</g>
</g>
<!-- Node7 -->
<g id="Node000007" class="node">
<title>Node7</title>
<g id="a_Node000007"><a xlink:title=" ">
<polygon fill="#e0e0e0" stroke="#999999" points="1422.19,-76 1376.94,-76 1376.94,-56 1422.19,-56 1422.19,-76"/>
<text xml:space="preserve" text-anchor="middle" x="1399.56" y="-62.5" font-family="Helvetica,sans-Serif" font-size="10.00">stdio.h</text>
</a>
</g>
</g>
<!-- Node1&#45;&gt;Node7 -->
<g id="edge63_Node000001_Node000007" class="edge">
<title>Node1&#45;&gt;Node7</title>
<g id="a_edge63_Node000001_Node000007"><a xlink:title=" ">
<path fill="none" stroke="#63b8ff" d="M1399.56,-167.62C1399.56,-150.01 1399.56,-111.59 1399.56,-87.65"/>
<polygon fill="#63b8ff" stroke="#63b8ff" points="1403.06,-87.87 1399.56,-77.87 1396.06,-87.87 1403.06,-87.87"/>
</a>
</g>
</g>
<!-- Node8 -->
<g id="Node000008" class="node">
<title>Node8</title>
<g id="a_Node000008"><a xlink:title=" ">
<polygon fill="#e0e0e0" stroke="#999999" points="1487.31,-76 1439.81,-76 1439.81,-56 1487.31,-56 1487.31,-76"/>
<text xml:space="preserve" text-anchor="middle" x="1463.56" y="-62.5" font-family="Helvetica,sans-Serif" font-size="10.00">stdlib.h</text>
</a>
</g>
</g>
<!-- Node1&#45;&gt;Node8 -->
<g id="edge64_Node000001_Node000008" class="edge">
<title>Node1&#45;&gt;Node8</title>
<g id="a_edge64_Node000001_Node000008"><a xlink:title=" ">
<path fill="none" stroke="#63b8ff" d="M1405.02,-167.62C1415.5,-149.6 1438.65,-109.81 1452.49,-86.02"/>
<polygon fill="#63b8ff" stroke="#63b8ff" points="1455.35,-88.07 1457.36,-77.66 1449.3,-84.55 1455.35,-88.07"/>
</a>
</g>
</g>
<!-- Node16 -->
<g id="Node000016" class="node">
<title>Node16</title>
<g id="a_Node000016"><a xlink:title=" ">
<polygon fill="#e0e0e0" stroke="#999999" points="1148.56,-20 1048.56,-20 1048.56,0 1148.56,0 1148.56,-20"/>
<text xml:space="preserve" text-anchor="middle" x="1098.56" y="-6.5" font-family="Helvetica,sans-Serif" font-size="10.00">SDL3_ttf/SDL_ttf.h</text>
</a>
</g>
</g>
<!-- Node1&#45;&gt;Node16 -->
<g id="edge62_Node000001_Node000016" class="edge">
<title>Node1&#45;&gt;Node16</title>
<g id="a_edge62_Node000001_Node000016"><a xlink:title=" ">
<path fill="none" stroke="#63b8ff" d="M1417.16,-167.62C1453.84,-146.91 1532.26,-95.96 1496.56,-56 1495.17,-54.44 1271.53,-29.86 1160.14,-17.7"/>
<polygon fill="#63b8ff" stroke="#63b8ff" points="1160.58,-14.23 1150.26,-16.62 1159.82,-21.19 1160.58,-14.23"/>
</a>
</g>
</g>
<!-- Node3 -->
<g id="Node000003" class="node">
<title>Node3</title>
<g id="a_Node000003"><a xlink:title=" ">
<polygon fill="#e0e0e0" stroke="#999999" points="639.31,-20 567.81,-20 567.81,0 639.31,0 639.31,-20"/>
<text xml:space="preserve" text-anchor="middle" x="603.56" y="-6.5" font-family="Helvetica,sans-Serif" font-size="10.00">SDL3/SDL.h</text>
</a>
</g>
</g>
<!-- Node2&#45;&gt;Node3 -->
<g id="edge2_Node000002_Node000003" class="edge">
<title>Node2&#45;&gt;Node3</title>
<g id="a_edge2_Node000002_Node000003"><a xlink:title=" ">
<path fill="none" stroke="#63b8ff" d="M744.7,-120.17C586.14,-116.8 30.16,-103.12 4.56,-76 -1.54,-69.54 -1.48,-62.52 4.56,-56 41.82,-15.84 421.47,-11.29 556.34,-10.95"/>
<polygon fill="#63b8ff" stroke="#63b8ff" points="555.99,-14.45 565.98,-10.93 555.98,-7.45 555.99,-14.45"/>
</a>
</g>
</g>
<!-- Node4 -->
<g id="Node000004" class="node">
<title>Node4</title>
<g id="a_Node000004"><a xlink:title=" ">
<polygon fill="#e0e0e0" stroke="#999999" points="796.81,-20 662.31,-20 662.31,0 796.81,0 796.81,-20"/>
<text xml:space="preserve" text-anchor="middle" x="729.56" y="-6.5" font-family="Helvetica,sans-Serif" font-size="10.00">SDL3_image/SDL_image.h</text>
</a>
</g>
</g>
<!-- Node2&#45;&gt;Node4 -->
<g id="edge3_Node000002_Node000004" class="edge">
<title>Node2&#45;&gt;Node4</title>
<g id="a_edge3_Node000002_Node000004"><a xlink:title=" ">
<path fill="none" stroke="#63b8ff" d="M790.22,-111.57C794.72,-98.36 800.71,-73.95 791.56,-56 785.05,-43.23 773.03,-33.23 761.29,-25.94"/>
<polygon fill="#63b8ff" stroke="#63b8ff" points="763.36,-23.09 752.94,-21.19 759.91,-29.18 763.36,-23.09"/>
</a>
</g>
</g>
<!-- Node2&#45;&gt;Node5 -->
<g id="edge4_Node000002_Node000005" class="edge">
<title>Node2&#45;&gt;Node5</title>
<g id="a_edge4_Node000002_Node000005"><a xlink:title=" ">
<path fill="none" stroke="#63b8ff" d="M828.31,-119.47C915.95,-115.78 1125.33,-104.51 1298.56,-76 1299.39,-75.86 1300.23,-75.72 1301.08,-75.56"/>
<polygon fill="#63b8ff" stroke="#63b8ff" points="1301.63,-79.03 1310.7,-73.56 1300.2,-72.17 1301.63,-79.03"/>
</a>
</g>
</g>
<!-- Node6 -->
<g id="Node000006" class="node">
<title>Node6</title>
<g id="a_Node000006"><a xlink:title=" ">
<polygon fill="#e0e0e0" stroke="#999999" points="995.56,-20 865.56,-20 865.56,0 995.56,0 995.56,-20"/>
<text xml:space="preserve" text-anchor="middle" x="930.56" y="-6.5" font-family="Helvetica,sans-Serif" font-size="10.00">SDL3_mixer/SDL_mixer.h</text>
</a>
</g>
</g>
<!-- Node2&#45;&gt;Node6 -->
<g id="edge5_Node000002_Node000006" class="edge">
<title>Node2&#45;&gt;Node6</title>
<g id="a_edge5_Node000002_Node000006"><a xlink:title=" ">
<path fill="none" stroke="#63b8ff" d="M828.08,-120.23C939.1,-117.73 1236.36,-108.08 1265.56,-76 1271.55,-69.43 1271.41,-62.69 1265.56,-56 1257.1,-46.33 1103.44,-28.83 1007.2,-18.74"/>
<polygon fill="#63b8ff" stroke="#63b8ff" points="1007.57,-15.26 997.27,-17.7 1006.85,-22.22 1007.57,-15.26"/>
</a>
</g>
</g>
<!-- Node2&#45;&gt;Node7 -->
<g id="edge6_Node000002_Node000007" class="edge">
<title>Node2&#45;&gt;Node7</title>
<g id="a_edge6_Node000002_Node000007"><a xlink:title=" ">
<path fill="none" stroke="#63b8ff" d="M828.12,-120.58C922.28,-119.03 1159.07,-111.77 1365.56,-75.99"/>
<polygon fill="#63b8ff" stroke="#63b8ff" points="1365.88,-79.48 1375.13,-74.3 1364.67,-72.59 1365.88,-79.48"/>
</a>
</g>
</g>
<!-- Node2&#45;&gt;Node8 -->
<g id="edge7_Node000002_Node000008" class="edge">
<title>Node2&#45;&gt;Node8</title>
<g id="a_edge7_Node000002_Node000008"><a xlink:title=" ">
<path fill="none" stroke="#63b8ff" d="M828.42,-121.03C930.01,-120.47 1197.69,-115.25 1428.27,-76.26"/>
<polygon fill="#63b8ff" stroke="#63b8ff" points="1428.82,-79.72 1438.08,-74.57 1427.63,-72.82 1428.82,-79.72"/>
</a>
</g>
</g>
<!-- Node9 -->
<g id="Node000009" class="node">
<title>Node9</title>
<g id="a_Node000009"><a xlink:href="menu_8h.html" target="_top" xlink:title="Fichier du menu principal et des choix de navigation.">
<polygon fill="white" stroke="#666666" points="362.69,-76 314.44,-76 314.44,-56 362.69,-56 362.69,-76"/>
<text xml:space="preserve" text-anchor="middle" x="338.56" y="-62.5" font-family="Helvetica,sans-Serif" font-size="10.00">menu.h</text>
</a>
</g>
</g>
<!-- Node2&#45;&gt;Node9 -->
<g id="edge8_Node000002_Node000009" class="edge">
<title>Node2&#45;&gt;Node9</title>
<g id="a_edge8_Node000002_Node000009"><a xlink:title=" ">
<path fill="none" stroke="#63b8ff" d="M744.71,-118.66C671.4,-114.08 514.89,-102.21 373.95,-76.18"/>
<polygon fill="#63b8ff" stroke="#63b8ff" points="374.93,-72.81 364.46,-74.4 373.64,-79.68 374.93,-72.81"/>
</a>
</g>
</g>
<!-- Node10 -->
<g id="Node000010" class="node">
<title>Node10</title>
<g id="a_Node000010"><a xlink:href="game__over_8h.html" target="_top" xlink:title="Fichier de l&#39;ecran de fin de partie et des transitions associees.">
<polygon fill="white" stroke="#666666" points="452.69,-76 380.44,-76 380.44,-56 452.69,-56 452.69,-76"/>
<text xml:space="preserve" text-anchor="middle" x="416.56" y="-62.5" font-family="Helvetica,sans-Serif" font-size="10.00">game_over.h</text>
</a>
</g>
</g>
<!-- Node2&#45;&gt;Node10 -->
<g id="edge11_Node000002_Node000010" class="edge">
<title>Node2&#45;&gt;Node10</title>
<g id="a_edge11_Node000002_Node000010"><a xlink:title=" ">
<path fill="none" stroke="#63b8ff" d="M744.88,-116.04C685.05,-108.74 571.07,-94.18 464.2,-76.36"/>
<polygon fill="#63b8ff" stroke="#63b8ff" points="464.81,-72.92 454.37,-74.71 463.65,-79.82 464.81,-72.92"/>
</a>
</g>
</g>
<!-- Node11 -->
<g id="Node000011" class="node">
<title>Node11</title>
<g id="a_Node000011"><a xlink:href="jeux_8h.html" target="_top" xlink:title="Fichier de la boucle de jeu principale et de son initialisation.">
<polygon fill="white" stroke="#666666" points="881.69,-76 839.44,-76 839.44,-56 881.69,-56 881.69,-76"/>
<text xml:space="preserve" text-anchor="middle" x="860.56" y="-62.5" font-family="Helvetica,sans-Serif" font-size="10.00">jeux.h</text>
</a>
</g>
</g>
<!-- Node2&#45;&gt;Node11 -->
<g id="edge14_Node000002_Node000011" class="edge">
<title>Node2&#45;&gt;Node11</title>
<g id="a_edge14_Node000002_Node000011"><a xlink:title=" ">
<path fill="none" stroke="#63b8ff" d="M799.45,-111.59C810.28,-103.7 825.97,-92.24 838.75,-82.92"/>
<polygon fill="#63b8ff" stroke="#63b8ff" points="840.58,-85.91 846.6,-77.19 836.46,-80.26 840.58,-85.91"/>
</a>
</g>
</g>
<!-- Node12 -->
<g id="Node000012" class="node">
<title>Node12</title>
<g id="a_Node000012"><a xlink:href="bouton_8h.html" target="_top" xlink:title="Fichier des boutons UI, de leur etat et de la gestion des interactions souris.">
<polygon fill="white" stroke="#666666" points="524.31,-76 470.81,-76 470.81,-56 524.31,-56 524.31,-76"/>
<text xml:space="preserve" text-anchor="middle" x="497.56" y="-62.5" font-family="Helvetica,sans-Serif" font-size="10.00">bouton.h</text>
</a>
</g>
</g>
<!-- Node2&#45;&gt;Node12 -->
<g id="edge18_Node000002_Node000012" class="edge">
<title>Node2&#45;&gt;Node12</title>
<g id="a_edge18_Node000002_Node000012"><a xlink:title=" ">
<path fill="none" stroke="#63b8ff" d="M744.76,-114.47C696.71,-106.77 615.25,-93.1 535.83,-76.36"/>
<polygon fill="#63b8ff" stroke="#63b8ff" points="536.63,-72.96 526.12,-74.3 535.18,-79.8 536.63,-72.96"/>
</a>
</g>
</g>
<!-- Node13 -->
<g id="Node000013" class="node">
<title>Node13</title>
<g id="a_Node000013"><a xlink:href="option_8h.html" target="_top" xlink:title="Fichier de l&#39;ecran d&#39;options et des reglages de jeu.">
<polygon fill="white" stroke="#666666" points="592.81,-76 542.31,-76 542.31,-56 592.81,-56 592.81,-76"/>
<text xml:space="preserve" text-anchor="middle" x="567.56" y="-62.5" font-family="Helvetica,sans-Serif" font-size="10.00">option.h</text>
</a>
</g>
</g>
<!-- Node2&#45;&gt;Node13 -->
<g id="edge21_Node000002_Node000013" class="edge">
<title>Node2&#45;&gt;Node13</title>
<g id="a_edge21_Node000002_Node000013"><a xlink:title=" ">
<path fill="none" stroke="#63b8ff" d="M746.81,-111.57C711.65,-103.19 658.68,-90.41 604.1,-76.61"/>
<polygon fill="#63b8ff" stroke="#63b8ff" points="605.19,-73.28 594.63,-74.21 603.47,-80.06 605.19,-73.28"/>
</a>
</g>
</g>
<!-- Node14 -->
<g id="Node000014" class="node">
<title>Node14</title>
<g id="a_Node000014"><a xlink:href="perso_8h.html" target="_top" xlink:title="Fichier du personnage: deplacement, combat, stats et collisions.">
<polygon fill="white" stroke="#666666" points="658.69,-76 610.44,-76 610.44,-56 658.69,-56 658.69,-76"/>
<text xml:space="preserve" text-anchor="middle" x="634.56" y="-62.5" font-family="Helvetica,sans-Serif" font-size="10.00">perso.h</text>
</a>
</g>
</g>
<!-- Node2&#45;&gt;Node14 -->
<g id="edge24_Node000002_Node000014" class="edge">
<title>Node2&#45;&gt;Node14</title>
<g id="a_edge24_Node000002_Node000014"><a xlink:title=" ">
<path fill="none" stroke="#63b8ff" d="M760.09,-111.59C734.97,-102.67 697.07,-89.21 669.48,-79.41"/>
<polygon fill="#63b8ff" stroke="#63b8ff" points="670.75,-76.14 660.16,-76.09 668.41,-82.74 670.75,-76.14"/>
</a>
</g>
</g>
<!-- Node15 -->
<g id="Node000015" class="node">
<title>Node15</title>
<g id="a_Node000015"><a xlink:href="son_8h.html" target="_top" xlink:title="Fichier audio: musique, effets sonores et etats d&#39;activation.">
<polygon fill="white" stroke="#666666" points="1164.56,-76 1124.56,-76 1124.56,-56 1164.56,-56 1164.56,-76"/>
<text xml:space="preserve" text-anchor="middle" x="1144.56" y="-62.5" font-family="Helvetica,sans-Serif" font-size="10.00">son.h</text>
</a>
</g>
</g>
<!-- Node2&#45;&gt;Node15 -->
<g id="edge27_Node000002_Node000015" class="edge">
<title>Node2&#45;&gt;Node15</title>
<g id="a_edge27_Node000002_Node000015"><a xlink:title=" ">
<path fill="none" stroke="#63b8ff" d="M828.24,-117.52C888.99,-111.97 1005.49,-99.51 1113.03,-76.25"/>
<polygon fill="#63b8ff" stroke="#63b8ff" points="1113.59,-79.71 1122.6,-74.14 1112.08,-72.88 1113.59,-79.71"/>
</a>
</g>
</g>
<!-- Node17 -->
<g id="Node000017" class="node">
<title>Node17</title>
<g id="a_Node000017"><a xlink:href="boss_8h.html" target="_top" xlink:title="API de gestion des boss, de leurs phases et de leurs comportements de combat.">
<polygon fill="white" stroke="#666666" points="722.19,-76 676.94,-76 676.94,-56 722.19,-56 722.19,-76"/>
<text xml:space="preserve" text-anchor="middle" x="699.56" y="-62.5" font-family="Helvetica,sans-Serif" font-size="10.00">boss.h</text>
</a>
</g>
</g>
<!-- Node2&#45;&gt;Node17 -->
<g id="edge32_Node000002_Node000017" class="edge">
<title>Node2&#45;&gt;Node17</title>
<g id="a_edge32_Node000002_Node000017"><a xlink:title=" ">
<path fill="none" stroke="#63b8ff" d="M771.41,-111.59C758.51,-103.59 739.73,-91.93 724.61,-82.54"/>
<polygon fill="#63b8ff" stroke="#63b8ff" points="726.46,-79.58 716.12,-77.28 722.77,-85.53 726.46,-79.58"/>
</a>
</g>
</g>
<!-- Node18 -->
<g id="Node000018" class="node">
<title>Node18</title>
<g id="a_Node000018"><a xlink:href="mob_8h.html" target="_top" xlink:title="Fichier des mobs: creation, mise a jour, rendu et file de respawn.">
<polygon fill="white" stroke="#666666" points="783.06,-76 740.06,-76 740.06,-56 783.06,-56 783.06,-76"/>
<text xml:space="preserve" text-anchor="middle" x="761.56" y="-62.5" font-family="Helvetica,sans-Serif" font-size="10.00">mob.h</text>
</a>
</g>
</g>
<!-- Node2&#45;&gt;Node18 -->
<g id="edge35_Node000002_Node000018" class="edge">
<title>Node2&#45;&gt;Node18</title>
<g id="a_edge35_Node000002_Node000018"><a xlink:title=" ">
<path fill="none" stroke="#63b8ff" d="M782.21,-111.59C779.02,-104.7 774.57,-95.1 770.62,-86.57"/>
<polygon fill="#63b8ff" stroke="#63b8ff" points="773.88,-85.28 766.5,-77.67 767.53,-88.22 773.88,-85.28"/>
</a>
</g>
</g>
<!-- Node19 -->
<g id="Node000019" class="node">
<title>Node19</title>
<g id="a_Node000019"><a xlink:href="vaisseau_8h.html" target="_top" xlink:title="Fichier de la scene vaisseau, des interactions et du retour en planete.">
<polygon fill="white" stroke="#666666" points="77.19,-76 13.94,-76 13.94,-56 77.19,-56 77.19,-76"/>
<text xml:space="preserve" text-anchor="middle" x="45.56" y="-62.5" font-family="Helvetica,sans-Serif" font-size="10.00">vaisseau.h</text>
</a>
</g>
</g>
<!-- Node2&#45;&gt;Node19 -->
<g id="edge38_Node000002_Node000019" class="edge">
<title>Node2&#45;&gt;Node19</title>
<g id="a_edge38_Node000002_Node000019"><a xlink:title=" ">
<path fill="none" stroke="#63b8ff" d="M744.92,-120.52C637.72,-118.83 343.46,-111.23 88.6,-76.04"/>
<polygon fill="#63b8ff" stroke="#63b8ff" points="89.15,-72.59 78.76,-74.67 88.18,-79.52 89.15,-72.59"/>
</a>
</g>
</g>
<!-- Node20 -->
<g id="Node000020" class="node">
<title>Node20</title>
<g id="a_Node000020"><a xlink:href="map_8h.html" target="_top" xlink:title="Fichier de navigation carte et de gestion des ressources cartographiques.">
<polygon fill="white" stroke="#666666" points="943.06,-76 900.06,-76 900.06,-56 943.06,-56 943.06,-76"/>
<text xml:space="preserve" text-anchor="middle" x="921.56" y="-62.5" font-family="Helvetica,sans-Serif" font-size="10.00">map.h</text>
</a>
</g>
</g>
<!-- Node2&#45;&gt;Node20 -->
<g id="edge40_Node000002_Node000020" class="edge">
<title>Node2&#45;&gt;Node20</title>
<g id="a_edge40_Node000002_Node000020"><a xlink:title=" ">
<path fill="none" stroke="#63b8ff" d="M810.08,-111.59C831.96,-102.84 864.76,-89.72 889.13,-79.97"/>
<polygon fill="#63b8ff" stroke="#63b8ff" points="890.27,-83.29 898.25,-76.32 887.67,-76.79 890.27,-83.29"/>
</a>
</g>
</g>
<!-- Node21 -->
<g id="Node000021" class="node">
<title>Node21</title>
<g id="a_Node000021"><a xlink:href="item_8h.html" target="_top" xlink:title="Fichier de creation, d&#39;affichage et de destruction des items.">
<polygon fill="white" stroke="#666666" points="296.06,-76 253.06,-76 253.06,-56 296.06,-56 296.06,-76"/>
<text xml:space="preserve" text-anchor="middle" x="274.56" y="-62.5" font-family="Helvetica,sans-Serif" font-size="10.00">item.h</text>
</a>
</g>
</g>
<!-- Node2&#45;&gt;Node21 -->
<g id="edge44_Node000002_Node000021" class="edge">
<title>Node2&#45;&gt;Node21</title>
<g id="a_edge44_Node000002_Node000021"><a xlink:title=" ">
<path fill="none" stroke="#63b8ff" d="M744.69,-119.74C662.52,-116.71 474.34,-106.95 307.42,-75.98"/>
<polygon fill="#63b8ff" stroke="#63b8ff" points="308.42,-72.61 297.94,-74.19 307.12,-79.49 308.42,-72.61"/>
</a>
</g>
</g>
<!-- Node22 -->
<g id="Node000022" class="node">
<title>Node22</title>
<g id="a_Node000022"><a xlink:href="inventaire_8h.html" target="_top" xlink:title="Fichier de l&#39;inventaire, de la hotbar et des interactions de slots.">
<polygon fill="white" stroke="#666666" points="1106.69,-76 1040.44,-76 1040.44,-56 1106.69,-56 1106.69,-76"/>
<text xml:space="preserve" text-anchor="middle" x="1073.56" y="-62.5" font-family="Helvetica,sans-Serif" font-size="10.00">inventaire.h</text>
</a>
</g>
</g>
<!-- Node2&#45;&gt;Node22 -->
<g id="edge47_Node000002_Node000022" class="edge">
<title>Node2&#45;&gt;Node22</title>
<g id="a_edge47_Node000002_Node000022"><a xlink:title=" ">
<path fill="none" stroke="#63b8ff" d="M828.07,-113.66C874.48,-105.38 952.18,-91.31 1029.36,-76.2"/>
<polygon fill="#63b8ff" stroke="#63b8ff" points="1029.62,-79.71 1038.76,-74.35 1028.27,-72.84 1029.62,-79.71"/>
</a>
</g>
</g>
<!-- Node23 -->
<g id="Node000023" class="node">
<title>Node23</title>
<g id="a_Node000023"><a xlink:href="sauvegarde_8h.html" target="_top" xlink:title="Fichier des slots de sauvegarde et du chargement de progression.">
<polygon fill="white" stroke="#666666" points="1256.81,-76 1182.31,-76 1182.31,-56 1256.81,-56 1256.81,-76"/>
<text xml:space="preserve" text-anchor="middle" x="1219.56" y="-62.5" font-family="Helvetica,sans-Serif" font-size="10.00">sauvegarde.h</text>
</a>
</g>
</g>
<!-- Node2&#45;&gt;Node23 -->
<g id="edge51_Node000002_Node000023" class="edge">
<title>Node2&#45;&gt;Node23</title>
<g id="a_edge51_Node000002_Node000023"><a xlink:title=" ">
<path fill="none" stroke="#63b8ff" d="M828.23,-117.22C897.35,-110.73 1040.32,-96.31 1170.96,-76.31"/>
<polygon fill="#63b8ff" stroke="#63b8ff" points="1171.11,-79.82 1180.45,-74.84 1170.04,-72.91 1171.11,-79.82"/>
</a>
</g>
</g>
<!-- Node25 -->
<g id="Node000025" class="node">
<title>Node25</title>
<g id="a_Node000025"><a xlink:href="objectifs_8h.html" target="_top" xlink:title="Fichier de suivi des objectifs de quete et de leur affichage.">
<polygon fill="white" stroke="#666666" points="1022.06,-76 961.06,-76 961.06,-56 1022.06,-56 1022.06,-76"/>
<text xml:space="preserve" text-anchor="middle" x="991.56" y="-62.5" font-family="Helvetica,sans-Serif" font-size="10.00">objectifs.h</text>
</a>
</g>
</g>
<!-- Node2&#45;&gt;Node25 -->
<g id="edge54_Node000002_Node000025" class="edge">
<title>Node2&#45;&gt;Node25</title>
<g id="a_edge54_Node000002_Node000025"><a xlink:title=" ">
<path fill="none" stroke="#63b8ff" d="M822.27,-111.59C857.72,-102.26 912.05,-87.94 949.56,-78.07"/>
<polygon fill="#63b8ff" stroke="#63b8ff" points="950.37,-81.47 959.15,-75.54 948.59,-74.7 950.37,-81.47"/>
</a>
</g>
</g>
<!-- Node26 -->
<g id="Node000026" class="node">
<title>Node26</title>
<g id="a_Node000026"><a xlink:href="cinematique_8h.html" target="_top" xlink:title="Fichier des cinematics, des intros et des sequences de credits.">
<polygon fill="white" stroke="#666666" points="171.94,-76 95.19,-76 95.19,-56 171.94,-56 171.94,-76"/>
<text xml:space="preserve" text-anchor="middle" x="133.56" y="-62.5" font-family="Helvetica,sans-Serif" font-size="10.00">cinematique.h</text>
</a>
</g>
</g>
<!-- Node2&#45;&gt;Node26 -->
<g id="edge58_Node000002_Node000026" class="edge">
<title>Node2&#45;&gt;Node26</title>
<g id="a_edge58_Node000002_Node000026"><a xlink:title=" ">
<path fill="none" stroke="#63b8ff" d="M744.88,-119.56C648.05,-115.86 400.23,-104.34 183.51,-76.25"/>
<polygon fill="#63b8ff" stroke="#63b8ff" points="184.1,-72.8 173.73,-74.97 183.19,-79.74 184.1,-72.8"/>
</a>
</g>
</g>
<!-- Node27 -->
<g id="Node000027" class="node">
<title>Node27</title>
<g id="a_Node000027"><a xlink:href="shop_8h.html" target="_top" xlink:title="Fichier de la boutique, des achats et de l&#39;economie joueur.">
<polygon fill="white" stroke="#666666" points="235.19,-76 189.94,-76 189.94,-56 235.19,-56 235.19,-76"/>
<text xml:space="preserve" text-anchor="middle" x="212.56" y="-62.5" font-family="Helvetica,sans-Serif" font-size="10.00">shop.h</text>
</a>
</g>
</g>
<!-- Node2&#45;&gt;Node27 -->
<g id="edge60_Node000002_Node000027" class="edge">
<title>Node2&#45;&gt;Node27</title>
<g id="a_edge60_Node000002_Node000027"><a xlink:title=" ">
<path fill="none" stroke="#63b8ff" d="M744.98,-120.38C655.28,-118.43 436.97,-110.45 246.52,-76.23"/>
<polygon fill="#63b8ff" stroke="#63b8ff" points="247.42,-72.83 236.95,-74.47 246.16,-79.72 247.42,-72.83"/>
</a>
</g>
</g>
<!-- Node9&#45;&gt;Node3 -->
<g id="edge9_Node000009_Node000003" class="edge">
<title>Node9&#45;&gt;Node3</title>
<g id="a_edge9_Node000009_Node000003"><a xlink:title=" ">
<path fill="none" stroke="#63b8ff" d="M363.02,-58.11C365.89,-57.37 368.79,-56.65 371.56,-56 435.24,-41.16 509.54,-27.36 556.56,-19.05"/>
<polygon fill="#63b8ff" stroke="#63b8ff" points="556.88,-22.55 566.13,-17.38 555.67,-15.66 556.88,-22.55"/>
</a>
</g>
</g>
<!-- Node9&#45;&gt;Node4 -->
<g id="edge10_Node000009_Node000004" class="edge">
<title>Node9&#45;&gt;Node4</title>
<g id="a_edge10_Node000009_Node000004"><a xlink:title=" ">
<path fill="none" stroke="#63b8ff" d="M362.98,-57.93C365.86,-57.22 368.77,-56.55 371.56,-56 398.27,-50.71 553.83,-31.85 650.9,-20.29"/>
<polygon fill="#63b8ff" stroke="#63b8ff" points="651.13,-23.79 660.64,-19.13 650.3,-16.84 651.13,-23.79"/>
</a>
</g>
</g>
<!-- Node10&#45;&gt;Node3 -->
<g id="edge12_Node000010_Node000003" class="edge">
<title>Node10&#45;&gt;Node3</title>
<g id="a_edge12_Node000010_Node000003"><a xlink:title=" ">
<path fill="none" stroke="#63b8ff" d="M449.14,-55.59C479.78,-46.74 525.9,-33.43 559.76,-23.65"/>
<polygon fill="#63b8ff" stroke="#63b8ff" points="560.64,-27.04 569.28,-20.9 558.7,-20.31 560.64,-27.04"/>
</a>
</g>
</g>
<!-- Node10&#45;&gt;Node4 -->
<g id="edge13_Node000010_Node000004" class="edge">
<title>Node10&#45;&gt;Node4</title>
<g id="a_edge13_Node000010_Node000004"><a xlink:title=" ">
<path fill="none" stroke="#63b8ff" d="M452.89,-57.63C455.82,-57.07 458.74,-56.52 461.56,-56 528.27,-43.73 604.58,-31.05 658.67,-22.29"/>
<polygon fill="#63b8ff" stroke="#63b8ff" points="659.05,-25.77 668.37,-20.72 657.94,-18.86 659.05,-25.77"/>
</a>
</g>
</g>
<!-- Node11&#45;&gt;Node3 -->
<g id="edge15_Node000011_Node000003" class="edge">
<title>Node11&#45;&gt;Node3</title>
<g id="a_edge15_Node000011_Node000003"><a xlink:title=" ">
<path fill="none" stroke="#63b8ff" d="M839.09,-60.49C797.9,-51.83 706.89,-32.71 650.83,-20.93"/>
<polygon fill="#63b8ff" stroke="#63b8ff" points="651.76,-17.55 641.25,-18.92 650.32,-24.4 651.76,-17.55"/>
</a>
</g>
</g>
<!-- Node11&#45;&gt;Node4 -->
<g id="edge16_Node000011_Node000004" class="edge">
<title>Node11&#45;&gt;Node4</title>
<g id="a_edge16_Node000011_Node000004"><a xlink:title=" ">
<path fill="none" stroke="#63b8ff" d="M839.22,-56.2C818.48,-47.65 786.66,-34.54 762.64,-24.63"/>
<polygon fill="#63b8ff" stroke="#63b8ff" points="764.19,-21.49 753.61,-20.91 761.52,-27.96 764.19,-21.49"/>
</a>
</g>
</g>
<!-- Node11&#45;&gt;Node6 -->
<g id="edge17_Node000011_Node000006" class="edge">
<title>Node11&#45;&gt;Node6</title>
<g id="a_edge17_Node000011_Node000006"><a xlink:title=" ">
<path fill="none" stroke="#63b8ff" d="M872.76,-55.59C882.89,-47.77 897.55,-36.46 909.57,-27.19"/>
<polygon fill="#63b8ff" stroke="#63b8ff" points="911.53,-30.1 917.31,-21.22 907.26,-24.56 911.53,-30.1"/>
</a>
</g>
</g>
<!-- Node12&#45;&gt;Node3 -->
<g id="edge19_Node000012_Node000003" class="edge">
<title>Node12&#45;&gt;Node3</title>
<g id="a_edge19_Node000012_Node000003"><a xlink:title=" ">
<path fill="none" stroke="#63b8ff" d="M516.03,-55.59C532.27,-47.32 556.17,-35.14 574.9,-25.6"/>
<polygon fill="#63b8ff" stroke="#63b8ff" points="576.28,-28.82 583.61,-21.17 573.11,-22.59 576.28,-28.82"/>
</a>
</g>
</g>
<!-- Node12&#45;&gt;Node4 -->
<g id="edge20_Node000012_Node000004" class="edge">
<title>Node12&#45;&gt;Node4</title>
<g id="a_edge20_Node000012_Node000004"><a xlink:title=" ">
<path fill="none" stroke="#63b8ff" d="M524.68,-58.16C527.67,-57.42 530.68,-56.69 533.56,-56 581.77,-44.44 636.79,-31.86 676.24,-22.95"/>
<polygon fill="#63b8ff" stroke="#63b8ff" points="676.99,-26.37 685.97,-20.75 675.45,-19.54 676.99,-26.37"/>
</a>
</g>
</g>
<!-- Node13&#45;&gt;Node3 -->
<g id="edge22_Node000013_Node000003" class="edge">
<title>Node13&#45;&gt;Node3</title>
<g id="a_edge22_Node000013_Node000003"><a xlink:title=" ">
<path fill="none" stroke="#63b8ff" d="M573.83,-55.59C578.58,-48.47 585.26,-38.45 591.09,-29.72"/>
<polygon fill="#63b8ff" stroke="#63b8ff" points="593.89,-31.82 596.52,-21.56 588.06,-27.94 593.89,-31.82"/>
</a>
</g>
</g>
<!-- Node13&#45;&gt;Node4 -->
<g id="edge23_Node000013_Node000004" class="edge">
<title>Node13&#45;&gt;Node4</title>
<g id="a_edge23_Node000013_Node000004"><a xlink:title=" ">
<path fill="none" stroke="#63b8ff" d="M593.23,-56.44C619.45,-47.7 660.49,-34.02 690.7,-23.95"/>
<polygon fill="#63b8ff" stroke="#63b8ff" points="691.47,-27.39 699.85,-20.9 689.26,-20.74 691.47,-27.39"/>
</a>
</g>
</g>
<!-- Node14&#45;&gt;Node3 -->
<g id="edge25_Node000014_Node000003" class="edge">
<title>Node14&#45;&gt;Node3</title>
<g id="a_edge25_Node000014_Node000003"><a xlink:title=" ">
<path fill="none" stroke="#63b8ff" d="M629.16,-55.59C625.12,-48.55 619.45,-38.67 614.47,-30"/>
<polygon fill="#63b8ff" stroke="#63b8ff" points="617.67,-28.54 609.65,-21.61 611.6,-32.03 617.67,-28.54"/>
</a>
</g>
</g>
<!-- Node14&#45;&gt;Node4 -->
<g id="edge26_Node000014_Node000004" class="edge">
<title>Node14&#45;&gt;Node4</title>
<g id="a_edge26_Node000014_Node000004"><a xlink:title=" ">
<path fill="none" stroke="#63b8ff" d="M651.11,-55.59C665.46,-47.44 686.49,-35.48 703.16,-26"/>
<polygon fill="#63b8ff" stroke="#63b8ff" points="704.61,-29.21 711.57,-21.23 701.15,-23.13 704.61,-29.21"/>
</a>
</g>
</g>
<!-- Node15&#45;&gt;Node3 -->
<g id="edge28_Node000015_Node000003" class="edge">
<title>Node15&#45;&gt;Node3</title>
<g id="a_edge28_Node000015_Node000003"><a xlink:title=" ">
<path fill="none" stroke="#63b8ff" d="M1124.11,-58.03C1121.26,-57.25 1118.36,-56.54 1115.56,-56 913.29,-17.24 857.84,-46.28 653.56,-20 652.57,-19.87 651.56,-19.74 650.55,-19.6"/>
<polygon fill="#63b8ff" stroke="#63b8ff" points="651.45,-16.2 641.04,-18.15 650.4,-23.12 651.45,-16.2"/>
</a>
</g>
</g>
<!-- Node15&#45;&gt;Node4 -->
<g id="edge29_Node000015_Node000004" class="edge">
<title>Node15&#45;&gt;Node4</title>
<g id="a_edge29_Node000015_Node000004"><a xlink:title=" ">
<path fill="none" stroke="#63b8ff" d="M1124.09,-58.13C1121.25,-57.33 1118.35,-56.59 1115.56,-56 1058.79,-43.99 904.05,-27.8 808.62,-18.48"/>
<polygon fill="#63b8ff" stroke="#63b8ff" points="809.08,-15 798.79,-17.52 808.41,-21.97 809.08,-15"/>
</a>
</g>
</g>
<!-- Node15&#45;&gt;Node6 -->
<g id="edge31_Node000015_Node000006" class="edge">
<title>Node15&#45;&gt;Node6</title>
<g id="a_edge31_Node000015_Node000006"><a xlink:title=" ">
<path fill="none" stroke="#63b8ff" d="M1124.33,-58.54C1121.4,-57.66 1118.41,-56.79 1115.56,-56 1071.39,-43.79 1020.79,-31.6 983.69,-23"/>
<polygon fill="#63b8ff" stroke="#63b8ff" points="984.64,-19.62 974.11,-20.79 983.07,-26.45 984.64,-19.62"/>
</a>
</g>
</g>
<!-- Node15&#45;&gt;Node16 -->
<g id="edge30_Node000015_Node000016" class="edge">
<title>Node15&#45;&gt;Node16</title>
<g id="a_edge30_Node000015_Node000016"><a xlink:title=" ">
<path fill="none" stroke="#63b8ff" d="M1136.55,-55.59C1130.28,-48.24 1121.39,-37.8 1113.78,-28.87"/>
<polygon fill="#63b8ff" stroke="#63b8ff" points="1116.61,-26.79 1107.46,-21.45 1111.29,-31.33 1116.61,-26.79"/>
</a>
</g>
</g>
<!-- Node17&#45;&gt;Node3 -->
<g id="edge33_Node000017_Node000003" class="edge">
<title>Node17&#45;&gt;Node3</title>
<g id="a_edge33_Node000017_Node000003"><a xlink:title=" ">
<path fill="none" stroke="#63b8ff" d="M682.84,-55.59C668.34,-47.44 647.09,-35.48 630.24,-26"/>
<polygon fill="#63b8ff" stroke="#63b8ff" points="632.17,-23.07 621.73,-21.22 628.73,-29.17 632.17,-23.07"/>
</a>
</g>
</g>
<!-- Node17&#45;&gt;Node4 -->
<g id="edge34_Node000017_Node000004" class="edge">
<title>Node17&#45;&gt;Node4</title>
<g id="a_edge34_Node000017_Node000004"><a xlink:title=" ">
<path fill="none" stroke="#63b8ff" d="M704.79,-55.59C708.66,-48.63 714.07,-38.89 718.85,-30.29"/>
<polygon fill="#63b8ff" stroke="#63b8ff" points="721.86,-32.06 723.66,-21.62 715.75,-28.66 721.86,-32.06"/>
</a>
</g>
</g>
<!-- Node18&#45;&gt;Node3 -->
<g id="edge36_Node000018_Node000003" class="edge">
<title>Node18&#45;&gt;Node3</title>
<g id="a_edge36_Node000018_Node000003"><a xlink:title=" ">
<path fill="none" stroke="#63b8ff" d="M739.59,-57.49C714.37,-48.87 672.54,-34.57 641.91,-24.11"/>
<polygon fill="#63b8ff" stroke="#63b8ff" points="643.21,-20.85 632.62,-20.93 640.95,-27.48 643.21,-20.85"/>
</a>
</g>
</g>
<!-- Node18&#45;&gt;Node4 -->
<g id="edge37_Node000018_Node000004" class="edge">
<title>Node18&#45;&gt;Node4</title>
<g id="a_edge37_Node000018_Node000004"><a xlink:title=" ">
<path fill="none" stroke="#63b8ff" d="M755.99,-55.59C751.81,-48.55 745.96,-38.67 740.82,-30"/>
<polygon fill="#63b8ff" stroke="#63b8ff" points="743.95,-28.42 735.84,-21.6 737.93,-31.99 743.95,-28.42"/>
</a>
</g>
</g>
<!-- Node19&#45;&gt;Node3 -->
<g id="edge39_Node000019_Node000003" class="edge">
<title>Node19&#45;&gt;Node3</title>
<g id="a_edge39_Node000019_Node000003"><a xlink:title=" ">
<path fill="none" stroke="#63b8ff" d="M77.27,-57.62C80.4,-57.01 83.54,-56.46 86.56,-56 258.28,-29.79 464.59,-17.54 555.99,-13.08"/>
<polygon fill="#63b8ff" stroke="#63b8ff" points="556,-16.59 565.82,-12.61 555.66,-9.59 556,-16.59"/>
</a>
</g>
</g>
<!-- Node20&#45;&gt;Node3 -->
<g id="edge41_Node000020_Node000003" class="edge">
<title>Node20&#45;&gt;Node3</title>
<g id="a_edge41_Node000020_Node000003"><a xlink:title=" ">
<path fill="none" stroke="#63b8ff" d="M899.64,-58.25C896.61,-57.43 893.52,-56.65 890.56,-56 786.51,-33.1 758.67,-37.44 653.56,-20 652.57,-19.84 651.57,-19.67 650.56,-19.5"/>
<polygon fill="#63b8ff" stroke="#63b8ff" points="651.53,-16.11 641.08,-17.86 650.34,-23.01 651.53,-16.11"/>
</a>
</g>
</g>
<!-- Node20&#45;&gt;Node4 -->
<g id="edge42_Node000020_Node000004" class="edge">
<title>Node20&#45;&gt;Node4</title>
<g id="a_edge42_Node000020_Node000004"><a xlink:title=" ">
<path fill="none" stroke="#63b8ff" d="M899.89,-58.68C896.76,-57.77 893.58,-56.86 890.56,-56 851.49,-44.87 807,-32.45 774.71,-23.49"/>
<polygon fill="#63b8ff" stroke="#63b8ff" points="775.85,-20.17 765.28,-20.87 773.98,-26.92 775.85,-20.17"/>
</a>
</g>
</g>
<!-- Node20&#45;&gt;Node6 -->
<g id="edge43_Node000020_Node000006" class="edge">
<title>Node20&#45;&gt;Node6</title>
<g id="a_edge43_Node000020_Node000006"><a xlink:title=" ">
<path fill="none" stroke="#63b8ff" d="M923.13,-55.59C924.24,-48.93 925.77,-39.75 927.16,-31.44"/>
<polygon fill="#63b8ff" stroke="#63b8ff" points="930.57,-32.23 928.76,-21.79 923.67,-31.08 930.57,-32.23"/>
</a>
</g>
</g>
<!-- Node21&#45;&gt;Node3 -->
<g id="edge45_Node000021_Node000003" class="edge">
<title>Node21&#45;&gt;Node3</title>
<g id="a_edge45_Node000021_Node000003"><a xlink:title=" ">
<path fill="none" stroke="#63b8ff" d="M296.49,-58.25C299.52,-57.43 302.61,-56.65 305.56,-56 393.24,-36.74 497.24,-23.09 556.3,-16.17"/>
<polygon fill="#63b8ff" stroke="#63b8ff" points="556.46,-19.68 566,-15.05 555.66,-12.72 556.46,-19.68"/>
</a>
</g>
</g>
<!-- Node21&#45;&gt;Node4 -->
<g id="edge46_Node000021_Node000004" class="edge">
<title>Node21&#45;&gt;Node4</title>
<g id="a_edge46_Node000021_Node000004"><a xlink:title=" ">
<path fill="none" stroke="#63b8ff" d="M296.46,-58.12C299.5,-57.32 302.59,-56.58 305.56,-56 455.98,-26.52 496.17,-36.46 648.56,-20 649.24,-19.93 649.93,-19.85 650.62,-19.78"/>
<polygon fill="#63b8ff" stroke="#63b8ff" points="650.88,-23.27 660.44,-18.71 650.12,-16.31 650.88,-23.27"/>
</a>
</g>
</g>
<!-- Node22&#45;&gt;Node3 -->
<g id="edge48_Node000022_Node000003" class="edge">
<title>Node22&#45;&gt;Node3</title>
<g id="a_edge48_Node000022_Node000003"><a xlink:title=" ">
<path fill="none" stroke="#63b8ff" d="M1040.29,-57.66C1037.01,-57.05 1033.73,-56.48 1030.56,-56 864.15,-30.72 820.31,-42.93 653.56,-20 652.57,-19.86 651.56,-19.72 650.55,-19.57"/>
<polygon fill="#63b8ff" stroke="#63b8ff" points="651.47,-16.18 641.05,-18.08 650.39,-23.09 651.47,-16.18"/>
</a>
</g>
</g>
<!-- Node22&#45;&gt;Node4 -->
<g id="edge49_Node000022_Node000004" class="edge">
<title>Node22&#45;&gt;Node4</title>
<g id="a_edge49_Node000022_Node000004"><a xlink:title=" ">
<path fill="none" stroke="#63b8ff" d="M1040.26,-57.83C1036.99,-57.19 1033.72,-56.57 1030.56,-56 955.41,-42.53 869.19,-29.93 808.35,-21.51"/>
<polygon fill="#63b8ff" stroke="#63b8ff" points="809.17,-18.09 798.79,-20.19 808.22,-25.02 809.17,-18.09"/>
</a>
</g>
</g>
<!-- Node22&#45;&gt;Node16 -->
<g id="edge50_Node000022_Node000016" class="edge">
<title>Node22&#45;&gt;Node16</title>
<g id="a_edge50_Node000022_Node000016"><a xlink:title=" ">
<path fill="none" stroke="#63b8ff" d="M1077.92,-55.59C1081.11,-48.7 1085.55,-39.1 1089.5,-30.57"/>
<polygon fill="#63b8ff" stroke="#63b8ff" points="1092.6,-32.22 1093.62,-21.67 1086.24,-29.28 1092.6,-32.22"/>
</a>
</g>
</g>
<!-- Node23&#45;&gt;Node3 -->
<g id="edge52_Node000023_Node000003" class="edge">
<title>Node23&#45;&gt;Node3</title>
<g id="a_edge52_Node000023_Node000003"><a xlink:title=" ">
<path fill="none" stroke="#63b8ff" d="M1181.97,-57.25C1179.13,-56.79 1176.31,-56.36 1173.56,-56 943.89,-25.7 883.46,-48.56 653.56,-20 652.73,-19.9 651.88,-19.79 651.03,-19.67"/>
<polygon fill="#63b8ff" stroke="#63b8ff" points="651.72,-16.24 641.31,-18.23 650.69,-23.16 651.72,-16.24"/>
</a>
</g>
</g>
<!-- Node24 -->
<g id="Node000024" class="node">
<title>Node24</title>
<g id="a_Node000024"><a xlink:title=" ">
<polygon fill="#e0e0e0" stroke="#999999" points="1247.44,-20 1191.69,-20 1191.69,0 1247.44,0 1247.44,-20"/>
<text xml:space="preserve" text-anchor="middle" x="1219.56" y="-6.5" font-family="Helvetica,sans-Serif" font-size="10.00">stdbool.h</text>
</a>
</g>
</g>
<!-- Node23&#45;&gt;Node24 -->
<g id="edge53_Node000023_Node000024" class="edge">
<title>Node23&#45;&gt;Node24</title>
<g id="a_edge53_Node000023_Node000024"><a xlink:title=" ">
<path fill="none" stroke="#63b8ff" d="M1219.56,-55.59C1219.56,-49.01 1219.56,-39.96 1219.56,-31.73"/>
<polygon fill="#63b8ff" stroke="#63b8ff" points="1223.06,-31.81 1219.56,-21.81 1216.06,-31.81 1223.06,-31.81"/>
</a>
</g>
</g>
<!-- Node25&#45;&gt;Node3 -->
<g id="edge55_Node000025_Node000003" class="edge">
<title>Node25&#45;&gt;Node3</title>
<g id="a_edge55_Node000025_Node000003"><a xlink:title=" ">
<path fill="none" stroke="#63b8ff" d="M960.62,-57.71C957.56,-57.09 954.51,-56.51 951.56,-56 820.1,-33.33 785.49,-39.83 653.56,-20 652.57,-19.85 651.57,-19.7 650.56,-19.54"/>
<polygon fill="#63b8ff" stroke="#63b8ff" points="651.5,-16.15 641.06,-17.98 650.37,-23.06 651.5,-16.15"/>
</a>
</g>
</g>
<!-- Node25&#45;&gt;Node4 -->
<g id="edge56_Node000025_Node000004" class="edge">
<title>Node25&#45;&gt;Node4</title>
<g id="a_edge56_Node000025_Node000004"><a xlink:title=" ">
<path fill="none" stroke="#63b8ff" d="M960.57,-57.96C957.53,-57.29 954.49,-56.63 951.56,-56 896.55,-44.24 833.7,-31.57 788.95,-22.68"/>
<polygon fill="#63b8ff" stroke="#63b8ff" points="789.67,-19.25 779.18,-20.74 788.31,-26.12 789.67,-19.25"/>
</a>
</g>
</g>
<!-- Node25&#45;&gt;Node16 -->
<g id="edge57_Node000025_Node000016" class="edge">
<title>Node25&#45;&gt;Node16</title>
<g id="a_edge57_Node000025_Node000016"><a xlink:title=" ">
<path fill="none" stroke="#63b8ff" d="M1010.2,-55.59C1026.59,-47.32 1050.72,-35.14 1069.62,-25.6"/>
<polygon fill="#63b8ff" stroke="#63b8ff" points="1071.08,-28.79 1078.43,-21.16 1067.92,-22.54 1071.08,-28.79"/>
</a>
</g>
</g>
<!-- Node26&#45;&gt;Node3 -->
<g id="edge59_Node000026_Node000003" class="edge">
<title>Node26&#45;&gt;Node3</title>
<g id="a_edge59_Node000026_Node000003"><a xlink:title=" ">
<path fill="none" stroke="#63b8ff" d="M172.25,-57.33C175.06,-56.85 177.85,-56.4 180.56,-56 316.23,-35.83 477.67,-21.24 556.1,-14.75"/>
<polygon fill="#63b8ff" stroke="#63b8ff" points="556.31,-18.25 565.99,-13.94 555.74,-11.27 556.31,-18.25"/>
</a>
</g>
</g>
<!-- Node27&#45;&gt;Node3 -->
<g id="edge61_Node000027_Node000003" class="edge">
<title>Node27&#45;&gt;Node3</title>
<g id="a_edge61_Node000027_Node000003"><a xlink:title=" ">
<path fill="none" stroke="#63b8ff" d="M235.48,-57.91C238.19,-57.2 240.93,-56.54 243.56,-56 354.36,-33.14 486.89,-20.21 556.12,-14.52"/>
<polygon fill="#63b8ff" stroke="#63b8ff" points="556.29,-18.02 565.98,-13.73 555.73,-11.04 556.29,-18.02"/>
</a>
</g>
</g>
</g>
</svg>
