<?xml version="1.0" encoding="UTF-8" standalone="no"?>
<!DOCTYPE svg PUBLIC "-//W3C//DTD SVG 1.1//EN"
 "http://www.w3.org/Graphics/SVG/1.1/DTD/svg11.dtd">
<!-- Generated by graphviz version 14.1.4 (20260321.0153)
 -->
<!-- Title: arcade_draw_info_panel Pages: 1 -->
<svg width="810pt" height="180pt"
 viewBox="0.00 0.00 810.00 180.00" xmlns="http://www.w3.org/2000/svg" xmlns:xlink="http://www.w3.org/1999/xlink">
<g id="graph0" class="graph" transform="scale(1 1) rotate(0) translate(4 176)">
<title>arcade_draw_info_panel</title>
<!-- Node1 -->
<g id="Node000001" class="node">
<title>Node1</title>
<g id="a_Node000001"><a xlink:title=" ">
<polygon fill="#999999" stroke="#666666" points="802,-96 681,-96 681,-76 802,-76 802,-96"/>
<text xml:space="preserve" text-anchor="middle" x="741.5" y="-82.5" font-family="Helvetica,sans-Serif" font-size="10.00">arcade_draw_info_panel</text>
</a>
</g>
</g>
<!-- Node2 -->
<g id="Node000002" class="node">
<title>Node2</title>
<g id="a_Node000002"><a xlink:href="arcade_8c.html#ac90ef500e15768a0d93b6e4d0c324a5c" target="_top" xlink:title="Lance arcade1 et gere son deroulement complet.">
<polygon fill="white" stroke="#666666" points="645,-96 568.25,-96 568.25,-76 645,-76 645,-96"/>
<text xml:space="preserve" text-anchor="middle" x="606.62" y="-82.5" font-family="Helvetica,sans-Serif" font-size="10.00">jouer_arcade1</text>
</a>
</g>
</g>
<!-- Node1&#45;&gt;Node2 -->
<g id="edge1_Node000001_Node000002" class="edge">
<title>Node1&#45;&gt;Node2</title>
<g id="a_edge1_Node000001_Node000002"><a xlink:title=" ">
<path fill="none" stroke="#63b8ff" d="M669.4,-86C661.14,-86 652.98,-86 645.43,-86"/>
<polygon fill="#63b8ff" stroke="#63b8ff" points="669.16,-89.5 679.16,-86 669.16,-82.5 669.16,-89.5"/>
</a>
</g>
</g>
<!-- Node8 -->
<g id="Node000008" class="node">
<title>Node8</title>
<g id="a_Node000008"><a xlink:href="arcade_8c.html#a97cf0885563c96f017c3408ca0cb0670" target="_top" xlink:title="Lance arcade2 et gere son deroulement complet.">
<polygon fill="white" stroke="#666666" points="645,-172 568.25,-172 568.25,-152 645,-152 645,-172"/>
<text xml:space="preserve" text-anchor="middle" x="606.62" y="-158.5" font-family="Helvetica,sans-Serif" font-size="10.00">jouer_arcade2</text>
</a>
</g>
</g>
<!-- Node1&#45;&gt;Node8 -->
<g id="edge9_Node000001_Node000008" class="edge">
<title>Node1&#45;&gt;Node8</title>
<g id="a_edge9_Node000001_Node000008"><a xlink:title=" ">
<path fill="none" stroke="#63b8ff" d="M714.05,-102.44C695.03,-114.1 668.68,-129.93 645,-143 639.77,-145.88 634.06,-148.87 628.71,-151.6"/>
<polygon fill="#63b8ff" stroke="#63b8ff" points="715.83,-105.46 722.51,-97.23 712.16,-99.5 715.83,-105.46"/>
</a>
</g>
</g>
<!-- Node9 -->
<g id="Node000009" class="node">
<title>Node9</title>
<g id="a_Node000009"><a xlink:href="arcade_8c.html#a4d835eb6e2ce82e2c147bbc29a36a3ce" target="_top" xlink:title="Lance arcade3 et gere son deroulement complet.">
<polygon fill="white" stroke="#666666" points="645,-134 568.25,-134 568.25,-114 645,-114 645,-134"/>
<text xml:space="preserve" text-anchor="middle" x="606.62" y="-120.5" font-family="Helvetica,sans-Serif" font-size="10.00">jouer_arcade3</text>
</a>
</g>
</g>
<!-- Node1&#45;&gt;Node9 -->
<g id="edge11_Node000001_Node000009" class="edge">
<title>Node1&#45;&gt;Node9</title>
<g id="a_edge11_Node000001_Node000009"><a xlink:title=" ">
<path fill="none" stroke="#63b8ff" d="M693.02,-99.58C676.95,-104.18 659.26,-109.23 644.17,-113.55"/>
<polygon fill="#63b8ff" stroke="#63b8ff" points="693.73,-103.02 702.38,-96.9 691.81,-96.29 693.73,-103.02"/>
</a>
</g>
</g>
<!-- Node10 -->
<g id="Node000010" class="node">
<title>Node10</title>
<g id="a_Node000010"><a xlink:href="arcade_8c.html#a9be93ac88e97809a94f0ae9b48152aa9" target="_top" xlink:title="Lance le mini&#45;jeu Mastermind utilise dans la progression.">
<polygon fill="white" stroke="#666666" points="640.12,-20 573.12,-20 573.12,0 640.12,0 640.12,-20"/>
<text xml:space="preserve" text-anchor="middle" x="606.62" y="-6.5" font-family="Helvetica,sans-Serif" font-size="10.00">mastermind</text>
</a>
</g>
</g>
<!-- Node1&#45;&gt;Node10 -->
<g id="edge13_Node000001_Node000010" class="edge">
<title>Node1&#45;&gt;Node10</title>
<g id="a_edge13_Node000001_Node000010"><a xlink:title=" ">
<path fill="none" stroke="#63b8ff" d="M714.05,-69.56C695.03,-57.9 668.68,-42.07 645,-29 639.77,-26.12 634.06,-23.13 628.71,-20.4"/>
<polygon fill="#63b8ff" stroke="#63b8ff" points="712.16,-72.5 722.51,-74.77 715.83,-66.54 712.16,-72.5"/>
</a>
</g>
</g>
<!-- Node12 -->
<g id="Node000012" class="node">
<title>Node12</title>
<g id="a_Node000012"><a xlink:href="arcade_8c.html#a60b12154cf6385b2392e62c0fb9c4e8a" target="_top" xlink:title="Lance le mini&#45;jeu Simon utilise dans la progression.">
<polygon fill="white" stroke="#666666" points="627.75,-58 585.5,-58 585.5,-38 627.75,-38 627.75,-58"/>
<text xml:space="preserve" text-anchor="middle" x="606.62" y="-44.5" font-family="Helvetica,sans-Serif" font-size="10.00">simon</text>
</a>
</g>
</g>
<!-- Node1&#45;&gt;Node12 -->
<g id="edge16_Node000001_Node000012" class="edge">
<title>Node1&#45;&gt;Node12</title>
<g id="a_edge16_Node000001_Node000012"><a xlink:title=" ">
<path fill="none" stroke="#63b8ff" d="M692.88,-72.38C670.62,-66.02 645.3,-58.78 628.08,-53.85"/>
<polygon fill="#63b8ff" stroke="#63b8ff" points="691.81,-75.72 702.38,-75.1 693.73,-68.98 691.81,-75.72"/>
</a>
</g>
</g>
<!-- Node3 -->
<g id="Node000003" class="node">
<title>Node3</title>
<g id="a_Node000003"><a xlink:href="vaisseau_8c.html#ace614afc8df3a40bd5ea0771044ff217" target="_top" xlink:title=" ">
<polygon fill="white" stroke="#666666" points="532.25,-134 418,-134 418,-114 532.25,-114 532.25,-134"/>
<text xml:space="preserve" text-anchor="middle" x="475.12" y="-120.5" font-family="Helvetica,sans-Serif" font-size="10.00">gerer_interaction_objet</text>
</a>
</g>
</g>
<!-- Node2&#45;&gt;Node3 -->
<g id="edge2_Node000002_Node000003" class="edge">
<title>Node2&#45;&gt;Node3</title>
<g id="a_edge2_Node000002_Node000003"><a xlink:title=" ">
<path fill="none" stroke="#63b8ff" d="M558.9,-99.71C543.35,-104.27 526.3,-109.28 511.74,-113.55"/>
<polygon fill="#63b8ff" stroke="#63b8ff" points="559.83,-103.08 568.44,-96.91 557.86,-96.37 559.83,-103.08"/>
</a>
</g>
</g>
<!-- Node4 -->
<g id="Node000004" class="node">
<title>Node4</title>
<g id="a_Node000004"><a xlink:href="vaisseau_8c.html#a8ea9afc9440149ddd36e96b97d8ed6c5" target="_top" xlink:title="Lance la scene interieure du vaisseau (deplacement, interactions, mini&#45;jeux, sortie).">
<polygon fill="white" stroke="#666666" points="382,-134 327,-134 327,-114 382,-114 382,-134"/>
<text xml:space="preserve" text-anchor="middle" x="354.5" y="-120.5" font-family="Helvetica,sans-Serif" font-size="10.00">vaisseau</text>
</a>
</g>
</g>
<!-- Node3&#45;&gt;Node4 -->
<g id="edge3_Node000003_Node000004" class="edge">
<title>Node3&#45;&gt;Node4</title>
<g id="a_edge3_Node000003_Node000004"><a xlink:title=" ">
<path fill="none" stroke="#63b8ff" d="M406.09,-124C397.71,-124 389.57,-124 382.35,-124"/>
<polygon fill="#63b8ff" stroke="#63b8ff" points="406.08,-127.5 416.08,-124 406.08,-120.5 406.08,-127.5"/>
</a>
</g>
</g>
<!-- Node5 -->
<g id="Node000005" class="node">
<title>Node5</title>
<g id="a_Node000005"><a xlink:href="cinematique_8c.html#a418cc3e727578f4cd509ad27cd6a2a31" target="_top" xlink:title="Lance cinematique fin et gere son deroulement complet.">
<polygon fill="white" stroke="#666666" points="291,-134 180.5,-134 180.5,-114 291,-114 291,-134"/>
<text xml:space="preserve" text-anchor="middle" x="235.75" y="-120.5" font-family="Helvetica,sans-Serif" font-size="10.00">jouer_cinematique_fin</text>
</a>
</g>
</g>
<!-- Node4&#45;&gt;Node5 -->
<g id="edge4_Node000004_Node000005" class="edge">
<title>Node4&#45;&gt;Node5</title>
<g id="a_edge4_Node000004_Node000005"><a xlink:title=" ">
<path fill="none" stroke="#63b8ff" d="M315.4,-124C307.61,-124 299.28,-124 291.05,-124"/>
<polygon fill="#63b8ff" stroke="#63b8ff" points="315.2,-127.5 325.2,-124 315.2,-120.5 315.2,-127.5"/>
</a>
</g>
</g>
<!-- Node7 -->
<g id="Node000007" class="node">
<title>Node7</title>
<g id="a_Node000007"><a xlink:href="main_8c.html#a0ddf1224851353fc92bfbff6f499fa97" target="_top" xlink:title=" ">
<polygon fill="white" stroke="#666666" points="37,-115 0,-115 0,-95 37,-95 37,-115"/>
<text xml:space="preserve" text-anchor="middle" x="18.5" y="-101.5" font-family="Helvetica,sans-Serif" font-size="10.00">main</text>
</a>
</g>
</g>
<!-- Node4&#45;&gt;Node7 -->
<g id="edge8_Node000004_Node000007" class="edge">
<title>Node4&#45;&gt;Node7</title>
<g id="a_edge8_Node000004_Node000007"><a xlink:title=" ">
<path fill="none" stroke="#63b8ff" d="M315.58,-137.47C307.57,-139.77 299.08,-141.8 291,-143 194.8,-157.3 167.03,-148.82 73,-124 60.8,-120.78 47.43,-116.03 37.1,-112.08"/>
<polygon fill="#63b8ff" stroke="#63b8ff" points="316.55,-140.84 325.07,-134.55 314.49,-134.15 316.55,-140.84"/>
</a>
</g>
</g>
<!-- Node6 -->
<g id="Node000006" class="node">
<title>Node6</title>
<g id="a_Node000006"><a xlink:href="map_8c.html#ad462ccdd50801fb085dc8134fc3765d1" target="_top" xlink:title="Affiche la carte et met a jour les elements visuels associes.">
<polygon fill="white" stroke="#666666" points="144.5,-115 73,-115 73,-95 144.5,-95 144.5,-115"/>
<text xml:space="preserve" text-anchor="middle" x="108.75" y="-101.5" font-family="Helvetica,sans-Serif" font-size="10.00">afficher_map</text>
</a>
</g>
</g>
<!-- Node5&#45;&gt;Node6 -->
<g id="edge5_Node000005_Node000006" class="edge">
<title>Node5&#45;&gt;Node6</title>
<g id="a_edge5_Node000005_Node000006"><a xlink:title=" ">
<path fill="none" stroke="#63b8ff" d="M169,-114.01C160.72,-112.75 152.51,-111.5 144.96,-110.35"/>
<polygon fill="#63b8ff" stroke="#63b8ff" points="168.38,-117.45 178.79,-115.49 169.43,-110.53 168.38,-117.45"/>
</a>
</g>
</g>
<!-- Node6&#45;&gt;Node3 -->
<g id="edge6_Node000006_Node000003" class="edge">
<title>Node6&#45;&gt;Node3</title>
<g id="a_edge6_Node000006_Node000003"><a xlink:title=" ">
<path fill="none" stroke="#63b8ff" d="M155.98,-102.15C210.26,-99.46 302.93,-96.93 382,-105 398.73,-106.71 416.92,-110.12 432.67,-113.58"/>
<polygon fill="#63b8ff" stroke="#63b8ff" points="155.99,-98.64 146.19,-102.66 156.36,-105.64 155.99,-98.64"/>
</a>
</g>
</g>
<!-- Node6&#45;&gt;Node7 -->
<g id="edge7_Node000006_Node000007" class="edge">
<title>Node6&#45;&gt;Node7</title>
<g id="a_edge7_Node000006_Node000007"><a xlink:title=" ">
<path fill="none" stroke="#63b8ff" d="M61.39,-105C52.82,-105 44.36,-105 37.31,-105"/>
<polygon fill="#63b8ff" stroke="#63b8ff" points="61.1,-108.5 71.1,-105 61.1,-101.5 61.1,-108.5"/>
</a>
</g>
</g>
<!-- Node8&#45;&gt;Node3 -->
<g id="edge10_Node000008_Node000003" class="edge">
<title>Node8&#45;&gt;Node3</title>
<g id="a_edge10_Node000008_Node000003"><a xlink:title=" ">
<path fill="none" stroke="#63b8ff" d="M558.9,-148.29C543.35,-143.73 526.3,-138.72 511.74,-134.45"/>
<polygon fill="#63b8ff" stroke="#63b8ff" points="557.86,-151.63 568.44,-151.09 559.83,-144.92 557.86,-151.63"/>
</a>
</g>
</g>
<!-- Node9&#45;&gt;Node3 -->
<g id="edge12_Node000009_Node000003" class="edge">
<title>Node9&#45;&gt;Node3</title>
<g id="a_edge12_Node000009_Node000003"><a xlink:title=" ">
<path fill="none" stroke="#63b8ff" d="M556.32,-124C548.54,-124 540.44,-124 532.51,-124"/>
<polygon fill="#63b8ff" stroke="#63b8ff" points="556.31,-127.5 566.31,-124 556.31,-120.5 556.31,-127.5"/>
</a>
</g>
</g>
<!-- Node11 -->
<g id="Node000011" class="node">
<title>Node11</title>
<g id="a_Node000011"><a xlink:href="jeux_8c.html#a2d7491d04e8c2bdb52bb6ed7d75e4d78" target="_top" xlink:title="Execute la boucle principale de gameplay pour la planete courante.">
<polygon fill="white" stroke="#666666" points="510.12,-58 440.12,-58 440.12,-38 510.12,-38 510.12,-58"/>
<text xml:space="preserve" text-anchor="middle" x="475.12" y="-44.5" font-family="Helvetica,sans-Serif" font-size="10.00">jeu_principal</text>
</a>
</g>
</g>
<!-- Node10&#45;&gt;Node11 -->
<g id="edge14_Node000010_Node000011" class="edge">
<title>Node10&#45;&gt;Node11</title>
<g id="a_edge14_Node000010_Node000011"><a xlink:title=" ">
<path fill="none" stroke="#63b8ff" d="M562.26,-22.72C545.45,-27.66 526.46,-33.23 510.61,-37.88"/>
<polygon fill="#63b8ff" stroke="#63b8ff" points="562.88,-26.19 571.49,-20.02 560.91,-19.47 562.88,-26.19"/>
</a>
</g>
</g>
<!-- Node11&#45;&gt;Node7 -->
<g id="edge15_Node000011_Node000007" class="edge">
<title>Node11&#45;&gt;Node7</title>
<g id="a_edge15_Node000011_Node000007"><a xlink:title=" ">
<path fill="none" stroke="#63b8ff" d="M428.53,-48.68C353.51,-50.6 199.74,-57.94 73,-86 60.87,-88.68 47.72,-93.33 37.5,-97.35"/>
<polygon fill="#63b8ff" stroke="#63b8ff" points="428.45,-52.18 438.36,-48.45 428.28,-45.18 428.45,-52.18"/>
</a>
</g>
</g>
<!-- Node12&#45;&gt;Node11 -->
<g id="edge17_Node000012_Node000011" class="edge">
<title>Node12&#45;&gt;Node11</title>
<g id="a_edge17_Node000012_Node000011"><a xlink:title=" ">
<path fill="none" stroke="#63b8ff" d="M573.63,-48C554.43,-48 530.02,-48 510.42,-48"/>
<polygon fill="#63b8ff" stroke="#63b8ff" points="573.59,-51.5 583.59,-48 573.59,-44.5 573.59,-51.5"/>
</a>
</g>
</g>
</g>
</svg>
