<?xml version="1.0" encoding="UTF-8" standalone="no"?>
<!DOCTYPE svg PUBLIC "-//W3C//DTD SVG 1.1//EN"
 "http://www.w3.org/Graphics/SVG/1.1/DTD/svg11.dtd">
<!-- Generated by graphviz version 14.1.4 (20260321.0153)
 -->
<!-- Title: arcade_draw_text Pages: 1 -->
<!--zoomable 180 -->

<svg id="main" version="1.1" xmlns="http://www.w3.org/2000/svg" xmlns:xlink="http://www.w3.org/1999/xlink" xml:space="preserve" onload="init(evt)">

<style type="text/css"><![CDATA[
.node, .edge {opacity: 0.7;}
.node.selected, .edge.selected {opacity: 1;}
.edge:hover path { stroke: red; }
.edge:hover polygon { stroke: red; fill: red; }
]]></style>

<defs>
  <circle id="rim" cx="0" cy="0" r="7"/>
  <circle id="rim2" cx="0" cy="0" r="3.5"/>
  <g id="zoomPlus">
    <use xlink:href="#rim" fill="#404040"><set attributeName="fill" to="#808080" begin="zoomplus.mouseover" end="zoomplus.mouseout"/></use>
    <path d="M-4,0h8M0,-4v8" fill="none" stroke="white" stroke-width="1.5" pointer-events="none"/>
  </g>
  <g id="zoomMin">
    <use xlink:href="#rim" fill="#404040"><set attributeName="fill" to="#808080" begin="zoomminus.mouseover" end="zoomminus.mouseout"/></use>
    <path d="M-4,0h8" fill="none" stroke="white" stroke-width="1.5" pointer-events="none"/>
  </g>
  <g id="arrowUp" transform="translate(30 24)">
    <use xlink:href="#rim"/>
    <path pointer-events="none" fill="none" stroke="white" stroke-width="1.5" d="M0,-3.0v7 M-2.5,-0.5L0,-3.0L2.5,-0.5"/>
  </g>
  <g id="arrowRight" transform="rotate(90) translate(36 -43)">
    <use xlink:href="#rim"/>
    <path pointer-events="none" fill="none" stroke="white" stroke-width="1.5" d="M0,-3.0v7 M-2.5,-0.5L0,-3.0L2.5,-0.5"/>
  </g>
  <g id="arrowDown" transform="rotate(180) translate(-30 -48)">
    <use xlink:href="#rim"/>
    <path pointer-events="none" fill="none" stroke="white" stroke-width="1.5" d="M0,-3.0v7 M-2.5,-0.5L0,-3.0L2.5,-0.5"/>
  </g>
  <g id="arrowLeft" transform="rotate(270) translate(-36 17)">
    <use xlink:href="#rim"/>
    <path pointer-events="none" fill="none" stroke="white" stroke-width="1.5" d="M0,-3.0v7 M-2.5,-0.5L0,-3.0L2.5,-0.5"/>
  </g>
  <g id="resetDef">
    <use xlink:href="#rim2" fill="#404040"><set attributeName="fill" to="#808080" begin="reset.mouseover" end="reset.mouseout"/></use>
  </g>
</defs>
<script type="application/ecmascript">
var viewWidth = 939;
var viewHeight = 180;
var sectionId = 'dynsection-1';
</script>
<script type="application/ecmascript" xlink:href="svg.min.js"/>
<svg id="graph" class="graph">
<g id="viewport">
<title>arcade_draw_text</title>
<!-- Node1 -->
<g id="Node000001" class="node">
<title>Node1</title>
<g id="a_Node000001"><a xlink:title=" ">
<polygon fill="#999999" stroke="#666666" points="931.25,-115 838,-115 838,-95 931.25,-95 931.25,-115"/>
<text xml:space="preserve" text-anchor="middle" x="884.62" y="-101.5" font-family="Helvetica,sans-Serif" font-size="10.00">arcade_draw_text</text>
</a>
</g>
</g>
<!-- Node2 -->
<g id="Node000002" class="node">
<title>Node2</title>
<g id="a_Node000002"><a xlink:href="arcade_8c.html#a25752e139d33d2208840bba4bd7597df" target="_top" xlink:title=" ">
<polygon fill="white" stroke="#666666" points="787.75,-115 695.25,-115 695.25,-95 787.75,-95 787.75,-115"/>
<text xml:space="preserve" text-anchor="middle" x="741.5" y="-101.5" font-family="Helvetica,sans-Serif" font-size="10.00">arcade_draw_hud</text>
</a>
</g>
</g>
<!-- Node1&#45;&gt;Node2 -->
<g id="edge1_Node000001_Node000002" class="edge">
<title>Node1&#45;&gt;Node2</title>
<g id="a_edge1_Node000001_Node000002"><a xlink:title=" ">
<path fill="none" stroke="#63b8ff" d="M826.33,-105C813.6,-105 800.28,-105 788.09,-105"/>
<polygon fill="#63b8ff" stroke="#63b8ff" points="826.29,-108.5 836.29,-105 826.29,-101.5 826.29,-108.5"/>
</a>
</g>
</g>
<!-- Node3 -->
<g id="Node000003" class="node">
<title>Node3</title>
<g id="a_Node000003"><a xlink:href="arcade_8c.html#ac90ef500e15768a0d93b6e4d0c324a5c" target="_top" xlink:title="Lance arcade1 et gere son deroulement complet.">
<polygon fill="white" stroke="#666666" points="645,-172 568.25,-172 568.25,-152 645,-152 645,-172"/>
<text xml:space="preserve" text-anchor="middle" x="606.62" y="-158.5" font-family="Helvetica,sans-Serif" font-size="10.00">jouer_arcade1</text>
</a>
</g>
</g>
<!-- Node1&#45;&gt;Node3 -->
<g id="edge24_Node000001_Node000003" class="edge">
<title>Node1&#45;&gt;Node3</title>
<g id="a_edge24_Node000001_Node000003"><a xlink:title=" ">
<path fill="none" stroke="#63b8ff" d="M853.48,-120.43C838.4,-127.5 819.63,-135.33 802,-140 748.82,-154.08 685.11,-159.15 645.49,-160.98"/>
<polygon fill="#63b8ff" stroke="#63b8ff" points="854.9,-123.63 862.39,-116.13 851.86,-117.33 854.9,-123.63"/>
</a>
</g>
</g>
<!-- Node9 -->
<g id="Node000009" class="node">
<title>Node9</title>
<g id="a_Node000009"><a xlink:href="arcade_8c.html#a97cf0885563c96f017c3408ca0cb0670" target="_top" xlink:title="Lance arcade2 et gere son deroulement complet.">
<polygon fill="white" stroke="#666666" points="645,-58 568.25,-58 568.25,-38 645,-38 645,-58"/>
<text xml:space="preserve" text-anchor="middle" x="606.62" y="-44.5" font-family="Helvetica,sans-Serif" font-size="10.00">jouer_arcade2</text>
</a>
</g>
</g>
<!-- Node1&#45;&gt;Node9 -->
<g id="edge25_Node000001_Node000009" class="edge">
<title>Node1&#45;&gt;Node9</title>
<g id="a_edge25_Node000001_Node000009"><a xlink:title=" ">
<path fill="none" stroke="#63b8ff" d="M865.58,-87.45C850.12,-73.72 826.53,-55.72 802,-48 749.53,-31.49 685.08,-36.01 645.17,-41.46"/>
<polygon fill="#63b8ff" stroke="#63b8ff" points="862.85,-89.69 872.57,-93.9 867.59,-84.54 862.85,-89.69"/>
</a>
</g>
</g>
<!-- Node10 -->
<g id="Node000010" class="node">
<title>Node10</title>
<g id="a_Node000010"><a xlink:href="arcade_8c.html#a4d835eb6e2ce82e2c147bbc29a36a3ce" target="_top" xlink:title="Lance arcade3 et gere son deroulement complet.">
<polygon fill="white" stroke="#666666" points="645,-134 568.25,-134 568.25,-114 645,-114 645,-134"/>
<text xml:space="preserve" text-anchor="middle" x="606.62" y="-120.5" font-family="Helvetica,sans-Serif" font-size="10.00">jouer_arcade3</text>
</a>
</g>
</g>
<!-- Node1&#45;&gt;Node10 -->
<g id="edge26_Node000001_Node000010" class="edge">
<title>Node1&#45;&gt;Node10</title>
<g id="a_edge26_Node000001_Node000010"><a xlink:title=" ">
<path fill="none" stroke="#63b8ff" d="M835.8,-118.06C824.78,-120.53 813.05,-122.73 802,-124 747.86,-130.22 684.67,-128.59 645.4,-126.54"/>
<polygon fill="#63b8ff" stroke="#63b8ff" points="836.56,-121.47 845.49,-115.76 834.95,-114.66 836.56,-121.47"/>
</a>
</g>
</g>
<!-- Node13 -->
<g id="Node000013" class="node">
<title>Node13</title>
<g id="a_Node000013"><a xlink:href="arcade_8c.html#af12f65de40144cb2fb5188f647a813d9" target="_top" xlink:title=" ">
<polygon fill="white" stroke="#666666" points="802,-77 681,-77 681,-57 802,-57 802,-77"/>
<text xml:space="preserve" text-anchor="middle" x="741.5" y="-63.5" font-family="Helvetica,sans-Serif" font-size="10.00">arcade_draw_info_panel</text>
</a>
</g>
</g>
<!-- Node1&#45;&gt;Node13 -->
<g id="edge17_Node000001_Node000013" class="edge">
<title>Node1&#45;&gt;Node13</title>
<g id="a_edge17_Node000001_Node000013"><a xlink:title=" ">
<path fill="none" stroke="#63b8ff" d="M833.69,-91.55C816.49,-86.92 797.49,-81.81 781.31,-77.45"/>
<polygon fill="#63b8ff" stroke="#63b8ff" points="832.66,-94.9 843.23,-94.12 834.48,-88.14 832.66,-94.9"/>
</a>
</g>
</g>
<!-- Node2&#45;&gt;Node3 -->
<g id="edge2_Node000002_Node000003" class="edge">
<title>Node2&#45;&gt;Node3</title>
<g id="a_edge2_Node000002_Node000003"><a xlink:title=" ">
<path fill="none" stroke="#63b8ff" d="M705.66,-119.94C682.44,-129.91 652.49,-142.75 631.84,-151.61"/>
<polygon fill="#63b8ff" stroke="#63b8ff" points="706.93,-123.21 714.74,-116.05 704.17,-116.78 706.93,-123.21"/>
</a>
</g>
</g>
<!-- Node2&#45;&gt;Node9 -->
<g id="edge10_Node000002_Node000009" class="edge">
<title>Node2&#45;&gt;Node9</title>
<g id="a_edge10_Node000002_Node000009"><a xlink:title=" ">
<path fill="none" stroke="#63b8ff" d="M693.6,-90.89C689.3,-89.33 685.05,-87.7 681,-86 664.32,-79 661.06,-75.32 645,-67 639.57,-64.19 633.68,-61.18 628.22,-58.4"/>
<polygon fill="#63b8ff" stroke="#63b8ff" points="692.23,-94.12 702.83,-94.06 694.51,-87.5 692.23,-94.12"/>
</a>
</g>
</g>
<!-- Node2&#45;&gt;Node10 -->
<g id="edge12_Node000002_Node000010" class="edge">
<title>Node2&#45;&gt;Node10</title>
<g id="a_edge12_Node000002_Node000010"><a xlink:title=" ">
<path fill="none" stroke="#63b8ff" d="M683.63,-113.13C670.74,-114.97 657.37,-116.89 645.5,-118.58"/>
<polygon fill="#63b8ff" stroke="#63b8ff" points="683.87,-116.63 693.27,-111.75 682.88,-109.7 683.87,-116.63"/>
</a>
</g>
</g>
<!-- Node11 -->
<g id="Node000011" class="node">
<title>Node11</title>
<g id="a_Node000011"><a xlink:href="arcade_8c.html#a60b12154cf6385b2392e62c0fb9c4e8a" target="_top" xlink:title="Lance le mini&#45;jeu Simon utilise dans la progression.">
<polygon fill="white" stroke="#666666" points="627.75,-96 585.5,-96 585.5,-76 627.75,-76 627.75,-96"/>
<text xml:space="preserve" text-anchor="middle" x="606.62" y="-82.5" font-family="Helvetica,sans-Serif" font-size="10.00">simon</text>
</a>
</g>
</g>
<!-- Node2&#45;&gt;Node11 -->
<g id="edge14_Node000002_Node000011" class="edge">
<title>Node2&#45;&gt;Node11</title>
<g id="a_edge14_Node000002_Node000011"><a xlink:title=" ">
<path fill="none" stroke="#63b8ff" d="M683.38,-96.83C663.72,-94.02 642.95,-91.05 628.14,-88.93"/>
<polygon fill="#63b8ff" stroke="#63b8ff" points="682.88,-100.3 693.27,-98.25 683.87,-93.37 682.88,-100.3"/>
</a>
</g>
</g>
<!-- Node4 -->
<g id="Node000004" class="node">
<title>Node4</title>
<g id="a_Node000004"><a xlink:href="vaisseau_8c.html#ace614afc8df3a40bd5ea0771044ff217" target="_top" xlink:title=" ">
<polygon fill="white" stroke="#666666" points="532.25,-134 418,-134 418,-114 532.25,-114 532.25,-134"/>
<text xml:space="preserve" text-anchor="middle" x="475.12" y="-120.5" font-family="Helvetica,sans-Serif" font-size="10.00">gerer_interaction_objet</text>
</a>
</g>
</g>
<!-- Node3&#45;&gt;Node4 -->
<g id="edge3_Node000003_Node000004" class="edge">
<title>Node3&#45;&gt;Node4</title>
<g id="a_edge3_Node000003_Node000004"><a xlink:title=" ">
<path fill="none" stroke="#63b8ff" d="M558.9,-148.29C543.35,-143.73 526.3,-138.72 511.74,-134.45"/>
<polygon fill="#63b8ff" stroke="#63b8ff" points="557.86,-151.63 568.44,-151.09 559.83,-144.92 557.86,-151.63"/>
</a>
</g>
</g>
<!-- Node5 -->
<g id="Node000005" class="node">
<title>Node5</title>
<g id="a_Node000005"><a xlink:href="vaisseau_8c.html#a8ea9afc9440149ddd36e96b97d8ed6c5" target="_top" xlink:title="Lance la scene interieure du vaisseau (deplacement, interactions, mini&#45;jeux, sortie).">
<polygon fill="white" stroke="#666666" points="382,-115 327,-115 327,-95 382,-95 382,-115"/>
<text xml:space="preserve" text-anchor="middle" x="354.5" y="-101.5" font-family="Helvetica,sans-Serif" font-size="10.00">vaisseau</text>
</a>
</g>
</g>
<!-- Node4&#45;&gt;Node5 -->
<g id="edge4_Node000004_Node000005" class="edge">
<title>Node4&#45;&gt;Node5</title>
<g id="a_edge4_Node000004_Node000005"><a xlink:title=" ">
<path fill="none" stroke="#63b8ff" d="M406.37,-113.15C397.89,-111.79 389.65,-110.47 382.35,-109.3"/>
<polygon fill="#63b8ff" stroke="#63b8ff" points="405.67,-116.58 416.1,-114.71 406.78,-109.67 405.67,-116.58"/>
</a>
</g>
</g>
<!-- Node6 -->
<g id="Node000006" class="node">
<title>Node6</title>
<g id="a_Node000006"><a xlink:href="cinematique_8c.html#a418cc3e727578f4cd509ad27cd6a2a31" target="_top" xlink:title="Lance cinematique fin et gere son deroulement complet.">
<polygon fill="white" stroke="#666666" points="291,-115 180.5,-115 180.5,-95 291,-95 291,-115"/>
<text xml:space="preserve" text-anchor="middle" x="235.75" y="-101.5" font-family="Helvetica,sans-Serif" font-size="10.00">jouer_cinematique_fin</text>
</a>
</g>
</g>
<!-- Node5&#45;&gt;Node6 -->
<g id="edge5_Node000005_Node000006" class="edge">
<title>Node5&#45;&gt;Node6</title>
<g id="a_edge5_Node000005_Node000006"><a xlink:title=" ">
<path fill="none" stroke="#63b8ff" d="M315.4,-105C307.61,-105 299.28,-105 291.05,-105"/>
<polygon fill="#63b8ff" stroke="#63b8ff" points="315.2,-108.5 325.2,-105 315.2,-101.5 315.2,-108.5"/>
</a>
</g>
</g>
<!-- Node8 -->
<g id="Node000008" class="node">
<title>Node8</title>
<g id="a_Node000008"><a xlink:href="main_8c.html#a0ddf1224851353fc92bfbff6f499fa97" target="_top" xlink:title=" ">
<polygon fill="white" stroke="#666666" points="37,-77 0,-77 0,-57 37,-57 37,-77"/>
<text xml:space="preserve" text-anchor="middle" x="18.5" y="-63.5" font-family="Helvetica,sans-Serif" font-size="10.00">main</text>
</a>
</g>
</g>
<!-- Node5&#45;&gt;Node8 -->
<g id="edge9_Node000005_Node000008" class="edge">
<title>Node5&#45;&gt;Node8</title>
<g id="a_edge9_Node000005_Node000008"><a xlink:title=" ">
<path fill="none" stroke="#63b8ff" d="M316.02,-92.11C307.85,-89.73 299.2,-87.51 291,-86 196.67,-68.59 81.22,-66.84 37.46,-66.87"/>
<polygon fill="#63b8ff" stroke="#63b8ff" points="314.72,-95.38 325.31,-94.98 316.78,-88.69 314.72,-95.38"/>
</a>
</g>
</g>
<!-- Node7 -->
<g id="Node000007" class="node">
<title>Node7</title>
<g id="a_Node000007"><a xlink:href="map_8c.html#ad462ccdd50801fb085dc8134fc3765d1" target="_top" xlink:title="Affiche la carte et met a jour les elements visuels associes.">
<polygon fill="white" stroke="#666666" points="144.5,-115 73,-115 73,-95 144.5,-95 144.5,-115"/>
<text xml:space="preserve" text-anchor="middle" x="108.75" y="-101.5" font-family="Helvetica,sans-Serif" font-size="10.00">afficher_map</text>
</a>
</g>
</g>
<!-- Node6&#45;&gt;Node7 -->
<g id="edge6_Node000006_Node000007" class="edge">
<title>Node6&#45;&gt;Node7</title>
<g id="a_edge6_Node000006_Node000007"><a xlink:title=" ">
<path fill="none" stroke="#63b8ff" d="M169,-105C160.72,-105 152.51,-105 144.96,-105"/>
<polygon fill="#63b8ff" stroke="#63b8ff" points="168.77,-108.5 178.77,-105 168.77,-101.5 168.77,-108.5"/>
</a>
</g>
</g>
<!-- Node7&#45;&gt;Node4 -->
<g id="edge7_Node000007_Node000004" class="edge">
<title>Node7&#45;&gt;Node4</title>
<g id="a_edge7_Node000007_Node000004"><a xlink:title=" ">
<path fill="none" stroke="#63b8ff" d="M152.33,-118.36C161.53,-120.71 171.27,-122.78 180.5,-124 262.37,-134.8 358.21,-131.93 417.55,-128.37"/>
<polygon fill="#63b8ff" stroke="#63b8ff" points="153.47,-115.05 142.9,-115.81 151.64,-121.8 153.47,-115.05"/>
</a>
</g>
</g>
<!-- Node7&#45;&gt;Node8 -->
<g id="edge8_Node000007_Node000008" class="edge">
<title>Node7&#45;&gt;Node8</title>
<g id="a_edge8_Node000007_Node000008"><a xlink:title=" ">
<path fill="none" stroke="#63b8ff" d="M73.25,-90.14C61,-84.87 47.72,-79.15 37.43,-74.72"/>
<polygon fill="#63b8ff" stroke="#63b8ff" points="71.68,-93.28 82.25,-94.02 74.44,-86.85 71.68,-93.28"/>
</a>
</g>
</g>
<!-- Node9&#45;&gt;Node4 -->
<g id="edge11_Node000009_Node000004" class="edge">
<title>Node9&#45;&gt;Node4</title>
<g id="a_edge11_Node000009_Node000004"><a xlink:title=" ">
<path fill="none" stroke="#63b8ff" d="M574.53,-63.56C572.39,-64.7 570.28,-65.86 568.25,-67 540.87,-82.39 510.01,-101.96 491.86,-113.7"/>
<polygon fill="#63b8ff" stroke="#63b8ff" points="575.92,-66.78 583.17,-59.05 572.68,-60.57 575.92,-66.78"/>
</a>
</g>
</g>
<!-- Node10&#45;&gt;Node4 -->
<g id="edge13_Node000010_Node000004" class="edge">
<title>Node10&#45;&gt;Node4</title>
<g id="a_edge13_Node000010_Node000004"><a xlink:title=" ">
<path fill="none" stroke="#63b8ff" d="M556.32,-124C548.54,-124 540.44,-124 532.51,-124"/>
<polygon fill="#63b8ff" stroke="#63b8ff" points="556.31,-127.5 566.31,-124 556.31,-120.5 556.31,-127.5"/>
</a>
</g>
</g>
<!-- Node12 -->
<g id="Node000012" class="node">
<title>Node12</title>
<g id="a_Node000012"><a xlink:href="jeux_8c.html#a2d7491d04e8c2bdb52bb6ed7d75e4d78" target="_top" xlink:title="Execute la boucle principale de gameplay pour la planete courante.">
<polygon fill="white" stroke="#666666" points="510.12,-39 440.12,-39 440.12,-19 510.12,-19 510.12,-39"/>
<text xml:space="preserve" text-anchor="middle" x="475.12" y="-25.5" font-family="Helvetica,sans-Serif" font-size="10.00">jeu_principal</text>
</a>
</g>
</g>
<!-- Node11&#45;&gt;Node12 -->
<g id="edge15_Node000011_Node000012" class="edge">
<title>Node11&#45;&gt;Node12</title>
<g id="a_edge15_Node000011_Node000012"><a xlink:title=" ">
<path fill="none" stroke="#63b8ff" d="M574.82,-72.44C551.76,-62.29 520.69,-48.62 499.62,-39.34"/>
<polygon fill="#63b8ff" stroke="#63b8ff" points="573.16,-75.53 583.72,-76.36 575.98,-69.13 573.16,-75.53"/>
</a>
</g>
</g>
<!-- Node12&#45;&gt;Node8 -->
<g id="edge16_Node000012_Node000008" class="edge">
<title>Node12&#45;&gt;Node8</title>
<g id="a_edge16_Node000012_Node000008"><a xlink:title=" ">
<path fill="none" stroke="#63b8ff" d="M428.65,-32.8C330.48,-41.01 102.35,-60.08 37.18,-65.52"/>
<polygon fill="#63b8ff" stroke="#63b8ff" points="428.77,-36.3 438.45,-31.98 428.19,-29.33 428.77,-36.3"/>
</a>
</g>
</g>
<!-- Node13&#45;&gt;Node3 -->
<g id="edge18_Node000013_Node000003" class="edge">
<title>Node13&#45;&gt;Node3</title>
<g id="a_edge18_Node000013_Node000003"><a xlink:title=" ">
<path fill="none" stroke="#63b8ff" d="M685.81,-82.66C684.14,-83.7 682.53,-84.81 681,-86 657.3,-104.33 667.15,-122.82 645,-143 641.34,-146.33 636.99,-149.24 632.57,-151.7"/>
<polygon fill="#63b8ff" stroke="#63b8ff" points="687.29,-85.83 694.52,-78.1 684.04,-79.63 687.29,-85.83"/>
</a>
</g>
</g>
<!-- Node13&#45;&gt;Node9 -->
<g id="edge19_Node000013_Node000009" class="edge">
<title>Node13&#45;&gt;Node9</title>
<g id="a_edge19_Node000013_Node000009"><a xlink:title=" ">
<path fill="none" stroke="#63b8ff" d="M669.4,-56.83C661.14,-55.65 652.98,-54.48 645.43,-53.41"/>
<polygon fill="#63b8ff" stroke="#63b8ff" points="668.78,-60.28 679.17,-58.23 669.77,-53.35 668.78,-60.28"/>
</a>
</g>
</g>
<!-- Node13&#45;&gt;Node10 -->
<g id="edge20_Node000013_Node000010" class="edge">
<title>Node13&#45;&gt;Node10</title>
<g id="a_edge20_Node000013_Node000010"><a xlink:title=" ">
<path fill="none" stroke="#63b8ff" d="M693.6,-81.11C689.3,-82.67 685.05,-84.3 681,-86 664.32,-93 661.06,-96.68 645,-105 639.57,-107.81 633.68,-110.82 628.22,-113.6"/>
<polygon fill="#63b8ff" stroke="#63b8ff" points="694.51,-84.5 702.83,-77.94 692.23,-77.88 694.51,-84.5"/>
</a>
</g>
</g>
<!-- Node13&#45;&gt;Node11 -->
<g id="edge23_Node000013_Node000011" class="edge">
<title>Node13&#45;&gt;Node11</title>
<g id="a_edge23_Node000013_Node000011"><a xlink:title=" ">
<path fill="none" stroke="#63b8ff" d="M669.58,-77.14C654.35,-79.32 639.44,-81.45 628.07,-83.08"/>
<polygon fill="#63b8ff" stroke="#63b8ff" points="669.77,-80.65 679.17,-75.77 668.78,-73.72 669.77,-80.65"/>
</a>
</g>
</g>
<!-- Node14 -->
<g id="Node000014" class="node">
<title>Node14</title>
<g id="a_Node000014"><a xlink:href="arcade_8c.html#a9be93ac88e97809a94f0ae9b48152aa9" target="_top" xlink:title="Lance le mini&#45;jeu Mastermind utilise dans la progression.">
<polygon fill="white" stroke="#666666" points="640.12,-20 573.12,-20 573.12,0 640.12,0 640.12,-20"/>
<text xml:space="preserve" text-anchor="middle" x="606.62" y="-6.5" font-family="Helvetica,sans-Serif" font-size="10.00">mastermind</text>
</a>
</g>
</g>
<!-- Node13&#45;&gt;Node14 -->
<g id="edge21_Node000013_Node000014" class="edge">
<title>Node13&#45;&gt;Node14</title>
<g id="a_edge21_Node000013_Node000014"><a xlink:title=" ">
<path fill="none" stroke="#63b8ff" d="M705.66,-52.06C682.44,-42.09 652.49,-29.25 631.84,-20.39"/>
<polygon fill="#63b8ff" stroke="#63b8ff" points="704.17,-55.22 714.74,-55.95 706.93,-48.79 704.17,-55.22"/>
</a>
</g>
</g>
<!-- Node14&#45;&gt;Node12 -->
<g id="edge22_Node000014_Node000012" class="edge">
<title>Node14&#45;&gt;Node12</title>
<g id="a_edge22_Node000014_Node000012"><a xlink:title=" ">
<path fill="none" stroke="#63b8ff" d="M561.78,-16.43C545.09,-18.88 526.31,-21.64 510.61,-23.94"/>
<polygon fill="#63b8ff" stroke="#63b8ff" points="562.06,-19.93 571.45,-15.01 561.05,-13 562.06,-19.93"/>
</a>
</g>
</g>
</g>
</svg>

<g id="navigator" transform="translate(0 0)" fill="#404254">
  <rect fill="#f2f5e9" fill-opacity="0.5" stroke="#606060" stroke-width=".5" x="0" y="0" width="60" height="60"/>
  <use id="zoomplus" xlink:href="#zoomPlus" x="17" y="9" onmousedown="handleZoom(evt,'in')"/>
  <use id="zoomminus" xlink:href="#zoomMin" x="42" y="9" onmousedown="handleZoom(evt,'out')"/>
  <use id="reset" xlink:href="#resetDef" x="30" y="36" onmousedown="handleReset()"/>
   <use id="arrowup" xlink:href="#arrowUp" x="0" y="0" onmousedown="handlePan(0,-1)"/>
  <use id="arrowright" xlink:href="#arrowRight" x="0" y="0" onmousedown="handlePan(1,0)"/>
  <use id="arrowdown" xlink:href="#arrowDown" x="0" y="0" onmousedown="handlePan(0,1)"/>
  <use id="arrowleft" xlink:href="#arrowLeft" x="0" y="0" onmousedown="handlePan(-1,0)"/>
</g>
<svg viewBox="0 0 15 15" width="100%" height="30px" preserveAspectRatio="xMaxYMin meet">
 <g id="arrow_out" transform="scale(0.3 0.3)">
  <a xlink:href="arcade_8c_adcd100b7250411e655a98a61dace3f5a_icgraph_org.svg" target="_base">
   <rect id="button" ry="5" rx="5" y="6" x="6" height="38" width="38"
        fill="#f2f5e9" fill-opacity="0.5" stroke="#606060" stroke-width="1.0"/>
   <path id="arrow"
     d="M 11.500037,31.436501 C 11.940474,20.09759 22.043105,11.32322 32.158766,21.979434 L 37.068811,17.246167 C 37.068811,17.246167 37.088388,32 37.088388,32 L 22.160133,31.978069 C 22.160133,31.978069 26.997745,27.140456 26.997745,27.140456 C 18.528582,18.264221 13.291696,25.230495 11.500037,31.436501 z"
     style="fill:#404040;"/>
  </a>
 </g>
</svg>

<style type='text/css'>
<![CDATA[
[data-mouse-over-selected='false'] { opacity: 0.7; }
[data-mouse-over-selected='true']  { opacity: 1.0; }
]]>
</style>
<script type="application/ecmascript"><![CDATA[
document.addEventListener('DOMContentLoaded', (event) => {
  highlightEdges();
  highlightAdjacentNodes();
});
]]></script>
</svg>
