<?xml version="1.0" encoding="UTF-8" standalone="no"?>
<!DOCTYPE svg PUBLIC "-//W3C//DTD SVG 1.1//EN"
 "http://www.w3.org/Graphics/SVG/1.1/DTD/svg11.dtd">
<!-- Generated by graphviz version 14.1.4 (20260321.0153)
 -->
<!-- Title: minijeu_draw_text Pages: 1 -->
<svg width="385pt" height="66pt"
 viewBox="0.00 0.00 385.00 66.00" xmlns="http://www.w3.org/2000/svg" xmlns:xlink="http://www.w3.org/1999/xlink">

<svg id="main" version="1.1" xmlns="http://www.w3.org/2000/svg" xmlns:xlink="http://www.w3.org/1999/xlink" xml:space="preserve">

<style type="text/css"><![CDATA[
.node, .edge {opacity: 0.7;}
.node.selected, .edge.selected {opacity: 1;}
.edge:hover path { stroke: red; }
.edge:hover polygon { stroke: red; fill: red; }
]]></style>
<script type="application/ecmascript" xlink:href="svg.min.js"/>
<svg id="graph" class="graph">
<g id="graph0" class="graph" transform="scale(1 1) rotate(0) translate(4 62)">
<title>minijeu_draw_text</title>
<!-- Node1 -->
<g id="Node000001" class="node">
<title>Node1</title>
<g id="a_Node000001"><a xlink:title=" ">
<polygon fill="#999999" stroke="#666666" points="376.75,-39 282,-39 282,-19 376.75,-19 376.75,-39"/>
<text xml:space="preserve" text-anchor="middle" x="329.38" y="-25.5" font-family="Helvetica,sans-Serif" font-size="10.00">minijeu_draw_text</text>
</a>
</g>
</g>
<!-- Node2 -->
<g id="Node000002" class="node">
<title>Node2</title>
<g id="a_Node000002"><a xlink:href="arcade_8c.html#a9be93ac88e97809a94f0ae9b48152aa9" target="_top" xlink:title="Lance le mini&#45;jeu Mastermind utilise dans la progression.">
<polygon fill="white" stroke="#666666" points="246,-58 179,-58 179,-38 246,-38 246,-58"/>
<text xml:space="preserve" text-anchor="middle" x="212.5" y="-44.5" font-family="Helvetica,sans-Serif" font-size="10.00">mastermind</text>
</a>
</g>
</g>
<!-- Node1&#45;&gt;Node2 -->
<g id="edge1_Node000001_Node000002" class="edge">
<title>Node1&#45;&gt;Node2</title>
<g id="a_edge1_Node000001_Node000002"><a xlink:title=" ">
<path fill="none" stroke="#63b8ff" d="M270.47,-38.58C262.22,-39.94 253.99,-41.3 246.46,-42.55"/>
<polygon fill="#63b8ff" stroke="#63b8ff" points="270.86,-42.06 280.16,-36.98 269.72,-35.15 270.86,-42.06"/>
</a>
</g>
</g>
<!-- Node5 -->
<g id="Node000005" class="node">
<title>Node5</title>
<g id="a_Node000005"><a xlink:href="arcade_8c.html#a60b12154cf6385b2392e62c0fb9c4e8a" target="_top" xlink:title="Lance le mini&#45;jeu Simon utilise dans la progression.">
<polygon fill="white" stroke="#666666" points="233.62,-20 191.38,-20 191.38,0 233.62,0 233.62,-20"/>
<text xml:space="preserve" text-anchor="middle" x="212.5" y="-6.5" font-family="Helvetica,sans-Serif" font-size="10.00">simon</text>
</a>
</g>
</g>
<!-- Node1&#45;&gt;Node5 -->
<g id="edge4_Node000001_Node000005" class="edge">
<title>Node1&#45;&gt;Node5</title>
<g id="a_edge4_Node000001_Node000005"><a xlink:title=" ">
<path fill="none" stroke="#63b8ff" d="M270.61,-19.45C257.4,-17.26 244.21,-15.08 233.84,-13.36"/>
<polygon fill="#63b8ff" stroke="#63b8ff" points="269.72,-22.85 280.16,-21.02 270.86,-15.94 269.72,-22.85"/>
</a>
</g>
</g>
<!-- Node3 -->
<g id="Node000003" class="node">
<title>Node3</title>
<g id="a_Node000003"><a xlink:href="jeux_8c.html#a2d7491d04e8c2bdb52bb6ed7d75e4d78" target="_top" xlink:title="Execute la boucle principale de gameplay pour la planete courante.">
<polygon fill="white" stroke="#666666" points="143,-39 73,-39 73,-19 143,-19 143,-39"/>
<text xml:space="preserve" text-anchor="middle" x="108" y="-25.5" font-family="Helvetica,sans-Serif" font-size="10.00">jeu_principal</text>
</a>
</g>
</g>
<!-- Node2&#45;&gt;Node3 -->
<g id="edge2_Node000002_Node000003" class="edge">
<title>Node2&#45;&gt;Node3</title>
<g id="a_edge2_Node000002_Node000003"><a xlink:title=" ">
<path fill="none" stroke="#63b8ff" d="M167.38,-39.82C159.33,-38.33 151.05,-36.8 143.34,-35.37"/>
<polygon fill="#63b8ff" stroke="#63b8ff" points="166.55,-43.23 177.02,-41.61 167.82,-36.34 166.55,-43.23"/>
</a>
</g>
</g>
<!-- Node4 -->
<g id="Node000004" class="node">
<title>Node4</title>
<g id="a_Node000004"><a xlink:href="main_8c.html#a0ddf1224851353fc92bfbff6f499fa97" target="_top" xlink:title=" ">
<polygon fill="white" stroke="#666666" points="37,-39 0,-39 0,-19 37,-19 37,-39"/>
<text xml:space="preserve" text-anchor="middle" x="18.5" y="-25.5" font-family="Helvetica,sans-Serif" font-size="10.00">main</text>
</a>
</g>
</g>
<!-- Node3&#45;&gt;Node4 -->
<g id="edge3_Node000003_Node000004" class="edge">
<title>Node3&#45;&gt;Node4</title>
<g id="a_edge3_Node000003_Node000004"><a xlink:title=" ">
<path fill="none" stroke="#63b8ff" d="M61.18,-29C52.72,-29 44.36,-29 37.37,-29"/>
<polygon fill="#63b8ff" stroke="#63b8ff" points="61.16,-32.5 71.16,-29 61.16,-25.5 61.16,-32.5"/>
</a>
</g>
</g>
<!-- Node5&#45;&gt;Node3 -->
<g id="edge5_Node000005_Node000003" class="edge">
<title>Node5&#45;&gt;Node3</title>
<g id="a_edge5_Node000005_Node000003"><a xlink:title=" ">
<path fill="none" stroke="#63b8ff" d="M180.24,-15.79C168.57,-17.96 155.27,-20.42 143.34,-22.63"/>
<polygon fill="#63b8ff" stroke="#63b8ff" points="180.57,-19.29 189.76,-14.03 179.29,-12.41 180.57,-19.29"/>
</a>
</g>
</g>
</g>
</svg>
</svg>

<style type='text/css'>
<![CDATA[
[data-mouse-over-selected='false'] { opacity: 0.7; }
[data-mouse-over-selected='true']  { opacity: 1.0; }
]]>
</style>
<script type="application/ecmascript"><![CDATA[
document.addEventListener('DOMContentLoaded', (event) => {
  highlightEdges();
  highlightAdjacentNodes();
});
]]></script>
</svg>
