<?xml version="1.0" encoding="UTF-8" standalone="no"?>
<!DOCTYPE svg PUBLIC "-//W3C//DTD SVG 1.1//EN"
 "http://www.w3.org/Graphics/SVG/1.1/DTD/svg11.dtd">
<!-- Generated by graphviz version 14.1.4 (20260321.0153)
 -->
<!-- Title: declencher_animation_attaque Pages: 1 -->
<svg width="884pt" height="104pt"
 viewBox="0.00 0.00 884.00 104.00" xmlns="http://www.w3.org/2000/svg" xmlns:xlink="http://www.w3.org/1999/xlink">
<g id="graph0" class="graph" transform="scale(1 1) rotate(0) translate(4 100)">
<title>declencher_animation_attaque</title>
<!-- Node1 -->
<g id="Node000001" class="node">
<title>Node1</title>
<g id="a_Node000001"><a xlink:title=" ">
<polygon fill="#999999" stroke="#666666" points="875.5,-64 765,-64 765,-32 875.5,-32 875.5,-64"/>
<text xml:space="preserve" text-anchor="start" x="773" y="-50.5" font-family="Helvetica,sans-Serif" font-size="10.00">declencher_animation</text>
<text xml:space="preserve" text-anchor="middle" x="820.25" y="-38.5" font-family="Helvetica,sans-Serif" font-size="10.00">_attaque</text>
</a>
</g>
</g>
<!-- Node2 -->
<g id="Node000002" class="node">
<title>Node2</title>
<g id="a_Node000002"><a xlink:href="boss_8c.html#a15fd30a5ef8a97e7f493402eac74780f" target="_top" xlink:title=" ">
<polygon fill="white" stroke="#666666" points="729,-96 611.75,-96 611.75,-76 729,-76 729,-96"/>
<text xml:space="preserve" text-anchor="middle" x="670.38" y="-82.5" font-family="Helvetica,sans-Serif" font-size="10.00">attaque_demon_de_feu</text>
</a>
</g>
</g>
<!-- Node1&#45;&gt;Node2 -->
<g id="edge1_Node000001_Node000002" class="edge">
<title>Node1&#45;&gt;Node2</title>
<g id="a_edge1_Node000001_Node000002"><a xlink:title=" ">
<path fill="none" stroke="#63b8ff" d="M753.82,-64.81C739.57,-68.48 724.88,-72.25 711.93,-75.58"/>
<polygon fill="#63b8ff" stroke="#63b8ff" points="754.33,-68.3 763.14,-62.42 752.58,-61.52 754.33,-68.3"/>
</a>
</g>
</g>
<!-- Node8 -->
<g id="Node000008" class="node">
<title>Node8</title>
<g id="a_Node000008"><a xlink:href="boss_8c.html#ab86bd855c9b53c18f663cf494b2f68ad" target="_top" xlink:title=" ">
<polygon fill="white" stroke="#666666" points="718.5,-58 622.25,-58 622.25,-38 718.5,-38 718.5,-58"/>
<text xml:space="preserve" text-anchor="middle" x="670.38" y="-44.5" font-family="Helvetica,sans-Serif" font-size="10.00">attaque_minotaure</text>
</a>
</g>
</g>
<!-- Node1&#45;&gt;Node8 -->
<g id="edge7_Node000001_Node000008" class="edge">
<title>Node1&#45;&gt;Node8</title>
<g id="a_edge7_Node000001_Node000008"><a xlink:title=" ">
<path fill="none" stroke="#63b8ff" d="M753.21,-48C741.68,-48 729.89,-48 718.98,-48"/>
<polygon fill="#63b8ff" stroke="#63b8ff" points="753.09,-51.5 763.09,-48 753.09,-44.5 753.09,-51.5"/>
</a>
</g>
</g>
<!-- Node9 -->
<g id="Node000009" class="node">
<title>Node9</title>
<g id="a_Node000009"><a xlink:href="boss_8c.html#a0bffa7571e9e729458ce45d5dac46901" target="_top" xlink:title=" ">
<polygon fill="white" stroke="#666666" points="717.75,-20 623,-20 623,0 717.75,0 717.75,-20"/>
<text xml:space="preserve" text-anchor="middle" x="670.38" y="-6.5" font-family="Helvetica,sans-Serif" font-size="10.00">attaque_sentinelle</text>
</a>
</g>
</g>
<!-- Node1&#45;&gt;Node9 -->
<g id="edge9_Node000001_Node000009" class="edge">
<title>Node1&#45;&gt;Node9</title>
<g id="a_edge9_Node000001_Node000009"><a xlink:title=" ">
<path fill="none" stroke="#63b8ff" d="M753.82,-31.19C739.57,-27.52 724.88,-23.75 711.93,-20.42"/>
<polygon fill="#63b8ff" stroke="#63b8ff" points="752.58,-34.48 763.14,-33.58 754.33,-27.7 752.58,-34.48"/>
</a>
</g>
</g>
<!-- Node3 -->
<g id="Node000003" class="node">
<title>Node3</title>
<g id="a_Node000003"><a xlink:href="boss_8c.html#a5f817e3b267c2b327de8c2d9251477f4" target="_top" xlink:title=" ">
<polygon fill="white" stroke="#666666" points="575.75,-58 427,-58 427,-38 575.75,-38 575.75,-58"/>
<text xml:space="preserve" text-anchor="middle" x="501.38" y="-44.5" font-family="Helvetica,sans-Serif" font-size="10.00">obtenir_fonction_attaque_boss</text>
</a>
</g>
</g>
<!-- Node2&#45;&gt;Node3 -->
<g id="edge2_Node000002_Node000003" class="edge">
<title>Node2&#45;&gt;Node3</title>
<g id="a_edge2_Node000002_Node000003"><a xlink:title=" ">
<path fill="none" stroke="#63b8ff" d="M612.31,-73.02C591.43,-68.26 568.09,-62.95 548.3,-58.45"/>
<polygon fill="#63b8ff" stroke="#63b8ff" points="611.3,-76.37 621.82,-75.18 612.85,-69.55 611.3,-76.37"/>
</a>
</g>
</g>
<!-- Node4 -->
<g id="Node000004" class="node">
<title>Node4</title>
<g id="a_Node000004"><a xlink:href="boss_8c.html#aea78d389dc05993b72aebb218a4768de" target="_top" xlink:title="Execute la logique d&#39;attaque du boss en tenant compte des cooldowns et de la phase active.">
<polygon fill="white" stroke="#666666" points="391,-58 316.5,-58 316.5,-38 391,-38 391,-58"/>
<text xml:space="preserve" text-anchor="middle" x="353.75" y="-44.5" font-family="Helvetica,sans-Serif" font-size="10.00">boss_attaque</text>
</a>
</g>
</g>
<!-- Node3&#45;&gt;Node4 -->
<g id="edge3_Node000003_Node000004" class="edge">
<title>Node3&#45;&gt;Node4</title>
<g id="a_edge3_Node000003_Node000004"><a xlink:title=" ">
<path fill="none" stroke="#63b8ff" d="M415.25,-48C406.92,-48 398.81,-48 391.38,-48"/>
<polygon fill="#63b8ff" stroke="#63b8ff" points="415.2,-51.5 425.2,-48 415.2,-44.5 415.2,-51.5"/>
</a>
</g>
</g>
<!-- Node5 -->
<g id="Node000005" class="node">
<title>Node5</title>
<g id="a_Node000005"><a xlink:href="boss_8c.html#abbb99b844a32a59c50228b7d6dcb888b" target="_top" xlink:title="Met a jour boss en fonction de l&#39;etat courant du jeu.">
<polygon fill="white" stroke="#666666" points="280.5,-58 179,-58 179,-38 280.5,-38 280.5,-58"/>
<text xml:space="preserve" text-anchor="middle" x="229.75" y="-44.5" font-family="Helvetica,sans-Serif" font-size="10.00">mettre_a_jour_boss</text>
</a>
</g>
</g>
<!-- Node4&#45;&gt;Node5 -->
<g id="edge4_Node000004_Node000005" class="edge">
<title>Node4&#45;&gt;Node5</title>
<g id="a_edge4_Node000004_Node000005"><a xlink:title=" ">
<path fill="none" stroke="#63b8ff" d="M304.88,-48C296.99,-48 288.8,-48 280.86,-48"/>
<polygon fill="#63b8ff" stroke="#63b8ff" points="304.63,-51.5 314.63,-48 304.63,-44.5 304.63,-51.5"/>
</a>
</g>
</g>
<!-- Node6 -->
<g id="Node000006" class="node">
<title>Node6</title>
<g id="a_Node000006"><a xlink:href="jeux_8c.html#a2d7491d04e8c2bdb52bb6ed7d75e4d78" target="_top" xlink:title="Execute la boucle principale de gameplay pour la planete courante.">
<polygon fill="white" stroke="#666666" points="143,-58 73,-58 73,-38 143,-38 143,-58"/>
<text xml:space="preserve" text-anchor="middle" x="108" y="-44.5" font-family="Helvetica,sans-Serif" font-size="10.00">jeu_principal</text>
</a>
</g>
</g>
<!-- Node5&#45;&gt;Node6 -->
<g id="edge5_Node000005_Node000006" class="edge">
<title>Node5&#45;&gt;Node6</title>
<g id="a_edge5_Node000005_Node000006"><a xlink:title=" ">
<path fill="none" stroke="#63b8ff" d="M167.39,-48C159.09,-48 150.84,-48 143.26,-48"/>
<polygon fill="#63b8ff" stroke="#63b8ff" points="167.15,-51.5 177.15,-48 167.15,-44.5 167.15,-51.5"/>
</a>
</g>
</g>
<!-- Node7 -->
<g id="Node000007" class="node">
<title>Node7</title>
<g id="a_Node000007"><a xlink:href="main_8c.html#a0ddf1224851353fc92bfbff6f499fa97" target="_top" xlink:title=" ">
<polygon fill="white" stroke="#666666" points="37,-58 0,-58 0,-38 37,-38 37,-58"/>
<text xml:space="preserve" text-anchor="middle" x="18.5" y="-44.5" font-family="Helvetica,sans-Serif" font-size="10.00">main</text>
</a>
</g>
</g>
<!-- Node6&#45;&gt;Node7 -->
<g id="edge6_Node000006_Node000007" class="edge">
<title>Node6&#45;&gt;Node7</title>
<g id="a_edge6_Node000006_Node000007"><a xlink:title=" ">
<path fill="none" stroke="#63b8ff" d="M61.18,-48C52.72,-48 44.36,-48 37.37,-48"/>
<polygon fill="#63b8ff" stroke="#63b8ff" points="61.16,-51.5 71.16,-48 61.16,-44.5 61.16,-51.5"/>
</a>
</g>
</g>
<!-- Node8&#45;&gt;Node3 -->
<g id="edge8_Node000008_Node000003" class="edge">
<title>Node8&#45;&gt;Node3</title>
<g id="a_edge8_Node000008_Node000003"><a xlink:title=" ">
<path fill="none" stroke="#63b8ff" d="M610.62,-48C599.47,-48 587.67,-48 576.12,-48"/>
<polygon fill="#63b8ff" stroke="#63b8ff" points="610.45,-51.5 620.45,-48 610.45,-44.5 610.45,-51.5"/>
</a>
</g>
</g>
<!-- Node9&#45;&gt;Node3 -->
<g id="edge10_Node000009_Node000003" class="edge">
<title>Node9&#45;&gt;Node3</title>
<g id="a_edge10_Node000009_Node000003"><a xlink:title=" ">
<path fill="none" stroke="#63b8ff" d="M612.31,-22.98C591.43,-27.74 568.09,-33.05 548.3,-37.55"/>
<polygon fill="#63b8ff" stroke="#63b8ff" points="612.85,-26.45 621.82,-20.82 611.3,-19.63 612.85,-26.45"/>
</a>
</g>
</g>
</g>
</svg>
