<?xml version="1.0" encoding="UTF-8" standalone="no"?>
<!DOCTYPE svg PUBLIC "-//W3C//DTD SVG 1.1//EN"
 "http://www.w3.org/Graphics/SVG/1.1/DTD/svg11.dtd">
<!-- Generated by graphviz version 14.1.4 (20260321.0153)
 -->
<!-- Title: get_player_world_center Pages: 1 -->
<svg width="370pt" height="66pt"
 viewBox="0.00 0.00 370.00 66.00" xmlns="http://www.w3.org/2000/svg" xmlns:xlink="http://www.w3.org/1999/xlink">
<g id="graph0" class="graph" transform="scale(1 1) rotate(0) translate(4 62)">
<title>get_player_world_center</title>
<!-- Node1 -->
<g id="Node000001" class="node">
<title>Node1</title>
<g id="a_Node000001"><a xlink:title=" ">
<polygon fill="#999999" stroke="#666666" points="121.75,-39 0,-39 0,-19 121.75,-19 121.75,-39"/>
<text xml:space="preserve" text-anchor="middle" x="60.88" y="-25.5" font-family="Helvetica,sans-Serif" font-size="10.00">get_player_world_center</text>
</a>
</g>
</g>
<!-- Node2 -->
<g id="Node000002" class="node">
<title>Node2</title>
<g id="a_Node000002"><a xlink:href="main_8h.html#a6c672075bc554c92548a916c9501bdb5" target="_top" xlink:title=" ">
<polygon fill="white" stroke="#666666" points="245.75,-58 157.75,-58 157.75,-38 245.75,-38 245.75,-58"/>
<text xml:space="preserve" text-anchor="middle" x="201.75" y="-44.5" font-family="Helvetica,sans-Serif" font-size="10.00">screen_center_x</text>
</a>
</g>
</g>
<!-- Node1&#45;&gt;Node2 -->
<g id="edge1_Node000001_Node000002" class="edge">
<title>Node1&#45;&gt;Node2</title>
<g id="a_edge1_Node000001_Node000002"><a xlink:title=" ">
<path fill="none" stroke="#63b8ff" d="M121.98,-37.22C129.96,-38.31 138.11,-39.43 145.99,-40.51"/>
<polygon fill="#63b8ff" stroke="#63b8ff" points="145.41,-43.96 155.8,-41.85 146.36,-37.03 145.41,-43.96"/>
</a>
</g>
</g>
<!-- Node4 -->
<g id="Node000004" class="node">
<title>Node4</title>
<g id="a_Node000004"><a xlink:href="main_8h.html#a6456affd0d0a21e911b531a5ba25676d" target="_top" xlink:title=" ">
<polygon fill="white" stroke="#666666" points="245.75,-20 157.75,-20 157.75,0 245.75,0 245.75,-20"/>
<text xml:space="preserve" text-anchor="middle" x="201.75" y="-6.5" font-family="Helvetica,sans-Serif" font-size="10.00">screen_center_y</text>
</a>
</g>
</g>
<!-- Node1&#45;&gt;Node4 -->
<g id="edge3_Node000001_Node000004" class="edge">
<title>Node1&#45;&gt;Node4</title>
<g id="a_edge3_Node000001_Node000004"><a xlink:title=" ">
<path fill="none" stroke="#63b8ff" d="M121.98,-20.78C129.96,-19.69 138.11,-18.57 145.99,-17.49"/>
<polygon fill="#63b8ff" stroke="#63b8ff" points="146.36,-20.97 155.8,-16.15 145.41,-14.04 146.36,-20.97"/>
</a>
</g>
</g>
<!-- Node3 -->
<g id="Node000003" class="node">
<title>Node3</title>
<g id="a_Node000003"><a xlink:href="main_8h.html#aaaa1e9fcb86ff8e60b297faa7815ad1d" target="_top" xlink:title=" ">
<polygon fill="white" stroke="#666666" points="360,-58 283.25,-58 283.25,-38 360,-38 360,-58"/>
<text xml:space="preserve" text-anchor="middle" x="321.62" y="-44.5" font-family="Helvetica,sans-Serif" font-size="10.00">screen_widthf</text>
</a>
</g>
</g>
<!-- Node2&#45;&gt;Node3 -->
<g id="edge2_Node000002_Node000003" class="edge">
<title>Node2&#45;&gt;Node3</title>
<g id="a_edge2_Node000002_Node000003"><a xlink:title=" ">
<path fill="none" stroke="#63b8ff" d="M245.97,-48C254.28,-48 263.05,-48 271.53,-48"/>
<polygon fill="#63b8ff" stroke="#63b8ff" points="271.34,-51.5 281.34,-48 271.34,-44.5 271.34,-51.5"/>
</a>
</g>
</g>
<!-- Node5 -->
<g id="Node000005" class="node">
<title>Node5</title>
<g id="a_Node000005"><a xlink:href="main_8h.html#a9b4aefc63ea00e60ec88da19e24e8236" target="_top" xlink:title=" ">
<polygon fill="white" stroke="#666666" points="361.5,-20 281.75,-20 281.75,0 361.5,0 361.5,-20"/>
<text xml:space="preserve" text-anchor="middle" x="321.62" y="-6.5" font-family="Helvetica,sans-Serif" font-size="10.00">screen_heightf</text>
</a>
</g>
</g>
<!-- Node4&#45;&gt;Node5 -->
<g id="edge4_Node000004_Node000005" class="edge">
<title>Node4&#45;&gt;Node5</title>
<g id="a_edge4_Node000004_Node000005"><a xlink:title=" ">
<path fill="none" stroke="#63b8ff" d="M245.97,-10C253.74,-10 261.91,-10 269.87,-10"/>
<polygon fill="#63b8ff" stroke="#63b8ff" points="269.8,-13.5 279.8,-10 269.8,-6.5 269.8,-13.5"/>
</a>
</g>
</g>
</g>
</svg>
