<?xml version="1.0" encoding="UTF-8" standalone="no"?>
<!DOCTYPE svg PUBLIC "-//W3C//DTD SVG 1.1//EN"
 "http://www.w3.org/Graphics/SVG/1.1/DTD/svg11.dtd">
<!-- Generated by graphviz version 14.1.4 (20260321.0153)
 -->
<!-- Title: joueur_dans_zone_agro Pages: 1 -->
<svg width="525pt" height="85pt"
 viewBox="0.00 0.00 525.00 85.00" xmlns="http://www.w3.org/2000/svg" xmlns:xlink="http://www.w3.org/1999/xlink">
<g id="graph0" class="graph" transform="scale(1 1) rotate(0) translate(4 81)">
<title>joueur_dans_zone_agro</title>
<!-- Node1 -->
<g id="Node000001" class="node">
<title>Node1</title>
<g id="a_Node000001"><a xlink:title=" ">
<polygon fill="#999999" stroke="#666666" points="118.75,-58 0,-58 0,-38 118.75,-38 118.75,-58"/>
<text xml:space="preserve" text-anchor="middle" x="59.38" y="-44.5" font-family="Helvetica,sans-Serif" font-size="10.00">joueur_dans_zone_agro</text>
</a>
</g>
</g>
<!-- Node2 -->
<g id="Node000002" class="node">
<title>Node2</title>
<g id="a_Node000002"><a xlink:href="boss_8c.html#afb0b61469efd6dce1e15a516cb9e4115" target="_top" xlink:title=" ">
<polygon fill="white" stroke="#666666" points="277.25,-77 154.75,-77 154.75,-57 277.25,-57 277.25,-77"/>
<text xml:space="preserve" text-anchor="middle" x="216" y="-63.5" font-family="Helvetica,sans-Serif" font-size="10.00">get_boss_centre_monde</text>
</a>
</g>
</g>
<!-- Node1&#45;&gt;Node2 -->
<g id="edge1_Node000001_Node000002" class="edge">
<title>Node1&#45;&gt;Node2</title>
<g id="a_edge1_Node000001_Node000002"><a xlink:title=" ">
<path fill="none" stroke="#63b8ff" d="M118.83,-55.18C126.74,-56.15 134.92,-57.16 143.03,-58.16"/>
<polygon fill="#63b8ff" stroke="#63b8ff" points="142.55,-61.62 152.9,-59.37 143.4,-54.68 142.55,-61.62"/>
</a>
</g>
</g>
<!-- Node3 -->
<g id="Node000003" class="node">
<title>Node3</title>
<g id="a_Node000003"><a xlink:href="boss_8c.html#a1d5fd526db9bbc3f5b70491cfc645818" target="_top" xlink:title=" ">
<polygon fill="white" stroke="#666666" points="276.88,-39 155.12,-39 155.12,-19 276.88,-19 276.88,-39"/>
<text xml:space="preserve" text-anchor="middle" x="216" y="-25.5" font-family="Helvetica,sans-Serif" font-size="10.00">get_player_world_center</text>
</a>
</g>
</g>
<!-- Node1&#45;&gt;Node3 -->
<g id="edge2_Node000001_Node000003" class="edge">
<title>Node1&#45;&gt;Node3</title>
<g id="a_edge2_Node000001_Node000003"><a xlink:title=" ">
<path fill="none" stroke="#63b8ff" d="M118.83,-40.82C126.89,-39.83 135.23,-38.8 143.49,-37.79"/>
<polygon fill="#63b8ff" stroke="#63b8ff" points="143.66,-41.29 153.16,-36.6 142.8,-34.34 143.66,-41.29"/>
</a>
</g>
</g>
<!-- Node4 -->
<g id="Node000004" class="node">
<title>Node4</title>
<g id="a_Node000004"><a xlink:href="main_8h.html#a6c672075bc554c92548a916c9501bdb5" target="_top" xlink:title=" ">
<polygon fill="white" stroke="#666666" points="401.25,-58 313.25,-58 313.25,-38 401.25,-38 401.25,-58"/>
<text xml:space="preserve" text-anchor="middle" x="357.25" y="-44.5" font-family="Helvetica,sans-Serif" font-size="10.00">screen_center_x</text>
</a>
</g>
</g>
<!-- Node3&#45;&gt;Node4 -->
<g id="edge3_Node000003_Node000004" class="edge">
<title>Node3&#45;&gt;Node4</title>
<g id="a_edge3_Node000003_Node000004"><a xlink:title=" ">
<path fill="none" stroke="#63b8ff" d="M277.27,-37.22C285.46,-38.34 293.83,-39.48 301.91,-40.59"/>
<polygon fill="#63b8ff" stroke="#63b8ff" points="301.21,-44.02 311.59,-41.91 302.16,-37.09 301.21,-44.02"/>
</a>
</g>
</g>
<!-- Node6 -->
<g id="Node000006" class="node">
<title>Node6</title>
<g id="a_Node000006"><a xlink:href="main_8h.html#a6456affd0d0a21e911b531a5ba25676d" target="_top" xlink:title=" ">
<polygon fill="white" stroke="#666666" points="401.25,-20 313.25,-20 313.25,0 401.25,0 401.25,-20"/>
<text xml:space="preserve" text-anchor="middle" x="357.25" y="-6.5" font-family="Helvetica,sans-Serif" font-size="10.00">screen_center_y</text>
</a>
</g>
</g>
<!-- Node3&#45;&gt;Node6 -->
<g id="edge5_Node000003_Node000006" class="edge">
<title>Node3&#45;&gt;Node6</title>
<g id="a_edge5_Node000003_Node000006"><a xlink:title=" ">
<path fill="none" stroke="#63b8ff" d="M277.27,-20.78C285.46,-19.66 293.83,-18.52 301.91,-17.41"/>
<polygon fill="#63b8ff" stroke="#63b8ff" points="302.16,-20.91 311.59,-16.09 301.21,-13.98 302.16,-20.91"/>
</a>
</g>
</g>
<!-- Node5 -->
<g id="Node000005" class="node">
<title>Node5</title>
<g id="a_Node000005"><a xlink:href="main_8h.html#aaaa1e9fcb86ff8e60b297faa7815ad1d" target="_top" xlink:title=" ">
<polygon fill="white" stroke="#666666" points="515.5,-58 438.75,-58 438.75,-38 515.5,-38 515.5,-58"/>
<text xml:space="preserve" text-anchor="middle" x="477.12" y="-44.5" font-family="Helvetica,sans-Serif" font-size="10.00">screen_widthf</text>
</a>
</g>
</g>
<!-- Node4&#45;&gt;Node5 -->
<g id="edge4_Node000004_Node000005" class="edge">
<title>Node4&#45;&gt;Node5</title>
<g id="a_edge4_Node000004_Node000005"><a xlink:title=" ">
<path fill="none" stroke="#63b8ff" d="M401.47,-48C409.78,-48 418.55,-48 427.03,-48"/>
<polygon fill="#63b8ff" stroke="#63b8ff" points="426.84,-51.5 436.84,-48 426.84,-44.5 426.84,-51.5"/>
</a>
</g>
</g>
<!-- Node7 -->
<g id="Node000007" class="node">
<title>Node7</title>
<g id="a_Node000007"><a xlink:href="main_8h.html#a9b4aefc63ea00e60ec88da19e24e8236" target="_top" xlink:title=" ">
<polygon fill="white" stroke="#666666" points="517,-20 437.25,-20 437.25,0 517,0 517,-20"/>
<text xml:space="preserve" text-anchor="middle" x="477.12" y="-6.5" font-family="Helvetica,sans-Serif" font-size="10.00">screen_heightf</text>
</a>
</g>
</g>
<!-- Node6&#45;&gt;Node7 -->
<g id="edge6_Node000006_Node000007" class="edge">
<title>Node6&#45;&gt;Node7</title>
<g id="a_edge6_Node000006_Node000007"><a xlink:title=" ">
<path fill="none" stroke="#63b8ff" d="M401.47,-10C409.24,-10 417.41,-10 425.37,-10"/>
<polygon fill="#63b8ff" stroke="#63b8ff" points="425.3,-13.5 435.3,-10 425.3,-6.5 425.3,-13.5"/>
</a>
</g>
</g>
</g>
</svg>
