<?xml version="1.0" encoding="UTF-8" standalone="no"?>
<!DOCTYPE svg PUBLIC "-//W3C//DTD SVG 1.1//EN"
 "http://www.w3.org/Graphics/SVG/1.1/DTD/svg11.dtd">
<!-- Generated by graphviz version 14.1.4 (20260321.0153)
 -->
<!-- Title: supprimer_minions_boss Pages: 1 -->
<svg width="590pt" height="104pt"
 viewBox="0.00 0.00 590.00 104.00" xmlns="http://www.w3.org/2000/svg" xmlns:xlink="http://www.w3.org/1999/xlink">
<g id="graph0" class="graph" transform="scale(1 1) rotate(0) translate(4 100)">
<title>supprimer_minions_boss</title>
<!-- Node1 -->
<g id="Node000001" class="node">
<title>Node1</title>
<g id="a_Node000001"><a xlink:title=" ">
<polygon fill="#999999" stroke="#666666" points="581.75,-58 457.75,-58 457.75,-38 581.75,-38 581.75,-58"/>
<text xml:space="preserve" text-anchor="middle" x="519.75" y="-44.5" font-family="Helvetica,sans-Serif" font-size="10.00">supprimer_minions_boss</text>
</a>
</g>
</g>
<!-- Node2 -->
<g id="Node000002" class="node">
<title>Node2</title>
<g id="a_Node000002"><a xlink:href="boss_8c.html#a236f706845850941c512c45d6e52d55b" target="_top" xlink:title="Libere boss et nettoie les ressources associees.">
<polygon fill="white" stroke="#666666" points="406.38,-96 331.88,-96 331.88,-76 406.38,-76 406.38,-96"/>
<text xml:space="preserve" text-anchor="middle" x="369.12" y="-82.5" font-family="Helvetica,sans-Serif" font-size="10.00">detruire_boss</text>
</a>
</g>
</g>
<!-- Node1&#45;&gt;Node2 -->
<g id="edge1_Node000001_Node000002" class="edge">
<title>Node1&#45;&gt;Node2</title>
<g id="a_edge1_Node000001_Node000002"><a xlink:title=" ">
<path fill="none" stroke="#63b8ff" d="M466.67,-61.32C446.78,-66.4 424.55,-72.09 406.44,-76.72"/>
<polygon fill="#63b8ff" stroke="#63b8ff" points="467.46,-64.73 476.28,-58.86 465.72,-57.95 467.46,-64.73"/>
</a>
</g>
</g>
<!-- Node5 -->
<g id="Node000005" class="node">
<title>Node5</title>
<g id="a_Node000005"><a xlink:href="boss_8c.html#abbb99b844a32a59c50228b7d6dcb888b" target="_top" xlink:title="Met a jour boss en fonction de l&#39;etat courant du jeu.">
<polygon fill="white" stroke="#666666" points="280.5,-58 179,-58 179,-38 280.5,-38 280.5,-58"/>
<text xml:space="preserve" text-anchor="middle" x="229.75" y="-44.5" font-family="Helvetica,sans-Serif" font-size="10.00">mettre_a_jour_boss</text>
</a>
</g>
</g>
<!-- Node1&#45;&gt;Node5 -->
<g id="edge4_Node000001_Node000005" class="edge">
<title>Node1&#45;&gt;Node5</title>
<g id="a_edge4_Node000001_Node000005"><a xlink:title=" ">
<path fill="none" stroke="#63b8ff" d="M445.89,-48C394.2,-48 326.19,-48 280.6,-48"/>
<polygon fill="#63b8ff" stroke="#63b8ff" points="445.81,-51.5 455.81,-48 445.81,-44.5 445.81,-51.5"/>
</a>
</g>
</g>
<!-- Node6 -->
<g id="Node000006" class="node">
<title>Node6</title>
<g id="a_Node000006"><a xlink:href="boss_8c.html#a6ebb70c1cce9efe2e97dfee86382e964" target="_top" xlink:title="Reinitialise boss for retry pour repartir d&#39;un etat propre.">
<polygon fill="white" stroke="#666666" points="421.75,-20 316.5,-20 316.5,0 421.75,0 421.75,-20"/>
<text xml:space="preserve" text-anchor="middle" x="369.12" y="-6.5" font-family="Helvetica,sans-Serif" font-size="10.00">reset_boss_for_retry</text>
</a>
</g>
</g>
<!-- Node1&#45;&gt;Node6 -->
<g id="edge6_Node000001_Node000006" class="edge">
<title>Node1&#45;&gt;Node6</title>
<g id="a_edge6_Node000001_Node000006"><a xlink:title=" ">
<path fill="none" stroke="#63b8ff" d="M466.68,-34.69C448.43,-30.02 428.2,-24.85 411,-20.45"/>
<polygon fill="#63b8ff" stroke="#63b8ff" points="465.72,-38.05 476.28,-37.14 467.46,-31.27 465.72,-38.05"/>
</a>
</g>
</g>
<!-- Node3 -->
<g id="Node000003" class="node">
<title>Node3</title>
<g id="a_Node000003"><a xlink:href="jeux_8c.html#a2d7491d04e8c2bdb52bb6ed7d75e4d78" target="_top" xlink:title="Execute la boucle principale de gameplay pour la planete courante.">
<polygon fill="white" stroke="#666666" points="143,-58 73,-58 73,-38 143,-38 143,-58"/>
<text xml:space="preserve" text-anchor="middle" x="108" y="-44.5" font-family="Helvetica,sans-Serif" font-size="10.00">jeu_principal</text>
</a>
</g>
</g>
<!-- Node2&#45;&gt;Node3 -->
<g id="edge2_Node000002_Node000003" class="edge">
<title>Node2&#45;&gt;Node3</title>
<g id="a_edge2_Node000002_Node000003"><a xlink:title=" ">
<path fill="none" stroke="#63b8ff" d="M320.26,-83.38C281.84,-80.75 226.64,-75.8 179,-67 167.11,-64.81 154.3,-61.58 142.92,-58.42"/>
<polygon fill="#63b8ff" stroke="#63b8ff" points="319.9,-86.86 330.11,-84.02 320.36,-79.88 319.9,-86.86"/>
</a>
</g>
</g>
<!-- Node4 -->
<g id="Node000004" class="node">
<title>Node4</title>
<g id="a_Node000004"><a xlink:href="main_8c.html#a0ddf1224851353fc92bfbff6f499fa97" target="_top" xlink:title=" ">
<polygon fill="white" stroke="#666666" points="37,-58 0,-58 0,-38 37,-38 37,-58"/>
<text xml:space="preserve" text-anchor="middle" x="18.5" y="-44.5" font-family="Helvetica,sans-Serif" font-size="10.00">main</text>
</a>
</g>
</g>
<!-- Node3&#45;&gt;Node4 -->
<g id="edge3_Node000003_Node000004" class="edge">
<title>Node3&#45;&gt;Node4</title>
<g id="a_edge3_Node000003_Node000004"><a xlink:title=" ">
<path fill="none" stroke="#63b8ff" d="M61.18,-48C52.72,-48 44.36,-48 37.37,-48"/>
<polygon fill="#63b8ff" stroke="#63b8ff" points="61.16,-51.5 71.16,-48 61.16,-44.5 61.16,-51.5"/>
</a>
</g>
</g>
<!-- Node5&#45;&gt;Node3 -->
<g id="edge5_Node000005_Node000003" class="edge">
<title>Node5&#45;&gt;Node3</title>
<g id="a_edge5_Node000005_Node000003"><a xlink:title=" ">
<path fill="none" stroke="#63b8ff" d="M167.39,-48C159.09,-48 150.84,-48 143.26,-48"/>
<polygon fill="#63b8ff" stroke="#63b8ff" points="167.15,-51.5 177.15,-48 167.15,-44.5 167.15,-51.5"/>
</a>
</g>
</g>
<!-- Node7 -->
<g id="Node000007" class="node">
<title>Node7</title>
<g id="a_Node000007"><a xlink:href="game__over_8c.html#a37d3fac8300008a434af7c66a4e695d0" target="_top" xlink:title="Affiche l&#39;ecran de game over et traite le choix du joueur.">
<polygon fill="white" stroke="#666666" points="261.75,-20 197.75,-20 197.75,0 261.75,0 261.75,-20"/>
<text xml:space="preserve" text-anchor="middle" x="229.75" y="-6.5" font-family="Helvetica,sans-Serif" font-size="10.00">game_over</text>
</a>
</g>
</g>
<!-- Node6&#45;&gt;Node7 -->
<g id="edge7_Node000006_Node000007" class="edge">
<title>Node6&#45;&gt;Node7</title>
<g id="a_edge7_Node000006_Node000007"><a xlink:title=" ">
<path fill="none" stroke="#63b8ff" d="M304.92,-10C290.03,-10 274.79,-10 262.03,-10"/>
<polygon fill="#63b8ff" stroke="#63b8ff" points="304.68,-13.5 314.68,-10 304.68,-6.5 304.68,-13.5"/>
</a>
</g>
</g>
<!-- Node7&#45;&gt;Node3 -->
<g id="edge8_Node000007_Node000003" class="edge">
<title>Node7&#45;&gt;Node3</title>
<g id="a_edge8_Node000007_Node000003"><a xlink:title=" ">
<path fill="none" stroke="#63b8ff" d="M186.47,-23.42C171.85,-28.06 155.69,-33.19 141.93,-37.55"/>
<polygon fill="#63b8ff" stroke="#63b8ff" points="187.37,-26.8 195.84,-20.44 185.25,-20.13 187.37,-26.8"/>
</a>
</g>
</g>
</g>
</svg>
