<?xml version="1.0" encoding="UTF-8" standalone="no"?>
<!DOCTYPE svg PUBLIC "-//W3C//DTD SVG 1.1//EN"
 "http://www.w3.org/Graphics/SVG/1.1/DTD/svg11.dtd">
<!-- Generated by graphviz version 14.1.4 (20260321.0153)
 -->
<!-- Title: reset_boss_for_retry Pages: 1 -->
<svg width="397pt" height="66pt"
 viewBox="0.00 0.00 397.00 66.00" xmlns="http://www.w3.org/2000/svg" xmlns:xlink="http://www.w3.org/1999/xlink">
<g id="graph0" class="graph" transform="scale(1 1) rotate(0) translate(4 62)">
<title>reset_boss_for_retry</title>
<!-- Node1 -->
<g id="Node000001" class="node">
<title>Node1</title>
<g id="a_Node000001"><a xlink:title="Reinitialise boss for retry pour repartir d&#39;un etat propre.">
<polygon fill="#999999" stroke="#666666" points="105.25,-39 0,-39 0,-19 105.25,-19 105.25,-39"/>
<text xml:space="preserve" text-anchor="middle" x="52.62" y="-25.5" font-family="Helvetica,sans-Serif" font-size="10.00">reset_boss_for_retry</text>
</a>
</g>
</g>
<!-- Node2 -->
<g id="Node000002" class="node">
<title>Node2</title>
<g id="a_Node000002"><a xlink:href="boss_8c.html#aa99c5bb57c45ca96ac8cbc9178113ded" target="_top" xlink:title=" ">
<polygon fill="white" stroke="#666666" points="246.5,-58 160,-58 160,-38 246.5,-38 246.5,-58"/>
<text xml:space="preserve" text-anchor="middle" x="203.25" y="-44.5" font-family="Helvetica,sans-Serif" font-size="10.00">clear_projectiles</text>
</a>
</g>
</g>
<!-- Node1&#45;&gt;Node2 -->
<g id="edge1_Node000001_Node000002" class="edge">
<title>Node1&#45;&gt;Node2</title>
<g id="a_edge1_Node000001_Node000002"><a xlink:title=" ">
<path fill="none" stroke="#63b8ff" d="M105.61,-35.65C119.61,-37.44 134.78,-39.37 148.86,-41.17"/>
<polygon fill="#63b8ff" stroke="#63b8ff" points="148.01,-44.59 158.37,-42.39 148.89,-37.65 148.01,-44.59"/>
</a>
</g>
</g>
<!-- Node3 -->
<g id="Node000003" class="node">
<title>Node3</title>
<g id="a_Node000003"><a xlink:href="boss_8c.html#a06fdb2e8e1170b4f3dbdea1b5d3ee5e9" target="_top" xlink:title=" ">
<polygon fill="white" stroke="#666666" points="265.25,-20 141.25,-20 141.25,0 265.25,0 265.25,-20"/>
<text xml:space="preserve" text-anchor="middle" x="203.25" y="-6.5" font-family="Helvetica,sans-Serif" font-size="10.00">supprimer_minions_boss</text>
</a>
</g>
</g>
<!-- Node1&#45;&gt;Node3 -->
<g id="edge2_Node000001_Node000003" class="edge">
<title>Node1&#45;&gt;Node3</title>
<g id="a_edge2_Node000001_Node000003"><a xlink:title=" ">
<path fill="none" stroke="#63b8ff" d="M105.61,-22.35C113.34,-21.37 121.44,-20.33 129.51,-19.3"/>
<polygon fill="#63b8ff" stroke="#63b8ff" points="129.88,-22.78 139.36,-18.04 129,-15.84 129.88,-22.78"/>
</a>
</g>
</g>
<!-- Node4 -->
<g id="Node000004" class="node">
<title>Node4</title>
<g id="a_Node000004"><a xlink:href="mob_8c.html#a982672a13ed7a7b25477f268c592c14b" target="_top" xlink:title="Libere un mob et nettoie les ressources associees.">
<polygon fill="white" stroke="#666666" points="389.25,-20 301.25,-20 301.25,0 389.25,0 389.25,-20"/>
<text xml:space="preserve" text-anchor="middle" x="345.25" y="-6.5" font-family="Helvetica,sans-Serif" font-size="10.00">detruire_un_mob</text>
</a>
</g>
</g>
<!-- Node3&#45;&gt;Node4 -->
<g id="edge3_Node000003_Node000004" class="edge">
<title>Node3&#45;&gt;Node4</title>
<g id="a_edge3_Node000003_Node000004"><a xlink:title=" ">
<path fill="none" stroke="#63b8ff" d="M265.66,-10C273.65,-10 281.8,-10 289.68,-10"/>
<polygon fill="#63b8ff" stroke="#63b8ff" points="289.45,-13.5 299.45,-10 289.45,-6.5 289.45,-13.5"/>
</a>
</g>
</g>
</g>
</svg>
