<?xml version="1.0" encoding="UTF-8" standalone="no"?>
<!DOCTYPE svg PUBLIC "-//W3C//DTD SVG 1.1//EN"
 "http://www.w3.org/Graphics/SVG/1.1/DTD/svg11.dtd">
<!-- Generated by graphviz version 14.1.4 (20260321.0153)
 -->
<!-- Title: get_boss_centre_monde Pages: 1 -->
<svg width="1128pt" height="280pt"
 viewBox="0.00 0.00 1128.00 280.00" xmlns="http://www.w3.org/2000/svg" xmlns:xlink="http://www.w3.org/1999/xlink">
<g id="graph0" class="graph" transform="scale(1 1) rotate(0) translate(4 276)">
<title>get_boss_centre_monde</title>
<!-- Node1 -->
<g id="Node000001" class="node">
<title>Node1</title>
<g id="a_Node000001"><a xlink:title=" ">
<polygon fill="#999999" stroke="#666666" points="1120.25,-146 997.75,-146 997.75,-126 1120.25,-126 1120.25,-146"/>
<text xml:space="preserve" text-anchor="middle" x="1059" y="-132.5" font-family="Helvetica,sans-Serif" font-size="10.00">get_boss_centre_monde</text>
</a>
</g>
</g>
<!-- Node2 -->
<g id="Node000002" class="node">
<title>Node2</title>
<g id="a_Node000002"><a xlink:href="boss_8c.html#a15fd30a5ef8a97e7f493402eac74780f" target="_top" xlink:title=" ">
<polygon fill="white" stroke="#666666" points="775.5,-148 658.25,-148 658.25,-128 775.5,-128 775.5,-148"/>
<text xml:space="preserve" text-anchor="middle" x="716.88" y="-134.5" font-family="Helvetica,sans-Serif" font-size="10.00">attaque_demon_de_feu</text>
</a>
</g>
</g>
<!-- Node1&#45;&gt;Node2 -->
<g id="edge1_Node000001_Node000002" class="edge">
<title>Node1&#45;&gt;Node2</title>
<g id="a_edge1_Node000001_Node000002"><a xlink:title=" ">
<path fill="none" stroke="#63b8ff" d="M986.22,-136.42C923.59,-136.79 833.87,-137.32 775.74,-137.66"/>
<polygon fill="#63b8ff" stroke="#63b8ff" points="986.09,-139.92 996.07,-136.36 986.05,-132.92 986.09,-139.92"/>
</a>
</g>
</g>
<!-- Node8 -->
<g id="Node000008" class="node">
<title>Node8</title>
<g id="a_Node000008"><a xlink:href="boss_8c.html#ab86bd855c9b53c18f663cf494b2f68ad" target="_top" xlink:title=" ">
<polygon fill="white" stroke="#666666" points="765,-234 668.75,-234 668.75,-214 765,-214 765,-234"/>
<text xml:space="preserve" text-anchor="middle" x="716.88" y="-220.5" font-family="Helvetica,sans-Serif" font-size="10.00">attaque_minotaure</text>
</a>
</g>
</g>
<!-- Node1&#45;&gt;Node8 -->
<g id="edge7_Node000001_Node000008" class="edge">
<title>Node1&#45;&gt;Node8</title>
<g id="a_edge7_Node000001_Node000008"><a xlink:title=" ">
<path fill="none" stroke="#63b8ff" d="M1039.65,-153.93C1021.5,-170.41 992.13,-193.92 961.75,-205 896.72,-228.73 815.63,-229.94 765.3,-227.69"/>
<polygon fill="#63b8ff" stroke="#63b8ff" points="1041.59,-156.91 1046.5,-147.52 1036.81,-151.79 1041.59,-156.91"/>
</a>
</g>
</g>
<!-- Node9 -->
<g id="Node000009" class="node">
<title>Node9</title>
<g id="a_Node000009"><a xlink:href="boss_8c.html#a1605a1af145e7f0bc025e2c9c51d5ab9" target="_top" xlink:title=" ">
<polygon fill="white" stroke="#666666" points="949,-272 824.25,-272 824.25,-252 949,-252 949,-272"/>
<text xml:space="preserve" text-anchor="middle" x="886.62" y="-258.5" font-family="Helvetica,sans-Serif" font-size="10.00">deplacer_minotaure_vers</text>
</a>
</g>
</g>
<!-- Node1&#45;&gt;Node9 -->
<g id="edge9_Node000001_Node000009" class="edge">
<title>Node1&#45;&gt;Node9</title>
<g id="a_edge9_Node000001_Node000009"><a xlink:title=" ">
<path fill="none" stroke="#63b8ff" d="M1044.52,-155.37C1027.65,-178.22 996.71,-215.9 961.75,-238 952.83,-243.64 942.47,-248.07 932.36,-251.5"/>
<polygon fill="#63b8ff" stroke="#63b8ff" points="1047.16,-157.68 1050.16,-147.52 1041.48,-153.59 1047.16,-157.68"/>
</a>
</g>
</g>
<!-- Node10 -->
<g id="Node000010" class="node">
<title>Node10</title>
<g id="a_Node000010"><a xlink:href="boss_8c.html#a73d03ed33f6dd919c2ab511246d454f9" target="_top" xlink:title=" ">
<polygon fill="white" stroke="#666666" points="961.75,-108 811.5,-108 811.5,-88 961.75,-88 961.75,-108"/>
<text xml:space="preserve" text-anchor="middle" x="886.62" y="-94.5" font-family="Helvetica,sans-Serif" font-size="10.00">invoquer_minions_autour_boss</text>
</a>
</g>
</g>
<!-- Node1&#45;&gt;Node10 -->
<g id="edge11_Node000001_Node000010" class="edge">
<title>Node1&#45;&gt;Node10</title>
<g id="a_edge11_Node000001_Node000010"><a xlink:title=" ">
<path fill="none" stroke="#63b8ff" d="M999.78,-123.02C978.48,-118.26 954.66,-112.95 934.48,-108.45"/>
<polygon fill="#63b8ff" stroke="#63b8ff" points="998.99,-126.43 1009.52,-125.19 1000.52,-119.59 998.99,-126.43"/>
</a>
</g>
</g>
<!-- Node11 -->
<g id="Node000011" class="node">
<title>Node11</title>
<g id="a_Node000011"><a xlink:href="boss_8c.html#a6b314df5e35e0e8c058cab5f0defa955" target="_top" xlink:title=" ">
<polygon fill="white" stroke="#666666" points="607.25,-70 488.5,-70 488.5,-50 607.25,-50 607.25,-70"/>
<text xml:space="preserve" text-anchor="middle" x="547.88" y="-56.5" font-family="Helvetica,sans-Serif" font-size="10.00">joueur_dans_zone_agro</text>
</a>
</g>
</g>
<!-- Node1&#45;&gt;Node11 -->
<g id="edge13_Node000001_Node000011" class="edge">
<title>Node1&#45;&gt;Node11</title>
<g id="a_edge13_Node000001_Node000011"><a xlink:title=" ">
<path fill="none" stroke="#63b8ff" d="M1036.21,-118.84C1017.6,-105.28 989.51,-87.29 961.75,-79 839.89,-42.59 688.85,-47.49 607.45,-53.95"/>
<polygon fill="#63b8ff" stroke="#63b8ff" points="1033.96,-121.53 1044.06,-124.74 1038.17,-115.93 1033.96,-121.53"/>
</a>
</g>
</g>
<!-- Node12 -->
<g id="Node000012" class="node">
<title>Node12</title>
<g id="a_Node000012"><a xlink:href="boss_8c.html#ac8a28bea25324bf0528eed732c5368f3" target="_top" xlink:title=" ">
<polygon fill="white" stroke="#666666" points="938.12,-32 835.12,-32 835.12,0 938.12,0 938.12,-32"/>
<text xml:space="preserve" text-anchor="start" x="843.12" y="-18.5" font-family="Helvetica,sans-Serif" font-size="10.00">renvoyer_projectiles</text>
<text xml:space="preserve" text-anchor="middle" x="886.62" y="-6.5" font-family="Helvetica,sans-Serif" font-size="10.00">_touches</text>
</a>
</g>
</g>
<!-- Node1&#45;&gt;Node12 -->
<g id="edge15_Node000001_Node000012" class="edge">
<title>Node1&#45;&gt;Node12</title>
<g id="a_edge15_Node000001_Node000012"><a xlink:title=" ">
<path fill="none" stroke="#63b8ff" d="M1041.62,-117C1023.67,-97.13 993.21,-66.09 961.75,-46 953.68,-40.85 944.57,-36.29 935.57,-32.38"/>
<polygon fill="#63b8ff" stroke="#63b8ff" points="1038.91,-119.22 1048.16,-124.38 1044.15,-114.58 1038.91,-119.22"/>
</a>
</g>
</g>
<!-- Node14 -->
<g id="Node000014" class="node">
<title>Node14</title>
<g id="a_Node000014"><a xlink:href="boss_8c.html#a848bc8291aee689be886bcc6a8c68456" target="_top" xlink:title=" ">
<polygon fill="white" stroke="#666666" points="943,-196 830.25,-196 830.25,-164 943,-164 943,-196"/>
<text xml:space="preserve" text-anchor="start" x="838.25" y="-182.5" font-family="Helvetica,sans-Serif" font-size="10.00">spawn_projectile_vers</text>
<text xml:space="preserve" text-anchor="middle" x="886.62" y="-170.5" font-family="Helvetica,sans-Serif" font-size="10.00">_joueur</text>
</a>
</g>
</g>
<!-- Node1&#45;&gt;Node14 -->
<g id="edge18_Node000001_Node000014" class="edge">
<title>Node1&#45;&gt;Node14</title>
<g id="a_edge18_Node000001_Node000014"><a xlink:title=" ">
<path fill="none" stroke="#63b8ff" d="M1006.54,-149.29C986.53,-154.46 963.56,-160.39 943.18,-165.65"/>
<polygon fill="#63b8ff" stroke="#63b8ff" points="1007.35,-152.7 1016.16,-146.81 1005.6,-145.92 1007.35,-152.7"/>
</a>
</g>
</g>
<!-- Node3 -->
<g id="Node000003" class="node">
<title>Node3</title>
<g id="a_Node000003"><a xlink:href="boss_8c.html#a5f817e3b267c2b327de8c2d9251477f4" target="_top" xlink:title=" ">
<polygon fill="white" stroke="#666666" points="622.25,-167 473.5,-167 473.5,-147 622.25,-147 622.25,-167"/>
<text xml:space="preserve" text-anchor="middle" x="547.88" y="-153.5" font-family="Helvetica,sans-Serif" font-size="10.00">obtenir_fonction_attaque_boss</text>
</a>
</g>
</g>
<!-- Node2&#45;&gt;Node3 -->
<g id="edge2_Node000002_Node000003" class="edge">
<title>Node2&#45;&gt;Node3</title>
<g id="a_edge2_Node000002_Node000003"><a xlink:title=" ">
<path fill="none" stroke="#63b8ff" d="M646.52,-145.89C638.62,-146.79 630.55,-147.71 622.6,-148.61"/>
<polygon fill="#63b8ff" stroke="#63b8ff" points="646.89,-149.37 656.43,-144.76 646.1,-142.42 646.89,-149.37"/>
</a>
</g>
</g>
<!-- Node4 -->
<g id="Node000004" class="node">
<title>Node4</title>
<g id="a_Node000004"><a xlink:href="boss_8c.html#aea78d389dc05993b72aebb218a4768de" target="_top" xlink:title="Execute la logique d&#39;attaque du boss en tenant compte des cooldowns et de la phase active.">
<polygon fill="white" stroke="#666666" points="414.25,-136 339.75,-136 339.75,-116 414.25,-116 414.25,-136"/>
<text xml:space="preserve" text-anchor="middle" x="377" y="-122.5" font-family="Helvetica,sans-Serif" font-size="10.00">boss_attaque</text>
</a>
</g>
</g>
<!-- Node3&#45;&gt;Node4 -->
<g id="edge3_Node000003_Node000004" class="edge">
<title>Node3&#45;&gt;Node4</title>
<g id="a_edge3_Node000003_Node000004"><a xlink:title=" ">
<path fill="none" stroke="#63b8ff" d="M478.47,-144.44C456.66,-140.44 433.37,-136.16 414.71,-132.74"/>
<polygon fill="#63b8ff" stroke="#63b8ff" points="477.75,-147.87 488.21,-146.23 479.01,-140.98 477.75,-147.87"/>
</a>
</g>
</g>
<!-- Node5 -->
<g id="Node000005" class="node">
<title>Node5</title>
<g id="a_Node000005"><a xlink:href="boss_8c.html#abbb99b844a32a59c50228b7d6dcb888b" target="_top" xlink:title="Met a jour boss en fonction de l&#39;etat courant du jeu.">
<polygon fill="white" stroke="#666666" points="280.5,-70 179,-70 179,-50 280.5,-50 280.5,-70"/>
<text xml:space="preserve" text-anchor="middle" x="229.75" y="-56.5" font-family="Helvetica,sans-Serif" font-size="10.00">mettre_a_jour_boss</text>
</a>
</g>
</g>
<!-- Node4&#45;&gt;Node5 -->
<g id="edge4_Node000004_Node000005" class="edge">
<title>Node4&#45;&gt;Node5</title>
<g id="a_edge4_Node000004_Node000005"><a xlink:title=" ">
<path fill="none" stroke="#63b8ff" d="M342.75,-110.89C315.49,-98.5 277.63,-81.3 253.66,-70.41"/>
<polygon fill="#63b8ff" stroke="#63b8ff" points="341.05,-113.97 351.61,-114.92 343.95,-107.59 341.05,-113.97"/>
</a>
</g>
</g>
<!-- Node6 -->
<g id="Node000006" class="node">
<title>Node6</title>
<g id="a_Node000006"><a xlink:href="jeux_8c.html#a2d7491d04e8c2bdb52bb6ed7d75e4d78" target="_top" xlink:title="Execute la boucle principale de gameplay pour la planete courante.">
<polygon fill="white" stroke="#666666" points="143,-70 73,-70 73,-50 143,-50 143,-70"/>
<text xml:space="preserve" text-anchor="middle" x="108" y="-56.5" font-family="Helvetica,sans-Serif" font-size="10.00">jeu_principal</text>
</a>
</g>
</g>
<!-- Node5&#45;&gt;Node6 -->
<g id="edge5_Node000005_Node000006" class="edge">
<title>Node5&#45;&gt;Node6</title>
<g id="a_edge5_Node000005_Node000006"><a xlink:title=" ">
<path fill="none" stroke="#63b8ff" d="M167.39,-60C159.09,-60 150.84,-60 143.26,-60"/>
<polygon fill="#63b8ff" stroke="#63b8ff" points="167.15,-63.5 177.15,-60 167.15,-56.5 167.15,-63.5"/>
</a>
</g>
</g>
<!-- Node7 -->
<g id="Node000007" class="node">
<title>Node7</title>
<g id="a_Node000007"><a xlink:href="main_8c.html#a0ddf1224851353fc92bfbff6f499fa97" target="_top" xlink:title=" ">
<polygon fill="white" stroke="#666666" points="37,-70 0,-70 0,-50 37,-50 37,-70"/>
<text xml:space="preserve" text-anchor="middle" x="18.5" y="-56.5" font-family="Helvetica,sans-Serif" font-size="10.00">main</text>
</a>
</g>
</g>
<!-- Node6&#45;&gt;Node7 -->
<g id="edge6_Node000006_Node000007" class="edge">
<title>Node6&#45;&gt;Node7</title>
<g id="a_edge6_Node000006_Node000007"><a xlink:title=" ">
<path fill="none" stroke="#63b8ff" d="M61.18,-60C52.72,-60 44.36,-60 37.37,-60"/>
<polygon fill="#63b8ff" stroke="#63b8ff" points="61.16,-63.5 71.16,-60 61.16,-56.5 61.16,-63.5"/>
</a>
</g>
</g>
<!-- Node8&#45;&gt;Node3 -->
<g id="edge8_Node000008_Node000003" class="edge">
<title>Node8&#45;&gt;Node3</title>
<g id="a_edge8_Node000008_Node000003"><a xlink:title=" ">
<path fill="none" stroke="#63b8ff" d="M679.2,-209.29C647.6,-196.61 602.78,-178.63 574.79,-167.4"/>
<polygon fill="#63b8ff" stroke="#63b8ff" points="677.79,-212.49 688.38,-212.97 680.4,-206 677.79,-212.49"/>
</a>
</g>
</g>
<!-- Node9&#45;&gt;Node8 -->
<g id="edge10_Node000009_Node000008" class="edge">
<title>Node9&#45;&gt;Node8</title>
<g id="a_edge10_Node000009_Node000008"><a xlink:title=" ">
<path fill="none" stroke="#63b8ff" d="M828.31,-249.02C807.33,-244.26 783.88,-238.95 764.01,-234.45"/>
<polygon fill="#63b8ff" stroke="#63b8ff" points="827.34,-252.39 837.87,-251.18 828.89,-245.56 827.34,-252.39"/>
</a>
</g>
</g>
<!-- Node10&#45;&gt;Node2 -->
<g id="edge12_Node000010_Node000002" class="edge">
<title>Node10&#45;&gt;Node2</title>
<g id="a_edge12_Node000010_Node000002"><a xlink:title=" ">
<path fill="none" stroke="#63b8ff" d="M830.95,-111.04C808.57,-116.37 783.02,-122.47 761.88,-127.51"/>
<polygon fill="#63b8ff" stroke="#63b8ff" points="831.6,-114.48 840.52,-108.76 829.98,-107.67 831.6,-114.48"/>
</a>
</g>
</g>
<!-- Node11&#45;&gt;Node5 -->
<g id="edge14_Node000011_Node000005" class="edge">
<title>Node11&#45;&gt;Node5</title>
<g id="a_edge14_Node000011_Node000005"><a xlink:title=" ">
<path fill="none" stroke="#63b8ff" d="M476.99,-60C417.58,-60 333.74,-60 280.83,-60"/>
<polygon fill="#63b8ff" stroke="#63b8ff" points="476.64,-63.5 486.64,-60 476.64,-56.5 476.64,-63.5"/>
</a>
</g>
</g>
<!-- Node13 -->
<g id="Node000013" class="node">
<title>Node13</title>
<g id="a_Node000013"><a xlink:href="boss_8c.html#a56b46a265edb06c19ab33048f07c26e9" target="_top" xlink:title=" ">
<polygon fill="white" stroke="#666666" points="437.5,-32 316.5,-32 316.5,0 437.5,0 437.5,-32"/>
<text xml:space="preserve" text-anchor="start" x="324.5" y="-18.5" font-family="Helvetica,sans-Serif" font-size="10.00">appliquer_degats_joueur</text>
<text xml:space="preserve" text-anchor="middle" x="377" y="-6.5" font-family="Helvetica,sans-Serif" font-size="10.00">_sur_boss</text>
</a>
</g>
</g>
<!-- Node12&#45;&gt;Node13 -->
<g id="edge16_Node000012_Node000013" class="edge">
<title>Node12&#45;&gt;Node13</title>
<g id="a_edge16_Node000012_Node000013"><a xlink:title=" ">
<path fill="none" stroke="#63b8ff" d="M823.39,-16C725.01,-16 534.84,-16 437.93,-16"/>
<polygon fill="#63b8ff" stroke="#63b8ff" points="823.11,-19.5 833.11,-16 823.11,-12.5 823.11,-19.5"/>
</a>
</g>
</g>
<!-- Node13&#45;&gt;Node5 -->
<g id="edge17_Node000013_Node000005" class="edge">
<title>Node13&#45;&gt;Node5</title>
<g id="a_edge17_Node000013_Node000005"><a xlink:title=" ">
<path fill="none" stroke="#63b8ff" d="M311.05,-35.67C295.2,-40.48 278.84,-45.43 265.07,-49.6"/>
<polygon fill="#63b8ff" stroke="#63b8ff" points="311.91,-39.07 320.47,-32.82 309.88,-32.37 311.91,-39.07"/>
</a>
</g>
</g>
<!-- Node14&#45;&gt;Node2 -->
<g id="edge19_Node000014_Node000002" class="edge">
<title>Node14&#45;&gt;Node2</title>
<g id="a_edge19_Node000014_Node000002"><a xlink:title=" ">
<path fill="none" stroke="#63b8ff" d="M818.84,-163.28C798.88,-158.28 777.57,-152.95 759.69,-148.47"/>
<polygon fill="#63b8ff" stroke="#63b8ff" points="817.75,-166.61 828.3,-165.65 819.45,-159.82 817.75,-166.61"/>
</a>
</g>
</g>
<!-- Node15 -->
<g id="Node000015" class="node">
<title>Node15</title>
<g id="a_Node000015"><a xlink:href="boss_8c.html#a0bffa7571e9e729458ce45d5dac46901" target="_top" xlink:title=" ">
<polygon fill="white" stroke="#666666" points="764.25,-187 669.5,-187 669.5,-167 764.25,-167 764.25,-187"/>
<text xml:space="preserve" text-anchor="middle" x="716.88" y="-173.5" font-family="Helvetica,sans-Serif" font-size="10.00">attaque_sentinelle</text>
</a>
</g>
</g>
<!-- Node14&#45;&gt;Node15 -->
<g id="edge20_Node000014_Node000015" class="edge">
<title>Node14&#45;&gt;Node15</title>
<g id="a_edge20_Node000014_Node000015"><a xlink:title=" ">
<path fill="none" stroke="#63b8ff" d="M818.39,-178.8C800.34,-178.47 781.21,-178.13 764.54,-177.83"/>
<polygon fill="#63b8ff" stroke="#63b8ff" points="818.19,-182.29 828.25,-178.97 818.32,-175.3 818.19,-182.29"/>
</a>
</g>
</g>
<!-- Node15&#45;&gt;Node3 -->
<g id="edge21_Node000015_Node000003" class="edge">
<title>Node15&#45;&gt;Node3</title>
<g id="a_edge21_Node000015_Node000003"><a xlink:title=" ">
<path fill="none" stroke="#63b8ff" d="M658.19,-170.09C646.74,-168.72 634.58,-167.26 622.68,-165.84"/>
<polygon fill="#63b8ff" stroke="#63b8ff" points="657.51,-173.53 667.85,-171.25 658.34,-166.58 657.51,-173.53"/>
</a>
</g>
</g>
</g>
</svg>
