<?xml version="1.0" encoding="UTF-8" standalone="no"?>
<!DOCTYPE svg PUBLIC "-//W3C//DTD SVG 1.1//EN"
 "http://www.w3.org/Graphics/SVG/1.1/DTD/svg11.dtd">
<!-- Generated by graphviz version 14.1.4 (20260321.0153)
 -->
<!-- Title: attaque_minotaure Pages: 1 -->
<svg width="539pt" height="201pt"
 viewBox="0.00 0.00 539.00 201.00" xmlns="http://www.w3.org/2000/svg" xmlns:xlink="http://www.w3.org/1999/xlink">
<g id="graph0" class="graph" transform="scale(1 1) rotate(0) translate(4 197)">
<title>attaque_minotaure</title>
<!-- Node1 -->
<g id="Node000001" class="node">
<title>Node1</title>
<g id="a_Node000001"><a xlink:title=" ">
<polygon fill="#999999" stroke="#666666" points="96.25,-124 0,-124 0,-104 96.25,-104 96.25,-124"/>
<text xml:space="preserve" text-anchor="middle" x="48.12" y="-110.5" font-family="Helvetica,sans-Serif" font-size="10.00">attaque_minotaure</text>
</a>
</g>
</g>
<!-- Node2 -->
<g id="Node000002" class="node">
<title>Node2</title>
<g id="a_Node000002"><a xlink:href="boss_8c.html#a7a2624259975aba5659ef69da7dd85ac" target="_top" xlink:title=" ">
<polygon fill="white" stroke="#666666" points="249.88,-193 139.38,-193 139.38,-161 249.88,-161 249.88,-193"/>
<text xml:space="preserve" text-anchor="start" x="147.38" y="-179.5" font-family="Helvetica,sans-Serif" font-size="10.00">declencher_animation</text>
<text xml:space="preserve" text-anchor="middle" x="194.62" y="-167.5" font-family="Helvetica,sans-Serif" font-size="10.00">_attaque</text>
</a>
</g>
</g>
<!-- Node1&#45;&gt;Node2 -->
<g id="edge1_Node000001_Node000002" class="edge">
<title>Node1&#45;&gt;Node2</title>
<g id="a_edge1_Node000001_Node000002"><a xlink:title=" ">
<path fill="none" stroke="#63b8ff" d="M72.99,-124.4C92.61,-132.96 121.04,-145.35 145.38,-155.96"/>
<polygon fill="#63b8ff" stroke="#63b8ff" points="143.92,-159.15 154.48,-159.93 146.71,-152.73 143.92,-159.15"/>
</a>
</g>
</g>
<!-- Node3 -->
<g id="Node000003" class="node">
<title>Node3</title>
<g id="a_Node000003"><a xlink:href="boss_8c.html#a1605a1af145e7f0bc025e2c9c51d5ab9" target="_top" xlink:title=" ">
<polygon fill="white" stroke="#666666" points="257,-105 132.25,-105 132.25,-85 257,-85 257,-105"/>
<text xml:space="preserve" text-anchor="middle" x="194.62" y="-91.5" font-family="Helvetica,sans-Serif" font-size="10.00">deplacer_minotaure_vers</text>
</a>
</g>
</g>
<!-- Node1&#45;&gt;Node3 -->
<g id="edge2_Node000001_Node000003" class="edge">
<title>Node1&#45;&gt;Node3</title>
<g id="a_edge2_Node000001_Node000003"><a xlink:title=" ">
<path fill="none" stroke="#63b8ff" d="M96.44,-107.78C104.25,-106.75 112.5,-105.67 120.76,-104.58"/>
<polygon fill="#63b8ff" stroke="#63b8ff" points="121.04,-108.07 130.5,-103.3 120.13,-101.13 121.04,-108.07"/>
</a>
</g>
</g>
<!-- Node4 -->
<g id="Node000004" class="node">
<title>Node4</title>
<g id="a_Node000004"><a xlink:href="boss_8c.html#afb0b61469efd6dce1e15a516cb9e4115" target="_top" xlink:title=" ">
<polygon fill="white" stroke="#666666" points="415.5,-146 293,-146 293,-126 415.5,-126 415.5,-146"/>
<text xml:space="preserve" text-anchor="middle" x="354.25" y="-132.5" font-family="Helvetica,sans-Serif" font-size="10.00">get_boss_centre_monde</text>
</a>
</g>
</g>
<!-- Node1&#45;&gt;Node4 -->
<g id="edge5_Node000001_Node000004" class="edge">
<title>Node1&#45;&gt;Node4</title>
<g id="a_edge5_Node000001_Node000004"><a xlink:title=" ">
<path fill="none" stroke="#63b8ff" d="M96.64,-117.44C146.11,-121.02 224.19,-126.66 281.23,-130.79"/>
<polygon fill="#63b8ff" stroke="#63b8ff" points="280.97,-134.28 291.2,-131.51 281.48,-127.3 280.97,-134.28"/>
</a>
</g>
</g>
<!-- Node6 -->
<g id="Node000006" class="node">
<title>Node6</title>
<g id="a_Node000006"><a xlink:href="boss_8c.html#a1d5fd526db9bbc3f5b70491cfc645818" target="_top" xlink:title=" ">
<polygon fill="white" stroke="#666666" points="255.5,-58 133.75,-58 133.75,-38 255.5,-38 255.5,-58"/>
<text xml:space="preserve" text-anchor="middle" x="194.62" y="-44.5" font-family="Helvetica,sans-Serif" font-size="10.00">get_player_world_center</text>
</a>
</g>
</g>
<!-- Node1&#45;&gt;Node6 -->
<g id="edge6_Node000001_Node000006" class="edge">
<title>Node1&#45;&gt;Node6</title>
<g id="a_edge6_Node000001_Node000006"><a xlink:title=" ">
<path fill="none" stroke="#63b8ff" d="M72.06,-103.51C88.75,-95.88 111.9,-85.29 132.25,-76 141.36,-71.84 151.24,-67.33 160.35,-63.18"/>
<polygon fill="#63b8ff" stroke="#63b8ff" points="161.58,-66.46 169.22,-59.13 158.67,-60.09 161.58,-66.46"/>
</a>
</g>
</g>
<!-- Node3&#45;&gt;Node4 -->
<g id="edge3_Node000003_Node000004" class="edge">
<title>Node3&#45;&gt;Node4</title>
<g id="a_edge3_Node000003_Node000004"><a xlink:title=" ">
<path fill="none" stroke="#63b8ff" d="M235.81,-105.45C256,-110.71 280.69,-117.13 302.22,-122.73"/>
<polygon fill="#63b8ff" stroke="#63b8ff" points="301.12,-126.06 311.68,-125.19 302.88,-119.28 301.12,-126.06"/>
</a>
</g>
</g>
<!-- Node5 -->
<g id="Node000005" class="node">
<title>Node5</title>
<g id="a_Node000005"><a xlink:href="boss_8c.html#ae7410e9e2b5e0ca0b415b422f2da9c79" target="_top" xlink:title=" ">
<polygon fill="white" stroke="#666666" points="403.12,-108 305.38,-108 305.38,-76 403.12,-76 403.12,-108"/>
<text xml:space="preserve" text-anchor="start" x="313.38" y="-94.5" font-family="Helvetica,sans-Serif" font-size="10.00">minotaure_position</text>
<text xml:space="preserve" text-anchor="middle" x="354.25" y="-82.5" font-family="Helvetica,sans-Serif" font-size="10.00">_libre_centre</text>
</a>
</g>
</g>
<!-- Node3&#45;&gt;Node5 -->
<g id="edge4_Node000003_Node000005" class="edge">
<title>Node3&#45;&gt;Node5</title>
<g id="a_edge4_Node000003_Node000005"><a xlink:title=" ">
<path fill="none" stroke="#63b8ff" d="M257.47,-93.82C269.5,-93.59 282.08,-93.35 294.02,-93.13"/>
<polygon fill="#63b8ff" stroke="#63b8ff" points="293.78,-96.63 303.71,-92.94 293.65,-89.63 293.78,-96.63"/>
</a>
</g>
</g>
<!-- Node7 -->
<g id="Node000007" class="node">
<title>Node7</title>
<g id="a_Node000007"><a xlink:href="main_8h.html#a6c672075bc554c92548a916c9501bdb5" target="_top" xlink:title=" ">
<polygon fill="white" stroke="#666666" points="398.25,-58 310.25,-58 310.25,-38 398.25,-38 398.25,-58"/>
<text xml:space="preserve" text-anchor="middle" x="354.25" y="-44.5" font-family="Helvetica,sans-Serif" font-size="10.00">screen_center_x</text>
</a>
</g>
</g>
<!-- Node6&#45;&gt;Node7 -->
<g id="edge7_Node000006_Node000007" class="edge">
<title>Node6&#45;&gt;Node7</title>
<g id="a_edge7_Node000006_Node000007"><a xlink:title=" ">
<path fill="none" stroke="#63b8ff" d="M255.67,-48C269.8,-48 284.8,-48 298.68,-48"/>
<polygon fill="#63b8ff" stroke="#63b8ff" points="298.52,-51.5 308.52,-48 298.52,-44.5 298.52,-51.5"/>
</a>
</g>
</g>
<!-- Node9 -->
<g id="Node000009" class="node">
<title>Node9</title>
<g id="a_Node000009"><a xlink:href="main_8h.html#a6456affd0d0a21e911b531a5ba25676d" target="_top" xlink:title=" ">
<polygon fill="white" stroke="#666666" points="398.25,-20 310.25,-20 310.25,0 398.25,0 398.25,-20"/>
<text xml:space="preserve" text-anchor="middle" x="354.25" y="-6.5" font-family="Helvetica,sans-Serif" font-size="10.00">screen_center_y</text>
</a>
</g>
</g>
<!-- Node6&#45;&gt;Node9 -->
<g id="edge9_Node000006_Node000009" class="edge">
<title>Node6&#45;&gt;Node9</title>
<g id="a_edge9_Node000006_Node000009"><a xlink:title=" ">
<path fill="none" stroke="#63b8ff" d="M239.11,-37.52C257.55,-33.07 279.23,-27.84 298.72,-23.15"/>
<polygon fill="#63b8ff" stroke="#63b8ff" points="299.53,-26.55 308.43,-20.8 297.89,-19.75 299.53,-26.55"/>
</a>
</g>
</g>
<!-- Node8 -->
<g id="Node000008" class="node">
<title>Node8</title>
<g id="a_Node000008"><a xlink:href="main_8h.html#aaaa1e9fcb86ff8e60b297faa7815ad1d" target="_top" xlink:title=" ">
<polygon fill="white" stroke="#666666" points="529.75,-58 453,-58 453,-38 529.75,-38 529.75,-58"/>
<text xml:space="preserve" text-anchor="middle" x="491.38" y="-44.5" font-family="Helvetica,sans-Serif" font-size="10.00">screen_widthf</text>
</a>
</g>
</g>
<!-- Node7&#45;&gt;Node8 -->
<g id="edge8_Node000007_Node000008" class="edge">
<title>Node7&#45;&gt;Node8</title>
<g id="a_edge8_Node000007_Node000008"><a xlink:title=" ">
<path fill="none" stroke="#63b8ff" d="M398.75,-48C412.37,-48 427.49,-48 441.46,-48"/>
<polygon fill="#63b8ff" stroke="#63b8ff" points="441.35,-51.5 451.35,-48 441.35,-44.5 441.35,-51.5"/>
</a>
</g>
</g>
<!-- Node10 -->
<g id="Node000010" class="node">
<title>Node10</title>
<g id="a_Node000010"><a xlink:href="main_8h.html#a9b4aefc63ea00e60ec88da19e24e8236" target="_top" xlink:title=" ">
<polygon fill="white" stroke="#666666" points="531.25,-20 451.5,-20 451.5,0 531.25,0 531.25,-20"/>
<text xml:space="preserve" text-anchor="middle" x="491.38" y="-6.5" font-family="Helvetica,sans-Serif" font-size="10.00">screen_heightf</text>
</a>
</g>
</g>
<!-- Node9&#45;&gt;Node10 -->
<g id="edge10_Node000009_Node000010" class="edge">
<title>Node9&#45;&gt;Node10</title>
<g id="a_edge10_Node000009_Node000010"><a xlink:title=" ">
<path fill="none" stroke="#63b8ff" d="M398.75,-10C411.76,-10 426.13,-10 439.57,-10"/>
<polygon fill="#63b8ff" stroke="#63b8ff" points="439.56,-13.5 449.56,-10 439.56,-6.5 439.56,-13.5"/>
</a>
</g>
</g>
</g>
</svg>
