<?xml version="1.0" encoding="UTF-8" standalone="no"?>
<!DOCTYPE svg PUBLIC "-//W3C//DTD SVG 1.1//EN"
 "http://www.w3.org/Graphics/SVG/1.1/DTD/svg11.dtd">
<!-- Generated by graphviz version 14.1.4 (20260321.0153)
 -->
<!-- Title: attaque_minotaure Pages: 1 -->
<svg width="716pt" height="28pt"
 viewBox="0.00 0.00 716.00 28.00" xmlns="http://www.w3.org/2000/svg" xmlns:xlink="http://www.w3.org/1999/xlink">
<g id="graph0" class="graph" transform="scale(1 1) rotate(0) translate(4 24)">
<title>attaque_minotaure</title>
<!-- Node1 -->
<g id="Node000001" class="node">
<title>Node1</title>
<g id="a_Node000001"><a xlink:title=" ">
<polygon fill="#999999" stroke="#666666" points="708,-20 611.75,-20 611.75,0 708,0 708,-20"/>
<text xml:space="preserve" text-anchor="middle" x="659.88" y="-6.5" font-family="Helvetica,sans-Serif" font-size="10.00">attaque_minotaure</text>
</a>
</g>
</g>
<!-- Node2 -->
<g id="Node000002" class="node">
<title>Node2</title>
<g id="a_Node000002"><a xlink:href="boss_8c.html#a5f817e3b267c2b327de8c2d9251477f4" target="_top" xlink:title=" ">
<polygon fill="white" stroke="#666666" points="575.75,-20 427,-20 427,0 575.75,0 575.75,-20"/>
<text xml:space="preserve" text-anchor="middle" x="501.38" y="-6.5" font-family="Helvetica,sans-Serif" font-size="10.00">obtenir_fonction_attaque_boss</text>
</a>
</g>
</g>
<!-- Node1&#45;&gt;Node2 -->
<g id="edge1_Node000001_Node000002" class="edge">
<title>Node1&#45;&gt;Node2</title>
<g id="a_edge1_Node000001_Node000002"><a xlink:title=" ">
<path fill="none" stroke="#63b8ff" d="M600.23,-10C592.38,-10 584.25,-10 576.17,-10"/>
<polygon fill="#63b8ff" stroke="#63b8ff" points="599.98,-13.5 609.98,-10 599.98,-6.5 599.98,-13.5"/>
</a>
</g>
</g>
<!-- Node3 -->
<g id="Node000003" class="node">
<title>Node3</title>
<g id="a_Node000003"><a xlink:href="boss_8c.html#aea78d389dc05993b72aebb218a4768de" target="_top" xlink:title="Execute la logique d&#39;attaque du boss en tenant compte des cooldowns et de la phase active.">
<polygon fill="white" stroke="#666666" points="391,-20 316.5,-20 316.5,0 391,0 391,-20"/>
<text xml:space="preserve" text-anchor="middle" x="353.75" y="-6.5" font-family="Helvetica,sans-Serif" font-size="10.00">boss_attaque</text>
</a>
</g>
</g>
<!-- Node2&#45;&gt;Node3 -->
<g id="edge2_Node000002_Node000003" class="edge">
<title>Node2&#45;&gt;Node3</title>
<g id="a_edge2_Node000002_Node000003"><a xlink:title=" ">
<path fill="none" stroke="#63b8ff" d="M415.25,-10C406.92,-10 398.81,-10 391.38,-10"/>
<polygon fill="#63b8ff" stroke="#63b8ff" points="415.2,-13.5 425.2,-10 415.2,-6.5 415.2,-13.5"/>
</a>
</g>
</g>
<!-- Node4 -->
<g id="Node000004" class="node">
<title>Node4</title>
<g id="a_Node000004"><a xlink:href="boss_8c.html#abbb99b844a32a59c50228b7d6dcb888b" target="_top" xlink:title="Met a jour boss en fonction de l&#39;etat courant du jeu.">
<polygon fill="white" stroke="#666666" points="280.5,-20 179,-20 179,0 280.5,0 280.5,-20"/>
<text xml:space="preserve" text-anchor="middle" x="229.75" y="-6.5" font-family="Helvetica,sans-Serif" font-size="10.00">mettre_a_jour_boss</text>
</a>
</g>
</g>
<!-- Node3&#45;&gt;Node4 -->
<g id="edge3_Node000003_Node000004" class="edge">
<title>Node3&#45;&gt;Node4</title>
<g id="a_edge3_Node000003_Node000004"><a xlink:title=" ">
<path fill="none" stroke="#63b8ff" d="M304.88,-10C296.99,-10 288.8,-10 280.86,-10"/>
<polygon fill="#63b8ff" stroke="#63b8ff" points="304.63,-13.5 314.63,-10 304.63,-6.5 304.63,-13.5"/>
</a>
</g>
</g>
<!-- Node5 -->
<g id="Node000005" class="node">
<title>Node5</title>
<g id="a_Node000005"><a xlink:href="jeux_8c.html#a2d7491d04e8c2bdb52bb6ed7d75e4d78" target="_top" xlink:title="Execute la boucle principale de gameplay pour la planete courante.">
<polygon fill="white" stroke="#666666" points="143,-20 73,-20 73,0 143,0 143,-20"/>
<text xml:space="preserve" text-anchor="middle" x="108" y="-6.5" font-family="Helvetica,sans-Serif" font-size="10.00">jeu_principal</text>
</a>
</g>
</g>
<!-- Node4&#45;&gt;Node5 -->
<g id="edge4_Node000004_Node000005" class="edge">
<title>Node4&#45;&gt;Node5</title>
<g id="a_edge4_Node000004_Node000005"><a xlink:title=" ">
<path fill="none" stroke="#63b8ff" d="M167.39,-10C159.09,-10 150.84,-10 143.26,-10"/>
<polygon fill="#63b8ff" stroke="#63b8ff" points="167.15,-13.5 177.15,-10 167.15,-6.5 167.15,-13.5"/>
</a>
</g>
</g>
<!-- Node6 -->
<g id="Node000006" class="node">
<title>Node6</title>
<g id="a_Node000006"><a xlink:href="main_8c.html#a0ddf1224851353fc92bfbff6f499fa97" target="_top" xlink:title=" ">
<polygon fill="white" stroke="#666666" points="37,-20 0,-20 0,0 37,0 37,-20"/>
<text xml:space="preserve" text-anchor="middle" x="18.5" y="-6.5" font-family="Helvetica,sans-Serif" font-size="10.00">main</text>
</a>
</g>
</g>
<!-- Node5&#45;&gt;Node6 -->
<g id="edge5_Node000005_Node000006" class="edge">
<title>Node5&#45;&gt;Node6</title>
<g id="a_edge5_Node000005_Node000006"><a xlink:title=" ">
<path fill="none" stroke="#63b8ff" d="M61.18,-10C52.72,-10 44.36,-10 37.37,-10"/>
<polygon fill="#63b8ff" stroke="#63b8ff" points="61.16,-13.5 71.16,-10 61.16,-6.5 61.16,-13.5"/>
</a>
</g>
</g>
</g>
</svg>
