<?xml version="1.0" encoding="UTF-8" standalone="no"?>
<!DOCTYPE svg PUBLIC "-//W3C//DTD SVG 1.1//EN"
 "http://www.w3.org/Graphics/SVG/1.1/DTD/svg11.dtd">
<!-- Generated by graphviz version 14.1.4 (20260321.0153)
 -->
<!-- Title: obtenir_fonction_attaque_boss Pages: 1 -->
<svg width="910pt" height="381pt"
 viewBox="0.00 0.00 910.00 381.00" xmlns="http://www.w3.org/2000/svg" xmlns:xlink="http://www.w3.org/1999/xlink">
<g id="graph0" class="graph" transform="scale(1 1) rotate(0) translate(4 377)">
<title>obtenir_fonction_attaque_boss</title>
<!-- Node1 -->
<g id="Node000001" class="node">
<title>Node1</title>
<g id="a_Node000001"><a xlink:title=" ">
<polygon fill="#999999" stroke="#666666" points="148.75,-196 0,-196 0,-176 148.75,-176 148.75,-196"/>
<text xml:space="preserve" text-anchor="middle" x="74.38" y="-182.5" font-family="Helvetica,sans-Serif" font-size="10.00">obtenir_fonction_attaque_boss</text>
</a>
</g>
</g>
<!-- Node2 -->
<g id="Node000002" class="node">
<title>Node2</title>
<g id="a_Node000002"><a xlink:href="boss_8c.html#a15fd30a5ef8a97e7f493402eac74780f" target="_top" xlink:title=" ">
<polygon fill="white" stroke="#666666" points="302,-237 184.75,-237 184.75,-217 302,-217 302,-237"/>
<text xml:space="preserve" text-anchor="middle" x="243.38" y="-223.5" font-family="Helvetica,sans-Serif" font-size="10.00">attaque_demon_de_feu</text>
</a>
</g>
</g>
<!-- Node1&#45;&gt;Node2 -->
<g id="edge1_Node000001_Node000002" class="edge">
<title>Node1&#45;&gt;Node2</title>
<g id="a_edge1_Node000001_Node000002"><a xlink:title=" ">
<path fill="none" stroke="#63b8ff" d="M117.95,-196.45C139.54,-201.75 165.98,-208.25 188.93,-213.88"/>
<polygon fill="#63b8ff" stroke="#63b8ff" points="187.86,-217.22 198.41,-216.21 189.53,-210.42 187.86,-217.22"/>
</a>
</g>
</g>
<!-- Node14 -->
<g id="Node000014" class="node">
<title>Node14</title>
<g id="a_Node000014"><a xlink:href="boss_8c.html#ab86bd855c9b53c18f663cf494b2f68ad" target="_top" xlink:title=" ">
<polygon fill="white" stroke="#666666" points="291.5,-102 195.25,-102 195.25,-82 291.5,-82 291.5,-102"/>
<text xml:space="preserve" text-anchor="middle" x="243.38" y="-88.5" font-family="Helvetica,sans-Serif" font-size="10.00">attaque_minotaure</text>
</a>
</g>
</g>
<!-- Node1&#45;&gt;Node14 -->
<g id="edge17_Node000001_Node000014" class="edge">
<title>Node1&#45;&gt;Node14</title>
<g id="a_edge17_Node000001_Node000014"><a xlink:title=" ">
<path fill="none" stroke="#63b8ff" d="M93.88,-175.58C122.98,-159.21 179.61,-127.33 213.91,-108.02"/>
<polygon fill="#63b8ff" stroke="#63b8ff" points="215.47,-111.16 222.46,-103.21 212.03,-105.06 215.47,-111.16"/>
</a>
</g>
</g>
<!-- Node17 -->
<g id="Node000017" class="node">
<title>Node17</title>
<g id="a_Node000017"><a xlink:href="boss_8c.html#a0bffa7571e9e729458ce45d5dac46901" target="_top" xlink:title=" ">
<polygon fill="white" stroke="#666666" points="290.75,-196 196,-196 196,-176 290.75,-176 290.75,-196"/>
<text xml:space="preserve" text-anchor="middle" x="243.38" y="-182.5" font-family="Helvetica,sans-Serif" font-size="10.00">attaque_sentinelle</text>
</a>
</g>
</g>
<!-- Node1&#45;&gt;Node17 -->
<g id="edge24_Node000001_Node000017" class="edge">
<title>Node1&#45;&gt;Node17</title>
<g id="a_edge24_Node000001_Node000017"><a xlink:title=" ">
<path fill="none" stroke="#63b8ff" d="M149.11,-186C161.04,-186 173.23,-186 184.71,-186"/>
<polygon fill="#63b8ff" stroke="#63b8ff" points="184.39,-189.5 194.39,-186 184.39,-182.5 184.39,-189.5"/>
</a>
</g>
</g>
<!-- Node3 -->
<g id="Node000003" class="node">
<title>Node3</title>
<g id="a_Node000003"><a xlink:href="boss_8c.html#a7a2624259975aba5659ef69da7dd85ac" target="_top" xlink:title=" ">
<polygon fill="white" stroke="#666666" points="468.38,-152 357.88,-152 357.88,-120 468.38,-120 468.38,-152"/>
<text xml:space="preserve" text-anchor="start" x="365.88" y="-138.5" font-family="Helvetica,sans-Serif" font-size="10.00">declencher_animation</text>
<text xml:space="preserve" text-anchor="middle" x="413.12" y="-126.5" font-family="Helvetica,sans-Serif" font-size="10.00">_attaque</text>
</a>
</g>
</g>
<!-- Node2&#45;&gt;Node3 -->
<g id="edge2_Node000002_Node000003" class="edge">
<title>Node2&#45;&gt;Node3</title>
<g id="a_edge2_Node000002_Node000003"><a xlink:title=" ">
<path fill="none" stroke="#63b8ff" d="M280.29,-216.6C287.84,-213.53 295.49,-209.7 302,-205 322.49,-190.22 317.22,-175.37 338,-161 340.87,-159.02 343.9,-157.18 347.05,-155.48"/>
<polygon fill="#63b8ff" stroke="#63b8ff" points="348.53,-158.65 356.02,-151.16 345.49,-152.35 348.53,-158.65"/>
</a>
</g>
</g>
<!-- Node4 -->
<g id="Node000004" class="node">
<title>Node4</title>
<g id="a_Node000004"><a xlink:href="boss_8c.html#afb0b61469efd6dce1e15a516cb9e4115" target="_top" xlink:title=" ">
<polygon fill="white" stroke="#666666" points="654.62,-196 532.12,-196 532.12,-176 654.62,-176 654.62,-196"/>
<text xml:space="preserve" text-anchor="middle" x="593.38" y="-182.5" font-family="Helvetica,sans-Serif" font-size="10.00">get_boss_centre_monde</text>
</a>
</g>
</g>
<!-- Node2&#45;&gt;Node4 -->
<g id="edge3_Node000002_Node000004" class="edge">
<title>Node2&#45;&gt;Node4</title>
<g id="a_edge3_Node000002_Node000004"><a xlink:title=" ">
<path fill="none" stroke="#63b8ff" d="M302.32,-225.97C351.93,-224.43 425.11,-220.58 488.25,-211 506.8,-208.19 526.9,-203.71 544.45,-199.31"/>
<polygon fill="#63b8ff" stroke="#63b8ff" points="545.29,-202.71 554.1,-196.83 543.55,-195.93 545.29,-202.71"/>
</a>
</g>
</g>
<!-- Node5 -->
<g id="Node000005" class="node">
<title>Node5</title>
<g id="a_Node000005"><a xlink:href="boss_8c.html#a1d5fd526db9bbc3f5b70491cfc645818" target="_top" xlink:title=" ">
<polygon fill="white" stroke="#666666" points="654.25,-278 532.5,-278 532.5,-258 654.25,-258 654.25,-278"/>
<text xml:space="preserve" text-anchor="middle" x="593.38" y="-264.5" font-family="Helvetica,sans-Serif" font-size="10.00">get_player_world_center</text>
</a>
</g>
</g>
<!-- Node2&#45;&gt;Node5 -->
<g id="edge4_Node000002_Node000005" class="edge">
<title>Node2&#45;&gt;Node5</title>
<g id="a_edge4_Node000002_Node000005"><a xlink:title=" ">
<path fill="none" stroke="#63b8ff" d="M257,-237.43C274.1,-250.82 306.17,-273.34 338,-282 405.4,-300.33 486.44,-290.72 538.64,-280.66"/>
<polygon fill="#63b8ff" stroke="#63b8ff" points="539.05,-284.15 548.17,-278.75 537.68,-277.29 539.05,-284.15"/>
</a>
</g>
</g>
<!-- Node10 -->
<g id="Node000010" class="node">
<title>Node10</title>
<g id="a_Node000010"><a xlink:href="boss_8c.html#a73d03ed33f6dd919c2ab511246d454f9" target="_top" xlink:title=" ">
<polygon fill="white" stroke="#666666" points="488.25,-354 338,-354 338,-334 488.25,-334 488.25,-354"/>
<text xml:space="preserve" text-anchor="middle" x="413.12" y="-340.5" font-family="Helvetica,sans-Serif" font-size="10.00">invoquer_minions_autour_boss</text>
</a>
</g>
</g>
<!-- Node2&#45;&gt;Node10 -->
<g id="edge9_Node000002_Node000010" class="edge">
<title>Node2&#45;&gt;Node10</title>
<g id="a_edge9_Node000002_Node000010"><a xlink:title=" ">
<path fill="none" stroke="#63b8ff" d="M251.96,-237.24C266.56,-256.24 300.44,-297.1 338,-320 344.06,-323.7 350.76,-326.89 357.57,-329.62"/>
<polygon fill="#63b8ff" stroke="#63b8ff" points="356.28,-332.88 366.87,-333.03 358.69,-326.31 356.28,-332.88"/>
</a>
</g>
</g>
<!-- Node13 -->
<g id="Node000013" class="node">
<title>Node13</title>
<g id="a_Node000013"><a xlink:href="boss_8c.html#a848bc8291aee689be886bcc6a8c68456" target="_top" xlink:title=" ">
<polygon fill="white" stroke="#666666" points="469.5,-202 356.75,-202 356.75,-170 469.5,-170 469.5,-202"/>
<text xml:space="preserve" text-anchor="start" x="364.75" y="-188.5" font-family="Helvetica,sans-Serif" font-size="10.00">spawn_projectile_vers</text>
<text xml:space="preserve" text-anchor="middle" x="413.12" y="-176.5" font-family="Helvetica,sans-Serif" font-size="10.00">_joueur</text>
</a>
</g>
</g>
<!-- Node2&#45;&gt;Node13 -->
<g id="edge14_Node000002_Node000013" class="edge">
<title>Node2&#45;&gt;Node13</title>
<g id="a_edge14_Node000002_Node000013"><a xlink:title=" ">
<path fill="none" stroke="#63b8ff" d="M287.14,-216.55C304.83,-212.22 325.76,-207.11 345.39,-202.31"/>
<polygon fill="#63b8ff" stroke="#63b8ff" points="346.09,-205.74 354.97,-199.97 344.43,-198.94 346.09,-205.74"/>
</a>
</g>
</g>
<!-- Node6 -->
<g id="Node000006" class="node">
<title>Node6</title>
<g id="a_Node000006"><a xlink:href="main_8h.html#a6c672075bc554c92548a916c9501bdb5" target="_top" xlink:title=" ">
<polygon fill="white" stroke="#666666" points="786.5,-297 698.5,-297 698.5,-277 786.5,-277 786.5,-297"/>
<text xml:space="preserve" text-anchor="middle" x="742.5" y="-283.5" font-family="Helvetica,sans-Serif" font-size="10.00">screen_center_x</text>
</a>
</g>
</g>
<!-- Node5&#45;&gt;Node6 -->
<g id="edge5_Node000005_Node000006" class="edge">
<title>Node5&#45;&gt;Node6</title>
<g id="a_edge5_Node000005_Node000006"><a xlink:title=" ">
<path fill="none" stroke="#63b8ff" d="M654.64,-275.78C665.36,-277.17 676.48,-278.6 687.03,-279.97"/>
<polygon fill="#63b8ff" stroke="#63b8ff" points="686.34,-283.41 696.71,-281.22 687.24,-276.46 686.34,-283.41"/>
</a>
</g>
</g>
<!-- Node8 -->
<g id="Node000008" class="node">
<title>Node8</title>
<g id="a_Node000008"><a xlink:href="main_8h.html#a6456affd0d0a21e911b531a5ba25676d" target="_top" xlink:title=" ">
<polygon fill="white" stroke="#666666" points="786.5,-259 698.5,-259 698.5,-239 786.5,-239 786.5,-259"/>
<text xml:space="preserve" text-anchor="middle" x="742.5" y="-245.5" font-family="Helvetica,sans-Serif" font-size="10.00">screen_center_y</text>
</a>
</g>
</g>
<!-- Node5&#45;&gt;Node8 -->
<g id="edge7_Node000005_Node000008" class="edge">
<title>Node5&#45;&gt;Node8</title>
<g id="a_edge7_Node000005_Node000008"><a xlink:title=" ">
<path fill="none" stroke="#63b8ff" d="M654.64,-260.22C665.36,-258.83 676.48,-257.4 687.03,-256.03"/>
<polygon fill="#63b8ff" stroke="#63b8ff" points="687.24,-259.54 696.71,-254.78 686.34,-252.59 687.24,-259.54"/>
</a>
</g>
</g>
<!-- Node7 -->
<g id="Node000007" class="node">
<title>Node7</title>
<g id="a_Node000007"><a xlink:href="main_8h.html#aaaa1e9fcb86ff8e60b297faa7815ad1d" target="_top" xlink:title=" ">
<polygon fill="white" stroke="#666666" points="900.75,-297 824,-297 824,-277 900.75,-277 900.75,-297"/>
<text xml:space="preserve" text-anchor="middle" x="862.38" y="-283.5" font-family="Helvetica,sans-Serif" font-size="10.00">screen_widthf</text>
</a>
</g>
</g>
<!-- Node6&#45;&gt;Node7 -->
<g id="edge6_Node000006_Node000007" class="edge">
<title>Node6&#45;&gt;Node7</title>
<g id="a_edge6_Node000006_Node000007"><a xlink:title=" ">
<path fill="none" stroke="#63b8ff" d="M786.72,-287C795.03,-287 803.8,-287 812.28,-287"/>
<polygon fill="#63b8ff" stroke="#63b8ff" points="812.09,-290.5 822.09,-287 812.09,-283.5 812.09,-290.5"/>
</a>
</g>
</g>
<!-- Node9 -->
<g id="Node000009" class="node">
<title>Node9</title>
<g id="a_Node000009"><a xlink:href="main_8h.html#a9b4aefc63ea00e60ec88da19e24e8236" target="_top" xlink:title=" ">
<polygon fill="white" stroke="#666666" points="902.25,-259 822.5,-259 822.5,-239 902.25,-239 902.25,-259"/>
<text xml:space="preserve" text-anchor="middle" x="862.38" y="-245.5" font-family="Helvetica,sans-Serif" font-size="10.00">screen_heightf</text>
</a>
</g>
</g>
<!-- Node8&#45;&gt;Node9 -->
<g id="edge8_Node000008_Node000009" class="edge">
<title>Node8&#45;&gt;Node9</title>
<g id="a_edge8_Node000008_Node000009"><a xlink:title=" ">
<path fill="none" stroke="#63b8ff" d="M786.72,-249C794.49,-249 802.66,-249 810.62,-249"/>
<polygon fill="#63b8ff" stroke="#63b8ff" points="810.55,-252.5 820.55,-249 810.55,-245.5 810.55,-252.5"/>
</a>
</g>
</g>
<!-- Node10&#45;&gt;Node4 -->
<g id="edge11_Node000010_Node000004" class="edge">
<title>Node10&#45;&gt;Node4</title>
<g id="a_edge11_Node000010_Node000004"><a xlink:title=" ">
<path fill="none" stroke="#63b8ff" d="M425.82,-333.63C455.67,-307.18 534.93,-236.92 572.32,-203.78"/>
<polygon fill="#63b8ff" stroke="#63b8ff" points="574.57,-206.46 579.74,-197.2 569.93,-201.22 574.57,-206.46"/>
</a>
</g>
</g>
<!-- Node10&#45;&gt;Node5 -->
<g id="edge12_Node000010_Node000005" class="edge">
<title>Node10&#45;&gt;Node5</title>
<g id="a_edge12_Node000010_Node000005"><a xlink:title=" ">
<path fill="none" stroke="#63b8ff" d="M449.96,-333.59C462.24,-329.71 475.98,-325.02 488.25,-320 514.37,-309.32 542.98,-294.82 563.59,-283.84"/>
<polygon fill="#63b8ff" stroke="#63b8ff" points="565.1,-287 572.25,-279.18 561.78,-280.84 565.1,-287"/>
</a>
</g>
</g>
<!-- Node11 -->
<g id="Node000011" class="node">
<title>Node11</title>
<g id="a_Node000011"><a xlink:href="boss_8c.html#a68148695c18514e47188f05ec2791406" target="_top" xlink:title=" ">
<polygon fill="white" stroke="#666666" points="651.62,-335 535.12,-335 535.12,-315 651.62,-315 651.62,-335"/>
<text xml:space="preserve" text-anchor="middle" x="593.38" y="-321.5" font-family="Helvetica,sans-Serif" font-size="10.00">compter_minions_boss</text>
</a>
</g>
</g>
<!-- Node10&#45;&gt;Node11 -->
<g id="edge10_Node000010_Node000011" class="edge">
<title>Node10&#45;&gt;Node11</title>
<g id="a_edge10_Node000010_Node000011"><a xlink:title=" ">
<path fill="none" stroke="#63b8ff" d="M488.69,-336.05C500.21,-334.82 512.06,-333.56 523.45,-332.35"/>
<polygon fill="#63b8ff" stroke="#63b8ff" points="523.57,-335.85 533.15,-331.31 522.83,-328.89 523.57,-335.85"/>
</a>
</g>
</g>
<!-- Node12 -->
<g id="Node000012" class="node">
<title>Node12</title>
<g id="a_Node000012"><a xlink:href="boss_8c.html#a8767c1117982bce339be6b5bc5d105a4" target="_top" xlink:title=" ">
<polygon fill="white" stroke="#666666" points="662.5,-373 524.25,-373 524.25,-353 662.5,-353 662.5,-373"/>
<text xml:space="preserve" text-anchor="middle" x="593.38" y="-359.5" font-family="Helvetica,sans-Serif" font-size="10.00">get_texture_pawn_existante</text>
</a>
</g>
</g>
<!-- Node10&#45;&gt;Node12 -->
<g id="edge13_Node000010_Node000012" class="edge">
<title>Node10&#45;&gt;Node12</title>
<g id="a_edge13_Node000010_Node000012"><a xlink:title=" ">
<path fill="none" stroke="#63b8ff" d="M488.69,-351.95C496.51,-352.78 504.48,-353.63 512.36,-354.47"/>
<polygon fill="#63b8ff" stroke="#63b8ff" points="511.98,-357.95 522.3,-355.53 512.72,-350.99 511.98,-357.95"/>
</a>
</g>
</g>
<!-- Node13&#45;&gt;Node4 -->
<g id="edge15_Node000013_Node000004" class="edge">
<title>Node13&#45;&gt;Node4</title>
<g id="a_edge15_Node000013_Node000004"><a xlink:title=" ">
<path fill="none" stroke="#63b8ff" d="M469.55,-186C485.73,-186 503.65,-186 520.68,-186"/>
<polygon fill="#63b8ff" stroke="#63b8ff" points="520.21,-189.5 530.21,-186 520.21,-182.5 520.21,-189.5"/>
</a>
</g>
</g>
<!-- Node13&#45;&gt;Node5 -->
<g id="edge16_Node000013_Node000005" class="edge">
<title>Node13&#45;&gt;Node5</title>
<g id="a_edge16_Node000013_Node000005"><a xlink:title=" ">
<path fill="none" stroke="#63b8ff" d="M449.77,-202.4C481.76,-217.11 528.34,-238.54 559.46,-252.86"/>
<polygon fill="#63b8ff" stroke="#63b8ff" points="557.85,-255.97 568.4,-256.97 560.78,-249.61 557.85,-255.97"/>
</a>
</g>
</g>
<!-- Node14&#45;&gt;Node3 -->
<g id="edge18_Node000014_Node000003" class="edge">
<title>Node14&#45;&gt;Node3</title>
<g id="a_edge18_Node000014_Node000003"><a xlink:title=" ">
<path fill="none" stroke="#63b8ff" d="M284.13,-102.43C302.78,-107.32 325.49,-113.28 346.58,-118.81"/>
<polygon fill="#63b8ff" stroke="#63b8ff" points="345.4,-122.12 355.96,-121.27 347.18,-115.35 345.4,-122.12"/>
</a>
</g>
</g>
<!-- Node14&#45;&gt;Node4 -->
<g id="edge22_Node000014_Node000004" class="edge">
<title>Node14&#45;&gt;Node4</title>
<g id="a_edge22_Node000014_Node000004"><a xlink:title=" ">
<path fill="none" stroke="#63b8ff" d="M275.92,-81.6C323.92,-67.62 417.21,-47.81 488.25,-78 530.39,-95.91 563.75,-140.14 580.52,-166.11"/>
<polygon fill="#63b8ff" stroke="#63b8ff" points="577.43,-167.76 585.69,-174.4 583.37,-164.06 577.43,-167.76"/>
</a>
</g>
</g>
<!-- Node14&#45;&gt;Node5 -->
<g id="edge23_Node000014_Node000005" class="edge">
<title>Node14&#45;&gt;Node5</title>
<g id="a_edge23_Node000014_Node000005"><a xlink:title=" ">
<path fill="none" stroke="#63b8ff" d="M291.9,-89.86C353.97,-88.04 458.26,-88.61 488.25,-111 524.1,-137.77 499.17,-167.95 524.25,-205 536.33,-222.84 554.37,-239.23 568.86,-250.82"/>
<polygon fill="#63b8ff" stroke="#63b8ff" points="566.51,-253.43 576.57,-256.78 570.8,-247.89 566.51,-253.43"/>
</a>
</g>
</g>
<!-- Node15 -->
<g id="Node000015" class="node">
<title>Node15</title>
<g id="a_Node000015"><a xlink:href="boss_8c.html#a1605a1af145e7f0bc025e2c9c51d5ab9" target="_top" xlink:title=" ">
<polygon fill="white" stroke="#666666" points="475.5,-26 350.75,-26 350.75,-6 475.5,-6 475.5,-26"/>
<text xml:space="preserve" text-anchor="middle" x="413.12" y="-12.5" font-family="Helvetica,sans-Serif" font-size="10.00">deplacer_minotaure_vers</text>
</a>
</g>
</g>
<!-- Node14&#45;&gt;Node15 -->
<g id="edge19_Node000014_Node000015" class="edge">
<title>Node14&#45;&gt;Node15</title>
<g id="a_edge19_Node000014_Node000015"><a xlink:title=" ">
<path fill="none" stroke="#63b8ff" d="M260.79,-81.6C279.1,-70.3 309.86,-52.23 338,-40 346.38,-36.36 355.5,-32.97 364.38,-29.95"/>
<polygon fill="#63b8ff" stroke="#63b8ff" points="365.18,-33.37 373.59,-26.93 363,-26.72 365.18,-33.37"/>
</a>
</g>
</g>
<!-- Node15&#45;&gt;Node4 -->
<g id="edge20_Node000015_Node000004" class="edge">
<title>Node15&#45;&gt;Node4</title>
<g id="a_edge20_Node000015_Node000004"><a xlink:title=" ">
<path fill="none" stroke="#63b8ff" d="M461.78,-26.45C471.09,-29.83 480.39,-34.24 488.25,-40 534.33,-73.75 567.84,-134.12 583.13,-165.61"/>
<polygon fill="#63b8ff" stroke="#63b8ff" points="579.86,-166.88 587.29,-174.43 586.19,-163.9 579.86,-166.88"/>
</a>
</g>
</g>
<!-- Node16 -->
<g id="Node000016" class="node">
<title>Node16</title>
<g id="a_Node000016"><a xlink:href="boss_8c.html#ae7410e9e2b5e0ca0b415b422f2da9c79" target="_top" xlink:title=" ">
<polygon fill="white" stroke="#666666" points="642.25,-32 544.5,-32 544.5,0 642.25,0 642.25,-32"/>
<text xml:space="preserve" text-anchor="start" x="552.5" y="-18.5" font-family="Helvetica,sans-Serif" font-size="10.00">minotaure_position</text>
<text xml:space="preserve" text-anchor="middle" x="593.38" y="-6.5" font-family="Helvetica,sans-Serif" font-size="10.00">_libre_centre</text>
</a>
</g>
</g>
<!-- Node15&#45;&gt;Node16 -->
<g id="edge21_Node000015_Node000016" class="edge">
<title>Node15&#45;&gt;Node16</title>
<g id="a_edge21_Node000015_Node000016"><a xlink:title=" ">
<path fill="none" stroke="#63b8ff" d="M475.97,-16C494.37,-16 514.48,-16 532.74,-16"/>
<polygon fill="#63b8ff" stroke="#63b8ff" points="532.62,-19.5 542.62,-16 532.62,-12.5 532.62,-19.5"/>
</a>
</g>
</g>
<!-- Node17&#45;&gt;Node3 -->
<g id="edge25_Node000017_Node000003" class="edge">
<title>Node17&#45;&gt;Node3</title>
<g id="a_edge25_Node000017_Node000003"><a xlink:title=" ">
<path fill="none" stroke="#63b8ff" d="M279.54,-175.52C298.94,-169.74 323.67,-162.37 346.5,-155.56"/>
<polygon fill="#63b8ff" stroke="#63b8ff" points="347.49,-158.92 356.07,-152.71 345.49,-152.21 347.49,-158.92"/>
</a>
</g>
</g>
<!-- Node17&#45;&gt;Node5 -->
<g id="edge26_Node000017_Node000005" class="edge">
<title>Node17&#45;&gt;Node5</title>
<g id="a_edge26_Node000017_Node000005"><a xlink:title=" ">
<path fill="none" stroke="#63b8ff" d="M282.1,-196.45C299.13,-201.07 319.54,-206.47 338,-211 404.13,-227.23 480.4,-244.07 532.04,-255.2"/>
<polygon fill="#63b8ff" stroke="#63b8ff" points="531,-258.56 541.52,-257.24 532.48,-251.71 531,-258.56"/>
</a>
</g>
</g>
<!-- Node17&#45;&gt;Node13 -->
<g id="edge27_Node000017_Node000013" class="edge">
<title>Node17&#45;&gt;Node13</title>
<g id="a_edge27_Node000017_Node000013"><a xlink:title=" ">
<path fill="none" stroke="#63b8ff" d="M291.1,-186C307.8,-186 326.96,-186 345.04,-186"/>
<polygon fill="#63b8ff" stroke="#63b8ff" points="344.91,-189.5 354.91,-186 344.91,-182.5 344.91,-189.5"/>
</a>
</g>
</g>
</g>
</svg>
