<?xml version="1.0" encoding="UTF-8" standalone="no"?>
<!DOCTYPE svg PUBLIC "-//W3C//DTD SVG 1.1//EN"
 "http://www.w3.org/Graphics/SVG/1.1/DTD/svg11.dtd">
<!-- Generated by graphviz version 14.1.4 (20260321.0153)
 -->
<!-- Title: update_projectiles Pages: 1 -->
<svg width="611pt" height="142pt"
 viewBox="0.00 0.00 611.00 142.00" xmlns="http://www.w3.org/2000/svg" xmlns:xlink="http://www.w3.org/1999/xlink">
<g id="graph0" class="graph" transform="scale(1 1) rotate(0) translate(4 138)">
<title>update_projectiles</title>
<!-- Node1 -->
<g id="Node000001" class="node">
<title>Node1</title>
<g id="a_Node000001"><a xlink:title=" ">
<polygon fill="#999999" stroke="#666666" points="94.75,-77 0,-77 0,-57 94.75,-57 94.75,-77"/>
<text xml:space="preserve" text-anchor="middle" x="47.38" y="-63.5" font-family="Helvetica,sans-Serif" font-size="10.00">update_projectiles</text>
</a>
</g>
</g>
<!-- Node2 -->
<g id="Node000002" class="node">
<title>Node2</title>
<g id="a_Node000002"><a xlink:href="boss_8c.html#abdd4c54b66ea8d0ee227b3c01036670f" target="_top" xlink:title=" ">
<polygon fill="white" stroke="#666666" points="251.75,-134 130.75,-134 130.75,-114 251.75,-114 251.75,-134"/>
<text xml:space="preserve" text-anchor="middle" x="191.25" y="-120.5" font-family="Helvetica,sans-Serif" font-size="10.00">appliquer_degats_joueur</text>
</a>
</g>
</g>
<!-- Node1&#45;&gt;Node2 -->
<g id="edge1_Node000001_Node000002" class="edge">
<title>Node1&#45;&gt;Node2</title>
<g id="a_edge1_Node000001_Node000002"><a xlink:title=" ">
<path fill="none" stroke="#63b8ff" d="M69.06,-77.41C85.54,-85.48 109.32,-96.67 130.75,-105 135.13,-106.7 139.73,-108.37 144.35,-109.97"/>
<polygon fill="#63b8ff" stroke="#63b8ff" points="143.05,-113.23 153.64,-113.08 145.27,-106.59 143.05,-113.23"/>
</a>
</g>
</g>
<!-- Node6 -->
<g id="Node000006" class="node">
<title>Node6</title>
<g id="a_Node000006"><a xlink:href="boss_8c.html#aca79e3fbdb8a06a38d6543de2eb5813b" target="_top" xlink:title=" ">
<polygon fill="white" stroke="#666666" points="249.5,-96 133,-96 133,-76 249.5,-76 249.5,-96"/>
<text xml:space="preserve" text-anchor="middle" x="191.25" y="-82.5" font-family="Helvetica,sans-Serif" font-size="10.00">get_boss_hitbox_ecran</text>
</a>
</g>
</g>
<!-- Node1&#45;&gt;Node6 -->
<g id="edge5_Node000001_Node000006" class="edge">
<title>Node1&#45;&gt;Node6</title>
<g id="a_edge5_Node000001_Node000006"><a xlink:title=" ">
<path fill="none" stroke="#63b8ff" d="M95.22,-73.27C103.62,-74.4 112.53,-75.59 121.4,-76.78"/>
<polygon fill="#63b8ff" stroke="#63b8ff" points="120.69,-80.22 131.07,-78.07 121.62,-73.28 120.69,-80.22"/>
</a>
</g>
</g>
<!-- Node7 -->
<g id="Node000007" class="node">
<title>Node7</title>
<g id="a_Node000007"><a xlink:href="main_8h.html#a6c672075bc554c92548a916c9501bdb5" target="_top" xlink:title=" ">
<polygon fill="white" stroke="#666666" points="235.25,-58 147.25,-58 147.25,-38 235.25,-38 235.25,-58"/>
<text xml:space="preserve" text-anchor="middle" x="191.25" y="-44.5" font-family="Helvetica,sans-Serif" font-size="10.00">screen_center_x</text>
</a>
</g>
</g>
<!-- Node1&#45;&gt;Node7 -->
<g id="edge6_Node000001_Node000007" class="edge">
<title>Node1&#45;&gt;Node7</title>
<g id="a_edge6_Node000001_Node000007"><a xlink:title=" ">
<path fill="none" stroke="#63b8ff" d="M95.22,-60.73C108.08,-59 122.14,-57.12 135.41,-55.34"/>
<polygon fill="#63b8ff" stroke="#63b8ff" points="135.86,-58.81 145.31,-54.02 134.93,-51.88 135.86,-58.81"/>
</a>
</g>
</g>
<!-- Node9 -->
<g id="Node000009" class="node">
<title>Node9</title>
<g id="a_Node000009"><a xlink:href="main_8h.html#a6456affd0d0a21e911b531a5ba25676d" target="_top" xlink:title=" ">
<polygon fill="white" stroke="#666666" points="235.25,-20 147.25,-20 147.25,0 235.25,0 235.25,-20"/>
<text xml:space="preserve" text-anchor="middle" x="191.25" y="-6.5" font-family="Helvetica,sans-Serif" font-size="10.00">screen_center_y</text>
</a>
</g>
</g>
<!-- Node1&#45;&gt;Node9 -->
<g id="edge8_Node000001_Node000009" class="edge">
<title>Node1&#45;&gt;Node9</title>
<g id="a_edge8_Node000001_Node000009"><a xlink:title=" ">
<path fill="none" stroke="#63b8ff" d="M69.06,-56.59C85.54,-48.52 109.32,-37.33 130.75,-29 135.13,-27.3 139.73,-25.63 144.35,-24.03"/>
<polygon fill="#63b8ff" stroke="#63b8ff" points="145.27,-27.41 153.64,-20.92 143.05,-20.77 145.27,-27.41"/>
</a>
</g>
</g>
<!-- Node3 -->
<g id="Node000003" class="node">
<title>Node3</title>
<g id="a_Node000003"><a xlink:href="son_8c.html#ae145ae699cc1eecf0684bdd530bd26f0" target="_top" xlink:title="Charge (ou recupere du cache) puis joue une piste audio.">
<polygon fill="white" stroke="#666666" points="356.62,-134 298.62,-134 298.62,-114 356.62,-114 356.62,-134"/>
<text xml:space="preserve" text-anchor="middle" x="327.62" y="-120.5" font-family="Helvetica,sans-Serif" font-size="10.00">jouer_son</text>
</a>
</g>
</g>
<!-- Node2&#45;&gt;Node3 -->
<g id="edge2_Node000002_Node000003" class="edge">
<title>Node2&#45;&gt;Node3</title>
<g id="a_edge2_Node000002_Node000003"><a xlink:title=" ">
<path fill="none" stroke="#63b8ff" d="M251.97,-124C263.81,-124 275.96,-124 286.93,-124"/>
<polygon fill="#63b8ff" stroke="#63b8ff" points="286.79,-127.5 296.79,-124 286.79,-120.5 286.79,-127.5"/>
</a>
</g>
</g>
<!-- Node4 -->
<g id="Node000004" class="node">
<title>Node4</title>
<g id="a_Node000004"><a xlink:href="son_8c.html#ad0d6e981433bdc8e4291e672fa8c039b" target="_top" xlink:title=" ">
<polygon fill="white" stroke="#666666" points="481,-134 403.5,-134 403.5,-114 481,-114 481,-134"/>
<text xml:space="preserve" text-anchor="middle" x="442.25" y="-120.5" font-family="Helvetica,sans-Serif" font-size="10.00">recuperer_son</text>
</a>
</g>
</g>
<!-- Node3&#45;&gt;Node4 -->
<g id="edge3_Node000003_Node000004" class="edge">
<title>Node3&#45;&gt;Node4</title>
<g id="a_edge3_Node000003_Node000004"><a xlink:title=" ">
<path fill="none" stroke="#63b8ff" d="M357.05,-124C367.61,-124 379.93,-124 391.84,-124"/>
<polygon fill="#63b8ff" stroke="#63b8ff" points="391.54,-127.5 401.54,-124 391.54,-120.5 391.54,-127.5"/>
</a>
</g>
</g>
<!-- Node5 -->
<g id="Node000005" class="node">
<title>Node5</title>
<g id="a_Node000005"><a xlink:href="son_8c.html#aad43af6485e6418e4f26007ec64dba14" target="_top" xlink:title=" ">
<polygon fill="white" stroke="#666666" points="602.75,-134 517,-134 517,-114 602.75,-114 602.75,-134"/>
<text xml:space="preserve" text-anchor="middle" x="559.88" y="-120.5" font-family="Helvetica,sans-Serif" font-size="10.00">recuperer_mixer</text>
</a>
</g>
</g>
<!-- Node4&#45;&gt;Node5 -->
<g id="edge4_Node000004_Node000005" class="edge">
<title>Node4&#45;&gt;Node5</title>
<g id="a_edge4_Node000004_Node000005"><a xlink:title=" ">
<path fill="none" stroke="#63b8ff" d="M481.43,-124C489.12,-124 497.34,-124 505.44,-124"/>
<polygon fill="#63b8ff" stroke="#63b8ff" points="505.23,-127.5 515.23,-124 505.23,-120.5 505.23,-127.5"/>
</a>
</g>
</g>
<!-- Node8 -->
<g id="Node000008" class="node">
<title>Node8</title>
<g id="a_Node000008"><a xlink:href="main_8h.html#aaaa1e9fcb86ff8e60b297faa7815ad1d" target="_top" xlink:title=" ">
<polygon fill="white" stroke="#666666" points="366,-58 289.25,-58 289.25,-38 366,-38 366,-58"/>
<text xml:space="preserve" text-anchor="middle" x="327.62" y="-44.5" font-family="Helvetica,sans-Serif" font-size="10.00">screen_widthf</text>
</a>
</g>
</g>
<!-- Node7&#45;&gt;Node8 -->
<g id="edge7_Node000007_Node000008" class="edge">
<title>Node7&#45;&gt;Node8</title>
<g id="a_edge7_Node000007_Node000008"><a xlink:title=" ">
<path fill="none" stroke="#63b8ff" d="M235.51,-48C248.93,-48 263.83,-48 277.62,-48"/>
<polygon fill="#63b8ff" stroke="#63b8ff" points="277.37,-51.5 287.37,-48 277.37,-44.5 277.37,-51.5"/>
</a>
</g>
</g>
<!-- Node10 -->
<g id="Node000010" class="node">
<title>Node10</title>
<g id="a_Node000010"><a xlink:href="main_8h.html#a9b4aefc63ea00e60ec88da19e24e8236" target="_top" xlink:title=" ">
<polygon fill="white" stroke="#666666" points="367.5,-20 287.75,-20 287.75,0 367.5,0 367.5,-20"/>
<text xml:space="preserve" text-anchor="middle" x="327.62" y="-6.5" font-family="Helvetica,sans-Serif" font-size="10.00">screen_heightf</text>
</a>
</g>
</g>
<!-- Node9&#45;&gt;Node10 -->
<g id="edge9_Node000009_Node000010" class="edge">
<title>Node9&#45;&gt;Node10</title>
<g id="a_edge9_Node000009_Node000010"><a xlink:title=" ">
<path fill="none" stroke="#63b8ff" d="M235.51,-10C248.44,-10 262.74,-10 276.1,-10"/>
<polygon fill="#63b8ff" stroke="#63b8ff" points="276.03,-13.5 286.03,-10 276.03,-6.5 276.03,-13.5"/>
</a>
</g>
</g>
</g>
</svg>
