<?xml version="1.0" encoding="UTF-8" standalone="no"?>
<!DOCTYPE svg PUBLIC "-//W3C//DTD SVG 1.1//EN"
 "http://www.w3.org/Graphics/SVG/1.1/DTD/svg11.dtd">
<!-- Generated by graphviz version 14.1.4 (20260321.0153)
 -->
<!-- Title: deplacer_minotaure_vers Pages: 1 -->
<svg width="291pt" height="78pt"
 viewBox="0.00 0.00 291.00 78.00" xmlns="http://www.w3.org/2000/svg" xmlns:xlink="http://www.w3.org/1999/xlink">
<g id="graph0" class="graph" transform="scale(1 1) rotate(0) translate(4 74)">
<title>deplacer_minotaure_vers</title>
<!-- Node1 -->
<g id="Node000001" class="node">
<title>Node1</title>
<g id="a_Node000001"><a xlink:title=" ">
<polygon fill="#999999" stroke="#666666" points="124.75,-48 0,-48 0,-28 124.75,-28 124.75,-48"/>
<text xml:space="preserve" text-anchor="middle" x="62.38" y="-34.5" font-family="Helvetica,sans-Serif" font-size="10.00">deplacer_minotaure_vers</text>
</a>
</g>
</g>
<!-- Node2 -->
<g id="Node000002" class="node">
<title>Node2</title>
<g id="a_Node000002"><a xlink:href="boss_8c.html#afb0b61469efd6dce1e15a516cb9e4115" target="_top" xlink:title=" ">
<polygon fill="white" stroke="#666666" points="283.25,-70 160.75,-70 160.75,-50 283.25,-50 283.25,-70"/>
<text xml:space="preserve" text-anchor="middle" x="222" y="-56.5" font-family="Helvetica,sans-Serif" font-size="10.00">get_boss_centre_monde</text>
</a>
</g>
</g>
<!-- Node1&#45;&gt;Node2 -->
<g id="edge1_Node000001_Node000002" class="edge">
<title>Node1&#45;&gt;Node2</title>
<g id="a_edge1_Node000001_Node000002"><a xlink:title=" ">
<path fill="none" stroke="#63b8ff" d="M125.22,-46.63C133.08,-47.73 141.17,-48.86 149.16,-49.97"/>
<polygon fill="#63b8ff" stroke="#63b8ff" points="148.48,-53.41 158.87,-51.33 149.45,-46.48 148.48,-53.41"/>
</a>
</g>
</g>
<!-- Node3 -->
<g id="Node000003" class="node">
<title>Node3</title>
<g id="a_Node000003"><a xlink:href="boss_8c.html#ae7410e9e2b5e0ca0b415b422f2da9c79" target="_top" xlink:title=" ">
<polygon fill="white" stroke="#666666" points="270.88,-32 173.12,-32 173.12,0 270.88,0 270.88,-32"/>
<text xml:space="preserve" text-anchor="start" x="181.12" y="-18.5" font-family="Helvetica,sans-Serif" font-size="10.00">minotaure_position</text>
<text xml:space="preserve" text-anchor="middle" x="222" y="-6.5" font-family="Helvetica,sans-Serif" font-size="10.00">_libre_centre</text>
</a>
</g>
</g>
<!-- Node1&#45;&gt;Node3 -->
<g id="edge2_Node000001_Node000003" class="edge">
<title>Node1&#45;&gt;Node3</title>
<g id="a_edge2_Node000001_Node000003"><a xlink:title=" ">
<path fill="none" stroke="#63b8ff" d="M125.22,-29.37C137.25,-27.69 149.83,-25.93 161.77,-24.27"/>
<polygon fill="#63b8ff" stroke="#63b8ff" points="162.06,-27.76 171.48,-22.91 161.09,-20.83 162.06,-27.76"/>
</a>
</g>
</g>
</g>
</svg>
