<?xml version="1.0" encoding="UTF-8" standalone="no"?>
<!DOCTYPE svg PUBLIC "-//W3C//DTD SVG 1.1//EN"
 "http://www.w3.org/Graphics/SVG/1.1/DTD/svg11.dtd">
<!-- Generated by graphviz version 14.1.4 (20260321.0153)
 -->
<!-- Title: attaque_demon_de_feu Pages: 1 -->
<svg width="726pt" height="242pt"
 viewBox="0.00 0.00 726.00 242.00" xmlns="http://www.w3.org/2000/svg" xmlns:xlink="http://www.w3.org/1999/xlink">
<g id="graph0" class="graph" transform="scale(1 1) rotate(0) translate(4 238)">
<title>attaque_demon_de_feu</title>
<!-- Node1 -->
<g id="Node000001" class="node">
<title>Node1</title>
<g id="a_Node000001"><a xlink:title=" ">
<polygon fill="#999999" stroke="#666666" points="117.25,-140 0,-140 0,-120 117.25,-120 117.25,-140"/>
<text xml:space="preserve" text-anchor="middle" x="58.62" y="-126.5" font-family="Helvetica,sans-Serif" font-size="10.00">attaque_demon_de_feu</text>
</a>
</g>
</g>
<!-- Node2 -->
<g id="Node000002" class="node">
<title>Node2</title>
<g id="a_Node000002"><a xlink:href="boss_8c.html#a7a2624259975aba5659ef69da7dd85ac" target="_top" xlink:title=" ">
<polygon fill="white" stroke="#666666" points="283.62,-234 173.12,-234 173.12,-202 283.62,-202 283.62,-234"/>
<text xml:space="preserve" text-anchor="start" x="181.12" y="-220.5" font-family="Helvetica,sans-Serif" font-size="10.00">declencher_animation</text>
<text xml:space="preserve" text-anchor="middle" x="228.38" y="-208.5" font-family="Helvetica,sans-Serif" font-size="10.00">_attaque</text>
</a>
</g>
</g>
<!-- Node1&#45;&gt;Node2 -->
<g id="edge1_Node000001_Node000002" class="edge">
<title>Node1&#45;&gt;Node2</title>
<g id="a_edge1_Node000001_Node000002"><a xlink:title=" ">
<path fill="none" stroke="#63b8ff" d="M74.73,-140.48C92.86,-152.78 124.43,-173.38 153.25,-188 159.51,-191.17 166.18,-194.26 172.86,-197.18"/>
<polygon fill="#63b8ff" stroke="#63b8ff" points="171.35,-200.34 181.92,-201.01 174.08,-193.89 171.35,-200.34"/>
</a>
</g>
</g>
<!-- Node3 -->
<g id="Node000003" class="node">
<title>Node3</title>
<g id="a_Node000003"><a xlink:href="boss_8c.html#afb0b61469efd6dce1e15a516cb9e4115" target="_top" xlink:title=" ">
<polygon fill="white" stroke="#666666" points="469.88,-140 347.38,-140 347.38,-120 469.88,-120 469.88,-140"/>
<text xml:space="preserve" text-anchor="middle" x="408.62" y="-126.5" font-family="Helvetica,sans-Serif" font-size="10.00">get_boss_centre_monde</text>
</a>
</g>
</g>
<!-- Node1&#45;&gt;Node3 -->
<g id="edge2_Node000001_Node000003" class="edge">
<title>Node1&#45;&gt;Node3</title>
<g id="a_edge2_Node000001_Node000003"><a xlink:title=" ">
<path fill="none" stroke="#63b8ff" d="M90.42,-140.4C108.49,-145.95 131.9,-152.2 153.25,-155 219.46,-163.69 237.19,-162.85 303.5,-155 322.98,-152.69 344.09,-148.04 362.17,-143.37"/>
<polygon fill="#63b8ff" stroke="#63b8ff" points="363.07,-146.76 371.82,-140.79 361.26,-139.99 363.07,-146.76"/>
</a>
</g>
</g>
<!-- Node4 -->
<g id="Node000004" class="node">
<title>Node4</title>
<g id="a_Node000004"><a xlink:href="boss_8c.html#a1d5fd526db9bbc3f5b70491cfc645818" target="_top" xlink:title=" ">
<polygon fill="white" stroke="#666666" points="469.5,-96 347.75,-96 347.75,-76 469.5,-76 469.5,-96"/>
<text xml:space="preserve" text-anchor="middle" x="408.62" y="-82.5" font-family="Helvetica,sans-Serif" font-size="10.00">get_player_world_center</text>
</a>
</g>
</g>
<!-- Node1&#45;&gt;Node4 -->
<g id="edge3_Node000001_Node000004" class="edge">
<title>Node1&#45;&gt;Node4</title>
<g id="a_edge3_Node000001_Node000004"><a xlink:title=" ">
<path fill="none" stroke="#63b8ff" d="M92.66,-119.57C110.44,-114.36 132.85,-108.45 153.25,-105 214.44,-94.64 284.88,-89.93 336.09,-87.78"/>
<polygon fill="#63b8ff" stroke="#63b8ff" points="336,-91.29 345.85,-87.4 335.72,-84.3 336,-91.29"/>
</a>
</g>
</g>
<!-- Node9 -->
<g id="Node000009" class="node">
<title>Node9</title>
<g id="a_Node000009"><a xlink:href="boss_8c.html#a73d03ed33f6dd919c2ab511246d454f9" target="_top" xlink:title=" ">
<polygon fill="white" stroke="#666666" points="303.5,-58 153.25,-58 153.25,-38 303.5,-38 303.5,-58"/>
<text xml:space="preserve" text-anchor="middle" x="228.38" y="-44.5" font-family="Helvetica,sans-Serif" font-size="10.00">invoquer_minions_autour_boss</text>
</a>
</g>
</g>
<!-- Node1&#45;&gt;Node9 -->
<g id="edge8_Node000001_Node000009" class="edge">
<title>Node1&#45;&gt;Node9</title>
<g id="a_edge8_Node000001_Node000009"><a xlink:title=" ">
<path fill="none" stroke="#63b8ff" d="M73.92,-119.61C91.78,-107.01 123.58,-85.75 153.25,-72 161.1,-68.36 169.66,-65.04 178.07,-62.11"/>
<polygon fill="#63b8ff" stroke="#63b8ff" points="179.17,-65.44 187.55,-58.96 176.96,-58.79 179.17,-65.44"/>
</a>
</g>
</g>
<!-- Node12 -->
<g id="Node000012" class="node">
<title>Node12</title>
<g id="a_Node000012"><a xlink:href="boss_8c.html#a848bc8291aee689be886bcc6a8c68456" target="_top" xlink:title=" ">
<polygon fill="white" stroke="#666666" points="284.75,-146 172,-146 172,-114 284.75,-114 284.75,-146"/>
<text xml:space="preserve" text-anchor="start" x="180" y="-132.5" font-family="Helvetica,sans-Serif" font-size="10.00">spawn_projectile_vers</text>
<text xml:space="preserve" text-anchor="middle" x="228.38" y="-120.5" font-family="Helvetica,sans-Serif" font-size="10.00">_joueur</text>
</a>
</g>
</g>
<!-- Node1&#45;&gt;Node12 -->
<g id="edge13_Node000001_Node000012" class="edge">
<title>Node1&#45;&gt;Node12</title>
<g id="a_edge13_Node000001_Node000012"><a xlink:title=" ">
<path fill="none" stroke="#63b8ff" d="M117.36,-130C131.19,-130 146.08,-130 160.3,-130"/>
<polygon fill="#63b8ff" stroke="#63b8ff" points="160.01,-133.5 170.01,-130 160.01,-126.5 160.01,-133.5"/>
</a>
</g>
</g>
<!-- Node5 -->
<g id="Node000005" class="node">
<title>Node5</title>
<g id="a_Node000005"><a xlink:href="main_8h.html#a6c672075bc554c92548a916c9501bdb5" target="_top" xlink:title=" ">
<polygon fill="white" stroke="#666666" points="601.75,-115 513.75,-115 513.75,-95 601.75,-95 601.75,-115"/>
<text xml:space="preserve" text-anchor="middle" x="557.75" y="-101.5" font-family="Helvetica,sans-Serif" font-size="10.00">screen_center_x</text>
</a>
</g>
</g>
<!-- Node4&#45;&gt;Node5 -->
<g id="edge4_Node000004_Node000005" class="edge">
<title>Node4&#45;&gt;Node5</title>
<g id="a_edge4_Node000004_Node000005"><a xlink:title=" ">
<path fill="none" stroke="#63b8ff" d="M469.89,-93.78C480.61,-95.17 491.73,-96.6 502.28,-97.97"/>
<polygon fill="#63b8ff" stroke="#63b8ff" points="501.59,-101.41 511.96,-99.22 502.49,-94.46 501.59,-101.41"/>
</a>
</g>
</g>
<!-- Node7 -->
<g id="Node000007" class="node">
<title>Node7</title>
<g id="a_Node000007"><a xlink:href="main_8h.html#a6456affd0d0a21e911b531a5ba25676d" target="_top" xlink:title=" ">
<polygon fill="white" stroke="#666666" points="601.75,-77 513.75,-77 513.75,-57 601.75,-57 601.75,-77"/>
<text xml:space="preserve" text-anchor="middle" x="557.75" y="-63.5" font-family="Helvetica,sans-Serif" font-size="10.00">screen_center_y</text>
</a>
</g>
</g>
<!-- Node4&#45;&gt;Node7 -->
<g id="edge6_Node000004_Node000007" class="edge">
<title>Node4&#45;&gt;Node7</title>
<g id="a_edge6_Node000004_Node000007"><a xlink:title=" ">
<path fill="none" stroke="#63b8ff" d="M469.89,-78.22C480.61,-76.83 491.73,-75.4 502.28,-74.03"/>
<polygon fill="#63b8ff" stroke="#63b8ff" points="502.49,-77.54 511.96,-72.78 501.59,-70.59 502.49,-77.54"/>
</a>
</g>
</g>
<!-- Node6 -->
<g id="Node000006" class="node">
<title>Node6</title>
<g id="a_Node000006"><a xlink:href="main_8h.html#aaaa1e9fcb86ff8e60b297faa7815ad1d" target="_top" xlink:title=" ">
<polygon fill="white" stroke="#666666" points="716,-115 639.25,-115 639.25,-95 716,-95 716,-115"/>
<text xml:space="preserve" text-anchor="middle" x="677.62" y="-101.5" font-family="Helvetica,sans-Serif" font-size="10.00">screen_widthf</text>
</a>
</g>
</g>
<!-- Node5&#45;&gt;Node6 -->
<g id="edge5_Node000005_Node000006" class="edge">
<title>Node5&#45;&gt;Node6</title>
<g id="a_edge5_Node000005_Node000006"><a xlink:title=" ">
<path fill="none" stroke="#63b8ff" d="M601.97,-105C610.28,-105 619.05,-105 627.53,-105"/>
<polygon fill="#63b8ff" stroke="#63b8ff" points="627.34,-108.5 637.34,-105 627.34,-101.5 627.34,-108.5"/>
</a>
</g>
</g>
<!-- Node8 -->
<g id="Node000008" class="node">
<title>Node8</title>
<g id="a_Node000008"><a xlink:href="main_8h.html#a9b4aefc63ea00e60ec88da19e24e8236" target="_top" xlink:title=" ">
<polygon fill="white" stroke="#666666" points="717.5,-77 637.75,-77 637.75,-57 717.5,-57 717.5,-77"/>
<text xml:space="preserve" text-anchor="middle" x="677.62" y="-63.5" font-family="Helvetica,sans-Serif" font-size="10.00">screen_heightf</text>
</a>
</g>
</g>
<!-- Node7&#45;&gt;Node8 -->
<g id="edge7_Node000007_Node000008" class="edge">
<title>Node7&#45;&gt;Node8</title>
<g id="a_edge7_Node000007_Node000008"><a xlink:title=" ">
<path fill="none" stroke="#63b8ff" d="M601.97,-67C609.74,-67 617.91,-67 625.87,-67"/>
<polygon fill="#63b8ff" stroke="#63b8ff" points="625.8,-70.5 635.8,-67 625.8,-63.5 625.8,-70.5"/>
</a>
</g>
</g>
<!-- Node9&#45;&gt;Node3 -->
<g id="edge10_Node000009_Node000003" class="edge">
<title>Node9&#45;&gt;Node3</title>
<g id="a_edge10_Node000009_Node000003"><a xlink:title=" ">
<path fill="none" stroke="#63b8ff" d="M247.73,-58.41C269.32,-70.43 306.4,-90.43 339.5,-105 348.03,-108.75 357.31,-112.42 366.2,-115.75"/>
<polygon fill="#63b8ff" stroke="#63b8ff" points="364.76,-118.95 375.36,-119.09 367.16,-112.37 364.76,-118.95"/>
</a>
</g>
</g>
<!-- Node9&#45;&gt;Node4 -->
<g id="edge11_Node000009_Node000004" class="edge">
<title>Node9&#45;&gt;Node4</title>
<g id="a_edge11_Node000009_Node000004"><a xlink:title=" ">
<path fill="none" stroke="#63b8ff" d="M278.55,-58.48C299.89,-63.03 325.07,-68.4 347.5,-73.18"/>
<polygon fill="#63b8ff" stroke="#63b8ff" points="346.62,-76.57 357.13,-75.23 348.08,-69.73 346.62,-76.57"/>
</a>
</g>
</g>
<!-- Node10 -->
<g id="Node000010" class="node">
<title>Node10</title>
<g id="a_Node000010"><a xlink:href="boss_8c.html#a68148695c18514e47188f05ec2791406" target="_top" xlink:title=" ">
<polygon fill="white" stroke="#666666" points="466.88,-58 350.38,-58 350.38,-38 466.88,-38 466.88,-58"/>
<text xml:space="preserve" text-anchor="middle" x="408.62" y="-44.5" font-family="Helvetica,sans-Serif" font-size="10.00">compter_minions_boss</text>
</a>
</g>
</g>
<!-- Node9&#45;&gt;Node10 -->
<g id="edge9_Node000009_Node000010" class="edge">
<title>Node9&#45;&gt;Node10</title>
<g id="a_edge9_Node000009_Node000010"><a xlink:title=" ">
<path fill="none" stroke="#63b8ff" d="M303.94,-48C315.46,-48 327.31,-48 338.7,-48"/>
<polygon fill="#63b8ff" stroke="#63b8ff" points="338.39,-51.5 348.39,-48 338.39,-44.5 338.39,-51.5"/>
</a>
</g>
</g>
<!-- Node11 -->
<g id="Node000011" class="node">
<title>Node11</title>
<g id="a_Node000011"><a xlink:href="boss_8c.html#a8767c1117982bce339be6b5bc5d105a4" target="_top" xlink:title=" ">
<polygon fill="white" stroke="#666666" points="477.75,-20 339.5,-20 339.5,0 477.75,0 477.75,-20"/>
<text xml:space="preserve" text-anchor="middle" x="408.62" y="-6.5" font-family="Helvetica,sans-Serif" font-size="10.00">get_texture_pawn_existante</text>
</a>
</g>
</g>
<!-- Node9&#45;&gt;Node11 -->
<g id="edge12_Node000009_Node000011" class="edge">
<title>Node9&#45;&gt;Node11</title>
<g id="a_edge12_Node000009_Node000011"><a xlink:title=" ">
<path fill="none" stroke="#63b8ff" d="M278.55,-37.52C299.89,-32.97 325.07,-27.6 347.5,-22.82"/>
<polygon fill="#63b8ff" stroke="#63b8ff" points="348.08,-26.27 357.13,-20.77 346.62,-19.43 348.08,-26.27"/>
</a>
</g>
</g>
<!-- Node12&#45;&gt;Node3 -->
<g id="edge14_Node000012_Node000003" class="edge">
<title>Node12&#45;&gt;Node3</title>
<g id="a_edge14_Node000012_Node000003"><a xlink:title=" ">
<path fill="none" stroke="#63b8ff" d="M284.8,-130C300.98,-130 318.9,-130 335.93,-130"/>
<polygon fill="#63b8ff" stroke="#63b8ff" points="335.46,-133.5 345.46,-130 335.46,-126.5 335.46,-133.5"/>
</a>
</g>
</g>
<!-- Node12&#45;&gt;Node4 -->
<g id="edge15_Node000012_Node000004" class="edge">
<title>Node12&#45;&gt;Node4</title>
<g id="a_edge15_Node000012_Node000004"><a xlink:title=" ">
<path fill="none" stroke="#63b8ff" d="M284.8,-116.32C306.9,-110.86 332.25,-104.61 354.16,-99.2"/>
<polygon fill="#63b8ff" stroke="#63b8ff" points="354.93,-102.61 363.8,-96.82 353.25,-95.82 354.93,-102.61"/>
</a>
</g>
</g>
</g>
</svg>
