<?xml version="1.0" encoding="UTF-8" standalone="no"?>
<!DOCTYPE svg PUBLIC "-//W3C//DTD SVG 1.1//EN"
 "http://www.w3.org/Graphics/SVG/1.1/DTD/svg11.dtd">
<!-- Generated by graphviz version 14.1.4 (20260321.0153)
 -->
<!-- Title: get_boss_hitbox_ecran Pages: 1 -->
<svg width="604pt" height="116pt"
 viewBox="0.00 0.00 604.00 116.00" xmlns="http://www.w3.org/2000/svg" xmlns:xlink="http://www.w3.org/1999/xlink">
<g id="graph0" class="graph" transform="scale(1 1) rotate(0) translate(4 112)">
<title>get_boss_hitbox_ecran</title>
<!-- Node1 -->
<g id="Node000001" class="node">
<title>Node1</title>
<g id="a_Node000001"><a xlink:title=" ">
<polygon fill="#999999" stroke="#666666" points="596,-64 479.5,-64 479.5,-44 596,-44 596,-64"/>
<text xml:space="preserve" text-anchor="middle" x="537.75" y="-50.5" font-family="Helvetica,sans-Serif" font-size="10.00">get_boss_hitbox_ecran</text>
</a>
</g>
</g>
<!-- Node2 -->
<g id="Node000002" class="node">
<title>Node2</title>
<g id="a_Node000002"><a xlink:href="boss_8c.html#af427d4c0d85f6029c589ec2c599df015" target="_top" xlink:title=" ">
<polygon fill="white" stroke="#666666" points="443.5,-108 316.5,-108 316.5,-88 443.5,-88 443.5,-108"/>
<text xml:space="preserve" text-anchor="middle" x="380" y="-94.5" font-family="Helvetica,sans-Serif" font-size="10.00">appliquer_degats_contact</text>
</a>
</g>
</g>
<!-- Node1&#45;&gt;Node2 -->
<g id="edge1_Node000001_Node000002" class="edge">
<title>Node1&#45;&gt;Node2</title>
<g id="a_edge1_Node000001_Node000002"><a xlink:title=" ">
<path fill="none" stroke="#63b8ff" d="M488.99,-67.49C466.13,-73.95 439.18,-81.57 417.92,-87.57"/>
<polygon fill="#63b8ff" stroke="#63b8ff" points="489.71,-70.93 498.38,-64.84 487.81,-64.19 489.71,-70.93"/>
</a>
</g>
</g>
<!-- Node6 -->
<g id="Node000006" class="node">
<title>Node6</title>
<g id="a_Node000006"><a xlink:href="boss_8c.html#a56b46a265edb06c19ab33048f07c26e9" target="_top" xlink:title=" ">
<polygon fill="white" stroke="#666666" points="440.5,-70 319.5,-70 319.5,-38 440.5,-38 440.5,-70"/>
<text xml:space="preserve" text-anchor="start" x="327.5" y="-56.5" font-family="Helvetica,sans-Serif" font-size="10.00">appliquer_degats_joueur</text>
<text xml:space="preserve" text-anchor="middle" x="380" y="-44.5" font-family="Helvetica,sans-Serif" font-size="10.00">_sur_boss</text>
</a>
</g>
</g>
<!-- Node1&#45;&gt;Node6 -->
<g id="edge5_Node000001_Node000006" class="edge">
<title>Node1&#45;&gt;Node6</title>
<g id="a_edge5_Node000001_Node000006"><a xlink:title=" ">
<path fill="none" stroke="#63b8ff" d="M467.92,-54C458.92,-54 449.76,-54 440.92,-54"/>
<polygon fill="#63b8ff" stroke="#63b8ff" points="467.68,-57.5 477.68,-54 467.68,-50.5 467.68,-57.5"/>
</a>
</g>
</g>
<!-- Node7 -->
<g id="Node000007" class="node">
<title>Node7</title>
<g id="a_Node000007"><a xlink:href="boss_8c.html#a0bba4ecad554b4cae0f277f1c11459d5" target="_top" xlink:title=" ">
<polygon fill="white" stroke="#666666" points="427.38,-20 332.62,-20 332.62,0 427.38,0 427.38,-20"/>
<text xml:space="preserve" text-anchor="middle" x="380" y="-6.5" font-family="Helvetica,sans-Serif" font-size="10.00">update_projectiles</text>
</a>
</g>
</g>
<!-- Node1&#45;&gt;Node7 -->
<g id="edge7_Node000001_Node000007" class="edge">
<title>Node1&#45;&gt;Node7</title>
<g id="a_edge7_Node000001_Node000007"><a xlink:title=" ">
<path fill="none" stroke="#63b8ff" d="M488.99,-40.51C466.13,-34.05 439.18,-26.43 417.92,-20.43"/>
<polygon fill="#63b8ff" stroke="#63b8ff" points="487.81,-43.81 498.38,-43.16 489.71,-37.07 487.81,-43.81"/>
</a>
</g>
</g>
<!-- Node3 -->
<g id="Node000003" class="node">
<title>Node3</title>
<g id="a_Node000003"><a xlink:href="boss_8c.html#abbb99b844a32a59c50228b7d6dcb888b" target="_top" xlink:title="Met a jour boss en fonction de l&#39;etat courant du jeu.">
<polygon fill="white" stroke="#666666" points="280.5,-64 179,-64 179,-44 280.5,-44 280.5,-64"/>
<text xml:space="preserve" text-anchor="middle" x="229.75" y="-50.5" font-family="Helvetica,sans-Serif" font-size="10.00">mettre_a_jour_boss</text>
</a>
</g>
</g>
<!-- Node2&#45;&gt;Node3 -->
<g id="edge2_Node000002_Node000003" class="edge">
<title>Node2&#45;&gt;Node3</title>
<g id="a_edge2_Node000002_Node000003"><a xlink:title=" ">
<path fill="none" stroke="#63b8ff" d="M332.94,-84.33C311.31,-77.91 285.94,-70.38 265.89,-64.43"/>
<polygon fill="#63b8ff" stroke="#63b8ff" points="331.83,-87.65 342.42,-87.14 333.83,-80.94 331.83,-87.65"/>
</a>
</g>
</g>
<!-- Node4 -->
<g id="Node000004" class="node">
<title>Node4</title>
<g id="a_Node000004"><a xlink:href="jeux_8c.html#a2d7491d04e8c2bdb52bb6ed7d75e4d78" target="_top" xlink:title="Execute la boucle principale de gameplay pour la planete courante.">
<polygon fill="white" stroke="#666666" points="143,-64 73,-64 73,-44 143,-44 143,-64"/>
<text xml:space="preserve" text-anchor="middle" x="108" y="-50.5" font-family="Helvetica,sans-Serif" font-size="10.00">jeu_principal</text>
</a>
</g>
</g>
<!-- Node3&#45;&gt;Node4 -->
<g id="edge3_Node000003_Node000004" class="edge">
<title>Node3&#45;&gt;Node4</title>
<g id="a_edge3_Node000003_Node000004"><a xlink:title=" ">
<path fill="none" stroke="#63b8ff" d="M167.39,-54C159.09,-54 150.84,-54 143.26,-54"/>
<polygon fill="#63b8ff" stroke="#63b8ff" points="167.15,-57.5 177.15,-54 167.15,-50.5 167.15,-57.5"/>
</a>
</g>
</g>
<!-- Node5 -->
<g id="Node000005" class="node">
<title>Node5</title>
<g id="a_Node000005"><a xlink:href="main_8c.html#a0ddf1224851353fc92bfbff6f499fa97" target="_top" xlink:title=" ">
<polygon fill="white" stroke="#666666" points="37,-64 0,-64 0,-44 37,-44 37,-64"/>
<text xml:space="preserve" text-anchor="middle" x="18.5" y="-50.5" font-family="Helvetica,sans-Serif" font-size="10.00">main</text>
</a>
</g>
</g>
<!-- Node4&#45;&gt;Node5 -->
<g id="edge4_Node000004_Node000005" class="edge">
<title>Node4&#45;&gt;Node5</title>
<g id="a_edge4_Node000004_Node000005"><a xlink:title=" ">
<path fill="none" stroke="#63b8ff" d="M61.18,-54C52.72,-54 44.36,-54 37.37,-54"/>
<polygon fill="#63b8ff" stroke="#63b8ff" points="61.16,-57.5 71.16,-54 61.16,-50.5 61.16,-57.5"/>
</a>
</g>
</g>
<!-- Node6&#45;&gt;Node3 -->
<g id="edge6_Node000006_Node000003" class="edge">
<title>Node6&#45;&gt;Node3</title>
<g id="a_edge6_Node000006_Node000003"><a xlink:title=" ">
<path fill="none" stroke="#63b8ff" d="M307.71,-54C298.64,-54 289.51,-54 280.86,-54"/>
<polygon fill="#63b8ff" stroke="#63b8ff" points="307.61,-57.5 317.61,-54 307.61,-50.5 307.61,-57.5"/>
</a>
</g>
</g>
<!-- Node7&#45;&gt;Node3 -->
<g id="edge8_Node000007_Node000003" class="edge">
<title>Node7&#45;&gt;Node3</title>
<g id="a_edge8_Node000007_Node000003"><a xlink:title=" ">
<path fill="none" stroke="#63b8ff" d="M332.94,-23.67C311.31,-30.09 285.94,-37.62 265.89,-43.57"/>
<polygon fill="#63b8ff" stroke="#63b8ff" points="333.83,-27.06 342.42,-20.86 331.83,-20.35 333.83,-27.06"/>
</a>
</g>
</g>
</g>
</svg>
