<?xml version="1.0" encoding="UTF-8" standalone="no"?>
<!DOCTYPE svg PUBLIC "-//W3C//DTD SVG 1.1//EN"
 "http://www.w3.org/Graphics/SVG/1.1/DTD/svg11.dtd">
<!-- Generated by graphviz version 14.1.4 (20260321.0153)
 -->
<!-- Title: attaque_sentinelle Pages: 1 -->
<svg width="650pt" height="128pt"
 viewBox="0.00 0.00 650.00 128.00" xmlns="http://www.w3.org/2000/svg" xmlns:xlink="http://www.w3.org/1999/xlink">
<g id="graph0" class="graph" transform="scale(1 1) rotate(0) translate(4 124)">
<title>attaque_sentinelle</title>
<!-- Node1 -->
<g id="Node000001" class="node">
<title>Node1</title>
<g id="a_Node000001"><a xlink:title=" ">
<polygon fill="#999999" stroke="#666666" points="94.75,-70 0,-70 0,-50 94.75,-50 94.75,-70"/>
<text xml:space="preserve" text-anchor="middle" x="47.38" y="-56.5" font-family="Helvetica,sans-Serif" font-size="10.00">attaque_sentinelle</text>
</a>
</g>
</g>
<!-- Node2 -->
<g id="Node000002" class="node">
<title>Node2</title>
<g id="a_Node000002"><a xlink:href="boss_8c.html#a7a2624259975aba5659ef69da7dd85ac" target="_top" xlink:title=" ">
<polygon fill="white" stroke="#666666" points="242.38,-120 131.88,-120 131.88,-88 242.38,-88 242.38,-120"/>
<text xml:space="preserve" text-anchor="start" x="139.88" y="-106.5" font-family="Helvetica,sans-Serif" font-size="10.00">declencher_animation</text>
<text xml:space="preserve" text-anchor="middle" x="187.12" y="-94.5" font-family="Helvetica,sans-Serif" font-size="10.00">_attaque</text>
</a>
</g>
</g>
<!-- Node1&#45;&gt;Node2 -->
<g id="edge1_Node000001_Node000002" class="edge">
<title>Node1&#45;&gt;Node2</title>
<g id="a_edge1_Node000001_Node000002"><a xlink:title=" ">
<path fill="none" stroke="#63b8ff" d="M81.02,-70.43C93.89,-74.54 109.11,-79.4 123.93,-84.13"/>
<polygon fill="#63b8ff" stroke="#63b8ff" points="122.57,-87.37 133.16,-87.08 124.7,-80.7 122.57,-87.37"/>
</a>
</g>
</g>
<!-- Node3 -->
<g id="Node000003" class="node">
<title>Node3</title>
<g id="a_Node000003"><a xlink:href="boss_8c.html#a1d5fd526db9bbc3f5b70491cfc645818" target="_top" xlink:title=" ">
<polygon fill="white" stroke="#666666" points="401.62,-67 279.88,-67 279.88,-47 401.62,-47 401.62,-67"/>
<text xml:space="preserve" text-anchor="middle" x="340.75" y="-53.5" font-family="Helvetica,sans-Serif" font-size="10.00">get_player_world_center</text>
</a>
</g>
</g>
<!-- Node1&#45;&gt;Node3 -->
<g id="edge2_Node000001_Node000003" class="edge">
<title>Node1&#45;&gt;Node3</title>
<g id="a_edge2_Node000001_Node000003"><a xlink:title=" ">
<path fill="none" stroke="#63b8ff" d="M95.19,-59.52C141.9,-59.04 214.28,-58.29 268.19,-57.74"/>
<polygon fill="#63b8ff" stroke="#63b8ff" points="267.92,-61.24 277.89,-57.64 267.85,-54.24 267.92,-61.24"/>
</a>
</g>
</g>
<!-- Node8 -->
<g id="Node000008" class="node">
<title>Node8</title>
<g id="a_Node000008"><a xlink:href="boss_8c.html#a848bc8291aee689be886bcc6a8c68456" target="_top" xlink:title=" ">
<polygon fill="white" stroke="#666666" points="243.5,-32 130.75,-32 130.75,0 243.5,0 243.5,-32"/>
<text xml:space="preserve" text-anchor="start" x="138.75" y="-18.5" font-family="Helvetica,sans-Serif" font-size="10.00">spawn_projectile_vers</text>
<text xml:space="preserve" text-anchor="middle" x="187.12" y="-6.5" font-family="Helvetica,sans-Serif" font-size="10.00">_joueur</text>
</a>
</g>
</g>
<!-- Node1&#45;&gt;Node8 -->
<g id="edge7_Node000001_Node000008" class="edge">
<title>Node1&#45;&gt;Node8</title>
<g id="a_edge7_Node000001_Node000008"><a xlink:title=" ">
<path fill="none" stroke="#63b8ff" d="M81.02,-49.57C93.89,-45.46 109.11,-40.6 123.93,-35.87"/>
<polygon fill="#63b8ff" stroke="#63b8ff" points="124.7,-39.3 133.16,-32.92 122.57,-32.63 124.7,-39.3"/>
</a>
</g>
</g>
<!-- Node4 -->
<g id="Node000004" class="node">
<title>Node4</title>
<g id="a_Node000004"><a xlink:href="main_8h.html#a6c672075bc554c92548a916c9501bdb5" target="_top" xlink:title=" ">
<polygon fill="white" stroke="#666666" points="526,-86 438,-86 438,-66 526,-66 526,-86"/>
<text xml:space="preserve" text-anchor="middle" x="482" y="-72.5" font-family="Helvetica,sans-Serif" font-size="10.00">screen_center_x</text>
</a>
</g>
</g>
<!-- Node3&#45;&gt;Node4 -->
<g id="edge3_Node000003_Node000004" class="edge">
<title>Node3&#45;&gt;Node4</title>
<g id="a_edge3_Node000003_Node000004"><a xlink:title=" ">
<path fill="none" stroke="#63b8ff" d="M402.02,-65.22C410.21,-66.34 418.58,-67.48 426.66,-68.59"/>
<polygon fill="#63b8ff" stroke="#63b8ff" points="425.96,-72.02 436.34,-69.91 426.91,-65.09 425.96,-72.02"/>
</a>
</g>
</g>
<!-- Node6 -->
<g id="Node000006" class="node">
<title>Node6</title>
<g id="a_Node000006"><a xlink:href="main_8h.html#a6456affd0d0a21e911b531a5ba25676d" target="_top" xlink:title=" ">
<polygon fill="white" stroke="#666666" points="526,-48 438,-48 438,-28 526,-28 526,-48"/>
<text xml:space="preserve" text-anchor="middle" x="482" y="-34.5" font-family="Helvetica,sans-Serif" font-size="10.00">screen_center_y</text>
</a>
</g>
</g>
<!-- Node3&#45;&gt;Node6 -->
<g id="edge5_Node000003_Node000006" class="edge">
<title>Node3&#45;&gt;Node6</title>
<g id="a_edge5_Node000003_Node000006"><a xlink:title=" ">
<path fill="none" stroke="#63b8ff" d="M402.02,-48.78C410.21,-47.66 418.58,-46.52 426.66,-45.41"/>
<polygon fill="#63b8ff" stroke="#63b8ff" points="426.91,-48.91 436.34,-44.09 425.96,-41.98 426.91,-48.91"/>
</a>
</g>
</g>
<!-- Node5 -->
<g id="Node000005" class="node">
<title>Node5</title>
<g id="a_Node000005"><a xlink:href="main_8h.html#aaaa1e9fcb86ff8e60b297faa7815ad1d" target="_top" xlink:title=" ">
<polygon fill="white" stroke="#666666" points="640.25,-86 563.5,-86 563.5,-66 640.25,-66 640.25,-86"/>
<text xml:space="preserve" text-anchor="middle" x="601.88" y="-72.5" font-family="Helvetica,sans-Serif" font-size="10.00">screen_widthf</text>
</a>
</g>
</g>
<!-- Node4&#45;&gt;Node5 -->
<g id="edge4_Node000004_Node000005" class="edge">
<title>Node4&#45;&gt;Node5</title>
<g id="a_edge4_Node000004_Node000005"><a xlink:title=" ">
<path fill="none" stroke="#63b8ff" d="M526.22,-76C534.53,-76 543.3,-76 551.78,-76"/>
<polygon fill="#63b8ff" stroke="#63b8ff" points="551.59,-79.5 561.59,-76 551.59,-72.5 551.59,-79.5"/>
</a>
</g>
</g>
<!-- Node7 -->
<g id="Node000007" class="node">
<title>Node7</title>
<g id="a_Node000007"><a xlink:href="main_8h.html#a9b4aefc63ea00e60ec88da19e24e8236" target="_top" xlink:title=" ">
<polygon fill="white" stroke="#666666" points="641.75,-48 562,-48 562,-28 641.75,-28 641.75,-48"/>
<text xml:space="preserve" text-anchor="middle" x="601.88" y="-34.5" font-family="Helvetica,sans-Serif" font-size="10.00">screen_heightf</text>
</a>
</g>
</g>
<!-- Node6&#45;&gt;Node7 -->
<g id="edge6_Node000006_Node000007" class="edge">
<title>Node6&#45;&gt;Node7</title>
<g id="a_edge6_Node000006_Node000007"><a xlink:title=" ">
<path fill="none" stroke="#63b8ff" d="M526.22,-38C533.99,-38 542.16,-38 550.12,-38"/>
<polygon fill="#63b8ff" stroke="#63b8ff" points="550.05,-41.5 560.05,-38 550.05,-34.5 550.05,-41.5"/>
</a>
</g>
</g>
<!-- Node8&#45;&gt;Node3 -->
<g id="edge9_Node000008_Node000003" class="edge">
<title>Node8&#45;&gt;Node3</title>
<g id="a_edge9_Node000008_Node000003"><a xlink:title=" ">
<path fill="none" stroke="#63b8ff" d="M243.72,-31.03C258.94,-35.15 275.34,-39.58 290.2,-43.6"/>
<polygon fill="#63b8ff" stroke="#63b8ff" points="289.19,-46.95 299.75,-46.19 291.02,-40.2 289.19,-46.95"/>
</a>
</g>
</g>
<!-- Node9 -->
<g id="Node000009" class="node">
<title>Node9</title>
<g id="a_Node000009"><a xlink:href="boss_8c.html#afb0b61469efd6dce1e15a516cb9e4115" target="_top" xlink:title=" ">
<polygon fill="white" stroke="#666666" points="402,-26 279.5,-26 279.5,-6 402,-6 402,-26"/>
<text xml:space="preserve" text-anchor="middle" x="340.75" y="-12.5" font-family="Helvetica,sans-Serif" font-size="10.00">get_boss_centre_monde</text>
</a>
</g>
</g>
<!-- Node8&#45;&gt;Node9 -->
<g id="edge8_Node000008_Node000009" class="edge">
<title>Node8&#45;&gt;Node9</title>
<g id="a_edge8_Node000008_Node000009"><a xlink:title=" ">
<path fill="none" stroke="#63b8ff" d="M243.72,-16C251.54,-16 259.66,-16 267.72,-16"/>
<polygon fill="#63b8ff" stroke="#63b8ff" points="267.53,-19.5 277.53,-16 267.53,-12.5 267.53,-19.5"/>
</a>
</g>
</g>
</g>
</svg>
