<?xml version="1.0" encoding="UTF-8" standalone="no"?>
<!DOCTYPE svg PUBLIC "-//W3C//DTD SVG 1.1//EN"
 "http://www.w3.org/Graphics/SVG/1.1/DTD/svg11.dtd">
<!-- Generated by graphviz version 14.1.4 (20260321.0153)
 -->
<!-- Title: appliquer_degats_joueur Pages: 1 -->
<svg width="609pt" height="154pt"
 viewBox="0.00 0.00 609.00 154.00" xmlns="http://www.w3.org/2000/svg" xmlns:xlink="http://www.w3.org/1999/xlink">
<g id="graph0" class="graph" transform="scale(1 1) rotate(0) translate(4 150)">
<title>appliquer_degats_joueur</title>
<!-- Node1 -->
<g id="Node000001" class="node">
<title>Node1</title>
<g id="a_Node000001"><a xlink:title=" ">
<polygon fill="#999999" stroke="#666666" points="600.5,-86 479.5,-86 479.5,-66 600.5,-66 600.5,-86"/>
<text xml:space="preserve" text-anchor="middle" x="540" y="-72.5" font-family="Helvetica,sans-Serif" font-size="10.00">appliquer_degats_joueur</text>
</a>
</g>
</g>
<!-- Node2 -->
<g id="Node000002" class="node">
<title>Node2</title>
<g id="a_Node000002"><a xlink:href="boss_8c.html#af427d4c0d85f6029c589ec2c599df015" target="_top" xlink:title=" ">
<polygon fill="white" stroke="#666666" points="443.5,-146 316.5,-146 316.5,-126 443.5,-126 443.5,-146"/>
<text xml:space="preserve" text-anchor="middle" x="380" y="-132.5" font-family="Helvetica,sans-Serif" font-size="10.00">appliquer_degats_contact</text>
</a>
</g>
</g>
<!-- Node1&#45;&gt;Node2 -->
<g id="edge1_Node000001_Node000002" class="edge">
<title>Node1&#45;&gt;Node2</title>
<g id="a_edge1_Node000001_Node000002"><a xlink:title=" ">
<path fill="none" stroke="#63b8ff" d="M501.07,-90.4C472.53,-101.24 434.09,-115.84 408.47,-125.57"/>
<polygon fill="#63b8ff" stroke="#63b8ff" points="501.96,-93.81 510.06,-86.99 499.47,-87.27 501.96,-93.81"/>
</a>
</g>
</g>
<!-- Node3 -->
<g id="Node000003" class="node">
<title>Node3</title>
<g id="a_Node000003"><a xlink:href="boss_8c.html#abbb99b844a32a59c50228b7d6dcb888b" target="_top" xlink:title="Met a jour boss en fonction de l&#39;etat courant du jeu.">
<polygon fill="white" stroke="#666666" points="280.5,-86 179,-86 179,-66 280.5,-66 280.5,-86"/>
<text xml:space="preserve" text-anchor="middle" x="229.75" y="-72.5" font-family="Helvetica,sans-Serif" font-size="10.00">mettre_a_jour_boss</text>
</a>
</g>
</g>
<!-- Node1&#45;&gt;Node3 -->
<g id="edge7_Node000001_Node000003" class="edge">
<title>Node1&#45;&gt;Node3</title>
<g id="a_edge7_Node000001_Node000003"><a xlink:title=" ">
<path fill="none" stroke="#63b8ff" d="M467.69,-78.49C459.53,-78.7 451.33,-78.88 443.5,-79 387.06,-79.89 372.94,-79.99 316.5,-79 304.88,-78.8 292.38,-78.44 280.62,-78.04"/>
<polygon fill="#63b8ff" stroke="#63b8ff" points="467.74,-81.99 477.64,-78.21 467.54,-74.99 467.74,-81.99"/>
</a>
</g>
</g>
<!-- Node6 -->
<g id="Node000006" class="node">
<title>Node6</title>
<g id="a_Node000006"><a xlink:href="boss_8c.html#ad702f42cf8f6318134fb3270d630ab00" target="_top" xlink:title=" ">
<polygon fill="white" stroke="#666666" points="440.5,-70 319.5,-70 319.5,-38 440.5,-38 440.5,-70"/>
<text xml:space="preserve" text-anchor="start" x="327.5" y="-56.5" font-family="Helvetica,sans-Serif" font-size="10.00">appliquer_degats_hache</text>
<text xml:space="preserve" text-anchor="middle" x="380" y="-44.5" font-family="Helvetica,sans-Serif" font-size="10.00">_minotaure</text>
</a>
</g>
</g>
<!-- Node1&#45;&gt;Node6 -->
<g id="edge5_Node000001_Node000006" class="edge">
<title>Node1&#45;&gt;Node6</title>
<g id="a_edge5_Node000001_Node000006"><a xlink:title=" ">
<path fill="none" stroke="#63b8ff" d="M467.91,-66.1C458.86,-64.84 449.67,-63.56 440.82,-62.33"/>
<polygon fill="#63b8ff" stroke="#63b8ff" points="467.38,-69.56 477.77,-67.47 468.35,-62.63 467.38,-69.56"/>
</a>
</g>
</g>
<!-- Node7 -->
<g id="Node000007" class="node">
<title>Node7</title>
<g id="a_Node000007"><a xlink:href="boss_8c.html#a0bba4ecad554b4cae0f277f1c11459d5" target="_top" xlink:title=" ">
<polygon fill="white" stroke="#666666" points="427.38,-20 332.62,-20 332.62,0 427.38,0 427.38,-20"/>
<text xml:space="preserve" text-anchor="middle" x="380" y="-6.5" font-family="Helvetica,sans-Serif" font-size="10.00">update_projectiles</text>
</a>
</g>
</g>
<!-- Node1&#45;&gt;Node7 -->
<g id="edge8_Node000001_Node000007" class="edge">
<title>Node1&#45;&gt;Node7</title>
<g id="a_edge8_Node000001_Node000007"><a xlink:title=" ">
<path fill="none" stroke="#63b8ff" d="M510.1,-60.25C491.44,-50.46 466.45,-38.07 443.5,-29 435.69,-25.92 427.18,-23.03 419.02,-20.48"/>
<polygon fill="#63b8ff" stroke="#63b8ff" points="508.22,-63.21 518.69,-64.81 511.5,-57.03 508.22,-63.21"/>
</a>
</g>
</g>
<!-- Node2&#45;&gt;Node3 -->
<g id="edge2_Node000002_Node000003" class="edge">
<title>Node2&#45;&gt;Node3</title>
<g id="a_edge2_Node000002_Node000003"><a xlink:title=" ">
<path fill="none" stroke="#63b8ff" d="M340.65,-121.49C332.65,-118.4 324.29,-115.13 316.5,-112 295.68,-103.63 272.18,-93.74 255.06,-86.44"/>
<polygon fill="#63b8ff" stroke="#63b8ff" points="339.23,-124.69 349.82,-125.01 341.74,-118.16 339.23,-124.69"/>
</a>
</g>
</g>
<!-- Node4 -->
<g id="Node000004" class="node">
<title>Node4</title>
<g id="a_Node000004"><a xlink:href="jeux_8c.html#a2d7491d04e8c2bdb52bb6ed7d75e4d78" target="_top" xlink:title="Execute la boucle principale de gameplay pour la planete courante.">
<polygon fill="white" stroke="#666666" points="143,-86 73,-86 73,-66 143,-66 143,-86"/>
<text xml:space="preserve" text-anchor="middle" x="108" y="-72.5" font-family="Helvetica,sans-Serif" font-size="10.00">jeu_principal</text>
</a>
</g>
</g>
<!-- Node3&#45;&gt;Node4 -->
<g id="edge3_Node000003_Node000004" class="edge">
<title>Node3&#45;&gt;Node4</title>
<g id="a_edge3_Node000003_Node000004"><a xlink:title=" ">
<path fill="none" stroke="#63b8ff" d="M167.39,-76C159.09,-76 150.84,-76 143.26,-76"/>
<polygon fill="#63b8ff" stroke="#63b8ff" points="167.15,-79.5 177.15,-76 167.15,-72.5 167.15,-79.5"/>
</a>
</g>
</g>
<!-- Node5 -->
<g id="Node000005" class="node">
<title>Node5</title>
<g id="a_Node000005"><a xlink:href="main_8c.html#a0ddf1224851353fc92bfbff6f499fa97" target="_top" xlink:title=" ">
<polygon fill="white" stroke="#666666" points="37,-86 0,-86 0,-66 37,-66 37,-86"/>
<text xml:space="preserve" text-anchor="middle" x="18.5" y="-72.5" font-family="Helvetica,sans-Serif" font-size="10.00">main</text>
</a>
</g>
</g>
<!-- Node4&#45;&gt;Node5 -->
<g id="edge4_Node000004_Node000005" class="edge">
<title>Node4&#45;&gt;Node5</title>
<g id="a_edge4_Node000004_Node000005"><a xlink:title=" ">
<path fill="none" stroke="#63b8ff" d="M61.18,-76C52.72,-76 44.36,-76 37.37,-76"/>
<polygon fill="#63b8ff" stroke="#63b8ff" points="61.16,-79.5 71.16,-76 61.16,-72.5 61.16,-79.5"/>
</a>
</g>
</g>
<!-- Node6&#45;&gt;Node3 -->
<g id="edge6_Node000006_Node000003" class="edge">
<title>Node6&#45;&gt;Node3</title>
<g id="a_edge6_Node000006_Node000003"><a xlink:title=" ">
<path fill="none" stroke="#63b8ff" d="M308.01,-64.53C298.84,-65.9 289.6,-67.27 280.86,-68.56"/>
<polygon fill="#63b8ff" stroke="#63b8ff" points="308.25,-68.04 317.63,-63.11 307.23,-61.11 308.25,-68.04"/>
</a>
</g>
</g>
<!-- Node7&#45;&gt;Node3 -->
<g id="edge9_Node000007_Node000003" class="edge">
<title>Node7&#45;&gt;Node3</title>
<g id="a_edge9_Node000007_Node000003"><a xlink:title=" ">
<path fill="none" stroke="#63b8ff" d="M329.32,-24.07C324.94,-25.62 320.62,-27.27 316.5,-29 291.46,-39.53 264.23,-55.26 247.32,-65.57"/>
<polygon fill="#63b8ff" stroke="#63b8ff" points="330.41,-27.4 338.78,-20.91 328.19,-20.76 330.41,-27.4"/>
</a>
</g>
</g>
</g>
</svg>
