<?xml version="1.0" encoding="UTF-8" standalone="no"?>
<!DOCTYPE svg PUBLIC "-//W3C//DTD SVG 1.1//EN"
 "http://www.w3.org/Graphics/SVG/1.1/DTD/svg11.dtd">
<!-- Generated by graphviz version 14.1.4 (20260321.0153)
 -->
<!-- Title: renvoyer_projectiles_touches Pages: 1 -->
<svg width="512pt" height="85pt"
 viewBox="0.00 0.00 512.00 85.00" xmlns="http://www.w3.org/2000/svg" xmlns:xlink="http://www.w3.org/1999/xlink">
<g id="graph0" class="graph" transform="scale(1 1) rotate(0) translate(4 81)">
<title>renvoyer_projectiles_touches</title>
<!-- Node1 -->
<g id="Node000001" class="node">
<title>Node1</title>
<g id="a_Node000001"><a xlink:title=" ">
<polygon fill="#999999" stroke="#666666" points="103,-64 0,-64 0,-32 103,-32 103,-64"/>
<text xml:space="preserve" text-anchor="start" x="8" y="-50.5" font-family="Helvetica,sans-Serif" font-size="10.00">renvoyer_projectiles</text>
<text xml:space="preserve" text-anchor="middle" x="51.5" y="-38.5" font-family="Helvetica,sans-Serif" font-size="10.00">_touches</text>
</a>
</g>
</g>
<!-- Node2 -->
<g id="Node000002" class="node">
<title>Node2</title>
<g id="a_Node000002"><a xlink:href="boss_8c.html#afb0b61469efd6dce1e15a516cb9e4115" target="_top" xlink:title=" ">
<polygon fill="white" stroke="#666666" points="262.62,-77 140.12,-77 140.12,-57 262.62,-57 262.62,-77"/>
<text xml:space="preserve" text-anchor="middle" x="201.38" y="-63.5" font-family="Helvetica,sans-Serif" font-size="10.00">get_boss_centre_monde</text>
</a>
</g>
</g>
<!-- Node1&#45;&gt;Node2 -->
<g id="edge1_Node000001_Node000002" class="edge">
<title>Node1&#45;&gt;Node2</title>
<g id="a_edge1_Node000001_Node000002"><a xlink:title=" ">
<path fill="none" stroke="#63b8ff" d="M103.39,-54.54C111.43,-55.57 119.88,-56.66 128.29,-57.74"/>
<polygon fill="#63b8ff" stroke="#63b8ff" points="127.84,-61.21 138.2,-59.01 128.73,-54.27 127.84,-61.21"/>
</a>
</g>
</g>
<!-- Node3 -->
<g id="Node000003" class="node">
<title>Node3</title>
<g id="a_Node000003"><a xlink:href="boss_8c.html#a2688d61a1b6cbb464d764fdfb6aec69f" target="_top" xlink:title=" ">
<polygon fill="white" stroke="#666666" points="263.75,-39 139,-39 139,-19 263.75,-19 263.75,-39"/>
<text xml:space="preserve" text-anchor="middle" x="201.38" y="-25.5" font-family="Helvetica,sans-Serif" font-size="10.00">get_zone_attaque_joueur</text>
</a>
</g>
</g>
<!-- Node1&#45;&gt;Node3 -->
<g id="edge2_Node000001_Node000003" class="edge">
<title>Node1&#45;&gt;Node3</title>
<g id="a_edge2_Node000001_Node000003"><a xlink:title=" ">
<path fill="none" stroke="#63b8ff" d="M103.39,-41.46C111.11,-40.47 119.21,-39.43 127.29,-38.39"/>
<polygon fill="#63b8ff" stroke="#63b8ff" points="127.69,-41.87 137.17,-37.12 126.8,-34.92 127.69,-41.87"/>
</a>
</g>
</g>
<!-- Node4 -->
<g id="Node000004" class="node">
<title>Node4</title>
<g id="a_Node000004"><a xlink:href="main_8h.html#a6c672075bc554c92548a916c9501bdb5" target="_top" xlink:title=" ">
<polygon fill="white" stroke="#666666" points="387.75,-58 299.75,-58 299.75,-38 387.75,-38 387.75,-58"/>
<text xml:space="preserve" text-anchor="middle" x="343.75" y="-44.5" font-family="Helvetica,sans-Serif" font-size="10.00">screen_center_x</text>
</a>
</g>
</g>
<!-- Node3&#45;&gt;Node4 -->
<g id="edge3_Node000003_Node000004" class="edge">
<title>Node3&#45;&gt;Node4</title>
<g id="a_edge3_Node000003_Node000004"><a xlink:title=" ">
<path fill="none" stroke="#63b8ff" d="M263.95,-37.33C271.96,-38.42 280.13,-39.52 288.03,-40.59"/>
<polygon fill="#63b8ff" stroke="#63b8ff" points="287.47,-44.05 297.85,-41.92 288.41,-37.11 287.47,-44.05"/>
</a>
</g>
</g>
<!-- Node6 -->
<g id="Node000006" class="node">
<title>Node6</title>
<g id="a_Node000006"><a xlink:href="main_8h.html#a6456affd0d0a21e911b531a5ba25676d" target="_top" xlink:title=" ">
<polygon fill="white" stroke="#666666" points="387.75,-20 299.75,-20 299.75,0 387.75,0 387.75,-20"/>
<text xml:space="preserve" text-anchor="middle" x="343.75" y="-6.5" font-family="Helvetica,sans-Serif" font-size="10.00">screen_center_y</text>
</a>
</g>
</g>
<!-- Node3&#45;&gt;Node6 -->
<g id="edge5_Node000003_Node000006" class="edge">
<title>Node3&#45;&gt;Node6</title>
<g id="a_edge5_Node000003_Node000006"><a xlink:title=" ">
<path fill="none" stroke="#63b8ff" d="M263.95,-20.67C271.96,-19.58 280.13,-18.48 288.03,-17.41"/>
<polygon fill="#63b8ff" stroke="#63b8ff" points="288.41,-20.89 297.85,-16.08 287.47,-13.95 288.41,-20.89"/>
</a>
</g>
</g>
<!-- Node5 -->
<g id="Node000005" class="node">
<title>Node5</title>
<g id="a_Node000005"><a xlink:href="main_8h.html#aaaa1e9fcb86ff8e60b297faa7815ad1d" target="_top" xlink:title=" ">
<polygon fill="white" stroke="#666666" points="502,-58 425.25,-58 425.25,-38 502,-38 502,-58"/>
<text xml:space="preserve" text-anchor="middle" x="463.62" y="-44.5" font-family="Helvetica,sans-Serif" font-size="10.00">screen_widthf</text>
</a>
</g>
</g>
<!-- Node4&#45;&gt;Node5 -->
<g id="edge4_Node000004_Node000005" class="edge">
<title>Node4&#45;&gt;Node5</title>
<g id="a_edge4_Node000004_Node000005"><a xlink:title=" ">
<path fill="none" stroke="#63b8ff" d="M387.97,-48C396.28,-48 405.05,-48 413.53,-48"/>
<polygon fill="#63b8ff" stroke="#63b8ff" points="413.34,-51.5 423.34,-48 413.34,-44.5 413.34,-51.5"/>
</a>
</g>
</g>
<!-- Node7 -->
<g id="Node000007" class="node">
<title>Node7</title>
<g id="a_Node000007"><a xlink:href="main_8h.html#a9b4aefc63ea00e60ec88da19e24e8236" target="_top" xlink:title=" ">
<polygon fill="white" stroke="#666666" points="503.5,-20 423.75,-20 423.75,0 503.5,0 503.5,-20"/>
<text xml:space="preserve" text-anchor="middle" x="463.62" y="-6.5" font-family="Helvetica,sans-Serif" font-size="10.00">screen_heightf</text>
</a>
</g>
</g>
<!-- Node6&#45;&gt;Node7 -->
<g id="edge6_Node000006_Node000007" class="edge">
<title>Node6&#45;&gt;Node7</title>
<g id="a_edge6_Node000006_Node000007"><a xlink:title=" ">
<path fill="none" stroke="#63b8ff" d="M387.97,-10C395.74,-10 403.91,-10 411.87,-10"/>
<polygon fill="#63b8ff" stroke="#63b8ff" points="411.8,-13.5 421.8,-10 411.8,-6.5 411.8,-13.5"/>
</a>
</g>
</g>
</g>
</svg>
