<?xml version="1.0" encoding="UTF-8" standalone="no"?>
<!DOCTYPE svg PUBLIC "-//W3C//DTD SVG 1.1//EN"
 "http://www.w3.org/Graphics/SVG/1.1/DTD/svg11.dtd">
<!-- Generated by graphviz version 14.1.4 (20260321.0153)
 -->
<!-- Title: clear_projectiles Pages: 1 -->
<svg width="552pt" height="142pt"
 viewBox="0.00 0.00 552.00 142.00" xmlns="http://www.w3.org/2000/svg" xmlns:xlink="http://www.w3.org/1999/xlink">
<g id="graph0" class="graph" transform="scale(1 1) rotate(0) translate(4 138)">
<title>clear_projectiles</title>
<!-- Node1 -->
<g id="Node000001" class="node">
<title>Node1</title>
<g id="a_Node000001"><a xlink:title=" ">
<polygon fill="#999999" stroke="#666666" points="544.25,-77 457.75,-77 457.75,-57 544.25,-57 544.25,-77"/>
<text xml:space="preserve" text-anchor="middle" x="501" y="-63.5" font-family="Helvetica,sans-Serif" font-size="10.00">clear_projectiles</text>
</a>
</g>
</g>
<!-- Node2 -->
<g id="Node000002" class="node">
<title>Node2</title>
<g id="a_Node000002"><a xlink:href="boss_8c.html#a236f706845850941c512c45d6e52d55b" target="_top" xlink:title="Libere boss et nettoie les ressources associees.">
<polygon fill="white" stroke="#666666" points="406.38,-134 331.88,-134 331.88,-114 406.38,-114 406.38,-134"/>
<text xml:space="preserve" text-anchor="middle" x="369.12" y="-120.5" font-family="Helvetica,sans-Serif" font-size="10.00">detruire_boss</text>
</a>
</g>
</g>
<!-- Node1&#45;&gt;Node2 -->
<g id="edge1_Node000001_Node000002" class="edge">
<title>Node1&#45;&gt;Node2</title>
<g id="a_edge1_Node000001_Node000002"><a xlink:title=" ">
<path fill="none" stroke="#63b8ff" d="M465.64,-82.08C442.98,-92.02 413.89,-104.79 393.8,-113.61"/>
<polygon fill="#63b8ff" stroke="#63b8ff" points="467.04,-85.29 474.79,-78.06 464.23,-78.88 467.04,-85.29"/>
</a>
</g>
</g>
<!-- Node5 -->
<g id="Node000005" class="node">
<title>Node5</title>
<g id="a_Node000005"><a xlink:href="boss_8c.html#af1c8aca032a751db8821bf8b9f592cf9" target="_top" xlink:title="Initialise boss et prepare les ressources necessaires.">
<polygon fill="white" stroke="#666666" points="257.25,-96 202.25,-96 202.25,-76 257.25,-76 257.25,-96"/>
<text xml:space="preserve" text-anchor="middle" x="229.75" y="-82.5" font-family="Helvetica,sans-Serif" font-size="10.00">init_boss</text>
</a>
</g>
</g>
<!-- Node1&#45;&gt;Node5 -->
<g id="edge4_Node000001_Node000005" class="edge">
<title>Node1&#45;&gt;Node5</title>
<g id="a_edge4_Node000001_Node000005"><a xlink:title=" ">
<path fill="none" stroke="#63b8ff" d="M446.02,-70.81C389.02,-74.83 301.48,-81.01 257.67,-84.1"/>
<polygon fill="#63b8ff" stroke="#63b8ff" points="446.1,-74.31 455.83,-70.12 445.61,-67.33 446.1,-74.31"/>
</a>
</g>
</g>
<!-- Node6 -->
<g id="Node000006" class="node">
<title>Node6</title>
<g id="a_Node000006"><a xlink:href="boss_8c.html#abbb99b844a32a59c50228b7d6dcb888b" target="_top" xlink:title="Met a jour boss en fonction de l&#39;etat courant du jeu.">
<polygon fill="white" stroke="#666666" points="280.5,-58 179,-58 179,-38 280.5,-38 280.5,-58"/>
<text xml:space="preserve" text-anchor="middle" x="229.75" y="-44.5" font-family="Helvetica,sans-Serif" font-size="10.00">mettre_a_jour_boss</text>
</a>
</g>
</g>
<!-- Node1&#45;&gt;Node6 -->
<g id="edge6_Node000001_Node000006" class="edge">
<title>Node1&#45;&gt;Node6</title>
<g id="a_edge6_Node000001_Node000006"><a xlink:title=" ">
<path fill="none" stroke="#63b8ff" d="M445.86,-63.18C397.57,-59.77 327.45,-54.82 280.53,-51.51"/>
<polygon fill="#63b8ff" stroke="#63b8ff" points="445.61,-66.67 455.83,-63.88 446.1,-59.69 445.61,-66.67"/>
</a>
</g>
</g>
<!-- Node7 -->
<g id="Node000007" class="node">
<title>Node7</title>
<g id="a_Node000007"><a xlink:href="boss_8c.html#a6ebb70c1cce9efe2e97dfee86382e964" target="_top" xlink:title="Reinitialise boss for retry pour repartir d&#39;un etat propre.">
<polygon fill="white" stroke="#666666" points="421.75,-20 316.5,-20 316.5,0 421.75,0 421.75,-20"/>
<text xml:space="preserve" text-anchor="middle" x="369.12" y="-6.5" font-family="Helvetica,sans-Serif" font-size="10.00">reset_boss_for_retry</text>
</a>
</g>
</g>
<!-- Node1&#45;&gt;Node7 -->
<g id="edge8_Node000001_Node000007" class="edge">
<title>Node1&#45;&gt;Node7</title>
<g id="a_edge8_Node000001_Node000007"><a xlink:title=" ">
<path fill="none" stroke="#63b8ff" d="M465.64,-51.92C442.98,-41.98 413.89,-29.21 393.8,-20.39"/>
<polygon fill="#63b8ff" stroke="#63b8ff" points="464.23,-55.12 474.79,-55.94 467.04,-48.71 464.23,-55.12"/>
</a>
</g>
</g>
<!-- Node3 -->
<g id="Node000003" class="node">
<title>Node3</title>
<g id="a_Node000003"><a xlink:href="jeux_8c.html#a2d7491d04e8c2bdb52bb6ed7d75e4d78" target="_top" xlink:title="Execute la boucle principale de gameplay pour la planete courante.">
<polygon fill="white" stroke="#666666" points="143,-77 73,-77 73,-57 143,-57 143,-77"/>
<text xml:space="preserve" text-anchor="middle" x="108" y="-63.5" font-family="Helvetica,sans-Serif" font-size="10.00">jeu_principal</text>
</a>
</g>
</g>
<!-- Node2&#45;&gt;Node3 -->
<g id="edge2_Node000002_Node000003" class="edge">
<title>Node2&#45;&gt;Node3</title>
<g id="a_edge2_Node000002_Node000003"><a xlink:title=" ">
<path fill="none" stroke="#63b8ff" d="M319.89,-124.37C281.04,-123.44 225.44,-119.3 179,-105 158.78,-98.77 137.73,-86.42 124.06,-77.48"/>
<polygon fill="#63b8ff" stroke="#63b8ff" points="319.81,-127.87 329.86,-124.54 319.92,-120.87 319.81,-127.87"/>
</a>
</g>
</g>
<!-- Node4 -->
<g id="Node000004" class="node">
<title>Node4</title>
<g id="a_Node000004"><a xlink:href="main_8c.html#a0ddf1224851353fc92bfbff6f499fa97" target="_top" xlink:title=" ">
<polygon fill="white" stroke="#666666" points="37,-77 0,-77 0,-57 37,-57 37,-77"/>
<text xml:space="preserve" text-anchor="middle" x="18.5" y="-63.5" font-family="Helvetica,sans-Serif" font-size="10.00">main</text>
</a>
</g>
</g>
<!-- Node3&#45;&gt;Node4 -->
<g id="edge3_Node000003_Node000004" class="edge">
<title>Node3&#45;&gt;Node4</title>
<g id="a_edge3_Node000003_Node000004"><a xlink:title=" ">
<path fill="none" stroke="#63b8ff" d="M61.18,-67C52.72,-67 44.36,-67 37.37,-67"/>
<polygon fill="#63b8ff" stroke="#63b8ff" points="61.16,-70.5 71.16,-67 61.16,-63.5 61.16,-70.5"/>
</a>
</g>
</g>
<!-- Node5&#45;&gt;Node3 -->
<g id="edge5_Node000005_Node000003" class="edge">
<title>Node5&#45;&gt;Node3</title>
<g id="a_edge5_Node000005_Node000003"><a xlink:title=" ">
<path fill="none" stroke="#63b8ff" d="M190.7,-79.96C175.42,-77.54 157.94,-74.77 143.08,-72.41"/>
<polygon fill="#63b8ff" stroke="#63b8ff" points="189.96,-83.39 200.38,-81.5 191.05,-76.47 189.96,-83.39"/>
</a>
</g>
</g>
<!-- Node6&#45;&gt;Node3 -->
<g id="edge7_Node000006_Node000003" class="edge">
<title>Node6&#45;&gt;Node3</title>
<g id="a_edge7_Node000006_Node000003"><a xlink:title=" ">
<path fill="none" stroke="#63b8ff" d="M167.39,-57.74C159.09,-59.05 150.84,-60.36 143.26,-61.56"/>
<polygon fill="#63b8ff" stroke="#63b8ff" points="167.84,-61.21 177.16,-56.18 166.74,-54.3 167.84,-61.21"/>
</a>
</g>
</g>
<!-- Node8 -->
<g id="Node000008" class="node">
<title>Node8</title>
<g id="a_Node000008"><a xlink:href="game__over_8c.html#a37d3fac8300008a434af7c66a4e695d0" target="_top" xlink:title="Affiche l&#39;ecran de game over et traite le choix du joueur.">
<polygon fill="white" stroke="#666666" points="261.75,-20 197.75,-20 197.75,0 261.75,0 261.75,-20"/>
<text xml:space="preserve" text-anchor="middle" x="229.75" y="-6.5" font-family="Helvetica,sans-Serif" font-size="10.00">game_over</text>
</a>
</g>
</g>
<!-- Node7&#45;&gt;Node8 -->
<g id="edge9_Node000007_Node000008" class="edge">
<title>Node7&#45;&gt;Node8</title>
<g id="a_edge9_Node000007_Node000008"><a xlink:title=" ">
<path fill="none" stroke="#63b8ff" d="M304.92,-10C290.03,-10 274.79,-10 262.03,-10"/>
<polygon fill="#63b8ff" stroke="#63b8ff" points="304.68,-13.5 314.68,-10 304.68,-6.5 304.68,-13.5"/>
</a>
</g>
</g>
<!-- Node8&#45;&gt;Node3 -->
<g id="edge10_Node000008_Node000003" class="edge">
<title>Node8&#45;&gt;Node3</title>
<g id="a_edge10_Node000008_Node000003"><a xlink:title=" ">
<path fill="none" stroke="#63b8ff" d="M189.17,-24.56C185.71,-26 182.28,-27.49 179,-29 160.66,-37.44 140.47,-48.61 126.51,-56.65"/>
<polygon fill="#63b8ff" stroke="#63b8ff" points="190.16,-27.94 198.14,-20.98 187.55,-21.44 190.16,-27.94"/>
</a>
</g>
</g>
</g>
</svg>
