<?xml version="1.0" encoding="UTF-8" standalone="no"?>
<!DOCTYPE svg PUBLIC "-//W3C//DTD SVG 1.1//EN"
 "http://www.w3.org/Graphics/SVG/1.1/DTD/svg11.dtd">
<!-- Generated by graphviz version 14.1.4 (20260321.0153)
 -->
<!-- Title: detruire_boss Pages: 1 -->
<svg width="367pt" height="66pt"
 viewBox="0.00 0.00 367.00 66.00" xmlns="http://www.w3.org/2000/svg" xmlns:xlink="http://www.w3.org/1999/xlink">
<g id="graph0" class="graph" transform="scale(1 1) rotate(0) translate(4 62)">
<title>detruire_boss</title>
<!-- Node1 -->
<g id="Node000001" class="node">
<title>Node1</title>
<g id="a_Node000001"><a xlink:title="Libere boss et nettoie les ressources associees.">
<polygon fill="#999999" stroke="#666666" points="74.5,-39 0,-39 0,-19 74.5,-19 74.5,-39"/>
<text xml:space="preserve" text-anchor="middle" x="37.25" y="-25.5" font-family="Helvetica,sans-Serif" font-size="10.00">detruire_boss</text>
</a>
</g>
</g>
<!-- Node2 -->
<g id="Node000002" class="node">
<title>Node2</title>
<g id="a_Node000002"><a xlink:href="boss_8c.html#aa99c5bb57c45ca96ac8cbc9178113ded" target="_top" xlink:title=" ">
<polygon fill="white" stroke="#666666" points="215.75,-58 129.25,-58 129.25,-38 215.75,-38 215.75,-58"/>
<text xml:space="preserve" text-anchor="middle" x="172.5" y="-44.5" font-family="Helvetica,sans-Serif" font-size="10.00">clear_projectiles</text>
</a>
</g>
</g>
<!-- Node1&#45;&gt;Node2 -->
<g id="edge1_Node000001_Node000002" class="edge">
<title>Node1&#45;&gt;Node2</title>
<g id="a_edge1_Node000001_Node000002"><a xlink:title=" ">
<path fill="none" stroke="#63b8ff" d="M74.66,-34.19C87.92,-36.08 103.2,-38.26 117.64,-40.32"/>
<polygon fill="#63b8ff" stroke="#63b8ff" points="117.1,-43.78 127.5,-41.73 118.09,-36.85 117.1,-43.78"/>
</a>
</g>
</g>
<!-- Node3 -->
<g id="Node000003" class="node">
<title>Node3</title>
<g id="a_Node000003"><a xlink:href="boss_8c.html#a06fdb2e8e1170b4f3dbdea1b5d3ee5e9" target="_top" xlink:title=" ">
<polygon fill="white" stroke="#666666" points="234.5,-20 110.5,-20 110.5,0 234.5,0 234.5,-20"/>
<text xml:space="preserve" text-anchor="middle" x="172.5" y="-6.5" font-family="Helvetica,sans-Serif" font-size="10.00">supprimer_minions_boss</text>
</a>
</g>
</g>
<!-- Node1&#45;&gt;Node3 -->
<g id="edge2_Node000001_Node000003" class="edge">
<title>Node1&#45;&gt;Node3</title>
<g id="a_edge2_Node000001_Node000003"><a xlink:title=" ">
<path fill="none" stroke="#63b8ff" d="M74.66,-23.81C82.18,-22.74 90.36,-21.57 98.66,-20.39"/>
<polygon fill="#63b8ff" stroke="#63b8ff" points="99.11,-23.86 108.52,-18.98 98.13,-16.93 99.11,-23.86"/>
</a>
</g>
</g>
<!-- Node4 -->
<g id="Node000004" class="node">
<title>Node4</title>
<g id="a_Node000004"><a xlink:href="mob_8c.html#a982672a13ed7a7b25477f268c592c14b" target="_top" xlink:title="Libere un mob et nettoie les ressources associees.">
<polygon fill="white" stroke="#666666" points="358.5,-20 270.5,-20 270.5,0 358.5,0 358.5,-20"/>
<text xml:space="preserve" text-anchor="middle" x="314.5" y="-6.5" font-family="Helvetica,sans-Serif" font-size="10.00">detruire_un_mob</text>
</a>
</g>
</g>
<!-- Node3&#45;&gt;Node4 -->
<g id="edge3_Node000003_Node000004" class="edge">
<title>Node3&#45;&gt;Node4</title>
<g id="a_edge3_Node000003_Node000004"><a xlink:title=" ">
<path fill="none" stroke="#63b8ff" d="M234.91,-10C242.9,-10 251.05,-10 258.93,-10"/>
<polygon fill="#63b8ff" stroke="#63b8ff" points="258.7,-13.5 268.7,-10 258.7,-6.5 258.7,-13.5"/>
</a>
</g>
</g>
</g>
</svg>
