<?xml version="1.0" encoding="UTF-8" standalone="no"?>
<!DOCTYPE svg PUBLIC "-//W3C//DTD SVG 1.1//EN"
 "http://www.w3.org/Graphics/SVG/1.1/DTD/svg11.dtd">
<!-- Generated by graphviz version 14.1.4 (20260321.0153)
 -->
<!-- Title: boss_attaque Pages: 1 -->
<svg width="1021pt" height="381pt"
 viewBox="0.00 0.00 1021.00 381.00" xmlns="http://www.w3.org/2000/svg" xmlns:xlink="http://www.w3.org/1999/xlink">
<g id="graph0" class="graph" transform="scale(1 1) rotate(0) translate(4 377)">
<title>boss_attaque</title>
<!-- Node1 -->
<g id="Node000001" class="node">
<title>Node1</title>
<g id="a_Node000001"><a xlink:title="Execute la logique d&#39;attaque du boss en tenant compte des cooldowns et de la phase active.">
<polygon fill="#999999" stroke="#666666" points="74.5,-196 0,-196 0,-176 74.5,-176 74.5,-196"/>
<text xml:space="preserve" text-anchor="middle" x="37.25" y="-182.5" font-family="Helvetica,sans-Serif" font-size="10.00">boss_attaque</text>
</a>
</g>
</g>
<!-- Node2 -->
<g id="Node000002" class="node">
<title>Node2</title>
<g id="a_Node000002"><a xlink:href="boss_8c.html#a5f817e3b267c2b327de8c2d9251477f4" target="_top" xlink:title=" ">
<polygon fill="white" stroke="#666666" points="259.25,-196 110.5,-196 110.5,-176 259.25,-176 259.25,-196"/>
<text xml:space="preserve" text-anchor="middle" x="184.88" y="-182.5" font-family="Helvetica,sans-Serif" font-size="10.00">obtenir_fonction_attaque_boss</text>
</a>
</g>
</g>
<!-- Node1&#45;&gt;Node2 -->
<g id="edge1_Node000001_Node000002" class="edge">
<title>Node1&#45;&gt;Node2</title>
<g id="a_edge1_Node000001_Node000002"><a xlink:title=" ">
<path fill="none" stroke="#63b8ff" d="M75,-186C82.41,-186 90.49,-186 98.8,-186"/>
<polygon fill="#63b8ff" stroke="#63b8ff" points="98.7,-189.5 108.7,-186 98.7,-182.5 98.7,-189.5"/>
</a>
</g>
</g>
<!-- Node3 -->
<g id="Node000003" class="node">
<title>Node3</title>
<g id="a_Node000003"><a xlink:href="boss_8c.html#a15fd30a5ef8a97e7f493402eac74780f" target="_top" xlink:title=" ">
<polygon fill="white" stroke="#666666" points="412.5,-237 295.25,-237 295.25,-217 412.5,-217 412.5,-237"/>
<text xml:space="preserve" text-anchor="middle" x="353.88" y="-223.5" font-family="Helvetica,sans-Serif" font-size="10.00">attaque_demon_de_feu</text>
</a>
</g>
</g>
<!-- Node2&#45;&gt;Node3 -->
<g id="edge2_Node000002_Node000003" class="edge">
<title>Node2&#45;&gt;Node3</title>
<g id="a_edge2_Node000002_Node000003"><a xlink:title=" ">
<path fill="none" stroke="#63b8ff" d="M228.45,-196.45C250.04,-201.75 276.48,-208.25 299.43,-213.88"/>
<polygon fill="#63b8ff" stroke="#63b8ff" points="298.36,-217.22 308.91,-216.21 300.03,-210.42 298.36,-217.22"/>
</a>
</g>
</g>
<!-- Node15 -->
<g id="Node000015" class="node">
<title>Node15</title>
<g id="a_Node000015"><a xlink:href="boss_8c.html#ab86bd855c9b53c18f663cf494b2f68ad" target="_top" xlink:title=" ">
<polygon fill="white" stroke="#666666" points="402,-102 305.75,-102 305.75,-82 402,-82 402,-102"/>
<text xml:space="preserve" text-anchor="middle" x="353.88" y="-88.5" font-family="Helvetica,sans-Serif" font-size="10.00">attaque_minotaure</text>
</a>
</g>
</g>
<!-- Node2&#45;&gt;Node15 -->
<g id="edge18_Node000002_Node000015" class="edge">
<title>Node2&#45;&gt;Node15</title>
<g id="a_edge18_Node000002_Node000015"><a xlink:title=" ">
<path fill="none" stroke="#63b8ff" d="M204.38,-175.58C233.48,-159.21 290.11,-127.33 324.41,-108.02"/>
<polygon fill="#63b8ff" stroke="#63b8ff" points="325.97,-111.16 332.96,-103.21 322.53,-105.06 325.97,-111.16"/>
</a>
</g>
</g>
<!-- Node18 -->
<g id="Node000018" class="node">
<title>Node18</title>
<g id="a_Node000018"><a xlink:href="boss_8c.html#a0bffa7571e9e729458ce45d5dac46901" target="_top" xlink:title=" ">
<polygon fill="white" stroke="#666666" points="401.25,-196 306.5,-196 306.5,-176 401.25,-176 401.25,-196"/>
<text xml:space="preserve" text-anchor="middle" x="353.88" y="-182.5" font-family="Helvetica,sans-Serif" font-size="10.00">attaque_sentinelle</text>
</a>
</g>
</g>
<!-- Node2&#45;&gt;Node18 -->
<g id="edge25_Node000002_Node000018" class="edge">
<title>Node2&#45;&gt;Node18</title>
<g id="a_edge25_Node000002_Node000018"><a xlink:title=" ">
<path fill="none" stroke="#63b8ff" d="M259.61,-186C271.54,-186 283.73,-186 295.21,-186"/>
<polygon fill="#63b8ff" stroke="#63b8ff" points="294.89,-189.5 304.89,-186 294.89,-182.5 294.89,-189.5"/>
</a>
</g>
</g>
<!-- Node4 -->
<g id="Node000004" class="node">
<title>Node4</title>
<g id="a_Node000004"><a xlink:href="boss_8c.html#a7a2624259975aba5659ef69da7dd85ac" target="_top" xlink:title=" ">
<polygon fill="white" stroke="#666666" points="578.88,-152 468.38,-152 468.38,-120 578.88,-120 578.88,-152"/>
<text xml:space="preserve" text-anchor="start" x="476.38" y="-138.5" font-family="Helvetica,sans-Serif" font-size="10.00">declencher_animation</text>
<text xml:space="preserve" text-anchor="middle" x="523.62" y="-126.5" font-family="Helvetica,sans-Serif" font-size="10.00">_attaque</text>
</a>
</g>
</g>
<!-- Node3&#45;&gt;Node4 -->
<g id="edge3_Node000003_Node000004" class="edge">
<title>Node3&#45;&gt;Node4</title>
<g id="a_edge3_Node000003_Node000004"><a xlink:title=" ">
<path fill="none" stroke="#63b8ff" d="M390.79,-216.6C398.34,-213.53 405.99,-209.7 412.5,-205 432.99,-190.22 427.72,-175.37 448.5,-161 451.37,-159.02 454.4,-157.18 457.55,-155.48"/>
<polygon fill="#63b8ff" stroke="#63b8ff" points="459.03,-158.65 466.52,-151.16 455.99,-152.35 459.03,-158.65"/>
</a>
</g>
</g>
<!-- Node5 -->
<g id="Node000005" class="node">
<title>Node5</title>
<g id="a_Node000005"><a xlink:href="boss_8c.html#afb0b61469efd6dce1e15a516cb9e4115" target="_top" xlink:title=" ">
<polygon fill="white" stroke="#666666" points="765.12,-196 642.62,-196 642.62,-176 765.12,-176 765.12,-196"/>
<text xml:space="preserve" text-anchor="middle" x="703.88" y="-182.5" font-family="Helvetica,sans-Serif" font-size="10.00">get_boss_centre_monde</text>
</a>
</g>
</g>
<!-- Node3&#45;&gt;Node5 -->
<g id="edge4_Node000003_Node000005" class="edge">
<title>Node3&#45;&gt;Node5</title>
<g id="a_edge4_Node000003_Node000005"><a xlink:title=" ">
<path fill="none" stroke="#63b8ff" d="M412.82,-225.97C462.43,-224.43 535.61,-220.58 598.75,-211 617.3,-208.19 637.4,-203.71 654.95,-199.31"/>
<polygon fill="#63b8ff" stroke="#63b8ff" points="655.79,-202.71 664.6,-196.83 654.05,-195.93 655.79,-202.71"/>
</a>
</g>
</g>
<!-- Node6 -->
<g id="Node000006" class="node">
<title>Node6</title>
<g id="a_Node000006"><a xlink:href="boss_8c.html#a1d5fd526db9bbc3f5b70491cfc645818" target="_top" xlink:title=" ">
<polygon fill="white" stroke="#666666" points="764.75,-278 643,-278 643,-258 764.75,-258 764.75,-278"/>
<text xml:space="preserve" text-anchor="middle" x="703.88" y="-264.5" font-family="Helvetica,sans-Serif" font-size="10.00">get_player_world_center</text>
</a>
</g>
</g>
<!-- Node3&#45;&gt;Node6 -->
<g id="edge5_Node000003_Node000006" class="edge">
<title>Node3&#45;&gt;Node6</title>
<g id="a_edge5_Node000003_Node000006"><a xlink:title=" ">
<path fill="none" stroke="#63b8ff" d="M367.5,-237.43C384.6,-250.82 416.67,-273.34 448.5,-282 515.9,-300.33 596.94,-290.72 649.14,-280.66"/>
<polygon fill="#63b8ff" stroke="#63b8ff" points="649.55,-284.15 658.67,-278.75 648.18,-277.29 649.55,-284.15"/>
</a>
</g>
</g>
<!-- Node11 -->
<g id="Node000011" class="node">
<title>Node11</title>
<g id="a_Node000011"><a xlink:href="boss_8c.html#a73d03ed33f6dd919c2ab511246d454f9" target="_top" xlink:title=" ">
<polygon fill="white" stroke="#666666" points="598.75,-354 448.5,-354 448.5,-334 598.75,-334 598.75,-354"/>
<text xml:space="preserve" text-anchor="middle" x="523.62" y="-340.5" font-family="Helvetica,sans-Serif" font-size="10.00">invoquer_minions_autour_boss</text>
</a>
</g>
</g>
<!-- Node3&#45;&gt;Node11 -->
<g id="edge10_Node000003_Node000011" class="edge">
<title>Node3&#45;&gt;Node11</title>
<g id="a_edge10_Node000003_Node000011"><a xlink:title=" ">
<path fill="none" stroke="#63b8ff" d="M362.46,-237.24C377.06,-256.24 410.94,-297.1 448.5,-320 454.56,-323.7 461.26,-326.89 468.07,-329.62"/>
<polygon fill="#63b8ff" stroke="#63b8ff" points="466.78,-332.88 477.37,-333.03 469.19,-326.31 466.78,-332.88"/>
</a>
</g>
</g>
<!-- Node14 -->
<g id="Node000014" class="node">
<title>Node14</title>
<g id="a_Node000014"><a xlink:href="boss_8c.html#a848bc8291aee689be886bcc6a8c68456" target="_top" xlink:title=" ">
<polygon fill="white" stroke="#666666" points="580,-202 467.25,-202 467.25,-170 580,-170 580,-202"/>
<text xml:space="preserve" text-anchor="start" x="475.25" y="-188.5" font-family="Helvetica,sans-Serif" font-size="10.00">spawn_projectile_vers</text>
<text xml:space="preserve" text-anchor="middle" x="523.62" y="-176.5" font-family="Helvetica,sans-Serif" font-size="10.00">_joueur</text>
</a>
</g>
</g>
<!-- Node3&#45;&gt;Node14 -->
<g id="edge15_Node000003_Node000014" class="edge">
<title>Node3&#45;&gt;Node14</title>
<g id="a_edge15_Node000003_Node000014"><a xlink:title=" ">
<path fill="none" stroke="#63b8ff" d="M397.64,-216.55C415.33,-212.22 436.26,-207.11 455.89,-202.31"/>
<polygon fill="#63b8ff" stroke="#63b8ff" points="456.59,-205.74 465.47,-199.97 454.93,-198.94 456.59,-205.74"/>
</a>
</g>
</g>
<!-- Node7 -->
<g id="Node000007" class="node">
<title>Node7</title>
<g id="a_Node000007"><a xlink:href="main_8h.html#a6c672075bc554c92548a916c9501bdb5" target="_top" xlink:title=" ">
<polygon fill="white" stroke="#666666" points="897,-297 809,-297 809,-277 897,-277 897,-297"/>
<text xml:space="preserve" text-anchor="middle" x="853" y="-283.5" font-family="Helvetica,sans-Serif" font-size="10.00">screen_center_x</text>
</a>
</g>
</g>
<!-- Node6&#45;&gt;Node7 -->
<g id="edge6_Node000006_Node000007" class="edge">
<title>Node6&#45;&gt;Node7</title>
<g id="a_edge6_Node000006_Node000007"><a xlink:title=" ">
<path fill="none" stroke="#63b8ff" d="M765.14,-275.78C775.86,-277.17 786.98,-278.6 797.53,-279.97"/>
<polygon fill="#63b8ff" stroke="#63b8ff" points="796.84,-283.41 807.21,-281.22 797.74,-276.46 796.84,-283.41"/>
</a>
</g>
</g>
<!-- Node9 -->
<g id="Node000009" class="node">
<title>Node9</title>
<g id="a_Node000009"><a xlink:href="main_8h.html#a6456affd0d0a21e911b531a5ba25676d" target="_top" xlink:title=" ">
<polygon fill="white" stroke="#666666" points="897,-259 809,-259 809,-239 897,-239 897,-259"/>
<text xml:space="preserve" text-anchor="middle" x="853" y="-245.5" font-family="Helvetica,sans-Serif" font-size="10.00">screen_center_y</text>
</a>
</g>
</g>
<!-- Node6&#45;&gt;Node9 -->
<g id="edge8_Node000006_Node000009" class="edge">
<title>Node6&#45;&gt;Node9</title>
<g id="a_edge8_Node000006_Node000009"><a xlink:title=" ">
<path fill="none" stroke="#63b8ff" d="M765.14,-260.22C775.86,-258.83 786.98,-257.4 797.53,-256.03"/>
<polygon fill="#63b8ff" stroke="#63b8ff" points="797.74,-259.54 807.21,-254.78 796.84,-252.59 797.74,-259.54"/>
</a>
</g>
</g>
<!-- Node8 -->
<g id="Node000008" class="node">
<title>Node8</title>
<g id="a_Node000008"><a xlink:href="main_8h.html#aaaa1e9fcb86ff8e60b297faa7815ad1d" target="_top" xlink:title=" ">
<polygon fill="white" stroke="#666666" points="1011.25,-297 934.5,-297 934.5,-277 1011.25,-277 1011.25,-297"/>
<text xml:space="preserve" text-anchor="middle" x="972.88" y="-283.5" font-family="Helvetica,sans-Serif" font-size="10.00">screen_widthf</text>
</a>
</g>
</g>
<!-- Node7&#45;&gt;Node8 -->
<g id="edge7_Node000007_Node000008" class="edge">
<title>Node7&#45;&gt;Node8</title>
<g id="a_edge7_Node000007_Node000008"><a xlink:title=" ">
<path fill="none" stroke="#63b8ff" d="M897.22,-287C905.53,-287 914.3,-287 922.78,-287"/>
<polygon fill="#63b8ff" stroke="#63b8ff" points="922.59,-290.5 932.59,-287 922.59,-283.5 922.59,-290.5"/>
</a>
</g>
</g>
<!-- Node10 -->
<g id="Node000010" class="node">
<title>Node10</title>
<g id="a_Node000010"><a xlink:href="main_8h.html#a9b4aefc63ea00e60ec88da19e24e8236" target="_top" xlink:title=" ">
<polygon fill="white" stroke="#666666" points="1012.75,-259 933,-259 933,-239 1012.75,-239 1012.75,-259"/>
<text xml:space="preserve" text-anchor="middle" x="972.88" y="-245.5" font-family="Helvetica,sans-Serif" font-size="10.00">screen_heightf</text>
</a>
</g>
</g>
<!-- Node9&#45;&gt;Node10 -->
<g id="edge9_Node000009_Node000010" class="edge">
<title>Node9&#45;&gt;Node10</title>
<g id="a_edge9_Node000009_Node000010"><a xlink:title=" ">
<path fill="none" stroke="#63b8ff" d="M897.22,-249C904.99,-249 913.16,-249 921.12,-249"/>
<polygon fill="#63b8ff" stroke="#63b8ff" points="921.05,-252.5 931.05,-249 921.05,-245.5 921.05,-252.5"/>
</a>
</g>
</g>
<!-- Node11&#45;&gt;Node5 -->
<g id="edge12_Node000011_Node000005" class="edge">
<title>Node11&#45;&gt;Node5</title>
<g id="a_edge12_Node000011_Node000005"><a xlink:title=" ">
<path fill="none" stroke="#63b8ff" d="M536.32,-333.63C566.17,-307.18 645.43,-236.92 682.82,-203.78"/>
<polygon fill="#63b8ff" stroke="#63b8ff" points="685.07,-206.46 690.24,-197.2 680.43,-201.22 685.07,-206.46"/>
</a>
</g>
</g>
<!-- Node11&#45;&gt;Node6 -->
<g id="edge13_Node000011_Node000006" class="edge">
<title>Node11&#45;&gt;Node6</title>
<g id="a_edge13_Node000011_Node000006"><a xlink:title=" ">
<path fill="none" stroke="#63b8ff" d="M560.46,-333.59C572.74,-329.71 586.48,-325.02 598.75,-320 624.87,-309.32 653.48,-294.82 674.09,-283.84"/>
<polygon fill="#63b8ff" stroke="#63b8ff" points="675.6,-287 682.75,-279.18 672.28,-280.84 675.6,-287"/>
</a>
</g>
</g>
<!-- Node12 -->
<g id="Node000012" class="node">
<title>Node12</title>
<g id="a_Node000012"><a xlink:href="boss_8c.html#a68148695c18514e47188f05ec2791406" target="_top" xlink:title=" ">
<polygon fill="white" stroke="#666666" points="762.12,-335 645.62,-335 645.62,-315 762.12,-315 762.12,-335"/>
<text xml:space="preserve" text-anchor="middle" x="703.88" y="-321.5" font-family="Helvetica,sans-Serif" font-size="10.00">compter_minions_boss</text>
</a>
</g>
</g>
<!-- Node11&#45;&gt;Node12 -->
<g id="edge11_Node000011_Node000012" class="edge">
<title>Node11&#45;&gt;Node12</title>
<g id="a_edge11_Node000011_Node000012"><a xlink:title=" ">
<path fill="none" stroke="#63b8ff" d="M599.19,-336.05C610.71,-334.82 622.56,-333.56 633.95,-332.35"/>
<polygon fill="#63b8ff" stroke="#63b8ff" points="634.07,-335.85 643.65,-331.31 633.33,-328.89 634.07,-335.85"/>
</a>
</g>
</g>
<!-- Node13 -->
<g id="Node000013" class="node">
<title>Node13</title>
<g id="a_Node000013"><a xlink:href="boss_8c.html#a8767c1117982bce339be6b5bc5d105a4" target="_top" xlink:title=" ">
<polygon fill="white" stroke="#666666" points="773,-373 634.75,-373 634.75,-353 773,-353 773,-373"/>
<text xml:space="preserve" text-anchor="middle" x="703.88" y="-359.5" font-family="Helvetica,sans-Serif" font-size="10.00">get_texture_pawn_existante</text>
</a>
</g>
</g>
<!-- Node11&#45;&gt;Node13 -->
<g id="edge14_Node000011_Node000013" class="edge">
<title>Node11&#45;&gt;Node13</title>
<g id="a_edge14_Node000011_Node000013"><a xlink:title=" ">
<path fill="none" stroke="#63b8ff" d="M599.19,-351.95C607.01,-352.78 614.98,-353.63 622.86,-354.47"/>
<polygon fill="#63b8ff" stroke="#63b8ff" points="622.48,-357.95 632.8,-355.53 623.22,-350.99 622.48,-357.95"/>
</a>
</g>
</g>
<!-- Node14&#45;&gt;Node5 -->
<g id="edge16_Node000014_Node000005" class="edge">
<title>Node14&#45;&gt;Node5</title>
<g id="a_edge16_Node000014_Node000005"><a xlink:title=" ">
<path fill="none" stroke="#63b8ff" d="M580.05,-186C596.23,-186 614.15,-186 631.18,-186"/>
<polygon fill="#63b8ff" stroke="#63b8ff" points="630.71,-189.5 640.71,-186 630.71,-182.5 630.71,-189.5"/>
</a>
</g>
</g>
<!-- Node14&#45;&gt;Node6 -->
<g id="edge17_Node000014_Node000006" class="edge">
<title>Node14&#45;&gt;Node6</title>
<g id="a_edge17_Node000014_Node000006"><a xlink:title=" ">
<path fill="none" stroke="#63b8ff" d="M560.27,-202.4C592.26,-217.11 638.84,-238.54 669.96,-252.86"/>
<polygon fill="#63b8ff" stroke="#63b8ff" points="668.35,-255.97 678.9,-256.97 671.28,-249.61 668.35,-255.97"/>
</a>
</g>
</g>
<!-- Node15&#45;&gt;Node4 -->
<g id="edge19_Node000015_Node000004" class="edge">
<title>Node15&#45;&gt;Node4</title>
<g id="a_edge19_Node000015_Node000004"><a xlink:title=" ">
<path fill="none" stroke="#63b8ff" d="M394.63,-102.43C413.28,-107.32 435.99,-113.28 457.08,-118.81"/>
<polygon fill="#63b8ff" stroke="#63b8ff" points="455.9,-122.12 466.46,-121.27 457.68,-115.35 455.9,-122.12"/>
</a>
</g>
</g>
<!-- Node15&#45;&gt;Node5 -->
<g id="edge23_Node000015_Node000005" class="edge">
<title>Node15&#45;&gt;Node5</title>
<g id="a_edge23_Node000015_Node000005"><a xlink:title=" ">
<path fill="none" stroke="#63b8ff" d="M386.42,-81.6C434.42,-67.62 527.71,-47.81 598.75,-78 640.89,-95.91 674.25,-140.14 691.02,-166.11"/>
<polygon fill="#63b8ff" stroke="#63b8ff" points="687.93,-167.76 696.19,-174.4 693.87,-164.06 687.93,-167.76"/>
</a>
</g>
</g>
<!-- Node15&#45;&gt;Node6 -->
<g id="edge24_Node000015_Node000006" class="edge">
<title>Node15&#45;&gt;Node6</title>
<g id="a_edge24_Node000015_Node000006"><a xlink:title=" ">
<path fill="none" stroke="#63b8ff" d="M402.4,-89.86C464.47,-88.04 568.76,-88.61 598.75,-111 634.6,-137.77 609.67,-167.95 634.75,-205 646.83,-222.84 664.87,-239.23 679.36,-250.82"/>
<polygon fill="#63b8ff" stroke="#63b8ff" points="677.01,-253.43 687.07,-256.78 681.3,-247.89 677.01,-253.43"/>
</a>
</g>
</g>
<!-- Node16 -->
<g id="Node000016" class="node">
<title>Node16</title>
<g id="a_Node000016"><a xlink:href="boss_8c.html#a1605a1af145e7f0bc025e2c9c51d5ab9" target="_top" xlink:title=" ">
<polygon fill="white" stroke="#666666" points="586,-26 461.25,-26 461.25,-6 586,-6 586,-26"/>
<text xml:space="preserve" text-anchor="middle" x="523.62" y="-12.5" font-family="Helvetica,sans-Serif" font-size="10.00">deplacer_minotaure_vers</text>
</a>
</g>
</g>
<!-- Node15&#45;&gt;Node16 -->
<g id="edge20_Node000015_Node000016" class="edge">
<title>Node15&#45;&gt;Node16</title>
<g id="a_edge20_Node000015_Node000016"><a xlink:title=" ">
<path fill="none" stroke="#63b8ff" d="M371.29,-81.6C389.6,-70.3 420.36,-52.23 448.5,-40 456.88,-36.36 466,-32.97 474.88,-29.95"/>
<polygon fill="#63b8ff" stroke="#63b8ff" points="475.68,-33.37 484.09,-26.93 473.5,-26.72 475.68,-33.37"/>
</a>
</g>
</g>
<!-- Node16&#45;&gt;Node5 -->
<g id="edge21_Node000016_Node000005" class="edge">
<title>Node16&#45;&gt;Node5</title>
<g id="a_edge21_Node000016_Node000005"><a xlink:title=" ">
<path fill="none" stroke="#63b8ff" d="M572.28,-26.45C581.59,-29.83 590.89,-34.24 598.75,-40 644.83,-73.75 678.34,-134.12 693.63,-165.61"/>
<polygon fill="#63b8ff" stroke="#63b8ff" points="690.36,-166.88 697.79,-174.43 696.69,-163.9 690.36,-166.88"/>
</a>
</g>
</g>
<!-- Node17 -->
<g id="Node000017" class="node">
<title>Node17</title>
<g id="a_Node000017"><a xlink:href="boss_8c.html#ae7410e9e2b5e0ca0b415b422f2da9c79" target="_top" xlink:title=" ">
<polygon fill="white" stroke="#666666" points="752.75,-32 655,-32 655,0 752.75,0 752.75,-32"/>
<text xml:space="preserve" text-anchor="start" x="663" y="-18.5" font-family="Helvetica,sans-Serif" font-size="10.00">minotaure_position</text>
<text xml:space="preserve" text-anchor="middle" x="703.88" y="-6.5" font-family="Helvetica,sans-Serif" font-size="10.00">_libre_centre</text>
</a>
</g>
</g>
<!-- Node16&#45;&gt;Node17 -->
<g id="edge22_Node000016_Node000017" class="edge">
<title>Node16&#45;&gt;Node17</title>
<g id="a_edge22_Node000016_Node000017"><a xlink:title=" ">
<path fill="none" stroke="#63b8ff" d="M586.47,-16C604.87,-16 624.98,-16 643.24,-16"/>
<polygon fill="#63b8ff" stroke="#63b8ff" points="643.12,-19.5 653.12,-16 643.12,-12.5 643.12,-19.5"/>
</a>
</g>
</g>
<!-- Node18&#45;&gt;Node4 -->
<g id="edge26_Node000018_Node000004" class="edge">
<title>Node18&#45;&gt;Node4</title>
<g id="a_edge26_Node000018_Node000004"><a xlink:title=" ">
<path fill="none" stroke="#63b8ff" d="M390.04,-175.52C409.44,-169.74 434.17,-162.37 457,-155.56"/>
<polygon fill="#63b8ff" stroke="#63b8ff" points="457.99,-158.92 466.57,-152.71 455.99,-152.21 457.99,-158.92"/>
</a>
</g>
</g>
<!-- Node18&#45;&gt;Node6 -->
<g id="edge27_Node000018_Node000006" class="edge">
<title>Node18&#45;&gt;Node6</title>
<g id="a_edge27_Node000018_Node000006"><a xlink:title=" ">
<path fill="none" stroke="#63b8ff" d="M392.6,-196.45C409.63,-201.07 430.04,-206.47 448.5,-211 514.63,-227.23 590.9,-244.07 642.54,-255.2"/>
<polygon fill="#63b8ff" stroke="#63b8ff" points="641.5,-258.56 652.02,-257.24 642.98,-251.71 641.5,-258.56"/>
</a>
</g>
</g>
<!-- Node18&#45;&gt;Node14 -->
<g id="edge28_Node000018_Node000014" class="edge">
<title>Node18&#45;&gt;Node14</title>
<g id="a_edge28_Node000018_Node000014"><a xlink:title=" ">
<path fill="none" stroke="#63b8ff" d="M401.6,-186C418.3,-186 437.46,-186 455.54,-186"/>
<polygon fill="#63b8ff" stroke="#63b8ff" points="455.41,-189.5 465.41,-186 455.41,-182.5 455.41,-189.5"/>
</a>
</g>
</g>
</g>
</svg>
