<?xml version="1.0" encoding="UTF-8" standalone="no"?>
<!DOCTYPE svg PUBLIC "-//W3C//DTD SVG 1.1//EN"
 "http://www.w3.org/Graphics/SVG/1.1/DTD/svg11.dtd">
<!-- Generated by graphviz version 14.1.4 (20260321.0153)
 -->
<!-- Title: renvoyer_projectiles_touches Pages: 1 -->
<svg width="585pt" height="40pt"
 viewBox="0.00 0.00 585.00 40.00" xmlns="http://www.w3.org/2000/svg" xmlns:xlink="http://www.w3.org/1999/xlink">
<g id="graph0" class="graph" transform="scale(1 1) rotate(0) translate(4 36)">
<title>renvoyer_projectiles_touches</title>
<!-- Node1 -->
<g id="Node000001" class="node">
<title>Node1</title>
<g id="a_Node000001"><a xlink:title=" ">
<polygon fill="#999999" stroke="#666666" points="576.5,-32 473.5,-32 473.5,0 576.5,0 576.5,-32"/>
<text xml:space="preserve" text-anchor="start" x="481.5" y="-18.5" font-family="Helvetica,sans-Serif" font-size="10.00">renvoyer_projectiles</text>
<text xml:space="preserve" text-anchor="middle" x="525" y="-6.5" font-family="Helvetica,sans-Serif" font-size="10.00">_touches</text>
</a>
</g>
</g>
<!-- Node2 -->
<g id="Node000002" class="node">
<title>Node2</title>
<g id="a_Node000002"><a xlink:href="boss_8c.html#a56b46a265edb06c19ab33048f07c26e9" target="_top" xlink:title=" ">
<polygon fill="white" stroke="#666666" points="437.5,-32 316.5,-32 316.5,0 437.5,0 437.5,-32"/>
<text xml:space="preserve" text-anchor="start" x="324.5" y="-18.5" font-family="Helvetica,sans-Serif" font-size="10.00">appliquer_degats_joueur</text>
<text xml:space="preserve" text-anchor="middle" x="377" y="-6.5" font-family="Helvetica,sans-Serif" font-size="10.00">_sur_boss</text>
</a>
</g>
</g>
<!-- Node1&#45;&gt;Node2 -->
<g id="edge1_Node000001_Node000002" class="edge">
<title>Node1&#45;&gt;Node2</title>
<g id="a_edge1_Node000001_Node000002"><a xlink:title=" ">
<path fill="none" stroke="#63b8ff" d="M461.86,-16C453.9,-16 445.77,-16 437.85,-16"/>
<polygon fill="#63b8ff" stroke="#63b8ff" points="461.83,-19.5 471.83,-16 461.83,-12.5 461.83,-19.5"/>
</a>
</g>
</g>
<!-- Node3 -->
<g id="Node000003" class="node">
<title>Node3</title>
<g id="a_Node000003"><a xlink:href="boss_8c.html#abbb99b844a32a59c50228b7d6dcb888b" target="_top" xlink:title="Met a jour boss en fonction de l&#39;etat courant du jeu.">
<polygon fill="white" stroke="#666666" points="280.5,-26 179,-26 179,-6 280.5,-6 280.5,-26"/>
<text xml:space="preserve" text-anchor="middle" x="229.75" y="-12.5" font-family="Helvetica,sans-Serif" font-size="10.00">mettre_a_jour_boss</text>
</a>
</g>
</g>
<!-- Node2&#45;&gt;Node3 -->
<g id="edge2_Node000002_Node000003" class="edge">
<title>Node2&#45;&gt;Node3</title>
<g id="a_edge2_Node000002_Node000003"><a xlink:title=" ">
<path fill="none" stroke="#63b8ff" d="M304.72,-16C296.64,-16 288.54,-16 280.82,-16"/>
<polygon fill="#63b8ff" stroke="#63b8ff" points="304.57,-19.5 314.57,-16 304.57,-12.5 304.57,-19.5"/>
</a>
</g>
</g>
<!-- Node4 -->
<g id="Node000004" class="node">
<title>Node4</title>
<g id="a_Node000004"><a xlink:href="jeux_8c.html#a2d7491d04e8c2bdb52bb6ed7d75e4d78" target="_top" xlink:title="Execute la boucle principale de gameplay pour la planete courante.">
<polygon fill="white" stroke="#666666" points="143,-26 73,-26 73,-6 143,-6 143,-26"/>
<text xml:space="preserve" text-anchor="middle" x="108" y="-12.5" font-family="Helvetica,sans-Serif" font-size="10.00">jeu_principal</text>
</a>
</g>
</g>
<!-- Node3&#45;&gt;Node4 -->
<g id="edge3_Node000003_Node000004" class="edge">
<title>Node3&#45;&gt;Node4</title>
<g id="a_edge3_Node000003_Node000004"><a xlink:title=" ">
<path fill="none" stroke="#63b8ff" d="M167.39,-16C159.09,-16 150.84,-16 143.26,-16"/>
<polygon fill="#63b8ff" stroke="#63b8ff" points="167.15,-19.5 177.15,-16 167.15,-12.5 167.15,-19.5"/>
</a>
</g>
</g>
<!-- Node5 -->
<g id="Node000005" class="node">
<title>Node5</title>
<g id="a_Node000005"><a xlink:href="main_8c.html#a0ddf1224851353fc92bfbff6f499fa97" target="_top" xlink:title=" ">
<polygon fill="white" stroke="#666666" points="37,-26 0,-26 0,-6 37,-6 37,-26"/>
<text xml:space="preserve" text-anchor="middle" x="18.5" y="-12.5" font-family="Helvetica,sans-Serif" font-size="10.00">main</text>
</a>
</g>
</g>
<!-- Node4&#45;&gt;Node5 -->
<g id="edge4_Node000004_Node000005" class="edge">
<title>Node4&#45;&gt;Node5</title>
<g id="a_edge4_Node000004_Node000005"><a xlink:title=" ">
<path fill="none" stroke="#63b8ff" d="M61.18,-16C52.72,-16 44.36,-16 37.37,-16"/>
<polygon fill="#63b8ff" stroke="#63b8ff" points="61.16,-19.5 71.16,-16 61.16,-12.5 61.16,-19.5"/>
</a>
</g>
</g>
</g>
</svg>
