<?xml version="1.0" encoding="UTF-8" standalone="no"?>
<!DOCTYPE svg PUBLIC "-//W3C//DTD SVG 1.1//EN"
 "http://www.w3.org/Graphics/SVG/1.1/DTD/svg11.dtd">
<!-- Generated by graphviz version 14.1.4 (20260321.0153)
 -->
<!-- Title: spawn_projectile_vers_joueur Pages: 1 -->
<svg width="886pt" height="66pt"
 viewBox="0.00 0.00 886.00 66.00" xmlns="http://www.w3.org/2000/svg" xmlns:xlink="http://www.w3.org/1999/xlink">
<g id="graph0" class="graph" transform="scale(1 1) rotate(0) translate(4 62)">
<title>spawn_projectile_vers_joueur</title>
<!-- Node1 -->
<g id="Node000001" class="node">
<title>Node1</title>
<g id="a_Node000001"><a xlink:title=" ">
<polygon fill="#999999" stroke="#666666" points="877.75,-45 765,-45 765,-13 877.75,-13 877.75,-45"/>
<text xml:space="preserve" text-anchor="start" x="773" y="-31.5" font-family="Helvetica,sans-Serif" font-size="10.00">spawn_projectile_vers</text>
<text xml:space="preserve" text-anchor="middle" x="821.38" y="-19.5" font-family="Helvetica,sans-Serif" font-size="10.00">_joueur</text>
</a>
</g>
</g>
<!-- Node2 -->
<g id="Node000002" class="node">
<title>Node2</title>
<g id="a_Node000002"><a xlink:href="boss_8c.html#a15fd30a5ef8a97e7f493402eac74780f" target="_top" xlink:title=" ">
<polygon fill="white" stroke="#666666" points="729,-58 611.75,-58 611.75,-38 729,-38 729,-58"/>
<text xml:space="preserve" text-anchor="middle" x="670.38" y="-44.5" font-family="Helvetica,sans-Serif" font-size="10.00">attaque_demon_de_feu</text>
</a>
</g>
</g>
<!-- Node1&#45;&gt;Node2 -->
<g id="edge1_Node000001_Node000002" class="edge">
<title>Node1&#45;&gt;Node2</title>
<g id="a_edge1_Node000001_Node000002"><a xlink:title=" ">
<path fill="none" stroke="#63b8ff" d="M753.6,-37.51C745.53,-38.54 737.33,-39.59 729.4,-40.6"/>
<polygon fill="#63b8ff" stroke="#63b8ff" points="753.91,-41 763.39,-36.27 753.03,-34.06 753.91,-41"/>
</a>
</g>
</g>
<!-- Node8 -->
<g id="Node000008" class="node">
<title>Node8</title>
<g id="a_Node000008"><a xlink:href="boss_8c.html#a0bffa7571e9e729458ce45d5dac46901" target="_top" xlink:title=" ">
<polygon fill="white" stroke="#666666" points="717.75,-20 623,-20 623,0 717.75,0 717.75,-20"/>
<text xml:space="preserve" text-anchor="middle" x="670.38" y="-6.5" font-family="Helvetica,sans-Serif" font-size="10.00">attaque_sentinelle</text>
</a>
</g>
</g>
<!-- Node1&#45;&gt;Node8 -->
<g id="edge7_Node000001_Node000008" class="edge">
<title>Node1&#45;&gt;Node8</title>
<g id="a_edge7_Node000001_Node000008"><a xlink:title=" ">
<path fill="none" stroke="#63b8ff" d="M753.55,-20.48C741.59,-18.95 729.36,-17.39 718.12,-15.96"/>
<polygon fill="#63b8ff" stroke="#63b8ff" points="753.03,-23.94 763.39,-21.73 753.91,-17 753.03,-23.94"/>
</a>
</g>
</g>
<!-- Node3 -->
<g id="Node000003" class="node">
<title>Node3</title>
<g id="a_Node000003"><a xlink:href="boss_8c.html#a5f817e3b267c2b327de8c2d9251477f4" target="_top" xlink:title=" ">
<polygon fill="white" stroke="#666666" points="575.75,-39 427,-39 427,-19 575.75,-19 575.75,-39"/>
<text xml:space="preserve" text-anchor="middle" x="501.38" y="-25.5" font-family="Helvetica,sans-Serif" font-size="10.00">obtenir_fonction_attaque_boss</text>
</a>
</g>
</g>
<!-- Node2&#45;&gt;Node3 -->
<g id="edge2_Node000002_Node000003" class="edge">
<title>Node2&#45;&gt;Node3</title>
<g id="a_edge2_Node000002_Node000003"><a xlink:title=" ">
<path fill="none" stroke="#63b8ff" d="M600.02,-40.11C592.12,-39.21 584.05,-38.29 576.1,-37.39"/>
<polygon fill="#63b8ff" stroke="#63b8ff" points="599.6,-43.58 609.93,-41.24 600.39,-36.63 599.6,-43.58"/>
</a>
</g>
</g>
<!-- Node4 -->
<g id="Node000004" class="node">
<title>Node4</title>
<g id="a_Node000004"><a xlink:href="boss_8c.html#aea78d389dc05993b72aebb218a4768de" target="_top" xlink:title="Execute la logique d&#39;attaque du boss en tenant compte des cooldowns et de la phase active.">
<polygon fill="white" stroke="#666666" points="391,-39 316.5,-39 316.5,-19 391,-19 391,-39"/>
<text xml:space="preserve" text-anchor="middle" x="353.75" y="-25.5" font-family="Helvetica,sans-Serif" font-size="10.00">boss_attaque</text>
</a>
</g>
</g>
<!-- Node3&#45;&gt;Node4 -->
<g id="edge3_Node000003_Node000004" class="edge">
<title>Node3&#45;&gt;Node4</title>
<g id="a_edge3_Node000003_Node000004"><a xlink:title=" ">
<path fill="none" stroke="#63b8ff" d="M415.25,-29C406.92,-29 398.81,-29 391.38,-29"/>
<polygon fill="#63b8ff" stroke="#63b8ff" points="415.2,-32.5 425.2,-29 415.2,-25.5 415.2,-32.5"/>
</a>
</g>
</g>
<!-- Node5 -->
<g id="Node000005" class="node">
<title>Node5</title>
<g id="a_Node000005"><a xlink:href="boss_8c.html#abbb99b844a32a59c50228b7d6dcb888b" target="_top" xlink:title="Met a jour boss en fonction de l&#39;etat courant du jeu.">
<polygon fill="white" stroke="#666666" points="280.5,-39 179,-39 179,-19 280.5,-19 280.5,-39"/>
<text xml:space="preserve" text-anchor="middle" x="229.75" y="-25.5" font-family="Helvetica,sans-Serif" font-size="10.00">mettre_a_jour_boss</text>
</a>
</g>
</g>
<!-- Node4&#45;&gt;Node5 -->
<g id="edge4_Node000004_Node000005" class="edge">
<title>Node4&#45;&gt;Node5</title>
<g id="a_edge4_Node000004_Node000005"><a xlink:title=" ">
<path fill="none" stroke="#63b8ff" d="M304.88,-29C296.99,-29 288.8,-29 280.86,-29"/>
<polygon fill="#63b8ff" stroke="#63b8ff" points="304.63,-32.5 314.63,-29 304.63,-25.5 304.63,-32.5"/>
</a>
</g>
</g>
<!-- Node6 -->
<g id="Node000006" class="node">
<title>Node6</title>
<g id="a_Node000006"><a xlink:href="jeux_8c.html#a2d7491d04e8c2bdb52bb6ed7d75e4d78" target="_top" xlink:title="Execute la boucle principale de gameplay pour la planete courante.">
<polygon fill="white" stroke="#666666" points="143,-39 73,-39 73,-19 143,-19 143,-39"/>
<text xml:space="preserve" text-anchor="middle" x="108" y="-25.5" font-family="Helvetica,sans-Serif" font-size="10.00">jeu_principal</text>
</a>
</g>
</g>
<!-- Node5&#45;&gt;Node6 -->
<g id="edge5_Node000005_Node000006" class="edge">
<title>Node5&#45;&gt;Node6</title>
<g id="a_edge5_Node000005_Node000006"><a xlink:title=" ">
<path fill="none" stroke="#63b8ff" d="M167.39,-29C159.09,-29 150.84,-29 143.26,-29"/>
<polygon fill="#63b8ff" stroke="#63b8ff" points="167.15,-32.5 177.15,-29 167.15,-25.5 167.15,-32.5"/>
</a>
</g>
</g>
<!-- Node7 -->
<g id="Node000007" class="node">
<title>Node7</title>
<g id="a_Node000007"><a xlink:href="main_8c.html#a0ddf1224851353fc92bfbff6f499fa97" target="_top" xlink:title=" ">
<polygon fill="white" stroke="#666666" points="37,-39 0,-39 0,-19 37,-19 37,-39"/>
<text xml:space="preserve" text-anchor="middle" x="18.5" y="-25.5" font-family="Helvetica,sans-Serif" font-size="10.00">main</text>
</a>
</g>
</g>
<!-- Node6&#45;&gt;Node7 -->
<g id="edge6_Node000006_Node000007" class="edge">
<title>Node6&#45;&gt;Node7</title>
<g id="a_edge6_Node000006_Node000007"><a xlink:title=" ">
<path fill="none" stroke="#63b8ff" d="M61.18,-29C52.72,-29 44.36,-29 37.37,-29"/>
<polygon fill="#63b8ff" stroke="#63b8ff" points="61.16,-32.5 71.16,-29 61.16,-25.5 61.16,-32.5"/>
</a>
</g>
</g>
<!-- Node8&#45;&gt;Node3 -->
<g id="edge8_Node000008_Node000003" class="edge">
<title>Node8&#45;&gt;Node3</title>
<g id="a_edge8_Node000008_Node000003"><a xlink:title=" ">
<path fill="none" stroke="#63b8ff" d="M611.69,-16.56C600.24,-17.87 588.08,-19.25 576.18,-20.6"/>
<polygon fill="#63b8ff" stroke="#63b8ff" points="611.81,-20.07 621.35,-15.46 611.02,-13.12 611.81,-20.07"/>
</a>
</g>
</g>
</g>
</svg>
