<?xml version="1.0" encoding="UTF-8" standalone="no"?>
<!DOCTYPE svg PUBLIC "-//W3C//DTD SVG 1.1//EN"
 "http://www.w3.org/Graphics/SVG/1.1/DTD/svg11.dtd">
<!-- Generated by graphviz version 14.1.4 (20260321.0153)
 -->
<!-- Title: charger_texture_projectile Pages: 1 -->
<svg width="558pt" height="66pt"
 viewBox="0.00 0.00 558.00 66.00" xmlns="http://www.w3.org/2000/svg" xmlns:xlink="http://www.w3.org/1999/xlink">
<g id="graph0" class="graph" transform="scale(1 1) rotate(0) translate(4 62)">
<title>charger_texture_projectile</title>
<!-- Node1 -->
<g id="Node000001" class="node">
<title>Node1</title>
<g id="a_Node000001"><a xlink:title=" ">
<polygon fill="#999999" stroke="#666666" points="549.5,-39 421.75,-39 421.75,-19 549.5,-19 549.5,-39"/>
<text xml:space="preserve" text-anchor="middle" x="485.62" y="-25.5" font-family="Helvetica,sans-Serif" font-size="10.00">charger_texture_projectile</text>
</a>
</g>
</g>
<!-- Node2 -->
<g id="Node000002" class="node">
<title>Node2</title>
<g id="a_Node000002"><a xlink:href="boss_8c.html#a5ea8b09d43b6a435f573a51f3f44eaff" target="_top" xlink:title=" ">
<polygon fill="white" stroke="#666666" points="385.75,-58 288.75,-58 288.75,-38 385.75,-38 385.75,-58"/>
<text xml:space="preserve" text-anchor="middle" x="337.25" y="-44.5" font-family="Helvetica,sans-Serif" font-size="10.00">afficher_projectiles</text>
</a>
</g>
</g>
<!-- Node1&#45;&gt;Node2 -->
<g id="edge1_Node000001_Node000002" class="edge">
<title>Node1&#45;&gt;Node2</title>
<g id="a_edge1_Node000001_Node000002"><a xlink:title=" ">
<path fill="none" stroke="#63b8ff" d="M409.92,-38.7C401.88,-39.74 393.86,-40.78 386.25,-41.77"/>
<polygon fill="#63b8ff" stroke="#63b8ff" points="410.31,-42.18 419.77,-37.42 409.41,-35.23 410.31,-42.18"/>
</a>
</g>
</g>
<!-- Node6 -->
<g id="Node000006" class="node">
<title>Node6</title>
<g id="a_Node000006"><a xlink:href="boss_8c.html#af1c8aca032a751db8821bf8b9f592cf9" target="_top" xlink:title="Initialise boss et prepare les ressources necessaires.">
<polygon fill="white" stroke="#666666" points="243.38,-20 188.38,-20 188.38,0 243.38,0 243.38,-20"/>
<text xml:space="preserve" text-anchor="middle" x="215.88" y="-6.5" font-family="Helvetica,sans-Serif" font-size="10.00">init_boss</text>
</a>
</g>
</g>
<!-- Node1&#45;&gt;Node6 -->
<g id="edge5_Node000001_Node000006" class="edge">
<title>Node1&#45;&gt;Node6</title>
<g id="a_edge5_Node000001_Node000006"><a xlink:title=" ">
<path fill="none" stroke="#63b8ff" d="M410.32,-23.73C354.93,-19.8 282.45,-14.65 243.84,-11.91"/>
<polygon fill="#63b8ff" stroke="#63b8ff" points="409.78,-27.2 420,-24.41 410.27,-20.22 409.78,-27.2"/>
</a>
</g>
</g>
<!-- Node3 -->
<g id="Node000003" class="node">
<title>Node3</title>
<g id="a_Node000003"><a xlink:href="boss_8c.html#a659832e02de0bcb2ab0a339f981809ad" target="_top" xlink:title="Affiche boss et met a jour les elements visuels associes.">
<polygon fill="white" stroke="#666666" points="252.75,-58 179,-58 179,-38 252.75,-38 252.75,-58"/>
<text xml:space="preserve" text-anchor="middle" x="215.88" y="-44.5" font-family="Helvetica,sans-Serif" font-size="10.00">afficher_boss</text>
</a>
</g>
</g>
<!-- Node2&#45;&gt;Node3 -->
<g id="edge2_Node000002_Node000003" class="edge">
<title>Node2&#45;&gt;Node3</title>
<g id="a_edge2_Node000002_Node000003"><a xlink:title=" ">
<path fill="none" stroke="#63b8ff" d="M276.91,-48C268.74,-48 260.56,-48 252.99,-48"/>
<polygon fill="#63b8ff" stroke="#63b8ff" points="276.87,-51.5 286.87,-48 276.87,-44.5 276.87,-51.5"/>
</a>
</g>
</g>
<!-- Node4 -->
<g id="Node000004" class="node">
<title>Node4</title>
<g id="a_Node000004"><a xlink:href="jeux_8c.html#a2d7491d04e8c2bdb52bb6ed7d75e4d78" target="_top" xlink:title="Execute la boucle principale de gameplay pour la planete courante.">
<polygon fill="white" stroke="#666666" points="143,-39 73,-39 73,-19 143,-19 143,-39"/>
<text xml:space="preserve" text-anchor="middle" x="108" y="-25.5" font-family="Helvetica,sans-Serif" font-size="10.00">jeu_principal</text>
</a>
</g>
</g>
<!-- Node3&#45;&gt;Node4 -->
<g id="edge3_Node000003_Node000004" class="edge">
<title>Node3&#45;&gt;Node4</title>
<g id="a_edge3_Node000003_Node000004"><a xlink:title=" ">
<path fill="none" stroke="#63b8ff" d="M167.68,-39.53C159.44,-38.05 151,-36.54 143.19,-35.14"/>
<polygon fill="#63b8ff" stroke="#63b8ff" points="166.78,-42.93 177.25,-41.25 168.02,-36.04 166.78,-42.93"/>
</a>
</g>
</g>
<!-- Node5 -->
<g id="Node000005" class="node">
<title>Node5</title>
<g id="a_Node000005"><a xlink:href="main_8c.html#a0ddf1224851353fc92bfbff6f499fa97" target="_top" xlink:title=" ">
<polygon fill="white" stroke="#666666" points="37,-39 0,-39 0,-19 37,-19 37,-39"/>
<text xml:space="preserve" text-anchor="middle" x="18.5" y="-25.5" font-family="Helvetica,sans-Serif" font-size="10.00">main</text>
</a>
</g>
</g>
<!-- Node4&#45;&gt;Node5 -->
<g id="edge4_Node000004_Node000005" class="edge">
<title>Node4&#45;&gt;Node5</title>
<g id="a_edge4_Node000004_Node000005"><a xlink:title=" ">
<path fill="none" stroke="#63b8ff" d="M61.18,-29C52.72,-29 44.36,-29 37.37,-29"/>
<polygon fill="#63b8ff" stroke="#63b8ff" points="61.16,-32.5 71.16,-29 61.16,-25.5 61.16,-32.5"/>
</a>
</g>
</g>
<!-- Node6&#45;&gt;Node4 -->
<g id="edge6_Node000006_Node000004" class="edge">
<title>Node6&#45;&gt;Node4</title>
<g id="a_edge6_Node000006_Node000004"><a xlink:title=" ">
<path fill="none" stroke="#63b8ff" d="M176.85,-16.82C165.85,-18.8 153.91,-20.94 143.16,-22.87"/>
<polygon fill="#63b8ff" stroke="#63b8ff" points="177.17,-20.32 186.39,-15.11 175.93,-13.43 177.17,-20.32"/>
</a>
</g>
</g>
</g>
</svg>
