<?xml version="1.0" encoding="UTF-8" standalone="no"?>
<!DOCTYPE svg PUBLIC "-//W3C//DTD SVG 1.1//EN"
 "http://www.w3.org/Graphics/SVG/1.1/DTD/svg11.dtd">
<!-- Generated by graphviz version 14.1.4 (20260321.0153)
 -->
<!-- Title: get_zone_attaque_joueur Pages: 1 -->
<svg width="745pt" height="62pt"
 viewBox="0.00 0.00 745.00 62.00" xmlns="http://www.w3.org/2000/svg" xmlns:xlink="http://www.w3.org/1999/xlink">
<g id="graph0" class="graph" transform="scale(1 1) rotate(0) translate(4 58)">
<title>get_zone_attaque_joueur</title>
<!-- Node1 -->
<g id="Node000001" class="node">
<title>Node1</title>
<g id="a_Node000001"><a xlink:title=" ">
<polygon fill="#999999" stroke="#666666" points="737.25,-48 612.5,-48 612.5,-28 737.25,-28 737.25,-48"/>
<text xml:space="preserve" text-anchor="middle" x="674.88" y="-34.5" font-family="Helvetica,sans-Serif" font-size="10.00">get_zone_attaque_joueur</text>
</a>
</g>
</g>
<!-- Node2 -->
<g id="Node000002" class="node">
<title>Node2</title>
<g id="a_Node000002"><a xlink:href="boss_8c.html#a56b46a265edb06c19ab33048f07c26e9" target="_top" xlink:title=" ">
<polygon fill="white" stroke="#666666" points="437.5,-54 316.5,-54 316.5,-22 437.5,-22 437.5,-54"/>
<text xml:space="preserve" text-anchor="start" x="324.5" y="-40.5" font-family="Helvetica,sans-Serif" font-size="10.00">appliquer_degats_joueur</text>
<text xml:space="preserve" text-anchor="middle" x="377" y="-28.5" font-family="Helvetica,sans-Serif" font-size="10.00">_sur_boss</text>
</a>
</g>
</g>
<!-- Node1&#45;&gt;Node2 -->
<g id="edge1_Node000001_Node000002" class="edge">
<title>Node1&#45;&gt;Node2</title>
<g id="a_edge1_Node000001_Node000002"><a xlink:title=" ">
<path fill="none" stroke="#63b8ff" d="M600.62,-40.5C592.48,-40.7 584.32,-40.88 576.5,-41 530.73,-41.7 519.27,-41.72 473.5,-41 461.97,-40.82 449.67,-40.52 437.85,-40.17"/>
<polygon fill="#63b8ff" stroke="#63b8ff" points="600.65,-44 610.55,-40.23 600.46,-37 600.65,-44"/>
</a>
</g>
</g>
<!-- Node6 -->
<g id="Node000006" class="node">
<title>Node6</title>
<g id="a_Node000006"><a xlink:href="boss_8c.html#ac8a28bea25324bf0528eed732c5368f3" target="_top" xlink:title=" ">
<polygon fill="white" stroke="#666666" points="576.5,-32 473.5,-32 473.5,0 576.5,0 576.5,-32"/>
<text xml:space="preserve" text-anchor="start" x="481.5" y="-18.5" font-family="Helvetica,sans-Serif" font-size="10.00">renvoyer_projectiles</text>
<text xml:space="preserve" text-anchor="middle" x="525" y="-6.5" font-family="Helvetica,sans-Serif" font-size="10.00">_touches</text>
</a>
</g>
</g>
<!-- Node1&#45;&gt;Node6 -->
<g id="edge5_Node000001_Node000006" class="edge">
<title>Node1&#45;&gt;Node6</title>
<g id="a_edge5_Node000001_Node000006"><a xlink:title=" ">
<path fill="none" stroke="#63b8ff" d="M600.68,-27.11C592.62,-25.91 584.55,-24.71 576.85,-23.57"/>
<polygon fill="#63b8ff" stroke="#63b8ff" points="600.12,-30.57 610.52,-28.57 601.15,-23.64 600.12,-30.57"/>
</a>
</g>
</g>
<!-- Node3 -->
<g id="Node000003" class="node">
<title>Node3</title>
<g id="a_Node000003"><a xlink:href="boss_8c.html#abbb99b844a32a59c50228b7d6dcb888b" target="_top" xlink:title="Met a jour boss en fonction de l&#39;etat courant du jeu.">
<polygon fill="white" stroke="#666666" points="280.5,-48 179,-48 179,-28 280.5,-28 280.5,-48"/>
<text xml:space="preserve" text-anchor="middle" x="229.75" y="-34.5" font-family="Helvetica,sans-Serif" font-size="10.00">mettre_a_jour_boss</text>
</a>
</g>
</g>
<!-- Node2&#45;&gt;Node3 -->
<g id="edge2_Node000002_Node000003" class="edge">
<title>Node2&#45;&gt;Node3</title>
<g id="a_edge2_Node000002_Node000003"><a xlink:title=" ">
<path fill="none" stroke="#63b8ff" d="M304.72,-38C296.64,-38 288.54,-38 280.82,-38"/>
<polygon fill="#63b8ff" stroke="#63b8ff" points="304.57,-41.5 314.57,-38 304.57,-34.5 304.57,-41.5"/>
</a>
</g>
</g>
<!-- Node4 -->
<g id="Node000004" class="node">
<title>Node4</title>
<g id="a_Node000004"><a xlink:href="jeux_8c.html#a2d7491d04e8c2bdb52bb6ed7d75e4d78" target="_top" xlink:title="Execute la boucle principale de gameplay pour la planete courante.">
<polygon fill="white" stroke="#666666" points="143,-48 73,-48 73,-28 143,-28 143,-48"/>
<text xml:space="preserve" text-anchor="middle" x="108" y="-34.5" font-family="Helvetica,sans-Serif" font-size="10.00">jeu_principal</text>
</a>
</g>
</g>
<!-- Node3&#45;&gt;Node4 -->
<g id="edge3_Node000003_Node000004" class="edge">
<title>Node3&#45;&gt;Node4</title>
<g id="a_edge3_Node000003_Node000004"><a xlink:title=" ">
<path fill="none" stroke="#63b8ff" d="M167.39,-38C159.09,-38 150.84,-38 143.26,-38"/>
<polygon fill="#63b8ff" stroke="#63b8ff" points="167.15,-41.5 177.15,-38 167.15,-34.5 167.15,-41.5"/>
</a>
</g>
</g>
<!-- Node5 -->
<g id="Node000005" class="node">
<title>Node5</title>
<g id="a_Node000005"><a xlink:href="main_8c.html#a0ddf1224851353fc92bfbff6f499fa97" target="_top" xlink:title=" ">
<polygon fill="white" stroke="#666666" points="37,-48 0,-48 0,-28 37,-28 37,-48"/>
<text xml:space="preserve" text-anchor="middle" x="18.5" y="-34.5" font-family="Helvetica,sans-Serif" font-size="10.00">main</text>
</a>
</g>
</g>
<!-- Node4&#45;&gt;Node5 -->
<g id="edge4_Node000004_Node000005" class="edge">
<title>Node4&#45;&gt;Node5</title>
<g id="a_edge4_Node000004_Node000005"><a xlink:title=" ">
<path fill="none" stroke="#63b8ff" d="M61.18,-38C52.72,-38 44.36,-38 37.37,-38"/>
<polygon fill="#63b8ff" stroke="#63b8ff" points="61.16,-41.5 71.16,-38 61.16,-34.5 61.16,-41.5"/>
</a>
</g>
</g>
<!-- Node6&#45;&gt;Node2 -->
<g id="edge6_Node000006_Node000002" class="edge">
<title>Node6&#45;&gt;Node2</title>
<g id="a_edge6_Node000006_Node000002"><a xlink:title=" ">
<path fill="none" stroke="#63b8ff" d="M462.14,-25.32C454.09,-26.53 445.86,-27.77 437.85,-28.98"/>
<polygon fill="#63b8ff" stroke="#63b8ff" points="462.48,-28.81 471.85,-23.86 461.44,-21.89 462.48,-28.81"/>
</a>
</g>
</g>
</g>
</svg>
