<?xml version="1.0" encoding="UTF-8" standalone="no"?>
<!DOCTYPE svg PUBLIC "-//W3C//DTD SVG 1.1//EN"
 "http://www.w3.org/Graphics/SVG/1.1/DTD/svg11.dtd">
<!-- Generated by graphviz version 14.1.4 (20260321.0153)
 -->
<!-- Title: appliquer_degats_contact Pages: 1 -->
<svg width="643pt" height="142pt"
 viewBox="0.00 0.00 643.00 142.00" xmlns="http://www.w3.org/2000/svg" xmlns:xlink="http://www.w3.org/1999/xlink">
<g id="graph0" class="graph" transform="scale(1 1) rotate(0) translate(4 138)">
<title>appliquer_degats_contact</title>
<!-- Node1 -->
<g id="Node000001" class="node">
<title>Node1</title>
<g id="a_Node000001"><a xlink:title=" ">
<polygon fill="#999999" stroke="#666666" points="127,-77 0,-77 0,-57 127,-57 127,-77"/>
<text xml:space="preserve" text-anchor="middle" x="63.5" y="-63.5" font-family="Helvetica,sans-Serif" font-size="10.00">appliquer_degats_contact</text>
</a>
</g>
</g>
<!-- Node2 -->
<g id="Node000002" class="node">
<title>Node2</title>
<g id="a_Node000002"><a xlink:href="boss_8c.html#abdd4c54b66ea8d0ee227b3c01036670f" target="_top" xlink:title=" ">
<polygon fill="white" stroke="#666666" points="284,-134 163,-134 163,-114 284,-114 284,-134"/>
<text xml:space="preserve" text-anchor="middle" x="223.5" y="-120.5" font-family="Helvetica,sans-Serif" font-size="10.00">appliquer_degats_joueur</text>
</a>
</g>
</g>
<!-- Node1&#45;&gt;Node2 -->
<g id="edge1_Node000001_Node000002" class="edge">
<title>Node1&#45;&gt;Node2</title>
<g id="a_edge1_Node000001_Node000002"><a xlink:title=" ">
<path fill="none" stroke="#63b8ff" d="M90.27,-77.42C110.05,-85.3 138.11,-96.23 163,-105 167.79,-106.69 172.82,-108.39 177.84,-110.05"/>
<polygon fill="#63b8ff" stroke="#63b8ff" points="176.68,-113.36 187.28,-113.12 178.85,-106.7 176.68,-113.36"/>
</a>
</g>
</g>
<!-- Node6 -->
<g id="Node000006" class="node">
<title>Node6</title>
<g id="a_Node000006"><a xlink:href="boss_8c.html#aca79e3fbdb8a06a38d6543de2eb5813b" target="_top" xlink:title=" ">
<polygon fill="white" stroke="#666666" points="281.75,-96 165.25,-96 165.25,-76 281.75,-76 281.75,-96"/>
<text xml:space="preserve" text-anchor="middle" x="223.5" y="-82.5" font-family="Helvetica,sans-Serif" font-size="10.00">get_boss_hitbox_ecran</text>
</a>
</g>
</g>
<!-- Node1&#45;&gt;Node6 -->
<g id="edge5_Node000001_Node000006" class="edge">
<title>Node1&#45;&gt;Node6</title>
<g id="a_edge5_Node000001_Node000006"><a xlink:title=" ">
<path fill="none" stroke="#63b8ff" d="M127.4,-74.56C136.02,-75.6 144.9,-76.67 153.62,-77.72"/>
<polygon fill="#63b8ff" stroke="#63b8ff" points="153.09,-81.18 163.44,-78.9 153.93,-74.23 153.09,-81.18"/>
</a>
</g>
</g>
<!-- Node7 -->
<g id="Node000007" class="node">
<title>Node7</title>
<g id="a_Node000007"><a xlink:href="main_8h.html#a6c672075bc554c92548a916c9501bdb5" target="_top" xlink:title=" ">
<polygon fill="white" stroke="#666666" points="267.5,-58 179.5,-58 179.5,-38 267.5,-38 267.5,-58"/>
<text xml:space="preserve" text-anchor="middle" x="223.5" y="-44.5" font-family="Helvetica,sans-Serif" font-size="10.00">screen_center_x</text>
</a>
</g>
</g>
<!-- Node1&#45;&gt;Node7 -->
<g id="edge6_Node000001_Node000007" class="edge">
<title>Node1&#45;&gt;Node7</title>
<g id="a_edge6_Node000001_Node000007"><a xlink:title=" ">
<path fill="none" stroke="#63b8ff" d="M127.4,-59.44C140.84,-57.82 154.94,-56.12 168.04,-54.55"/>
<polygon fill="#63b8ff" stroke="#63b8ff" points="168.23,-58.05 177.74,-53.38 167.4,-51.1 168.23,-58.05"/>
</a>
</g>
</g>
<!-- Node9 -->
<g id="Node000009" class="node">
<title>Node9</title>
<g id="a_Node000009"><a xlink:href="main_8h.html#a6456affd0d0a21e911b531a5ba25676d" target="_top" xlink:title=" ">
<polygon fill="white" stroke="#666666" points="267.5,-20 179.5,-20 179.5,0 267.5,0 267.5,-20"/>
<text xml:space="preserve" text-anchor="middle" x="223.5" y="-6.5" font-family="Helvetica,sans-Serif" font-size="10.00">screen_center_y</text>
</a>
</g>
</g>
<!-- Node1&#45;&gt;Node9 -->
<g id="edge8_Node000001_Node000009" class="edge">
<title>Node1&#45;&gt;Node9</title>
<g id="a_edge8_Node000001_Node000009"><a xlink:title=" ">
<path fill="none" stroke="#63b8ff" d="M90.27,-56.58C110.05,-48.7 138.11,-37.77 163,-29 167.79,-27.31 172.82,-25.61 177.84,-23.95"/>
<polygon fill="#63b8ff" stroke="#63b8ff" points="178.85,-27.3 187.28,-20.88 176.68,-20.64 178.85,-27.3"/>
</a>
</g>
</g>
<!-- Node3 -->
<g id="Node000003" class="node">
<title>Node3</title>
<g id="a_Node000003"><a xlink:href="son_8c.html#ae145ae699cc1eecf0684bdd530bd26f0" target="_top" xlink:title="Charge (ou recupere du cache) puis joue une piste audio.">
<polygon fill="white" stroke="#666666" points="388.88,-134 330.88,-134 330.88,-114 388.88,-114 388.88,-134"/>
<text xml:space="preserve" text-anchor="middle" x="359.88" y="-120.5" font-family="Helvetica,sans-Serif" font-size="10.00">jouer_son</text>
</a>
</g>
</g>
<!-- Node2&#45;&gt;Node3 -->
<g id="edge2_Node000002_Node000003" class="edge">
<title>Node2&#45;&gt;Node3</title>
<g id="a_edge2_Node000002_Node000003"><a xlink:title=" ">
<path fill="none" stroke="#63b8ff" d="M284.22,-124C296.06,-124 308.21,-124 319.18,-124"/>
<polygon fill="#63b8ff" stroke="#63b8ff" points="319.04,-127.5 329.04,-124 319.04,-120.5 319.04,-127.5"/>
</a>
</g>
</g>
<!-- Node4 -->
<g id="Node000004" class="node">
<title>Node4</title>
<g id="a_Node000004"><a xlink:href="son_8c.html#ad0d6e981433bdc8e4291e672fa8c039b" target="_top" xlink:title=" ">
<polygon fill="white" stroke="#666666" points="513.25,-134 435.75,-134 435.75,-114 513.25,-114 513.25,-134"/>
<text xml:space="preserve" text-anchor="middle" x="474.5" y="-120.5" font-family="Helvetica,sans-Serif" font-size="10.00">recuperer_son</text>
</a>
</g>
</g>
<!-- Node3&#45;&gt;Node4 -->
<g id="edge3_Node000003_Node000004" class="edge">
<title>Node3&#45;&gt;Node4</title>
<g id="a_edge3_Node000003_Node000004"><a xlink:title=" ">
<path fill="none" stroke="#63b8ff" d="M389.3,-124C399.86,-124 412.18,-124 424.09,-124"/>
<polygon fill="#63b8ff" stroke="#63b8ff" points="423.79,-127.5 433.79,-124 423.79,-120.5 423.79,-127.5"/>
</a>
</g>
</g>
<!-- Node5 -->
<g id="Node000005" class="node">
<title>Node5</title>
<g id="a_Node000005"><a xlink:href="son_8c.html#aad43af6485e6418e4f26007ec64dba14" target="_top" xlink:title=" ">
<polygon fill="white" stroke="#666666" points="635,-134 549.25,-134 549.25,-114 635,-114 635,-134"/>
<text xml:space="preserve" text-anchor="middle" x="592.12" y="-120.5" font-family="Helvetica,sans-Serif" font-size="10.00">recuperer_mixer</text>
</a>
</g>
</g>
<!-- Node4&#45;&gt;Node5 -->
<g id="edge4_Node000004_Node000005" class="edge">
<title>Node4&#45;&gt;Node5</title>
<g id="a_edge4_Node000004_Node000005"><a xlink:title=" ">
<path fill="none" stroke="#63b8ff" d="M513.68,-124C521.37,-124 529.59,-124 537.69,-124"/>
<polygon fill="#63b8ff" stroke="#63b8ff" points="537.48,-127.5 547.48,-124 537.48,-120.5 537.48,-127.5"/>
</a>
</g>
</g>
<!-- Node8 -->
<g id="Node000008" class="node">
<title>Node8</title>
<g id="a_Node000008"><a xlink:href="main_8h.html#aaaa1e9fcb86ff8e60b297faa7815ad1d" target="_top" xlink:title=" ">
<polygon fill="white" stroke="#666666" points="398.25,-58 321.5,-58 321.5,-38 398.25,-38 398.25,-58"/>
<text xml:space="preserve" text-anchor="middle" x="359.88" y="-44.5" font-family="Helvetica,sans-Serif" font-size="10.00">screen_widthf</text>
</a>
</g>
</g>
<!-- Node7&#45;&gt;Node8 -->
<g id="edge7_Node000007_Node000008" class="edge">
<title>Node7&#45;&gt;Node8</title>
<g id="a_edge7_Node000007_Node000008"><a xlink:title=" ">
<path fill="none" stroke="#63b8ff" d="M267.76,-48C281.18,-48 296.08,-48 309.87,-48"/>
<polygon fill="#63b8ff" stroke="#63b8ff" points="309.62,-51.5 319.62,-48 309.62,-44.5 309.62,-51.5"/>
</a>
</g>
</g>
<!-- Node10 -->
<g id="Node000010" class="node">
<title>Node10</title>
<g id="a_Node000010"><a xlink:href="main_8h.html#a9b4aefc63ea00e60ec88da19e24e8236" target="_top" xlink:title=" ">
<polygon fill="white" stroke="#666666" points="399.75,-20 320,-20 320,0 399.75,0 399.75,-20"/>
<text xml:space="preserve" text-anchor="middle" x="359.88" y="-6.5" font-family="Helvetica,sans-Serif" font-size="10.00">screen_heightf</text>
</a>
</g>
</g>
<!-- Node9&#45;&gt;Node10 -->
<g id="edge9_Node000009_Node000010" class="edge">
<title>Node9&#45;&gt;Node10</title>
<g id="a_edge9_Node000009_Node000010"><a xlink:title=" ">
<path fill="none" stroke="#63b8ff" d="M267.76,-10C280.69,-10 294.99,-10 308.35,-10"/>
<polygon fill="#63b8ff" stroke="#63b8ff" points="308.28,-13.5 318.28,-10 308.28,-6.5 308.28,-13.5"/>
</a>
</g>
</g>
</g>
</svg>
