<?xml version="1.0" encoding="UTF-8" standalone="no"?>
<!DOCTYPE svg PUBLIC "-//W3C//DTD SVG 1.1//EN"
 "http://www.w3.org/Graphics/SVG/1.1/DTD/svg11.dtd">
<!-- Generated by graphviz version 14.1.4 (20260321.0153)
 -->
<!-- Title: spawn_projectile_vers_joueur Pages: 1 -->
<svg width="519pt" height="85pt"
 viewBox="0.00 0.00 519.00 85.00" xmlns="http://www.w3.org/2000/svg" xmlns:xlink="http://www.w3.org/1999/xlink">
<g id="graph0" class="graph" transform="scale(1 1) rotate(0) translate(4 81)">
<title>spawn_projectile_vers_joueur</title>
<!-- Node1 -->
<g id="Node000001" class="node">
<title>Node1</title>
<g id="a_Node000001"><a xlink:title=" ">
<polygon fill="#999999" stroke="#666666" points="112.75,-64 0,-64 0,-32 112.75,-32 112.75,-64"/>
<text xml:space="preserve" text-anchor="start" x="8" y="-50.5" font-family="Helvetica,sans-Serif" font-size="10.00">spawn_projectile_vers</text>
<text xml:space="preserve" text-anchor="middle" x="56.38" y="-38.5" font-family="Helvetica,sans-Serif" font-size="10.00">_joueur</text>
</a>
</g>
</g>
<!-- Node2 -->
<g id="Node000002" class="node">
<title>Node2</title>
<g id="a_Node000002"><a xlink:href="boss_8c.html#afb0b61469efd6dce1e15a516cb9e4115" target="_top" xlink:title=" ">
<polygon fill="white" stroke="#666666" points="271.25,-77 148.75,-77 148.75,-57 271.25,-57 271.25,-77"/>
<text xml:space="preserve" text-anchor="middle" x="210" y="-63.5" font-family="Helvetica,sans-Serif" font-size="10.00">get_boss_centre_monde</text>
</a>
</g>
</g>
<!-- Node1&#45;&gt;Node2 -->
<g id="edge1_Node000001_Node000002" class="edge">
<title>Node1&#45;&gt;Node2</title>
<g id="a_edge1_Node000001_Node000002"><a xlink:title=" ">
<path fill="none" stroke="#63b8ff" d="M112.97,-54.97C120.79,-55.95 128.91,-56.96 136.97,-57.97"/>
<polygon fill="#63b8ff" stroke="#63b8ff" points="136.44,-61.43 146.8,-59.21 137.31,-54.49 136.44,-61.43"/>
</a>
</g>
</g>
<!-- Node3 -->
<g id="Node000003" class="node">
<title>Node3</title>
<g id="a_Node000003"><a xlink:href="boss_8c.html#a1d5fd526db9bbc3f5b70491cfc645818" target="_top" xlink:title=" ">
<polygon fill="white" stroke="#666666" points="270.88,-39 149.12,-39 149.12,-19 270.88,-19 270.88,-39"/>
<text xml:space="preserve" text-anchor="middle" x="210" y="-25.5" font-family="Helvetica,sans-Serif" font-size="10.00">get_player_world_center</text>
</a>
</g>
</g>
<!-- Node1&#45;&gt;Node3 -->
<g id="edge2_Node000001_Node000003" class="edge">
<title>Node1&#45;&gt;Node3</title>
<g id="a_edge2_Node000001_Node000003"><a xlink:title=" ">
<path fill="none" stroke="#63b8ff" d="M112.97,-41.03C120.99,-40.03 129.34,-38.98 137.61,-37.95"/>
<polygon fill="#63b8ff" stroke="#63b8ff" points="137.82,-41.45 147.31,-36.73 136.95,-34.5 137.82,-41.45"/>
</a>
</g>
</g>
<!-- Node4 -->
<g id="Node000004" class="node">
<title>Node4</title>
<g id="a_Node000004"><a xlink:href="main_8h.html#a6c672075bc554c92548a916c9501bdb5" target="_top" xlink:title=" ">
<polygon fill="white" stroke="#666666" points="395.25,-58 307.25,-58 307.25,-38 395.25,-38 395.25,-58"/>
<text xml:space="preserve" text-anchor="middle" x="351.25" y="-44.5" font-family="Helvetica,sans-Serif" font-size="10.00">screen_center_x</text>
</a>
</g>
</g>
<!-- Node3&#45;&gt;Node4 -->
<g id="edge3_Node000003_Node000004" class="edge">
<title>Node3&#45;&gt;Node4</title>
<g id="a_edge3_Node000003_Node000004"><a xlink:title=" ">
<path fill="none" stroke="#63b8ff" d="M271.27,-37.22C279.46,-38.34 287.83,-39.48 295.91,-40.59"/>
<polygon fill="#63b8ff" stroke="#63b8ff" points="295.21,-44.02 305.59,-41.91 296.16,-37.09 295.21,-44.02"/>
</a>
</g>
</g>
<!-- Node6 -->
<g id="Node000006" class="node">
<title>Node6</title>
<g id="a_Node000006"><a xlink:href="main_8h.html#a6456affd0d0a21e911b531a5ba25676d" target="_top" xlink:title=" ">
<polygon fill="white" stroke="#666666" points="395.25,-20 307.25,-20 307.25,0 395.25,0 395.25,-20"/>
<text xml:space="preserve" text-anchor="middle" x="351.25" y="-6.5" font-family="Helvetica,sans-Serif" font-size="10.00">screen_center_y</text>
</a>
</g>
</g>
<!-- Node3&#45;&gt;Node6 -->
<g id="edge5_Node000003_Node000006" class="edge">
<title>Node3&#45;&gt;Node6</title>
<g id="a_edge5_Node000003_Node000006"><a xlink:title=" ">
<path fill="none" stroke="#63b8ff" d="M271.27,-20.78C279.46,-19.66 287.83,-18.52 295.91,-17.41"/>
<polygon fill="#63b8ff" stroke="#63b8ff" points="296.16,-20.91 305.59,-16.09 295.21,-13.98 296.16,-20.91"/>
</a>
</g>
</g>
<!-- Node5 -->
<g id="Node000005" class="node">
<title>Node5</title>
<g id="a_Node000005"><a xlink:href="main_8h.html#aaaa1e9fcb86ff8e60b297faa7815ad1d" target="_top" xlink:title=" ">
<polygon fill="white" stroke="#666666" points="509.5,-58 432.75,-58 432.75,-38 509.5,-38 509.5,-58"/>
<text xml:space="preserve" text-anchor="middle" x="471.12" y="-44.5" font-family="Helvetica,sans-Serif" font-size="10.00">screen_widthf</text>
</a>
</g>
</g>
<!-- Node4&#45;&gt;Node5 -->
<g id="edge4_Node000004_Node000005" class="edge">
<title>Node4&#45;&gt;Node5</title>
<g id="a_edge4_Node000004_Node000005"><a xlink:title=" ">
<path fill="none" stroke="#63b8ff" d="M395.47,-48C403.78,-48 412.55,-48 421.03,-48"/>
<polygon fill="#63b8ff" stroke="#63b8ff" points="420.84,-51.5 430.84,-48 420.84,-44.5 420.84,-51.5"/>
</a>
</g>
</g>
<!-- Node7 -->
<g id="Node000007" class="node">
<title>Node7</title>
<g id="a_Node000007"><a xlink:href="main_8h.html#a9b4aefc63ea00e60ec88da19e24e8236" target="_top" xlink:title=" ">
<polygon fill="white" stroke="#666666" points="511,-20 431.25,-20 431.25,0 511,0 511,-20"/>
<text xml:space="preserve" text-anchor="middle" x="471.12" y="-6.5" font-family="Helvetica,sans-Serif" font-size="10.00">screen_heightf</text>
</a>
</g>
</g>
<!-- Node6&#45;&gt;Node7 -->
<g id="edge6_Node000006_Node000007" class="edge">
<title>Node6&#45;&gt;Node7</title>
<g id="a_edge6_Node000006_Node000007"><a xlink:title=" ">
<path fill="none" stroke="#63b8ff" d="M395.47,-10C403.24,-10 411.41,-10 419.37,-10"/>
<polygon fill="#63b8ff" stroke="#63b8ff" points="419.3,-13.5 429.3,-10 419.3,-6.5 419.3,-13.5"/>
</a>
</g>
</g>
</g>
</svg>
