<?xml version="1.0" encoding="UTF-8" standalone="no"?>
<!DOCTYPE svg PUBLIC "-//W3C//DTD SVG 1.1//EN"
 "http://www.w3.org/Graphics/SVG/1.1/DTD/svg11.dtd">
<!-- Generated by graphviz version 14.1.4 (20260321.0153)
 -->
<!-- Title: appliquer_degats_joueur Pages: 1 -->
<svg width="458pt" height="28pt"
 viewBox="0.00 0.00 458.00 28.00" xmlns="http://www.w3.org/2000/svg" xmlns:xlink="http://www.w3.org/1999/xlink">
<g id="graph0" class="graph" transform="scale(1 1) rotate(0) translate(4 24)">
<title>appliquer_degats_joueur</title>
<!-- Node1 -->
<g id="Node000001" class="node">
<title>Node1</title>
<g id="a_Node000001"><a xlink:title=" ">
<polygon fill="#999999" stroke="#666666" points="121,-20 0,-20 0,0 121,0 121,-20"/>
<text xml:space="preserve" text-anchor="middle" x="60.5" y="-6.5" font-family="Helvetica,sans-Serif" font-size="10.00">appliquer_degats_joueur</text>
</a>
</g>
</g>
<!-- Node2 -->
<g id="Node000002" class="node">
<title>Node2</title>
<g id="a_Node000002"><a xlink:href="son_8c.html#ae145ae699cc1eecf0684bdd530bd26f0" target="_top" xlink:title="Charge (ou recupere du cache) puis joue une piste audio.">
<polygon fill="white" stroke="#666666" points="215,-20 157,-20 157,0 215,0 215,-20"/>
<text xml:space="preserve" text-anchor="middle" x="186" y="-6.5" font-family="Helvetica,sans-Serif" font-size="10.00">jouer_son</text>
</a>
</g>
</g>
<!-- Node1&#45;&gt;Node2 -->
<g id="edge1_Node000001_Node000002" class="edge">
<title>Node1&#45;&gt;Node2</title>
<g id="a_edge1_Node000001_Node000002"><a xlink:title=" ">
<path fill="none" stroke="#63b8ff" d="M121.44,-10C129.51,-10 137.61,-10 145.21,-10"/>
<polygon fill="#63b8ff" stroke="#63b8ff" points="145.14,-13.5 155.14,-10 145.14,-6.5 145.14,-13.5"/>
</a>
</g>
</g>
<!-- Node3 -->
<g id="Node000003" class="node">
<title>Node3</title>
<g id="a_Node000003"><a xlink:href="son_8c.html#ad0d6e981433bdc8e4291e672fa8c039b" target="_top" xlink:title=" ">
<polygon fill="white" stroke="#666666" points="328.5,-20 251,-20 251,0 328.5,0 328.5,-20"/>
<text xml:space="preserve" text-anchor="middle" x="289.75" y="-6.5" font-family="Helvetica,sans-Serif" font-size="10.00">recuperer_son</text>
</a>
</g>
</g>
<!-- Node2&#45;&gt;Node3 -->
<g id="edge2_Node000002_Node000003" class="edge">
<title>Node2&#45;&gt;Node3</title>
<g id="a_edge2_Node000002_Node000003"><a xlink:title=" ">
<path fill="none" stroke="#63b8ff" d="M215.34,-10C222.78,-10 231.02,-10 239.21,-10"/>
<polygon fill="#63b8ff" stroke="#63b8ff" points="239.16,-13.5 249.16,-10 239.16,-6.5 239.16,-13.5"/>
</a>
</g>
</g>
<!-- Node4 -->
<g id="Node000004" class="node">
<title>Node4</title>
<g id="a_Node000004"><a xlink:href="son_8c.html#aad43af6485e6418e4f26007ec64dba14" target="_top" xlink:title=" ">
<polygon fill="white" stroke="#666666" points="450.25,-20 364.5,-20 364.5,0 450.25,0 450.25,-20"/>
<text xml:space="preserve" text-anchor="middle" x="407.38" y="-6.5" font-family="Helvetica,sans-Serif" font-size="10.00">recuperer_mixer</text>
</a>
</g>
</g>
<!-- Node3&#45;&gt;Node4 -->
<g id="edge3_Node000003_Node000004" class="edge">
<title>Node3&#45;&gt;Node4</title>
<g id="a_edge3_Node000003_Node000004"><a xlink:title=" ">
<path fill="none" stroke="#63b8ff" d="M328.93,-10C336.62,-10 344.84,-10 352.94,-10"/>
<polygon fill="#63b8ff" stroke="#63b8ff" points="352.73,-13.5 362.73,-10 352.73,-6.5 352.73,-13.5"/>
</a>
</g>
</g>
</g>
</svg>
