<?xml version="1.0" encoding="UTF-8" standalone="no"?>
<!DOCTYPE svg PUBLIC "-//W3C//DTD SVG 1.1//EN"
 "http://www.w3.org/Graphics/SVG/1.1/DTD/svg11.dtd">
<!-- Generated by graphviz version 14.1.4 (20260321.0153)
 -->
<!-- Title: afficher_boss Pages: 1 -->
<svg width="513pt" height="104pt"
 viewBox="0.00 0.00 513.00 104.00" xmlns="http://www.w3.org/2000/svg" xmlns:xlink="http://www.w3.org/1999/xlink">
<g id="graph0" class="graph" transform="scale(1 1) rotate(0) translate(4 100)">
<title>afficher_boss</title>
<!-- Node1 -->
<g id="Node000001" class="node">
<title>Node1</title>
<g id="a_Node000001"><a xlink:title="Affiche boss et met a jour les elements visuels associes.">
<polygon fill="#999999" stroke="#666666" points="73.75,-58 0,-58 0,-38 73.75,-38 73.75,-58"/>
<text xml:space="preserve" text-anchor="middle" x="36.88" y="-44.5" font-family="Helvetica,sans-Serif" font-size="10.00">afficher_boss</text>
</a>
</g>
</g>
<!-- Node2 -->
<g id="Node000002" class="node">
<title>Node2</title>
<g id="a_Node000002"><a xlink:href="boss_8c.html#a96eea41eba63ec9e398be1f92a6c8005" target="_top" xlink:title=" ">
<polygon fill="white" stroke="#666666" points="228.5,-96 109.75,-96 109.75,-76 228.5,-76 228.5,-96"/>
<text xml:space="preserve" text-anchor="middle" x="169.12" y="-82.5" font-family="Helvetica,sans-Serif" font-size="10.00">afficher_barre_vie_boss</text>
</a>
</g>
</g>
<!-- Node1&#45;&gt;Node2 -->
<g id="edge1_Node000001_Node000002" class="edge">
<title>Node1&#45;&gt;Node2</title>
<g id="a_edge1_Node000001_Node000002"><a xlink:title=" ">
<path fill="none" stroke="#63b8ff" d="M73.81,-58.48C88.47,-62.76 105.63,-67.77 121.25,-72.33"/>
<polygon fill="#63b8ff" stroke="#63b8ff" points="120.27,-75.69 130.85,-75.13 122.23,-68.97 120.27,-75.69"/>
</a>
</g>
</g>
<!-- Node5 -->
<g id="Node000005" class="node">
<title>Node5</title>
<g id="a_Node000005"><a xlink:href="boss_8c.html#a5ea8b09d43b6a435f573a51f3f44eaff" target="_top" xlink:title=" ">
<polygon fill="white" stroke="#666666" points="217.62,-58 120.62,-58 120.62,-38 217.62,-38 217.62,-58"/>
<text xml:space="preserve" text-anchor="middle" x="169.12" y="-44.5" font-family="Helvetica,sans-Serif" font-size="10.00">afficher_projectiles</text>
</a>
</g>
</g>
<!-- Node1&#45;&gt;Node5 -->
<g id="edge4_Node000001_Node000005" class="edge">
<title>Node1&#45;&gt;Node5</title>
<g id="a_edge4_Node000001_Node000005"><a xlink:title=" ">
<path fill="none" stroke="#63b8ff" d="M74.16,-48C85,-48 97.17,-48 109.07,-48"/>
<polygon fill="#63b8ff" stroke="#63b8ff" points="108.83,-51.5 118.83,-48 108.83,-44.5 108.83,-51.5"/>
</a>
</g>
</g>
<!-- Node7 -->
<g id="Node000007" class="node">
<title>Node7</title>
<g id="a_Node000007"><a xlink:href="boss_8c.html#ab2dbd1f20b30af31c472725653d57184" target="_top" xlink:title=" ">
<polygon fill="white" stroke="#666666" points="225.5,-20 112.75,-20 112.75,0 225.5,0 225.5,-20"/>
<text xml:space="preserve" text-anchor="middle" x="169.12" y="-6.5" font-family="Helvetica,sans-Serif" font-size="10.00">afficher_zone_warning</text>
</a>
</g>
</g>
<!-- Node1&#45;&gt;Node7 -->
<g id="edge6_Node000001_Node000007" class="edge">
<title>Node1&#45;&gt;Node7</title>
<g id="a_edge6_Node000001_Node000007"><a xlink:title=" ">
<path fill="none" stroke="#63b8ff" d="M73.81,-37.52C88.47,-33.24 105.63,-28.23 121.25,-23.67"/>
<polygon fill="#63b8ff" stroke="#63b8ff" points="122.23,-27.03 130.85,-20.87 120.27,-20.31 122.23,-27.03"/>
</a>
</g>
</g>
<!-- Node3 -->
<g id="Node000003" class="node">
<title>Node3</title>
<g id="a_Node000003"><a xlink:href="main_8h.html#a6c672075bc554c92548a916c9501bdb5" target="_top" xlink:title=" ">
<polygon fill="white" stroke="#666666" points="372.38,-96 284.38,-96 284.38,-76 372.38,-76 372.38,-96"/>
<text xml:space="preserve" text-anchor="middle" x="328.38" y="-82.5" font-family="Helvetica,sans-Serif" font-size="10.00">screen_center_x</text>
</a>
</g>
</g>
<!-- Node2&#45;&gt;Node3 -->
<g id="edge2_Node000002_Node000003" class="edge">
<title>Node2&#45;&gt;Node3</title>
<g id="a_edge2_Node000002_Node000003"><a xlink:title=" ">
<path fill="none" stroke="#63b8ff" d="M228.68,-86C243.15,-86 258.59,-86 272.86,-86"/>
<polygon fill="#63b8ff" stroke="#63b8ff" points="272.5,-89.5 282.5,-86 272.5,-82.5 272.5,-89.5"/>
</a>
</g>
</g>
<!-- Node4 -->
<g id="Node000004" class="node">
<title>Node4</title>
<g id="a_Node000004"><a xlink:href="main_8h.html#aaaa1e9fcb86ff8e60b297faa7815ad1d" target="_top" xlink:title=" ">
<polygon fill="white" stroke="#666666" points="505,-96 428.25,-96 428.25,-76 505,-76 505,-96"/>
<text xml:space="preserve" text-anchor="middle" x="466.62" y="-82.5" font-family="Helvetica,sans-Serif" font-size="10.00">screen_widthf</text>
</a>
</g>
</g>
<!-- Node3&#45;&gt;Node4 -->
<g id="edge3_Node000003_Node000004" class="edge">
<title>Node3&#45;&gt;Node4</title>
<g id="a_edge3_Node000003_Node000004"><a xlink:title=" ">
<path fill="none" stroke="#63b8ff" d="M372.86,-86C386.87,-86 402.49,-86 416.86,-86"/>
<polygon fill="#63b8ff" stroke="#63b8ff" points="416.54,-89.5 426.54,-86 416.54,-82.5 416.54,-89.5"/>
</a>
</g>
</g>
<!-- Node6 -->
<g id="Node000006" class="node">
<title>Node6</title>
<g id="a_Node000006"><a xlink:href="boss_8c.html#a5642c7f048f3c353a2fd34c7be8d5719" target="_top" xlink:title=" ">
<polygon fill="white" stroke="#666666" points="392.25,-58 264.5,-58 264.5,-38 392.25,-38 392.25,-58"/>
<text xml:space="preserve" text-anchor="middle" x="328.38" y="-44.5" font-family="Helvetica,sans-Serif" font-size="10.00">charger_texture_projectile</text>
</a>
</g>
</g>
<!-- Node5&#45;&gt;Node6 -->
<g id="edge5_Node000005_Node000006" class="edge">
<title>Node5&#45;&gt;Node6</title>
<g id="a_edge5_Node000005_Node000006"><a xlink:title=" ">
<path fill="none" stroke="#63b8ff" d="M217.73,-48C228.83,-48 240.91,-48 252.86,-48"/>
<polygon fill="#63b8ff" stroke="#63b8ff" points="252.73,-51.5 262.73,-48 252.73,-44.5 252.73,-51.5"/>
</a>
</g>
</g>
</g>
</svg>
