<?xml version="1.0" encoding="UTF-8" standalone="no"?>
<!DOCTYPE svg PUBLIC "-//W3C//DTD SVG 1.1//EN"
 "http://www.w3.org/Graphics/SVG/1.1/DTD/svg11.dtd">
<!-- Generated by graphviz version 14.1.4 (20260321.0153)
 -->
<!-- Title: get_player_world_center Pages: 1 -->
<svg width="1081pt" height="243pt"
 viewBox="0.00 0.00 1081.00 243.00" xmlns="http://www.w3.org/2000/svg" xmlns:xlink="http://www.w3.org/1999/xlink">
<g id="graph0" class="graph" transform="scale(1 1) rotate(0) translate(4 239.03)">
<title>get_player_world_center</title>
<!-- Node1 -->
<g id="Node000001" class="node">
<title>Node1</title>
<g id="a_Node000001"><a xlink:title=" ">
<polygon fill="#999999" stroke="#666666" points="1073,-130.59 951.25,-130.59 951.25,-110.59 1073,-110.59 1073,-130.59"/>
<text xml:space="preserve" text-anchor="middle" x="1012.12" y="-117.09" font-family="Helvetica,sans-Serif" font-size="10.00">get_player_world_center</text>
</a>
</g>
</g>
<!-- Node2 -->
<g id="Node000002" class="node">
<title>Node2</title>
<g id="a_Node000002"><a xlink:href="boss_8c.html#a15fd30a5ef8a97e7f493402eac74780f" target="_top" xlink:title=" ">
<polygon fill="white" stroke="#666666" points="729,-130.59 611.75,-130.59 611.75,-110.59 729,-110.59 729,-130.59"/>
<text xml:space="preserve" text-anchor="middle" x="670.38" y="-117.09" font-family="Helvetica,sans-Serif" font-size="10.00">attaque_demon_de_feu</text>
</a>
</g>
</g>
<!-- Node1&#45;&gt;Node2 -->
<g id="edge1_Node000001_Node000002" class="edge">
<title>Node1&#45;&gt;Node2</title>
<g id="a_edge1_Node000001_Node000002"><a xlink:title=" ">
<path fill="none" stroke="#63b8ff" d="M939.44,-120.59C876.98,-120.59 787.54,-120.59 729.46,-120.59"/>
<polygon fill="#63b8ff" stroke="#63b8ff" points="939.26,-124.09 949.26,-120.59 939.26,-117.09 939.26,-124.09"/>
</a>
</g>
</g>
<!-- Node5 -->
<g id="Node000005" class="node">
<title>Node5</title>
<g id="a_Node000005"><a xlink:href="boss_8c.html#abbb99b844a32a59c50228b7d6dcb888b" target="_top" xlink:title="Met a jour boss en fonction de l&#39;etat courant du jeu.">
<polygon fill="white" stroke="#666666" points="280.5,-130.59 179,-130.59 179,-110.59 280.5,-110.59 280.5,-130.59"/>
<text xml:space="preserve" text-anchor="middle" x="229.75" y="-117.09" font-family="Helvetica,sans-Serif" font-size="10.00">mettre_a_jour_boss</text>
</a>
</g>
</g>
<!-- Node1&#45;&gt;Node5 -->
<g id="edge15_Node000001_Node000005" class="edge">
<title>Node1&#45;&gt;Node5</title>
<g id="a_edge15_Node000001_Node000005"><a xlink:title=" ">
<path fill="none" stroke="#63b8ff" d="M994.22,-138.92C976.42,-156.98 946.66,-183.8 915.25,-197.59 814.87,-241.65 781,-234.59 671.38,-234.59 671.38,-234.59 671.38,-234.59 500.38,-234.59 394.41,-234.59 282.2,-158.97 244.21,-130.9"/>
<polygon fill="#63b8ff" stroke="#63b8ff" points="996.51,-141.59 1000.9,-131.95 991.46,-136.74 996.51,-141.59"/>
</a>
</g>
</g>
<!-- Node8 -->
<g id="Node000008" class="node">
<title>Node8</title>
<g id="a_Node000008"><a xlink:href="boss_8c.html#ab86bd855c9b53c18f663cf494b2f68ad" target="_top" xlink:title=" ">
<polygon fill="white" stroke="#666666" points="718.5,-187.59 622.25,-187.59 622.25,-167.59 718.5,-167.59 718.5,-187.59"/>
<text xml:space="preserve" text-anchor="middle" x="670.38" y="-174.09" font-family="Helvetica,sans-Serif" font-size="10.00">attaque_minotaure</text>
</a>
</g>
</g>
<!-- Node1&#45;&gt;Node8 -->
<g id="edge7_Node000001_Node000008" class="edge">
<title>Node1&#45;&gt;Node8</title>
<g id="a_edge7_Node000001_Node000008"><a xlink:title=" ">
<path fill="none" stroke="#63b8ff" d="M989.84,-137.84C971.37,-151.63 943.26,-169.89 915.25,-177.59 848.91,-195.82 768.53,-190.9 718.66,-184.88"/>
<polygon fill="#63b8ff" stroke="#63b8ff" points="991.83,-140.73 997.61,-131.85 987.56,-135.18 991.83,-140.73"/>
</a>
</g>
</g>
<!-- Node9 -->
<g id="Node000009" class="node">
<title>Node9</title>
<g id="a_Node000009"><a xlink:href="boss_8c.html#a0bffa7571e9e729458ce45d5dac46901" target="_top" xlink:title=" ">
<polygon fill="white" stroke="#666666" points="717.75,-86.59 623,-86.59 623,-66.59 717.75,-66.59 717.75,-86.59"/>
<text xml:space="preserve" text-anchor="middle" x="670.38" y="-73.09" font-family="Helvetica,sans-Serif" font-size="10.00">attaque_sentinelle</text>
</a>
</g>
</g>
<!-- Node1&#45;&gt;Node9 -->
<g id="edge9_Node000001_Node000009" class="edge">
<title>Node1&#45;&gt;Node9</title>
<g id="a_edge9_Node000001_Node000009"><a xlink:title=" ">
<path fill="none" stroke="#63b8ff" d="M993.62,-102.68C975.75,-85.78 946.28,-61.59 915.25,-51.59 840.51,-27.49 746.83,-51.11 700.33,-66.18"/>
<polygon fill="#63b8ff" stroke="#63b8ff" points="990.74,-104.76 1000.34,-109.24 995.63,-99.75 990.74,-104.76"/>
</a>
</g>
</g>
<!-- Node10 -->
<g id="Node000010" class="node">
<title>Node10</title>
<g id="a_Node000010"><a xlink:href="boss_8c.html#a73d03ed33f6dd919c2ab511246d454f9" target="_top" xlink:title=" ">
<polygon fill="white" stroke="#666666" points="915.25,-168.59 765,-168.59 765,-148.59 915.25,-148.59 915.25,-168.59"/>
<text xml:space="preserve" text-anchor="middle" x="840.12" y="-155.09" font-family="Helvetica,sans-Serif" font-size="10.00">invoquer_minions_autour_boss</text>
</a>
</g>
</g>
<!-- Node1&#45;&gt;Node10 -->
<g id="edge11_Node000001_Node000010" class="edge">
<title>Node1&#45;&gt;Node10</title>
<g id="a_edge11_Node000001_Node000010"><a xlink:title=" ">
<path fill="none" stroke="#63b8ff" d="M953.04,-133.57C931.78,-138.32 908.02,-143.63 887.88,-148.14"/>
<polygon fill="#63b8ff" stroke="#63b8ff" points="953.75,-137 962.74,-131.4 952.22,-130.17 953.75,-137"/>
</a>
</g>
</g>
<!-- Node11 -->
<g id="Node000011" class="node">
<title>Node11</title>
<g id="a_Node000011"><a xlink:href="boss_8c.html#a6b314df5e35e0e8c058cab5f0defa955" target="_top" xlink:title=" ">
<polygon fill="white" stroke="#666666" points="560.75,-26.59 442,-26.59 442,-6.59 560.75,-6.59 560.75,-26.59"/>
<text xml:space="preserve" text-anchor="middle" x="501.38" y="-13.09" font-family="Helvetica,sans-Serif" font-size="10.00">joueur_dans_zone_agro</text>
</a>
</g>
</g>
<!-- Node1&#45;&gt;Node11 -->
<g id="edge13_Node000001_Node000011" class="edge">
<title>Node1&#45;&gt;Node11</title>
<g id="a_edge13_Node000001_Node000011"><a xlink:title=" ">
<path fill="none" stroke="#63b8ff" d="M996.14,-101.67C979,-81.65 948.93,-51.12 915.25,-37.59 796.71,10.06 643.41,1.6 560.99,-7.98"/>
<polygon fill="#63b8ff" stroke="#63b8ff" points="993.23,-103.65 1002.3,-109.12 998.62,-99.18 993.23,-103.65"/>
</a>
</g>
</g>
<!-- Node12 -->
<g id="Node000012" class="node">
<title>Node12</title>
<g id="a_Node000012"><a xlink:href="boss_8c.html#a848bc8291aee689be886bcc6a8c68456" target="_top" xlink:title=" ">
<polygon fill="white" stroke="#666666" points="896.5,-92.59 783.75,-92.59 783.75,-60.59 896.5,-60.59 896.5,-92.59"/>
<text xml:space="preserve" text-anchor="start" x="791.75" y="-79.09" font-family="Helvetica,sans-Serif" font-size="10.00">spawn_projectile_vers</text>
<text xml:space="preserve" text-anchor="middle" x="840.12" y="-67.09" font-family="Helvetica,sans-Serif" font-size="10.00">_joueur</text>
</a>
</g>
</g>
<!-- Node1&#45;&gt;Node12 -->
<g id="edge16_Node000001_Node000012" class="edge">
<title>Node1&#45;&gt;Node12</title>
<g id="a_edge16_Node000001_Node000012"><a xlink:title=" ">
<path fill="none" stroke="#63b8ff" d="M959.83,-107.31C939.96,-102.17 917.15,-96.26 896.88,-91.02"/>
<polygon fill="#63b8ff" stroke="#63b8ff" points="958.81,-110.66 969.37,-109.78 960.57,-103.88 958.81,-110.66"/>
</a>
</g>
</g>
<!-- Node3 -->
<g id="Node000003" class="node">
<title>Node3</title>
<g id="a_Node000003"><a xlink:href="boss_8c.html#a5f817e3b267c2b327de8c2d9251477f4" target="_top" xlink:title=" ">
<polygon fill="white" stroke="#666666" points="575.75,-130.59 427,-130.59 427,-110.59 575.75,-110.59 575.75,-130.59"/>
<text xml:space="preserve" text-anchor="middle" x="501.38" y="-117.09" font-family="Helvetica,sans-Serif" font-size="10.00">obtenir_fonction_attaque_boss</text>
</a>
</g>
</g>
<!-- Node2&#45;&gt;Node3 -->
<g id="edge2_Node000002_Node000003" class="edge">
<title>Node2&#45;&gt;Node3</title>
<g id="a_edge2_Node000002_Node000003"><a xlink:title=" ">
<path fill="none" stroke="#63b8ff" d="M600.02,-120.59C592.12,-120.59 584.05,-120.59 576.1,-120.59"/>
<polygon fill="#63b8ff" stroke="#63b8ff" points="599.92,-124.09 609.92,-120.59 599.92,-117.09 599.92,-124.09"/>
</a>
</g>
</g>
<!-- Node4 -->
<g id="Node000004" class="node">
<title>Node4</title>
<g id="a_Node000004"><a xlink:href="boss_8c.html#aea78d389dc05993b72aebb218a4768de" target="_top" xlink:title="Execute la logique d&#39;attaque du boss en tenant compte des cooldowns et de la phase active.">
<polygon fill="white" stroke="#666666" points="391,-130.59 316.5,-130.59 316.5,-110.59 391,-110.59 391,-130.59"/>
<text xml:space="preserve" text-anchor="middle" x="353.75" y="-117.09" font-family="Helvetica,sans-Serif" font-size="10.00">boss_attaque</text>
</a>
</g>
</g>
<!-- Node3&#45;&gt;Node4 -->
<g id="edge3_Node000003_Node000004" class="edge">
<title>Node3&#45;&gt;Node4</title>
<g id="a_edge3_Node000003_Node000004"><a xlink:title=" ">
<path fill="none" stroke="#63b8ff" d="M415.25,-120.59C406.92,-120.59 398.81,-120.59 391.38,-120.59"/>
<polygon fill="#63b8ff" stroke="#63b8ff" points="415.2,-124.09 425.2,-120.59 415.2,-117.09 415.2,-124.09"/>
</a>
</g>
</g>
<!-- Node4&#45;&gt;Node5 -->
<g id="edge4_Node000004_Node000005" class="edge">
<title>Node4&#45;&gt;Node5</title>
<g id="a_edge4_Node000004_Node000005"><a xlink:title=" ">
<path fill="none" stroke="#63b8ff" d="M304.88,-120.59C296.99,-120.59 288.8,-120.59 280.86,-120.59"/>
<polygon fill="#63b8ff" stroke="#63b8ff" points="304.63,-124.09 314.63,-120.59 304.63,-117.09 304.63,-124.09"/>
</a>
</g>
</g>
<!-- Node6 -->
<g id="Node000006" class="node">
<title>Node6</title>
<g id="a_Node000006"><a xlink:href="jeux_8c.html#a2d7491d04e8c2bdb52bb6ed7d75e4d78" target="_top" xlink:title="Execute la boucle principale de gameplay pour la planete courante.">
<polygon fill="white" stroke="#666666" points="143,-130.59 73,-130.59 73,-110.59 143,-110.59 143,-130.59"/>
<text xml:space="preserve" text-anchor="middle" x="108" y="-117.09" font-family="Helvetica,sans-Serif" font-size="10.00">jeu_principal</text>
</a>
</g>
</g>
<!-- Node5&#45;&gt;Node6 -->
<g id="edge5_Node000005_Node000006" class="edge">
<title>Node5&#45;&gt;Node6</title>
<g id="a_edge5_Node000005_Node000006"><a xlink:title=" ">
<path fill="none" stroke="#63b8ff" d="M167.39,-120.59C159.09,-120.59 150.84,-120.59 143.26,-120.59"/>
<polygon fill="#63b8ff" stroke="#63b8ff" points="167.15,-124.09 177.15,-120.59 167.15,-117.09 167.15,-124.09"/>
</a>
</g>
</g>
<!-- Node7 -->
<g id="Node000007" class="node">
<title>Node7</title>
<g id="a_Node000007"><a xlink:href="main_8c.html#a0ddf1224851353fc92bfbff6f499fa97" target="_top" xlink:title=" ">
<polygon fill="white" stroke="#666666" points="37,-130.59 0,-130.59 0,-110.59 37,-110.59 37,-130.59"/>
<text xml:space="preserve" text-anchor="middle" x="18.5" y="-117.09" font-family="Helvetica,sans-Serif" font-size="10.00">main</text>
</a>
</g>
</g>
<!-- Node6&#45;&gt;Node7 -->
<g id="edge6_Node000006_Node000007" class="edge">
<title>Node6&#45;&gt;Node7</title>
<g id="a_edge6_Node000006_Node000007"><a xlink:title=" ">
<path fill="none" stroke="#63b8ff" d="M61.18,-120.59C52.72,-120.59 44.36,-120.59 37.37,-120.59"/>
<polygon fill="#63b8ff" stroke="#63b8ff" points="61.16,-124.09 71.16,-120.59 61.16,-117.09 61.16,-124.09"/>
</a>
</g>
</g>
<!-- Node8&#45;&gt;Node3 -->
<g id="edge8_Node000008_Node000003" class="edge">
<title>Node8&#45;&gt;Node3</title>
<g id="a_edge8_Node000008_Node000003"><a xlink:title=" ">
<path fill="none" stroke="#63b8ff" d="M627.98,-163.46C598.59,-153.42 559.76,-140.17 533.09,-131.07"/>
<polygon fill="#63b8ff" stroke="#63b8ff" points="626.72,-166.72 637.31,-166.64 628.98,-160.1 626.72,-166.72"/>
</a>
</g>
</g>
<!-- Node9&#45;&gt;Node3 -->
<g id="edge10_Node000009_Node000003" class="edge">
<title>Node9&#45;&gt;Node3</title>
<g id="a_edge10_Node000009_Node000003"><a xlink:title=" ">
<path fill="none" stroke="#63b8ff" d="M618.83,-89.9C594.18,-96.4 564.96,-104.1 541.96,-110.16"/>
<polygon fill="#63b8ff" stroke="#63b8ff" points="619.56,-93.33 628.33,-87.4 617.77,-86.56 619.56,-93.33"/>
</a>
</g>
</g>
<!-- Node10&#45;&gt;Node2 -->
<g id="edge12_Node000010_Node000002" class="edge">
<title>Node10&#45;&gt;Node2</title>
<g id="a_edge12_Node000010_Node000002"><a xlink:title=" ">
<path fill="none" stroke="#63b8ff" d="M781.81,-145.6C760.83,-140.85 737.38,-135.54 717.51,-131.04"/>
<polygon fill="#63b8ff" stroke="#63b8ff" points="780.84,-148.97 791.37,-147.77 782.39,-142.14 780.84,-148.97"/>
</a>
</g>
</g>
<!-- Node11&#45;&gt;Node5 -->
<g id="edge14_Node000011_Node000005" class="edge">
<title>Node11&#45;&gt;Node5</title>
<g id="a_edge14_Node000011_Node000005"><a xlink:title=" ">
<path fill="none" stroke="#63b8ff" d="M462.57,-31.17C407.41,-52.45 306.16,-91.5 257.82,-110.14"/>
<polygon fill="#63b8ff" stroke="#63b8ff" points="463.81,-34.44 471.88,-27.58 461.29,-27.91 463.81,-34.44"/>
</a>
</g>
</g>
<!-- Node12&#45;&gt;Node2 -->
<g id="edge17_Node000012_Node000002" class="edge">
<title>Node12&#45;&gt;Node2</title>
<g id="a_edge17_Node000012_Node000002"><a xlink:title=" ">
<path fill="none" stroke="#63b8ff" d="M772.31,-94.11C751.66,-99.53 729.58,-105.32 711.35,-110.1"/>
<polygon fill="#63b8ff" stroke="#63b8ff" points="773.02,-97.54 781.8,-91.62 771.24,-90.77 773.02,-97.54"/>
</a>
</g>
</g>
<!-- Node12&#45;&gt;Node9 -->
<g id="edge18_Node000012_Node000009" class="edge">
<title>Node12&#45;&gt;Node9</title>
<g id="a_edge18_Node000012_Node000009"><a xlink:title=" ">
<path fill="none" stroke="#63b8ff" d="M771.89,-76.59C753.84,-76.59 734.71,-76.59 718.04,-76.59"/>
<polygon fill="#63b8ff" stroke="#63b8ff" points="771.75,-80.09 781.75,-76.59 771.75,-73.09 771.75,-80.09"/>
</a>
</g>
</g>
</g>
</svg>
