<?xml version="1.0" encoding="UTF-8" standalone="no"?>
<!DOCTYPE svg PUBLIC "-//W3C//DTD SVG 1.1//EN"
 "http://www.w3.org/Graphics/SVG/1.1/DTD/svg11.dtd">
<!-- Generated by graphviz version 14.1.4 (20260321.0153)
 -->
<!-- Title: invoquer_minions_autour_boss Pages: 1 -->
<svg width="572pt" height="142pt"
 viewBox="0.00 0.00 572.00 142.00" xmlns="http://www.w3.org/2000/svg" xmlns:xlink="http://www.w3.org/1999/xlink">
<g id="graph0" class="graph" transform="scale(1 1) rotate(0) translate(4 138)">
<title>invoquer_minions_autour_boss</title>
<!-- Node1 -->
<g id="Node000001" class="node">
<title>Node1</title>
<g id="a_Node000001"><a xlink:title=" ">
<polygon fill="#999999" stroke="#666666" points="150.25,-77 0,-77 0,-57 150.25,-57 150.25,-77"/>
<text xml:space="preserve" text-anchor="middle" x="75.12" y="-63.5" font-family="Helvetica,sans-Serif" font-size="10.00">invoquer_minions_autour_boss</text>
</a>
</g>
</g>
<!-- Node2 -->
<g id="Node000002" class="node">
<title>Node2</title>
<g id="a_Node000002"><a xlink:href="boss_8c.html#a68148695c18514e47188f05ec2791406" target="_top" xlink:title=" ">
<polygon fill="white" stroke="#666666" points="313.62,-134 197.12,-134 197.12,-114 313.62,-114 313.62,-134"/>
<text xml:space="preserve" text-anchor="middle" x="255.38" y="-120.5" font-family="Helvetica,sans-Serif" font-size="10.00">compter_minions_boss</text>
</a>
</g>
</g>
<!-- Node1&#45;&gt;Node2 -->
<g id="edge1_Node000001_Node000002" class="edge">
<title>Node1&#45;&gt;Node2</title>
<g id="a_edge1_Node000001_Node000002"><a xlink:title=" ">
<path fill="none" stroke="#63b8ff" d="M104.95,-77.48C127.08,-85.39 158.44,-96.33 186.25,-105 192.11,-106.83 198.28,-108.66 204.42,-110.44"/>
<polygon fill="#63b8ff" stroke="#63b8ff" points="203.32,-113.77 213.89,-113.14 205.23,-107.03 203.32,-113.77"/>
</a>
</g>
</g>
<!-- Node3 -->
<g id="Node000003" class="node">
<title>Node3</title>
<g id="a_Node000003"><a xlink:href="boss_8c.html#afb0b61469efd6dce1e15a516cb9e4115" target="_top" xlink:title=" ">
<polygon fill="white" stroke="#666666" points="316.62,-96 194.12,-96 194.12,-76 316.62,-76 316.62,-96"/>
<text xml:space="preserve" text-anchor="middle" x="255.38" y="-82.5" font-family="Helvetica,sans-Serif" font-size="10.00">get_boss_centre_monde</text>
</a>
</g>
</g>
<!-- Node1&#45;&gt;Node3 -->
<g id="edge2_Node000001_Node000003" class="edge">
<title>Node1&#45;&gt;Node3</title>
<g id="a_edge2_Node000001_Node000003"><a xlink:title=" ">
<path fill="none" stroke="#63b8ff" d="M150.69,-74.95C161.2,-76.07 171.98,-77.22 182.44,-78.33"/>
<polygon fill="#63b8ff" stroke="#63b8ff" points="181.81,-81.79 192.13,-79.36 182.55,-74.82 181.81,-81.79"/>
</a>
</g>
</g>
<!-- Node4 -->
<g id="Node000004" class="node">
<title>Node4</title>
<g id="a_Node000004"><a xlink:href="boss_8c.html#a1d5fd526db9bbc3f5b70491cfc645818" target="_top" xlink:title=" ">
<polygon fill="white" stroke="#666666" points="316.25,-58 194.5,-58 194.5,-38 316.25,-38 316.25,-58"/>
<text xml:space="preserve" text-anchor="middle" x="255.38" y="-44.5" font-family="Helvetica,sans-Serif" font-size="10.00">get_player_world_center</text>
</a>
</g>
</g>
<!-- Node1&#45;&gt;Node4 -->
<g id="edge3_Node000001_Node000004" class="edge">
<title>Node1&#45;&gt;Node4</title>
<g id="a_edge3_Node000001_Node000004"><a xlink:title=" ">
<path fill="none" stroke="#63b8ff" d="M150.69,-59.05C161.34,-57.92 172.27,-56.75 182.86,-55.62"/>
<polygon fill="#63b8ff" stroke="#63b8ff" points="183.11,-59.12 192.68,-54.58 182.36,-52.16 183.11,-59.12"/>
</a>
</g>
</g>
<!-- Node9 -->
<g id="Node000009" class="node">
<title>Node9</title>
<g id="a_Node000009"><a xlink:href="boss_8c.html#a8767c1117982bce339be6b5bc5d105a4" target="_top" xlink:title=" ">
<polygon fill="white" stroke="#666666" points="324.5,-20 186.25,-20 186.25,0 324.5,0 324.5,-20"/>
<text xml:space="preserve" text-anchor="middle" x="255.38" y="-6.5" font-family="Helvetica,sans-Serif" font-size="10.00">get_texture_pawn_existante</text>
</a>
</g>
</g>
<!-- Node1&#45;&gt;Node9 -->
<g id="edge8_Node000001_Node000009" class="edge">
<title>Node1&#45;&gt;Node9</title>
<g id="a_edge8_Node000001_Node000009"><a xlink:title=" ">
<path fill="none" stroke="#63b8ff" d="M104.95,-56.52C127.08,-48.61 158.44,-37.67 186.25,-29 192.11,-27.17 198.28,-25.34 204.42,-23.56"/>
<polygon fill="#63b8ff" stroke="#63b8ff" points="205.23,-26.97 213.89,-20.86 203.32,-20.23 205.23,-26.97"/>
</a>
</g>
</g>
<!-- Node5 -->
<g id="Node000005" class="node">
<title>Node5</title>
<g id="a_Node000005"><a xlink:href="main_8h.html#a6c672075bc554c92548a916c9501bdb5" target="_top" xlink:title=" ">
<polygon fill="white" stroke="#666666" points="448.5,-77 360.5,-77 360.5,-57 448.5,-57 448.5,-77"/>
<text xml:space="preserve" text-anchor="middle" x="404.5" y="-63.5" font-family="Helvetica,sans-Serif" font-size="10.00">screen_center_x</text>
</a>
</g>
</g>
<!-- Node4&#45;&gt;Node5 -->
<g id="edge4_Node000004_Node000005" class="edge">
<title>Node4&#45;&gt;Node5</title>
<g id="a_edge4_Node000004_Node000005"><a xlink:title=" ">
<path fill="none" stroke="#63b8ff" d="M316.64,-55.78C327.36,-57.17 338.48,-58.6 349.03,-59.97"/>
<polygon fill="#63b8ff" stroke="#63b8ff" points="348.34,-63.41 358.71,-61.22 349.24,-56.46 348.34,-63.41"/>
</a>
</g>
</g>
<!-- Node7 -->
<g id="Node000007" class="node">
<title>Node7</title>
<g id="a_Node000007"><a xlink:href="main_8h.html#a6456affd0d0a21e911b531a5ba25676d" target="_top" xlink:title=" ">
<polygon fill="white" stroke="#666666" points="448.5,-39 360.5,-39 360.5,-19 448.5,-19 448.5,-39"/>
<text xml:space="preserve" text-anchor="middle" x="404.5" y="-25.5" font-family="Helvetica,sans-Serif" font-size="10.00">screen_center_y</text>
</a>
</g>
</g>
<!-- Node4&#45;&gt;Node7 -->
<g id="edge6_Node000004_Node000007" class="edge">
<title>Node4&#45;&gt;Node7</title>
<g id="a_edge6_Node000004_Node000007"><a xlink:title=" ">
<path fill="none" stroke="#63b8ff" d="M316.64,-40.22C327.36,-38.83 338.48,-37.4 349.03,-36.03"/>
<polygon fill="#63b8ff" stroke="#63b8ff" points="349.24,-39.54 358.71,-34.78 348.34,-32.59 349.24,-39.54"/>
</a>
</g>
</g>
<!-- Node6 -->
<g id="Node000006" class="node">
<title>Node6</title>
<g id="a_Node000006"><a xlink:href="main_8h.html#aaaa1e9fcb86ff8e60b297faa7815ad1d" target="_top" xlink:title=" ">
<polygon fill="white" stroke="#666666" points="562.75,-77 486,-77 486,-57 562.75,-57 562.75,-77"/>
<text xml:space="preserve" text-anchor="middle" x="524.38" y="-63.5" font-family="Helvetica,sans-Serif" font-size="10.00">screen_widthf</text>
</a>
</g>
</g>
<!-- Node5&#45;&gt;Node6 -->
<g id="edge5_Node000005_Node000006" class="edge">
<title>Node5&#45;&gt;Node6</title>
<g id="a_edge5_Node000005_Node000006"><a xlink:title=" ">
<path fill="none" stroke="#63b8ff" d="M448.72,-67C457.03,-67 465.8,-67 474.28,-67"/>
<polygon fill="#63b8ff" stroke="#63b8ff" points="474.09,-70.5 484.09,-67 474.09,-63.5 474.09,-70.5"/>
</a>
</g>
</g>
<!-- Node8 -->
<g id="Node000008" class="node">
<title>Node8</title>
<g id="a_Node000008"><a xlink:href="main_8h.html#a9b4aefc63ea00e60ec88da19e24e8236" target="_top" xlink:title=" ">
<polygon fill="white" stroke="#666666" points="564.25,-39 484.5,-39 484.5,-19 564.25,-19 564.25,-39"/>
<text xml:space="preserve" text-anchor="middle" x="524.38" y="-25.5" font-family="Helvetica,sans-Serif" font-size="10.00">screen_heightf</text>
</a>
</g>
</g>
<!-- Node7&#45;&gt;Node8 -->
<g id="edge7_Node000007_Node000008" class="edge">
<title>Node7&#45;&gt;Node8</title>
<g id="a_edge7_Node000007_Node000008"><a xlink:title=" ">
<path fill="none" stroke="#63b8ff" d="M448.72,-29C456.49,-29 464.66,-29 472.62,-29"/>
<polygon fill="#63b8ff" stroke="#63b8ff" points="472.55,-32.5 482.55,-29 472.55,-25.5 472.55,-32.5"/>
</a>
</g>
</g>
</g>
</svg>
