<?xml version="1.0" encoding="UTF-8" standalone="no"?>
<!DOCTYPE svg PUBLIC "-//W3C//DTD SVG 1.1//EN"
 "http://www.w3.org/Graphics/SVG/1.1/DTD/svg11.dtd">
<!-- Generated by graphviz version 14.1.4 (20260321.0153)
 -->
<!-- Title: appliquer_degats_joueur_sur_boss Pages: 1 -->
<svg width="682pt" height="116pt"
 viewBox="0.00 0.00 682.00 116.00" xmlns="http://www.w3.org/2000/svg" xmlns:xlink="http://www.w3.org/1999/xlink">
<g id="graph0" class="graph" transform="scale(1 1) rotate(0) translate(4 112)">
<title>appliquer_degats_joueur_sur_boss</title>
<!-- Node1 -->
<g id="Node000001" class="node">
<title>Node1</title>
<g id="a_Node000001"><a xlink:title=" ">
<polygon fill="#999999" stroke="#666666" points="121,-76 0,-76 0,-44 121,-44 121,-76"/>
<text xml:space="preserve" text-anchor="start" x="8" y="-62.5" font-family="Helvetica,sans-Serif" font-size="10.00">appliquer_degats_joueur</text>
<text xml:space="preserve" text-anchor="middle" x="60.5" y="-50.5" font-family="Helvetica,sans-Serif" font-size="10.00">_sur_boss</text>
</a>
</g>
</g>
<!-- Node2 -->
<g id="Node000002" class="node">
<title>Node2</title>
<g id="a_Node000002"><a xlink:href="boss_8c.html#aca79e3fbdb8a06a38d6543de2eb5813b" target="_top" xlink:title=" ">
<polygon fill="white" stroke="#666666" points="273.5,-108 157,-108 157,-88 273.5,-88 273.5,-108"/>
<text xml:space="preserve" text-anchor="middle" x="215.25" y="-94.5" font-family="Helvetica,sans-Serif" font-size="10.00">get_boss_hitbox_ecran</text>
</a>
</g>
</g>
<!-- Node1&#45;&gt;Node2 -->
<g id="edge1_Node000001_Node000002" class="edge">
<title>Node1&#45;&gt;Node2</title>
<g id="a_edge1_Node000001_Node000002"><a xlink:title=" ">
<path fill="none" stroke="#63b8ff" d="M121.43,-74.91C134.62,-78.19 148.49,-81.64 161.38,-84.85"/>
<polygon fill="#63b8ff" stroke="#63b8ff" points="160.39,-88.21 170.94,-87.23 162.08,-81.41 160.39,-88.21"/>
</a>
</g>
</g>
<!-- Node3 -->
<g id="Node000003" class="node">
<title>Node3</title>
<g id="a_Node000003"><a xlink:href="boss_8c.html#a2688d61a1b6cbb464d764fdfb6aec69f" target="_top" xlink:title=" ">
<polygon fill="white" stroke="#666666" points="434.25,-67 309.5,-67 309.5,-47 434.25,-47 434.25,-67"/>
<text xml:space="preserve" text-anchor="middle" x="371.88" y="-53.5" font-family="Helvetica,sans-Serif" font-size="10.00">get_zone_attaque_joueur</text>
</a>
</g>
</g>
<!-- Node1&#45;&gt;Node3 -->
<g id="edge2_Node000001_Node000003" class="edge">
<title>Node1&#45;&gt;Node3</title>
<g id="a_edge2_Node000001_Node000003"><a xlink:title=" ">
<path fill="none" stroke="#63b8ff" d="M121.15,-59.42C171.56,-58.93 243.95,-58.23 297.82,-57.71"/>
<polygon fill="#63b8ff" stroke="#63b8ff" points="297.54,-61.21 307.51,-57.61 297.48,-54.21 297.54,-61.21"/>
</a>
</g>
</g>
<!-- Node8 -->
<g id="Node000008" class="node">
<title>Node8</title>
<g id="a_Node000008"><a xlink:href="boss_8c.html#ac8a28bea25324bf0528eed732c5368f3" target="_top" xlink:title=" ">
<polygon fill="white" stroke="#666666" points="266.75,-32 163.75,-32 163.75,0 266.75,0 266.75,-32"/>
<text xml:space="preserve" text-anchor="start" x="171.75" y="-18.5" font-family="Helvetica,sans-Serif" font-size="10.00">renvoyer_projectiles</text>
<text xml:space="preserve" text-anchor="middle" x="215.25" y="-6.5" font-family="Helvetica,sans-Serif" font-size="10.00">_touches</text>
</a>
</g>
</g>
<!-- Node1&#45;&gt;Node8 -->
<g id="edge7_Node000001_Node000008" class="edge">
<title>Node1&#45;&gt;Node8</title>
<g id="a_edge7_Node000001_Node000008"><a xlink:title=" ">
<path fill="none" stroke="#63b8ff" d="M118.38,-43.62C129.45,-40.43 141.1,-37.07 152.33,-33.84"/>
<polygon fill="#63b8ff" stroke="#63b8ff" points="153.27,-37.21 161.91,-31.08 151.33,-30.48 153.27,-37.21"/>
</a>
</g>
</g>
<!-- Node4 -->
<g id="Node000004" class="node">
<title>Node4</title>
<g id="a_Node000004"><a xlink:href="main_8h.html#a6c672075bc554c92548a916c9501bdb5" target="_top" xlink:title=" ">
<polygon fill="white" stroke="#666666" points="558.25,-86 470.25,-86 470.25,-66 558.25,-66 558.25,-86"/>
<text xml:space="preserve" text-anchor="middle" x="514.25" y="-72.5" font-family="Helvetica,sans-Serif" font-size="10.00">screen_center_x</text>
</a>
</g>
</g>
<!-- Node3&#45;&gt;Node4 -->
<g id="edge3_Node000003_Node000004" class="edge">
<title>Node3&#45;&gt;Node4</title>
<g id="a_edge3_Node000003_Node000004"><a xlink:title=" ">
<path fill="none" stroke="#63b8ff" d="M434.45,-65.33C442.46,-66.42 450.63,-67.52 458.53,-68.59"/>
<polygon fill="#63b8ff" stroke="#63b8ff" points="457.97,-72.05 468.35,-69.92 458.91,-65.11 457.97,-72.05"/>
</a>
</g>
</g>
<!-- Node6 -->
<g id="Node000006" class="node">
<title>Node6</title>
<g id="a_Node000006"><a xlink:href="main_8h.html#a6456affd0d0a21e911b531a5ba25676d" target="_top" xlink:title=" ">
<polygon fill="white" stroke="#666666" points="558.25,-48 470.25,-48 470.25,-28 558.25,-28 558.25,-48"/>
<text xml:space="preserve" text-anchor="middle" x="514.25" y="-34.5" font-family="Helvetica,sans-Serif" font-size="10.00">screen_center_y</text>
</a>
</g>
</g>
<!-- Node3&#45;&gt;Node6 -->
<g id="edge5_Node000003_Node000006" class="edge">
<title>Node3&#45;&gt;Node6</title>
<g id="a_edge5_Node000003_Node000006"><a xlink:title=" ">
<path fill="none" stroke="#63b8ff" d="M434.45,-48.67C442.46,-47.58 450.63,-46.48 458.53,-45.41"/>
<polygon fill="#63b8ff" stroke="#63b8ff" points="458.91,-48.89 468.35,-44.08 457.97,-41.95 458.91,-48.89"/>
</a>
</g>
</g>
<!-- Node5 -->
<g id="Node000005" class="node">
<title>Node5</title>
<g id="a_Node000005"><a xlink:href="main_8h.html#aaaa1e9fcb86ff8e60b297faa7815ad1d" target="_top" xlink:title=" ">
<polygon fill="white" stroke="#666666" points="672.5,-86 595.75,-86 595.75,-66 672.5,-66 672.5,-86"/>
<text xml:space="preserve" text-anchor="middle" x="634.12" y="-72.5" font-family="Helvetica,sans-Serif" font-size="10.00">screen_widthf</text>
</a>
</g>
</g>
<!-- Node4&#45;&gt;Node5 -->
<g id="edge4_Node000004_Node000005" class="edge">
<title>Node4&#45;&gt;Node5</title>
<g id="a_edge4_Node000004_Node000005"><a xlink:title=" ">
<path fill="none" stroke="#63b8ff" d="M558.47,-76C566.78,-76 575.55,-76 584.03,-76"/>
<polygon fill="#63b8ff" stroke="#63b8ff" points="583.84,-79.5 593.84,-76 583.84,-72.5 583.84,-79.5"/>
</a>
</g>
</g>
<!-- Node7 -->
<g id="Node000007" class="node">
<title>Node7</title>
<g id="a_Node000007"><a xlink:href="main_8h.html#a9b4aefc63ea00e60ec88da19e24e8236" target="_top" xlink:title=" ">
<polygon fill="white" stroke="#666666" points="674,-48 594.25,-48 594.25,-28 674,-28 674,-48"/>
<text xml:space="preserve" text-anchor="middle" x="634.12" y="-34.5" font-family="Helvetica,sans-Serif" font-size="10.00">screen_heightf</text>
</a>
</g>
</g>
<!-- Node6&#45;&gt;Node7 -->
<g id="edge6_Node000006_Node000007" class="edge">
<title>Node6&#45;&gt;Node7</title>
<g id="a_edge6_Node000006_Node000007"><a xlink:title=" ">
<path fill="none" stroke="#63b8ff" d="M558.47,-38C566.24,-38 574.41,-38 582.37,-38"/>
<polygon fill="#63b8ff" stroke="#63b8ff" points="582.3,-41.5 592.3,-38 582.3,-34.5 582.3,-41.5"/>
</a>
</g>
</g>
<!-- Node8&#45;&gt;Node3 -->
<g id="edge9_Node000008_Node000003" class="edge">
<title>Node8&#45;&gt;Node3</title>
<g id="a_edge9_Node000008_Node000003"><a xlink:title=" ">
<path fill="none" stroke="#63b8ff" d="M266.88,-29.42C284.08,-33.98 303.28,-39.08 320.46,-43.63"/>
<polygon fill="#63b8ff" stroke="#63b8ff" points="319.39,-46.97 329.95,-46.15 321.18,-40.2 319.39,-46.97"/>
</a>
</g>
</g>
<!-- Node9 -->
<g id="Node000009" class="node">
<title>Node9</title>
<g id="a_Node000009"><a xlink:href="boss_8c.html#afb0b61469efd6dce1e15a516cb9e4115" target="_top" xlink:title=" ">
<polygon fill="white" stroke="#666666" points="433.12,-26 310.62,-26 310.62,-6 433.12,-6 433.12,-26"/>
<text xml:space="preserve" text-anchor="middle" x="371.88" y="-12.5" font-family="Helvetica,sans-Serif" font-size="10.00">get_boss_centre_monde</text>
</a>
</g>
</g>
<!-- Node8&#45;&gt;Node9 -->
<g id="edge8_Node000008_Node000009" class="edge">
<title>Node8&#45;&gt;Node9</title>
<g id="a_edge8_Node000008_Node000009"><a xlink:title=" ">
<path fill="none" stroke="#63b8ff" d="M266.88,-16C277.14,-16 288.12,-16 298.96,-16"/>
<polygon fill="#63b8ff" stroke="#63b8ff" points="298.65,-19.5 308.65,-16 298.65,-12.5 298.65,-19.5"/>
</a>
</g>
</g>
</g>
</svg>
