<?xml version="1.0" encoding="UTF-8" standalone="no"?>
<!DOCTYPE svg PUBLIC "-//W3C//DTD SVG 1.1//EN"
 "http://www.w3.org/Graphics/SVG/1.1/DTD/svg11.dtd">
<!-- Generated by graphviz version 14.1.4 (20260321.0153)
 -->
<!-- Title: init_boss Pages: 1 -->
<svg width="227pt" height="104pt"
 viewBox="0.00 0.00 227.00 104.00" xmlns="http://www.w3.org/2000/svg" xmlns:xlink="http://www.w3.org/1999/xlink">
<g id="graph0" class="graph" transform="scale(1 1) rotate(0) translate(4 100)">
<title>init_boss</title>
<!-- Node1 -->
<g id="Node000001" class="node">
<title>Node1</title>
<g id="a_Node000001"><a xlink:title="Initialise boss et prepare les ressources necessaires.">
<polygon fill="#999999" stroke="#666666" points="55,-58 0,-58 0,-38 55,-38 55,-58"/>
<text xml:space="preserve" text-anchor="middle" x="27.5" y="-44.5" font-family="Helvetica,sans-Serif" font-size="10.00">init_boss</text>
</a>
</g>
</g>
<!-- Node2 -->
<g id="Node000002" class="node">
<title>Node2</title>
<g id="a_Node000002"><a xlink:href="boss_8c.html#a5642c7f048f3c353a2fd34c7be8d5719" target="_top" xlink:title=" ">
<polygon fill="white" stroke="#666666" points="218.75,-96 91,-96 91,-76 218.75,-76 218.75,-96"/>
<text xml:space="preserve" text-anchor="middle" x="154.88" y="-82.5" font-family="Helvetica,sans-Serif" font-size="10.00">charger_texture_projectile</text>
</a>
</g>
</g>
<!-- Node1&#45;&gt;Node2 -->
<g id="edge1_Node000001_Node000002" class="edge">
<title>Node1&#45;&gt;Node2</title>
<g id="a_edge1_Node000001_Node000002"><a xlink:title=" ">
<path fill="none" stroke="#63b8ff" d="M55.26,-56.15C66.32,-59.51 79.28,-63.45 91,-67 96.59,-68.69 102.45,-70.47 108.26,-72.23"/>
<polygon fill="#63b8ff" stroke="#63b8ff" points="107.25,-75.58 117.83,-75.12 109.27,-68.87 107.25,-75.58"/>
</a>
</g>
</g>
<!-- Node3 -->
<g id="Node000003" class="node">
<title>Node3</title>
<g id="a_Node000003"><a xlink:href="boss_8c.html#aa99c5bb57c45ca96ac8cbc9178113ded" target="_top" xlink:title=" ">
<polygon fill="white" stroke="#666666" points="198.12,-58 111.62,-58 111.62,-38 198.12,-38 198.12,-58"/>
<text xml:space="preserve" text-anchor="middle" x="154.88" y="-44.5" font-family="Helvetica,sans-Serif" font-size="10.00">clear_projectiles</text>
</a>
</g>
</g>
<!-- Node1&#45;&gt;Node3 -->
<g id="edge2_Node000001_Node000003" class="edge">
<title>Node1&#45;&gt;Node3</title>
<g id="a_edge2_Node000001_Node000003"><a xlink:title=" ">
<path fill="none" stroke="#63b8ff" d="M55.4,-48C68.48,-48 84.7,-48 100.16,-48"/>
<polygon fill="#63b8ff" stroke="#63b8ff" points="99.73,-51.5 109.73,-48 99.73,-44.5 99.73,-51.5"/>
</a>
</g>
</g>
<!-- Node4 -->
<g id="Node000004" class="node">
<title>Node4</title>
<g id="a_Node000004"><a xlink:href="boss_8c.html#acd9cd51110bb80d66ab7e4e8026b9aef" target="_top" xlink:title=" ">
<polygon fill="white" stroke="#666666" points="206.38,-20 103.38,-20 103.38,0 206.38,0 206.38,-20"/>
<text xml:space="preserve" text-anchor="middle" x="154.88" y="-6.5" font-family="Helvetica,sans-Serif" font-size="10.00">obtenir_config_boss</text>
</a>
</g>
</g>
<!-- Node1&#45;&gt;Node4 -->
<g id="edge3_Node000001_Node000004" class="edge">
<title>Node1&#45;&gt;Node4</title>
<g id="a_edge3_Node000001_Node000004"><a xlink:title=" ">
<path fill="none" stroke="#63b8ff" d="M55.26,-39.85C66.32,-36.49 79.28,-32.55 91,-29 96.59,-27.31 102.45,-25.53 108.26,-23.77"/>
<polygon fill="#63b8ff" stroke="#63b8ff" points="109.27,-27.13 117.83,-20.88 107.25,-20.42 109.27,-27.13"/>
</a>
</g>
</g>
</g>
</svg>
