<?xml version="1.0" encoding="UTF-8" standalone="no"?>
<!DOCTYPE svg PUBLIC "-//W3C//DTD SVG 1.1//EN"
 "http://www.w3.org/Graphics/SVG/1.1/DTD/svg11.dtd">
<!-- Generated by graphviz version 14.1.4 (20260321.0153)
 -->
<!-- Title: minotaure_position_libre_centre Pages: 1 -->
<svg width="1011pt" height="40pt"
 viewBox="0.00 0.00 1011.00 40.00" xmlns="http://www.w3.org/2000/svg" xmlns:xlink="http://www.w3.org/1999/xlink">
<g id="graph0" class="graph" transform="scale(1 1) rotate(0) translate(4 36)">
<title>minotaure_position_libre_centre</title>
<!-- Node1 -->
<g id="Node000001" class="node">
<title>Node1</title>
<g id="a_Node000001"><a xlink:title=" ">
<polygon fill="#999999" stroke="#666666" points="1002.5,-32 904.75,-32 904.75,0 1002.5,0 1002.5,-32"/>
<text xml:space="preserve" text-anchor="start" x="912.75" y="-18.5" font-family="Helvetica,sans-Serif" font-size="10.00">minotaure_position</text>
<text xml:space="preserve" text-anchor="middle" x="953.62" y="-6.5" font-family="Helvetica,sans-Serif" font-size="10.00">_libre_centre</text>
</a>
</g>
</g>
<!-- Node2 -->
<g id="Node000002" class="node">
<title>Node2</title>
<g id="a_Node000002"><a xlink:href="boss_8c.html#a1605a1af145e7f0bc025e2c9c51d5ab9" target="_top" xlink:title=" ">
<polygon fill="white" stroke="#666666" points="868.75,-26 744,-26 744,-6 868.75,-6 868.75,-26"/>
<text xml:space="preserve" text-anchor="middle" x="806.38" y="-12.5" font-family="Helvetica,sans-Serif" font-size="10.00">deplacer_minotaure_vers</text>
</a>
</g>
</g>
<!-- Node1&#45;&gt;Node2 -->
<g id="edge1_Node000001_Node000002" class="edge">
<title>Node1&#45;&gt;Node2</title>
<g id="a_edge1_Node000001_Node000002"><a xlink:title=" ">
<path fill="none" stroke="#63b8ff" d="M892.97,-16C885.14,-16 877.09,-16 869.22,-16"/>
<polygon fill="#63b8ff" stroke="#63b8ff" points="892.75,-19.5 902.75,-16 892.75,-12.5 892.75,-19.5"/>
</a>
</g>
</g>
<!-- Node3 -->
<g id="Node000003" class="node">
<title>Node3</title>
<g id="a_Node000003"><a xlink:href="boss_8c.html#ab86bd855c9b53c18f663cf494b2f68ad" target="_top" xlink:title=" ">
<polygon fill="white" stroke="#666666" points="708,-26 611.75,-26 611.75,-6 708,-6 708,-26"/>
<text xml:space="preserve" text-anchor="middle" x="659.88" y="-12.5" font-family="Helvetica,sans-Serif" font-size="10.00">attaque_minotaure</text>
</a>
</g>
</g>
<!-- Node2&#45;&gt;Node3 -->
<g id="edge2_Node000002_Node000003" class="edge">
<title>Node2&#45;&gt;Node3</title>
<g id="a_edge2_Node000002_Node000003"><a xlink:title=" ">
<path fill="none" stroke="#63b8ff" d="M732.25,-16C724.14,-16 716.05,-16 708.38,-16"/>
<polygon fill="#63b8ff" stroke="#63b8ff" points="732.16,-19.5 742.16,-16 732.16,-12.5 732.16,-19.5"/>
</a>
</g>
</g>
<!-- Node4 -->
<g id="Node000004" class="node">
<title>Node4</title>
<g id="a_Node000004"><a xlink:href="boss_8c.html#a5f817e3b267c2b327de8c2d9251477f4" target="_top" xlink:title=" ">
<polygon fill="white" stroke="#666666" points="575.75,-26 427,-26 427,-6 575.75,-6 575.75,-26"/>
<text xml:space="preserve" text-anchor="middle" x="501.38" y="-12.5" font-family="Helvetica,sans-Serif" font-size="10.00">obtenir_fonction_attaque_boss</text>
</a>
</g>
</g>
<!-- Node3&#45;&gt;Node4 -->
<g id="edge3_Node000003_Node000004" class="edge">
<title>Node3&#45;&gt;Node4</title>
<g id="a_edge3_Node000003_Node000004"><a xlink:title=" ">
<path fill="none" stroke="#63b8ff" d="M600.23,-16C592.38,-16 584.25,-16 576.17,-16"/>
<polygon fill="#63b8ff" stroke="#63b8ff" points="599.98,-19.5 609.98,-16 599.98,-12.5 599.98,-19.5"/>
</a>
</g>
</g>
<!-- Node5 -->
<g id="Node000005" class="node">
<title>Node5</title>
<g id="a_Node000005"><a xlink:href="boss_8c.html#aea78d389dc05993b72aebb218a4768de" target="_top" xlink:title="Execute la logique d&#39;attaque du boss en tenant compte des cooldowns et de la phase active.">
<polygon fill="white" stroke="#666666" points="391,-26 316.5,-26 316.5,-6 391,-6 391,-26"/>
<text xml:space="preserve" text-anchor="middle" x="353.75" y="-12.5" font-family="Helvetica,sans-Serif" font-size="10.00">boss_attaque</text>
</a>
</g>
</g>
<!-- Node4&#45;&gt;Node5 -->
<g id="edge4_Node000004_Node000005" class="edge">
<title>Node4&#45;&gt;Node5</title>
<g id="a_edge4_Node000004_Node000005"><a xlink:title=" ">
<path fill="none" stroke="#63b8ff" d="M415.25,-16C406.92,-16 398.81,-16 391.38,-16"/>
<polygon fill="#63b8ff" stroke="#63b8ff" points="415.2,-19.5 425.2,-16 415.2,-12.5 415.2,-19.5"/>
</a>
</g>
</g>
<!-- Node6 -->
<g id="Node000006" class="node">
<title>Node6</title>
<g id="a_Node000006"><a xlink:href="boss_8c.html#abbb99b844a32a59c50228b7d6dcb888b" target="_top" xlink:title="Met a jour boss en fonction de l&#39;etat courant du jeu.">
<polygon fill="white" stroke="#666666" points="280.5,-26 179,-26 179,-6 280.5,-6 280.5,-26"/>
<text xml:space="preserve" text-anchor="middle" x="229.75" y="-12.5" font-family="Helvetica,sans-Serif" font-size="10.00">mettre_a_jour_boss</text>
</a>
</g>
</g>
<!-- Node5&#45;&gt;Node6 -->
<g id="edge5_Node000005_Node000006" class="edge">
<title>Node5&#45;&gt;Node6</title>
<g id="a_edge5_Node000005_Node000006"><a xlink:title=" ">
<path fill="none" stroke="#63b8ff" d="M304.88,-16C296.99,-16 288.8,-16 280.86,-16"/>
<polygon fill="#63b8ff" stroke="#63b8ff" points="304.63,-19.5 314.63,-16 304.63,-12.5 304.63,-19.5"/>
</a>
</g>
</g>
<!-- Node7 -->
<g id="Node000007" class="node">
<title>Node7</title>
<g id="a_Node000007"><a xlink:href="jeux_8c.html#a2d7491d04e8c2bdb52bb6ed7d75e4d78" target="_top" xlink:title="Execute la boucle principale de gameplay pour la planete courante.">
<polygon fill="white" stroke="#666666" points="143,-26 73,-26 73,-6 143,-6 143,-26"/>
<text xml:space="preserve" text-anchor="middle" x="108" y="-12.5" font-family="Helvetica,sans-Serif" font-size="10.00">jeu_principal</text>
</a>
</g>
</g>
<!-- Node6&#45;&gt;Node7 -->
<g id="edge6_Node000006_Node000007" class="edge">
<title>Node6&#45;&gt;Node7</title>
<g id="a_edge6_Node000006_Node000007"><a xlink:title=" ">
<path fill="none" stroke="#63b8ff" d="M167.39,-16C159.09,-16 150.84,-16 143.26,-16"/>
<polygon fill="#63b8ff" stroke="#63b8ff" points="167.15,-19.5 177.15,-16 167.15,-12.5 167.15,-19.5"/>
</a>
</g>
</g>
<!-- Node8 -->
<g id="Node000008" class="node">
<title>Node8</title>
<g id="a_Node000008"><a xlink:href="main_8c.html#a0ddf1224851353fc92bfbff6f499fa97" target="_top" xlink:title=" ">
<polygon fill="white" stroke="#666666" points="37,-26 0,-26 0,-6 37,-6 37,-26"/>
<text xml:space="preserve" text-anchor="middle" x="18.5" y="-12.5" font-family="Helvetica,sans-Serif" font-size="10.00">main</text>
</a>
</g>
</g>
<!-- Node7&#45;&gt;Node8 -->
<g id="edge7_Node000007_Node000008" class="edge">
<title>Node7&#45;&gt;Node8</title>
<g id="a_edge7_Node000007_Node000008"><a xlink:title=" ">
<path fill="none" stroke="#63b8ff" d="M61.18,-16C52.72,-16 44.36,-16 37.37,-16"/>
<polygon fill="#63b8ff" stroke="#63b8ff" points="61.16,-19.5 71.16,-16 61.16,-12.5 61.16,-19.5"/>
</a>
</g>
</g>
</g>
</svg>
