<?xml version="1.0" encoding="UTF-8" standalone="no"?>
<!DOCTYPE svg PUBLIC "-//W3C//DTD SVG 1.1//EN"
 "http://www.w3.org/Graphics/SVG/1.1/DTD/svg11.dtd">
<!-- Generated by graphviz version 14.1.4 (20260321.0153)
 -->
<!-- Title: src/bouton.c Pages: 1 -->
<svg width="429pt" height="140pt"
 viewBox="0.00 0.00 429.00 140.00" xmlns="http://www.w3.org/2000/svg" xmlns:xlink="http://www.w3.org/1999/xlink">
<g id="graph0" class="graph" transform="scale(1 1) rotate(0) translate(4 136)">
<title>src/bouton.c</title>
<!-- Node1 -->
<g id="Node000001" class="node">
<title>Node1</title>
<g id="a_Node000001"><a xlink:title="Gestion des boutons reutilisables de l&#39;interface.">
<polygon fill="#999999" stroke="#666666" points="205.75,-132 135.75,-132 135.75,-112 205.75,-112 205.75,-132"/>
<text xml:space="preserve" text-anchor="middle" x="170.75" y="-118.5" font-family="Helvetica,sans-Serif" font-size="10.00">src/bouton.c</text>
</a>
</g>
</g>
<!-- Node2 -->
<g id="Node000002" class="node">
<title>Node2</title>
<g id="a_Node000002"><a xlink:href="bouton_8h.html" target="_top" xlink:title="Fichier des boutons UI, de leur etat et de la gestion des interactions souris.">
<polygon fill="white" stroke="#666666" points="142.25,-76 51.25,-76 51.25,-56 142.25,-56 142.25,-76"/>
<text xml:space="preserve" text-anchor="middle" x="96.75" y="-62.5" font-family="Helvetica,sans-Serif" font-size="10.00">headers/bouton.h</text>
</a>
</g>
</g>
<!-- Node1&#45;&gt;Node2 -->
<g id="edge1_Node000001_Node000002" class="edge">
<title>Node1&#45;&gt;Node2</title>
<g id="a_edge1_Node000001_Node000002"><a xlink:title=" ">
<path fill="none" stroke="#63b8ff" d="M157.86,-111.59C147.04,-103.7 131.34,-92.24 118.56,-82.92"/>
<polygon fill="#63b8ff" stroke="#63b8ff" points="120.86,-80.26 110.71,-77.19 116.73,-85.91 120.86,-80.26"/>
</a>
</g>
</g>
<!-- Node3 -->
<g id="Node000003" class="node">
<title>Node3</title>
<g id="a_Node000003"><a xlink:title=" ">
<polygon fill="#e0e0e0" stroke="#999999" points="71.5,-20 0,-20 0,0 71.5,0 71.5,-20"/>
<text xml:space="preserve" text-anchor="middle" x="35.75" y="-6.5" font-family="Helvetica,sans-Serif" font-size="10.00">SDL3/SDL.h</text>
</a>
</g>
</g>
<!-- Node1&#45;&gt;Node3 -->
<g id="edge4_Node000001_Node000003" class="edge">
<title>Node1&#45;&gt;Node3</title>
<g id="a_edge4_Node000001_Node000003"><a xlink:title=" ">
<path fill="none" stroke="#63b8ff" d="M135.26,-118.61C105.67,-114.6 64.91,-103.97 42.75,-76 32.93,-63.6 31.73,-45.44 32.67,-31.47"/>
<polygon fill="#63b8ff" stroke="#63b8ff" points="36.14,-31.93 33.78,-21.6 29.18,-31.14 36.14,-31.93"/>
</a>
</g>
</g>
<!-- Node4 -->
<g id="Node000004" class="node">
<title>Node4</title>
<g id="a_Node000004"><a xlink:title=" ">
<polygon fill="#e0e0e0" stroke="#999999" points="231,-20 96.5,-20 96.5,0 231,0 231,-20"/>
<text xml:space="preserve" text-anchor="middle" x="163.75" y="-6.5" font-family="Helvetica,sans-Serif" font-size="10.00">SDL3_image/SDL_image.h</text>
</a>
</g>
</g>
<!-- Node1&#45;&gt;Node4 -->
<g id="edge5_Node000001_Node000004" class="edge">
<title>Node1&#45;&gt;Node4</title>
<g id="a_edge5_Node000001_Node000004"><a xlink:title=" ">
<path fill="none" stroke="#63b8ff" d="M170.15,-111.62C169.03,-94.01 166.59,-55.59 165.06,-31.65"/>
<polygon fill="#63b8ff" stroke="#63b8ff" points="168.57,-31.62 164.44,-21.87 161.58,-32.07 168.57,-31.62"/>
</a>
</g>
</g>
<!-- Node5 -->
<g id="Node000005" class="node">
<title>Node5</title>
<g id="a_Node000005"><a xlink:title=" ">
<polygon fill="#e0e0e0" stroke="#999999" points="302.62,-76 198.88,-76 198.88,-56 302.62,-56 302.62,-76"/>
<text xml:space="preserve" text-anchor="middle" x="250.75" y="-62.5" font-family="Helvetica,sans-Serif" font-size="10.00">SDL3/SDL_render.h</text>
</a>
</g>
</g>
<!-- Node1&#45;&gt;Node5 -->
<g id="edge6_Node000001_Node000005" class="edge">
<title>Node1&#45;&gt;Node5</title>
<g id="a_edge6_Node000001_Node000005"><a xlink:title=" ">
<path fill="none" stroke="#63b8ff" d="M184.68,-111.59C196.43,-103.67 213.48,-92.16 227.32,-82.82"/>
<polygon fill="#63b8ff" stroke="#63b8ff" points="229.12,-85.82 235.45,-77.33 225.21,-80.02 229.12,-85.82"/>
</a>
</g>
</g>
<!-- Node6 -->
<g id="Node000006" class="node">
<title>Node6</title>
<g id="a_Node000006"><a xlink:title=" ">
<polygon fill="#e0e0e0" stroke="#999999" points="420.75,-76 320.75,-76 320.75,-56 420.75,-56 420.75,-76"/>
<text xml:space="preserve" text-anchor="middle" x="370.75" y="-62.5" font-family="Helvetica,sans-Serif" font-size="10.00">SDL3_ttf/SDL_ttf.h</text>
</a>
</g>
</g>
<!-- Node1&#45;&gt;Node6 -->
<g id="edge7_Node000001_Node000006" class="edge">
<title>Node1&#45;&gt;Node6</title>
<g id="a_edge7_Node000001_Node000006"><a xlink:title=" ">
<path fill="none" stroke="#63b8ff" d="M205.59,-111.59C238.65,-102.67 288.55,-89.19 324.85,-79.39"/>
<polygon fill="#63b8ff" stroke="#63b8ff" points="325.44,-82.86 334.18,-76.87 323.61,-76.1 325.44,-82.86"/>
</a>
</g>
</g>
<!-- Node2&#45;&gt;Node3 -->
<g id="edge2_Node000002_Node000003" class="edge">
<title>Node2&#45;&gt;Node3</title>
<g id="a_edge2_Node000002_Node000003"><a xlink:title=" ">
<path fill="none" stroke="#63b8ff" d="M86.12,-55.59C77.47,-47.93 65.02,-36.91 54.67,-27.75"/>
<polygon fill="#63b8ff" stroke="#63b8ff" points="57.19,-25.31 47.39,-21.3 52.55,-30.55 57.19,-25.31"/>
</a>
</g>
</g>
<!-- Node2&#45;&gt;Node4 -->
<g id="edge3_Node000002_Node000004" class="edge">
<title>Node2&#45;&gt;Node4</title>
<g id="a_edge3_Node000002_Node000004"><a xlink:title=" ">
<path fill="none" stroke="#63b8ff" d="M108.42,-55.59C118.03,-47.85 131.88,-36.69 143.32,-27.47"/>
<polygon fill="#63b8ff" stroke="#63b8ff" points="145.45,-30.25 151.03,-21.25 141.05,-24.8 145.45,-30.25"/>
</a>
</g>
</g>
</g>
</svg>
