<?xml version="1.0" encoding="UTF-8" standalone="no"?>
<!DOCTYPE svg PUBLIC "-//W3C//DTD SVG 1.1//EN"
 "http://www.w3.org/Graphics/SVG/1.1/DTD/svg11.dtd">
<!-- Generated by graphviz version 14.1.4 (20260321.0153)
 -->
<!-- Title: Bouton_Init Pages: 1 -->
<!--zoomable 247 -->

<svg id="main" version="1.1" xmlns="http://www.w3.org/2000/svg" xmlns:xlink="http://www.w3.org/1999/xlink" xml:space="preserve" onload="init(evt)">

<style type="text/css"><![CDATA[
.node, .edge {opacity: 0.7;}
.node.selected, .edge.selected {opacity: 1;}
.edge:hover path { stroke: red; }
.edge:hover polygon { stroke: red; fill: red; }
]]></style>

<defs>
  <circle id="rim" cx="0" cy="0" r="7"/>
  <circle id="rim2" cx="0" cy="0" r="3.5"/>
  <g id="zoomPlus">
    <use xlink:href="#rim" fill="#404040"><set attributeName="fill" to="#808080" begin="zoomplus.mouseover" end="zoomplus.mouseout"/></use>
    <path d="M-4,0h8M0,-4v8" fill="none" stroke="white" stroke-width="1.5" pointer-events="none"/>
  </g>
  <g id="zoomMin">
    <use xlink:href="#rim" fill="#404040"><set attributeName="fill" to="#808080" begin="zoomminus.mouseover" end="zoomminus.mouseout"/></use>
    <path d="M-4,0h8" fill="none" stroke="white" stroke-width="1.5" pointer-events="none"/>
  </g>
  <g id="arrowUp" transform="translate(30 24)">
    <use xlink:href="#rim"/>
    <path pointer-events="none" fill="none" stroke="white" stroke-width="1.5" d="M0,-3.0v7 M-2.5,-0.5L0,-3.0L2.5,-0.5"/>
  </g>
  <g id="arrowRight" transform="rotate(90) translate(36 -43)">
    <use xlink:href="#rim"/>
    <path pointer-events="none" fill="none" stroke="white" stroke-width="1.5" d="M0,-3.0v7 M-2.5,-0.5L0,-3.0L2.5,-0.5"/>
  </g>
  <g id="arrowDown" transform="rotate(180) translate(-30 -48)">
    <use xlink:href="#rim"/>
    <path pointer-events="none" fill="none" stroke="white" stroke-width="1.5" d="M0,-3.0v7 M-2.5,-0.5L0,-3.0L2.5,-0.5"/>
  </g>
  <g id="arrowLeft" transform="rotate(270) translate(-36 17)">
    <use xlink:href="#rim"/>
    <path pointer-events="none" fill="none" stroke="white" stroke-width="1.5" d="M0,-3.0v7 M-2.5,-0.5L0,-3.0L2.5,-0.5"/>
  </g>
  <g id="resetDef">
    <use xlink:href="#rim2" fill="#404040"><set attributeName="fill" to="#808080" begin="reset.mouseover" end="reset.mouseout"/></use>
  </g>
</defs>
<script type="application/ecmascript">
var viewWidth = 526;
var viewHeight = 247;
var sectionId = 'dynsection-6';
</script>
<script type="application/ecmascript" xlink:href="svg.min.js"/>
<svg id="graph" class="graph">
<g id="viewport">
<title>Bouton_Init</title>
<!-- Node1 -->
<g id="Node000001" class="node">
<title>Node1</title>
<g id="a_Node000001"><a xlink:title="Initialise un bouton (zone, texture et etat d&#39;interaction).">
<polygon fill="#999999" stroke="#666666" points="518,-134 452.5,-134 452.5,-114 518,-114 518,-134"/>
<text xml:space="preserve" text-anchor="middle" x="485.25" y="-120.5" font-family="Helvetica,sans-Serif" font-size="10.00">Bouton_Init</text>
</a>
</g>
</g>
<!-- Node2 -->
<g id="Node000002" class="node">
<title>Node2</title>
<g id="a_Node000002"><a xlink:href="map_8c.html#ad462ccdd50801fb085dc8134fc3765d1" target="_top" xlink:title="Affiche la carte et met a jour les elements visuels associes.">
<polygon fill="white" stroke="#666666" points="144.5,-238 73,-238 73,-218 144.5,-218 144.5,-238"/>
<text xml:space="preserve" text-anchor="middle" x="108.75" y="-224.5" font-family="Helvetica,sans-Serif" font-size="10.00">afficher_map</text>
</a>
</g>
</g>
<!-- Node1&#45;&gt;Node2 -->
<g id="edge1_Node000001_Node000002" class="edge">
<title>Node1&#45;&gt;Node2</title>
<g id="a_edge1_Node000001_Node000002"><a xlink:title=" ">
<path fill="none" stroke="#63b8ff" d="M472.99,-144.19C461.44,-162.74 441.63,-189.23 416.5,-202 327.16,-247.39 204.13,-240.24 144.69,-233.16"/>
<polygon fill="#63b8ff" stroke="#63b8ff" points="475.96,-146.04 478.04,-135.66 469.94,-142.48 475.96,-146.04"/>
</a>
</g>
</g>
<!-- Node4 -->
<g id="Node000004" class="node">
<title>Node4</title>
<g id="a_Node000004"><a xlink:href="menu_8c.html#a55097e0b77b0fabc6cae44137b9a839a" target="_top" xlink:title="Affiche menu et met a jour les elements visuels associes.">
<polygon fill="white" stroke="#666666" points="258.38,-191 181.62,-191 181.62,-171 258.38,-171 258.38,-191"/>
<text xml:space="preserve" text-anchor="middle" x="220" y="-177.5" font-family="Helvetica,sans-Serif" font-size="10.00">afficher_menu</text>
</a>
</g>
</g>
<!-- Node1&#45;&gt;Node4 -->
<g id="edge3_Node000001_Node000004" class="edge">
<title>Node1&#45;&gt;Node4</title>
<g id="a_edge3_Node000001_Node000004"><a xlink:title=" ">
<path fill="none" stroke="#63b8ff" d="M468.8,-142.65C456.3,-156.18 437.39,-173.38 416.5,-181 364.37,-200.01 299.08,-194.74 258.71,-188.45"/>
<polygon fill="#63b8ff" stroke="#63b8ff" points="471.4,-145 475.37,-135.18 466.14,-140.37 471.4,-145"/>
</a>
</g>
</g>
<!-- Node5 -->
<g id="Node000005" class="node">
<title>Node5</title>
<g id="a_Node000005"><a xlink:href="option_8c.html#ac77b6b0f042469d82d75b270f5193806" target="_top" xlink:title="Affiche option et met a jour les elements visuels associes.">
<polygon fill="white" stroke="#666666" points="395.5,-134 316.5,-134 316.5,-114 395.5,-114 395.5,-134"/>
<text xml:space="preserve" text-anchor="middle" x="356" y="-120.5" font-family="Helvetica,sans-Serif" font-size="10.00">afficher_option</text>
</a>
</g>
</g>
<!-- Node1&#45;&gt;Node5 -->
<g id="edge5_Node000001_Node000005" class="edge">
<title>Node1&#45;&gt;Node5</title>
<g id="a_edge5_Node000001_Node000005"><a xlink:title=" ">
<path fill="none" stroke="#63b8ff" d="M440.86,-124C426.28,-124 410.12,-124 395.91,-124"/>
<polygon fill="#63b8ff" stroke="#63b8ff" points="440.63,-127.5 450.63,-124 440.63,-120.5 440.63,-127.5"/>
</a>
</g>
</g>
<!-- Node6 -->
<g id="Node000006" class="node">
<title>Node6</title>
<g id="a_Node000006"><a xlink:href="pause_8c.html#abc45a9e3a6a57d6f0f44706bd52e556d" target="_top" xlink:title="Affiche pause et met a jour les elements visuels associes.">
<polygon fill="white" stroke="#666666" points="259.5,-115 180.5,-115 180.5,-95 259.5,-95 259.5,-115"/>
<text xml:space="preserve" text-anchor="middle" x="220" y="-101.5" font-family="Helvetica,sans-Serif" font-size="10.00">afficher_pause</text>
</a>
</g>
</g>
<!-- Node1&#45;&gt;Node6 -->
<g id="edge10_Node000001_Node000006" class="edge">
<title>Node1&#45;&gt;Node6</title>
<g id="a_edge10_Node000001_Node000006"><a xlink:title=" ">
<path fill="none" stroke="#63b8ff" d="M442.93,-110.48C434.29,-108.2 425.17,-106.19 416.5,-105 362.53,-97.58 299.39,-99.46 259.79,-101.9"/>
<polygon fill="#63b8ff" stroke="#63b8ff" points="441.9,-113.83 452.48,-113.18 443.8,-107.09 441.9,-113.83"/>
</a>
</g>
</g>
<!-- Node8 -->
<g id="Node000008" class="node">
<title>Node8</title>
<g id="a_Node000008"><a xlink:href="shop_8c.html#ad1ea096e4fe280946f862273fc94eb30" target="_top" xlink:title="Affiche shop et met a jour les elements visuels associes.">
<polygon fill="white" stroke="#666666" points="392.88,-20 319.12,-20 319.12,0 392.88,0 392.88,-20"/>
<text xml:space="preserve" text-anchor="middle" x="356" y="-6.5" font-family="Helvetica,sans-Serif" font-size="10.00">afficher_shop</text>
</a>
</g>
</g>
<!-- Node1&#45;&gt;Node8 -->
<g id="edge11_Node000001_Node000008" class="edge">
<title>Node1&#45;&gt;Node8</title>
<g id="a_edge11_Node000001_Node000008"><a xlink:title=" ">
<path fill="none" stroke="#63b8ff" d="M473.36,-103.68C461.66,-83.56 441.37,-53.09 416.5,-34 409.25,-28.44 400.54,-23.98 392.05,-20.48"/>
<polygon fill="#63b8ff" stroke="#63b8ff" points="470.26,-105.31 478.2,-112.33 476.37,-101.89 470.26,-105.31"/>
</a>
</g>
</g>
<!-- Node9 -->
<g id="Node000009" class="node">
<title>Node9</title>
<g id="a_Node000009"><a xlink:href="game__over_8c.html#a37d3fac8300008a434af7c66a4e695d0" target="_top" xlink:title="Affiche l&#39;ecran de game over et traite le choix du joueur.">
<polygon fill="white" stroke="#666666" points="252,-68 188,-68 188,-48 252,-48 252,-68"/>
<text xml:space="preserve" text-anchor="middle" x="220" y="-54.5" font-family="Helvetica,sans-Serif" font-size="10.00">game_over</text>
</a>
</g>
</g>
<!-- Node1&#45;&gt;Node9 -->
<g id="edge12_Node000001_Node000009" class="edge">
<title>Node1&#45;&gt;Node9</title>
<g id="a_edge12_Node000001_Node000009"><a xlink:title=" ">
<path fill="none" stroke="#63b8ff" d="M451.65,-108.98C440.65,-104.33 428.2,-99.52 416.5,-96 359.71,-78.93 291.27,-67.68 252.28,-62.11"/>
<polygon fill="#63b8ff" stroke="#63b8ff" points="450.12,-112.13 460.69,-112.91 452.91,-105.71 450.12,-112.13"/>
</a>
</g>
</g>
<!-- Node10 -->
<g id="Node000010" class="node">
<title>Node10</title>
<g id="a_Node000010"><a xlink:href="sauvegarde_8c.html#ae251037c85a5a7d8172c206539398f49" target="_top" xlink:title="Affiche l&#39;interface de selection de slot (chargement ou sauvegarde).">
<polygon fill="white" stroke="#666666" points="416.5,-172 295.5,-172 295.5,-152 416.5,-152 416.5,-172"/>
<text xml:space="preserve" text-anchor="middle" x="356" y="-158.5" font-family="Helvetica,sans-Serif" font-size="10.00">sauvegarde_choisir_slot</text>
</a>
</g>
</g>
<!-- Node1&#45;&gt;Node10 -->
<g id="edge14_Node000001_Node000010" class="edge">
<title>Node1&#45;&gt;Node10</title>
<g id="a_edge14_Node000001_Node000010"><a xlink:title=" ">
<path fill="none" stroke="#63b8ff" d="M441.35,-136.81C425.22,-141.63 407.09,-147.04 391.78,-151.61"/>
<polygon fill="#63b8ff" stroke="#63b8ff" points="442.11,-140.24 450.69,-134.02 440.11,-133.53 442.11,-140.24"/>
</a>
</g>
</g>
<!-- Node3 -->
<g id="Node000003" class="node">
<title>Node3</title>
<g id="a_Node000003"><a xlink:href="main_8c.html#a0ddf1224851353fc92bfbff6f499fa97" target="_top" xlink:title=" ">
<polygon fill="white" stroke="#666666" points="37,-172 0,-172 0,-152 37,-152 37,-172"/>
<text xml:space="preserve" text-anchor="middle" x="18.5" y="-158.5" font-family="Helvetica,sans-Serif" font-size="10.00">main</text>
</a>
</g>
</g>
<!-- Node2&#45;&gt;Node3 -->
<g id="edge2_Node000002_Node000003" class="edge">
<title>Node2&#45;&gt;Node3</title>
<g id="a_edge2_Node000002_Node000003"><a xlink:title=" ">
<path fill="none" stroke="#63b8ff" d="M85.06,-211.03C68.77,-198.85 47.33,-182.82 33.48,-172.46"/>
<polygon fill="#63b8ff" stroke="#63b8ff" points="82.64,-213.59 92.75,-216.78 86.84,-207.99 82.64,-213.59"/>
</a>
</g>
</g>
<!-- Node4&#45;&gt;Node3 -->
<g id="edge4_Node000004_Node000003" class="edge">
<title>Node4&#45;&gt;Node3</title>
<g id="a_edge4_Node000004_Node000003"><a xlink:title=" ">
<path fill="none" stroke="#63b8ff" d="M170.13,-176.35C127.19,-172.26 67.06,-166.53 37.44,-163.71"/>
<polygon fill="#63b8ff" stroke="#63b8ff" points="169.68,-179.82 179.97,-177.28 170.35,-172.85 169.68,-179.82"/>
</a>
</g>
</g>
<!-- Node5&#45;&gt;Node3 -->
<g id="edge9_Node000005_Node000003" class="edge">
<title>Node5&#45;&gt;Node3</title>
<g id="a_edge9_Node000005_Node000003"><a xlink:title=" ">
<path fill="none" stroke="#63b8ff" d="M304.99,-129.66C228.79,-138.29 87.22,-154.33 37.4,-159.97"/>
<polygon fill="#63b8ff" stroke="#63b8ff" points="305.14,-133.17 314.68,-128.57 304.35,-126.21 305.14,-133.17"/>
</a>
</g>
</g>
<!-- Node5&#45;&gt;Node6 -->
<g id="edge6_Node000005_Node000006" class="edge">
<title>Node5&#45;&gt;Node6</title>
<g id="a_edge6_Node000005_Node000006"><a xlink:title=" ">
<path fill="none" stroke="#63b8ff" d="M305.06,-116.92C290.06,-114.79 273.83,-112.49 259.67,-110.48"/>
<polygon fill="#63b8ff" stroke="#63b8ff" points="304.35,-120.35 314.74,-118.29 305.33,-113.42 304.35,-120.35"/>
</a>
</g>
</g>
<!-- Node7 -->
<g id="Node000007" class="node">
<title>Node7</title>
<g id="a_Node000007"><a xlink:href="jeux_8c.html#a2d7491d04e8c2bdb52bb6ed7d75e4d78" target="_top" xlink:title="Execute la boucle principale de gameplay pour la planete courante.">
<polygon fill="white" stroke="#666666" points="143.75,-115 73.75,-115 73.75,-95 143.75,-95 143.75,-115"/>
<text xml:space="preserve" text-anchor="middle" x="108.75" y="-101.5" font-family="Helvetica,sans-Serif" font-size="10.00">jeu_principal</text>
</a>
</g>
</g>
<!-- Node6&#45;&gt;Node7 -->
<g id="edge7_Node000006_Node000007" class="edge">
<title>Node6&#45;&gt;Node7</title>
<g id="a_edge7_Node000006_Node000007"><a xlink:title=" ">
<path fill="none" stroke="#63b8ff" d="M168.9,-105C160.51,-105 151.97,-105 144.09,-105"/>
<polygon fill="#63b8ff" stroke="#63b8ff" points="168.66,-108.5 178.66,-105 168.66,-101.5 168.66,-108.5"/>
</a>
</g>
</g>
<!-- Node7&#45;&gt;Node3 -->
<g id="edge8_Node000007_Node000003" class="edge">
<title>Node7&#45;&gt;Node3</title>
<g id="a_edge8_Node000007_Node000003"><a xlink:title=" ">
<path fill="none" stroke="#63b8ff" d="M82.28,-121.45C67.22,-131.18 48.62,-143.19 35.58,-151.61"/>
<polygon fill="#63b8ff" stroke="#63b8ff" points="83.79,-124.64 90.29,-116.28 79.99,-118.76 83.79,-124.64"/>
</a>
</g>
</g>
<!-- Node9&#45;&gt;Node7 -->
<g id="edge13_Node000009_Node000007" class="edge">
<title>Node9&#45;&gt;Node7</title>
<g id="a_edge13_Node000009_Node000007"><a xlink:title=" ">
<path fill="none" stroke="#63b8ff" d="M184.44,-72.87C168.01,-79.94 148.77,-88.21 133.93,-94.6"/>
<polygon fill="#63b8ff" stroke="#63b8ff" points="185.56,-76.2 193.36,-69.03 182.79,-69.77 185.56,-76.2"/>
</a>
</g>
</g>
<!-- Node10&#45;&gt;Node4 -->
<g id="edge15_Node000010_Node000004" class="edge">
<title>Node10&#45;&gt;Node4</title>
<g id="a_edge15_Node000010_Node000004"><a xlink:title=" ">
<path fill="none" stroke="#63b8ff" d="M283.67,-172.11C275.02,-173.34 266.47,-174.55 258.59,-175.67"/>
<polygon fill="#63b8ff" stroke="#63b8ff" points="284.15,-175.58 293.56,-170.71 283.16,-168.65 284.15,-175.58"/>
</a>
</g>
</g>
<!-- Node10&#45;&gt;Node6 -->
<g id="edge16_Node000010_Node000006" class="edge">
<title>Node10&#45;&gt;Node6</title>
<g id="a_edge16_Node000010_Node000006"><a xlink:title=" ">
<path fill="none" stroke="#63b8ff" d="M308.29,-147.89C303.94,-146.33 299.61,-144.69 295.5,-143 275.76,-134.88 254.13,-123.55 239.28,-115.38"/>
<polygon fill="#63b8ff" stroke="#63b8ff" points="307.08,-151.17 317.68,-151.09 309.34,-144.55 307.08,-151.17"/>
</a>
</g>
</g>
</g>
</svg>

<g id="navigator" transform="translate(0 0)" fill="#404254">
  <rect fill="#f2f5e9" fill-opacity="0.5" stroke="#606060" stroke-width=".5" x="0" y="0" width="60" height="60"/>
  <use id="zoomplus" xlink:href="#zoomPlus" x="17" y="9" onmousedown="handleZoom(evt,'in')"/>
  <use id="zoomminus" xlink:href="#zoomMin" x="42" y="9" onmousedown="handleZoom(evt,'out')"/>
  <use id="reset" xlink:href="#resetDef" x="30" y="36" onmousedown="handleReset()"/>
   <use id="arrowup" xlink:href="#arrowUp" x="0" y="0" onmousedown="handlePan(0,-1)"/>
  <use id="arrowright" xlink:href="#arrowRight" x="0" y="0" onmousedown="handlePan(1,0)"/>
  <use id="arrowdown" xlink:href="#arrowDown" x="0" y="0" onmousedown="handlePan(0,1)"/>
  <use id="arrowleft" xlink:href="#arrowLeft" x="0" y="0" onmousedown="handlePan(-1,0)"/>
</g>
<svg viewBox="0 0 15 15" width="100%" height="30px" preserveAspectRatio="xMaxYMin meet">
 <g id="arrow_out" transform="scale(0.3 0.3)">
  <a xlink:href="bouton_8h_a482b1feb9004901d0544e64b1c44051c_icgraph_org.svg" target="_base">
   <rect id="button" ry="5" rx="5" y="6" x="6" height="38" width="38"
        fill="#f2f5e9" fill-opacity="0.5" stroke="#606060" stroke-width="1.0"/>
   <path id="arrow"
     d="M 11.500037,31.436501 C 11.940474,20.09759 22.043105,11.32322 32.158766,21.979434 L 37.068811,17.246167 C 37.068811,17.246167 37.088388,32 37.088388,32 L 22.160133,31.978069 C 22.160133,31.978069 26.997745,27.140456 26.997745,27.140456 C 18.528582,18.264221 13.291696,25.230495 11.500037,31.436501 z"
     style="fill:#404040;"/>
  </a>
 </g>
</svg>

<style type='text/css'>
<![CDATA[
[data-mouse-over-selected='false'] { opacity: 0.7; }
[data-mouse-over-selected='true']  { opacity: 1.0; }
]]>
</style>
<script type="application/ecmascript"><![CDATA[
document.addEventListener('DOMContentLoaded', (event) => {
  highlightEdges();
  highlightAdjacentNodes();
});
]]></script>
</svg>
