<?xml version="1.0" encoding="UTF-8" standalone="no"?>
<!DOCTYPE svg PUBLIC "-//W3C//DTD SVG 1.1//EN"
 "http://www.w3.org/Graphics/SVG/1.1/DTD/svg11.dtd">
<!-- Generated by graphviz version 14.1.4 (20260321.0153)
 -->
<!-- Title: Bouton_Init Pages: 1 -->
<!--zoomable 281 -->

<svg id="main" version="1.1" xmlns="http://www.w3.org/2000/svg" xmlns:xlink="http://www.w3.org/1999/xlink" xml:space="preserve" onload="init(evt)">

<style type="text/css"><![CDATA[
.node, .edge {opacity: 0.7;}
.node.selected, .edge.selected {opacity: 1;}
.edge:hover path { stroke: red; }
.edge:hover polygon { stroke: red; fill: red; }
]]></style>

<defs>
  <circle id="rim" cx="0" cy="0" r="7"/>
  <circle id="rim2" cx="0" cy="0" r="3.5"/>
  <g id="zoomPlus">
    <use xlink:href="#rim" fill="#404040"><set attributeName="fill" to="#808080" begin="zoomplus.mouseover" end="zoomplus.mouseout"/></use>
    <path d="M-4,0h8M0,-4v8" fill="none" stroke="white" stroke-width="1.5" pointer-events="none"/>
  </g>
  <g id="zoomMin">
    <use xlink:href="#rim" fill="#404040"><set attributeName="fill" to="#808080" begin="zoomminus.mouseover" end="zoomminus.mouseout"/></use>
    <path d="M-4,0h8" fill="none" stroke="white" stroke-width="1.5" pointer-events="none"/>
  </g>
  <g id="arrowUp" transform="translate(30 24)">
    <use xlink:href="#rim"/>
    <path pointer-events="none" fill="none" stroke="white" stroke-width="1.5" d="M0,-3.0v7 M-2.5,-0.5L0,-3.0L2.5,-0.5"/>
  </g>
  <g id="arrowRight" transform="rotate(90) translate(36 -43)">
    <use xlink:href="#rim"/>
    <path pointer-events="none" fill="none" stroke="white" stroke-width="1.5" d="M0,-3.0v7 M-2.5,-0.5L0,-3.0L2.5,-0.5"/>
  </g>
  <g id="arrowDown" transform="rotate(180) translate(-30 -48)">
    <use xlink:href="#rim"/>
    <path pointer-events="none" fill="none" stroke="white" stroke-width="1.5" d="M0,-3.0v7 M-2.5,-0.5L0,-3.0L2.5,-0.5"/>
  </g>
  <g id="arrowLeft" transform="rotate(270) translate(-36 17)">
    <use xlink:href="#rim"/>
    <path pointer-events="none" fill="none" stroke="white" stroke-width="1.5" d="M0,-3.0v7 M-2.5,-0.5L0,-3.0L2.5,-0.5"/>
  </g>
  <g id="resetDef">
    <use xlink:href="#rim2" fill="#404040"><set attributeName="fill" to="#808080" begin="reset.mouseover" end="reset.mouseout"/></use>
  </g>
</defs>
<script type="application/ecmascript">
var viewWidth = 633;
var viewHeight = 281;
var sectionId = 'dynsection-5';
</script>
<script type="application/ecmascript" xlink:href="svg.min.js"/>
<svg id="graph" class="graph">
<g id="viewport">
<title>Bouton_Init</title>
<!-- Node1 -->
<g id="Node000001" class="node">
<title>Node1</title>
<g id="a_Node000001"><a xlink:title="Initialise un bouton (zone, texture et etat d&#39;interaction).">
<polygon fill="#999999" stroke="#666666" points="625.25,-120.54 559.75,-120.54 559.75,-100.54 625.25,-100.54 625.25,-120.54"/>
<text xml:space="preserve" text-anchor="middle" x="592.5" y="-107.04" font-family="Helvetica,sans-Serif" font-size="10.00">Bouton_Init</text>
</a>
</g>
</g>
<!-- Node2 -->
<g id="Node000002" class="node">
<title>Node2</title>
<g id="a_Node000002"><a xlink:href="map_8c.html#ad462ccdd50801fb085dc8134fc3765d1" target="_top" xlink:title="Affiche la carte et met a jour les elements visuels associes.">
<polygon fill="white" stroke="#666666" points="499,-215.54 427.5,-215.54 427.5,-195.54 499,-195.54 499,-215.54"/>
<text xml:space="preserve" text-anchor="middle" x="463.25" y="-202.04" font-family="Helvetica,sans-Serif" font-size="10.00">afficher_map</text>
</a>
</g>
</g>
<!-- Node1&#45;&gt;Node2 -->
<g id="edge1_Node000001_Node000002" class="edge">
<title>Node1&#45;&gt;Node2</title>
<g id="a_edge1_Node000001_Node000002"><a xlink:title=" ">
<path fill="none" stroke="#63b8ff" d="M572.05,-128.08C558.79,-139.73 540.66,-155.11 523.75,-167.54 510.12,-177.56 493.9,-187.82 481.83,-195.15"/>
<polygon fill="#63b8ff" stroke="#63b8ff" points="574.08,-130.96 579.23,-121.7 569.43,-125.72 574.08,-130.96"/>
</a>
</g>
</g>
<!-- Node7 -->
<g id="Node000007" class="node">
<title>Node7</title>
<g id="a_Node000007"><a xlink:href="menu_8c.html#a55097e0b77b0fabc6cae44137b9a839a" target="_top" xlink:title="Affiche menu et met a jour les elements visuels associes.">
<polygon fill="white" stroke="#666666" points="348,-44.54 271.25,-44.54 271.25,-24.54 348,-24.54 348,-44.54"/>
<text xml:space="preserve" text-anchor="middle" x="309.62" y="-31.04" font-family="Helvetica,sans-Serif" font-size="10.00">afficher_menu</text>
</a>
</g>
</g>
<!-- Node1&#45;&gt;Node7 -->
<g id="edge8_Node000001_Node000007" class="edge">
<title>Node1&#45;&gt;Node7</title>
<g id="a_edge8_Node000001_Node000007"><a xlink:title=" ">
<path fill="none" stroke="#63b8ff" d="M583.65,-89.97C573.65,-67.03 553.95,-31.09 523.75,-15.54 462.16,16.18 377.2,-8.4 335.6,-24.09"/>
<polygon fill="#63b8ff" stroke="#63b8ff" points="580.29,-91 587.32,-98.93 586.77,-88.35 580.29,-91"/>
</a>
</g>
</g>
<!-- Node8 -->
<g id="Node000008" class="node">
<title>Node8</title>
<g id="a_Node000008"><a xlink:href="option_8c.html#ac77b6b0f042469d82d75b270f5193806" target="_top" xlink:title="Affiche option et met a jour les elements visuels associes.">
<polygon fill="white" stroke="#666666" points="502.75,-158.54 423.75,-158.54 423.75,-138.54 502.75,-138.54 502.75,-158.54"/>
<text xml:space="preserve" text-anchor="middle" x="463.25" y="-145.04" font-family="Helvetica,sans-Serif" font-size="10.00">afficher_option</text>
</a>
</g>
</g>
<!-- Node1&#45;&gt;Node8 -->
<g id="edge10_Node000001_Node000008" class="edge">
<title>Node1&#45;&gt;Node8</title>
<g id="a_edge10_Node000001_Node000008"><a xlink:title=" ">
<path fill="none" stroke="#63b8ff" d="M548.6,-123.35C532.47,-128.17 514.34,-133.58 499.03,-138.15"/>
<polygon fill="#63b8ff" stroke="#63b8ff" points="549.36,-126.78 557.94,-120.56 547.36,-120.07 549.36,-126.78"/>
</a>
</g>
</g>
<!-- Node9 -->
<g id="Node000009" class="node">
<title>Node9</title>
<g id="a_Node000009"><a xlink:href="pause_8c.html#abc45a9e3a6a57d6f0f44706bd52e556d" target="_top" xlink:title="Affiche pause et met a jour les elements visuels associes.">
<polygon fill="white" stroke="#666666" points="349.12,-120.54 270.12,-120.54 270.12,-100.54 349.12,-100.54 349.12,-120.54"/>
<text xml:space="preserve" text-anchor="middle" x="309.62" y="-107.04" font-family="Helvetica,sans-Serif" font-size="10.00">afficher_pause</text>
</a>
</g>
</g>
<!-- Node1&#45;&gt;Node9 -->
<g id="edge15_Node000001_Node000009" class="edge">
<title>Node1&#45;&gt;Node9</title>
<g id="a_edge15_Node000001_Node000009"><a xlink:title=" ">
<path fill="none" stroke="#63b8ff" d="M547.94,-110.54C493.5,-110.54 401.17,-110.54 349.18,-110.54"/>
<polygon fill="#63b8ff" stroke="#63b8ff" points="547.77,-114.04 557.77,-110.54 547.77,-107.04 547.77,-114.04"/>
</a>
</g>
</g>
<!-- Node11 -->
<g id="Node000011" class="node">
<title>Node11</title>
<g id="a_Node000011"><a xlink:href="shop_8c.html#ad1ea096e4fe280946f862273fc94eb30" target="_top" xlink:title="Affiche shop et met a jour les elements visuels associes.">
<polygon fill="white" stroke="#666666" points="500.12,-253.54 426.38,-253.54 426.38,-233.54 500.12,-233.54 500.12,-253.54"/>
<text xml:space="preserve" text-anchor="middle" x="463.25" y="-240.04" font-family="Helvetica,sans-Serif" font-size="10.00">afficher_shop</text>
</a>
</g>
</g>
<!-- Node1&#45;&gt;Node11 -->
<g id="edge16_Node000001_Node000011" class="edge">
<title>Node1&#45;&gt;Node11</title>
<g id="a_edge16_Node000001_Node000011"><a xlink:title=" ">
<path fill="none" stroke="#63b8ff" d="M584.38,-131.44C574.63,-157.01 554.71,-199.92 523.75,-224.54 516.96,-229.94 508.6,-233.82 500.32,-236.6"/>
<polygon fill="#63b8ff" stroke="#63b8ff" points="587.63,-132.76 587.74,-122.16 581.04,-130.37 587.63,-132.76"/>
</a>
</g>
</g>
<!-- Node12 -->
<g id="Node000012" class="node">
<title>Node12</title>
<g id="a_Node000012"><a xlink:href="game__over_8c.html#a37d3fac8300008a434af7c66a4e695d0" target="_top" xlink:title="Affiche l&#39;ecran de game over et traite le choix du joueur.">
<polygon fill="white" stroke="#666666" points="341.62,-82.54 277.62,-82.54 277.62,-62.54 341.62,-62.54 341.62,-82.54"/>
<text xml:space="preserve" text-anchor="middle" x="309.62" y="-69.04" font-family="Helvetica,sans-Serif" font-size="10.00">game_over</text>
</a>
</g>
</g>
<!-- Node1&#45;&gt;Node12 -->
<g id="edge18_Node000001_Node000012" class="edge">
<title>Node1&#45;&gt;Node12</title>
<g id="a_edge18_Node000001_Node000012"><a xlink:title=" ">
<path fill="none" stroke="#63b8ff" d="M548.12,-104.67C491.12,-96.96 392.35,-83.6 342.04,-76.79"/>
<polygon fill="#63b8ff" stroke="#63b8ff" points="547.4,-108.11 557.78,-105.98 548.34,-101.17 547.4,-108.11"/>
</a>
</g>
</g>
<!-- Node13 -->
<g id="Node000013" class="node">
<title>Node13</title>
<g id="a_Node000013"><a xlink:href="sauvegarde_8c.html#ae251037c85a5a7d8172c206539398f49" target="_top" xlink:title="Affiche l&#39;interface de selection de slot (chargement ou sauvegarde).">
<polygon fill="white" stroke="#666666" points="523.75,-44.54 402.75,-44.54 402.75,-24.54 523.75,-24.54 523.75,-44.54"/>
<text xml:space="preserve" text-anchor="middle" x="463.25" y="-31.04" font-family="Helvetica,sans-Serif" font-size="10.00">sauvegarde_choisir_slot</text>
</a>
</g>
</g>
<!-- Node1&#45;&gt;Node13 -->
<g id="edge20_Node000001_Node000013" class="edge">
<title>Node1&#45;&gt;Node13</title>
<g id="a_edge20_Node000001_Node000013"><a xlink:title=" ">
<path fill="none" stroke="#63b8ff" d="M571.64,-92.98C558.64,-82.09 540.95,-68.37 523.75,-58.54 514.66,-53.35 504.22,-48.73 494.65,-44.97"/>
<polygon fill="#63b8ff" stroke="#63b8ff" points="569.17,-95.47 579.04,-99.32 573.72,-90.16 569.17,-95.47"/>
</a>
</g>
</g>
<!-- Node3 -->
<g id="Node000003" class="node">
<title>Node3</title>
<g id="a_Node000003"><a xlink:href="vaisseau_8c.html#ace614afc8df3a40bd5ea0771044ff217" target="_top" xlink:title=" ">
<polygon fill="white" stroke="#666666" points="366.75,-272.54 252.5,-272.54 252.5,-252.54 366.75,-252.54 366.75,-272.54"/>
<text xml:space="preserve" text-anchor="middle" x="309.62" y="-259.04" font-family="Helvetica,sans-Serif" font-size="10.00">gerer_interaction_objet</text>
</a>
</g>
</g>
<!-- Node2&#45;&gt;Node3 -->
<g id="edge2_Node000002_Node000003" class="edge">
<title>Node2&#45;&gt;Node3</title>
<g id="a_edge2_Node000002_Node000003"><a xlink:title=" ">
<path fill="none" stroke="#63b8ff" d="M417.18,-219.5C412.29,-221.14 407.4,-222.84 402.75,-224.54 379.19,-233.15 352.76,-244.19 334.27,-252.16"/>
<polygon fill="#63b8ff" stroke="#63b8ff" points="417.95,-222.93 426.35,-216.49 415.76,-216.28 417.95,-222.93"/>
</a>
</g>
</g>
<!-- Node6 -->
<g id="Node000006" class="node">
<title>Node6</title>
<g id="a_Node000006"><a xlink:href="main_8c.html#a0ddf1224851353fc92bfbff6f499fa97" target="_top" xlink:title=" ">
<polygon fill="white" stroke="#666666" points="73.75,-158.54 36.75,-158.54 36.75,-138.54 73.75,-138.54 73.75,-158.54"/>
<text xml:space="preserve" text-anchor="middle" x="55.25" y="-145.04" font-family="Helvetica,sans-Serif" font-size="10.00">main</text>
</a>
</g>
</g>
<!-- Node2&#45;&gt;Node6 -->
<g id="edge7_Node000002_Node000006" class="edge">
<title>Node2&#45;&gt;Node6</title>
<g id="a_edge7_Node000002_Node000006"><a xlink:title=" ">
<path fill="none" stroke="#63b8ff" d="M415.92,-199.5C354.34,-191.42 242.16,-176.47 146.5,-162.54 121.4,-158.88 92.42,-154.33 74.21,-151.43"/>
<polygon fill="#63b8ff" stroke="#63b8ff" points="415.31,-202.95 425.68,-200.78 416.22,-196.01 415.31,-202.95"/>
</a>
</g>
</g>
<!-- Node4 -->
<g id="Node000004" class="node">
<title>Node4</title>
<g id="a_Node000004"><a xlink:href="vaisseau_8c.html#a8ea9afc9440149ddd36e96b97d8ed6c5" target="_top" xlink:title="Lance la scene interieure du vaisseau (deplacement, interactions, mini&#45;jeux, sortie).">
<polygon fill="white" stroke="#666666" points="209,-272.54 154,-272.54 154,-252.54 209,-252.54 209,-272.54"/>
<text xml:space="preserve" text-anchor="middle" x="181.5" y="-259.04" font-family="Helvetica,sans-Serif" font-size="10.00">vaisseau</text>
</a>
</g>
</g>
<!-- Node3&#45;&gt;Node4 -->
<g id="edge3_Node000003_Node000004" class="edge">
<title>Node3&#45;&gt;Node4</title>
<g id="a_edge3_Node000003_Node000004"><a xlink:title=" ">
<path fill="none" stroke="#63b8ff" d="M240.95,-262.54C229.7,-262.54 218.65,-262.54 209.24,-262.54"/>
<polygon fill="#63b8ff" stroke="#63b8ff" points="240.69,-266.04 250.69,-262.54 240.69,-259.04 240.69,-266.04"/>
</a>
</g>
</g>
<!-- Node5 -->
<g id="Node000005" class="node">
<title>Node5</title>
<g id="a_Node000005"><a xlink:href="cinematique_8c.html#a418cc3e727578f4cd509ad27cd6a2a31" target="_top" xlink:title="Lance cinematique fin et gere son deroulement complet.">
<polygon fill="white" stroke="#666666" points="110.5,-253.54 0,-253.54 0,-233.54 110.5,-233.54 110.5,-253.54"/>
<text xml:space="preserve" text-anchor="middle" x="55.25" y="-240.04" font-family="Helvetica,sans-Serif" font-size="10.00">jouer_cinematique_fin</text>
</a>
</g>
</g>
<!-- Node4&#45;&gt;Node5 -->
<g id="edge4_Node000004_Node000005" class="edge">
<title>Node4&#45;&gt;Node5</title>
<g id="a_edge4_Node000004_Node000005"><a xlink:title=" ">
<path fill="none" stroke="#63b8ff" d="M142.41,-256.72C132.48,-255.2 121.58,-253.53 110.98,-251.91"/>
<polygon fill="#63b8ff" stroke="#63b8ff" points="141.63,-260.14 152.04,-258.19 142.69,-253.22 141.63,-260.14"/>
</a>
</g>
</g>
<!-- Node4&#45;&gt;Node6 -->
<g id="edge6_Node000004_Node000006" class="edge">
<title>Node4&#45;&gt;Node6</title>
<g id="a_edge6_Node000004_Node000006"><a xlink:title=" ">
<path fill="none" stroke="#63b8ff" d="M161.06,-244.7C134.73,-220.54 88.59,-178.21 67.43,-158.8"/>
<polygon fill="#63b8ff" stroke="#63b8ff" points="158.62,-247.22 168.36,-251.4 163.36,-242.06 158.62,-247.22"/>
</a>
</g>
</g>
<!-- Node5&#45;&gt;Node2 -->
<g id="edge5_Node000005_Node000002" class="edge">
<title>Node5&#45;&gt;Node2</title>
<g id="a_edge5_Node000005_Node000002"><a xlink:title=" ">
<path fill="none" stroke="#63b8ff" d="M122.33,-237.36C209.44,-229.2 359.54,-215.15 427.28,-208.81"/>
<polygon fill="#63b8ff" stroke="#63b8ff" points="122.13,-233.86 112.5,-238.28 122.78,-240.83 122.13,-233.86"/>
</a>
</g>
</g>
<!-- Node7&#45;&gt;Node6 -->
<g id="edge9_Node000007_Node000006" class="edge">
<title>Node7&#45;&gt;Node6</title>
<g id="a_edge9_Node000007_Node000006"><a xlink:title=" ">
<path fill="none" stroke="#63b8ff" d="M266.91,-48.57C262.05,-50.23 257.16,-51.92 252.5,-53.54 205.24,-70.01 191.48,-69.6 146.5,-91.54 118.18,-105.35 87.68,-125.96 70.38,-138.24"/>
<polygon fill="#63b8ff" stroke="#63b8ff" points="267.65,-52.02 275.99,-45.48 265.39,-45.39 267.65,-52.02"/>
</a>
</g>
</g>
<!-- Node8&#45;&gt;Node6 -->
<g id="edge14_Node000008_Node000006" class="edge">
<title>Node8&#45;&gt;Node6</title>
<g id="a_edge14_Node000008_Node000006"><a xlink:title=" ">
<path fill="none" stroke="#63b8ff" d="M411.92,-148.54C320.83,-148.54 132.64,-148.54 74.05,-148.54"/>
<polygon fill="#63b8ff" stroke="#63b8ff" points="411.81,-152.04 421.81,-148.54 411.81,-145.04 411.81,-152.04"/>
</a>
</g>
</g>
<!-- Node8&#45;&gt;Node9 -->
<g id="edge11_Node000008_Node000009" class="edge">
<title>Node8&#45;&gt;Node9</title>
<g id="a_edge11_Node000008_Node000009"><a xlink:title=" ">
<path fill="none" stroke="#63b8ff" d="M412.56,-136.09C392.06,-130.95 368.67,-125.09 349.47,-120.28"/>
<polygon fill="#63b8ff" stroke="#63b8ff" points="411.58,-139.45 422.13,-138.49 413.28,-132.66 411.58,-139.45"/>
</a>
</g>
</g>
<!-- Node10 -->
<g id="Node000010" class="node">
<title>Node10</title>
<g id="a_Node000010"><a xlink:href="jeux_8c.html#a2d7491d04e8c2bdb52bb6ed7d75e4d78" target="_top" xlink:title="Execute la boucle principale de gameplay pour la planete courante.">
<polygon fill="white" stroke="#666666" points="216.5,-120.54 146.5,-120.54 146.5,-100.54 216.5,-100.54 216.5,-120.54"/>
<text xml:space="preserve" text-anchor="middle" x="181.5" y="-107.04" font-family="Helvetica,sans-Serif" font-size="10.00">jeu_principal</text>
</a>
</g>
</g>
<!-- Node9&#45;&gt;Node10 -->
<g id="edge12_Node000009_Node000010" class="edge">
<title>Node9&#45;&gt;Node10</title>
<g id="a_edge12_Node000009_Node000010"><a xlink:title=" ">
<path fill="none" stroke="#63b8ff" d="M258.31,-110.54C244.36,-110.54 229.55,-110.54 216.76,-110.54"/>
<polygon fill="#63b8ff" stroke="#63b8ff" points="258.24,-114.04 268.24,-110.54 258.24,-107.04 258.24,-114.04"/>
</a>
</g>
</g>
<!-- Node10&#45;&gt;Node6 -->
<g id="edge13_Node000010_Node000006" class="edge">
<title>Node10&#45;&gt;Node6</title>
<g id="a_edge13_Node000010_Node000006"><a xlink:title=" ">
<path fill="none" stroke="#63b8ff" d="M135.41,-124.33C114.12,-130.84 89.95,-138.24 73.97,-143.12"/>
<polygon fill="#63b8ff" stroke="#63b8ff" points="136.23,-127.74 144.77,-121.47 134.19,-121.05 136.23,-127.74"/>
</a>
</g>
</g>
<!-- Node11&#45;&gt;Node3 -->
<g id="edge17_Node000011_Node000003" class="edge">
<title>Node11&#45;&gt;Node3</title>
<g id="a_edge17_Node000011_Node000003"><a xlink:title=" ">
<path fill="none" stroke="#63b8ff" d="M414.76,-249.49C399.64,-251.39 382.77,-253.5 367.08,-255.47"/>
<polygon fill="#63b8ff" stroke="#63b8ff" points="414.94,-253 424.43,-248.28 414.07,-246.05 414.94,-253"/>
</a>
</g>
</g>
<!-- Node12&#45;&gt;Node10 -->
<g id="edge19_Node000012_Node000010" class="edge">
<title>Node12&#45;&gt;Node10</title>
<g id="a_edge19_Node000012_Node000010"><a xlink:title=" ">
<path fill="none" stroke="#63b8ff" d="M266.65,-85.19C250.49,-90.06 232.23,-95.56 216.87,-100.19"/>
<polygon fill="#63b8ff" stroke="#63b8ff" points="267.43,-88.61 276,-82.37 265.41,-81.9 267.43,-88.61"/>
</a>
</g>
</g>
<!-- Node13&#45;&gt;Node7 -->
<g id="edge21_Node000013_Node000007" class="edge">
<title>Node13&#45;&gt;Node7</title>
<g id="a_edge21_Node000013_Node000007"><a xlink:title=" ">
<path fill="none" stroke="#63b8ff" d="M391.11,-34.54C376.33,-34.54 361.31,-34.54 348.31,-34.54"/>
<polygon fill="#63b8ff" stroke="#63b8ff" points="390.81,-38.04 400.81,-34.54 390.81,-31.04 390.81,-38.04"/>
</a>
</g>
</g>
<!-- Node13&#45;&gt;Node9 -->
<g id="edge22_Node000013_Node000009" class="edge">
<title>Node13&#45;&gt;Node9</title>
<g id="a_edge22_Node000013_Node000009"><a xlink:title=" ">
<path fill="none" stroke="#63b8ff" d="M437.68,-51.18C418.85,-63.44 391.9,-79.94 366.75,-91.54 359.93,-94.69 352.44,-97.58 345.21,-100.12"/>
<polygon fill="#63b8ff" stroke="#63b8ff" points="439.57,-54.13 445.99,-45.7 435.71,-48.29 439.57,-54.13"/>
</a>
</g>
</g>
</g>
</svg>

<g id="navigator" transform="translate(0 0)" fill="#404254">
  <rect fill="#f2f5e9" fill-opacity="0.5" stroke="#606060" stroke-width=".5" x="0" y="0" width="60" height="60"/>
  <use id="zoomplus" xlink:href="#zoomPlus" x="17" y="9" onmousedown="handleZoom(evt,'in')"/>
  <use id="zoomminus" xlink:href="#zoomMin" x="42" y="9" onmousedown="handleZoom(evt,'out')"/>
  <use id="reset" xlink:href="#resetDef" x="30" y="36" onmousedown="handleReset()"/>
   <use id="arrowup" xlink:href="#arrowUp" x="0" y="0" onmousedown="handlePan(0,-1)"/>
  <use id="arrowright" xlink:href="#arrowRight" x="0" y="0" onmousedown="handlePan(1,0)"/>
  <use id="arrowdown" xlink:href="#arrowDown" x="0" y="0" onmousedown="handlePan(0,1)"/>
  <use id="arrowleft" xlink:href="#arrowLeft" x="0" y="0" onmousedown="handlePan(-1,0)"/>
</g>
<svg viewBox="0 0 15 15" width="100%" height="30px" preserveAspectRatio="xMaxYMin meet">
 <g id="arrow_out" transform="scale(0.3 0.3)">
  <a xlink:href="bouton_8c_a482b1feb9004901d0544e64b1c44051c_icgraph_org.svg" target="_base">
   <rect id="button" ry="5" rx="5" y="6" x="6" height="38" width="38"
        fill="#f2f5e9" fill-opacity="0.5" stroke="#606060" stroke-width="1.0"/>
   <path id="arrow"
     d="M 11.500037,31.436501 C 11.940474,20.09759 22.043105,11.32322 32.158766,21.979434 L 37.068811,17.246167 C 37.068811,17.246167 37.088388,32 37.088388,32 L 22.160133,31.978069 C 22.160133,31.978069 26.997745,27.140456 26.997745,27.140456 C 18.528582,18.264221 13.291696,25.230495 11.500037,31.436501 z"
     style="fill:#404040;"/>
  </a>
 </g>
</svg>

<style type='text/css'>
<![CDATA[
[data-mouse-over-selected='false'] { opacity: 0.7; }
[data-mouse-over-selected='true']  { opacity: 1.0; }
]]>
</style>
<script type="application/ecmascript"><![CDATA[
document.addEventListener('DOMContentLoaded', (event) => {
  highlightEdges();
  highlightAdjacentNodes();
});
]]></script>
</svg>
