<?xml version="1.0" encoding="UTF-8" standalone="no"?>
<!DOCTYPE svg PUBLIC "-//W3C//DTD SVG 1.1//EN"
 "http://www.w3.org/Graphics/SVG/1.1/DTD/svg11.dtd">
<!-- Generated by graphviz version 14.1.4 (20260321.0153)
 -->
<!-- Title: afficher_texte_centre Pages: 1 -->
<svg width="566pt" height="159pt"
 viewBox="0.00 0.00 566.00 159.00" xmlns="http://www.w3.org/2000/svg" xmlns:xlink="http://www.w3.org/1999/xlink">
<g id="graph0" class="graph" transform="scale(1 1) rotate(0) translate(4 154.99)">
<title>afficher_texte_centre</title>
<!-- Node1 -->
<g id="Node000001" class="node">
<title>Node1</title>
<g id="a_Node000001"><a xlink:title="Affiche texte centre et met a jour les elements visuels associes.">
<polygon fill="#999999" stroke="#666666" points="557.75,-96 451,-96 451,-76 557.75,-76 557.75,-96"/>
<text xml:space="preserve" text-anchor="middle" x="504.38" y="-82.5" font-family="Helvetica,sans-Serif" font-size="10.00">afficher_texte_centre</text>
</a>
</g>
</g>
<!-- Node2 -->
<g id="Node000002" class="node">
<title>Node2</title>
<g id="a_Node000002"><a xlink:href="menu_8c.html#a55097e0b77b0fabc6cae44137b9a839a" target="_top" xlink:title="Affiche menu et met a jour les elements visuels associes.">
<polygon fill="white" stroke="#666666" points="256.88,-134 180.12,-134 180.12,-114 256.88,-114 256.88,-134"/>
<text xml:space="preserve" text-anchor="middle" x="218.5" y="-120.5" font-family="Helvetica,sans-Serif" font-size="10.00">afficher_menu</text>
</a>
</g>
</g>
<!-- Node1&#45;&gt;Node2 -->
<g id="edge1_Node000001_Node000002" class="edge">
<title>Node1&#45;&gt;Node2</title>
<g id="a_edge1_Node000001_Node000002"><a xlink:title=" ">
<path fill="none" stroke="#63b8ff" d="M483.76,-103.43C466.87,-117.18 441.16,-135.3 415,-143 359.23,-159.43 291.03,-145.54 251.69,-134.44"/>
<polygon fill="#63b8ff" stroke="#63b8ff" points="485.63,-106.42 491.02,-97.3 481.12,-101.07 485.63,-106.42"/>
</a>
</g>
</g>
<!-- Node4 -->
<g id="Node000004" class="node">
<title>Node4</title>
<g id="a_Node000004"><a xlink:href="option_8c.html#ac77b6b0f042469d82d75b270f5193806" target="_top" xlink:title="Affiche option et met a jour les elements visuels associes.">
<polygon fill="white" stroke="#666666" points="394,-96 315,-96 315,-76 394,-76 394,-96"/>
<text xml:space="preserve" text-anchor="middle" x="354.5" y="-82.5" font-family="Helvetica,sans-Serif" font-size="10.00">afficher_option</text>
</a>
</g>
</g>
<!-- Node1&#45;&gt;Node4 -->
<g id="edge3_Node000001_Node000004" class="edge">
<title>Node1&#45;&gt;Node4</title>
<g id="a_edge3_Node000001_Node000004"><a xlink:title=" ">
<path fill="none" stroke="#63b8ff" d="M439.74,-86C424.32,-86 408.29,-86 394.4,-86"/>
<polygon fill="#63b8ff" stroke="#63b8ff" points="439.31,-89.5 449.31,-86 439.31,-82.5 439.31,-89.5"/>
</a>
</g>
</g>
<!-- Node5 -->
<g id="Node000005" class="node">
<title>Node5</title>
<g id="a_Node000005"><a xlink:href="pause_8c.html#abc45a9e3a6a57d6f0f44706bd52e556d" target="_top" xlink:title="Affiche pause et met a jour les elements visuels associes.">
<polygon fill="white" stroke="#666666" points="258,-58 179,-58 179,-38 258,-38 258,-58"/>
<text xml:space="preserve" text-anchor="middle" x="218.5" y="-44.5" font-family="Helvetica,sans-Serif" font-size="10.00">afficher_pause</text>
</a>
</g>
</g>
<!-- Node1&#45;&gt;Node5 -->
<g id="edge8_Node000001_Node000005" class="edge">
<title>Node1&#45;&gt;Node5</title>
<g id="a_edge8_Node000001_Node000005"><a xlink:title=" ">
<path fill="none" stroke="#63b8ff" d="M448.29,-73.14C437.3,-70.86 425.82,-68.68 415,-67 360.92,-58.59 297.8,-53.25 258.24,-50.45"/>
<polygon fill="#63b8ff" stroke="#63b8ff" points="447.52,-76.55 458.03,-75.21 448.98,-69.7 447.52,-76.55"/>
</a>
</g>
</g>
<!-- Node7 -->
<g id="Node000007" class="node">
<title>Node7</title>
<g id="a_Node000007"><a xlink:href="game__over_8c.html#a37d3fac8300008a434af7c66a4e695d0" target="_top" xlink:title="Affiche l&#39;ecran de game over et traite le choix du joueur.">
<polygon fill="white" stroke="#666666" points="250.5,-20 186.5,-20 186.5,0 250.5,0 250.5,-20"/>
<text xml:space="preserve" text-anchor="middle" x="218.5" y="-6.5" font-family="Helvetica,sans-Serif" font-size="10.00">game_over</text>
</a>
</g>
</g>
<!-- Node1&#45;&gt;Node7 -->
<g id="edge9_Node000001_Node000007" class="edge">
<title>Node1&#45;&gt;Node7</title>
<g id="a_edge9_Node000001_Node000007"><a xlink:title=" ">
<path fill="none" stroke="#63b8ff" d="M471.79,-70.97C455.18,-63.53 434.31,-54.9 415,-49 358.24,-31.65 289.79,-20.04 250.79,-14.27"/>
<polygon fill="#63b8ff" stroke="#63b8ff" points="470.1,-74.04 480.65,-75.01 473.01,-67.68 470.1,-74.04"/>
</a>
</g>
</g>
<!-- Node8 -->
<g id="Node000008" class="node">
<title>Node8</title>
<g id="a_Node000008"><a xlink:href="sauvegarde_8c.html#ae251037c85a5a7d8172c206539398f49" target="_top" xlink:title="Affiche l&#39;interface de selection de slot (chargement ou sauvegarde).">
<polygon fill="white" stroke="#666666" points="415,-134 294,-134 294,-114 415,-114 415,-134"/>
<text xml:space="preserve" text-anchor="middle" x="354.5" y="-120.5" font-family="Helvetica,sans-Serif" font-size="10.00">sauvegarde_choisir_slot</text>
</a>
</g>
</g>
<!-- Node1&#45;&gt;Node8 -->
<g id="edge11_Node000001_Node000008" class="edge">
<title>Node1&#45;&gt;Node8</title>
<g id="a_edge11_Node000001_Node000008"><a xlink:title=" ">
<path fill="none" stroke="#63b8ff" d="M451.57,-99.31C433.41,-103.98 413.28,-109.15 396.17,-113.55"/>
<polygon fill="#63b8ff" stroke="#63b8ff" points="452.3,-102.74 461.11,-96.86 450.55,-95.96 452.3,-102.74"/>
</a>
</g>
</g>
<!-- Node3 -->
<g id="Node000003" class="node">
<title>Node3</title>
<g id="a_Node000003"><a xlink:href="main_8c.html#a0ddf1224851353fc92bfbff6f499fa97" target="_top" xlink:title=" ">
<polygon fill="white" stroke="#666666" points="37,-96 0,-96 0,-76 37,-76 37,-96"/>
<text xml:space="preserve" text-anchor="middle" x="18.5" y="-82.5" font-family="Helvetica,sans-Serif" font-size="10.00">main</text>
</a>
</g>
</g>
<!-- Node2&#45;&gt;Node3 -->
<g id="edge2_Node000002_Node000003" class="edge">
<title>Node2&#45;&gt;Node3</title>
<g id="a_edge2_Node000002_Node000003"><a xlink:title=" ">
<path fill="none" stroke="#63b8ff" d="M168.76,-117.04C140.64,-112.74 104.7,-106.76 73,-100 60.98,-97.44 47.61,-93.94 37.24,-91.08"/>
<polygon fill="#63b8ff" stroke="#63b8ff" points="167.99,-120.46 178.4,-118.49 169.03,-113.54 167.99,-120.46"/>
</a>
</g>
</g>
<!-- Node4&#45;&gt;Node3 -->
<g id="edge7_Node000004_Node000003" class="edge">
<title>Node4&#45;&gt;Node3</title>
<g id="a_edge7_Node000004_Node000003"><a xlink:title=" ">
<path fill="none" stroke="#63b8ff" d="M303.37,-86C227.41,-86 86.76,-86 37.28,-86"/>
<polygon fill="#63b8ff" stroke="#63b8ff" points="303.02,-89.5 313.02,-86 303.02,-82.5 303.02,-89.5"/>
</a>
</g>
</g>
<!-- Node4&#45;&gt;Node5 -->
<g id="edge4_Node000004_Node000005" class="edge">
<title>Node4&#45;&gt;Node5</title>
<g id="a_edge4_Node000004_Node000005"><a xlink:title=" ">
<path fill="none" stroke="#63b8ff" d="M305.62,-72.42C289.41,-67.82 271.57,-62.77 256.35,-58.45"/>
<polygon fill="#63b8ff" stroke="#63b8ff" points="304.5,-75.74 315.07,-75.1 306.41,-69.01 304.5,-75.74"/>
</a>
</g>
</g>
<!-- Node6 -->
<g id="Node000006" class="node">
<title>Node6</title>
<g id="a_Node000006"><a xlink:href="jeux_8c.html#a2d7491d04e8c2bdb52bb6ed7d75e4d78" target="_top" xlink:title="Execute la boucle principale de gameplay pour la planete courante.">
<polygon fill="white" stroke="#666666" points="143,-58 73,-58 73,-38 143,-38 143,-58"/>
<text xml:space="preserve" text-anchor="middle" x="108" y="-44.5" font-family="Helvetica,sans-Serif" font-size="10.00">jeu_principal</text>
</a>
</g>
</g>
<!-- Node5&#45;&gt;Node6 -->
<g id="edge5_Node000005_Node000006" class="edge">
<title>Node5&#45;&gt;Node6</title>
<g id="a_edge5_Node000005_Node000006"><a xlink:title=" ">
<path fill="none" stroke="#63b8ff" d="M167.3,-48C159.17,-48 150.91,-48 143.28,-48"/>
<polygon fill="#63b8ff" stroke="#63b8ff" points="167.12,-51.5 177.12,-48 167.12,-44.5 167.12,-51.5"/>
</a>
</g>
</g>
<!-- Node6&#45;&gt;Node3 -->
<g id="edge6_Node000006_Node000003" class="edge">
<title>Node6&#45;&gt;Node3</title>
<g id="a_edge6_Node000006_Node000003"><a xlink:title=" ">
<path fill="none" stroke="#63b8ff" d="M72.79,-62.86C60.65,-68.13 47.48,-73.85 37.27,-78.28"/>
<polygon fill="#63b8ff" stroke="#63b8ff" points="73.92,-66.18 81.7,-58.99 71.14,-59.76 73.92,-66.18"/>
</a>
</g>
</g>
<!-- Node7&#45;&gt;Node6 -->
<g id="edge10_Node000007_Node000006" class="edge">
<title>Node7&#45;&gt;Node6</title>
<g id="a_edge10_Node000007_Node000006"><a xlink:title=" ">
<path fill="none" stroke="#63b8ff" d="M176.83,-24.24C164.22,-28.66 150.57,-33.44 138.84,-37.55"/>
<polygon fill="#63b8ff" stroke="#63b8ff" points="177.86,-27.59 186.14,-20.98 175.54,-20.99 177.86,-27.59"/>
</a>
</g>
</g>
<!-- Node8&#45;&gt;Node2 -->
<g id="edge12_Node000008_Node000002" class="edge">
<title>Node8&#45;&gt;Node2</title>
<g id="a_edge12_Node000008_Node000002"><a xlink:title=" ">
<path fill="none" stroke="#63b8ff" d="M282.17,-124C273.52,-124 264.97,-124 257.09,-124"/>
<polygon fill="#63b8ff" stroke="#63b8ff" points="282.04,-127.5 292.04,-124 282.04,-120.5 282.04,-127.5"/>
</a>
</g>
</g>
<!-- Node8&#45;&gt;Node5 -->
<g id="edge13_Node000008_Node000005" class="edge">
<title>Node8&#45;&gt;Node5</title>
<g id="a_edge13_Node000008_Node000005"><a xlink:title=" ">
<path fill="none" stroke="#63b8ff" d="M303.61,-109.5C300.31,-108.1 297.07,-106.6 294,-105 269.17,-92.04 244.07,-70.76 230.28,-58.2"/>
<polygon fill="#63b8ff" stroke="#63b8ff" points="302.31,-112.75 312.9,-113.07 304.82,-106.21 302.31,-112.75"/>
</a>
</g>
</g>
</g>
</svg>
