<?xml version="1.0" encoding="UTF-8" standalone="no"?>
<!DOCTYPE svg PUBLIC "-//W3C//DTD SVG 1.1//EN"
 "http://www.w3.org/Graphics/SVG/1.1/DTD/svg11.dtd">
<!-- Generated by graphviz version 14.1.4 (20260321.0153)
 -->
<!-- Title: Bouton_Afficher Pages: 1 -->
<svg width="544pt" height="201pt"
 viewBox="0.00 0.00 544.00 201.00" xmlns="http://www.w3.org/2000/svg" xmlns:xlink="http://www.w3.org/1999/xlink">
<g id="graph0" class="graph" transform="scale(1 1) rotate(0) translate(4 196.55)">
<title>Bouton_Afficher</title>
<!-- Node1 -->
<g id="Node000001" class="node">
<title>Node1</title>
<g id="a_Node000001"><a xlink:title="Dessine la texture du bouton dans son rectangle d&#39;affichage.">
<polygon fill="#999999" stroke="#666666" points="536,-115 451,-115 451,-95 536,-95 536,-115"/>
<text xml:space="preserve" text-anchor="middle" x="493.5" y="-101.5" font-family="Helvetica,sans-Serif" font-size="10.00">Bouton_Afficher</text>
</a>
</g>
</g>
<!-- Node2 -->
<g id="Node000002" class="node">
<title>Node2</title>
<g id="a_Node000002"><a xlink:href="menu_8c.html#a55097e0b77b0fabc6cae44137b9a839a" target="_top" xlink:title="Affiche menu et met a jour les elements visuels associes.">
<polygon fill="white" stroke="#666666" points="256.88,-172 180.12,-172 180.12,-152 256.88,-152 256.88,-172"/>
<text xml:space="preserve" text-anchor="middle" x="218.5" y="-158.5" font-family="Helvetica,sans-Serif" font-size="10.00">afficher_menu</text>
</a>
</g>
</g>
<!-- Node1&#45;&gt;Node2 -->
<g id="edge1_Node000001_Node000002" class="edge">
<title>Node1&#45;&gt;Node2</title>
<g id="a_edge1_Node000001_Node000002"><a xlink:title=" ">
<path fill="none" stroke="#63b8ff" d="M479.4,-124.72C465.81,-143.22 442.67,-169.7 415,-181 358.65,-204.02 285.83,-185.7 246.91,-172.5"/>
<polygon fill="#63b8ff" stroke="#63b8ff" points="482.19,-126.84 485.07,-116.64 476.46,-122.81 482.19,-126.84"/>
</a>
</g>
</g>
<!-- Node4 -->
<g id="Node000004" class="node">
<title>Node4</title>
<g id="a_Node000004"><a xlink:href="option_8c.html#ac77b6b0f042469d82d75b270f5193806" target="_top" xlink:title="Affiche option et met a jour les elements visuels associes.">
<polygon fill="white" stroke="#666666" points="394,-134 315,-134 315,-114 394,-114 394,-134"/>
<text xml:space="preserve" text-anchor="middle" x="354.5" y="-120.5" font-family="Helvetica,sans-Serif" font-size="10.00">afficher_option</text>
</a>
</g>
</g>
<!-- Node1&#45;&gt;Node4 -->
<g id="edge3_Node000001_Node000004" class="edge">
<title>Node1&#45;&gt;Node4</title>
<g id="a_edge3_Node000001_Node000004"><a xlink:title=" ">
<path fill="none" stroke="#63b8ff" d="M439.41,-112.36C424.38,-114.45 408.31,-116.68 394.29,-118.62"/>
<polygon fill="#63b8ff" stroke="#63b8ff" points="439.73,-115.85 449.15,-111.01 438.77,-108.92 439.73,-115.85"/>
</a>
</g>
</g>
<!-- Node5 -->
<g id="Node000005" class="node">
<title>Node5</title>
<g id="a_Node000005"><a xlink:href="pause_8c.html#abc45a9e3a6a57d6f0f44706bd52e556d" target="_top" xlink:title="Affiche pause et met a jour les elements visuels associes.">
<polygon fill="white" stroke="#666666" points="258,-96 179,-96 179,-76 258,-76 258,-96"/>
<text xml:space="preserve" text-anchor="middle" x="218.5" y="-82.5" font-family="Helvetica,sans-Serif" font-size="10.00">afficher_pause</text>
</a>
</g>
</g>
<!-- Node1&#45;&gt;Node5 -->
<g id="edge8_Node000001_Node000005" class="edge">
<title>Node1&#45;&gt;Node5</title>
<g id="a_edge8_Node000001_Node000005"><a xlink:title=" ">
<path fill="none" stroke="#63b8ff" d="M439.5,-101.31C386.29,-97.61 305.61,-91.99 258.16,-88.69"/>
<polygon fill="#63b8ff" stroke="#63b8ff" points="439.01,-104.79 449.23,-101.99 439.5,-97.8 439.01,-104.79"/>
</a>
</g>
</g>
<!-- Node7 -->
<g id="Node000007" class="node">
<title>Node7</title>
<g id="a_Node000007"><a xlink:href="shop_8c.html#ad1ea096e4fe280946f862273fc94eb30" target="_top" xlink:title="Affiche shop et met a jour les elements visuels associes.">
<polygon fill="white" stroke="#666666" points="391.38,-20 317.62,-20 317.62,0 391.38,0 391.38,-20"/>
<text xml:space="preserve" text-anchor="middle" x="354.5" y="-6.5" font-family="Helvetica,sans-Serif" font-size="10.00">afficher_shop</text>
</a>
</g>
</g>
<!-- Node1&#45;&gt;Node7 -->
<g id="edge9_Node000001_Node000007" class="edge">
<title>Node1&#45;&gt;Node7</title>
<g id="a_edge9_Node000001_Node000007"><a xlink:title=" ">
<path fill="none" stroke="#63b8ff" d="M475.69,-86.22C460.92,-70.6 438.23,-48.64 415,-34 406.52,-28.65 396.65,-24.1 387.41,-20.44"/>
<polygon fill="#63b8ff" stroke="#63b8ff" points="473.03,-88.49 482.38,-93.46 478.17,-83.74 473.03,-88.49"/>
</a>
</g>
</g>
<!-- Node8 -->
<g id="Node000008" class="node">
<title>Node8</title>
<g id="a_Node000008"><a xlink:href="game__over_8c.html#a37d3fac8300008a434af7c66a4e695d0" target="_top" xlink:title="Affiche l&#39;ecran de game over et traite le choix du joueur.">
<polygon fill="white" stroke="#666666" points="250.5,-58 186.5,-58 186.5,-38 250.5,-38 250.5,-58"/>
<text xml:space="preserve" text-anchor="middle" x="218.5" y="-44.5" font-family="Helvetica,sans-Serif" font-size="10.00">game_over</text>
</a>
</g>
</g>
<!-- Node1&#45;&gt;Node8 -->
<g id="edge10_Node000001_Node000008" class="edge">
<title>Node1&#45;&gt;Node8</title>
<g id="a_edge10_Node000001_Node000008"><a xlink:title=" ">
<path fill="none" stroke="#63b8ff" d="M439.63,-93.3C431.39,-91.5 422.97,-89.69 415,-88 357.05,-75.72 289.29,-62 250.68,-54.24"/>
<polygon fill="#63b8ff" stroke="#63b8ff" points="438.7,-96.68 449.21,-95.39 440.19,-89.84 438.7,-96.68"/>
</a>
</g>
</g>
<!-- Node9 -->
<g id="Node000009" class="node">
<title>Node9</title>
<g id="a_Node000009"><a xlink:href="sauvegarde_8c.html#ae251037c85a5a7d8172c206539398f49" target="_top" xlink:title="Affiche l&#39;interface de selection de slot (chargement ou sauvegarde).">
<polygon fill="white" stroke="#666666" points="415,-172 294,-172 294,-152 415,-152 415,-172"/>
<text xml:space="preserve" text-anchor="middle" x="354.5" y="-158.5" font-family="Helvetica,sans-Serif" font-size="10.00">sauvegarde_choisir_slot</text>
</a>
</g>
</g>
<!-- Node1&#45;&gt;Node9 -->
<g id="edge12_Node000001_Node000009" class="edge">
<title>Node1&#45;&gt;Node9</title>
<g id="a_edge12_Node000001_Node000009"><a xlink:title=" ">
<path fill="none" stroke="#63b8ff" d="M462.91,-120.78C448.65,-128.05 431.17,-136.49 415,-143 407.35,-146.08 399,-149 391.04,-151.59"/>
<polygon fill="#63b8ff" stroke="#63b8ff" points="464.5,-123.9 471.77,-116.19 461.28,-117.68 464.5,-123.9"/>
</a>
</g>
</g>
<!-- Node3 -->
<g id="Node000003" class="node">
<title>Node3</title>
<g id="a_Node000003"><a xlink:href="main_8c.html#a0ddf1224851353fc92bfbff6f499fa97" target="_top" xlink:title=" ">
<polygon fill="white" stroke="#666666" points="37,-134 0,-134 0,-114 37,-114 37,-134"/>
<text xml:space="preserve" text-anchor="middle" x="18.5" y="-120.5" font-family="Helvetica,sans-Serif" font-size="10.00">main</text>
</a>
</g>
</g>
<!-- Node2&#45;&gt;Node3 -->
<g id="edge2_Node000002_Node000003" class="edge">
<title>Node2&#45;&gt;Node3</title>
<g id="a_edge2_Node000002_Node000003"><a xlink:title=" ">
<path fill="none" stroke="#63b8ff" d="M168.76,-155.04C140.64,-150.74 104.7,-144.76 73,-138 60.98,-135.44 47.61,-131.94 37.24,-129.08"/>
<polygon fill="#63b8ff" stroke="#63b8ff" points="167.99,-158.46 178.4,-156.49 169.03,-151.54 167.99,-158.46"/>
</a>
</g>
</g>
<!-- Node4&#45;&gt;Node3 -->
<g id="edge7_Node000004_Node000003" class="edge">
<title>Node4&#45;&gt;Node3</title>
<g id="a_edge7_Node000004_Node000003"><a xlink:title=" ">
<path fill="none" stroke="#63b8ff" d="M303.37,-124C227.41,-124 86.76,-124 37.28,-124"/>
<polygon fill="#63b8ff" stroke="#63b8ff" points="303.02,-127.5 313.02,-124 303.02,-120.5 303.02,-127.5"/>
</a>
</g>
</g>
<!-- Node4&#45;&gt;Node5 -->
<g id="edge4_Node000004_Node000005" class="edge">
<title>Node4&#45;&gt;Node5</title>
<g id="a_edge4_Node000004_Node000005"><a xlink:title=" ">
<path fill="none" stroke="#63b8ff" d="M305.62,-110.42C289.41,-105.82 271.57,-100.77 256.35,-96.45"/>
<polygon fill="#63b8ff" stroke="#63b8ff" points="304.5,-113.74 315.07,-113.1 306.41,-107.01 304.5,-113.74"/>
</a>
</g>
</g>
<!-- Node6 -->
<g id="Node000006" class="node">
<title>Node6</title>
<g id="a_Node000006"><a xlink:href="jeux_8c.html#a2d7491d04e8c2bdb52bb6ed7d75e4d78" target="_top" xlink:title="Execute la boucle principale de gameplay pour la planete courante.">
<polygon fill="white" stroke="#666666" points="143,-96 73,-96 73,-76 143,-76 143,-96"/>
<text xml:space="preserve" text-anchor="middle" x="108" y="-82.5" font-family="Helvetica,sans-Serif" font-size="10.00">jeu_principal</text>
</a>
</g>
</g>
<!-- Node5&#45;&gt;Node6 -->
<g id="edge5_Node000005_Node000006" class="edge">
<title>Node5&#45;&gt;Node6</title>
<g id="a_edge5_Node000005_Node000006"><a xlink:title=" ">
<path fill="none" stroke="#63b8ff" d="M167.3,-86C159.17,-86 150.91,-86 143.28,-86"/>
<polygon fill="#63b8ff" stroke="#63b8ff" points="167.12,-89.5 177.12,-86 167.12,-82.5 167.12,-89.5"/>
</a>
</g>
</g>
<!-- Node6&#45;&gt;Node3 -->
<g id="edge6_Node000006_Node000003" class="edge">
<title>Node6&#45;&gt;Node3</title>
<g id="a_edge6_Node000006_Node000003"><a xlink:title=" ">
<path fill="none" stroke="#63b8ff" d="M72.79,-100.86C60.65,-106.13 47.48,-111.85 37.27,-116.28"/>
<polygon fill="#63b8ff" stroke="#63b8ff" points="73.92,-104.18 81.7,-96.99 71.14,-97.76 73.92,-104.18"/>
</a>
</g>
</g>
<!-- Node8&#45;&gt;Node6 -->
<g id="edge11_Node000008_Node000006" class="edge">
<title>Node8&#45;&gt;Node6</title>
<g id="a_edge11_Node000008_Node000006"><a xlink:title=" ">
<path fill="none" stroke="#63b8ff" d="M176.83,-62.24C164.22,-66.66 150.57,-71.44 138.84,-75.55"/>
<polygon fill="#63b8ff" stroke="#63b8ff" points="177.86,-65.59 186.14,-58.98 175.54,-58.99 177.86,-65.59"/>
</a>
</g>
</g>
<!-- Node9&#45;&gt;Node2 -->
<g id="edge13_Node000009_Node000002" class="edge">
<title>Node9&#45;&gt;Node2</title>
<g id="a_edge13_Node000009_Node000002"><a xlink:title=" ">
<path fill="none" stroke="#63b8ff" d="M282.17,-162C273.52,-162 264.97,-162 257.09,-162"/>
<polygon fill="#63b8ff" stroke="#63b8ff" points="282.04,-165.5 292.04,-162 282.04,-158.5 282.04,-165.5"/>
</a>
</g>
</g>
<!-- Node9&#45;&gt;Node5 -->
<g id="edge14_Node000009_Node000005" class="edge">
<title>Node9&#45;&gt;Node5</title>
<g id="a_edge14_Node000009_Node000005"><a xlink:title=" ">
<path fill="none" stroke="#63b8ff" d="M303.61,-147.5C300.31,-146.1 297.07,-144.6 294,-143 269.17,-130.04 244.07,-108.76 230.28,-96.2"/>
<polygon fill="#63b8ff" stroke="#63b8ff" points="302.31,-150.75 312.9,-151.07 304.82,-144.21 302.31,-150.75"/>
</a>
</g>
</g>
</g>
</svg>
