<?xml version="1.0" encoding="UTF-8" standalone="no"?>
<!DOCTYPE svg PUBLIC "-//W3C//DTD SVG 1.1//EN"
 "http://www.w3.org/Graphics/SVG/1.1/DTD/svg11.dtd">
<!-- Generated by graphviz version 14.1.4 (20260321.0153)
 -->
<!-- Title: Bouton_Afficher Pages: 1 -->
<!--zoomable 255 -->

<svg id="main" version="1.1" xmlns="http://www.w3.org/2000/svg" xmlns:xlink="http://www.w3.org/1999/xlink" xml:space="preserve" onload="init(evt)">

<style type="text/css"><![CDATA[
.node, .edge {opacity: 0.7;}
.node.selected, .edge.selected {opacity: 1;}
.edge:hover path { stroke: red; }
.edge:hover polygon { stroke: red; fill: red; }
]]></style>

<defs>
  <circle id="rim" cx="0" cy="0" r="7"/>
  <circle id="rim2" cx="0" cy="0" r="3.5"/>
  <g id="zoomPlus">
    <use xlink:href="#rim" fill="#404040"><set attributeName="fill" to="#808080" begin="zoomplus.mouseover" end="zoomplus.mouseout"/></use>
    <path d="M-4,0h8M0,-4v8" fill="none" stroke="white" stroke-width="1.5" pointer-events="none"/>
  </g>
  <g id="zoomMin">
    <use xlink:href="#rim" fill="#404040"><set attributeName="fill" to="#808080" begin="zoomminus.mouseover" end="zoomminus.mouseout"/></use>
    <path d="M-4,0h8" fill="none" stroke="white" stroke-width="1.5" pointer-events="none"/>
  </g>
  <g id="arrowUp" transform="translate(30 24)">
    <use xlink:href="#rim"/>
    <path pointer-events="none" fill="none" stroke="white" stroke-width="1.5" d="M0,-3.0v7 M-2.5,-0.5L0,-3.0L2.5,-0.5"/>
  </g>
  <g id="arrowRight" transform="rotate(90) translate(36 -43)">
    <use xlink:href="#rim"/>
    <path pointer-events="none" fill="none" stroke="white" stroke-width="1.5" d="M0,-3.0v7 M-2.5,-0.5L0,-3.0L2.5,-0.5"/>
  </g>
  <g id="arrowDown" transform="rotate(180) translate(-30 -48)">
    <use xlink:href="#rim"/>
    <path pointer-events="none" fill="none" stroke="white" stroke-width="1.5" d="M0,-3.0v7 M-2.5,-0.5L0,-3.0L2.5,-0.5"/>
  </g>
  <g id="arrowLeft" transform="rotate(270) translate(-36 17)">
    <use xlink:href="#rim"/>
    <path pointer-events="none" fill="none" stroke="white" stroke-width="1.5" d="M0,-3.0v7 M-2.5,-0.5L0,-3.0L2.5,-0.5"/>
  </g>
  <g id="resetDef">
    <use xlink:href="#rim2" fill="#404040"><set attributeName="fill" to="#808080" begin="reset.mouseover" end="reset.mouseout"/></use>
  </g>
</defs>
<script type="application/ecmascript">
var viewWidth = 833;
var viewHeight = 255;
var sectionId = 'dynsection-3';
</script>
<script type="application/ecmascript" xlink:href="svg.min.js"/>
<svg id="graph" class="graph">
<g id="viewport">
<title>Bouton_Afficher</title>
<!-- Node1 -->
<g id="Node000001" class="node">
<title>Node1</title>
<g id="a_Node000001"><a xlink:title="Dessine la texture du bouton dans son rectangle d&#39;affichage.">
<polygon fill="#999999" stroke="#666666" points="825.25,-167.77 740.25,-167.77 740.25,-147.77 825.25,-147.77 825.25,-167.77"/>
<text xml:space="preserve" text-anchor="middle" x="782.75" y="-154.27" font-family="Helvetica,sans-Serif" font-size="10.00">Bouton_Afficher</text>
</a>
</g>
</g>
<!-- Node2 -->
<g id="Node000002" class="node">
<title>Node2</title>
<g id="a_Node000002"><a xlink:href="menu_8c.html#a55097e0b77b0fabc6cae44137b9a839a" target="_top" xlink:title="Affiche menu et met a jour les elements visuels associes.">
<polygon fill="white" stroke="#666666" points="528.5,-224.77 451.75,-224.77 451.75,-204.77 528.5,-204.77 528.5,-224.77"/>
<text xml:space="preserve" text-anchor="middle" x="490.12" y="-211.27" font-family="Helvetica,sans-Serif" font-size="10.00">afficher_menu</text>
</a>
</g>
</g>
<!-- Node1&#45;&gt;Node2 -->
<g id="edge1_Node000001_Node000002" class="edge">
<title>Node1&#45;&gt;Node2</title>
<g id="a_edge1_Node000001_Node000002"><a xlink:title=" ">
<path fill="none" stroke="#63b8ff" d="M768.65,-177.49C755.06,-195.99 731.92,-222.47 704.25,-233.77 642.01,-259.2 561.24,-239.17 519.26,-225.26"/>
<polygon fill="#63b8ff" stroke="#63b8ff" points="771.44,-179.61 774.32,-169.41 765.71,-175.59 771.44,-179.61"/>
</a>
</g>
</g>
<!-- Node4 -->
<g id="Node000004" class="node">
<title>Node4</title>
<g id="a_Node000004"><a xlink:href="option_8c.html#ac77b6b0f042469d82d75b270f5193806" target="_top" xlink:title="Affiche option et met a jour les elements visuels associes.">
<polygon fill="white" stroke="#666666" points="683.25,-110.77 604.25,-110.77 604.25,-90.77 683.25,-90.77 683.25,-110.77"/>
<text xml:space="preserve" text-anchor="middle" x="643.75" y="-97.27" font-family="Helvetica,sans-Serif" font-size="10.00">afficher_option</text>
</a>
</g>
</g>
<!-- Node1&#45;&gt;Node4 -->
<g id="edge3_Node000001_Node000004" class="edge">
<title>Node1&#45;&gt;Node4</title>
<g id="a_edge3_Node000001_Node000004"><a xlink:title=" ">
<path fill="none" stroke="#63b8ff" d="M747.45,-143C734,-137.26 718.43,-130.65 704.25,-124.77 693.34,-120.25 681.27,-115.36 670.86,-111.18"/>
<polygon fill="#63b8ff" stroke="#63b8ff" points="745.75,-146.08 756.32,-146.8 748.51,-139.65 745.75,-146.08"/>
</a>
</g>
</g>
<!-- Node5 -->
<g id="Node000005" class="node">
<title>Node5</title>
<g id="a_Node000005"><a xlink:href="pause_8c.html#abc45a9e3a6a57d6f0f44706bd52e556d" target="_top" xlink:title="Affiche pause et met a jour les elements visuels associes.">
<polygon fill="white" stroke="#666666" points="529.62,-148.77 450.62,-148.77 450.62,-128.77 529.62,-128.77 529.62,-148.77"/>
<text xml:space="preserve" text-anchor="middle" x="490.12" y="-135.27" font-family="Helvetica,sans-Serif" font-size="10.00">afficher_pause</text>
</a>
</g>
</g>
<!-- Node1&#45;&gt;Node5 -->
<g id="edge8_Node000001_Node000005" class="edge">
<title>Node1&#45;&gt;Node5</title>
<g id="a_edge8_Node000001_Node000005"><a xlink:title=" ">
<path fill="none" stroke="#63b8ff" d="M728.41,-154.29C670.93,-150.53 580.85,-144.64 529.81,-141.3"/>
<polygon fill="#63b8ff" stroke="#63b8ff" points="728.08,-157.77 738.29,-154.93 728.54,-150.79 728.08,-157.77"/>
</a>
</g>
</g>
<!-- Node7 -->
<g id="Node000007" class="node">
<title>Node7</title>
<g id="a_Node000007"><a xlink:href="shop_8c.html#ad1ea096e4fe280946f862273fc94eb30" target="_top" xlink:title="Affiche shop et met a jour les elements visuels associes.">
<polygon fill="white" stroke="#666666" points="680.62,-72.77 606.88,-72.77 606.88,-52.77 680.62,-52.77 680.62,-72.77"/>
<text xml:space="preserve" text-anchor="middle" x="643.75" y="-59.27" font-family="Helvetica,sans-Serif" font-size="10.00">afficher_shop</text>
</a>
</g>
</g>
<!-- Node1&#45;&gt;Node7 -->
<g id="edge9_Node000001_Node000007" class="edge">
<title>Node1&#45;&gt;Node7</title>
<g id="a_edge9_Node000001_Node000007"><a xlink:title=" ">
<path fill="none" stroke="#63b8ff" d="M766.83,-138.74C752.48,-121.61 729.31,-96.88 704.25,-81.77 697.1,-77.46 688.87,-74.03 680.85,-71.33"/>
<polygon fill="#63b8ff" stroke="#63b8ff" points="763.87,-140.65 772.9,-146.19 769.3,-136.23 763.87,-140.65"/>
</a>
</g>
</g>
<!-- Node12 -->
<g id="Node000012" class="node">
<title>Node12</title>
<g id="a_Node000012"><a xlink:href="game__over_8c.html#a37d3fac8300008a434af7c66a4e695d0" target="_top" xlink:title="Affiche l&#39;ecran de game over et traite le choix du joueur.">
<polygon fill="white" stroke="#666666" points="522.12,-186.77 458.12,-186.77 458.12,-166.77 522.12,-166.77 522.12,-186.77"/>
<text xml:space="preserve" text-anchor="middle" x="490.12" y="-173.27" font-family="Helvetica,sans-Serif" font-size="10.00">game_over</text>
</a>
</g>
</g>
<!-- Node1&#45;&gt;Node12 -->
<g id="edge17_Node000001_Node000012" class="edge">
<title>Node1&#45;&gt;Node12</title>
<g id="a_edge17_Node000001_Node000012"><a xlink:title=" ">
<path fill="none" stroke="#63b8ff" d="M728.6,-161.25C668.21,-165.2 571.68,-171.51 522.35,-174.73"/>
<polygon fill="#63b8ff" stroke="#63b8ff" points="728.54,-164.76 738.29,-160.62 728.08,-157.78 728.54,-164.76"/>
</a>
</g>
</g>
<!-- Node13 -->
<g id="Node000013" class="node">
<title>Node13</title>
<g id="a_Node000013"><a xlink:href="sauvegarde_8c.html#ae251037c85a5a7d8172c206539398f49" target="_top" xlink:title="Affiche l&#39;interface de selection de slot (chargement ou sauvegarde).">
<polygon fill="white" stroke="#666666" points="704.25,-224.77 583.25,-224.77 583.25,-204.77 704.25,-204.77 704.25,-224.77"/>
<text xml:space="preserve" text-anchor="middle" x="643.75" y="-211.27" font-family="Helvetica,sans-Serif" font-size="10.00">sauvegarde_choisir_slot</text>
</a>
</g>
</g>
<!-- Node1&#45;&gt;Node13 -->
<g id="edge19_Node000001_Node000013" class="edge">
<title>Node1&#45;&gt;Node13</title>
<g id="a_edge19_Node000001_Node000013"><a xlink:title=" ">
<path fill="none" stroke="#63b8ff" d="M747.45,-172.55C734,-178.29 718.43,-184.9 704.25,-190.77 693.34,-195.3 681.27,-200.19 670.86,-204.37"/>
<polygon fill="#63b8ff" stroke="#63b8ff" points="748.51,-175.9 756.32,-168.75 745.75,-169.47 748.51,-175.9"/>
</a>
</g>
</g>
<!-- Node3 -->
<g id="Node000003" class="node">
<title>Node3</title>
<g id="a_Node000003"><a xlink:href="main_8c.html#a0ddf1224851353fc92bfbff6f499fa97" target="_top" xlink:title=" ">
<polygon fill="white" stroke="#666666" points="37,-110.77 0,-110.77 0,-90.77 37,-90.77 37,-110.77"/>
<text xml:space="preserve" text-anchor="middle" x="18.5" y="-97.27" font-family="Helvetica,sans-Serif" font-size="10.00">main</text>
</a>
</g>
</g>
<!-- Node2&#45;&gt;Node3 -->
<g id="edge2_Node000002_Node000003" class="edge">
<title>Node2&#45;&gt;Node3</title>
<g id="a_edge2_Node000002_Node000003"><a xlink:title=" ">
<path fill="none" stroke="#63b8ff" d="M440.31,-210.99C360.91,-203.59 199.92,-183.36 73,-133.77 58.57,-128.13 43.68,-118.6 33.29,-111.22"/>
<polygon fill="#63b8ff" stroke="#63b8ff" points="439.63,-214.44 449.91,-211.85 440.26,-207.47 439.63,-214.44"/>
</a>
</g>
</g>
<!-- Node4&#45;&gt;Node3 -->
<g id="edge7_Node000004_Node000003" class="edge">
<title>Node4&#45;&gt;Node3</title>
<g id="a_edge7_Node000004_Node000003"><a xlink:title=" ">
<path fill="none" stroke="#63b8ff" d="M592.46,-100.77C536.46,-100.77 443.26,-100.77 363,-100.77 363,-100.77 363,-100.77 234.75,-100.77 161.51,-100.77 74.24,-100.77 37.36,-100.77"/>
<polygon fill="#63b8ff" stroke="#63b8ff" points="592.32,-104.27 602.32,-100.77 592.32,-97.27 592.32,-104.27"/>
</a>
</g>
</g>
<!-- Node4&#45;&gt;Node5 -->
<g id="edge4_Node000004_Node000005" class="edge">
<title>Node4&#45;&gt;Node5</title>
<g id="a_edge4_Node000004_Node000005"><a xlink:title=" ">
<path fill="none" stroke="#63b8ff" d="M593.06,-113.23C572.56,-118.36 549.17,-124.23 529.97,-129.04"/>
<polygon fill="#63b8ff" stroke="#63b8ff" points="593.78,-116.66 602.63,-110.83 592.08,-109.87 593.78,-116.66"/>
</a>
</g>
</g>
<!-- Node6 -->
<g id="Node000006" class="node">
<title>Node6</title>
<g id="a_Node000006"><a xlink:href="jeux_8c.html#a2d7491d04e8c2bdb52bb6ed7d75e4d78" target="_top" xlink:title="Execute la boucle principale de gameplay pour la planete courante.">
<polygon fill="white" stroke="#666666" points="397,-148.77 327,-148.77 327,-128.77 397,-128.77 397,-148.77"/>
<text xml:space="preserve" text-anchor="middle" x="362" y="-135.27" font-family="Helvetica,sans-Serif" font-size="10.00">jeu_principal</text>
</a>
</g>
</g>
<!-- Node5&#45;&gt;Node6 -->
<g id="edge5_Node000005_Node000006" class="edge">
<title>Node5&#45;&gt;Node6</title>
<g id="a_edge5_Node000005_Node000006"><a xlink:title=" ">
<path fill="none" stroke="#63b8ff" d="M438.81,-138.77C424.86,-138.77 410.05,-138.77 397.26,-138.77"/>
<polygon fill="#63b8ff" stroke="#63b8ff" points="438.74,-142.27 448.74,-138.77 438.74,-135.27 438.74,-142.27"/>
</a>
</g>
</g>
<!-- Node6&#45;&gt;Node3 -->
<g id="edge6_Node000006_Node000003" class="edge">
<title>Node6&#45;&gt;Node3</title>
<g id="a_edge6_Node000006_Node000003"><a xlink:title=" ">
<path fill="none" stroke="#63b8ff" d="M315.47,-137.41C258.45,-135.14 157.9,-129.31 73,-114.77 60.89,-112.7 47.51,-109.2 37.17,-106.22"/>
<polygon fill="#63b8ff" stroke="#63b8ff" points="314.99,-140.89 325.11,-137.77 315.25,-133.9 314.99,-140.89"/>
</a>
</g>
</g>
<!-- Node8 -->
<g id="Node000008" class="node">
<title>Node8</title>
<g id="a_Node000008"><a xlink:href="vaisseau_8c.html#ace614afc8df3a40bd5ea0771044ff217" target="_top" xlink:title=" ">
<polygon fill="white" stroke="#666666" points="547.25,-72.77 433,-72.77 433,-52.77 547.25,-52.77 547.25,-72.77"/>
<text xml:space="preserve" text-anchor="middle" x="490.12" y="-59.27" font-family="Helvetica,sans-Serif" font-size="10.00">gerer_interaction_objet</text>
</a>
</g>
</g>
<!-- Node7&#45;&gt;Node8 -->
<g id="edge10_Node000007_Node000008" class="edge">
<title>Node7&#45;&gt;Node8</title>
<g id="a_edge10_Node000007_Node000008"><a xlink:title=" ">
<path fill="none" stroke="#63b8ff" d="M595.26,-62.77C580.14,-62.77 563.27,-62.77 547.58,-62.77"/>
<polygon fill="#63b8ff" stroke="#63b8ff" points="594.92,-66.27 604.92,-62.77 594.92,-59.27 594.92,-66.27"/>
</a>
</g>
</g>
<!-- Node9 -->
<g id="Node000009" class="node">
<title>Node9</title>
<g id="a_Node000009"><a xlink:href="vaisseau_8c.html#a8ea9afc9440149ddd36e96b97d8ed6c5" target="_top" xlink:title="Lance la scene interieure du vaisseau (deplacement, interactions, mini&#45;jeux, sortie).">
<polygon fill="white" stroke="#666666" points="389.5,-34.77 334.5,-34.77 334.5,-14.77 389.5,-14.77 389.5,-34.77"/>
<text xml:space="preserve" text-anchor="middle" x="362" y="-21.27" font-family="Helvetica,sans-Serif" font-size="10.00">vaisseau</text>
</a>
</g>
</g>
<!-- Node8&#45;&gt;Node9 -->
<g id="edge11_Node000008_Node000009" class="edge">
<title>Node8&#45;&gt;Node9</title>
<g id="a_edge11_Node000008_Node000009"><a xlink:title=" ">
<path fill="none" stroke="#63b8ff" d="M443.42,-49C425.37,-43.57 405.28,-37.51 389.69,-32.81"/>
<polygon fill="#63b8ff" stroke="#63b8ff" points="442.29,-52.32 452.88,-51.85 444.31,-45.62 442.29,-52.32"/>
</a>
</g>
</g>
<!-- Node9&#45;&gt;Node3 -->
<g id="edge16_Node000009_Node000003" class="edge">
<title>Node9&#45;&gt;Node3</title>
<g id="a_edge16_Node000009_Node000003"><a xlink:title=" ">
<path fill="none" stroke="#63b8ff" d="M323.3,-12.58C312.94,-9.77 301.63,-7.19 291,-5.77 242.32,0.72 228.9,2.53 180.5,-5.77 130.55,-14.34 115.43,-16.07 73,-43.77 53.45,-56.54 36.02,-77.88 26.69,-90.51"/>
<polygon fill="#63b8ff" stroke="#63b8ff" points="322.05,-15.86 332.63,-15.26 323.98,-9.13 322.05,-15.86"/>
</a>
</g>
</g>
<!-- Node10 -->
<g id="Node000010" class="node">
<title>Node10</title>
<g id="a_Node000010"><a xlink:href="cinematique_8c.html#a418cc3e727578f4cd509ad27cd6a2a31" target="_top" xlink:title="Lance cinematique fin et gere son deroulement complet.">
<polygon fill="white" stroke="#666666" points="291,-34.77 180.5,-34.77 180.5,-14.77 291,-14.77 291,-34.77"/>
<text xml:space="preserve" text-anchor="middle" x="235.75" y="-21.27" font-family="Helvetica,sans-Serif" font-size="10.00">jouer_cinematique_fin</text>
</a>
</g>
</g>
<!-- Node9&#45;&gt;Node10 -->
<g id="edge12_Node000009_Node000010" class="edge">
<title>Node9&#45;&gt;Node10</title>
<g id="a_edge12_Node000009_Node000010"><a xlink:title=" ">
<path fill="none" stroke="#63b8ff" d="M322.58,-24.77C312.74,-24.77 301.97,-24.77 291.48,-24.77"/>
<polygon fill="#63b8ff" stroke="#63b8ff" points="322.53,-28.27 332.53,-24.77 322.53,-21.27 322.53,-28.27"/>
</a>
</g>
</g>
<!-- Node11 -->
<g id="Node000011" class="node">
<title>Node11</title>
<g id="a_Node000011"><a xlink:href="map_8c.html#ad462ccdd50801fb085dc8134fc3765d1" target="_top" xlink:title="Affiche la carte et met a jour les elements visuels associes.">
<polygon fill="white" stroke="#666666" points="144.5,-72.77 73,-72.77 73,-52.77 144.5,-52.77 144.5,-72.77"/>
<text xml:space="preserve" text-anchor="middle" x="108.75" y="-59.27" font-family="Helvetica,sans-Serif" font-size="10.00">afficher_map</text>
</a>
</g>
</g>
<!-- Node10&#45;&gt;Node11 -->
<g id="edge13_Node000010_Node000011" class="edge">
<title>Node10&#45;&gt;Node11</title>
<g id="a_edge13_Node000010_Node000011"><a xlink:title=" ">
<path fill="none" stroke="#63b8ff" d="M189.65,-38.48C174.64,-43.05 158.18,-48.05 144.13,-52.32"/>
<polygon fill="#63b8ff" stroke="#63b8ff" points="190.26,-41.96 198.81,-35.7 188.23,-35.26 190.26,-41.96"/>
</a>
</g>
</g>
<!-- Node11&#45;&gt;Node3 -->
<g id="edge15_Node000011_Node000003" class="edge">
<title>Node11&#45;&gt;Node3</title>
<g id="a_edge15_Node000011_Node000003"><a xlink:title=" ">
<path fill="none" stroke="#63b8ff" d="M73.25,-77.63C61,-82.9 47.72,-88.62 37.43,-93.06"/>
<polygon fill="#63b8ff" stroke="#63b8ff" points="74.44,-80.93 82.25,-73.76 71.68,-74.5 74.44,-80.93"/>
</a>
</g>
</g>
<!-- Node11&#45;&gt;Node8 -->
<g id="edge14_Node000011_Node000008" class="edge">
<title>Node11&#45;&gt;Node8</title>
<g id="a_edge14_Node000011_Node000008"><a xlink:title=" ">
<path fill="none" stroke="#63b8ff" d="M156.31,-62.77C226.09,-62.77 357.62,-62.77 432.74,-62.77"/>
<polygon fill="#63b8ff" stroke="#63b8ff" points="156.35,-59.27 146.35,-62.77 156.35,-66.27 156.35,-59.27"/>
</a>
</g>
</g>
<!-- Node12&#45;&gt;Node6 -->
<g id="edge18_Node000012_Node000006" class="edge">
<title>Node12&#45;&gt;Node6</title>
<g id="a_edge18_Node000012_Node000006"><a xlink:title=" ">
<path fill="none" stroke="#63b8ff" d="M447.15,-164.13C430.99,-159.26 412.73,-153.76 397.37,-149.13"/>
<polygon fill="#63b8ff" stroke="#63b8ff" points="445.91,-167.41 456.5,-166.94 447.93,-160.71 445.91,-167.41"/>
</a>
</g>
</g>
<!-- Node13&#45;&gt;Node2 -->
<g id="edge20_Node000013_Node000002" class="edge">
<title>Node13&#45;&gt;Node2</title>
<g id="a_edge20_Node000013_Node000002"><a xlink:title=" ">
<path fill="none" stroke="#63b8ff" d="M571.61,-214.77C556.83,-214.77 541.81,-214.77 528.81,-214.77"/>
<polygon fill="#63b8ff" stroke="#63b8ff" points="571.31,-218.27 581.31,-214.77 571.31,-211.27 571.31,-218.27"/>
</a>
</g>
</g>
<!-- Node13&#45;&gt;Node5 -->
<g id="edge21_Node000013_Node000005" class="edge">
<title>Node13&#45;&gt;Node5</title>
<g id="a_edge21_Node000013_Node000005"><a xlink:title=" ">
<path fill="none" stroke="#63b8ff" d="M618.18,-198.13C599.35,-185.87 572.4,-169.38 547.25,-157.77 540.43,-154.63 532.94,-151.73 525.71,-149.2"/>
<polygon fill="#63b8ff" stroke="#63b8ff" points="616.21,-201.03 626.49,-203.62 620.07,-195.19 616.21,-201.03"/>
</a>
</g>
</g>
</g>
</svg>

<g id="navigator" transform="translate(0 0)" fill="#404254">
  <rect fill="#f2f5e9" fill-opacity="0.5" stroke="#606060" stroke-width=".5" x="0" y="0" width="60" height="60"/>
  <use id="zoomplus" xlink:href="#zoomPlus" x="17" y="9" onmousedown="handleZoom(evt,'in')"/>
  <use id="zoomminus" xlink:href="#zoomMin" x="42" y="9" onmousedown="handleZoom(evt,'out')"/>
  <use id="reset" xlink:href="#resetDef" x="30" y="36" onmousedown="handleReset()"/>
   <use id="arrowup" xlink:href="#arrowUp" x="0" y="0" onmousedown="handlePan(0,-1)"/>
  <use id="arrowright" xlink:href="#arrowRight" x="0" y="0" onmousedown="handlePan(1,0)"/>
  <use id="arrowdown" xlink:href="#arrowDown" x="0" y="0" onmousedown="handlePan(0,1)"/>
  <use id="arrowleft" xlink:href="#arrowLeft" x="0" y="0" onmousedown="handlePan(-1,0)"/>
</g>
<svg viewBox="0 0 15 15" width="100%" height="30px" preserveAspectRatio="xMaxYMin meet">
 <g id="arrow_out" transform="scale(0.3 0.3)">
  <a xlink:href="bouton_8h_a11f55905044ef2518b8c38311df3c48d_icgraph_org.svg" target="_base">
   <rect id="button" ry="5" rx="5" y="6" x="6" height="38" width="38"
        fill="#f2f5e9" fill-opacity="0.5" stroke="#606060" stroke-width="1.0"/>
   <path id="arrow"
     d="M 11.500037,31.436501 C 11.940474,20.09759 22.043105,11.32322 32.158766,21.979434 L 37.068811,17.246167 C 37.068811,17.246167 37.088388,32 37.088388,32 L 22.160133,31.978069 C 22.160133,31.978069 26.997745,27.140456 26.997745,27.140456 C 18.528582,18.264221 13.291696,25.230495 11.500037,31.436501 z"
     style="fill:#404040;"/>
  </a>
 </g>
</svg>

<style type='text/css'>
<![CDATA[
[data-mouse-over-selected='false'] { opacity: 0.7; }
[data-mouse-over-selected='true']  { opacity: 1.0; }
]]>
</style>
<script type="application/ecmascript"><![CDATA[
document.addEventListener('DOMContentLoaded', (event) => {
  highlightEdges();
  highlightAdjacentNodes();
});
]]></script>
</svg>
