<?xml version="1.0" encoding="UTF-8" standalone="no"?>
<!DOCTYPE svg PUBLIC "-//W3C//DTD SVG 1.1//EN"
 "http://www.w3.org/Graphics/SVG/1.1/DTD/svg11.dtd">
<!-- Generated by graphviz version 14.1.4 (20260321.0153)
 -->
<!-- Title: pointDansRect Pages: 1 -->
<!--zoomable 278 -->

<svg id="main" version="1.1" xmlns="http://www.w3.org/2000/svg" xmlns:xlink="http://www.w3.org/1999/xlink" xml:space="preserve" onload="init(evt)">

<style type="text/css"><![CDATA[
.node, .edge {opacity: 0.7;}
.node.selected, .edge.selected {opacity: 1;}
.edge:hover path { stroke: red; }
.edge:hover polygon { stroke: red; fill: red; }
]]></style>

<defs>
  <circle id="rim" cx="0" cy="0" r="7"/>
  <circle id="rim2" cx="0" cy="0" r="3.5"/>
  <g id="zoomPlus">
    <use xlink:href="#rim" fill="#404040"><set attributeName="fill" to="#808080" begin="zoomplus.mouseover" end="zoomplus.mouseout"/></use>
    <path d="M-4,0h8M0,-4v8" fill="none" stroke="white" stroke-width="1.5" pointer-events="none"/>
  </g>
  <g id="zoomMin">
    <use xlink:href="#rim" fill="#404040"><set attributeName="fill" to="#808080" begin="zoomminus.mouseover" end="zoomminus.mouseout"/></use>
    <path d="M-4,0h8" fill="none" stroke="white" stroke-width="1.5" pointer-events="none"/>
  </g>
  <g id="arrowUp" transform="translate(30 24)">
    <use xlink:href="#rim"/>
    <path pointer-events="none" fill="none" stroke="white" stroke-width="1.5" d="M0,-3.0v7 M-2.5,-0.5L0,-3.0L2.5,-0.5"/>
  </g>
  <g id="arrowRight" transform="rotate(90) translate(36 -43)">
    <use xlink:href="#rim"/>
    <path pointer-events="none" fill="none" stroke="white" stroke-width="1.5" d="M0,-3.0v7 M-2.5,-0.5L0,-3.0L2.5,-0.5"/>
  </g>
  <g id="arrowDown" transform="rotate(180) translate(-30 -48)">
    <use xlink:href="#rim"/>
    <path pointer-events="none" fill="none" stroke="white" stroke-width="1.5" d="M0,-3.0v7 M-2.5,-0.5L0,-3.0L2.5,-0.5"/>
  </g>
  <g id="arrowLeft" transform="rotate(270) translate(-36 17)">
    <use xlink:href="#rim"/>
    <path pointer-events="none" fill="none" stroke="white" stroke-width="1.5" d="M0,-3.0v7 M-2.5,-0.5L0,-3.0L2.5,-0.5"/>
  </g>
  <g id="resetDef">
    <use xlink:href="#rim2" fill="#404040"><set attributeName="fill" to="#808080" begin="reset.mouseover" end="reset.mouseout"/></use>
  </g>
</defs>
<script type="application/ecmascript">
var viewWidth = 811;
var viewHeight = 278;
var sectionId = 'dynsection-6';
</script>
<script type="application/ecmascript" xlink:href="svg.min.js"/>
<svg id="graph" class="graph">
<g id="viewport">
<title>pointDansRect</title>
<!-- Node1 -->
<g id="Node000001" class="node">
<title>Node1</title>
<g id="a_Node000001"><a xlink:title=" ">
<polygon fill="#999999" stroke="#666666" points="802.5,-117.75 721.25,-117.75 721.25,-97.75 802.5,-97.75 802.5,-117.75"/>
<text xml:space="preserve" text-anchor="middle" x="761.88" y="-104.25" font-family="Helvetica,sans-Serif" font-size="10.00">pointDansRect</text>
</a>
</g>
</g>
<!-- Node2 -->
<g id="Node000002" class="node">
<title>Node2</title>
<g id="a_Node000002"><a xlink:href="bouton_8c.html#ab4862740c43f8a9abb996fff0aba5ca1" target="_top" xlink:title="Met a jour l&#39;etat du bouton a partir d&#39;un evenement SDL.">
<polygon fill="white" stroke="#666666" points="685.25,-117.75 559.75,-117.75 559.75,-97.75 685.25,-97.75 685.25,-117.75"/>
<text xml:space="preserve" text-anchor="middle" x="622.5" y="-104.25" font-family="Helvetica,sans-Serif" font-size="10.00">Bouton_GererEvenement</text>
</a>
</g>
</g>
<!-- Node1&#45;&gt;Node2 -->
<g id="edge1_Node000001_Node000002" class="edge">
<title>Node1&#45;&gt;Node2</title>
<g id="a_edge1_Node000001_Node000002"><a xlink:title=" ">
<path fill="none" stroke="#63b8ff" d="M709.33,-107.75C701.6,-107.75 693.55,-107.75 685.63,-107.75"/>
<polygon fill="#63b8ff" stroke="#63b8ff" points="709.26,-111.25 719.26,-107.75 709.26,-104.25 709.26,-111.25"/>
</a>
</g>
</g>
<!-- Node3 -->
<g id="Node000003" class="node">
<title>Node3</title>
<g id="a_Node000003"><a xlink:href="map_8c.html#ad462ccdd50801fb085dc8134fc3765d1" target="_top" xlink:title="Affiche la carte et met a jour les elements visuels associes.">
<polygon fill="white" stroke="#666666" points="499,-212.75 427.5,-212.75 427.5,-192.75 499,-192.75 499,-212.75"/>
<text xml:space="preserve" text-anchor="middle" x="463.25" y="-199.25" font-family="Helvetica,sans-Serif" font-size="10.00">afficher_map</text>
</a>
</g>
</g>
<!-- Node2&#45;&gt;Node3 -->
<g id="edge2_Node000002_Node000003" class="edge">
<title>Node2&#45;&gt;Node3</title>
<g id="a_edge2_Node000002_Node000003"><a xlink:title=" ">
<path fill="none" stroke="#63b8ff" d="M594.65,-123.97C562.22,-143.56 508.64,-175.93 481.36,-192.41"/>
<polygon fill="#63b8ff" stroke="#63b8ff" points="596.33,-127.05 603.08,-118.88 592.71,-121.05 596.33,-127.05"/>
</a>
</g>
</g>
<!-- Node8 -->
<g id="Node000008" class="node">
<title>Node8</title>
<g id="a_Node000008"><a xlink:href="menu_8c.html#a55097e0b77b0fabc6cae44137b9a839a" target="_top" xlink:title="Affiche menu et met a jour les elements visuels associes.">
<polygon fill="white" stroke="#666666" points="348,-41.75 271.25,-41.75 271.25,-21.75 348,-21.75 348,-41.75"/>
<text xml:space="preserve" text-anchor="middle" x="309.62" y="-28.25" font-family="Helvetica,sans-Serif" font-size="10.00">afficher_menu</text>
</a>
</g>
</g>
<!-- Node2&#45;&gt;Node8 -->
<g id="edge9_Node000002_Node000008" class="edge">
<title>Node2&#45;&gt;Node8</title>
<g id="a_edge9_Node000002_Node000008"><a xlink:title=" ">
<path fill="none" stroke="#63b8ff" d="M608.65,-88.21C592.17,-65.13 561.19,-27.94 523.75,-12.75 461.45,12.54 380.71,-7.43 338.74,-21.3"/>
<polygon fill="#63b8ff" stroke="#63b8ff" points="605.58,-89.92 614.13,-96.17 611.34,-85.95 605.58,-89.92"/>
</a>
</g>
</g>
<!-- Node9 -->
<g id="Node000009" class="node">
<title>Node9</title>
<g id="a_Node000009"><a xlink:href="option_8c.html#ac77b6b0f042469d82d75b270f5193806" target="_top" xlink:title="Affiche option et met a jour les elements visuels associes.">
<polygon fill="white" stroke="#666666" points="502.75,-155.75 423.75,-155.75 423.75,-135.75 502.75,-135.75 502.75,-155.75"/>
<text xml:space="preserve" text-anchor="middle" x="463.25" y="-142.25" font-family="Helvetica,sans-Serif" font-size="10.00">afficher_option</text>
</a>
</g>
</g>
<!-- Node2&#45;&gt;Node9 -->
<g id="edge11_Node000002_Node000009" class="edge">
<title>Node2&#45;&gt;Node9</title>
<g id="a_edge11_Node000002_Node000009"><a xlink:title=" ">
<path fill="none" stroke="#63b8ff" d="M567.07,-120.9C546.05,-125.98 522.47,-131.68 503.2,-136.34"/>
<polygon fill="#63b8ff" stroke="#63b8ff" points="567.75,-124.34 576.64,-118.59 566.1,-117.54 567.75,-124.34"/>
</a>
</g>
</g>
<!-- Node10 -->
<g id="Node000010" class="node">
<title>Node10</title>
<g id="a_Node000010"><a xlink:href="pause_8c.html#abc45a9e3a6a57d6f0f44706bd52e556d" target="_top" xlink:title="Affiche pause et met a jour les elements visuels associes.">
<polygon fill="white" stroke="#666666" points="349.12,-117.75 270.12,-117.75 270.12,-97.75 349.12,-97.75 349.12,-117.75"/>
<text xml:space="preserve" text-anchor="middle" x="309.62" y="-104.25" font-family="Helvetica,sans-Serif" font-size="10.00">afficher_pause</text>
</a>
</g>
</g>
<!-- Node2&#45;&gt;Node10 -->
<g id="edge16_Node000002_Node000010" class="edge">
<title>Node2&#45;&gt;Node10</title>
<g id="a_edge16_Node000002_Node000010"><a xlink:title=" ">
<path fill="none" stroke="#63b8ff" d="M548.03,-107.75C485.86,-107.75 399.18,-107.75 349.59,-107.75"/>
<polygon fill="#63b8ff" stroke="#63b8ff" points="547.82,-111.25 557.82,-107.75 547.82,-104.25 547.82,-111.25"/>
</a>
</g>
</g>
<!-- Node12 -->
<g id="Node000012" class="node">
<title>Node12</title>
<g id="a_Node000012"><a xlink:href="shop_8c.html#ad1ea096e4fe280946f862273fc94eb30" target="_top" xlink:title="Affiche shop et met a jour les elements visuels associes.">
<polygon fill="white" stroke="#666666" points="500.12,-250.75 426.38,-250.75 426.38,-230.75 500.12,-230.75 500.12,-250.75"/>
<text xml:space="preserve" text-anchor="middle" x="463.25" y="-237.25" font-family="Helvetica,sans-Serif" font-size="10.00">afficher_shop</text>
</a>
</g>
</g>
<!-- Node2&#45;&gt;Node12 -->
<g id="edge17_Node000002_Node000012" class="edge">
<title>Node2&#45;&gt;Node12</title>
<g id="a_edge17_Node000002_Node000012"><a xlink:title=" ">
<path fill="none" stroke="#63b8ff" d="M609.51,-127.57C593.17,-152.96 561.58,-196.66 523.75,-221.75 516.7,-226.42 508.42,-230.01 500.32,-232.75"/>
<polygon fill="#63b8ff" stroke="#63b8ff" points="612.41,-129.54 614.75,-119.21 606.48,-125.83 612.41,-129.54"/>
</a>
</g>
</g>
<!-- Node13 -->
<g id="Node000013" class="node">
<title>Node13</title>
<g id="a_Node000013"><a xlink:href="game__over_8c.html#a37d3fac8300008a434af7c66a4e695d0" target="_top" xlink:title="Affiche l&#39;ecran de game over et traite le choix du joueur.">
<polygon fill="white" stroke="#666666" points="341.62,-79.75 277.62,-79.75 277.62,-59.75 341.62,-59.75 341.62,-79.75"/>
<text xml:space="preserve" text-anchor="middle" x="309.62" y="-66.25" font-family="Helvetica,sans-Serif" font-size="10.00">game_over</text>
</a>
</g>
</g>
<!-- Node2&#45;&gt;Node13 -->
<g id="edge19_Node000002_Node000013" class="edge">
<title>Node2&#45;&gt;Node13</title>
<g id="a_edge19_Node000002_Node000013"><a xlink:title=" ">
<path fill="none" stroke="#63b8ff" d="M548.25,-98.8C482.7,-90.78 389.77,-79.42 341.87,-73.57"/>
<polygon fill="#63b8ff" stroke="#63b8ff" points="547.48,-102.23 557.83,-99.97 548.33,-95.28 547.48,-102.23"/>
</a>
</g>
</g>
<!-- Node14 -->
<g id="Node000014" class="node">
<title>Node14</title>
<g id="a_Node000014"><a xlink:href="sauvegarde_8c.html#ae251037c85a5a7d8172c206539398f49" target="_top" xlink:title="Affiche l&#39;interface de selection de slot (chargement ou sauvegarde).">
<polygon fill="white" stroke="#666666" points="523.75,-41.75 402.75,-41.75 402.75,-21.75 523.75,-21.75 523.75,-41.75"/>
<text xml:space="preserve" text-anchor="middle" x="463.25" y="-28.25" font-family="Helvetica,sans-Serif" font-size="10.00">sauvegarde_choisir_slot</text>
</a>
</g>
</g>
<!-- Node2&#45;&gt;Node14 -->
<g id="edge21_Node000002_Node000014" class="edge">
<title>Node2&#45;&gt;Node14</title>
<g id="a_edge21_Node000002_Node000014"><a xlink:title=" ">
<path fill="none" stroke="#63b8ff" d="M593.47,-91.82C574.14,-81.09 547.71,-66.92 523.75,-55.75 513.45,-50.95 501.91,-46.16 491.76,-42.14"/>
<polygon fill="#63b8ff" stroke="#63b8ff" points="591.66,-94.82 602.09,-96.65 595.08,-88.71 591.66,-94.82"/>
</a>
</g>
</g>
<!-- Node4 -->
<g id="Node000004" class="node">
<title>Node4</title>
<g id="a_Node000004"><a xlink:href="vaisseau_8c.html#ace614afc8df3a40bd5ea0771044ff217" target="_top" xlink:title=" ">
<polygon fill="white" stroke="#666666" points="366.75,-269.75 252.5,-269.75 252.5,-249.75 366.75,-249.75 366.75,-269.75"/>
<text xml:space="preserve" text-anchor="middle" x="309.62" y="-256.25" font-family="Helvetica,sans-Serif" font-size="10.00">gerer_interaction_objet</text>
</a>
</g>
</g>
<!-- Node3&#45;&gt;Node4 -->
<g id="edge3_Node000003_Node000004" class="edge">
<title>Node3&#45;&gt;Node4</title>
<g id="a_edge3_Node000003_Node000004"><a xlink:title=" ">
<path fill="none" stroke="#63b8ff" d="M417.18,-216.71C412.29,-218.35 407.4,-220.05 402.75,-221.75 379.19,-230.36 352.76,-241.4 334.27,-249.37"/>
<polygon fill="#63b8ff" stroke="#63b8ff" points="417.95,-220.14 426.35,-213.7 415.76,-213.49 417.95,-220.14"/>
</a>
</g>
</g>
<!-- Node7 -->
<g id="Node000007" class="node">
<title>Node7</title>
<g id="a_Node000007"><a xlink:href="main_8c.html#a0ddf1224851353fc92bfbff6f499fa97" target="_top" xlink:title=" ">
<polygon fill="white" stroke="#666666" points="73.75,-155.75 36.75,-155.75 36.75,-135.75 73.75,-135.75 73.75,-155.75"/>
<text xml:space="preserve" text-anchor="middle" x="55.25" y="-142.25" font-family="Helvetica,sans-Serif" font-size="10.00">main</text>
</a>
</g>
</g>
<!-- Node3&#45;&gt;Node7 -->
<g id="edge8_Node000003_Node000007" class="edge">
<title>Node3&#45;&gt;Node7</title>
<g id="a_edge8_Node000003_Node000007"><a xlink:title=" ">
<path fill="none" stroke="#63b8ff" d="M415.92,-196.71C354.34,-188.63 242.16,-173.68 146.5,-159.75 121.4,-156.09 92.42,-151.54 74.21,-148.64"/>
<polygon fill="#63b8ff" stroke="#63b8ff" points="415.31,-200.16 425.68,-197.99 416.22,-193.22 415.31,-200.16"/>
</a>
</g>
</g>
<!-- Node5 -->
<g id="Node000005" class="node">
<title>Node5</title>
<g id="a_Node000005"><a xlink:href="vaisseau_8c.html#a8ea9afc9440149ddd36e96b97d8ed6c5" target="_top" xlink:title="Lance la scene interieure du vaisseau (deplacement, interactions, mini&#45;jeux, sortie).">
<polygon fill="white" stroke="#666666" points="209,-269.75 154,-269.75 154,-249.75 209,-249.75 209,-269.75"/>
<text xml:space="preserve" text-anchor="middle" x="181.5" y="-256.25" font-family="Helvetica,sans-Serif" font-size="10.00">vaisseau</text>
</a>
</g>
</g>
<!-- Node4&#45;&gt;Node5 -->
<g id="edge4_Node000004_Node000005" class="edge">
<title>Node4&#45;&gt;Node5</title>
<g id="a_edge4_Node000004_Node000005"><a xlink:title=" ">
<path fill="none" stroke="#63b8ff" d="M240.95,-259.75C229.7,-259.75 218.65,-259.75 209.24,-259.75"/>
<polygon fill="#63b8ff" stroke="#63b8ff" points="240.69,-263.25 250.69,-259.75 240.69,-256.25 240.69,-263.25"/>
</a>
</g>
</g>
<!-- Node6 -->
<g id="Node000006" class="node">
<title>Node6</title>
<g id="a_Node000006"><a xlink:href="cinematique_8c.html#a418cc3e727578f4cd509ad27cd6a2a31" target="_top" xlink:title="Lance cinematique fin et gere son deroulement complet.">
<polygon fill="white" stroke="#666666" points="110.5,-250.75 0,-250.75 0,-230.75 110.5,-230.75 110.5,-250.75"/>
<text xml:space="preserve" text-anchor="middle" x="55.25" y="-237.25" font-family="Helvetica,sans-Serif" font-size="10.00">jouer_cinematique_fin</text>
</a>
</g>
</g>
<!-- Node5&#45;&gt;Node6 -->
<g id="edge5_Node000005_Node000006" class="edge">
<title>Node5&#45;&gt;Node6</title>
<g id="a_edge5_Node000005_Node000006"><a xlink:title=" ">
<path fill="none" stroke="#63b8ff" d="M142.41,-253.92C132.48,-252.41 121.58,-250.74 110.98,-249.12"/>
<polygon fill="#63b8ff" stroke="#63b8ff" points="141.63,-257.35 152.04,-255.4 142.69,-250.43 141.63,-257.35"/>
</a>
</g>
</g>
<!-- Node5&#45;&gt;Node7 -->
<g id="edge7_Node000005_Node000007" class="edge">
<title>Node5&#45;&gt;Node7</title>
<g id="a_edge7_Node000005_Node000007"><a xlink:title=" ">
<path fill="none" stroke="#63b8ff" d="M161.06,-241.91C134.73,-217.75 88.59,-175.42 67.43,-156.01"/>
<polygon fill="#63b8ff" stroke="#63b8ff" points="158.62,-244.43 168.36,-248.61 163.36,-239.27 158.62,-244.43"/>
</a>
</g>
</g>
<!-- Node6&#45;&gt;Node3 -->
<g id="edge6_Node000006_Node000003" class="edge">
<title>Node6&#45;&gt;Node3</title>
<g id="a_edge6_Node000006_Node000003"><a xlink:title=" ">
<path fill="none" stroke="#63b8ff" d="M122.33,-234.56C209.44,-226.41 359.54,-212.36 427.28,-206.02"/>
<polygon fill="#63b8ff" stroke="#63b8ff" points="122.13,-231.07 112.5,-235.48 122.78,-238.04 122.13,-231.07"/>
</a>
</g>
</g>
<!-- Node8&#45;&gt;Node7 -->
<g id="edge10_Node000008_Node000007" class="edge">
<title>Node8&#45;&gt;Node7</title>
<g id="a_edge10_Node000008_Node000007"><a xlink:title=" ">
<path fill="none" stroke="#63b8ff" d="M266.91,-45.78C262.05,-47.44 257.16,-49.12 252.5,-50.75 205.24,-67.22 191.48,-66.81 146.5,-88.75 118.18,-102.56 87.68,-123.16 70.38,-135.45"/>
<polygon fill="#63b8ff" stroke="#63b8ff" points="267.65,-49.23 275.99,-42.69 265.39,-42.6 267.65,-49.23"/>
</a>
</g>
</g>
<!-- Node9&#45;&gt;Node7 -->
<g id="edge15_Node000009_Node000007" class="edge">
<title>Node9&#45;&gt;Node7</title>
<g id="a_edge15_Node000009_Node000007"><a xlink:title=" ">
<path fill="none" stroke="#63b8ff" d="M411.92,-145.75C320.83,-145.75 132.64,-145.75 74.05,-145.75"/>
<polygon fill="#63b8ff" stroke="#63b8ff" points="411.81,-149.25 421.81,-145.75 411.81,-142.25 411.81,-149.25"/>
</a>
</g>
</g>
<!-- Node9&#45;&gt;Node10 -->
<g id="edge12_Node000009_Node000010" class="edge">
<title>Node9&#45;&gt;Node10</title>
<g id="a_edge12_Node000009_Node000010"><a xlink:title=" ">
<path fill="none" stroke="#63b8ff" d="M412.56,-133.3C392.06,-128.16 368.67,-122.3 349.47,-117.48"/>
<polygon fill="#63b8ff" stroke="#63b8ff" points="411.58,-136.66 422.13,-135.69 413.28,-129.87 411.58,-136.66"/>
</a>
</g>
</g>
<!-- Node11 -->
<g id="Node000011" class="node">
<title>Node11</title>
<g id="a_Node000011"><a xlink:href="jeux_8c.html#a2d7491d04e8c2bdb52bb6ed7d75e4d78" target="_top" xlink:title="Execute la boucle principale de gameplay pour la planete courante.">
<polygon fill="white" stroke="#666666" points="216.5,-117.75 146.5,-117.75 146.5,-97.75 216.5,-97.75 216.5,-117.75"/>
<text xml:space="preserve" text-anchor="middle" x="181.5" y="-104.25" font-family="Helvetica,sans-Serif" font-size="10.00">jeu_principal</text>
</a>
</g>
</g>
<!-- Node10&#45;&gt;Node11 -->
<g id="edge13_Node000010_Node000011" class="edge">
<title>Node10&#45;&gt;Node11</title>
<g id="a_edge13_Node000010_Node000011"><a xlink:title=" ">
<path fill="none" stroke="#63b8ff" d="M258.31,-107.75C244.36,-107.75 229.55,-107.75 216.76,-107.75"/>
<polygon fill="#63b8ff" stroke="#63b8ff" points="258.24,-111.25 268.24,-107.75 258.24,-104.25 258.24,-111.25"/>
</a>
</g>
</g>
<!-- Node11&#45;&gt;Node7 -->
<g id="edge14_Node000011_Node000007" class="edge">
<title>Node11&#45;&gt;Node7</title>
<g id="a_edge14_Node000011_Node000007"><a xlink:title=" ">
<path fill="none" stroke="#63b8ff" d="M135.41,-121.54C114.12,-128.05 89.95,-135.44 73.97,-140.33"/>
<polygon fill="#63b8ff" stroke="#63b8ff" points="136.23,-124.95 144.77,-118.68 134.19,-118.25 136.23,-124.95"/>
</a>
</g>
</g>
<!-- Node12&#45;&gt;Node4 -->
<g id="edge18_Node000012_Node000004" class="edge">
<title>Node12&#45;&gt;Node4</title>
<g id="a_edge18_Node000012_Node000004"><a xlink:title=" ">
<path fill="none" stroke="#63b8ff" d="M414.76,-246.7C399.64,-248.59 382.77,-250.71 367.08,-252.67"/>
<polygon fill="#63b8ff" stroke="#63b8ff" points="414.94,-250.2 424.43,-245.49 414.07,-243.26 414.94,-250.2"/>
</a>
</g>
</g>
<!-- Node13&#45;&gt;Node11 -->
<g id="edge20_Node000013_Node000011" class="edge">
<title>Node13&#45;&gt;Node11</title>
<g id="a_edge20_Node000013_Node000011"><a xlink:title=" ">
<path fill="none" stroke="#63b8ff" d="M266.65,-82.4C250.49,-87.27 232.23,-92.77 216.87,-97.4"/>
<polygon fill="#63b8ff" stroke="#63b8ff" points="267.43,-85.82 276,-79.58 265.41,-79.11 267.43,-85.82"/>
</a>
</g>
</g>
<!-- Node14&#45;&gt;Node8 -->
<g id="edge22_Node000014_Node000008" class="edge">
<title>Node14&#45;&gt;Node8</title>
<g id="a_edge22_Node000014_Node000008"><a xlink:title=" ">
<path fill="none" stroke="#63b8ff" d="M391.11,-31.75C376.33,-31.75 361.31,-31.75 348.31,-31.75"/>
<polygon fill="#63b8ff" stroke="#63b8ff" points="390.81,-35.25 400.81,-31.75 390.81,-28.25 390.81,-35.25"/>
</a>
</g>
</g>
<!-- Node14&#45;&gt;Node10 -->
<g id="edge23_Node000014_Node000010" class="edge">
<title>Node14&#45;&gt;Node10</title>
<g id="a_edge23_Node000014_Node000010"><a xlink:title=" ">
<path fill="none" stroke="#63b8ff" d="M437.68,-48.39C418.85,-60.65 391.9,-77.15 366.75,-88.75 359.93,-91.9 352.44,-94.79 345.21,-97.33"/>
<polygon fill="#63b8ff" stroke="#63b8ff" points="439.57,-51.34 445.99,-42.9 435.71,-45.5 439.57,-51.34"/>
</a>
</g>
</g>
</g>
</svg>

<g id="navigator" transform="translate(0 0)" fill="#404254">
  <rect fill="#f2f5e9" fill-opacity="0.5" stroke="#606060" stroke-width=".5" x="0" y="0" width="60" height="60"/>
  <use id="zoomplus" xlink:href="#zoomPlus" x="17" y="9" onmousedown="handleZoom(evt,'in')"/>
  <use id="zoomminus" xlink:href="#zoomMin" x="42" y="9" onmousedown="handleZoom(evt,'out')"/>
  <use id="reset" xlink:href="#resetDef" x="30" y="36" onmousedown="handleReset()"/>
   <use id="arrowup" xlink:href="#arrowUp" x="0" y="0" onmousedown="handlePan(0,-1)"/>
  <use id="arrowright" xlink:href="#arrowRight" x="0" y="0" onmousedown="handlePan(1,0)"/>
  <use id="arrowdown" xlink:href="#arrowDown" x="0" y="0" onmousedown="handlePan(0,1)"/>
  <use id="arrowleft" xlink:href="#arrowLeft" x="0" y="0" onmousedown="handlePan(-1,0)"/>
</g>
<svg viewBox="0 0 15 15" width="100%" height="30px" preserveAspectRatio="xMaxYMin meet">
 <g id="arrow_out" transform="scale(0.3 0.3)">
  <a xlink:href="bouton_8c_a273a0b22067678e17b3e6b4be36e3641_icgraph_org.svg" target="_base">
   <rect id="button" ry="5" rx="5" y="6" x="6" height="38" width="38"
        fill="#f2f5e9" fill-opacity="0.5" stroke="#606060" stroke-width="1.0"/>
   <path id="arrow"
     d="M 11.500037,31.436501 C 11.940474,20.09759 22.043105,11.32322 32.158766,21.979434 L 37.068811,17.246167 C 37.068811,17.246167 37.088388,32 37.088388,32 L 22.160133,31.978069 C 22.160133,31.978069 26.997745,27.140456 26.997745,27.140456 C 18.528582,18.264221 13.291696,25.230495 11.500037,31.436501 z"
     style="fill:#404040;"/>
  </a>
 </g>
</svg>

<style type='text/css'>
<![CDATA[
[data-mouse-over-selected='false'] { opacity: 0.7; }
[data-mouse-over-selected='true']  { opacity: 1.0; }
]]>
</style>
<script type="application/ecmascript"><![CDATA[
document.addEventListener('DOMContentLoaded', (event) => {
  highlightEdges();
  highlightAdjacentNodes();
});
]]></script>
</svg>
