<?xml version="1.0" encoding="UTF-8" standalone="no"?>
<!DOCTYPE svg PUBLIC "-//W3C//DTD SVG 1.1//EN"
 "http://www.w3.org/Graphics/SVG/1.1/DTD/svg11.dtd">
<!-- Generated by graphviz version 14.1.4 (20260321.0153)
 -->
<!-- Title: rendre_texture_centre Pages: 1 -->
<svg width="346pt" height="28pt"
 viewBox="0.00 0.00 346.00 28.00" xmlns="http://www.w3.org/2000/svg" xmlns:xlink="http://www.w3.org/1999/xlink">
<g id="graph0" class="graph" transform="scale(1 1) rotate(0) translate(4 24)">
<title>rendre_texture_centre</title>
<!-- Node1 -->
<g id="Node000001" class="node">
<title>Node1</title>
<g id="a_Node000001"><a xlink:title=" ">
<polygon fill="#999999" stroke="#666666" points="338.25,-20 227.75,-20 227.75,0 338.25,0 338.25,-20"/>
<text xml:space="preserve" text-anchor="middle" x="283" y="-6.5" font-family="Helvetica,sans-Serif" font-size="10.00">rendre_texture_centre</text>
</a>
</g>
</g>
<!-- Node2 -->
<g id="Node000002" class="node">
<title>Node2</title>
<g id="a_Node000002"><a xlink:href="cinematique_8c.html#af69d52622c7f776157f49a31ef1dae29" target="_top" xlink:title="Lance cinematique intro et gere son deroulement complet.">
<polygon fill="white" stroke="#666666" points="191.75,-20 73,-20 73,0 191.75,0 191.75,-20"/>
<text xml:space="preserve" text-anchor="middle" x="132.38" y="-6.5" font-family="Helvetica,sans-Serif" font-size="10.00">jouer_cinematique_intro</text>
</a>
</g>
</g>
<!-- Node1&#45;&gt;Node2 -->
<g id="edge1_Node000001_Node000002" class="edge">
<title>Node1&#45;&gt;Node2</title>
<g id="a_edge1_Node000001_Node000002"><a xlink:title=" ">
<path fill="none" stroke="#63b8ff" d="M216.26,-10C208.22,-10 200.05,-10 192.12,-10"/>
<polygon fill="#63b8ff" stroke="#63b8ff" points="215.99,-13.5 225.99,-10 215.99,-6.5 215.99,-13.5"/>
</a>
</g>
</g>
<!-- Node3 -->
<g id="Node000003" class="node">
<title>Node3</title>
<g id="a_Node000003"><a xlink:href="main_8c.html#a0ddf1224851353fc92bfbff6f499fa97" target="_top" xlink:title=" ">
<polygon fill="white" stroke="#666666" points="37,-20 0,-20 0,0 37,0 37,-20"/>
<text xml:space="preserve" text-anchor="middle" x="18.5" y="-6.5" font-family="Helvetica,sans-Serif" font-size="10.00">main</text>
</a>
</g>
</g>
<!-- Node2&#45;&gt;Node3 -->
<g id="edge2_Node000002_Node000003" class="edge">
<title>Node2&#45;&gt;Node3</title>
<g id="a_edge2_Node000002_Node000003"><a xlink:title=" ">
<path fill="none" stroke="#63b8ff" d="M61.45,-10C52.63,-10 44.3,-10 37.43,-10"/>
<polygon fill="#63b8ff" stroke="#63b8ff" points="61.3,-13.5 71.3,-10 61.3,-6.5 61.3,-13.5"/>
</a>
</g>
</g>
</g>
</svg>
