<?xml version="1.0" encoding="UTF-8" standalone="no"?>
<!DOCTYPE svg PUBLIC "-//W3C//DTD SVG 1.1//EN"
 "http://www.w3.org/Graphics/SVG/1.1/DTD/svg11.dtd">
<!-- Generated by graphviz version 14.1.4 (20260321.0153)
 -->
<!-- Title: borner01 Pages: 1 -->
<svg width="718pt" height="124pt"
 viewBox="0.00 0.00 718.00 124.00" xmlns="http://www.w3.org/2000/svg" xmlns:xlink="http://www.w3.org/1999/xlink">
<g id="graph0" class="graph" transform="scale(1 1) rotate(0) translate(4 119.59)">
<title>borner01</title>
<!-- Node1 -->
<g id="Node000001" class="node">
<title>Node1</title>
<g id="a_Node000001"><a xlink:title=" ">
<polygon fill="#999999" stroke="#666666" points="710.25,-77.59 656.75,-77.59 656.75,-57.59 710.25,-57.59 710.25,-77.59"/>
<text xml:space="preserve" text-anchor="middle" x="683.5" y="-64.09" font-family="Helvetica,sans-Serif" font-size="10.00">borner01</text>
</a>
</g>
</g>
<!-- Node2 -->
<g id="Node000002" class="node">
<title>Node2</title>
<g id="a_Node000002"><a xlink:href="cinematique_8c.html#a3f45f73f9fa4c87ee3ab7ea9443756cd" target="_top" xlink:title=" ">
<polygon fill="white" stroke="#666666" points="620.75,-115.59 489.25,-115.59 489.25,-95.59 620.75,-95.59 620.75,-115.59"/>
<text xml:space="preserve" text-anchor="middle" x="555" y="-102.09" font-family="Helvetica,sans-Serif" font-size="10.00">acceleration_decroissance</text>
</a>
</g>
</g>
<!-- Node1&#45;&gt;Node2 -->
<g id="edge1_Node000001_Node000002" class="edge">
<title>Node1&#45;&gt;Node2</title>
<g id="a_edge1_Node000001_Node000002"><a xlink:title=" ">
<path fill="none" stroke="#63b8ff" d="M645.47,-78.71C628.22,-83.9 607.79,-90.03 590.82,-95.13"/>
<polygon fill="#63b8ff" stroke="#63b8ff" points="646.27,-82.13 654.84,-75.9 644.26,-75.43 646.27,-82.13"/>
</a>
</g>
</g>
<!-- Node3 -->
<g id="Node000003" class="node">
<title>Node3</title>
<g id="a_Node000003"><a xlink:href="cinematique_8c.html#a68c4780c65b14d27f0088cfc6514eb60" target="_top" xlink:title="Lance cinematique crash et gere son deroulement complet.">
<polygon fill="white" stroke="#666666" points="453.25,-115.59 329.25,-115.59 329.25,-95.59 453.25,-95.59 453.25,-115.59"/>
<text xml:space="preserve" text-anchor="middle" x="391.25" y="-102.09" font-family="Helvetica,sans-Serif" font-size="10.00">jouer_cinematique_crash</text>
</a>
</g>
</g>
<!-- Node1&#45;&gt;Node3 -->
<g id="edge5_Node000001_Node000003" class="edge">
<title>Node1&#45;&gt;Node3</title>
<g id="a_edge5_Node000001_Node000003"><a xlink:title=" ">
<path fill="none" stroke="#63b8ff" d="M645.16,-70.2C606.14,-73.17 543.21,-78.67 489.25,-86.59 473.46,-88.91 456.34,-92.05 440.94,-95.11"/>
<polygon fill="#63b8ff" stroke="#63b8ff" points="645.24,-73.7 654.95,-69.47 644.72,-66.72 645.24,-73.7"/>
</a>
</g>
</g>
<!-- Node6 -->
<g id="Node000006" class="node">
<title>Node6</title>
<g id="a_Node000006"><a xlink:href="cinematique_8c.html#a418cc3e727578f4cd509ad27cd6a2a31" target="_top" xlink:title="Lance cinematique fin et gere son deroulement complet.">
<polygon fill="white" stroke="#666666" points="610.25,-39.59 499.75,-39.59 499.75,-19.59 610.25,-19.59 610.25,-39.59"/>
<text xml:space="preserve" text-anchor="middle" x="555" y="-26.09" font-family="Helvetica,sans-Serif" font-size="10.00">jouer_cinematique_fin</text>
</a>
</g>
</g>
<!-- Node1&#45;&gt;Node6 -->
<g id="edge6_Node000001_Node000006" class="edge">
<title>Node1&#45;&gt;Node6</title>
<g id="a_edge6_Node000001_Node000006"><a xlink:title=" ">
<path fill="none" stroke="#63b8ff" d="M645.47,-56.47C628.22,-51.28 607.79,-45.15 590.82,-40.05"/>
<polygon fill="#63b8ff" stroke="#63b8ff" points="644.26,-59.76 654.84,-59.28 646.27,-53.05 644.26,-59.76"/>
</a>
</g>
</g>
<!-- Node2&#45;&gt;Node3 -->
<g id="edge2_Node000002_Node000003" class="edge">
<title>Node2&#45;&gt;Node3</title>
<g id="a_edge2_Node000002_Node000003"><a xlink:title=" ">
<path fill="none" stroke="#63b8ff" d="M477.8,-105.59C469.72,-105.59 461.59,-105.59 453.71,-105.59"/>
<polygon fill="#63b8ff" stroke="#63b8ff" points="477.63,-109.09 487.63,-105.59 477.63,-102.09 477.63,-109.09"/>
</a>
</g>
</g>
<!-- Node4 -->
<g id="Node000004" class="node">
<title>Node4</title>
<g id="a_Node000004"><a xlink:href="jeux_8c.html#a2d7491d04e8c2bdb52bb6ed7d75e4d78" target="_top" xlink:title="Execute la boucle principale de gameplay pour la planete courante.">
<polygon fill="white" stroke="#666666" points="143,-115.59 73,-115.59 73,-95.59 143,-95.59 143,-115.59"/>
<text xml:space="preserve" text-anchor="middle" x="108" y="-102.09" font-family="Helvetica,sans-Serif" font-size="10.00">jeu_principal</text>
</a>
</g>
</g>
<!-- Node3&#45;&gt;Node4 -->
<g id="edge3_Node000003_Node000004" class="edge">
<title>Node3&#45;&gt;Node4</title>
<g id="a_edge3_Node000003_Node000004"><a xlink:title=" ">
<path fill="none" stroke="#63b8ff" d="M317.57,-105.59C261.49,-105.59 186.42,-105.59 143.33,-105.59"/>
<polygon fill="#63b8ff" stroke="#63b8ff" points="317.36,-109.09 327.36,-105.59 317.36,-102.09 317.36,-109.09"/>
</a>
</g>
</g>
<!-- Node5 -->
<g id="Node000005" class="node">
<title>Node5</title>
<g id="a_Node000005"><a xlink:href="main_8c.html#a0ddf1224851353fc92bfbff6f499fa97" target="_top" xlink:title=" ">
<polygon fill="white" stroke="#666666" points="37,-77.59 0,-77.59 0,-57.59 37,-57.59 37,-77.59"/>
<text xml:space="preserve" text-anchor="middle" x="18.5" y="-64.09" font-family="Helvetica,sans-Serif" font-size="10.00">main</text>
</a>
</g>
</g>
<!-- Node4&#45;&gt;Node5 -->
<g id="edge4_Node000004_Node000005" class="edge">
<title>Node4&#45;&gt;Node5</title>
<g id="a_edge4_Node000004_Node000005"><a xlink:title=" ">
<path fill="none" stroke="#63b8ff" d="M72.79,-90.73C60.65,-85.46 47.48,-79.74 37.27,-75.31"/>
<polygon fill="#63b8ff" stroke="#63b8ff" points="71.14,-93.83 81.7,-94.6 73.92,-87.41 71.14,-93.83"/>
</a>
</g>
</g>
<!-- Node7 -->
<g id="Node000007" class="node">
<title>Node7</title>
<g id="a_Node000007"><a xlink:href="map_8c.html#ad462ccdd50801fb085dc8134fc3765d1" target="_top" xlink:title="Affiche la carte et met a jour les elements visuels associes.">
<polygon fill="white" stroke="#666666" points="427,-39.59 355.5,-39.59 355.5,-19.59 427,-19.59 427,-39.59"/>
<text xml:space="preserve" text-anchor="middle" x="391.25" y="-26.09" font-family="Helvetica,sans-Serif" font-size="10.00">afficher_map</text>
</a>
</g>
</g>
<!-- Node6&#45;&gt;Node7 -->
<g id="edge7_Node000006_Node000007" class="edge">
<title>Node6&#45;&gt;Node7</title>
<g id="a_edge7_Node000006_Node000007"><a xlink:title=" ">
<path fill="none" stroke="#63b8ff" d="M488.29,-29.59C467.44,-29.59 445.19,-29.59 427.37,-29.59"/>
<polygon fill="#63b8ff" stroke="#63b8ff" points="488.18,-33.09 498.18,-29.59 488.18,-26.09 488.18,-33.09"/>
</a>
</g>
</g>
<!-- Node7&#45;&gt;Node5 -->
<g id="edge12_Node000007_Node000005" class="edge">
<title>Node7&#45;&gt;Node5</title>
<g id="a_edge12_Node000007_Node000005"><a xlink:title=" ">
<path fill="none" stroke="#63b8ff" d="M344.15,-39.84C328.11,-43.08 309.95,-46.38 293.25,-48.59 197.14,-61.29 80.85,-65.81 37.19,-67.12"/>
<polygon fill="#63b8ff" stroke="#63b8ff" points="344.84,-43.27 353.92,-37.81 343.42,-36.41 344.84,-43.27"/>
</a>
</g>
</g>
<!-- Node8 -->
<g id="Node000008" class="node">
<title>Node8</title>
<g id="a_Node000008"><a xlink:href="vaisseau_8c.html#ace614afc8df3a40bd5ea0771044ff217" target="_top" xlink:title=" ">
<polygon fill="white" stroke="#666666" points="293.25,-39.59 179,-39.59 179,-19.59 293.25,-19.59 293.25,-39.59"/>
<text xml:space="preserve" text-anchor="middle" x="236.12" y="-26.09" font-family="Helvetica,sans-Serif" font-size="10.00">gerer_interaction_objet</text>
</a>
</g>
</g>
<!-- Node7&#45;&gt;Node8 -->
<g id="edge8_Node000007_Node000008" class="edge">
<title>Node7&#45;&gt;Node8</title>
<g id="a_edge8_Node000007_Node000008"><a xlink:title=" ">
<path fill="none" stroke="#63b8ff" d="M344,-29.59C328.16,-29.59 310.26,-29.59 293.7,-29.59"/>
<polygon fill="#63b8ff" stroke="#63b8ff" points="343.61,-33.09 353.61,-29.59 343.61,-26.09 343.61,-33.09"/>
</a>
</g>
</g>
<!-- Node9 -->
<g id="Node000009" class="node">
<title>Node9</title>
<g id="a_Node000009"><a xlink:href="vaisseau_8c.html#a8ea9afc9440149ddd36e96b97d8ed6c5" target="_top" xlink:title="Lance la scene interieure du vaisseau (deplacement, interactions, mini&#45;jeux, sortie).">
<polygon fill="white" stroke="#666666" points="135.5,-39.59 80.5,-39.59 80.5,-19.59 135.5,-19.59 135.5,-39.59"/>
<text xml:space="preserve" text-anchor="middle" x="108" y="-26.09" font-family="Helvetica,sans-Serif" font-size="10.00">vaisseau</text>
</a>
</g>
</g>
<!-- Node8&#45;&gt;Node9 -->
<g id="edge9_Node000008_Node000009" class="edge">
<title>Node8&#45;&gt;Node9</title>
<g id="a_edge9_Node000008_Node000009"><a xlink:title=" ">
<path fill="none" stroke="#63b8ff" d="M167.45,-29.59C156.2,-29.59 145.15,-29.59 135.74,-29.59"/>
<polygon fill="#63b8ff" stroke="#63b8ff" points="167.19,-33.09 177.19,-29.59 167.19,-26.09 167.19,-33.09"/>
</a>
</g>
</g>
<!-- Node9&#45;&gt;Node5 -->
<g id="edge11_Node000009_Node000005" class="edge">
<title>Node9&#45;&gt;Node5</title>
<g id="a_edge11_Node000009_Node000005"><a xlink:title=" ">
<path fill="none" stroke="#63b8ff" d="M72.79,-44.45C60.65,-49.72 47.48,-55.44 37.27,-59.87"/>
<polygon fill="#63b8ff" stroke="#63b8ff" points="73.92,-47.77 81.7,-40.58 71.14,-41.35 73.92,-47.77"/>
</a>
</g>
</g>
<!-- Node9&#45;&gt;Node6 -->
<g id="edge10_Node000009_Node000006" class="edge">
<title>Node9&#45;&gt;Node6</title>
<g id="a_edge10_Node000009_Node000006"><a xlink:title=" ">
<path fill="none" stroke="#63b8ff" d="M146.7,-17.4C157.06,-14.59 168.37,-12.01 179,-10.59 299.82,5.51 331.89,0.75 453.25,-10.59 471.42,-12.29 491.19,-15.67 508.36,-19.12"/>
<polygon fill="#63b8ff" stroke="#63b8ff" points="146.02,-13.95 137.37,-20.07 147.95,-20.68 146.02,-13.95"/>
</a>
</g>
</g>
</g>
</svg>
