<?xml version="1.0" encoding="UTF-8" standalone="no"?>
<!DOCTYPE svg PUBLIC "-//W3C//DTD SVG 1.1//EN"
 "http://www.w3.org/Graphics/SVG/1.1/DTD/svg11.dtd">
<!-- Generated by graphviz version 14.1.4 (20260321.0153)
 -->
<!-- Title: jouer_cinematique_crash Pages: 1 -->
<svg width="537pt" height="346pt"
 viewBox="0.00 0.00 537.00 346.00" xmlns="http://www.w3.org/2000/svg" xmlns:xlink="http://www.w3.org/1999/xlink">
<g id="graph0" class="graph" transform="scale(1 1) rotate(0) translate(4 342.16)">
<title>jouer_cinematique_crash</title>
<!-- Node1 -->
<g id="Node000001" class="node">
<title>Node1</title>
<g id="a_Node000001"><a xlink:title="Lance cinematique crash et gere son deroulement complet.">
<polygon fill="#999999" stroke="#666666" points="124,-168.16 0,-168.16 0,-148.16 124,-148.16 124,-168.16"/>
<text xml:space="preserve" text-anchor="middle" x="62" y="-154.66" font-family="Helvetica,sans-Serif" font-size="10.00">jouer_cinematique_crash</text>
</a>
</g>
</g>
<!-- Node2 -->
<g id="Node000002" class="node">
<title>Node2</title>
<g id="a_Node000002"><a xlink:href="cinematique_8c.html#a3f45f73f9fa4c87ee3ab7ea9443756cd" target="_top" xlink:title=" ">
<polygon fill="white" stroke="#666666" points="291.5,-338.16 160,-338.16 160,-318.16 291.5,-318.16 291.5,-338.16"/>
<text xml:space="preserve" text-anchor="middle" x="225.75" y="-324.66" font-family="Helvetica,sans-Serif" font-size="10.00">acceleration_decroissance</text>
</a>
</g>
</g>
<!-- Node1&#45;&gt;Node2 -->
<g id="edge1_Node000001_Node000002" class="edge">
<title>Node1&#45;&gt;Node2</title>
<g id="a_edge1_Node000001_Node000002"><a xlink:title=" ">
<path fill="none" stroke="#63b8ff" d="M67.19,-168.62C78.31,-195.11 111.09,-265.44 160,-304.16 164.3,-307.56 169.12,-310.51 174.16,-313.07"/>
<polygon fill="#63b8ff" stroke="#63b8ff" points="172.73,-316.26 183.28,-317.15 175.59,-309.87 172.73,-316.26"/>
</a>
</g>
</g>
<!-- Node3 -->
<g id="Node000003" class="node">
<title>Node3</title>
<g id="a_Node000003"><a xlink:href="cinematique_8c.html#adec54fc6c3be57a0a23c2f608c89cb26" target="_top" xlink:title=" ">
<polygon fill="white" stroke="#666666" points="394.12,-319.16 340.62,-319.16 340.62,-299.16 394.12,-299.16 394.12,-319.16"/>
<text xml:space="preserve" text-anchor="middle" x="367.38" y="-305.66" font-family="Helvetica,sans-Serif" font-size="10.00">borner01</text>
</a>
</g>
</g>
<!-- Node1&#45;&gt;Node3 -->
<g id="edge3_Node000001_Node000003" class="edge">
<title>Node1&#45;&gt;Node3</title>
<g id="a_edge3_Node000001_Node000003"><a xlink:title=" ">
<path fill="none" stroke="#63b8ff" d="M68.65,-168.66C81.52,-191.46 115.4,-245.52 160,-271.16 213.12,-301.7 285.52,-308.51 328.94,-309.59"/>
<polygon fill="#63b8ff" stroke="#63b8ff" points="328.81,-313.09 338.86,-309.74 328.91,-306.09 328.81,-313.09"/>
</a>
</g>
</g>
<!-- Node4 -->
<g id="Node000004" class="node">
<title>Node4</title>
<g id="a_Node000004"><a xlink:href="cinematique_8c.html#a75f179178fd87d7bf7c618bfb541095a" target="_top" xlink:title=" ">
<polygon fill="white" stroke="#666666" points="273.88,-262.16 177.62,-262.16 177.62,-230.16 273.88,-230.16 273.88,-262.16"/>
<text xml:space="preserve" text-anchor="start" x="185.62" y="-248.66" font-family="Helvetica,sans-Serif" font-size="10.00">detruire_texture_si</text>
<text xml:space="preserve" text-anchor="middle" x="225.75" y="-236.66" font-family="Helvetica,sans-Serif" font-size="10.00">_besoin</text>
</a>
</g>
</g>
<!-- Node1&#45;&gt;Node4 -->
<g id="edge4_Node000001_Node000004" class="edge">
<title>Node1&#45;&gt;Node4</title>
<g id="a_edge4_Node000001_Node000004"><a xlink:title=" ">
<path fill="none" stroke="#63b8ff" d="M76.9,-168.52C95.25,-181.87 128.88,-205.27 160,-221.16 162.67,-222.53 165.44,-223.86 168.26,-225.16"/>
<polygon fill="#63b8ff" stroke="#63b8ff" points="166.65,-228.28 177.21,-229.09 169.46,-221.87 166.65,-228.28"/>
</a>
</g>
</g>
<!-- Node5 -->
<g id="Node000005" class="node">
<title>Node5</title>
<g id="a_Node000005"><a xlink:href="son_8c.html#ae145ae699cc1eecf0684bdd530bd26f0" target="_top" xlink:title="Charge (ou recupere du cache) puis joue une piste audio.">
<polygon fill="white" stroke="#666666" points="254.75,-212.16 196.75,-212.16 196.75,-192.16 254.75,-192.16 254.75,-212.16"/>
<text xml:space="preserve" text-anchor="middle" x="225.75" y="-198.66" font-family="Helvetica,sans-Serif" font-size="10.00">jouer_son</text>
</a>
</g>
</g>
<!-- Node1&#45;&gt;Node5 -->
<g id="edge5_Node000001_Node000005" class="edge">
<title>Node1&#45;&gt;Node5</title>
<g id="a_edge5_Node000001_Node000005"><a xlink:title=" ">
<path fill="none" stroke="#63b8ff" d="M101.33,-168.59C126.72,-175.49 159.93,-184.53 185.51,-191.48"/>
<polygon fill="#63b8ff" stroke="#63b8ff" points="184.28,-194.78 194.85,-194.03 186.12,-188.02 184.28,-194.78"/>
</a>
</g>
</g>
<!-- Node8 -->
<g id="Node000008" class="node">
<title>Node8</title>
<g id="a_Node000008"><a xlink:href="cinematique_8c.html#ad9120e348b88351431f305432e9e1cb1" target="_top" xlink:title=" ">
<polygon fill="white" stroke="#666666" points="281,-174.16 170.5,-174.16 170.5,-142.16 281,-142.16 281,-174.16"/>
<text xml:space="preserve" text-anchor="start" x="178.5" y="-160.66" font-family="Helvetica,sans-Serif" font-size="10.00">rendre_texture_centre</text>
<text xml:space="preserve" text-anchor="middle" x="225.75" y="-148.66" font-family="Helvetica,sans-Serif" font-size="10.00">_natif</text>
</a>
</g>
</g>
<!-- Node1&#45;&gt;Node8 -->
<g id="edge8_Node000001_Node000008" class="edge">
<title>Node1&#45;&gt;Node8</title>
<g id="a_edge8_Node000001_Node000008"><a xlink:title=" ">
<path fill="none" stroke="#63b8ff" d="M124.15,-158.16C135.49,-158.16 147.38,-158.16 158.85,-158.16"/>
<polygon fill="#63b8ff" stroke="#63b8ff" points="158.64,-161.66 168.64,-158.16 158.64,-154.66 158.64,-161.66"/>
</a>
</g>
</g>
<!-- Node9 -->
<g id="Node000009" class="node">
<title>Node9</title>
<g id="a_Node000009"><a xlink:href="main_8h.html#a6c672075bc554c92548a916c9501bdb5" target="_top" xlink:title=" ">
<polygon fill="white" stroke="#666666" points="269.75,-124.16 181.75,-124.16 181.75,-104.16 269.75,-104.16 269.75,-124.16"/>
<text xml:space="preserve" text-anchor="middle" x="225.75" y="-110.66" font-family="Helvetica,sans-Serif" font-size="10.00">screen_center_x</text>
</a>
</g>
</g>
<!-- Node1&#45;&gt;Node9 -->
<g id="edge9_Node000001_Node000009" class="edge">
<title>Node1&#45;&gt;Node9</title>
<g id="a_edge9_Node000001_Node000009"><a xlink:title=" ">
<path fill="none" stroke="#63b8ff" d="M101.33,-147.73C123.51,-141.7 151.66,-134.04 175.47,-127.57"/>
<polygon fill="#63b8ff" stroke="#63b8ff" points="176.22,-130.99 184.95,-124.98 174.38,-124.23 176.22,-130.99"/>
</a>
</g>
</g>
<!-- Node10 -->
<g id="Node000010" class="node">
<title>Node10</title>
<g id="a_Node000010"><a xlink:href="main_8h.html#aaaa1e9fcb86ff8e60b297faa7815ad1d" target="_top" xlink:title=" ">
<polygon fill="white" stroke="#666666" points="405.75,-105.16 329,-105.16 329,-85.16 405.75,-85.16 405.75,-105.16"/>
<text xml:space="preserve" text-anchor="middle" x="367.38" y="-91.66" font-family="Helvetica,sans-Serif" font-size="10.00">screen_widthf</text>
</a>
</g>
</g>
<!-- Node1&#45;&gt;Node10 -->
<g id="edge14_Node000001_Node000010" class="edge">
<title>Node1&#45;&gt;Node10</title>
<g id="a_edge14_Node000001_Node000010"><a xlink:title=" ">
<path fill="none" stroke="#63b8ff" d="M74.13,-147.76C91.09,-132.7 125.15,-105.48 160,-95.16 212.08,-79.73 274.85,-82.58 317.39,-87.46"/>
<polygon fill="#63b8ff" stroke="#63b8ff" points="316.7,-90.9 327.05,-88.66 317.56,-83.96 316.7,-90.9"/>
</a>
</g>
</g>
<!-- Node11 -->
<g id="Node000011" class="node">
<title>Node11</title>
<g id="a_Node000011"><a xlink:href="main_8h.html#a6456affd0d0a21e911b531a5ba25676d" target="_top" xlink:title=" ">
<polygon fill="white" stroke="#666666" points="269.75,-48.16 181.75,-48.16 181.75,-28.16 269.75,-28.16 269.75,-48.16"/>
<text xml:space="preserve" text-anchor="middle" x="225.75" y="-34.66" font-family="Helvetica,sans-Serif" font-size="10.00">screen_center_y</text>
</a>
</g>
</g>
<!-- Node1&#45;&gt;Node11 -->
<g id="edge11_Node000001_Node000011" class="edge">
<title>Node1&#45;&gt;Node11</title>
<g id="a_edge11_Node000001_Node000011"><a xlink:title=" ">
<path fill="none" stroke="#63b8ff" d="M70.96,-147.74C86.26,-128.39 121.64,-86.62 160,-62.16 165.5,-58.65 171.6,-55.55 177.78,-52.84"/>
<polygon fill="#63b8ff" stroke="#63b8ff" points="178.81,-56.2 186.77,-49.21 176.19,-49.7 178.81,-56.2"/>
</a>
</g>
</g>
<!-- Node12 -->
<g id="Node000012" class="node">
<title>Node12</title>
<g id="a_Node000012"><a xlink:href="main_8h.html#a9b4aefc63ea00e60ec88da19e24e8236" target="_top" xlink:title=" ">
<polygon fill="white" stroke="#666666" points="407.25,-29.16 327.5,-29.16 327.5,-9.16 407.25,-9.16 407.25,-29.16"/>
<text xml:space="preserve" text-anchor="middle" x="367.38" y="-15.66" font-family="Helvetica,sans-Serif" font-size="10.00">screen_heightf</text>
</a>
</g>
</g>
<!-- Node1&#45;&gt;Node12 -->
<g id="edge13_Node000001_Node000012" class="edge">
<title>Node1&#45;&gt;Node12</title>
<g id="a_edge13_Node000001_Node000012"><a xlink:title=" ">
<path fill="none" stroke="#63b8ff" d="M66.36,-147.93C75.9,-120.82 105.99,-47.33 160,-19.16 208.41,6.09 272.31,1.28 316.11,-6.75"/>
<polygon fill="#63b8ff" stroke="#63b8ff" points="315.37,-10.17 325.86,-8.67 316.72,-3.3 315.37,-10.17"/>
</a>
</g>
</g>
<!-- Node2&#45;&gt;Node3 -->
<g id="edge2_Node000002_Node000003" class="edge">
<title>Node2&#45;&gt;Node3</title>
<g id="a_edge2_Node000002_Node000003"><a xlink:title=" ">
<path fill="none" stroke="#63b8ff" d="M291.66,-319.33C304.45,-317.59 317.46,-315.82 328.96,-314.25"/>
<polygon fill="#63b8ff" stroke="#63b8ff" points="329.4,-317.72 338.83,-312.91 328.45,-310.79 329.4,-317.72"/>
</a>
</g>
</g>
<!-- Node6 -->
<g id="Node000006" class="node">
<title>Node6</title>
<g id="a_Node000006"><a xlink:href="son_8c.html#ad0d6e981433bdc8e4291e672fa8c039b" target="_top" xlink:title=" ">
<polygon fill="white" stroke="#666666" points="406.12,-212.16 328.62,-212.16 328.62,-192.16 406.12,-192.16 406.12,-212.16"/>
<text xml:space="preserve" text-anchor="middle" x="367.38" y="-198.66" font-family="Helvetica,sans-Serif" font-size="10.00">recuperer_son</text>
</a>
</g>
</g>
<!-- Node5&#45;&gt;Node6 -->
<g id="edge6_Node000005_Node000006" class="edge">
<title>Node5&#45;&gt;Node6</title>
<g id="a_edge6_Node000005_Node000006"><a xlink:title=" ">
<path fill="none" stroke="#63b8ff" d="M255.01,-202.16C272.82,-202.16 296.32,-202.16 317.13,-202.16"/>
<polygon fill="#63b8ff" stroke="#63b8ff" points="316.86,-205.66 326.86,-202.16 316.86,-198.66 316.86,-205.66"/>
</a>
</g>
</g>
<!-- Node7 -->
<g id="Node000007" class="node">
<title>Node7</title>
<g id="a_Node000007"><a xlink:href="son_8c.html#aad43af6485e6418e4f26007ec64dba14" target="_top" xlink:title=" ">
<polygon fill="white" stroke="#666666" points="529,-212.16 443.25,-212.16 443.25,-192.16 529,-192.16 529,-212.16"/>
<text xml:space="preserve" text-anchor="middle" x="486.12" y="-198.66" font-family="Helvetica,sans-Serif" font-size="10.00">recuperer_mixer</text>
</a>
</g>
</g>
<!-- Node6&#45;&gt;Node7 -->
<g id="edge7_Node000006_Node000007" class="edge">
<title>Node6&#45;&gt;Node7</title>
<g id="a_edge7_Node000006_Node000007"><a xlink:title=" ">
<path fill="none" stroke="#63b8ff" d="M406.6,-202.16C414.56,-202.16 423.08,-202.16 431.48,-202.16"/>
<polygon fill="#63b8ff" stroke="#63b8ff" points="431.26,-205.66 441.26,-202.16 431.26,-198.66 431.26,-205.66"/>
</a>
</g>
</g>
<!-- Node9&#45;&gt;Node10 -->
<g id="edge10_Node000009_Node000010" class="edge">
<title>Node9&#45;&gt;Node10</title>
<g id="a_edge10_Node000009_Node000010"><a xlink:title=" ">
<path fill="none" stroke="#63b8ff" d="M270.16,-108.25C285.09,-106.22 301.91,-103.93 317.26,-101.84"/>
<polygon fill="#63b8ff" stroke="#63b8ff" points="317.71,-105.31 327.15,-100.5 316.77,-98.38 317.71,-105.31"/>
</a>
</g>
</g>
<!-- Node11&#45;&gt;Node12 -->
<g id="edge12_Node000011_Node000012" class="edge">
<title>Node11&#45;&gt;Node12</title>
<g id="a_edge12_Node000011_Node000012"><a xlink:title=" ">
<path fill="none" stroke="#63b8ff" d="M270.16,-32.25C284.71,-30.27 301.05,-28.05 316.07,-26"/>
<polygon fill="#63b8ff" stroke="#63b8ff" points="316.32,-29.5 325.76,-24.69 315.37,-22.57 316.32,-29.5"/>
</a>
</g>
</g>
</g>
</svg>
