<?xml version="1.0" encoding="UTF-8" standalone="no"?>
<!DOCTYPE svg PUBLIC "-//W3C//DTD SVG 1.1//EN"
 "http://www.w3.org/Graphics/SVG/1.1/DTD/svg11.dtd">
<!-- Generated by graphviz version 14.1.4 (20260321.0153)
 -->
<!-- Title: jouer_cinematique_crash Pages: 1 -->
<!--zoomable 346 -->

<svg id="main" version="1.1" xmlns="http://www.w3.org/2000/svg" xmlns:xlink="http://www.w3.org/1999/xlink" xml:space="preserve" onload="init(evt)">

<style type="text/css"><![CDATA[
.node, .edge {opacity: 0.7;}
.node.selected, .edge.selected {opacity: 1;}
.edge:hover path { stroke: red; }
.edge:hover polygon { stroke: red; fill: red; }
]]></style>

<defs>
  <circle id="rim" cx="0" cy="0" r="7"/>
  <circle id="rim2" cx="0" cy="0" r="3.5"/>
  <g id="zoomPlus">
    <use xlink:href="#rim" fill="#404040"><set attributeName="fill" to="#808080" begin="zoomplus.mouseover" end="zoomplus.mouseout"/></use>
    <path d="M-4,0h8M0,-4v8" fill="none" stroke="white" stroke-width="1.5" pointer-events="none"/>
  </g>
  <g id="zoomMin">
    <use xlink:href="#rim" fill="#404040"><set attributeName="fill" to="#808080" begin="zoomminus.mouseover" end="zoomminus.mouseout"/></use>
    <path d="M-4,0h8" fill="none" stroke="white" stroke-width="1.5" pointer-events="none"/>
  </g>
  <g id="arrowUp" transform="translate(30 24)">
    <use xlink:href="#rim"/>
    <path pointer-events="none" fill="none" stroke="white" stroke-width="1.5" d="M0,-3.0v7 M-2.5,-0.5L0,-3.0L2.5,-0.5"/>
  </g>
  <g id="arrowRight" transform="rotate(90) translate(36 -43)">
    <use xlink:href="#rim"/>
    <path pointer-events="none" fill="none" stroke="white" stroke-width="1.5" d="M0,-3.0v7 M-2.5,-0.5L0,-3.0L2.5,-0.5"/>
  </g>
  <g id="arrowDown" transform="rotate(180) translate(-30 -48)">
    <use xlink:href="#rim"/>
    <path pointer-events="none" fill="none" stroke="white" stroke-width="1.5" d="M0,-3.0v7 M-2.5,-0.5L0,-3.0L2.5,-0.5"/>
  </g>
  <g id="arrowLeft" transform="rotate(270) translate(-36 17)">
    <use xlink:href="#rim"/>
    <path pointer-events="none" fill="none" stroke="white" stroke-width="1.5" d="M0,-3.0v7 M-2.5,-0.5L0,-3.0L2.5,-0.5"/>
  </g>
  <g id="resetDef">
    <use xlink:href="#rim2" fill="#404040"><set attributeName="fill" to="#808080" begin="reset.mouseover" end="reset.mouseout"/></use>
  </g>
</defs>
<script type="application/ecmascript">
var viewWidth = 537;
var viewHeight = 346;
var sectionId = 'dynsection-1';
</script>
<script type="application/ecmascript" xlink:href="svg.min.js"/>
<svg id="graph" class="graph">
<g id="viewport">
<title>jouer_cinematique_crash</title>
<!-- Node1 -->
<g id="Node000001" class="node">
<title>Node1</title>
<g id="a_Node000001"><a xlink:title="Lance cinematique crash et gere son deroulement complet.">
<polygon fill="#999999" stroke="#666666" points="124,-168.16 0,-168.16 0,-148.16 124,-148.16 124,-168.16"/>
<text xml:space="preserve" text-anchor="middle" x="62" y="-154.66" font-family="Helvetica,sans-Serif" font-size="10.00">jouer_cinematique_crash</text>
</a>
</g>
</g>
<!-- Node2 -->
<g id="Node000002" class="node">
<title>Node2</title>
<g id="a_Node000002"><a xlink:href="cinematique_8c.html#a3f45f73f9fa4c87ee3ab7ea9443756cd" target="_top" xlink:title=" ">
<polygon fill="white" stroke="#666666" points="291.5,-338.16 160,-338.16 160,-318.16 291.5,-318.16 291.5,-338.16"/>
<text xml:space="preserve" text-anchor="middle" x="225.75" y="-324.66" font-family="Helvetica,sans-Serif" font-size="10.00">acceleration_decroissance</text>
</a>
</g>
</g>
<!-- Node1&#45;&gt;Node2 -->
<g id="edge1_Node000001_Node000002" class="edge">
<title>Node1&#45;&gt;Node2</title>
<g id="a_edge1_Node000001_Node000002"><a xlink:title=" ">
<path fill="none" stroke="#63b8ff" d="M67.19,-168.62C78.31,-195.11 111.09,-265.44 160,-304.16 164.3,-307.56 169.12,-310.51 174.16,-313.07"/>
<polygon fill="#63b8ff" stroke="#63b8ff" points="172.73,-316.26 183.28,-317.15 175.59,-309.87 172.73,-316.26"/>
</a>
</g>
</g>
<!-- Node3 -->
<g id="Node000003" class="node">
<title>Node3</title>
<g id="a_Node000003"><a xlink:href="cinematique_8c.html#adec54fc6c3be57a0a23c2f608c89cb26" target="_top" xlink:title=" ">
<polygon fill="white" stroke="#666666" points="394.12,-319.16 340.62,-319.16 340.62,-299.16 394.12,-299.16 394.12,-319.16"/>
<text xml:space="preserve" text-anchor="middle" x="367.38" y="-305.66" font-family="Helvetica,sans-Serif" font-size="10.00">borner01</text>
</a>
</g>
</g>
<!-- Node1&#45;&gt;Node3 -->
<g id="edge3_Node000001_Node000003" class="edge">
<title>Node1&#45;&gt;Node3</title>
<g id="a_edge3_Node000001_Node000003"><a xlink:title=" ">
<path fill="none" stroke="#63b8ff" d="M68.65,-168.66C81.52,-191.46 115.4,-245.52 160,-271.16 213.12,-301.7 285.52,-308.51 328.94,-309.59"/>
<polygon fill="#63b8ff" stroke="#63b8ff" points="328.81,-313.09 338.86,-309.74 328.91,-306.09 328.81,-313.09"/>
</a>
</g>
</g>
<!-- Node4 -->
<g id="Node000004" class="node">
<title>Node4</title>
<g id="a_Node000004"><a xlink:href="cinematique_8c.html#a75f179178fd87d7bf7c618bfb541095a" target="_top" xlink:title=" ">
<polygon fill="white" stroke="#666666" points="273.88,-262.16 177.62,-262.16 177.62,-230.16 273.88,-230.16 273.88,-262.16"/>
<text xml:space="preserve" text-anchor="start" x="185.62" y="-248.66" font-family="Helvetica,sans-Serif" font-size="10.00">detruire_texture_si</text>
<text xml:space="preserve" text-anchor="middle" x="225.75" y="-236.66" font-family="Helvetica,sans-Serif" font-size="10.00">_besoin</text>
</a>
</g>
</g>
<!-- Node1&#45;&gt;Node4 -->
<g id="edge4_Node000001_Node000004" class="edge">
<title>Node1&#45;&gt;Node4</title>
<g id="a_edge4_Node000001_Node000004"><a xlink:title=" ">
<path fill="none" stroke="#63b8ff" d="M76.9,-168.52C95.25,-181.87 128.88,-205.27 160,-221.16 162.67,-222.53 165.44,-223.86 168.26,-225.16"/>
<polygon fill="#63b8ff" stroke="#63b8ff" points="166.65,-228.28 177.21,-229.09 169.46,-221.87 166.65,-228.28"/>
</a>
</g>
</g>
<!-- Node5 -->
<g id="Node000005" class="node">
<title>Node5</title>
<g id="a_Node000005"><a xlink:href="son_8c.html#ae145ae699cc1eecf0684bdd530bd26f0" target="_top" xlink:title="Charge (ou recupere du cache) puis joue une piste audio.">
<polygon fill="white" stroke="#666666" points="254.75,-212.16 196.75,-212.16 196.75,-192.16 254.75,-192.16 254.75,-212.16"/>
<text xml:space="preserve" text-anchor="middle" x="225.75" y="-198.66" font-family="Helvetica,sans-Serif" font-size="10.00">jouer_son</text>
</a>
</g>
</g>
<!-- Node1&#45;&gt;Node5 -->
<g id="edge5_Node000001_Node000005" class="edge">
<title>Node1&#45;&gt;Node5</title>
<g id="a_edge5_Node000001_Node000005"><a xlink:title=" ">
<path fill="none" stroke="#63b8ff" d="M101.33,-168.59C126.72,-175.49 159.93,-184.53 185.51,-191.48"/>
<polygon fill="#63b8ff" stroke="#63b8ff" points="184.28,-194.78 194.85,-194.03 186.12,-188.02 184.28,-194.78"/>
</a>
</g>
</g>
<!-- Node8 -->
<g id="Node000008" class="node">
<title>Node8</title>
<g id="a_Node000008"><a xlink:href="cinematique_8c.html#ad9120e348b88351431f305432e9e1cb1" target="_top" xlink:title=" ">
<polygon fill="white" stroke="#666666" points="281,-174.16 170.5,-174.16 170.5,-142.16 281,-142.16 281,-174.16"/>
<text xml:space="preserve" text-anchor="start" x="178.5" y="-160.66" font-family="Helvetica,sans-Serif" font-size="10.00">rendre_texture_centre</text>
<text xml:space="preserve" text-anchor="middle" x="225.75" y="-148.66" font-family="Helvetica,sans-Serif" font-size="10.00">_natif</text>
</a>
</g>
</g>
<!-- Node1&#45;&gt;Node8 -->
<g id="edge8_Node000001_Node000008" class="edge">
<title>Node1&#45;&gt;Node8</title>
<g id="a_edge8_Node000001_Node000008"><a xlink:title=" ">
<path fill="none" stroke="#63b8ff" d="M124.15,-158.16C135.49,-158.16 147.38,-158.16 158.85,-158.16"/>
<polygon fill="#63b8ff" stroke="#63b8ff" points="158.64,-161.66 168.64,-158.16 158.64,-154.66 158.64,-161.66"/>
</a>
</g>
</g>
<!-- Node9 -->
<g id="Node000009" class="node">
<title>Node9</title>
<g id="a_Node000009"><a xlink:href="main_8h.html#a6c672075bc554c92548a916c9501bdb5" target="_top" xlink:title=" ">
<polygon fill="white" stroke="#666666" points="269.75,-124.16 181.75,-124.16 181.75,-104.16 269.75,-104.16 269.75,-124.16"/>
<text xml:space="preserve" text-anchor="middle" x="225.75" y="-110.66" font-family="Helvetica,sans-Serif" font-size="10.00">screen_center_x</text>
</a>
</g>
</g>
<!-- Node1&#45;&gt;Node9 -->
<g id="edge9_Node000001_Node000009" class="edge">
<title>Node1&#45;&gt;Node9</title>
<g id="a_edge9_Node000001_Node000009"><a xlink:title=" ">
<path fill="none" stroke="#63b8ff" d="M101.33,-147.73C123.51,-141.7 151.66,-134.04 175.47,-127.57"/>
<polygon fill="#63b8ff" stroke="#63b8ff" points="176.22,-130.99 184.95,-124.98 174.38,-124.23 176.22,-130.99"/>
</a>
</g>
</g>
<!-- Node10 -->
<g id="Node000010" class="node">
<title>Node10</title>
<g id="a_Node000010"><a xlink:href="main_8h.html#aaaa1e9fcb86ff8e60b297faa7815ad1d" target="_top" xlink:title=" ">
<polygon fill="white" stroke="#666666" points="405.75,-105.16 329,-105.16 329,-85.16 405.75,-85.16 405.75,-105.16"/>
<text xml:space="preserve" text-anchor="middle" x="367.38" y="-91.66" font-family="Helvetica,sans-Serif" font-size="10.00">screen_widthf</text>
</a>
</g>
</g>
<!-- Node1&#45;&gt;Node10 -->
<g id="edge14_Node000001_Node000010" class="edge">
<title>Node1&#45;&gt;Node10</title>
<g id="a_edge14_Node000001_Node000010"><a xlink:title=" ">
<path fill="none" stroke="#63b8ff" d="M74.13,-147.76C91.09,-132.7 125.15,-105.48 160,-95.16 212.08,-79.73 274.85,-82.58 317.39,-87.46"/>
<polygon fill="#63b8ff" stroke="#63b8ff" points="316.7,-90.9 327.05,-88.66 317.56,-83.96 316.7,-90.9"/>
</a>
</g>
</g>
<!-- Node11 -->
<g id="Node000011" class="node">
<title>Node11</title>
<g id="a_Node000011"><a xlink:href="main_8h.html#a6456affd0d0a21e911b531a5ba25676d" target="_top" xlink:title=" ">
<polygon fill="white" stroke="#666666" points="269.75,-48.16 181.75,-48.16 181.75,-28.16 269.75,-28.16 269.75,-48.16"/>
<text xml:space="preserve" text-anchor="middle" x="225.75" y="-34.66" font-family="Helvetica,sans-Serif" font-size="10.00">screen_center_y</text>
</a>
</g>
</g>
<!-- Node1&#45;&gt;Node11 -->
<g id="edge11_Node000001_Node000011" class="edge">
<title>Node1&#45;&gt;Node11</title>
<g id="a_edge11_Node000001_Node000011"><a xlink:title=" ">
<path fill="none" stroke="#63b8ff" d="M70.96,-147.74C86.26,-128.39 121.64,-86.62 160,-62.16 165.5,-58.65 171.6,-55.55 177.78,-52.84"/>
<polygon fill="#63b8ff" stroke="#63b8ff" points="178.81,-56.2 186.77,-49.21 176.19,-49.7 178.81,-56.2"/>
</a>
</g>
</g>
<!-- Node12 -->
<g id="Node000012" class="node">
<title>Node12</title>
<g id="a_Node000012"><a xlink:href="main_8h.html#a9b4aefc63ea00e60ec88da19e24e8236" target="_top" xlink:title=" ">
<polygon fill="white" stroke="#666666" points="407.25,-29.16 327.5,-29.16 327.5,-9.16 407.25,-9.16 407.25,-29.16"/>
<text xml:space="preserve" text-anchor="middle" x="367.38" y="-15.66" font-family="Helvetica,sans-Serif" font-size="10.00">screen_heightf</text>
</a>
</g>
</g>
<!-- Node1&#45;&gt;Node12 -->
<g id="edge13_Node000001_Node000012" class="edge">
<title>Node1&#45;&gt;Node12</title>
<g id="a_edge13_Node000001_Node000012"><a xlink:title=" ">
<path fill="none" stroke="#63b8ff" d="M66.36,-147.93C75.9,-120.82 105.99,-47.33 160,-19.16 208.41,6.09 272.31,1.28 316.11,-6.75"/>
<polygon fill="#63b8ff" stroke="#63b8ff" points="315.37,-10.17 325.86,-8.67 316.72,-3.3 315.37,-10.17"/>
</a>
</g>
</g>
<!-- Node2&#45;&gt;Node3 -->
<g id="edge2_Node000002_Node000003" class="edge">
<title>Node2&#45;&gt;Node3</title>
<g id="a_edge2_Node000002_Node000003"><a xlink:title=" ">
<path fill="none" stroke="#63b8ff" d="M291.66,-319.33C304.45,-317.59 317.46,-315.82 328.96,-314.25"/>
<polygon fill="#63b8ff" stroke="#63b8ff" points="329.4,-317.72 338.83,-312.91 328.45,-310.79 329.4,-317.72"/>
</a>
</g>
</g>
<!-- Node6 -->
<g id="Node000006" class="node">
<title>Node6</title>
<g id="a_Node000006"><a xlink:href="son_8c.html#ad0d6e981433bdc8e4291e672fa8c039b" target="_top" xlink:title=" ">
<polygon fill="white" stroke="#666666" points="406.12,-212.16 328.62,-212.16 328.62,-192.16 406.12,-192.16 406.12,-212.16"/>
<text xml:space="preserve" text-anchor="middle" x="367.38" y="-198.66" font-family="Helvetica,sans-Serif" font-size="10.00">recuperer_son</text>
</a>
</g>
</g>
<!-- Node5&#45;&gt;Node6 -->
<g id="edge6_Node000005_Node000006" class="edge">
<title>Node5&#45;&gt;Node6</title>
<g id="a_edge6_Node000005_Node000006"><a xlink:title=" ">
<path fill="none" stroke="#63b8ff" d="M255.01,-202.16C272.82,-202.16 296.32,-202.16 317.13,-202.16"/>
<polygon fill="#63b8ff" stroke="#63b8ff" points="316.86,-205.66 326.86,-202.16 316.86,-198.66 316.86,-205.66"/>
</a>
</g>
</g>
<!-- Node7 -->
<g id="Node000007" class="node">
<title>Node7</title>
<g id="a_Node000007"><a xlink:href="son_8c.html#aad43af6485e6418e4f26007ec64dba14" target="_top" xlink:title=" ">
<polygon fill="white" stroke="#666666" points="529,-212.16 443.25,-212.16 443.25,-192.16 529,-192.16 529,-212.16"/>
<text xml:space="preserve" text-anchor="middle" x="486.12" y="-198.66" font-family="Helvetica,sans-Serif" font-size="10.00">recuperer_mixer</text>
</a>
</g>
</g>
<!-- Node6&#45;&gt;Node7 -->
<g id="edge7_Node000006_Node000007" class="edge">
<title>Node6&#45;&gt;Node7</title>
<g id="a_edge7_Node000006_Node000007"><a xlink:title=" ">
<path fill="none" stroke="#63b8ff" d="M406.6,-202.16C414.56,-202.16 423.08,-202.16 431.48,-202.16"/>
<polygon fill="#63b8ff" stroke="#63b8ff" points="431.26,-205.66 441.26,-202.16 431.26,-198.66 431.26,-205.66"/>
</a>
</g>
</g>
<!-- Node9&#45;&gt;Node10 -->
<g id="edge10_Node000009_Node000010" class="edge">
<title>Node9&#45;&gt;Node10</title>
<g id="a_edge10_Node000009_Node000010"><a xlink:title=" ">
<path fill="none" stroke="#63b8ff" d="M270.16,-108.25C285.09,-106.22 301.91,-103.93 317.26,-101.84"/>
<polygon fill="#63b8ff" stroke="#63b8ff" points="317.71,-105.31 327.15,-100.5 316.77,-98.38 317.71,-105.31"/>
</a>
</g>
</g>
<!-- Node11&#45;&gt;Node12 -->
<g id="edge12_Node000011_Node000012" class="edge">
<title>Node11&#45;&gt;Node12</title>
<g id="a_edge12_Node000011_Node000012"><a xlink:title=" ">
<path fill="none" stroke="#63b8ff" d="M270.16,-32.25C284.71,-30.27 301.05,-28.05 316.07,-26"/>
<polygon fill="#63b8ff" stroke="#63b8ff" points="316.32,-29.5 325.76,-24.69 315.37,-22.57 316.32,-29.5"/>
</a>
</g>
</g>
</g>
</svg>

<g id="navigator" transform="translate(0 0)" fill="#404254">
  <rect fill="#f2f5e9" fill-opacity="0.5" stroke="#606060" stroke-width=".5" x="0" y="0" width="60" height="60"/>
  <use id="zoomplus" xlink:href="#zoomPlus" x="17" y="9" onmousedown="handleZoom(evt,'in')"/>
  <use id="zoomminus" xlink:href="#zoomMin" x="42" y="9" onmousedown="handleZoom(evt,'out')"/>
  <use id="reset" xlink:href="#resetDef" x="30" y="36" onmousedown="handleReset()"/>
   <use id="arrowup" xlink:href="#arrowUp" x="0" y="0" onmousedown="handlePan(0,-1)"/>
  <use id="arrowright" xlink:href="#arrowRight" x="0" y="0" onmousedown="handlePan(1,0)"/>
  <use id="arrowdown" xlink:href="#arrowDown" x="0" y="0" onmousedown="handlePan(0,1)"/>
  <use id="arrowleft" xlink:href="#arrowLeft" x="0" y="0" onmousedown="handlePan(-1,0)"/>
</g>
<svg viewBox="0 0 15 15" width="100%" height="30px" preserveAspectRatio="xMaxYMin meet">
 <g id="arrow_out" transform="scale(0.3 0.3)">
  <a xlink:href="cinematique_8c_a68c4780c65b14d27f0088cfc6514eb60_cgraph_org.svg" target="_base">
   <rect id="button" ry="5" rx="5" y="6" x="6" height="38" width="38"
        fill="#f2f5e9" fill-opacity="0.5" stroke="#606060" stroke-width="1.0"/>
   <path id="arrow"
     d="M 11.500037,31.436501 C 11.940474,20.09759 22.043105,11.32322 32.158766,21.979434 L 37.068811,17.246167 C 37.068811,17.246167 37.088388,32 37.088388,32 L 22.160133,31.978069 C 22.160133,31.978069 26.997745,27.140456 26.997745,27.140456 C 18.528582,18.264221 13.291696,25.230495 11.500037,31.436501 z"
     style="fill:#404040;"/>
  </a>
 </g>
</svg>

<style type='text/css'>
<![CDATA[
[data-mouse-over-selected='false'] { opacity: 0.7; }
[data-mouse-over-selected='true']  { opacity: 1.0; }
]]>
</style>
<script type="application/ecmascript"><![CDATA[
document.addEventListener('DOMContentLoaded', (event) => {
  highlightEdges();
  highlightAdjacentNodes();
});
]]></script>
</svg>
