<?xml version="1.0" encoding="UTF-8" standalone="no"?>
<!DOCTYPE svg PUBLIC "-//W3C//DTD SVG 1.1//EN"
 "http://www.w3.org/Graphics/SVG/1.1/DTD/svg11.dtd">
<!-- Generated by graphviz version 14.1.4 (20260321.0153)
 -->
<!-- Title: src/cinematique.c Pages: 1 -->
<svg width="1514pt" height="196pt"
 viewBox="0.00 0.00 1514.00 196.00" xmlns="http://www.w3.org/2000/svg" xmlns:xlink="http://www.w3.org/1999/xlink">
<g id="graph0" class="graph" transform="scale(1 1) rotate(0) translate(4 192)">
<title>src/cinematique.c</title>
<!-- Node1 -->
<g id="Node000001" class="node">
<title>Node1</title>
<g id="a_Node000001"><a xlink:title="Lecture des cinematics et enchainement des sequences narratives.">
<polygon fill="#999999" stroke="#666666" points="1095.71,-188 1002.46,-188 1002.46,-168 1095.71,-168 1095.71,-188"/>
<text xml:space="preserve" text-anchor="middle" x="1049.09" y="-174.5" font-family="Helvetica,sans-Serif" font-size="10.00">src/cinematique.c</text>
</a>
</g>
</g>
<!-- Node2 -->
<g id="Node000002" class="node">
<title>Node2</title>
<g id="a_Node000002"><a xlink:href="main_8h.html" target="_top" xlink:title="Declarations globales et utilitaires partages entre les modules du jeu.">
<polygon fill="white" stroke="#666666" points="748.46,-132 665.71,-132 665.71,-112 748.46,-112 748.46,-132"/>
<text xml:space="preserve" text-anchor="middle" x="707.09" y="-118.5" font-family="Helvetica,sans-Serif" font-size="10.00">headers/main.h</text>
</a>
</g>
</g>
<!-- Node1&#45;&gt;Node2 -->
<g id="edge1_Node000001_Node000002" class="edge">
<title>Node1&#45;&gt;Node2</title>
<g id="a_edge1_Node000001_Node000002"><a xlink:title=" ">
<path fill="none" stroke="#63b8ff" d="M1002.25,-169.6C938.87,-159.6 826.11,-141.79 759.82,-131.33"/>
<polygon fill="#63b8ff" stroke="#63b8ff" points="760.72,-127.93 750.3,-129.82 759.63,-134.84 760.72,-127.93"/>
</a>
</g>
</g>
<!-- Node4 -->
<g id="Node000004" class="node">
<title>Node4</title>
<g id="a_Node000004"><a xlink:title=" ">
<polygon fill="#e0e0e0" stroke="#999999" points="492.34,-20 357.84,-20 357.84,0 492.34,0 492.34,-20"/>
<text xml:space="preserve" text-anchor="middle" x="425.09" y="-6.5" font-family="Helvetica,sans-Serif" font-size="10.00">SDL3_image/SDL_image.h</text>
</a>
</g>
</g>
<!-- Node1&#45;&gt;Node4 -->
<g id="edge63_Node000001_Node000004" class="edge">
<title>Node1&#45;&gt;Node4</title>
<g id="a_edge63_Node000001_Node000004"><a xlink:title=" ">
<path fill="none" stroke="#63b8ff" d="M1002.04,-176.08C807.64,-171.79 73.91,-150.71 6.09,-76 -40.85,-24.3 211.91,-13.53 345.93,-11.42"/>
<polygon fill="#63b8ff" stroke="#63b8ff" points="345.87,-14.92 355.82,-11.28 345.77,-7.92 345.87,-14.92"/>
</a>
</g>
</g>
<!-- Node16 -->
<g id="Node000016" class="node">
<title>Node16</title>
<g id="a_Node000016"><a xlink:title=" ">
<polygon fill="#e0e0e0" stroke="#999999" points="963.09,-20 863.09,-20 863.09,0 963.09,0 963.09,-20"/>
<text xml:space="preserve" text-anchor="middle" x="913.09" y="-6.5" font-family="Helvetica,sans-Serif" font-size="10.00">SDL3_ttf/SDL_ttf.h</text>
</a>
</g>
</g>
<!-- Node1&#45;&gt;Node16 -->
<g id="edge64_Node000001_Node000016" class="edge">
<title>Node1&#45;&gt;Node16</title>
<g id="a_edge64_Node000001_Node000016"><a xlink:title=" ">
<path fill="none" stroke="#63b8ff" d="M1096.19,-172.39C1222.65,-159.13 1556.32,-117.8 1499.09,-56 1463.98,-18.1 1117.7,-12 974.54,-11.11"/>
<polygon fill="#63b8ff" stroke="#63b8ff" points="974.89,-7.61 964.88,-11.06 974.86,-14.61 974.89,-7.61"/>
</a>
</g>
</g>
<!-- Node26 -->
<g id="Node000026" class="node">
<title>Node26</title>
<g id="a_Node000026"><a xlink:href="cinematique_8h.html" target="_top" xlink:title="Fichier des cinematics, des intros et des sequences de credits.">
<polygon fill="white" stroke="#666666" points="1397.46,-76 1320.71,-76 1320.71,-56 1397.46,-56 1397.46,-76"/>
<text xml:space="preserve" text-anchor="middle" x="1359.09" y="-62.5" font-family="Helvetica,sans-Serif" font-size="10.00">cinematique.h</text>
</a>
</g>
</g>
<!-- Node1&#45;&gt;Node26 -->
<g id="edge62_Node000001_Node000026" class="edge">
<title>Node1&#45;&gt;Node26</title>
<g id="a_edge62_Node000001_Node000026"><a xlink:title=" ">
<path fill="none" stroke="#63b8ff" d="M1075.78,-167.53C1131.06,-147.91 1258.18,-102.81 1321.63,-80.29"/>
<polygon fill="#63b8ff" stroke="#63b8ff" points="1322.66,-83.64 1330.91,-77 1320.32,-77.04 1322.66,-83.64"/>
</a>
</g>
</g>
<!-- Node3 -->
<g id="Node000003" class="node">
<title>Node3</title>
<g id="a_Node000003"><a xlink:title=" ">
<polygon fill="#e0e0e0" stroke="#999999" points="679.84,-20 608.34,-20 608.34,0 679.84,0 679.84,-20"/>
<text xml:space="preserve" text-anchor="middle" x="644.09" y="-6.5" font-family="Helvetica,sans-Serif" font-size="10.00">SDL3/SDL.h</text>
</a>
</g>
</g>
<!-- Node2&#45;&gt;Node3 -->
<g id="edge2_Node000002_Node000003" class="edge">
<title>Node2&#45;&gt;Node3</title>
<g id="a_edge2_Node000002_Node000003"><a xlink:title=" ">
<path fill="none" stroke="#63b8ff" d="M748.75,-117.11C801.69,-110.53 882.75,-94 852.09,-56 832.27,-31.44 746.26,-19.62 691.24,-14.47"/>
<polygon fill="#63b8ff" stroke="#63b8ff" points="691.78,-11.01 681.51,-13.61 691.16,-17.98 691.78,-11.01"/>
</a>
</g>
</g>
<!-- Node2&#45;&gt;Node4 -->
<g id="edge3_Node000002_Node000004" class="edge">
<title>Node2&#45;&gt;Node4</title>
<g id="a_edge3_Node000002_Node000004"><a xlink:title=" ">
<path fill="none" stroke="#63b8ff" d="M665.5,-120.7C544.62,-119.41 199.71,-112.54 166.09,-76 160.07,-69.46 160.36,-62.8 166.09,-56 188.79,-29.01 278.49,-18.21 346.01,-13.88"/>
<polygon fill="#63b8ff" stroke="#63b8ff" points="346.2,-17.38 355.97,-13.29 345.78,-10.39 346.2,-17.38"/>
</a>
</g>
</g>
<!-- Node5 -->
<g id="Node000005" class="node">
<title>Node5</title>
<g id="a_Node000005"><a xlink:title=" ">
<polygon fill="#e0e0e0" stroke="#999999" points="1111.09,-76 1065.09,-76 1065.09,-56 1111.09,-56 1111.09,-76"/>
<text xml:space="preserve" text-anchor="middle" x="1088.09" y="-62.5" font-family="Helvetica,sans-Serif" font-size="10.00">math.h</text>
</a>
</g>
</g>
<!-- Node2&#45;&gt;Node5 -->
<g id="edge4_Node000002_Node000005" class="edge">
<title>Node2&#45;&gt;Node5</title>
<g id="a_edge4_Node000002_Node000005"><a xlink:title=" ">
<path fill="none" stroke="#63b8ff" d="M748.78,-117.61C812.5,-111.99 938.08,-99.23 1053.62,-76.24"/>
<polygon fill="#63b8ff" stroke="#63b8ff" points="1054.17,-79.7 1063.28,-74.28 1052.78,-72.84 1054.17,-79.7"/>
</a>
</g>
</g>
<!-- Node6 -->
<g id="Node000006" class="node">
<title>Node6</title>
<g id="a_Node000006"><a xlink:title=" ">
<polygon fill="#e0e0e0" stroke="#999999" points="133.09,-20 3.09,-20 3.09,0 133.09,0 133.09,-20"/>
<text xml:space="preserve" text-anchor="middle" x="68.09" y="-6.5" font-family="Helvetica,sans-Serif" font-size="10.00">SDL3_mixer/SDL_mixer.h</text>
</a>
</g>
</g>
<!-- Node2&#45;&gt;Node6 -->
<g id="edge5_Node000002_Node000006" class="edge">
<title>Node2&#45;&gt;Node6</title>
<g id="a_edge5_Node000002_Node000006"><a xlink:title=" ">
<path fill="none" stroke="#63b8ff" d="M665.32,-119.88C517.79,-115.72 28.74,-100.16 6.09,-76 -10.18,-58.66 14.91,-38.92 37.87,-25.79"/>
<polygon fill="#63b8ff" stroke="#63b8ff" points="39.33,-28.98 46.45,-21.15 35.99,-22.83 39.33,-28.98"/>
</a>
</g>
</g>
<!-- Node7 -->
<g id="Node000007" class="node">
<title>Node7</title>
<g id="a_Node000007"><a xlink:title=" ">
<polygon fill="#e0e0e0" stroke="#999999" points="1237.71,-76 1192.46,-76 1192.46,-56 1237.71,-56 1237.71,-76"/>
<text xml:space="preserve" text-anchor="middle" x="1215.09" y="-62.5" font-family="Helvetica,sans-Serif" font-size="10.00">stdio.h</text>
</a>
</g>
</g>
<!-- Node2&#45;&gt;Node7 -->
<g id="edge6_Node000002_Node000007" class="edge">
<title>Node2&#45;&gt;Node7</title>
<g id="a_edge6_Node000002_Node000007"><a xlink:title=" ">
<path fill="none" stroke="#63b8ff" d="M748.93,-119.7C830.51,-116.6 1016.55,-106.74 1180.89,-76.3"/>
<polygon fill="#63b8ff" stroke="#63b8ff" points="1181.51,-79.75 1190.69,-74.45 1180.22,-72.87 1181.51,-79.75"/>
</a>
</g>
</g>
<!-- Node8 -->
<g id="Node000008" class="node">
<title>Node8</title>
<g id="a_Node000008"><a xlink:title=" ">
<polygon fill="#e0e0e0" stroke="#999999" points="1302.84,-76 1255.34,-76 1255.34,-56 1302.84,-56 1302.84,-76"/>
<text xml:space="preserve" text-anchor="middle" x="1279.09" y="-62.5" font-family="Helvetica,sans-Serif" font-size="10.00">stdlib.h</text>
</a>
</g>
</g>
<!-- Node2&#45;&gt;Node8 -->
<g id="edge7_Node000002_Node000008" class="edge">
<title>Node2&#45;&gt;Node8</title>
<g id="a_edge7_Node000002_Node000008"><a xlink:title=" ">
<path fill="none" stroke="#63b8ff" d="M748.76,-120.23C838.09,-118.01 1054.64,-109.52 1243.82,-76.3"/>
<polygon fill="#63b8ff" stroke="#63b8ff" points="1244.37,-79.75 1253.6,-74.55 1243.14,-72.86 1244.37,-79.75"/>
</a>
</g>
</g>
<!-- Node9 -->
<g id="Node000009" class="node">
<title>Node9</title>
<g id="a_Node000009"><a xlink:href="menu_8h.html" target="_top" xlink:title="Fichier du menu principal et des choix de navigation.">
<polygon fill="white" stroke="#666666" points="763.21,-76 714.96,-76 714.96,-56 763.21,-56 763.21,-76"/>
<text xml:space="preserve" text-anchor="middle" x="739.09" y="-62.5" font-family="Helvetica,sans-Serif" font-size="10.00">menu.h</text>
</a>
</g>
</g>
<!-- Node2&#45;&gt;Node9 -->
<g id="edge8_Node000002_Node000009" class="edge">
<title>Node2&#45;&gt;Node9</title>
<g id="a_edge8_Node000002_Node000009"><a xlink:title=" ">
<path fill="none" stroke="#63b8ff" d="M712.66,-111.59C716.83,-104.55 722.69,-94.67 727.83,-86"/>
<polygon fill="#63b8ff" stroke="#63b8ff" points="730.72,-87.99 732.8,-77.6 724.69,-84.42 730.72,-87.99"/>
</a>
</g>
</g>
<!-- Node10 -->
<g id="Node000010" class="node">
<title>Node10</title>
<g id="a_Node000010"><a xlink:href="game__over_8h.html" target="_top" xlink:title="Fichier de l&#39;ecran de fin de partie et des transitions associees.">
<polygon fill="white" stroke="#666666" points="247.21,-76 174.96,-76 174.96,-56 247.21,-56 247.21,-76"/>
<text xml:space="preserve" text-anchor="middle" x="211.09" y="-62.5" font-family="Helvetica,sans-Serif" font-size="10.00">game_over.h</text>
</a>
</g>
</g>
<!-- Node2&#45;&gt;Node10 -->
<g id="edge11_Node000002_Node000010" class="edge">
<title>Node2&#45;&gt;Node10</title>
<g id="a_edge11_Node000002_Node000010"><a xlink:title=" ">
<path fill="none" stroke="#63b8ff" d="M665.26,-118.2C587.29,-112.69 414.25,-99.06 258.56,-76.24"/>
<polygon fill="#63b8ff" stroke="#63b8ff" points="259.28,-72.8 248.88,-74.8 258.26,-79.73 259.28,-72.8"/>
</a>
</g>
</g>
<!-- Node11 -->
<g id="Node000011" class="node">
<title>Node11</title>
<g id="a_Node000011"><a xlink:href="jeux_8h.html" target="_top" xlink:title="Fichier de la boucle de jeu principale et de son initialisation.">
<polygon fill="white" stroke="#666666" points="119.21,-76 76.96,-76 76.96,-56 119.21,-56 119.21,-76"/>
<text xml:space="preserve" text-anchor="middle" x="98.09" y="-62.5" font-family="Helvetica,sans-Serif" font-size="10.00">jeux.h</text>
</a>
</g>
</g>
<!-- Node2&#45;&gt;Node11 -->
<g id="edge14_Node000002_Node000011" class="edge">
<title>Node2&#45;&gt;Node11</title>
<g id="a_edge14_Node000002_Node000011"><a xlink:title=" ">
<path fill="none" stroke="#63b8ff" d="M665.37,-120.2C570.3,-117.85 330.53,-108.87 133.09,-76 132.25,-75.86 131.4,-75.71 130.55,-75.55"/>
<polygon fill="#63b8ff" stroke="#63b8ff" points="131.43,-72.16 120.91,-73.44 129.93,-79 131.43,-72.16"/>
</a>
</g>
</g>
<!-- Node12 -->
<g id="Node000012" class="node">
<title>Node12</title>
<g id="a_Node000012"><a xlink:href="bouton_8h.html" target="_top" xlink:title="Fichier des boutons UI, de leur etat et de la gestion des interactions souris.">
<polygon fill="white" stroke="#666666" points="318.84,-76 265.34,-76 265.34,-56 318.84,-56 318.84,-76"/>
<text xml:space="preserve" text-anchor="middle" x="292.09" y="-62.5" font-family="Helvetica,sans-Serif" font-size="10.00">bouton.h</text>
</a>
</g>
</g>
<!-- Node2&#45;&gt;Node12 -->
<g id="edge18_Node000002_Node000012" class="edge">
<title>Node2&#45;&gt;Node12</title>
<g id="a_edge18_Node000002_Node000012"><a xlink:title=" ">
<path fill="none" stroke="#63b8ff" d="M665.33,-117.79C597.21,-112.16 457.82,-99.08 330.25,-76.18"/>
<polygon fill="#63b8ff" stroke="#63b8ff" points="331.09,-72.77 320.62,-74.42 329.83,-79.66 331.09,-72.77"/>
</a>
</g>
</g>
<!-- Node13 -->
<g id="Node000013" class="node">
<title>Node13</title>
<g id="a_Node000013"><a xlink:href="option_8h.html" target="_top" xlink:title="Fichier de l&#39;ecran d&#39;options et des reglages de jeu.">
<polygon fill="white" stroke="#666666" points="387.34,-76 336.84,-76 336.84,-56 387.34,-56 387.34,-76"/>
<text xml:space="preserve" text-anchor="middle" x="362.09" y="-62.5" font-family="Helvetica,sans-Serif" font-size="10.00">option.h</text>
</a>
</g>
</g>
<!-- Node2&#45;&gt;Node13 -->
<g id="edge21_Node000002_Node000013" class="edge">
<title>Node2&#45;&gt;Node13</title>
<g id="a_edge21_Node000002_Node000013"><a xlink:title=" ">
<path fill="none" stroke="#63b8ff" d="M665.32,-116.5C607.48,-109.94 499.57,-96.48 398.63,-76.33"/>
<polygon fill="#63b8ff" stroke="#63b8ff" points="399.61,-72.96 389.11,-74.4 398.22,-79.82 399.61,-72.96"/>
</a>
</g>
</g>
<!-- Node14 -->
<g id="Node000014" class="node">
<title>Node14</title>
<g id="a_Node000014"><a xlink:href="perso_8h.html" target="_top" xlink:title="Fichier du personnage: deplacement, combat, stats et collisions.">
<polygon fill="white" stroke="#666666" points="511.21,-76 462.96,-76 462.96,-56 511.21,-56 511.21,-76"/>
<text xml:space="preserve" text-anchor="middle" x="487.09" y="-62.5" font-family="Helvetica,sans-Serif" font-size="10.00">perso.h</text>
</a>
</g>
</g>
<!-- Node2&#45;&gt;Node14 -->
<g id="edge24_Node000002_Node000014" class="edge">
<title>Node2&#45;&gt;Node14</title>
<g id="a_edge24_Node000002_Node000014"><a xlink:title=" ">
<path fill="none" stroke="#63b8ff" d="M666.14,-111.52C630.57,-103.2 577.39,-90.57 522.56,-76.58"/>
<polygon fill="#63b8ff" stroke="#63b8ff" points="523.59,-73.23 513.04,-74.14 521.86,-80.01 523.59,-73.23"/>
</a>
</g>
</g>
<!-- Node15 -->
<g id="Node000015" class="node">
<title>Node15</title>
<g id="a_Node000015"><a xlink:href="son_8h.html" target="_top" xlink:title="Fichier audio: musique, effets sonores et etats d&#39;activation.">
<polygon fill="white" stroke="#666666" points="445.09,-76 405.09,-76 405.09,-56 445.09,-56 445.09,-76"/>
<text xml:space="preserve" text-anchor="middle" x="425.09" y="-62.5" font-family="Helvetica,sans-Serif" font-size="10.00">son.h</text>
</a>
</g>
</g>
<!-- Node2&#45;&gt;Node15 -->
<g id="edge27_Node000002_Node000015" class="edge">
<title>Node2&#45;&gt;Node15</title>
<g id="a_edge27_Node000002_Node000015"><a xlink:title=" ">
<path fill="none" stroke="#63b8ff" d="M665.56,-115.24C617.43,-108.21 535.56,-95.16 456.42,-76.32"/>
<polygon fill="#63b8ff" stroke="#63b8ff" points="457.29,-72.93 446.75,-73.98 455.64,-79.73 457.29,-72.93"/>
</a>
</g>
</g>
<!-- Node17 -->
<g id="Node000017" class="node">
<title>Node17</title>
<g id="a_Node000017"><a xlink:href="boss_8h.html" target="_top" xlink:title="API de gestion des boss, de leurs phases et de leurs comportements de combat.">
<polygon fill="white" stroke="#666666" points="574.71,-76 529.46,-76 529.46,-56 574.71,-56 574.71,-76"/>
<text xml:space="preserve" text-anchor="middle" x="552.09" y="-62.5" font-family="Helvetica,sans-Serif" font-size="10.00">boss.h</text>
</a>
</g>
</g>
<!-- Node2&#45;&gt;Node17 -->
<g id="edge32_Node000002_Node000017" class="edge">
<title>Node2&#45;&gt;Node17</title>
<g id="a_edge32_Node000002_Node000017"><a xlink:title=" ">
<path fill="none" stroke="#63b8ff" d="M680.09,-111.59C653.75,-102.42 613.62,-88.44 585.33,-78.58"/>
<polygon fill="#63b8ff" stroke="#63b8ff" points="586.77,-75.38 576.18,-75.39 584.47,-81.99 586.77,-75.38"/>
</a>
</g>
</g>
<!-- Node18 -->
<g id="Node000018" class="node">
<title>Node18</title>
<g id="a_Node000018"><a xlink:href="mob_8h.html" target="_top" xlink:title="Fichier des mobs: creation, mise a jour, rendu et file de respawn.">
<polygon fill="white" stroke="#666666" points="635.59,-76 592.59,-76 592.59,-56 635.59,-56 635.59,-76"/>
<text xml:space="preserve" text-anchor="middle" x="614.09" y="-62.5" font-family="Helvetica,sans-Serif" font-size="10.00">mob.h</text>
</a>
</g>
</g>
<!-- Node2&#45;&gt;Node18 -->
<g id="edge35_Node000002_Node000018" class="edge">
<title>Node2&#45;&gt;Node18</title>
<g id="a_edge35_Node000002_Node000018"><a xlink:title=" ">
<path fill="none" stroke="#63b8ff" d="M690.89,-111.59C676.84,-103.44 656.25,-91.48 639.93,-82"/>
<polygon fill="#63b8ff" stroke="#63b8ff" points="642.13,-79.23 631.72,-77.24 638.61,-85.29 642.13,-79.23"/>
</a>
</g>
</g>
<!-- Node19 -->
<g id="Node000019" class="node">
<title>Node19</title>
<g id="a_Node000019"><a xlink:href="vaisseau_8h.html" target="_top" xlink:title="Fichier de la scene vaisseau, des interactions et du retour en planete.">
<polygon fill="white" stroke="#666666" points="962.71,-76 899.46,-76 899.46,-56 962.71,-56 962.71,-76"/>
<text xml:space="preserve" text-anchor="middle" x="931.09" y="-62.5" font-family="Helvetica,sans-Serif" font-size="10.00">vaisseau.h</text>
</a>
</g>
</g>
<!-- Node2&#45;&gt;Node19 -->
<g id="edge38_Node000002_Node000019" class="edge">
<title>Node2&#45;&gt;Node19</title>
<g id="a_edge38_Node000002_Node000019"><a xlink:title=" ">
<path fill="none" stroke="#63b8ff" d="M746.36,-111.53C786.04,-101.97 847.18,-87.23 888.13,-77.35"/>
<polygon fill="#63b8ff" stroke="#63b8ff" points="888.74,-80.81 897.64,-75.06 887.1,-74 888.74,-80.81"/>
</a>
</g>
</g>
<!-- Node20 -->
<g id="Node000020" class="node">
<title>Node20</title>
<g id="a_Node000020"><a xlink:href="map_8h.html" target="_top" xlink:title="Fichier de navigation carte et de gestion des ressources cartographiques.">
<polygon fill="white" stroke="#666666" points="58.59,-76 15.59,-76 15.59,-56 58.59,-56 58.59,-76"/>
<text xml:space="preserve" text-anchor="middle" x="37.09" y="-62.5" font-family="Helvetica,sans-Serif" font-size="10.00">map.h</text>
</a>
</g>
</g>
<!-- Node2&#45;&gt;Node20 -->
<g id="edge40_Node000002_Node000020" class="edge">
<title>Node2&#45;&gt;Node20</title>
<g id="a_edge40_Node000002_Node000020"><a xlink:title=" ">
<path fill="none" stroke="#63b8ff" d="M665.22,-121.11C564.24,-120.72 299.34,-115.83 70.19,-75.96"/>
<polygon fill="#63b8ff" stroke="#63b8ff" points="70.91,-72.54 60.45,-74.24 69.69,-79.43 70.91,-72.54"/>
</a>
</g>
</g>
<!-- Node21 -->
<g id="Node000021" class="node">
<title>Node21</title>
<g id="a_Node000021"><a xlink:href="item_8h.html" target="_top" xlink:title="Fichier de creation, d&#39;affichage et de destruction des items.">
<polygon fill="white" stroke="#666666" points="696.59,-76 653.59,-76 653.59,-56 696.59,-56 696.59,-76"/>
<text xml:space="preserve" text-anchor="middle" x="675.09" y="-62.5" font-family="Helvetica,sans-Serif" font-size="10.00">item.h</text>
</a>
</g>
</g>
<!-- Node2&#45;&gt;Node21 -->
<g id="edge44_Node000002_Node000021" class="edge">
<title>Node2&#45;&gt;Node21</title>
<g id="a_edge44_Node000002_Node000021"><a xlink:title=" ">
<path fill="none" stroke="#63b8ff" d="M701.51,-111.59C697.34,-104.55 691.48,-94.67 686.34,-86"/>
<polygon fill="#63b8ff" stroke="#63b8ff" points="689.48,-84.42 681.37,-77.6 683.45,-87.99 689.48,-84.42"/>
</a>
</g>
</g>
<!-- Node22 -->
<g id="Node000022" class="node">
<title>Node22</title>
<g id="a_Node000022"><a xlink:href="inventaire_8h.html" target="_top" xlink:title="Fichier de l&#39;inventaire, de la hotbar et des interactions de slots.">
<polygon fill="white" stroke="#666666" points="1047.21,-76 980.96,-76 980.96,-56 1047.21,-56 1047.21,-76"/>
<text xml:space="preserve" text-anchor="middle" x="1014.09" y="-62.5" font-family="Helvetica,sans-Serif" font-size="10.00">inventaire.h</text>
</a>
</g>
</g>
<!-- Node2&#45;&gt;Node22 -->
<g id="edge47_Node000002_Node000022" class="edge">
<title>Node2&#45;&gt;Node22</title>
<g id="a_edge47_Node000002_Node000022"><a xlink:title=" ">
<path fill="none" stroke="#63b8ff" d="M748.95,-114.46C799.02,-106.51 885.64,-92.37 969.38,-76.46"/>
<polygon fill="#63b8ff" stroke="#63b8ff" points="969.99,-79.9 979.15,-74.59 968.67,-73.03 969.99,-79.9"/>
</a>
</g>
</g>
<!-- Node23 -->
<g id="Node000023" class="node">
<title>Node23</title>
<g id="a_Node000023"><a xlink:href="sauvegarde_8h.html" target="_top" xlink:title="Fichier des slots de sauvegarde et du chargement de progression.">
<polygon fill="white" stroke="#666666" points="1490.34,-76 1415.84,-76 1415.84,-56 1490.34,-56 1490.34,-76"/>
<text xml:space="preserve" text-anchor="middle" x="1453.09" y="-62.5" font-family="Helvetica,sans-Serif" font-size="10.00">sauvegarde.h</text>
</a>
</g>
</g>
<!-- Node2&#45;&gt;Node23 -->
<g id="edge51_Node000002_Node000023" class="edge">
<title>Node2&#45;&gt;Node23</title>
<g id="a_edge51_Node000002_Node000023"><a xlink:title=" ">
<path fill="none" stroke="#63b8ff" d="M748.62,-120.13C855.54,-117.52 1149.12,-107.91 1404.1,-76.07"/>
<polygon fill="#63b8ff" stroke="#63b8ff" points="1404.46,-79.55 1413.94,-74.83 1403.58,-72.61 1404.46,-79.55"/>
</a>
</g>
</g>
<!-- Node25 -->
<g id="Node000025" class="node">
<title>Node25</title>
<g id="a_Node000025"><a xlink:href="objectifs_8h.html" target="_top" xlink:title="Fichier de suivi des objectifs de quete et de leur affichage.">
<polygon fill="white" stroke="#666666" points="842.59,-76 781.59,-76 781.59,-56 842.59,-56 842.59,-76"/>
<text xml:space="preserve" text-anchor="middle" x="812.09" y="-62.5" font-family="Helvetica,sans-Serif" font-size="10.00">objectifs.h</text>
</a>
</g>
</g>
<!-- Node2&#45;&gt;Node25 -->
<g id="edge54_Node000002_Node000025" class="edge">
<title>Node2&#45;&gt;Node25</title>
<g id="a_edge54_Node000002_Node000025"><a xlink:title=" ">
<path fill="none" stroke="#63b8ff" d="M725.37,-111.59C741.39,-103.36 764.92,-91.26 783.43,-81.74"/>
<polygon fill="#63b8ff" stroke="#63b8ff" points="785.01,-84.86 792.31,-77.17 781.81,-78.63 785.01,-84.86"/>
</a>
</g>
</g>
<!-- Node2&#45;&gt;Node26 -->
<g id="edge58_Node000002_Node000026" class="edge">
<title>Node2&#45;&gt;Node26</title>
<g id="a_edge58_Node000002_Node000026"><a xlink:title=" ">
<path fill="none" stroke="#63b8ff" d="M748.7,-119.55C845.37,-115.84 1092.78,-104.31 1309.16,-76.25"/>
<polygon fill="#63b8ff" stroke="#63b8ff" points="1309.45,-79.74 1318.91,-74.97 1308.54,-72.8 1309.45,-79.74"/>
</a>
</g>
</g>
<!-- Node27 -->
<g id="Node000027" class="node">
<title>Node27</title>
<g id="a_Node000027"><a xlink:href="shop_8h.html" target="_top" xlink:title="Fichier de la boutique, des achats et de l&#39;economie joueur.">
<polygon fill="white" stroke="#666666" points="1174.71,-76 1129.46,-76 1129.46,-56 1174.71,-56 1174.71,-76"/>
<text xml:space="preserve" text-anchor="middle" x="1152.09" y="-62.5" font-family="Helvetica,sans-Serif" font-size="10.00">shop.h</text>
</a>
</g>
</g>
<!-- Node2&#45;&gt;Node27 -->
<g id="edge60_Node000002_Node000027" class="edge">
<title>Node2&#45;&gt;Node27</title>
<g id="a_edge60_Node000002_Node000027"><a xlink:title=" ">
<path fill="none" stroke="#63b8ff" d="M748.75,-118.75C821.74,-114.31 977.55,-102.64 1118.17,-76.06"/>
<polygon fill="#63b8ff" stroke="#63b8ff" points="1118.48,-79.56 1127.64,-74.24 1117.15,-72.69 1118.48,-79.56"/>
</a>
</g>
</g>
<!-- Node9&#45;&gt;Node3 -->
<g id="edge9_Node000009_Node000003" class="edge">
<title>Node9&#45;&gt;Node3</title>
<g id="a_edge9_Node000009_Node000003"><a xlink:title=" ">
<path fill="none" stroke="#63b8ff" d="M722.54,-55.59C708.19,-47.44 687.16,-35.48 670.48,-26"/>
<polygon fill="#63b8ff" stroke="#63b8ff" points="672.5,-23.13 662.08,-21.23 669.04,-29.21 672.5,-23.13"/>
</a>
</g>
</g>
<!-- Node9&#45;&gt;Node4 -->
<g id="edge10_Node000009_Node000004" class="edge">
<title>Node9&#45;&gt;Node4</title>
<g id="a_edge10_Node000009_Node000004"><a xlink:title=" ">
<path fill="none" stroke="#63b8ff" d="M714.65,-58.02C711.77,-57.29 708.87,-56.6 706.09,-56 638.43,-41.4 560.66,-29.3 504.12,-21.34"/>
<polygon fill="#63b8ff" stroke="#63b8ff" points="504.63,-17.88 494.24,-19.96 503.66,-24.81 504.63,-17.88"/>
</a>
</g>
</g>
<!-- Node10&#45;&gt;Node3 -->
<g id="edge12_Node000010_Node000003" class="edge">
<title>Node10&#45;&gt;Node3</title>
<g id="a_edge12_Node000010_Node000003"><a xlink:title=" ">
<path fill="none" stroke="#63b8ff" d="M247.39,-57.47C250.33,-56.95 253.25,-56.45 256.09,-56 378.32,-36.72 523.45,-22.06 596.72,-15.23"/>
<polygon fill="#63b8ff" stroke="#63b8ff" points="596.7,-18.75 606.34,-14.34 596.06,-11.78 596.7,-18.75"/>
</a>
</g>
</g>
<!-- Node10&#45;&gt;Node4 -->
<g id="edge13_Node000010_Node000004" class="edge">
<title>Node10&#45;&gt;Node4</title>
<g id="a_edge13_Node000010_Node000004"><a xlink:title=" ">
<path fill="none" stroke="#63b8ff" d="M247.39,-55.84C282.88,-46.88 337.15,-33.19 376.38,-23.29"/>
<polygon fill="#63b8ff" stroke="#63b8ff" points="377.22,-26.69 386.06,-20.85 375.5,-19.9 377.22,-26.69"/>
</a>
</g>
</g>
<!-- Node11&#45;&gt;Node3 -->
<g id="edge15_Node000011_Node000003" class="edge">
<title>Node11&#45;&gt;Node3</title>
<g id="a_edge15_Node000011_Node000003"><a xlink:title=" ">
<path fill="none" stroke="#63b8ff" d="M119.5,-61.96C132.87,-60.11 150.47,-57.77 166.09,-56 323.5,-38.18 510.65,-22.02 596.61,-14.87"/>
<polygon fill="#63b8ff" stroke="#63b8ff" points="596.87,-18.36 606.55,-14.05 596.3,-11.39 596.87,-18.36"/>
</a>
</g>
</g>
<!-- Node11&#45;&gt;Node4 -->
<g id="edge16_Node000011_Node000004" class="edge">
<title>Node11&#45;&gt;Node4</title>
<g id="a_edge16_Node000011_Node000004"><a xlink:title=" ">
<path fill="none" stroke="#63b8ff" d="M119.48,-59.14C123.96,-58.02 128.66,-56.91 133.09,-56 204.84,-41.28 287.39,-28.98 346.38,-20.98"/>
<polygon fill="#63b8ff" stroke="#63b8ff" points="346.54,-24.49 355.98,-19.69 345.6,-17.56 346.54,-24.49"/>
</a>
</g>
</g>
<!-- Node11&#45;&gt;Node6 -->
<g id="edge17_Node000011_Node000006" class="edge">
<title>Node11&#45;&gt;Node6</title>
<g id="a_edge17_Node000011_Node000006"><a xlink:title=" ">
<path fill="none" stroke="#63b8ff" d="M92.86,-55.59C88.99,-48.63 83.58,-38.89 78.8,-30.29"/>
<polygon fill="#63b8ff" stroke="#63b8ff" points="81.9,-28.66 73.99,-21.62 75.78,-32.06 81.9,-28.66"/>
</a>
</g>
</g>
<!-- Node12&#45;&gt;Node3 -->
<g id="edge19_Node000012_Node000003" class="edge">
<title>Node12&#45;&gt;Node3</title>
<g id="a_edge19_Node000012_Node000003"><a xlink:title=" ">
<path fill="none" stroke="#63b8ff" d="M319.14,-57.92C322.15,-57.22 325.18,-56.57 328.09,-56 422.6,-37.51 534.43,-23.38 596.5,-16.22"/>
<polygon fill="#63b8ff" stroke="#63b8ff" points="596.82,-19.71 606.36,-15.09 596.03,-12.75 596.82,-19.71"/>
</a>
</g>
</g>
<!-- Node12&#45;&gt;Node4 -->
<g id="edge20_Node000012_Node000004" class="edge">
<title>Node12&#45;&gt;Node4</title>
<g id="a_edge20_Node000012_Node000004"><a xlink:title=" ">
<path fill="none" stroke="#63b8ff" d="M315.25,-55.59C336.29,-47.05 367.58,-34.35 391.39,-24.68"/>
<polygon fill="#63b8ff" stroke="#63b8ff" points="392.39,-28.05 400.34,-21.05 389.75,-21.57 392.39,-28.05"/>
</a>
</g>
</g>
<!-- Node13&#45;&gt;Node3 -->
<g id="edge22_Node000013_Node000003" class="edge">
<title>Node13&#45;&gt;Node3</title>
<g id="a_edge22_Node000013_Node000003"><a xlink:title=" ">
<path fill="none" stroke="#63b8ff" d="M387.65,-58C390.49,-57.29 393.34,-56.61 396.09,-56 465.63,-40.51 547.03,-26.52 597.07,-18.39"/>
<polygon fill="#63b8ff" stroke="#63b8ff" points="597.37,-21.89 606.68,-16.84 596.25,-14.98 597.37,-21.89"/>
</a>
</g>
</g>
<!-- Node13&#45;&gt;Node4 -->
<g id="edge23_Node000013_Node000004" class="edge">
<title>Node13&#45;&gt;Node4</title>
<g id="a_edge23_Node000013_Node000004"><a xlink:title=" ">
<path fill="none" stroke="#63b8ff" d="M373.06,-55.59C382,-47.93 394.86,-36.91 405.55,-27.75"/>
<polygon fill="#63b8ff" stroke="#63b8ff" points="407.77,-30.45 413.09,-21.28 403.22,-25.13 407.77,-30.45"/>
</a>
</g>
</g>
<!-- Node14&#45;&gt;Node3 -->
<g id="edge25_Node000014_Node000003" class="edge">
<title>Node14&#45;&gt;Node3</title>
<g id="a_edge25_Node000014_Node000003"><a xlink:title=" ">
<path fill="none" stroke="#63b8ff" d="M511.62,-56.56C536.85,-47.88 576.51,-34.24 605.86,-24.15"/>
<polygon fill="#63b8ff" stroke="#63b8ff" points="606.81,-27.52 615.13,-20.96 604.53,-20.9 606.81,-27.52"/>
</a>
</g>
</g>
<!-- Node14&#45;&gt;Node4 -->
<g id="edge26_Node000014_Node000004" class="edge">
<title>Node14&#45;&gt;Node4</title>
<g id="a_edge26_Node000014_Node000004"><a xlink:title=" ">
<path fill="none" stroke="#63b8ff" d="M476.29,-55.59C467.48,-47.93 454.83,-36.91 444.31,-27.75"/>
<polygon fill="#63b8ff" stroke="#63b8ff" points="446.74,-25.22 436.9,-21.29 442.14,-30.5 446.74,-25.22"/>
</a>
</g>
</g>
<!-- Node15&#45;&gt;Node3 -->
<g id="edge28_Node000015_Node000003" class="edge">
<title>Node15&#45;&gt;Node3</title>
<g id="a_edge28_Node000015_Node000003"><a xlink:title=" ">
<path fill="none" stroke="#63b8ff" d="M445.31,-58.53C448.25,-57.65 451.24,-56.78 454.09,-56 502.6,-42.74 558.69,-29.74 597.29,-21.15"/>
<polygon fill="#63b8ff" stroke="#63b8ff" points="597.7,-24.64 606.7,-19.06 596.18,-17.81 597.7,-24.64"/>
</a>
</g>
</g>
<!-- Node15&#45;&gt;Node4 -->
<g id="edge29_Node000015_Node000004" class="edge">
<title>Node15&#45;&gt;Node4</title>
<g id="a_edge29_Node000015_Node000004"><a xlink:title=" ">
<path fill="none" stroke="#63b8ff" d="M425.09,-55.59C425.09,-49.01 425.09,-39.96 425.09,-31.73"/>
<polygon fill="#63b8ff" stroke="#63b8ff" points="428.59,-31.81 425.09,-21.81 421.59,-31.81 428.59,-31.81"/>
</a>
</g>
</g>
<!-- Node15&#45;&gt;Node6 -->
<g id="edge31_Node000015_Node000006" class="edge">
<title>Node15&#45;&gt;Node6</title>
<g id="a_edge31_Node000015_Node000006"><a xlink:title=" ">
<path fill="none" stroke="#63b8ff" d="M404.6,-58.19C401.76,-57.37 398.86,-56.62 396.09,-56 310.95,-37.09 211.52,-24.78 144.64,-17.9"/>
<polygon fill="#63b8ff" stroke="#63b8ff" points="145.18,-14.44 134.87,-16.91 144.47,-21.4 145.18,-14.44"/>
</a>
</g>
</g>
<!-- Node15&#45;&gt;Node16 -->
<g id="edge30_Node000015_Node000016" class="edge">
<title>Node15&#45;&gt;Node16</title>
<g id="a_edge30_Node000015_Node000016"><a xlink:title=" ">
<path fill="none" stroke="#63b8ff" d="M445.55,-58.09C448.39,-57.29 451.29,-56.56 454.09,-56 594.36,-27.66 762.49,-16.96 851.21,-13.08"/>
<polygon fill="#63b8ff" stroke="#63b8ff" points="851.31,-16.58 861.16,-12.66 851.02,-9.58 851.31,-16.58"/>
</a>
</g>
</g>
<!-- Node17&#45;&gt;Node3 -->
<g id="edge33_Node000017_Node000003" class="edge">
<title>Node17&#45;&gt;Node3</title>
<g id="a_edge33_Node000017_Node000003"><a xlink:title=" ">
<path fill="none" stroke="#63b8ff" d="M568.11,-55.59C581.88,-47.51 601.99,-35.71 618.06,-26.27"/>
<polygon fill="#63b8ff" stroke="#63b8ff" points="619.78,-29.33 626.63,-21.25 616.23,-23.29 619.78,-29.33"/>
</a>
</g>
</g>
<!-- Node17&#45;&gt;Node4 -->
<g id="edge34_Node000017_Node000004" class="edge">
<title>Node17&#45;&gt;Node4</title>
<g id="a_edge34_Node000017_Node000004"><a xlink:title=" ">
<path fill="none" stroke="#63b8ff" d="M529.96,-55.59C510.05,-47.13 480.53,-34.58 457.88,-24.94"/>
<polygon fill="#63b8ff" stroke="#63b8ff" points="459.34,-21.76 448.77,-21.07 456.61,-28.21 459.34,-21.76"/>
</a>
</g>
</g>
<!-- Node18&#45;&gt;Node3 -->
<g id="edge36_Node000018_Node000003" class="edge">
<title>Node18&#45;&gt;Node3</title>
<g id="a_edge36_Node000018_Node000003"><a xlink:title=" ">
<path fill="none" stroke="#63b8ff" d="M619.31,-55.59C623.18,-48.63 628.59,-38.89 633.37,-30.29"/>
<polygon fill="#63b8ff" stroke="#63b8ff" points="636.39,-32.06 638.18,-21.62 630.27,-28.66 636.39,-32.06"/>
</a>
</g>
</g>
<!-- Node18&#45;&gt;Node4 -->
<g id="edge37_Node000018_Node000004" class="edge">
<title>Node18&#45;&gt;Node4</title>
<g id="a_edge37_Node000018_Node000004"><a xlink:title=" ">
<path fill="none" stroke="#63b8ff" d="M592.14,-58.37C589.43,-57.57 586.7,-56.76 584.09,-56 545.53,-44.76 501.59,-32.36 469.69,-23.42"/>
<polygon fill="#63b8ff" stroke="#63b8ff" points="470.97,-20.15 460.4,-20.82 469.08,-26.89 470.97,-20.15"/>
</a>
</g>
</g>
<!-- Node19&#45;&gt;Node3 -->
<g id="edge39_Node000019_Node000003" class="edge">
<title>Node19&#45;&gt;Node3</title>
<g id="a_edge39_Node000019_Node000003"><a xlink:title=" ">
<path fill="none" stroke="#63b8ff" d="M899.42,-58.77C894.62,-57.83 889.72,-56.89 885.09,-56 817.74,-43.12 739.73,-28.64 691.13,-19.66"/>
<polygon fill="#63b8ff" stroke="#63b8ff" points="691.99,-16.26 681.52,-17.89 690.72,-23.14 691.99,-16.26"/>
</a>
</g>
</g>
<!-- Node20&#45;&gt;Node3 -->
<g id="edge41_Node000020_Node000003" class="edge">
<title>Node20&#45;&gt;Node3</title>
<g id="a_edge41_Node000020_Node000003"><a xlink:title=" ">
<path fill="none" stroke="#63b8ff" d="M58.97,-58.05C62.01,-57.26 65.11,-56.54 68.09,-56 119.46,-46.64 468.41,-22.73 596.8,-14.14"/>
<polygon fill="#63b8ff" stroke="#63b8ff" points="596.91,-17.64 606.66,-13.48 596.44,-10.65 596.91,-17.64"/>
</a>
</g>
</g>
<!-- Node20&#45;&gt;Node4 -->
<g id="edge42_Node000020_Node000004" class="edge">
<title>Node20&#45;&gt;Node4</title>
<g id="a_edge42_Node000020_Node000004"><a xlink:title=" ">
<path fill="none" stroke="#63b8ff" d="M58.99,-58.18C62.03,-57.37 65.12,-56.61 68.09,-56 162.74,-36.42 273.38,-24.07 346.11,-17.36"/>
<polygon fill="#63b8ff" stroke="#63b8ff" points="346.3,-20.86 355.95,-16.47 345.67,-13.89 346.3,-20.86"/>
</a>
</g>
</g>
<!-- Node20&#45;&gt;Node6 -->
<g id="edge43_Node000020_Node000006" class="edge">
<title>Node20&#45;&gt;Node6</title>
<g id="a_edge43_Node000020_Node000006"><a xlink:title=" ">
<path fill="none" stroke="#63b8ff" d="M42.48,-55.59C46.53,-48.55 52.2,-38.67 57.18,-30"/>
<polygon fill="#63b8ff" stroke="#63b8ff" points="60.05,-32.03 61.99,-21.61 53.98,-28.54 60.05,-32.03"/>
</a>
</g>
</g>
<!-- Node21&#45;&gt;Node3 -->
<g id="edge45_Node000021_Node000003" class="edge">
<title>Node21&#45;&gt;Node3</title>
<g id="a_edge45_Node000021_Node000003"><a xlink:title=" ">
<path fill="none" stroke="#63b8ff" d="M669.69,-55.59C665.64,-48.55 659.97,-38.67 654.99,-30"/>
<polygon fill="#63b8ff" stroke="#63b8ff" points="658.19,-28.54 650.18,-21.61 652.12,-32.03 658.19,-28.54"/>
</a>
</g>
</g>
<!-- Node21&#45;&gt;Node4 -->
<g id="edge46_Node000021_Node000004" class="edge">
<title>Node21&#45;&gt;Node4</title>
<g id="a_edge46_Node000021_Node000004"><a xlink:title=" ">
<path fill="none" stroke="#63b8ff" d="M653.19,-58.19C650.47,-57.41 647.72,-56.66 645.09,-56 593.09,-42.91 533.47,-30.9 489.42,-22.58"/>
<polygon fill="#63b8ff" stroke="#63b8ff" points="490.25,-19.18 479.77,-20.78 488.96,-26.06 490.25,-19.18"/>
</a>
</g>
</g>
<!-- Node22&#45;&gt;Node3 -->
<g id="edge48_Node000022_Node000003" class="edge">
<title>Node22&#45;&gt;Node3</title>
<g id="a_edge48_Node000022_Node000003"><a xlink:title=" ">
<path fill="none" stroke="#63b8ff" d="M980.66,-57.6C977.76,-57.03 974.88,-56.49 972.09,-56 872.69,-38.56 755.35,-23.87 691.43,-16.37"/>
<polygon fill="#63b8ff" stroke="#63b8ff" points="691.98,-12.91 681.64,-15.23 691.17,-19.86 691.98,-12.91"/>
</a>
</g>
</g>
<!-- Node22&#45;&gt;Node4 -->
<g id="edge49_Node000022_Node000004" class="edge">
<title>Node22&#45;&gt;Node4</title>
<g id="a_edge49_Node000022_Node000004"><a xlink:title=" ">
<path fill="none" stroke="#63b8ff" d="M980.69,-57.44C977.79,-56.9 974.89,-56.41 972.09,-56 884.01,-43 633.08,-25 503.96,-16.23"/>
<polygon fill="#63b8ff" stroke="#63b8ff" points="504.33,-12.75 494.12,-15.56 503.86,-19.73 504.33,-12.75"/>
</a>
</g>
</g>
<!-- Node22&#45;&gt;Node16 -->
<g id="edge50_Node000022_Node000016" class="edge">
<title>Node22&#45;&gt;Node16</title>
<g id="a_edge50_Node000022_Node000016"><a xlink:title=" ">
<path fill="none" stroke="#63b8ff" d="M996.49,-55.59C981.16,-47.4 958.67,-35.37 940.9,-25.87"/>
<polygon fill="#63b8ff" stroke="#63b8ff" points="942.62,-22.82 932.15,-21.19 939.32,-28.99 942.62,-22.82"/>
</a>
</g>
</g>
<!-- Node23&#45;&gt;Node3 -->
<g id="edge52_Node000023_Node000003" class="edge">
<title>Node23&#45;&gt;Node3</title>
<g id="a_edge52_Node000023_Node000003"><a xlink:title=" ">
<path fill="none" stroke="#63b8ff" d="M1415.44,-57.34C1412.29,-56.84 1409.14,-56.38 1406.09,-56 1266.67,-38.61 835.44,-19.16 691.44,-12.99"/>
<polygon fill="#63b8ff" stroke="#63b8ff" points="691.65,-9.49 681.51,-12.56 691.35,-16.49 691.65,-9.49"/>
</a>
</g>
</g>
<!-- Node24 -->
<g id="Node000024" class="node">
<title>Node24</title>
<g id="a_Node000024"><a xlink:title=" ">
<polygon fill="#e0e0e0" stroke="#999999" points="1480.96,-20 1425.21,-20 1425.21,0 1480.96,0 1480.96,-20"/>
<text xml:space="preserve" text-anchor="middle" x="1453.09" y="-6.5" font-family="Helvetica,sans-Serif" font-size="10.00">stdbool.h</text>
</a>
</g>
</g>
<!-- Node23&#45;&gt;Node24 -->
<g id="edge53_Node000023_Node000024" class="edge">
<title>Node23&#45;&gt;Node24</title>
<g id="a_edge53_Node000023_Node000024"><a xlink:title=" ">
<path fill="none" stroke="#63b8ff" d="M1453.09,-55.59C1453.09,-49.01 1453.09,-39.96 1453.09,-31.73"/>
<polygon fill="#63b8ff" stroke="#63b8ff" points="1456.59,-31.81 1453.09,-21.81 1449.59,-31.81 1456.59,-31.81"/>
</a>
</g>
</g>
<!-- Node25&#45;&gt;Node3 -->
<g id="edge55_Node000025_Node000003" class="edge">
<title>Node25&#45;&gt;Node3</title>
<g id="a_edge55_Node000025_Node000003"><a xlink:title=" ">
<path fill="none" stroke="#63b8ff" d="M782.82,-55.59C755.53,-46.82 714.57,-33.66 684.23,-23.9"/>
<polygon fill="#63b8ff" stroke="#63b8ff" points="685.61,-20.67 675.02,-20.94 683.47,-27.33 685.61,-20.67"/>
</a>
</g>
</g>
<!-- Node25&#45;&gt;Node4 -->
<g id="edge56_Node000025_Node000004" class="edge">
<title>Node25&#45;&gt;Node4</title>
<g id="a_edge56_Node000025_Node000004"><a xlink:title=" ">
<path fill="none" stroke="#63b8ff" d="M781.13,-57.74C778.08,-57.11 775.03,-56.52 772.09,-56 680.57,-39.81 574.52,-26.9 503.98,-19.13"/>
<polygon fill="#63b8ff" stroke="#63b8ff" points="504.36,-15.65 494.04,-18.04 503.6,-22.61 504.36,-15.65"/>
</a>
</g>
</g>
<!-- Node25&#45;&gt;Node16 -->
<g id="edge57_Node000025_Node000016" class="edge">
<title>Node25&#45;&gt;Node16</title>
<g id="a_edge57_Node000025_Node000016"><a xlink:title=" ">
<path fill="none" stroke="#63b8ff" d="M829.68,-55.59C845.01,-47.4 867.5,-35.37 885.27,-25.87"/>
<polygon fill="#63b8ff" stroke="#63b8ff" points="886.85,-28.99 894.02,-21.19 883.55,-22.82 886.85,-28.99"/>
</a>
</g>
</g>
<!-- Node26&#45;&gt;Node3 -->
<g id="edge59_Node000026_Node000003" class="edge">
<title>Node26&#45;&gt;Node3</title>
<g id="a_edge59_Node000026_Node000003"><a xlink:title=" ">
<path fill="none" stroke="#63b8ff" d="M1320.42,-57.21C1317.6,-56.76 1314.8,-56.35 1312.09,-56 1191.65,-40.47 822.81,-20.31 691.29,-13.43"/>
<polygon fill="#63b8ff" stroke="#63b8ff" points="691.72,-9.95 681.55,-12.92 691.36,-16.94 691.72,-9.95"/>
</a>
</g>
</g>
<!-- Node27&#45;&gt;Node3 -->
<g id="edge61_Node000027_Node000003" class="edge">
<title>Node27&#45;&gt;Node3</title>
<g id="a_edge61_Node000027_Node000003"><a xlink:title=" ">
<path fill="none" stroke="#63b8ff" d="M1129.13,-58.01C1126.11,-57.25 1123.04,-56.55 1120.09,-56 964.99,-27.1 777.82,-16.31 691.69,-12.67"/>
<polygon fill="#63b8ff" stroke="#63b8ff" points="691.87,-9.17 681.73,-12.26 691.58,-16.17 691.87,-9.17"/>
</a>
</g>
</g>
</g>
</svg>
