<?xml version="1.0" encoding="UTF-8" standalone="no"?>
<!DOCTYPE svg PUBLIC "-//W3C//DTD SVG 1.1//EN"
 "http://www.w3.org/Graphics/SVG/1.1/DTD/svg11.dtd">
<!-- Generated by graphviz version 14.1.4 (20260321.0153)
 -->
<!-- Title: jouer_cinematique_intro Pages: 1 -->
<svg width="389pt" height="173pt"
 viewBox="0.00 0.00 389.00 173.00" xmlns="http://www.w3.org/2000/svg" xmlns:xlink="http://www.w3.org/1999/xlink">
<g id="graph0" class="graph" transform="scale(1 1) rotate(0) translate(4 169.34)">
<title>jouer_cinematique_intro</title>
<!-- Node1 -->
<g id="Node000001" class="node">
<title>Node1</title>
<g id="a_Node000001"><a xlink:title="Lance cinematique intro et gere son deroulement complet.">
<polygon fill="#999999" stroke="#666666" points="118.75,-77.34 0,-77.34 0,-57.34 118.75,-57.34 118.75,-77.34"/>
<text xml:space="preserve" text-anchor="middle" x="59.38" y="-63.84" font-family="Helvetica,sans-Serif" font-size="10.00">jouer_cinematique_intro</text>
</a>
</g>
</g>
<!-- Node2 -->
<g id="Node000002" class="node">
<title>Node2</title>
<g id="a_Node000002"><a xlink:href="cinematique_8c.html#afae5a03fe94acd903353ee8e749e6893" target="_top" xlink:title=" ">
<polygon fill="white" stroke="#666666" points="265.25,-165.34 154.75,-165.34 154.75,-145.34 265.25,-145.34 265.25,-165.34"/>
<text xml:space="preserve" text-anchor="middle" x="210" y="-151.84" font-family="Helvetica,sans-Serif" font-size="10.00">rendre_texture_centre</text>
</a>
</g>
</g>
<!-- Node1&#45;&gt;Node2 -->
<g id="edge1_Node000001_Node000002" class="edge">
<title>Node1&#45;&gt;Node2</title>
<g id="a_edge1_Node000001_Node000002"><a xlink:title=" ">
<path fill="none" stroke="#63b8ff" d="M72.13,-77.72C89.27,-92.44 122.59,-119.43 154.75,-136.34 157.61,-137.84 160.61,-139.27 163.67,-140.61"/>
<polygon fill="#63b8ff" stroke="#63b8ff" points="162.22,-143.8 172.8,-144.3 164.84,-137.31 162.22,-143.8"/>
</a>
</g>
</g>
<!-- Node3 -->
<g id="Node000003" class="node">
<title>Node3</title>
<g id="a_Node000003"><a xlink:href="cinematique_8c.html#ad9120e348b88351431f305432e9e1cb1" target="_top" xlink:title=" ">
<polygon fill="white" stroke="#666666" points="265.25,-127.34 154.75,-127.34 154.75,-95.34 265.25,-95.34 265.25,-127.34"/>
<text xml:space="preserve" text-anchor="start" x="162.75" y="-113.84" font-family="Helvetica,sans-Serif" font-size="10.00">rendre_texture_centre</text>
<text xml:space="preserve" text-anchor="middle" x="210" y="-101.84" font-family="Helvetica,sans-Serif" font-size="10.00">_natif</text>
</a>
</g>
</g>
<!-- Node1&#45;&gt;Node3 -->
<g id="edge2_Node000001_Node000003" class="edge">
<title>Node1&#45;&gt;Node3</title>
<g id="a_edge2_Node000001_Node000003"><a xlink:title=" ">
<path fill="none" stroke="#63b8ff" d="M95.6,-77.77C109.96,-82.02 127.05,-87.08 143.55,-91.97"/>
<polygon fill="#63b8ff" stroke="#63b8ff" points="142.24,-95.23 152.82,-94.71 144.22,-88.51 142.24,-95.23"/>
</a>
</g>
</g>
<!-- Node4 -->
<g id="Node000004" class="node">
<title>Node4</title>
<g id="a_Node000004"><a xlink:href="main_8h.html#a6c672075bc554c92548a916c9501bdb5" target="_top" xlink:title=" ">
<polygon fill="white" stroke="#666666" points="254,-77.34 166,-77.34 166,-57.34 254,-57.34 254,-77.34"/>
<text xml:space="preserve" text-anchor="middle" x="210" y="-63.84" font-family="Helvetica,sans-Serif" font-size="10.00">screen_center_x</text>
</a>
</g>
</g>
<!-- Node1&#45;&gt;Node4 -->
<g id="edge3_Node000001_Node000004" class="edge">
<title>Node1&#45;&gt;Node4</title>
<g id="a_edge3_Node000001_Node000004"><a xlink:title=" ">
<path fill="none" stroke="#63b8ff" d="M119.12,-67.34C130.8,-67.34 143.02,-67.34 154.55,-67.34"/>
<polygon fill="#63b8ff" stroke="#63b8ff" points="154.3,-70.84 164.3,-67.34 154.3,-63.84 154.3,-70.84"/>
</a>
</g>
</g>
<!-- Node6 -->
<g id="Node000006" class="node">
<title>Node6</title>
<g id="a_Node000006"><a xlink:href="main_8h.html#a6456affd0d0a21e911b531a5ba25676d" target="_top" xlink:title=" ">
<polygon fill="white" stroke="#666666" points="254,-39.34 166,-39.34 166,-19.34 254,-19.34 254,-39.34"/>
<text xml:space="preserve" text-anchor="middle" x="210" y="-25.84" font-family="Helvetica,sans-Serif" font-size="10.00">screen_center_y</text>
</a>
</g>
</g>
<!-- Node1&#45;&gt;Node6 -->
<g id="edge5_Node000001_Node000006" class="edge">
<title>Node1&#45;&gt;Node6</title>
<g id="a_edge5_Node000001_Node000006"><a xlink:title=" ">
<path fill="none" stroke="#63b8ff" d="M101.38,-56.86C118.6,-52.45 138.83,-47.28 157.07,-42.62"/>
<polygon fill="#63b8ff" stroke="#63b8ff" points="157.84,-46.03 166.66,-40.17 156.11,-39.25 157.84,-46.03"/>
</a>
</g>
</g>
<!-- Node7 -->
<g id="Node000007" class="node">
<title>Node7</title>
<g id="a_Node000007"><a xlink:href="main_8h.html#a9b4aefc63ea00e60ec88da19e24e8236" target="_top" xlink:title=" ">
<polygon fill="white" stroke="#666666" points="381,-20.34 301.25,-20.34 301.25,-0.34 381,-0.34 381,-20.34"/>
<text xml:space="preserve" text-anchor="middle" x="341.12" y="-6.84" font-family="Helvetica,sans-Serif" font-size="10.00">screen_heightf</text>
</a>
</g>
</g>
<!-- Node1&#45;&gt;Node7 -->
<g id="edge7_Node000001_Node000007" class="edge">
<title>Node1&#45;&gt;Node7</title>
<g id="a_edge7_Node000001_Node000007"><a xlink:title=" ">
<path fill="none" stroke="#63b8ff" d="M72.47,-57C89.49,-43.2 122.11,-19.43 154.75,-10.34 199.14,2.02 251.87,0.56 289.72,-3.14"/>
<polygon fill="#63b8ff" stroke="#63b8ff" points="289.14,-6.6 299.46,-4.18 289.89,0.36 289.14,-6.6"/>
</a>
</g>
</g>
<!-- Node5 -->
<g id="Node000005" class="node">
<title>Node5</title>
<g id="a_Node000005"><a xlink:href="main_8h.html#aaaa1e9fcb86ff8e60b297faa7815ad1d" target="_top" xlink:title=" ">
<polygon fill="white" stroke="#666666" points="379.5,-77.34 302.75,-77.34 302.75,-57.34 379.5,-57.34 379.5,-77.34"/>
<text xml:space="preserve" text-anchor="middle" x="341.12" y="-63.84" font-family="Helvetica,sans-Serif" font-size="10.00">screen_widthf</text>
</a>
</g>
</g>
<!-- Node4&#45;&gt;Node5 -->
<g id="edge4_Node000004_Node000005" class="edge">
<title>Node4&#45;&gt;Node5</title>
<g id="a_edge4_Node000004_Node000005"><a xlink:title=" ">
<path fill="none" stroke="#63b8ff" d="M254.36,-67.34C266.13,-67.34 278.96,-67.34 291.02,-67.34"/>
<polygon fill="#63b8ff" stroke="#63b8ff" points="290.78,-70.84 300.78,-67.34 290.78,-63.84 290.78,-70.84"/>
</a>
</g>
</g>
<!-- Node6&#45;&gt;Node7 -->
<g id="edge6_Node000006_Node000007" class="edge">
<title>Node6&#45;&gt;Node7</title>
<g id="a_edge6_Node000006_Node000007"><a xlink:title=" ">
<path fill="none" stroke="#63b8ff" d="M254.36,-22.96C265.68,-21.3 277.97,-19.49 289.63,-17.77"/>
<polygon fill="#63b8ff" stroke="#63b8ff" points="290.13,-21.24 299.51,-16.32 289.11,-14.31 290.13,-21.24"/>
</a>
</g>
</g>
</g>
</svg>
