<?xml version="1.0" encoding="UTF-8" standalone="no"?>
<!DOCTYPE svg PUBLIC "-//W3C//DTD SVG 1.1//EN"
 "http://www.w3.org/Graphics/SVG/1.1/DTD/svg11.dtd">
<!-- Generated by graphviz version 14.1.4 (20260321.0153)
 -->
<!-- Title: jouer_cinematique_fin Pages: 1 -->
<svg width="540pt" height="66pt"
 viewBox="0.00 0.00 540.00 66.00" xmlns="http://www.w3.org/2000/svg" xmlns:xlink="http://www.w3.org/1999/xlink">
<g id="graph0" class="graph" transform="scale(1 1) rotate(0) translate(4 62)">
<title>jouer_cinematique_fin</title>
<!-- Node1 -->
<g id="Node000001" class="node">
<title>Node1</title>
<g id="a_Node000001"><a xlink:title="Lance cinematique fin et gere son deroulement complet.">
<polygon fill="#999999" stroke="#666666" points="532.25,-20 421.75,-20 421.75,0 532.25,0 532.25,-20"/>
<text xml:space="preserve" text-anchor="middle" x="477" y="-6.5" font-family="Helvetica,sans-Serif" font-size="10.00">jouer_cinematique_fin</text>
</a>
</g>
</g>
<!-- Node2 -->
<g id="Node000002" class="node">
<title>Node2</title>
<g id="a_Node000002"><a xlink:href="map_8c.html#ad462ccdd50801fb085dc8134fc3765d1" target="_top" xlink:title="Affiche la carte et met a jour les elements visuels associes.">
<polygon fill="white" stroke="#666666" points="385.75,-39 314.25,-39 314.25,-19 385.75,-19 385.75,-39"/>
<text xml:space="preserve" text-anchor="middle" x="350" y="-25.5" font-family="Helvetica,sans-Serif" font-size="10.00">afficher_map</text>
</a>
</g>
</g>
<!-- Node1&#45;&gt;Node2 -->
<g id="edge1_Node000001_Node000002" class="edge">
<title>Node1&#45;&gt;Node2</title>
<g id="a_edge1_Node000001_Node000002"><a xlink:title=" ">
<path fill="none" stroke="#63b8ff" d="M410.25,-19.99C401.97,-21.25 393.76,-22.5 386.21,-23.65"/>
<polygon fill="#63b8ff" stroke="#63b8ff" points="410.68,-23.47 420.04,-18.51 409.63,-16.55 410.68,-23.47"/>
</a>
</g>
</g>
<!-- Node3 -->
<g id="Node000003" class="node">
<title>Node3</title>
<g id="a_Node000003"><a xlink:href="vaisseau_8c.html#ace614afc8df3a40bd5ea0771044ff217" target="_top" xlink:title=" ">
<polygon fill="white" stroke="#666666" points="278.25,-39 164,-39 164,-19 278.25,-19 278.25,-39"/>
<text xml:space="preserve" text-anchor="middle" x="221.12" y="-25.5" font-family="Helvetica,sans-Serif" font-size="10.00">gerer_interaction_objet</text>
</a>
</g>
</g>
<!-- Node2&#45;&gt;Node3 -->
<g id="edge2_Node000002_Node000003" class="edge">
<title>Node2&#45;&gt;Node3</title>
<g id="a_edge2_Node000002_Node000003"><a xlink:title=" ">
<path fill="none" stroke="#63b8ff" d="M302.49,-29C294.67,-29 286.49,-29 278.46,-29"/>
<polygon fill="#63b8ff" stroke="#63b8ff" points="302.48,-32.5 312.48,-29 302.48,-25.5 302.48,-32.5"/>
</a>
</g>
</g>
<!-- Node5 -->
<g id="Node000005" class="node">
<title>Node5</title>
<g id="a_Node000005"><a xlink:href="main_8c.html#a0ddf1224851353fc92bfbff6f499fa97" target="_top" xlink:title=" ">
<polygon fill="white" stroke="#666666" points="37,-58 0,-58 0,-38 37,-38 37,-58"/>
<text xml:space="preserve" text-anchor="middle" x="18.5" y="-44.5" font-family="Helvetica,sans-Serif" font-size="10.00">main</text>
</a>
</g>
</g>
<!-- Node2&#45;&gt;Node5 -->
<g id="edge6_Node000002_Node000005" class="edge">
<title>Node2&#45;&gt;Node5</title>
<g id="a_edge6_Node000002_Node000005"><a xlink:title=" ">
<path fill="none" stroke="#63b8ff" d="M306.42,-42.36C297.22,-44.71 287.48,-46.78 278.25,-48 188.51,-59.84 79.73,-53.04 37.49,-49.61"/>
<polygon fill="#63b8ff" stroke="#63b8ff" points="307.11,-45.8 315.85,-39.81 305.28,-39.05 307.11,-45.8"/>
</a>
</g>
</g>
<!-- Node4 -->
<g id="Node000004" class="node">
<title>Node4</title>
<g id="a_Node000004"><a xlink:href="vaisseau_8c.html#a8ea9afc9440149ddd36e96b97d8ed6c5" target="_top" xlink:title="Lance la scene interieure du vaisseau (deplacement, interactions, mini&#45;jeux, sortie).">
<polygon fill="white" stroke="#666666" points="128,-39 73,-39 73,-19 128,-19 128,-39"/>
<text xml:space="preserve" text-anchor="middle" x="100.5" y="-25.5" font-family="Helvetica,sans-Serif" font-size="10.00">vaisseau</text>
</a>
</g>
</g>
<!-- Node3&#45;&gt;Node4 -->
<g id="edge3_Node000003_Node000004" class="edge">
<title>Node3&#45;&gt;Node4</title>
<g id="a_edge3_Node000003_Node000004"><a xlink:title=" ">
<path fill="none" stroke="#63b8ff" d="M152.09,-29C143.71,-29 135.57,-29 128.35,-29"/>
<polygon fill="#63b8ff" stroke="#63b8ff" points="152.08,-32.5 162.08,-29 152.08,-25.5 152.08,-32.5"/>
</a>
</g>
</g>
<!-- Node4&#45;&gt;Node1 -->
<g id="edge4_Node000004_Node000001" class="edge">
<title>Node4&#45;&gt;Node1</title>
<g id="a_edge4_Node000004_Node000001"><a xlink:title=" ">
<path fill="none" stroke="#63b8ff" d="M139.42,-15.53C147.43,-13.23 155.92,-11.2 164,-10 253.34,3.28 358.67,-0.74 421.25,-5.16"/>
<polygon fill="#63b8ff" stroke="#63b8ff" points="138.45,-12.16 129.93,-18.45 140.51,-18.85 138.45,-12.16"/>
</a>
</g>
</g>
<!-- Node4&#45;&gt;Node5 -->
<g id="edge5_Node000004_Node000005" class="edge">
<title>Node4&#45;&gt;Node5</title>
<g id="a_edge5_Node000004_Node000005"><a xlink:title=" ">
<path fill="none" stroke="#63b8ff" d="M61.88,-37.93C53.37,-39.96 44.71,-42.01 37.45,-43.74"/>
<polygon fill="#63b8ff" stroke="#63b8ff" points="62.47,-41.39 71.39,-35.68 60.85,-34.58 62.47,-41.39"/>
</a>
</g>
</g>
</g>
</svg>
