<?xml version="1.0" encoding="UTF-8" standalone="no"?>
<!DOCTYPE svg PUBLIC "-//W3C//DTD SVG 1.1//EN"
 "http://www.w3.org/Graphics/SVG/1.1/DTD/svg11.dtd">
<!-- Generated by graphviz version 14.1.4 (20260321.0153)
 -->
<!-- Title: rendre_texture_centre_natif Pages: 1 -->
<svg width="720pt" height="180pt"
 viewBox="0.00 0.00 720.00 180.00" xmlns="http://www.w3.org/2000/svg" xmlns:xlink="http://www.w3.org/1999/xlink">
<g id="graph0" class="graph" transform="scale(1 1) rotate(0) translate(4 176)">
<title>rendre_texture_centre_natif</title>
<!-- Node1 -->
<g id="Node000001" class="node">
<title>Node1</title>
<g id="a_Node000001"><a xlink:title=" ">
<polygon fill="#999999" stroke="#666666" points="711.75,-83 601.25,-83 601.25,-51 711.75,-51 711.75,-83"/>
<text xml:space="preserve" text-anchor="start" x="609.25" y="-69.5" font-family="Helvetica,sans-Serif" font-size="10.00">rendre_texture_centre</text>
<text xml:space="preserve" text-anchor="middle" x="656.5" y="-57.5" font-family="Helvetica,sans-Serif" font-size="10.00">_natif</text>
</a>
</g>
</g>
<!-- Node2 -->
<g id="Node000002" class="node">
<title>Node2</title>
<g id="a_Node000002"><a xlink:href="cinematique_8c.html#a68c4780c65b14d27f0088cfc6514eb60" target="_top" xlink:title="Lance cinematique crash et gere son deroulement complet.">
<polygon fill="white" stroke="#666666" points="565.25,-143 441.25,-143 441.25,-123 565.25,-123 565.25,-143"/>
<text xml:space="preserve" text-anchor="middle" x="503.25" y="-129.5" font-family="Helvetica,sans-Serif" font-size="10.00">jouer_cinematique_crash</text>
</a>
</g>
</g>
<!-- Node1&#45;&gt;Node2 -->
<g id="edge1_Node000001_Node000002" class="edge">
<title>Node1&#45;&gt;Node2</title>
<g id="a_edge1_Node000001_Node000002"><a xlink:title=" ">
<path fill="none" stroke="#63b8ff" d="M607.47,-87.96C580.92,-99.54 549.11,-113.42 527.89,-122.68"/>
<polygon fill="#63b8ff" stroke="#63b8ff" points="608.57,-91.3 616.34,-84.09 605.77,-84.88 608.57,-91.3"/>
</a>
</g>
</g>
<!-- Node5 -->
<g id="Node000005" class="node">
<title>Node5</title>
<g id="a_Node000005"><a xlink:href="cinematique_8c.html#a418cc3e727578f4cd509ad27cd6a2a31" target="_top" xlink:title="Lance cinematique fin et gere son deroulement complet.">
<polygon fill="white" stroke="#666666" points="558.5,-77 448,-77 448,-57 558.5,-57 558.5,-77"/>
<text xml:space="preserve" text-anchor="middle" x="503.25" y="-63.5" font-family="Helvetica,sans-Serif" font-size="10.00">jouer_cinematique_fin</text>
</a>
</g>
</g>
<!-- Node1&#45;&gt;Node5 -->
<g id="edge4_Node000001_Node000005" class="edge">
<title>Node1&#45;&gt;Node5</title>
<g id="a_edge4_Node000001_Node000005"><a xlink:title=" ">
<path fill="none" stroke="#63b8ff" d="M589.47,-67C579.22,-67 568.73,-67 558.77,-67"/>
<polygon fill="#63b8ff" stroke="#63b8ff" points="589.38,-70.5 599.38,-67 589.38,-63.5 589.38,-70.5"/>
</a>
</g>
</g>
<!-- Node9 -->
<g id="Node000009" class="node">
<title>Node9</title>
<g id="a_Node000009"><a xlink:href="cinematique_8c.html#af69d52622c7f776157f49a31ef1dae29" target="_top" xlink:title="Lance cinematique intro et gere son deroulement complet.">
<polygon fill="white" stroke="#666666" points="297.75,-20 179,-20 179,0 297.75,0 297.75,-20"/>
<text xml:space="preserve" text-anchor="middle" x="238.38" y="-6.5" font-family="Helvetica,sans-Serif" font-size="10.00">jouer_cinematique_intro</text>
</a>
</g>
</g>
<!-- Node1&#45;&gt;Node9 -->
<g id="edge11_Node000001_Node000009" class="edge">
<title>Node1&#45;&gt;Node9</title>
<g id="a_edge11_Node000001_Node000009"><a xlink:title=" ">
<path fill="none" stroke="#63b8ff" d="M589.67,-52.41C581.47,-50.81 573.18,-49.29 565.25,-48 472.35,-32.84 363.6,-21.42 298.17,-15.22"/>
<polygon fill="#63b8ff" stroke="#63b8ff" points="588.79,-55.81 599.28,-54.34 590.17,-48.94 588.79,-55.81"/>
</a>
</g>
</g>
<!-- Node3 -->
<g id="Node000003" class="node">
<title>Node3</title>
<g id="a_Node000003"><a xlink:href="jeux_8c.html#a2d7491d04e8c2bdb52bb6ed7d75e4d78" target="_top" xlink:title="Execute la boucle principale de gameplay pour la planete courante.">
<polygon fill="white" stroke="#666666" points="143,-172 73,-172 73,-152 143,-152 143,-172"/>
<text xml:space="preserve" text-anchor="middle" x="108" y="-158.5" font-family="Helvetica,sans-Serif" font-size="10.00">jeu_principal</text>
</a>
</g>
</g>
<!-- Node2&#45;&gt;Node3 -->
<g id="edge2_Node000002_Node000003" class="edge">
<title>Node2&#45;&gt;Node3</title>
<g id="a_edge2_Node000002_Node000003"><a xlink:title=" ">
<path fill="none" stroke="#63b8ff" d="M429.41,-138.37C344.33,-144.65 207.11,-154.76 143.47,-159.46"/>
<polygon fill="#63b8ff" stroke="#63b8ff" points="429.58,-141.87 439.3,-137.64 429.06,-134.89 429.58,-141.87"/>
</a>
</g>
</g>
<!-- Node4 -->
<g id="Node000004" class="node">
<title>Node4</title>
<g id="a_Node000004"><a xlink:href="main_8c.html#a0ddf1224851353fc92bfbff6f499fa97" target="_top" xlink:title=" ">
<polygon fill="white" stroke="#666666" points="37,-115 0,-115 0,-95 37,-95 37,-115"/>
<text xml:space="preserve" text-anchor="middle" x="18.5" y="-101.5" font-family="Helvetica,sans-Serif" font-size="10.00">main</text>
</a>
</g>
</g>
<!-- Node3&#45;&gt;Node4 -->
<g id="edge3_Node000003_Node000004" class="edge">
<title>Node3&#45;&gt;Node4</title>
<g id="a_edge3_Node000003_Node000004"><a xlink:title=" ">
<path fill="none" stroke="#63b8ff" d="M81.32,-145.27C66.47,-135.59 48.25,-123.73 35.45,-115.39"/>
<polygon fill="#63b8ff" stroke="#63b8ff" points="79.39,-148.19 89.68,-150.72 83.21,-142.33 79.39,-148.19"/>
</a>
</g>
</g>
<!-- Node6 -->
<g id="Node000006" class="node">
<title>Node6</title>
<g id="a_Node000006"><a xlink:href="map_8c.html#ad462ccdd50801fb085dc8134fc3765d1" target="_top" xlink:title="Affiche la carte et met a jour les elements visuels associes.">
<polygon fill="white" stroke="#666666" points="405.25,-96 333.75,-96 333.75,-76 405.25,-76 405.25,-96"/>
<text xml:space="preserve" text-anchor="middle" x="369.5" y="-82.5" font-family="Helvetica,sans-Serif" font-size="10.00">afficher_map</text>
</a>
</g>
</g>
<!-- Node5&#45;&gt;Node6 -->
<g id="edge5_Node000005_Node000006" class="edge">
<title>Node5&#45;&gt;Node6</title>
<g id="a_edge5_Node000005_Node000006"><a xlink:title=" ">
<path fill="none" stroke="#63b8ff" d="M436.15,-76.53C425.64,-78.05 415.12,-79.56 405.69,-80.92"/>
<polygon fill="#63b8ff" stroke="#63b8ff" points="436.62,-80 446.02,-75.11 435.63,-73.07 436.62,-80"/>
</a>
</g>
</g>
<!-- Node6&#45;&gt;Node4 -->
<g id="edge10_Node000006_Node000004" class="edge">
<title>Node6&#45;&gt;Node4</title>
<g id="a_edge10_Node000006_Node000004"><a xlink:title=" ">
<path fill="none" stroke="#63b8ff" d="M325.92,-99.36C316.72,-101.71 306.98,-103.78 297.75,-105 200.05,-117.89 81.37,-110.24 37.18,-106.6"/>
<polygon fill="#63b8ff" stroke="#63b8ff" points="326.61,-102.8 335.35,-96.81 324.78,-96.05 326.61,-102.8"/>
</a>
</g>
</g>
<!-- Node7 -->
<g id="Node000007" class="node">
<title>Node7</title>
<g id="a_Node000007"><a xlink:href="vaisseau_8c.html#ace614afc8df3a40bd5ea0771044ff217" target="_top" xlink:title=" ">
<polygon fill="white" stroke="#666666" points="295.5,-96 181.25,-96 181.25,-76 295.5,-76 295.5,-96"/>
<text xml:space="preserve" text-anchor="middle" x="238.38" y="-82.5" font-family="Helvetica,sans-Serif" font-size="10.00">gerer_interaction_objet</text>
</a>
</g>
</g>
<!-- Node6&#45;&gt;Node7 -->
<g id="edge6_Node000006_Node000007" class="edge">
<title>Node6&#45;&gt;Node7</title>
<g id="a_edge6_Node000006_Node000007"><a xlink:title=" ">
<path fill="none" stroke="#63b8ff" d="M322.22,-86C313.64,-86 304.59,-86 295.76,-86"/>
<polygon fill="#63b8ff" stroke="#63b8ff" points="322.04,-89.5 332.04,-86 322.04,-82.5 322.04,-89.5"/>
</a>
</g>
</g>
<!-- Node8 -->
<g id="Node000008" class="node">
<title>Node8</title>
<g id="a_Node000008"><a xlink:href="vaisseau_8c.html#a8ea9afc9440149ddd36e96b97d8ed6c5" target="_top" xlink:title="Lance la scene interieure du vaisseau (deplacement, interactions, mini&#45;jeux, sortie).">
<polygon fill="white" stroke="#666666" points="135.5,-96 80.5,-96 80.5,-76 135.5,-76 135.5,-96"/>
<text xml:space="preserve" text-anchor="middle" x="108" y="-82.5" font-family="Helvetica,sans-Serif" font-size="10.00">vaisseau</text>
</a>
</g>
</g>
<!-- Node7&#45;&gt;Node8 -->
<g id="edge7_Node000007_Node000008" class="edge">
<title>Node7&#45;&gt;Node8</title>
<g id="a_edge7_Node000007_Node000008"><a xlink:title=" ">
<path fill="none" stroke="#63b8ff" d="M169.56,-86C157.55,-86 145.71,-86 135.72,-86"/>
<polygon fill="#63b8ff" stroke="#63b8ff" points="169.55,-89.5 179.55,-86 169.55,-82.5 169.55,-89.5"/>
</a>
</g>
</g>
<!-- Node8&#45;&gt;Node4 -->
<g id="edge9_Node000008_Node000004" class="edge">
<title>Node8&#45;&gt;Node4</title>
<g id="a_edge9_Node000008_Node000004"><a xlink:title=" ">
<path fill="none" stroke="#63b8ff" d="M69.12,-94.22C58.14,-96.61 46.64,-99.11 37.49,-101.09"/>
<polygon fill="#63b8ff" stroke="#63b8ff" points="69.76,-97.67 78.79,-92.13 68.28,-90.83 69.76,-97.67"/>
</a>
</g>
</g>
<!-- Node8&#45;&gt;Node5 -->
<g id="edge8_Node000008_Node000005" class="edge">
<title>Node8&#45;&gt;Node5</title>
<g id="a_edge8_Node000008_Node000005"><a xlink:title=" ">
<path fill="none" stroke="#63b8ff" d="M146.7,-73.8C157.06,-71 168.37,-68.42 179,-67 272.73,-54.51 383.12,-58.46 447.62,-62.62"/>
<polygon fill="#63b8ff" stroke="#63b8ff" points="146.02,-70.36 137.37,-76.48 147.95,-77.09 146.02,-70.36"/>
</a>
</g>
</g>
<!-- Node9&#45;&gt;Node4 -->
<g id="edge12_Node000009_Node000004" class="edge">
<title>Node9&#45;&gt;Node4</title>
<g id="a_edge12_Node000009_Node000004"><a xlink:title=" ">
<path fill="none" stroke="#63b8ff" d="M186.38,-23.6C153.12,-33.45 109.31,-48.3 73,-67 58.01,-74.72 42.47,-86.22 32.03,-94.54"/>
<polygon fill="#63b8ff" stroke="#63b8ff" points="187.14,-27.02 195.77,-20.88 185.19,-20.3 187.14,-27.02"/>
</a>
</g>
</g>
</g>
</svg>
