<?xml version="1.0" encoding="UTF-8" standalone="no"?>
<!DOCTYPE svg PUBLIC "-//W3C//DTD SVG 1.1//EN"
 "http://www.w3.org/Graphics/SVG/1.1/DTD/svg11.dtd">
<!-- Generated by graphviz version 14.1.4 (20260321.0153)
 -->
<!-- Title: jouer_cinematique_fin Pages: 1 -->
<svg width="466pt" height="332pt"
 viewBox="0.00 0.00 466.00 332.00" xmlns="http://www.w3.org/2000/svg" xmlns:xlink="http://www.w3.org/1999/xlink">
<g id="graph0" class="graph" transform="scale(1 1) rotate(0) translate(4 328)">
<title>jouer_cinematique_fin</title>
<!-- Node1 -->
<g id="Node000001" class="node">
<title>Node1</title>
<g id="a_Node000001"><a xlink:title="Lance cinematique fin et gere son deroulement complet.">
<polygon fill="#999999" stroke="#666666" points="110.5,-191 0,-191 0,-171 110.5,-171 110.5,-191"/>
<text xml:space="preserve" text-anchor="middle" x="55.25" y="-177.5" font-family="Helvetica,sans-Serif" font-size="10.00">jouer_cinematique_fin</text>
</a>
</g>
</g>
<!-- Node2 -->
<g id="Node000002" class="node">
<title>Node2</title>
<g id="a_Node000002"><a xlink:href="son_8c.html#ae145ae699cc1eecf0684bdd530bd26f0" target="_top" xlink:title="Charge (ou recupere du cache) puis joue une piste audio.">
<polygon fill="white" stroke="#666666" points="204.5,-210 146.5,-210 146.5,-190 204.5,-190 204.5,-210"/>
<text xml:space="preserve" text-anchor="middle" x="175.5" y="-196.5" font-family="Helvetica,sans-Serif" font-size="10.00">jouer_son</text>
</a>
</g>
</g>
<!-- Node1&#45;&gt;Node2 -->
<g id="edge1_Node000001_Node000002" class="edge">
<title>Node1&#45;&gt;Node2</title>
<g id="a_edge1_Node000001_Node000002"><a xlink:title=" ">
<path fill="none" stroke="#63b8ff" d="M110.88,-189.78C118.99,-191.08 127.22,-192.4 134.95,-193.65"/>
<polygon fill="#63b8ff" stroke="#63b8ff" points="134.29,-197.08 144.72,-195.22 135.4,-190.17 134.29,-197.08"/>
</a>
</g>
</g>
<!-- Node3 -->
<g id="Node000003" class="node">
<title>Node3</title>
<g id="a_Node000003"><a xlink:href="vaisseau_8c.html#a8ea9afc9440149ddd36e96b97d8ed6c5" target="_top" xlink:title="Lance la scene interieure du vaisseau (deplacement, interactions, mini&#45;jeux, sortie).">
<polygon fill="white" stroke="#666666" points="203,-172 148,-172 148,-152 203,-152 203,-172"/>
<text xml:space="preserve" text-anchor="middle" x="175.5" y="-158.5" font-family="Helvetica,sans-Serif" font-size="10.00">vaisseau</text>
</a>
</g>
</g>
<!-- Node1&#45;&gt;Node3 -->
<g id="edge2_Node000001_Node000003" class="edge">
<title>Node1&#45;&gt;Node3</title>
<g id="a_edge2_Node000001_Node000003"><a xlink:title=" ">
<path fill="none" stroke="#63b8ff" d="M110.88,-172.22C119.6,-170.82 128.45,-169.4 136.66,-168.08"/>
<polygon fill="#63b8ff" stroke="#63b8ff" points="136.97,-171.58 146.29,-166.53 135.86,-164.66 136.97,-171.58"/>
</a>
</g>
</g>
<!-- Node4 -->
<g id="Node000004" class="node">
<title>Node4</title>
<g id="a_Node000004"><a xlink:href="perso_8c.html#ae1d84a7757bff4f91b5388a92d99653c" target="_top" xlink:title="Affiche perso et met a jour les elements visuels associes.">
<polygon fill="white" stroke="#666666" points="332.62,-324 255.88,-324 255.88,-304 332.62,-304 332.62,-324"/>
<text xml:space="preserve" text-anchor="middle" x="294.25" y="-310.5" font-family="Helvetica,sans-Serif" font-size="10.00">afficher_perso</text>
</a>
</g>
</g>
<!-- Node3&#45;&gt;Node4 -->
<g id="edge3_Node000003_Node000004" class="edge">
<title>Node3&#45;&gt;Node4</title>
<g id="a_edge3_Node000003_Node000004"><a xlink:title=" ">
<path fill="none" stroke="#63b8ff" d="M195.47,-172.29C198.84,-174.79 202.04,-177.7 204.5,-181 236.24,-223.61 203.69,-256.69 240.5,-295 242.07,-296.63 243.79,-298.12 245.61,-299.49"/>
<polygon fill="#63b8ff" stroke="#63b8ff" points="243.79,-302.48 254.18,-304.53 247.34,-296.44 243.79,-302.48"/>
</a>
</g>
</g>
<!-- Node5 -->
<g id="Node000005" class="node">
<title>Node5</title>
<g id="a_Node000005"><a xlink:href="perso_8c.html#aa234db7602e3e4190d21e9ffc79f3899" target="_top" xlink:title="Affiche les statistiques et met a jour les elements visuels associes.">
<polygon fill="white" stroke="#666666" points="328.88,-286 259.62,-286 259.62,-266 328.88,-266 328.88,-286"/>
<text xml:space="preserve" text-anchor="middle" x="294.25" y="-272.5" font-family="Helvetica,sans-Serif" font-size="10.00">afficher_stat</text>
</a>
</g>
</g>
<!-- Node3&#45;&gt;Node5 -->
<g id="edge4_Node000003_Node000005" class="edge">
<title>Node3&#45;&gt;Node5</title>
<g id="a_edge4_Node000003_Node000005"><a xlink:title=" ">
<path fill="none" stroke="#63b8ff" d="M194.84,-172.36C198.33,-174.88 201.75,-177.79 204.5,-181 228.82,-209.38 212.83,-231.88 240.5,-257 243.08,-259.35 245.98,-261.41 249.04,-263.22"/>
<polygon fill="#63b8ff" stroke="#63b8ff" points="247.38,-266.3 257.9,-267.52 250.44,-260 247.38,-266.3"/>
</a>
</g>
</g>
<!-- Node6 -->
<g id="Node000006" class="node">
<title>Node6</title>
<g id="a_Node000006"><a xlink:href="vaisseau_8c.html#a65aa51a88252bf0513ce59cb9ef35358" target="_top" xlink:title=" ">
<polygon fill="white" stroke="#666666" points="328.88,-248 259.62,-248 259.62,-228 328.88,-228 328.88,-248"/>
<text xml:space="preserve" text-anchor="middle" x="294.25" y="-234.5" font-family="Helvetica,sans-Serif" font-size="10.00">afficher_text</text>
</a>
</g>
</g>
<!-- Node3&#45;&gt;Node6 -->
<g id="edge5_Node000003_Node000006" class="edge">
<title>Node3&#45;&gt;Node6</title>
<g id="a_edge5_Node000003_Node000006"><a xlink:title=" ">
<path fill="none" stroke="#63b8ff" d="M193.22,-172.48C197.04,-175.11 201.01,-178.03 204.5,-181 222.23,-196.06 221.03,-206.27 240.5,-219 243.17,-220.75 246.03,-222.36 248.97,-223.84"/>
<polygon fill="#63b8ff" stroke="#63b8ff" points="247.26,-226.91 257.82,-227.78 250.11,-220.52 247.26,-226.91"/>
</a>
</g>
</g>
<!-- Node7 -->
<g id="Node000007" class="node">
<title>Node7</title>
<g id="a_Node000007"><a xlink:href="vaisseau_8c.html#a0a52a68b442fd4ce981c10ec1ff84f8a" target="_top" xlink:title=" ">
<polygon fill="white" stroke="#666666" points="330.38,-210 258.12,-210 258.12,-190 330.38,-190 330.38,-210"/>
<text xml:space="preserve" text-anchor="middle" x="294.25" y="-196.5" font-family="Helvetica,sans-Serif" font-size="10.00">charger_map</text>
</a>
</g>
</g>
<!-- Node3&#45;&gt;Node7 -->
<g id="edge6_Node000003_Node000007" class="edge">
<title>Node3&#45;&gt;Node7</title>
<g id="a_edge6_Node000003_Node000007"><a xlink:title=" ">
<path fill="none" stroke="#63b8ff" d="M203.28,-170.72C217.29,-175.28 234.76,-180.96 250.57,-186.11"/>
<polygon fill="#63b8ff" stroke="#63b8ff" points="249.16,-189.33 259.75,-189.1 251.33,-182.67 249.16,-189.33"/>
</a>
</g>
</g>
<!-- Node9 -->
<g id="Node000009" class="node">
<title>Node9</title>
<g id="a_Node000009"><a xlink:href="perso_8c.html#ac17ff910702e240707df1bb1443a3411" target="_top" xlink:title="Met a jour la position du joueur selon les entrees clavier et le delta temps.">
<polygon fill="white" stroke="#666666" points="335.25,-172 253.25,-172 253.25,-152 335.25,-152 335.25,-172"/>
<text xml:space="preserve" text-anchor="middle" x="294.25" y="-158.5" font-family="Helvetica,sans-Serif" font-size="10.00">deplacer_perso</text>
</a>
</g>
</g>
<!-- Node3&#45;&gt;Node9 -->
<g id="edge8_Node000003_Node000009" class="edge">
<title>Node3&#45;&gt;Node9</title>
<g id="a_edge8_Node000003_Node000009"><a xlink:title=" ">
<path fill="none" stroke="#63b8ff" d="M203.28,-162C214.64,-162 228.27,-162 241.45,-162"/>
<polygon fill="#63b8ff" stroke="#63b8ff" points="241.33,-165.5 251.33,-162 241.33,-158.5 241.33,-165.5"/>
</a>
</g>
</g>
<!-- Node10 -->
<g id="Node000010" class="node">
<title>Node10</title>
<g id="a_Node000010"><a xlink:href="vaisseau_8c.html#abd89247360d01ab77071e64639967e59" target="_top" xlink:title=" ">
<polygon fill="white" stroke="#666666" points="324.75,-134 263.75,-134 263.75,-114 324.75,-114 324.75,-134"/>
<text xml:space="preserve" text-anchor="middle" x="294.25" y="-120.5" font-family="Helvetica,sans-Serif" font-size="10.00">draw_map</text>
</a>
</g>
</g>
<!-- Node3&#45;&gt;Node10 -->
<g id="edge9_Node000003_Node000010" class="edge">
<title>Node3&#45;&gt;Node10</title>
<g id="a_edge9_Node000003_Node000010"><a xlink:title=" ">
<path fill="none" stroke="#63b8ff" d="M203.28,-153.28C217.83,-148.55 236.13,-142.59 252.42,-137.29"/>
<polygon fill="#63b8ff" stroke="#63b8ff" points="253.44,-140.64 261.86,-134.22 251.27,-133.98 253.44,-140.64"/>
</a>
</g>
</g>
<!-- Node11 -->
<g id="Node000011" class="node">
<title>Node11</title>
<g id="a_Node000011"><a xlink:href="vaisseau_8c.html#a5046ff6c88d57c428dd11a79a392baf5" target="_top" xlink:title=" ">
<polygon fill="white" stroke="#666666" points="348,-96 240.5,-96 240.5,-76 348,-76 348,-96"/>
<text xml:space="preserve" text-anchor="middle" x="294.25" y="-82.5" font-family="Helvetica,sans-Serif" font-size="10.00">est_en_collision_rect</text>
</a>
</g>
</g>
<!-- Node3&#45;&gt;Node11 -->
<g id="edge10_Node000003_Node000011" class="edge">
<title>Node3&#45;&gt;Node11</title>
<g id="a_edge10_Node000003_Node000011"><a xlink:title=" ">
<path fill="none" stroke="#63b8ff" d="M185.55,-151.84C197.18,-139.32 218.51,-118.08 240.5,-105 242.92,-103.56 245.46,-102.21 248.07,-100.94"/>
<polygon fill="#63b8ff" stroke="#63b8ff" points="249.19,-104.26 256.95,-97.04 246.38,-97.85 249.19,-104.26"/>
</a>
</g>
</g>
<!-- Node13 -->
<g id="Node000013" class="node">
<title>Node13</title>
<g id="a_Node000013"><a xlink:href="vaisseau_8c.html#a6d467f247475d877f0ac79307d90a748" target="_top" xlink:title=" ">
<polygon fill="white" stroke="#666666" points="326.25,-58 262.25,-58 262.25,-38 326.25,-38 326.25,-58"/>
<text xml:space="preserve" text-anchor="middle" x="294.25" y="-44.5" font-family="Helvetica,sans-Serif" font-size="10.00">est_proche</text>
</a>
</g>
</g>
<!-- Node3&#45;&gt;Node13 -->
<g id="edge12_Node000003_Node000013" class="edge">
<title>Node3&#45;&gt;Node13</title>
<g id="a_edge12_Node000003_Node000013"><a xlink:title=" ">
<path fill="none" stroke="#63b8ff" d="M180.85,-151.56C189.44,-132.17 210.38,-90.47 240.5,-67 243.85,-64.39 247.58,-62.12 251.47,-60.15"/>
<polygon fill="#63b8ff" stroke="#63b8ff" points="252.82,-63.38 260.61,-56.2 250.04,-56.96 252.82,-63.38"/>
</a>
</g>
</g>
<!-- Node14 -->
<g id="Node000014" class="node">
<title>Node14</title>
<g id="a_Node000014"><a xlink:href="perso_8c.html#a3a1b30f1d4b3a050543f4a881d549636" target="_top" xlink:title="Met a jour animation en fonction de l&#39;etat courant du jeu.">
<polygon fill="white" stroke="#666666" points="340.5,-20 248,-20 248,0 340.5,0 340.5,-20"/>
<text xml:space="preserve" text-anchor="middle" x="294.25" y="-6.5" font-family="Helvetica,sans-Serif" font-size="10.00">update_animation</text>
</a>
</g>
</g>
<!-- Node3&#45;&gt;Node14 -->
<g id="edge13_Node000003_Node000014" class="edge">
<title>Node3&#45;&gt;Node14</title>
<g id="a_edge13_Node000003_Node000014"><a xlink:title=" ">
<path fill="none" stroke="#63b8ff" d="M178.63,-151.74C184.26,-127.06 201.88,-63.84 240.5,-29 241.58,-28.03 242.71,-27.1 243.88,-26.23"/>
<polygon fill="#63b8ff" stroke="#63b8ff" points="245.53,-29.32 252.28,-21.16 241.91,-23.33 245.53,-29.32"/>
</a>
</g>
</g>
<!-- Node8 -->
<g id="Node000008" class="node">
<title>Node8</title>
<g id="a_Node000008"><a xlink:href="vaisseau_8c.html#ab8c3ef62605a90b8f6064f44052a3318" target="_top" xlink:title="Positionne le personnage a une tuile donnee en recentrant la camera.">
<polygon fill="white" stroke="#666666" points="457.75,-210 384,-210 384,-190 457.75,-190 457.75,-210"/>
<text xml:space="preserve" text-anchor="middle" x="420.88" y="-196.5" font-family="Helvetica,sans-Serif" font-size="10.00">spawn_perso</text>
</a>
</g>
</g>
<!-- Node7&#45;&gt;Node8 -->
<g id="edge7_Node000007_Node000008" class="edge">
<title>Node7&#45;&gt;Node8</title>
<g id="a_edge7_Node000007_Node000008"><a xlink:title=" ">
<path fill="none" stroke="#63b8ff" d="M330.63,-200C343.56,-200 358.41,-200 372.23,-200"/>
<polygon fill="#63b8ff" stroke="#63b8ff" points="372.03,-203.5 382.03,-200 372.03,-196.5 372.03,-203.5"/>
</a>
</g>
</g>
<!-- Node12 -->
<g id="Node000012" class="node">
<title>Node12</title>
<g id="a_Node000012"><a xlink:href="vaisseau_8c.html#a2d5dec4ed1b45587058f07a6de497eaf" target="_top" xlink:title=" ">
<polygon fill="white" stroke="#666666" points="454.38,-96 387.38,-96 387.38,-76 454.38,-76 454.38,-96"/>
<text xml:space="preserve" text-anchor="middle" x="420.88" y="-82.5" font-family="Helvetica,sans-Serif" font-size="10.00">en_collision</text>
</a>
</g>
</g>
<!-- Node11&#45;&gt;Node12 -->
<g id="edge11_Node000011_Node000012" class="edge">
<title>Node11&#45;&gt;Node12</title>
<g id="a_edge11_Node000011_Node000012"><a xlink:title=" ">
<path fill="none" stroke="#63b8ff" d="M348.46,-86C357.57,-86 366.94,-86 375.78,-86"/>
<polygon fill="#63b8ff" stroke="#63b8ff" points="375.51,-89.5 385.51,-86 375.51,-82.5 375.51,-89.5"/>
</a>
</g>
</g>
</g>
</svg>
