<?xml version="1.0" encoding="UTF-8" standalone="no"?>
<!DOCTYPE svg PUBLIC "-//W3C//DTD SVG 1.1//EN"
 "http://www.w3.org/Graphics/SVG/1.1/DTD/svg11.dtd">
<!-- Generated by graphviz version 14.1.4 (20260321.0153)
 -->
<!-- Title: src/headers/cinematique.h Pages: 1 -->
<!--zoomable 196 -->

<svg id="main" version="1.1" xmlns="http://www.w3.org/2000/svg" xmlns:xlink="http://www.w3.org/1999/xlink" xml:space="preserve" onload="init(evt)">

<style type="text/css"><![CDATA[
.node, .edge {opacity: 0.7;}
.node.selected, .edge.selected {opacity: 1;}
.edge:hover path { stroke: red; }
.edge:hover polygon { stroke: red; fill: red; }
]]></style>

<defs>
  <circle id="rim" cx="0" cy="0" r="7"/>
  <circle id="rim2" cx="0" cy="0" r="3.5"/>
  <g id="zoomPlus">
    <use xlink:href="#rim" fill="#404040"><set attributeName="fill" to="#808080" begin="zoomplus.mouseover" end="zoomplus.mouseout"/></use>
    <path d="M-4,0h8M0,-4v8" fill="none" stroke="white" stroke-width="1.5" pointer-events="none"/>
  </g>
  <g id="zoomMin">
    <use xlink:href="#rim" fill="#404040"><set attributeName="fill" to="#808080" begin="zoomminus.mouseover" end="zoomminus.mouseout"/></use>
    <path d="M-4,0h8" fill="none" stroke="white" stroke-width="1.5" pointer-events="none"/>
  </g>
  <g id="arrowUp" transform="translate(30 24)">
    <use xlink:href="#rim"/>
    <path pointer-events="none" fill="none" stroke="white" stroke-width="1.5" d="M0,-3.0v7 M-2.5,-0.5L0,-3.0L2.5,-0.5"/>
  </g>
  <g id="arrowRight" transform="rotate(90) translate(36 -43)">
    <use xlink:href="#rim"/>
    <path pointer-events="none" fill="none" stroke="white" stroke-width="1.5" d="M0,-3.0v7 M-2.5,-0.5L0,-3.0L2.5,-0.5"/>
  </g>
  <g id="arrowDown" transform="rotate(180) translate(-30 -48)">
    <use xlink:href="#rim"/>
    <path pointer-events="none" fill="none" stroke="white" stroke-width="1.5" d="M0,-3.0v7 M-2.5,-0.5L0,-3.0L2.5,-0.5"/>
  </g>
  <g id="arrowLeft" transform="rotate(270) translate(-36 17)">
    <use xlink:href="#rim"/>
    <path pointer-events="none" fill="none" stroke="white" stroke-width="1.5" d="M0,-3.0v7 M-2.5,-0.5L0,-3.0L2.5,-0.5"/>
  </g>
  <g id="resetDef">
    <use xlink:href="#rim2" fill="#404040"><set attributeName="fill" to="#808080" begin="reset.mouseover" end="reset.mouseout"/></use>
  </g>
</defs>
<script type="application/ecmascript">
var viewWidth = 1747;
var viewHeight = 196;
var sectionId = 'dynsection-1';
</script>
<script type="application/ecmascript" xlink:href="svg.min.js"/>
<svg id="graph" class="graph">
<g id="viewport">
<title>src/headers/cinematique.h</title>
<!-- Node1 -->
<g id="Node000001" class="node">
<title>Node1</title>
<g id="a_Node000001"><a xlink:title="Fichier des cinematics, des intros et des sequences de credits.">
<polygon fill="#999999" stroke="#666666" points="509,-188 378.25,-188 378.25,-168 509,-168 509,-188"/>
<text xml:space="preserve" text-anchor="middle" x="443.62" y="-174.5" font-family="Helvetica,sans-Serif" font-size="10.00">src/headers/cinematique.h</text>
</a>
</g>
</g>
<!-- Node2 -->
<g id="Node000002" class="node">
<title>Node2</title>
<g id="a_Node000002"><a xlink:href="cinematique_8c.html" target="_top" xlink:title="Lecture des cinematics et enchainement des sequences narratives.">
<polygon fill="white" stroke="#666666" points="93.25,-76 0,-76 0,-56 93.25,-56 93.25,-76"/>
<text xml:space="preserve" text-anchor="middle" x="46.62" y="-62.5" font-family="Helvetica,sans-Serif" font-size="10.00">src/cinematique.c</text>
</a>
</g>
</g>
<!-- Node1&#45;&gt;Node2 -->
<g id="edge1_Node000001_Node000002" class="edge">
<title>Node1&#45;&gt;Node2</title>
<g id="a_edge1_Node000001_Node000002"><a xlink:title=" ">
<path fill="none" stroke="#63b8ff" d="M398.71,-164.56C318.57,-142.35 152.6,-96.36 80.88,-76.49"/>
<polygon fill="#63b8ff" stroke="#63b8ff" points="397.4,-167.82 407.97,-167.12 399.27,-161.08 397.4,-167.82"/>
</a>
</g>
</g>
<!-- Node3 -->
<g id="Node000003" class="node">
<title>Node3</title>
<g id="a_Node000003"><a xlink:href="main_8h.html" target="_top" xlink:title="Declarations globales et utilitaires partages entre les modules du jeu.">
<polygon fill="white" stroke="#666666" points="889.25,-132 790,-132 790,-112 889.25,-112 889.25,-132"/>
<text xml:space="preserve" text-anchor="middle" x="839.62" y="-118.5" font-family="Helvetica,sans-Serif" font-size="10.00">src/headers/main.h</text>
</a>
</g>
</g>
<!-- Node1&#45;&gt;Node3 -->
<g id="edge2_Node000001_Node000003" class="edge">
<title>Node1&#45;&gt;Node3</title>
<g id="a_edge2_Node000001_Node000003"><a xlink:title=" ">
<path fill="none" stroke="#63b8ff" d="M520.39,-166.53C599.89,-155.69 721.8,-139.07 789.65,-129.81"/>
<polygon fill="#63b8ff" stroke="#63b8ff" points="520.4,-163 510.96,-167.82 521.34,-169.93 520.4,-163"/>
</a>
</g>
</g>
<!-- Node3&#45;&gt;Node2 -->
<g id="edge5_Node000003_Node000002" class="edge">
<title>Node3&#45;&gt;Node2</title>
<g id="a_edge5_Node000003_Node000002"><a xlink:title=" ">
<path fill="none" stroke="#63b8ff" d="M778.55,-119.3C652.09,-115.34 352.52,-103.64 102.62,-76 99.69,-75.68 96.67,-75.3 93.63,-74.9"/>
<polygon fill="#63b8ff" stroke="#63b8ff" points="778.26,-122.8 788.37,-119.6 778.48,-115.8 778.26,-122.8"/>
</a>
</g>
</g>
<!-- Node4 -->
<g id="Node000004" class="node">
<title>Node4</title>
<g id="a_Node000004"><a xlink:href="arcade_8c.html" target="_top" xlink:title="Gestion de la séquence d&#39;arcade et de ses ecrans associes.">
<polygon fill="white" stroke="#666666" points="181.62,-76 111.62,-76 111.62,-56 181.62,-56 181.62,-76"/>
<text xml:space="preserve" text-anchor="middle" x="146.62" y="-62.5" font-family="Helvetica,sans-Serif" font-size="10.00">src/arcade.c</text>
</a>
</g>
</g>
<!-- Node3&#45;&gt;Node4 -->
<g id="edge3_Node000003_Node000004" class="edge">
<title>Node3&#45;&gt;Node4</title>
<g id="a_edge3_Node000003_Node000004"><a xlink:title=" ">
<path fill="none" stroke="#63b8ff" d="M778.34,-119.46C662.88,-115.95 405.39,-105.28 190.62,-76 187.84,-75.62 184.97,-75.17 182.1,-74.68"/>
<polygon fill="#63b8ff" stroke="#63b8ff" points="778.12,-122.95 788.22,-119.75 778.32,-115.95 778.12,-122.95"/>
</a>
</g>
</g>
<!-- Node5 -->
<g id="Node000005" class="node">
<title>Node5</title>
<g id="a_Node000005"><a xlink:href="boss_8c.html" target="_top" xlink:title="Gestion du boss, de ses phases et de ses attaques.">
<polygon fill="white" stroke="#666666" points="261.5,-76 199.75,-76 199.75,-56 261.5,-56 261.5,-76"/>
<text xml:space="preserve" text-anchor="middle" x="230.62" y="-62.5" font-family="Helvetica,sans-Serif" font-size="10.00">src/boss.c</text>
</a>
</g>
</g>
<!-- Node3&#45;&gt;Node5 -->
<g id="edge4_Node000003_Node000005" class="edge">
<title>Node3&#45;&gt;Node5</title>
<g id="a_edge4_Node000003_Node000005"><a xlink:title=" ">
<path fill="none" stroke="#63b8ff" d="M778.62,-119.03C674.11,-115.01 454.31,-103.78 270.62,-76 267.81,-75.57 264.9,-75.06 261.99,-74.5"/>
<polygon fill="#63b8ff" stroke="#63b8ff" points="778.25,-122.51 788.37,-119.39 778.51,-115.52 778.25,-122.51"/>
</a>
</g>
</g>
<!-- Node6 -->
<g id="Node000006" class="node">
<title>Node6</title>
<g id="a_Node000006"><a xlink:href="game__over_8c.html" target="_top" xlink:title="Affichage de l&#39;ecran de fin de partie et retour au menu.">
<polygon fill="white" stroke="#666666" points="368,-76 279.25,-76 279.25,-56 368,-56 368,-76"/>
<text xml:space="preserve" text-anchor="middle" x="323.62" y="-62.5" font-family="Helvetica,sans-Serif" font-size="10.00">src/game_over.c</text>
</a>
</g>
</g>
<!-- Node3&#45;&gt;Node6 -->
<g id="edge6_Node000003_Node000006" class="edge">
<title>Node3&#45;&gt;Node6</title>
<g id="a_edge6_Node000003_Node000006"><a xlink:title=" ">
<path fill="none" stroke="#63b8ff" d="M778.35,-116.08C690.38,-108.76 523.29,-93.94 381.62,-76 377.28,-75.45 372.75,-74.83 368.24,-74.18"/>
<polygon fill="#63b8ff" stroke="#63b8ff" points="777.95,-119.56 788.2,-116.89 778.52,-112.58 777.95,-119.56"/>
</a>
</g>
</g>
<!-- Node7 -->
<g id="Node000007" class="node">
<title>Node7</title>
<g id="a_Node000007"><a xlink:href="planete_8h.html" target="_top" xlink:title="Fichier des ecrans de planetes et transitions d&#39;environnement.">
<polygon fill="white" stroke="#666666" points="533.5,-76 423.75,-76 423.75,-56 533.5,-56 533.5,-76"/>
<text xml:space="preserve" text-anchor="middle" x="478.62" y="-62.5" font-family="Helvetica,sans-Serif" font-size="10.00">src/headers/planete.h</text>
</a>
</g>
</g>
<!-- Node3&#45;&gt;Node7 -->
<g id="edge7_Node000003_Node000007" class="edge">
<title>Node3&#45;&gt;Node7</title>
<g id="a_edge7_Node000003_Node000007"><a xlink:title=" ">
<path fill="none" stroke="#63b8ff" d="M778.77,-111.9C710.27,-101.65 599.94,-85.15 533.84,-75.26"/>
<polygon fill="#63b8ff" stroke="#63b8ff" points="777.9,-115.31 788.31,-113.32 778.94,-108.38 777.9,-115.31"/>
</a>
</g>
</g>
<!-- Node8 -->
<g id="Node000008" class="node">
<title>Node8</title>
<g id="a_Node000008"><a xlink:href="jeux_8c.html" target="_top" xlink:title="Boucle principale et orchestration des etats de jeu.">
<polygon fill="white" stroke="#666666" points="425,-20 366.25,-20 366.25,0 425,0 425,-20"/>
<text xml:space="preserve" text-anchor="middle" x="395.62" y="-6.5" font-family="Helvetica,sans-Serif" font-size="10.00">src/jeux.c</text>
</a>
</g>
</g>
<!-- Node3&#45;&gt;Node8 -->
<g id="edge12_Node000003_Node000008" class="edge">
<title>Node3&#45;&gt;Node8</title>
<g id="a_edge12_Node000003_Node000008"><a xlink:title=" ">
<path fill="none" stroke="#63b8ff" d="M778.27,-118.25C667.25,-112.72 441.95,-98.83 414.62,-76 398.02,-62.13 395.47,-34.62 395.35,-20.24"/>
<polygon fill="#63b8ff" stroke="#63b8ff" points="777.94,-121.73 788.1,-118.73 778.28,-114.74 777.94,-121.73"/>
</a>
</g>
</g>
<!-- Node10 -->
<g id="Node000010" class="node">
<title>Node10</title>
<g id="a_Node000010"><a xlink:href="inventaire_8c.html" target="_top" xlink:title="Gestion de l&#39;inventaire, de la hotbar et des objets ramassables.">
<polygon fill="white" stroke="#666666" points="634,-76 551.25,-76 551.25,-56 634,-56 634,-76"/>
<text xml:space="preserve" text-anchor="middle" x="592.62" y="-62.5" font-family="Helvetica,sans-Serif" font-size="10.00">src/inventaire.c</text>
</a>
</g>
</g>
<!-- Node3&#45;&gt;Node10 -->
<g id="edge10_Node000003_Node000010" class="edge">
<title>Node3&#45;&gt;Node10</title>
<g id="a_edge10_Node000003_Node000010"><a xlink:title=" ">
<path fill="none" stroke="#63b8ff" d="M785.17,-109.09C739.66,-99.15 675.72,-85.17 634.23,-76.1"/>
<polygon fill="#63b8ff" stroke="#63b8ff" points="784.32,-112.49 794.84,-111.21 785.82,-105.65 784.32,-112.49"/>
</a>
</g>
</g>
<!-- Node11 -->
<g id="Node000011" class="node">
<title>Node11</title>
<g id="a_Node000011"><a xlink:href="item_8c.html" target="_top" xlink:title="Creation, affichage et ramassage des objets du monde.">
<polygon fill="white" stroke="#666666" points="711.38,-76 651.88,-76 651.88,-56 711.38,-56 711.38,-76"/>
<text xml:space="preserve" text-anchor="middle" x="681.62" y="-62.5" font-family="Helvetica,sans-Serif" font-size="10.00">src/item.c</text>
</a>
</g>
</g>
<!-- Node3&#45;&gt;Node11 -->
<g id="edge11_Node000003_Node000011" class="edge">
<title>Node3&#45;&gt;Node11</title>
<g id="a_edge11_Node000003_Node000011"><a xlink:title=" ">
<path fill="none" stroke="#63b8ff" d="M801.36,-107.92C772.95,-98.21 734.88,-85.2 709.36,-76.48"/>
<polygon fill="#63b8ff" stroke="#63b8ff" points="800.08,-111.18 810.67,-111.1 802.34,-104.56 800.08,-111.18"/>
</a>
</g>
</g>
<!-- Node12 -->
<g id="Node000012" class="node">
<title>Node12</title>
<g id="a_Node000012"><a xlink:href="main_8c.html" target="_top" xlink:title="Point d&#39;entree du jeu et orchestration globale des ecrans.">
<polygon fill="white" stroke="#666666" points="791.5,-76 729.75,-76 729.75,-56 791.5,-56 791.5,-76"/>
<text xml:space="preserve" text-anchor="middle" x="760.62" y="-62.5" font-family="Helvetica,sans-Serif" font-size="10.00">src/main.c</text>
</a>
</g>
</g>
<!-- Node3&#45;&gt;Node12 -->
<g id="edge13_Node000003_Node000012" class="edge">
<title>Node3&#45;&gt;Node12</title>
<g id="a_edge13_Node000003_Node000012"><a xlink:title=" ">
<path fill="none" stroke="#63b8ff" d="M816.61,-105.27C802.97,-95.94 786.12,-84.43 774.49,-76.48"/>
<polygon fill="#63b8ff" stroke="#63b8ff" points="814.38,-107.99 824.61,-110.74 818.33,-102.21 814.38,-107.99"/>
</a>
</g>
</g>
<!-- Node13 -->
<g id="Node000013" class="node">
<title>Node13</title>
<g id="a_Node000013"><a xlink:href="map_8c.html" target="_top" xlink:title="Chargement, rendu et interactions de la carte du monde.">
<polygon fill="white" stroke="#666666" points="869.38,-76 809.88,-76 809.88,-56 869.38,-56 869.38,-76"/>
<text xml:space="preserve" text-anchor="middle" x="839.62" y="-62.5" font-family="Helvetica,sans-Serif" font-size="10.00">src/map.c</text>
</a>
</g>
</g>
<!-- Node3&#45;&gt;Node13 -->
<g id="edge14_Node000003_Node000013" class="edge">
<title>Node3&#45;&gt;Node13</title>
<g id="a_edge14_Node000003_Node000013"><a xlink:title=" ">
<path fill="none" stroke="#63b8ff" d="M839.62,-100.13C839.62,-91.9 839.62,-82.85 839.62,-76.3"/>
<polygon fill="#63b8ff" stroke="#63b8ff" points="836.13,-100.08 839.63,-110.08 843.13,-100.08 836.13,-100.08"/>
</a>
</g>
</g>
<!-- Node14 -->
<g id="Node000014" class="node">
<title>Node14</title>
<g id="a_Node000014"><a xlink:href="menu_8c.html" target="_top" xlink:title="Menu principal et navigation entre les ecrans.">
<polygon fill="white" stroke="#666666" points="952,-76 887.25,-76 887.25,-56 952,-56 952,-76"/>
<text xml:space="preserve" text-anchor="middle" x="919.62" y="-62.5" font-family="Helvetica,sans-Serif" font-size="10.00">src/menu.c</text>
</a>
</g>
</g>
<!-- Node3&#45;&gt;Node14 -->
<g id="edge15_Node000003_Node000014" class="edge">
<title>Node3&#45;&gt;Node14</title>
<g id="a_edge15_Node000003_Node000014"><a xlink:title=" ">
<path fill="none" stroke="#63b8ff" d="M862.93,-105.27C876.75,-95.94 893.81,-84.43 905.58,-76.48"/>
<polygon fill="#63b8ff" stroke="#63b8ff" points="861.14,-102.25 854.81,-110.75 865.06,-108.05 861.14,-102.25"/>
</a>
</g>
</g>
<!-- Node15 -->
<g id="Node000015" class="node">
<title>Node15</title>
<g id="a_Node000015"><a xlink:href="mob_8c.html" target="_top" xlink:title="Gestion des ennemis, de leur deplacement et de leur apparition.">
<polygon fill="white" stroke="#666666" points="1029.38,-76 969.88,-76 969.88,-56 1029.38,-56 1029.38,-76"/>
<text xml:space="preserve" text-anchor="middle" x="999.62" y="-62.5" font-family="Helvetica,sans-Serif" font-size="10.00">src/mob.c</text>
</a>
</g>
</g>
<!-- Node3&#45;&gt;Node15 -->
<g id="edge16_Node000003_Node000015" class="edge">
<title>Node3&#45;&gt;Node15</title>
<g id="a_edge16_Node000003_Node000015"><a xlink:title=" ">
<path fill="none" stroke="#63b8ff" d="M878.38,-107.92C907.14,-98.21 945.7,-85.2 971.54,-76.48"/>
<polygon fill="#63b8ff" stroke="#63b8ff" points="877.28,-104.6 868.93,-111.11 879.52,-111.23 877.28,-104.6"/>
</a>
</g>
</g>
<!-- Node16 -->
<g id="Node000016" class="node">
<title>Node16</title>
<g id="a_Node000016"><a xlink:href="objectifs_8c.html" target="_top" xlink:title="Gestion des objectifs de progression et de leur affichage.">
<polygon fill="white" stroke="#666666" points="1125.38,-76 1047.88,-76 1047.88,-56 1125.38,-56 1125.38,-76"/>
<text xml:space="preserve" text-anchor="middle" x="1086.62" y="-62.5" font-family="Helvetica,sans-Serif" font-size="10.00">src/objectifs.c</text>
</a>
</g>
</g>
<!-- Node3&#45;&gt;Node16 -->
<g id="edge17_Node000003_Node000016" class="edge">
<title>Node3&#45;&gt;Node16</title>
<g id="a_edge17_Node000003_Node000016"><a xlink:title=" ">
<path fill="none" stroke="#63b8ff" d="M894,-109.11C940.41,-98.97 1006.03,-84.62 1047.44,-75.57"/>
<polygon fill="#63b8ff" stroke="#63b8ff" points="893.43,-105.65 884.41,-111.21 894.93,-112.49 893.43,-105.65"/>
</a>
</g>
</g>
<!-- Node17 -->
<g id="Node000017" class="node">
<title>Node17</title>
<g id="a_Node000017"><a xlink:href="option_8c.html" target="_top" xlink:title="Menu des options audio et aide aux commandes.">
<polygon fill="white" stroke="#666666" points="1210.12,-76 1143.12,-76 1143.12,-56 1210.12,-56 1210.12,-76"/>
<text xml:space="preserve" text-anchor="middle" x="1176.62" y="-62.5" font-family="Helvetica,sans-Serif" font-size="10.00">src/option.c</text>
</a>
</g>
</g>
<!-- Node3&#45;&gt;Node17 -->
<g id="edge18_Node000003_Node000017" class="edge">
<title>Node3&#45;&gt;Node17</title>
<g id="a_edge18_Node000003_Node000017"><a xlink:title=" ">
<path fill="none" stroke="#63b8ff" d="M900.75,-112.76C960.53,-104.45 1054.08,-90.76 1134.62,-76 1137.27,-75.52 1139.99,-74.99 1142.73,-74.44"/>
<polygon fill="#63b8ff" stroke="#63b8ff" points="900.55,-109.26 891.12,-114.09 901.51,-116.19 900.55,-109.26"/>
</a>
</g>
</g>
<!-- Node18 -->
<g id="Node000018" class="node">
<title>Node18</title>
<g id="a_Node000018"><a xlink:href="pause_8c.html" target="_top" xlink:title="Menu pause et actions disponibles pendant une partie.">
<polygon fill="white" stroke="#666666" points="1295.12,-76 1228.12,-76 1228.12,-56 1295.12,-56 1295.12,-76"/>
<text xml:space="preserve" text-anchor="middle" x="1261.62" y="-62.5" font-family="Helvetica,sans-Serif" font-size="10.00">src/pause.c</text>
</a>
</g>
</g>
<!-- Node3&#45;&gt;Node18 -->
<g id="edge19_Node000003_Node000018" class="edge">
<title>Node3&#45;&gt;Node18</title>
<g id="a_edge19_Node000003_Node000018"><a xlink:title=" ">
<path fill="none" stroke="#63b8ff" d="M900.77,-115.53C976.06,-108.39 1107.73,-94.57 1219.62,-76 1222.27,-75.56 1225.01,-75.07 1227.75,-74.54"/>
<polygon fill="#63b8ff" stroke="#63b8ff" points="900.77,-112.02 891.14,-116.44 901.42,-118.98 900.77,-112.02"/>
</a>
</g>
</g>
<!-- Node19 -->
<g id="Node000019" class="node">
<title>Node19</title>
<g id="a_Node000019"><a xlink:href="perso_8c.html" target="_top" xlink:title="Deplacement, animation, combat et collecte du personnage.">
<polygon fill="white" stroke="#666666" points="1378,-76 1313.25,-76 1313.25,-56 1378,-56 1378,-76"/>
<text xml:space="preserve" text-anchor="middle" x="1345.62" y="-62.5" font-family="Helvetica,sans-Serif" font-size="10.00">src/perso.c</text>
</a>
</g>
</g>
<!-- Node3&#45;&gt;Node19 -->
<g id="edge20_Node000003_Node000019" class="edge">
<title>Node3&#45;&gt;Node19</title>
<g id="a_edge20_Node000003_Node000019"><a xlink:title=" ">
<path fill="none" stroke="#63b8ff" d="M900.66,-117.43C989.82,-111.68 1160.71,-98.68 1304.62,-76 1307.36,-75.57 1310.19,-75.07 1313.02,-74.53"/>
<polygon fill="#63b8ff" stroke="#63b8ff" points="900.69,-113.92 890.93,-118.05 901.13,-120.91 900.69,-113.92"/>
</a>
</g>
</g>
<!-- Node20 -->
<g id="Node000020" class="node">
<title>Node20</title>
<g id="a_Node000020"><a xlink:href="sauvegarde_8c.html" target="_top" xlink:title="Gestion des sauvegardes, des chargements et des emplacements.">
<polygon fill="white" stroke="#666666" points="1487.12,-76 1396.12,-76 1396.12,-56 1487.12,-56 1487.12,-76"/>
<text xml:space="preserve" text-anchor="middle" x="1441.62" y="-62.5" font-family="Helvetica,sans-Serif" font-size="10.00">src/sauvegarde.c</text>
</a>
</g>
</g>
<!-- Node3&#45;&gt;Node20 -->
<g id="edge21_Node000003_Node000020" class="edge">
<title>Node3&#45;&gt;Node20</title>
<g id="a_edge21_Node000003_Node000020"><a xlink:title=" ">
<path fill="none" stroke="#63b8ff" d="M900.76,-117.57C1002.03,-111.54 1210.87,-97.57 1386.62,-76 1389.6,-75.63 1392.66,-75.23 1395.75,-74.79"/>
<polygon fill="#63b8ff" stroke="#63b8ff" points="900.83,-114.06 891.05,-118.15 901.24,-121.05 900.83,-114.06"/>
</a>
</g>
</g>
<!-- Node21 -->
<g id="Node000021" class="node">
<title>Node21</title>
<g id="a_Node000021"><a xlink:href="shop_8c.html" target="_top" xlink:title="Interface de boutique du vaisseau et achats du joueur.">
<polygon fill="white" stroke="#666666" points="1566.5,-76 1504.75,-76 1504.75,-56 1566.5,-56 1566.5,-76"/>
<text xml:space="preserve" text-anchor="middle" x="1535.62" y="-62.5" font-family="Helvetica,sans-Serif" font-size="10.00">src/shop.c</text>
</a>
</g>
</g>
<!-- Node3&#45;&gt;Node21 -->
<g id="edge22_Node000003_Node000021" class="edge">
<title>Node3&#45;&gt;Node21</title>
<g id="a_edge22_Node000003_Node000021"><a xlink:title=" ">
<path fill="none" stroke="#63b8ff" d="M900.85,-120.04C1017.43,-117.49 1279.05,-108.35 1496.62,-76 1499.24,-75.61 1501.93,-75.14 1504.63,-74.62"/>
<polygon fill="#63b8ff" stroke="#63b8ff" points="900.8,-116.54 890.88,-120.25 900.95,-123.54 900.8,-116.54"/>
</a>
</g>
</g>
<!-- Node22 -->
<g id="Node000022" class="node">
<title>Node22</title>
<g id="a_Node000022"><a xlink:href="son_8c.html" target="_top" xlink:title="Gestion des musiques, des effets sonores et de leur etat.">
<polygon fill="white" stroke="#666666" points="1640.88,-76 1584.38,-76 1584.38,-56 1640.88,-56 1640.88,-76"/>
<text xml:space="preserve" text-anchor="middle" x="1612.62" y="-62.5" font-family="Helvetica,sans-Serif" font-size="10.00">src/son.c</text>
</a>
</g>
</g>
<!-- Node3&#45;&gt;Node22 -->
<g id="edge23_Node000003_Node000022" class="edge">
<title>Node3&#45;&gt;Node22</title>
<g id="a_edge23_Node000003_Node000022"><a xlink:title=" ">
<path fill="none" stroke="#63b8ff" d="M900.83,-120.92C1027.51,-119.94 1327.36,-113.48 1575.62,-76 1578.37,-75.59 1581.21,-75.06 1584.04,-74.48"/>
<polygon fill="#63b8ff" stroke="#63b8ff" points="900.97,-117.42 890.99,-120.98 901.02,-124.42 900.97,-117.42"/>
</a>
</g>
</g>
<!-- Node23 -->
<g id="Node000023" class="node">
<title>Node23</title>
<g id="a_Node000023"><a xlink:href="vaisseau_8c.html" target="_top" xlink:title="Exploration du vaisseau, interactions et retour vers la planete.">
<polygon fill="white" stroke="#666666" points="1738.5,-76 1658.75,-76 1658.75,-56 1738.5,-56 1738.5,-76"/>
<text xml:space="preserve" text-anchor="middle" x="1698.62" y="-62.5" font-family="Helvetica,sans-Serif" font-size="10.00">src/vaisseau.c</text>
</a>
</g>
</g>
<!-- Node3&#45;&gt;Node23 -->
<g id="edge24_Node000003_Node000023" class="edge">
<title>Node3&#45;&gt;Node23</title>
<g id="a_edge24_Node000003_Node000023"><a xlink:title=" ">
<path fill="none" stroke="#63b8ff" d="M900.92,-120.23C1036.4,-117.95 1371.39,-109.15 1649.62,-76 1652.46,-75.66 1655.38,-75.26 1658.31,-74.82"/>
<polygon fill="#63b8ff" stroke="#63b8ff" points="901.04,-116.73 891.1,-120.39 901.16,-123.73 901.04,-116.73"/>
</a>
</g>
</g>
<!-- Node7&#45;&gt;Node8 -->
<g id="edge8_Node000007_Node000008" class="edge">
<title>Node7&#45;&gt;Node8</title>
<g id="a_edge8_Node000007_Node000008"><a xlink:title=" ">
<path fill="none" stroke="#63b8ff" d="M454.87,-49.54C440.46,-40.17 422.53,-28.51 410.2,-20.48"/>
<polygon fill="#63b8ff" stroke="#63b8ff" points="452.61,-52.25 462.9,-54.77 456.43,-46.38 452.61,-52.25"/>
</a>
</g>
</g>
<!-- Node9 -->
<g id="Node000009" class="node">
<title>Node9</title>
<g id="a_Node000009"><a xlink:href="planete_8c.html" target="_top" xlink:title="Gestion des planetes et des transitions d&#39;exploration.">
<polygon fill="white" stroke="#666666" points="515.75,-20 443.5,-20 443.5,0 515.75,0 515.75,-20"/>
<text xml:space="preserve" text-anchor="middle" x="479.62" y="-6.5" font-family="Helvetica,sans-Serif" font-size="10.00">src/planete.c</text>
</a>
</g>
</g>
<!-- Node7&#45;&gt;Node9 -->
<g id="edge9_Node000007_Node000009" class="edge">
<title>Node7&#45;&gt;Node9</title>
<g id="a_edge9_Node000007_Node000009"><a xlink:title=" ">
<path fill="none" stroke="#63b8ff" d="M479.01,-44.13C479.16,-35.9 479.33,-26.85 479.45,-20.3"/>
<polygon fill="#63b8ff" stroke="#63b8ff" points="475.51,-44.02 478.83,-54.08 482.51,-44.15 475.51,-44.02"/>
</a>
</g>
</g>
</g>
</svg>

<g id="navigator" transform="translate(0 0)" fill="#404254">
  <rect fill="#f2f5e9" fill-opacity="0.5" stroke="#606060" stroke-width=".5" x="0" y="0" width="60" height="60"/>
  <use id="zoomplus" xlink:href="#zoomPlus" x="17" y="9" onmousedown="handleZoom(evt,'in')"/>
  <use id="zoomminus" xlink:href="#zoomMin" x="42" y="9" onmousedown="handleZoom(evt,'out')"/>
  <use id="reset" xlink:href="#resetDef" x="30" y="36" onmousedown="handleReset()"/>
   <use id="arrowup" xlink:href="#arrowUp" x="0" y="0" onmousedown="handlePan(0,-1)"/>
  <use id="arrowright" xlink:href="#arrowRight" x="0" y="0" onmousedown="handlePan(1,0)"/>
  <use id="arrowdown" xlink:href="#arrowDown" x="0" y="0" onmousedown="handlePan(0,1)"/>
  <use id="arrowleft" xlink:href="#arrowLeft" x="0" y="0" onmousedown="handlePan(-1,0)"/>
</g>
<svg viewBox="0 0 15 15" width="100%" height="30px" preserveAspectRatio="xMaxYMin meet">
 <g id="arrow_out" transform="scale(0.3 0.3)">
  <a xlink:href="cinematique_8h__dep__incl_org.svg" target="_base">
   <rect id="button" ry="5" rx="5" y="6" x="6" height="38" width="38"
        fill="#f2f5e9" fill-opacity="0.5" stroke="#606060" stroke-width="1.0"/>
   <path id="arrow"
     d="M 11.500037,31.436501 C 11.940474,20.09759 22.043105,11.32322 32.158766,21.979434 L 37.068811,17.246167 C 37.068811,17.246167 37.088388,32 37.088388,32 L 22.160133,31.978069 C 22.160133,31.978069 26.997745,27.140456 26.997745,27.140456 C 18.528582,18.264221 13.291696,25.230495 11.500037,31.436501 z"
     style="fill:#404040;"/>
  </a>
 </g>
</svg>

<style type='text/css'>
<![CDATA[
[data-mouse-over-selected='false'] { opacity: 0.7; }
[data-mouse-over-selected='true']  { opacity: 1.0; }
]]>
</style>
<script type="application/ecmascript"><![CDATA[
document.addEventListener('DOMContentLoaded', (event) => {
  highlightEdges();
  highlightAdjacentNodes();
});
]]></script>
</svg>
