<?xml version="1.0" encoding="UTF-8" standalone="no"?>
<!DOCTYPE svg PUBLIC "-//W3C//DTD SVG 1.1//EN"
 "http://www.w3.org/Graphics/SVG/1.1/DTD/svg11.dtd">
<!-- Generated by graphviz version 14.1.4 (20260321.0153)
 -->
<!-- Title: jouer_credits Pages: 1 -->
<svg width="316pt" height="66pt"
 viewBox="0.00 0.00 316.00 66.00" xmlns="http://www.w3.org/2000/svg" xmlns:xlink="http://www.w3.org/1999/xlink">
<g id="graph0" class="graph" transform="scale(1 1) rotate(0) translate(4 62)">
<title>jouer_credits</title>
<!-- Node1 -->
<g id="Node000001" class="node">
<title>Node1</title>
<g id="a_Node000001"><a xlink:title="Lance credits et gere son deroulement complet.">
<polygon fill="#999999" stroke="#666666" points="71.5,-39 0,-39 0,-19 71.5,-19 71.5,-39"/>
<text xml:space="preserve" text-anchor="middle" x="35.75" y="-25.5" font-family="Helvetica,sans-Serif" font-size="10.00">jouer_credits</text>
</a>
</g>
</g>
<!-- Node2 -->
<g id="Node000002" class="node">
<title>Node2</title>
<g id="a_Node000002"><a xlink:href="main_8h.html#a6c672075bc554c92548a916c9501bdb5" target="_top" xlink:title=" ">
<polygon fill="white" stroke="#666666" points="195.5,-58 107.5,-58 107.5,-38 195.5,-38 195.5,-58"/>
<text xml:space="preserve" text-anchor="middle" x="151.5" y="-44.5" font-family="Helvetica,sans-Serif" font-size="10.00">screen_center_x</text>
</a>
</g>
</g>
<!-- Node1&#45;&gt;Node2 -->
<g id="edge1_Node000001_Node000002" class="edge">
<title>Node1&#45;&gt;Node2</title>
<g id="a_edge1_Node000001_Node000002"><a xlink:title=" ">
<path fill="none" stroke="#63b8ff" d="M71.81,-34.86C79.53,-36.15 87.88,-37.54 96.16,-38.92"/>
<polygon fill="#63b8ff" stroke="#63b8ff" points="95.4,-42.35 105.84,-40.54 96.56,-35.44 95.4,-42.35"/>
</a>
</g>
</g>
<!-- Node4 -->
<g id="Node000004" class="node">
<title>Node4</title>
<g id="a_Node000004"><a xlink:href="main_8h.html#a9b4aefc63ea00e60ec88da19e24e8236" target="_top" xlink:title=" ">
<polygon fill="white" stroke="#666666" points="191.38,-20 111.62,-20 111.62,0 191.38,0 191.38,-20"/>
<text xml:space="preserve" text-anchor="middle" x="151.5" y="-6.5" font-family="Helvetica,sans-Serif" font-size="10.00">screen_heightf</text>
</a>
</g>
</g>
<!-- Node1&#45;&gt;Node4 -->
<g id="edge3_Node000001_Node000004" class="edge">
<title>Node1&#45;&gt;Node4</title>
<g id="a_edge3_Node000001_Node000004"><a xlink:title=" ">
<path fill="none" stroke="#63b8ff" d="M71.81,-23.14C80.82,-21.64 90.68,-19.99 100.3,-18.39"/>
<polygon fill="#63b8ff" stroke="#63b8ff" points="100.61,-21.88 109.9,-16.78 99.46,-14.98 100.61,-21.88"/>
</a>
</g>
</g>
<!-- Node3 -->
<g id="Node000003" class="node">
<title>Node3</title>
<g id="a_Node000003"><a xlink:href="main_8h.html#aaaa1e9fcb86ff8e60b297faa7815ad1d" target="_top" xlink:title=" ">
<polygon fill="white" stroke="#666666" points="308.25,-58 231.5,-58 231.5,-38 308.25,-38 308.25,-58"/>
<text xml:space="preserve" text-anchor="middle" x="269.88" y="-44.5" font-family="Helvetica,sans-Serif" font-size="10.00">screen_widthf</text>
</a>
</g>
</g>
<!-- Node2&#45;&gt;Node3 -->
<g id="edge2_Node000002_Node000003" class="edge">
<title>Node2&#45;&gt;Node3</title>
<g id="a_edge2_Node000002_Node000003"><a xlink:title=" ">
<path fill="none" stroke="#63b8ff" d="M195.83,-48C203.65,-48 211.85,-48 219.81,-48"/>
<polygon fill="#63b8ff" stroke="#63b8ff" points="219.73,-51.5 229.73,-48 219.73,-44.5 219.73,-51.5"/>
</a>
</g>
</g>
</g>
</svg>
