<?xml version="1.0" encoding="UTF-8" standalone="no"?>
<!DOCTYPE svg PUBLIC "-//W3C//DTD SVG 1.1//EN"
 "http://www.w3.org/Graphics/SVG/1.1/DTD/svg11.dtd">
<!-- Generated by graphviz version 14.1.4 (20260321.0153)
 -->
<!-- Title: game_over Pages: 1 -->
<svg width="518pt" height="256pt"
 viewBox="0.00 0.00 518.00 256.00" xmlns="http://www.w3.org/2000/svg" xmlns:xlink="http://www.w3.org/1999/xlink">
<g id="graph0" class="graph" transform="scale(1 1) rotate(0) translate(4 252)">
<title>game_over</title>
<!-- Node1 -->
<g id="Node000001" class="node">
<title>Node1</title>
<g id="a_Node000001"><a xlink:title="Affiche l&#39;ecran de game over et traite le choix du joueur.">
<polygon fill="#999999" stroke="#666666" points="64,-134 0,-134 0,-114 64,-114 64,-134"/>
<text xml:space="preserve" text-anchor="middle" x="32" y="-120.5" font-family="Helvetica,sans-Serif" font-size="10.00">game_over</text>
</a>
</g>
</g>
<!-- Node2 -->
<g id="Node000002" class="node">
<title>Node2</title>
<g id="a_Node000002"><a xlink:href="bouton_8c.html#af33c1c08b52d3d015ff6f7039a9734ee" target="_top" xlink:title="Affiche texte centre et met a jour les elements visuels associes.">
<polygon fill="white" stroke="#666666" points="216.12,-248 109.38,-248 109.38,-228 216.12,-228 216.12,-248"/>
<text xml:space="preserve" text-anchor="middle" x="162.75" y="-234.5" font-family="Helvetica,sans-Serif" font-size="10.00">afficher_texte_centre</text>
</a>
</g>
</g>
<!-- Node1&#45;&gt;Node2 -->
<g id="edge1_Node000001_Node000002" class="edge">
<title>Node1&#45;&gt;Node2</title>
<g id="a_edge1_Node000001_Node000002"><a xlink:title=" ">
<path fill="none" stroke="#63b8ff" d="M37.45,-134.27C46.4,-153.75 68.47,-196.13 100,-219 101.77,-220.28 103.63,-221.48 105.55,-222.6"/>
<polygon fill="#63b8ff" stroke="#63b8ff" points="103.73,-225.6 114.25,-226.89 106.82,-219.33 103.73,-225.6"/>
</a>
</g>
</g>
<!-- Node3 -->
<g id="Node000003" class="node">
<title>Node3</title>
<g id="a_Node000003"><a xlink:href="bouton_8c.html#a11f55905044ef2518b8c38311df3c48d" target="_top" xlink:title="Dessine la texture du bouton dans son rectangle d&#39;affichage.">
<polygon fill="white" stroke="#666666" points="205.25,-210 120.25,-210 120.25,-190 205.25,-190 205.25,-210"/>
<text xml:space="preserve" text-anchor="middle" x="162.75" y="-196.5" font-family="Helvetica,sans-Serif" font-size="10.00">Bouton_Afficher</text>
</a>
</g>
</g>
<!-- Node1&#45;&gt;Node3 -->
<g id="edge2_Node000001_Node000003" class="edge">
<title>Node1&#45;&gt;Node3</title>
<g id="a_edge2_Node000001_Node000003"><a xlink:title=" ">
<path fill="none" stroke="#63b8ff" d="M42.47,-134.3C54.64,-146.98 76.97,-168.37 100,-181 103,-182.65 106.16,-184.17 109.41,-185.58"/>
<polygon fill="#63b8ff" stroke="#63b8ff" points="107.94,-188.76 118.53,-189.13 110.48,-182.24 107.94,-188.76"/>
</a>
</g>
</g>
<!-- Node4 -->
<g id="Node000004" class="node">
<title>Node4</title>
<g id="a_Node000004"><a xlink:href="bouton_8c.html#ab4862740c43f8a9abb996fff0aba5ca1" target="_top" xlink:title="Met a jour l&#39;etat du bouton a partir d&#39;un evenement SDL.">
<polygon fill="white" stroke="#666666" points="225.5,-172 100,-172 100,-152 225.5,-152 225.5,-172"/>
<text xml:space="preserve" text-anchor="middle" x="162.75" y="-158.5" font-family="Helvetica,sans-Serif" font-size="10.00">Bouton_GererEvenement</text>
</a>
</g>
</g>
<!-- Node1&#45;&gt;Node4 -->
<g id="edge3_Node000001_Node000004" class="edge">
<title>Node1&#45;&gt;Node4</title>
<g id="a_edge3_Node000001_Node000004"><a xlink:title=" ">
<path fill="none" stroke="#63b8ff" d="M64.5,-133.3C79.89,-137.84 98.7,-143.39 115.67,-148.4"/>
<polygon fill="#63b8ff" stroke="#63b8ff" points="114.46,-151.69 125.05,-151.17 116.44,-144.98 114.46,-151.69"/>
</a>
</g>
</g>
<!-- Node6 -->
<g id="Node000006" class="node">
<title>Node6</title>
<g id="a_Node000006"><a xlink:href="bouton_8c.html#a482b1feb9004901d0544e64b1c44051c" target="_top" xlink:title="Initialise un bouton (zone, texture et etat d&#39;interaction).">
<polygon fill="white" stroke="#666666" points="195.5,-134 130,-134 130,-114 195.5,-114 195.5,-134"/>
<text xml:space="preserve" text-anchor="middle" x="162.75" y="-120.5" font-family="Helvetica,sans-Serif" font-size="10.00">Bouton_Init</text>
</a>
</g>
</g>
<!-- Node1&#45;&gt;Node6 -->
<g id="edge5_Node000001_Node000006" class="edge">
<title>Node1&#45;&gt;Node6</title>
<g id="a_edge5_Node000001_Node000006"><a xlink:title=" ">
<path fill="none" stroke="#63b8ff" d="M64.5,-124C80.66,-124 100.61,-124 118.23,-124"/>
<polygon fill="#63b8ff" stroke="#63b8ff" points="118.17,-127.5 128.17,-124 118.17,-120.5 118.17,-127.5"/>
</a>
</g>
</g>
<!-- Node7 -->
<g id="Node000007" class="node">
<title>Node7</title>
<g id="a_Node000007"><a xlink:href="boss_8c.html#a6ebb70c1cce9efe2e97dfee86382e964" target="_top" xlink:title="Reinitialise boss for retry pour repartir d&#39;un etat propre.">
<polygon fill="white" stroke="#666666" points="215.38,-96 110.12,-96 110.12,-76 215.38,-76 215.38,-96"/>
<text xml:space="preserve" text-anchor="middle" x="162.75" y="-82.5" font-family="Helvetica,sans-Serif" font-size="10.00">reset_boss_for_retry</text>
</a>
</g>
</g>
<!-- Node1&#45;&gt;Node7 -->
<g id="edge6_Node000001_Node000007" class="edge">
<title>Node1&#45;&gt;Node7</title>
<g id="a_edge6_Node000001_Node000007"><a xlink:title=" ">
<path fill="none" stroke="#63b8ff" d="M64.5,-114.7C79.89,-110.16 98.7,-104.61 115.67,-99.6"/>
<polygon fill="#63b8ff" stroke="#63b8ff" points="116.44,-103.02 125.05,-96.83 114.46,-96.31 116.44,-103.02"/>
</a>
</g>
</g>
<!-- Node11 -->
<g id="Node000011" class="node">
<title>Node11</title>
<g id="a_Node000011"><a xlink:href="main_8h.html#a6c672075bc554c92548a916c9501bdb5" target="_top" xlink:title=" ">
<polygon fill="white" stroke="#666666" points="206.75,-58 118.75,-58 118.75,-38 206.75,-38 206.75,-58"/>
<text xml:space="preserve" text-anchor="middle" x="162.75" y="-44.5" font-family="Helvetica,sans-Serif" font-size="10.00">screen_center_x</text>
</a>
</g>
</g>
<!-- Node1&#45;&gt;Node11 -->
<g id="edge10_Node000001_Node000011" class="edge">
<title>Node1&#45;&gt;Node11</title>
<g id="a_edge10_Node000001_Node000011"><a xlink:title=" ">
<path fill="none" stroke="#63b8ff" d="M42.47,-113.7C54.64,-101.02 76.97,-79.63 100,-67 102.86,-65.43 105.86,-63.98 108.94,-62.63"/>
<polygon fill="#63b8ff" stroke="#63b8ff" points="110.18,-65.9 118.21,-58.99 107.62,-59.39 110.18,-65.9"/>
</a>
</g>
</g>
<!-- Node13 -->
<g id="Node000013" class="node">
<title>Node13</title>
<g id="a_Node000013"><a xlink:href="main_8h.html#a6456affd0d0a21e911b531a5ba25676d" target="_top" xlink:title=" ">
<polygon fill="white" stroke="#666666" points="206.75,-20 118.75,-20 118.75,0 206.75,0 206.75,-20"/>
<text xml:space="preserve" text-anchor="middle" x="162.75" y="-6.5" font-family="Helvetica,sans-Serif" font-size="10.00">screen_center_y</text>
</a>
</g>
</g>
<!-- Node1&#45;&gt;Node13 -->
<g id="edge12_Node000001_Node000013" class="edge">
<title>Node1&#45;&gt;Node13</title>
<g id="a_edge12_Node000001_Node000013"><a xlink:title=" ">
<path fill="none" stroke="#63b8ff" d="M37.45,-113.73C46.4,-94.25 68.47,-51.87 100,-29 102.6,-27.12 105.38,-25.42 108.28,-23.88"/>
<polygon fill="#63b8ff" stroke="#63b8ff" points="109.43,-27.21 117.11,-19.91 106.55,-20.83 109.43,-27.21"/>
</a>
</g>
</g>
<!-- Node5 -->
<g id="Node000005" class="node">
<title>Node5</title>
<g id="a_Node000005"><a xlink:href="bouton_8c.html#a273a0b22067678e17b3e6b4be36e3641" target="_top" xlink:title=" ">
<polygon fill="white" stroke="#666666" points="364.12,-172 282.88,-172 282.88,-152 364.12,-152 364.12,-172"/>
<text xml:space="preserve" text-anchor="middle" x="323.5" y="-158.5" font-family="Helvetica,sans-Serif" font-size="10.00">pointDansRect</text>
</a>
</g>
</g>
<!-- Node4&#45;&gt;Node5 -->
<g id="edge4_Node000004_Node000005" class="edge">
<title>Node4&#45;&gt;Node5</title>
<g id="a_edge4_Node000004_Node000005"><a xlink:title=" ">
<path fill="none" stroke="#63b8ff" d="M225.58,-162C240.69,-162 256.7,-162 271.26,-162"/>
<polygon fill="#63b8ff" stroke="#63b8ff" points="271.06,-165.5 281.06,-162 271.06,-158.5 271.06,-165.5"/>
</a>
</g>
</g>
<!-- Node8 -->
<g id="Node000008" class="node">
<title>Node8</title>
<g id="a_Node000008"><a xlink:href="boss_8c.html#aa99c5bb57c45ca96ac8cbc9178113ded" target="_top" xlink:title=" ">
<polygon fill="white" stroke="#666666" points="366.75,-134 280.25,-134 280.25,-114 366.75,-114 366.75,-134"/>
<text xml:space="preserve" text-anchor="middle" x="323.5" y="-120.5" font-family="Helvetica,sans-Serif" font-size="10.00">clear_projectiles</text>
</a>
</g>
</g>
<!-- Node7&#45;&gt;Node8 -->
<g id="edge7_Node000007_Node000008" class="edge">
<title>Node7&#45;&gt;Node8</title>
<g id="a_edge7_Node000007_Node000008"><a xlink:title=" ">
<path fill="none" stroke="#63b8ff" d="M207.55,-96.48C226.51,-101.02 248.89,-106.38 268.83,-111.15"/>
<polygon fill="#63b8ff" stroke="#63b8ff" points="267.93,-114.54 278.47,-113.46 269.56,-107.73 267.93,-114.54"/>
</a>
</g>
</g>
<!-- Node9 -->
<g id="Node000009" class="node">
<title>Node9</title>
<g id="a_Node000009"><a xlink:href="boss_8c.html#a06fdb2e8e1170b4f3dbdea1b5d3ee5e9" target="_top" xlink:title=" ">
<polygon fill="white" stroke="#666666" points="385.5,-96 261.5,-96 261.5,-76 385.5,-76 385.5,-96"/>
<text xml:space="preserve" text-anchor="middle" x="323.5" y="-82.5" font-family="Helvetica,sans-Serif" font-size="10.00">supprimer_minions_boss</text>
</a>
</g>
</g>
<!-- Node7&#45;&gt;Node9 -->
<g id="edge8_Node000007_Node000009" class="edge">
<title>Node7&#45;&gt;Node9</title>
<g id="a_edge8_Node000007_Node000009"><a xlink:title=" ">
<path fill="none" stroke="#63b8ff" d="M215.73,-86C226.58,-86 238.21,-86 249.66,-86"/>
<polygon fill="#63b8ff" stroke="#63b8ff" points="249.5,-89.5 259.5,-86 249.5,-82.5 249.5,-89.5"/>
</a>
</g>
</g>
<!-- Node10 -->
<g id="Node000010" class="node">
<title>Node10</title>
<g id="a_Node000010"><a xlink:href="mob_8c.html#a982672a13ed7a7b25477f268c592c14b" target="_top" xlink:title="Libere un mob et nettoie les ressources associees.">
<polygon fill="white" stroke="#666666" points="509.5,-96 421.5,-96 421.5,-76 509.5,-76 509.5,-96"/>
<text xml:space="preserve" text-anchor="middle" x="465.5" y="-82.5" font-family="Helvetica,sans-Serif" font-size="10.00">detruire_un_mob</text>
</a>
</g>
</g>
<!-- Node9&#45;&gt;Node10 -->
<g id="edge9_Node000009_Node000010" class="edge">
<title>Node9&#45;&gt;Node10</title>
<g id="a_edge9_Node000009_Node000010"><a xlink:title=" ">
<path fill="none" stroke="#63b8ff" d="M385.91,-86C393.9,-86 402.05,-86 409.93,-86"/>
<polygon fill="#63b8ff" stroke="#63b8ff" points="409.7,-89.5 419.7,-86 409.7,-82.5 409.7,-89.5"/>
</a>
</g>
</g>
<!-- Node12 -->
<g id="Node000012" class="node">
<title>Node12</title>
<g id="a_Node000012"><a xlink:href="main_8h.html#aaaa1e9fcb86ff8e60b297faa7815ad1d" target="_top" xlink:title=" ">
<polygon fill="white" stroke="#666666" points="361.88,-58 285.12,-58 285.12,-38 361.88,-38 361.88,-58"/>
<text xml:space="preserve" text-anchor="middle" x="323.5" y="-44.5" font-family="Helvetica,sans-Serif" font-size="10.00">screen_widthf</text>
</a>
</g>
</g>
<!-- Node11&#45;&gt;Node12 -->
<g id="edge11_Node000011_Node000012" class="edge">
<title>Node11&#45;&gt;Node12</title>
<g id="a_edge11_Node000011_Node000012"><a xlink:title=" ">
<path fill="none" stroke="#63b8ff" d="M207.13,-48C227.66,-48 252.26,-48 273.46,-48"/>
<polygon fill="#63b8ff" stroke="#63b8ff" points="273.33,-51.5 283.33,-48 273.33,-44.5 273.33,-51.5"/>
</a>
</g>
</g>
<!-- Node14 -->
<g id="Node000014" class="node">
<title>Node14</title>
<g id="a_Node000014"><a xlink:href="main_8h.html#a9b4aefc63ea00e60ec88da19e24e8236" target="_top" xlink:title=" ">
<polygon fill="white" stroke="#666666" points="363.38,-20 283.62,-20 283.62,0 363.38,0 363.38,-20"/>
<text xml:space="preserve" text-anchor="middle" x="323.5" y="-6.5" font-family="Helvetica,sans-Serif" font-size="10.00">screen_heightf</text>
</a>
</g>
</g>
<!-- Node13&#45;&gt;Node14 -->
<g id="edge13_Node000013_Node000014" class="edge">
<title>Node13&#45;&gt;Node14</title>
<g id="a_edge13_Node000013_Node000014"><a xlink:title=" ">
<path fill="none" stroke="#63b8ff" d="M207.13,-10C227.19,-10 251.14,-10 272.01,-10"/>
<polygon fill="#63b8ff" stroke="#63b8ff" points="271.73,-13.5 281.73,-10 271.73,-6.5 271.73,-13.5"/>
</a>
</g>
</g>
</g>
</svg>
