<?xml version="1.0" encoding="UTF-8" standalone="no"?>
<!DOCTYPE svg PUBLIC "-//W3C//DTD SVG 1.1//EN"
 "http://www.w3.org/Graphics/SVG/1.1/DTD/svg11.dtd">
<!-- Generated by graphviz version 14.1.4 (20260321.0153)
 -->
<!-- Title: gerer_clic_inventaire Pages: 1 -->
<svg width="350pt" height="104pt"
 viewBox="0.00 0.00 350.00 104.00" xmlns="http://www.w3.org/2000/svg" xmlns:xlink="http://www.w3.org/1999/xlink">
<g id="graph0" class="graph" transform="scale(1 1) rotate(0) translate(4 100)">
<title>gerer_clic_inventaire</title>
<!-- Node1 -->
<g id="Node000001" class="node">
<title>Node1</title>
<g id="a_Node000001"><a xlink:title="Gere clic inventaire a partir des entrees utilisateur et des evenements.">
<polygon fill="#999999" stroke="#666666" points="105.25,-58 0,-58 0,-38 105.25,-38 105.25,-58"/>
<text xml:space="preserve" text-anchor="middle" x="52.62" y="-44.5" font-family="Helvetica,sans-Serif" font-size="10.00">gerer_clic_inventaire</text>
</a>
</g>
</g>
<!-- Node2 -->
<g id="Node000002" class="node">
<title>Node2</title>
<g id="a_Node000002"><a xlink:href="main_8h.html#a6c672075bc554c92548a916c9501bdb5" target="_top" xlink:title=" ">
<polygon fill="white" stroke="#666666" points="229.25,-96 141.25,-96 141.25,-76 229.25,-76 229.25,-96"/>
<text xml:space="preserve" text-anchor="middle" x="185.25" y="-82.5" font-family="Helvetica,sans-Serif" font-size="10.00">screen_center_x</text>
</a>
</g>
</g>
<!-- Node1&#45;&gt;Node2 -->
<g id="edge1_Node000001_Node000002" class="edge">
<title>Node1&#45;&gt;Node2</title>
<g id="a_edge1_Node000001_Node000002"><a xlink:title=" ">
<path fill="none" stroke="#63b8ff" d="M89.66,-58.48C104.51,-62.8 121.91,-67.86 137.7,-72.46"/>
<polygon fill="#63b8ff" stroke="#63b8ff" points="136.3,-75.69 146.87,-75.13 138.25,-68.97 136.3,-75.69"/>
</a>
</g>
</g>
<!-- Node3 -->
<g id="Node000003" class="node">
<title>Node3</title>
<g id="a_Node000003"><a xlink:href="main_8h.html#aaaa1e9fcb86ff8e60b297faa7815ad1d" target="_top" xlink:title=" ">
<polygon fill="white" stroke="#666666" points="342,-77 265.25,-77 265.25,-57 342,-57 342,-77"/>
<text xml:space="preserve" text-anchor="middle" x="303.62" y="-63.5" font-family="Helvetica,sans-Serif" font-size="10.00">screen_widthf</text>
</a>
</g>
</g>
<!-- Node1&#45;&gt;Node3 -->
<g id="edge4_Node000001_Node000003" class="edge">
<title>Node1&#45;&gt;Node3</title>
<g id="a_edge4_Node000001_Node000003"><a xlink:title=" ">
<path fill="none" stroke="#63b8ff" d="M105.52,-51.96C149.13,-55.29 211,-60.01 253.74,-63.27"/>
<polygon fill="#63b8ff" stroke="#63b8ff" points="253.24,-66.74 263.47,-64.01 253.77,-59.76 253.24,-66.74"/>
</a>
</g>
</g>
<!-- Node4 -->
<g id="Node000004" class="node">
<title>Node4</title>
<g id="a_Node000004"><a xlink:href="main_8h.html#a9b4aefc63ea00e60ec88da19e24e8236" target="_top" xlink:title=" ">
<polygon fill="white" stroke="#666666" points="225.12,-20 145.38,-20 145.38,0 225.12,0 225.12,-20"/>
<text xml:space="preserve" text-anchor="middle" x="185.25" y="-6.5" font-family="Helvetica,sans-Serif" font-size="10.00">screen_heightf</text>
</a>
</g>
</g>
<!-- Node1&#45;&gt;Node4 -->
<g id="edge3_Node000001_Node000004" class="edge">
<title>Node1&#45;&gt;Node4</title>
<g id="a_edge3_Node000001_Node000004"><a xlink:title=" ">
<path fill="none" stroke="#63b8ff" d="M89.66,-37.52C104.51,-33.2 121.91,-28.14 137.7,-23.54"/>
<polygon fill="#63b8ff" stroke="#63b8ff" points="138.25,-27.03 146.87,-20.87 136.3,-20.31 138.25,-27.03"/>
</a>
</g>
</g>
<!-- Node2&#45;&gt;Node3 -->
<g id="edge2_Node000002_Node000003" class="edge">
<title>Node2&#45;&gt;Node3</title>
<g id="a_edge2_Node000002_Node000003"><a xlink:title=" ">
<path fill="none" stroke="#63b8ff" d="M229.58,-78.93C237.49,-77.63 245.79,-76.28 253.84,-74.96"/>
<polygon fill="#63b8ff" stroke="#63b8ff" points="254.19,-78.45 263.5,-73.39 253.06,-71.55 254.19,-78.45"/>
</a>
</g>
</g>
</g>
</svg>
