<?xml version="1.0" encoding="UTF-8" standalone="no"?>
<!DOCTYPE svg PUBLIC "-//W3C//DTD SVG 1.1//EN"
 "http://www.w3.org/Graphics/SVG/1.1/DTD/svg11.dtd">
<!-- Generated by graphviz version 14.1.4 (20260321.0153)
 -->
<!-- Title: ajouter_item_hotbar Pages: 1 -->
<svg width="446pt" height="66pt"
 viewBox="0.00 0.00 446.00 66.00" xmlns="http://www.w3.org/2000/svg" xmlns:xlink="http://www.w3.org/1999/xlink">
<g id="graph0" class="graph" transform="scale(1 1) rotate(0) translate(4 62)">
<title>ajouter_item_hotbar</title>
<!-- Node1 -->
<g id="Node000001" class="node">
<title>Node1</title>
<g id="a_Node000001"><a xlink:title="Ajoute un item dans la hotbar (slot libre ou pile compatible).">
<polygon fill="#999999" stroke="#666666" points="438.25,-39 336.75,-39 336.75,-19 438.25,-19 438.25,-39"/>
<text xml:space="preserve" text-anchor="middle" x="387.5" y="-25.5" font-family="Helvetica,sans-Serif" font-size="10.00">ajouter_item_hotbar</text>
</a>
</g>
</g>
<!-- Node2 -->
<g id="Node000002" class="node">
<title>Node2</title>
<g id="a_Node000002"><a xlink:href="perso_8c.html#ab64bb2370b34b1c0bd7a21a4cce2462b" target="_top" xlink:title="Evalue ramasser item puis applique l&#39;action autorisee si les conditions sont reunies.">
<polygon fill="white" stroke="#666666" points="300.75,-58 179,-58 179,-38 300.75,-38 300.75,-58"/>
<text xml:space="preserve" text-anchor="middle" x="239.88" y="-44.5" font-family="Helvetica,sans-Serif" font-size="10.00">possible_ramasser_item</text>
</a>
</g>
</g>
<!-- Node1&#45;&gt;Node2 -->
<g id="edge1_Node000001_Node000002" class="edge">
<title>Node1&#45;&gt;Node2</title>
<g id="a_edge1_Node000001_Node000002"><a xlink:title=" ">
<path fill="none" stroke="#63b8ff" d="M324.99,-37.03C317.09,-38.06 309.01,-39.11 301.13,-40.14"/>
<polygon fill="#63b8ff" stroke="#63b8ff" points="325.42,-40.5 334.88,-35.73 324.51,-33.56 325.42,-40.5"/>
</a>
</g>
</g>
<!-- Node5 -->
<g id="Node000005" class="node">
<title>Node5</title>
<g id="a_Node000005"><a xlink:href="item_8c.html#a161aa23dc24b7a6f3c5ff3c0d690e442" target="_top" xlink:title="Tente de transferer un item du sol vers la hotbar du joueur.">
<polygon fill="white" stroke="#666666" points="280.12,-20 199.62,-20 199.62,0 280.12,0 280.12,-20"/>
<text xml:space="preserve" text-anchor="middle" x="239.88" y="-6.5" font-family="Helvetica,sans-Serif" font-size="10.00">ramasser_item</text>
</a>
</g>
</g>
<!-- Node1&#45;&gt;Node5 -->
<g id="edge4_Node000001_Node000005" class="edge">
<title>Node1&#45;&gt;Node5</title>
<g id="a_edge4_Node000001_Node000005"><a xlink:title=" ">
<path fill="none" stroke="#63b8ff" d="M325.04,-20.98C309.97,-19.01 294.24,-16.96 280.51,-15.17"/>
<polygon fill="#63b8ff" stroke="#63b8ff" points="324.51,-24.44 334.88,-22.27 325.42,-17.5 324.51,-24.44"/>
</a>
</g>
</g>
<!-- Node3 -->
<g id="Node000003" class="node">
<title>Node3</title>
<g id="a_Node000003"><a xlink:href="jeux_8c.html#a2d7491d04e8c2bdb52bb6ed7d75e4d78" target="_top" xlink:title="Execute la boucle principale de gameplay pour la planete courante.">
<polygon fill="white" stroke="#666666" points="143,-58 73,-58 73,-38 143,-38 143,-58"/>
<text xml:space="preserve" text-anchor="middle" x="108" y="-44.5" font-family="Helvetica,sans-Serif" font-size="10.00">jeu_principal</text>
</a>
</g>
</g>
<!-- Node2&#45;&gt;Node3 -->
<g id="edge2_Node000002_Node000003" class="edge">
<title>Node2&#45;&gt;Node3</title>
<g id="a_edge2_Node000002_Node000003"><a xlink:title=" ">
<path fill="none" stroke="#63b8ff" d="M167.19,-48C158.92,-48 150.8,-48 143.37,-48"/>
<polygon fill="#63b8ff" stroke="#63b8ff" points="166.99,-51.5 176.99,-48 166.99,-44.5 166.99,-51.5"/>
</a>
</g>
</g>
<!-- Node4 -->
<g id="Node000004" class="node">
<title>Node4</title>
<g id="a_Node000004"><a xlink:href="main_8c.html#a0ddf1224851353fc92bfbff6f499fa97" target="_top" xlink:title=" ">
<polygon fill="white" stroke="#666666" points="37,-58 0,-58 0,-38 37,-38 37,-58"/>
<text xml:space="preserve" text-anchor="middle" x="18.5" y="-44.5" font-family="Helvetica,sans-Serif" font-size="10.00">main</text>
</a>
</g>
</g>
<!-- Node3&#45;&gt;Node4 -->
<g id="edge3_Node000003_Node000004" class="edge">
<title>Node3&#45;&gt;Node4</title>
<g id="a_edge3_Node000003_Node000004"><a xlink:title=" ">
<path fill="none" stroke="#63b8ff" d="M61.18,-48C52.72,-48 44.36,-48 37.37,-48"/>
<polygon fill="#63b8ff" stroke="#63b8ff" points="61.16,-51.5 71.16,-48 61.16,-44.5 61.16,-51.5"/>
</a>
</g>
</g>
</g>
</svg>
