<?xml version="1.0" encoding="UTF-8" standalone="no"?>
<!DOCTYPE svg PUBLIC "-//W3C//DTD SVG 1.1//EN"
 "http://www.w3.org/Graphics/SVG/1.1/DTD/svg11.dtd">
<!-- Generated by graphviz version 14.1.4 (20260321.0153)
 -->
<!-- Title: ajouter_item_hotbar Pages: 1 -->
<svg width="1004pt" height="177pt"
 viewBox="0.00 0.00 1004.00 177.00" xmlns="http://www.w3.org/2000/svg" xmlns:xlink="http://www.w3.org/1999/xlink">
<g id="graph0" class="graph" transform="scale(1 1) rotate(0) translate(4 173.38)">
<title>ajouter_item_hotbar</title>
<!-- Node1 -->
<g id="Node000001" class="node">
<title>Node1</title>
<g id="a_Node000001"><a xlink:title="Ajoute un item dans la hotbar (slot libre ou pile compatible).">
<polygon fill="#999999" stroke="#666666" points="995.75,-77 894.25,-77 894.25,-57 995.75,-57 995.75,-77"/>
<text xml:space="preserve" text-anchor="middle" x="945" y="-63.5" font-family="Helvetica,sans-Serif" font-size="10.00">ajouter_item_hotbar</text>
</a>
</g>
</g>
<!-- Node2 -->
<g id="Node000002" class="node">
<title>Node2</title>
<g id="a_Node000002"><a xlink:href="shop_8c.html#a39103a3471c9d17e017aa8f676c074b8" target="_top" xlink:title=" ">
<polygon fill="white" stroke="#666666" points="843.62,-134 764.62,-134 764.62,-114 843.62,-114 843.62,-134"/>
<text xml:space="preserve" text-anchor="middle" x="804.12" y="-120.5" font-family="Helvetica,sans-Serif" font-size="10.00">achat_kit_soin</text>
</a>
</g>
</g>
<!-- Node1&#45;&gt;Node2 -->
<g id="edge1_Node000001_Node000002" class="edge">
<title>Node1&#45;&gt;Node2</title>
<g id="a_edge1_Node000001_Node000002"><a xlink:title=" ">
<path fill="none" stroke="#63b8ff" d="M907.92,-81.81C883.6,-91.79 852.12,-104.71 830.44,-113.61"/>
<polygon fill="#63b8ff" stroke="#63b8ff" points="909.21,-85.06 917.13,-78.03 906.55,-78.59 909.21,-85.06"/>
</a>
</g>
</g>
<!-- Node9 -->
<g id="Node000009" class="node">
<title>Node9</title>
<g id="a_Node000009"><a xlink:href="jeux_8c.html#a60b2c871a560c8fc440273adde564aed" target="_top" xlink:title=" ">
<polygon fill="white" stroke="#666666" points="858.25,-58 750,-58 750,-38 858.25,-38 858.25,-58"/>
<text xml:space="preserve" text-anchor="middle" x="804.12" y="-44.5" font-family="Helvetica,sans-Serif" font-size="10.00">console_ajouter_item</text>
</a>
</g>
</g>
<!-- Node1&#45;&gt;Node9 -->
<g id="edge10_Node000001_Node000009" class="edge">
<title>Node1&#45;&gt;Node9</title>
<g id="a_edge10_Node000001_Node000009"><a xlink:title=" ">
<path fill="none" stroke="#63b8ff" d="M882.62,-58.6C874.57,-57.5 866.37,-56.38 858.47,-55.3"/>
<polygon fill="#63b8ff" stroke="#63b8ff" points="881.98,-62.05 892.36,-59.94 882.93,-55.11 881.98,-62.05"/>
</a>
</g>
</g>
<!-- Node12 -->
<g id="Node000012" class="node">
<title>Node12</title>
<g id="a_Node000012"><a xlink:href="perso_8c.html#ab64bb2370b34b1c0bd7a21a4cce2462b" target="_top" xlink:title="Evalue ramasser item puis applique l&#39;action autorisee si les conditions sont reunies.">
<polygon fill="white" stroke="#666666" points="702,-96 580.25,-96 580.25,-76 702,-76 702,-96"/>
<text xml:space="preserve" text-anchor="middle" x="641.12" y="-82.5" font-family="Helvetica,sans-Serif" font-size="10.00">possible_ramasser_item</text>
</a>
</g>
</g>
<!-- Node1&#45;&gt;Node12 -->
<g id="edge14_Node000001_Node000012" class="edge">
<title>Node1&#45;&gt;Node12</title>
<g id="a_edge14_Node000001_Node000012"><a xlink:title=" ">
<path fill="none" stroke="#63b8ff" d="M882.61,-70.86C829.98,-74.18 754.6,-78.92 702.31,-82.21"/>
<polygon fill="#63b8ff" stroke="#63b8ff" points="882.54,-74.38 892.3,-70.25 882.1,-67.39 882.54,-74.38"/>
</a>
</g>
</g>
<!-- Node13 -->
<g id="Node000013" class="node">
<title>Node13</title>
<g id="a_Node000013"><a xlink:href="item_8c.html#a161aa23dc24b7a6f3c5ff3c0d690e442" target="_top" xlink:title="Tente de transferer un item du sol vers la hotbar du joueur.">
<polygon fill="white" stroke="#666666" points="844.38,-20 763.88,-20 763.88,0 844.38,0 844.38,-20"/>
<text xml:space="preserve" text-anchor="middle" x="804.12" y="-6.5" font-family="Helvetica,sans-Serif" font-size="10.00">ramasser_item</text>
</a>
</g>
</g>
<!-- Node1&#45;&gt;Node13 -->
<g id="edge16_Node000001_Node000013" class="edge">
<title>Node1&#45;&gt;Node13</title>
<g id="a_edge16_Node000001_Node000013"><a xlink:title=" ">
<path fill="none" stroke="#63b8ff" d="M911.26,-51.81C895.37,-44.62 875.94,-36.07 858.25,-29 850.97,-26.09 843.06,-23.14 835.61,-20.47"/>
<polygon fill="#63b8ff" stroke="#63b8ff" points="909.7,-54.95 920.25,-55.91 912.6,-48.58 909.7,-54.95"/>
</a>
</g>
</g>
<!-- Node3 -->
<g id="Node000003" class="node">
<title>Node3</title>
<g id="a_Node000003"><a xlink:href="shop_8c.html#ad1ea096e4fe280946f862273fc94eb30" target="_top" xlink:title="Affiche shop et met a jour les elements visuels associes.">
<polygon fill="white" stroke="#666666" points="678,-134 604.25,-134 604.25,-114 678,-114 678,-134"/>
<text xml:space="preserve" text-anchor="middle" x="641.12" y="-120.5" font-family="Helvetica,sans-Serif" font-size="10.00">afficher_shop</text>
</a>
</g>
</g>
<!-- Node2&#45;&gt;Node3 -->
<g id="edge2_Node000002_Node000003" class="edge">
<title>Node2&#45;&gt;Node3</title>
<g id="a_edge2_Node000002_Node000003"><a xlink:title=" ">
<path fill="none" stroke="#63b8ff" d="M752.69,-124C728.55,-124 700.21,-124 678.26,-124"/>
<polygon fill="#63b8ff" stroke="#63b8ff" points="752.64,-127.5 762.64,-124 752.64,-120.5 752.64,-127.5"/>
</a>
</g>
</g>
<!-- Node4 -->
<g id="Node000004" class="node">
<title>Node4</title>
<g id="a_Node000004"><a xlink:href="vaisseau_8c.html#ace614afc8df3a40bd5ea0771044ff217" target="_top" xlink:title=" ">
<polygon fill="white" stroke="#666666" points="532.25,-134 418,-134 418,-114 532.25,-114 532.25,-134"/>
<text xml:space="preserve" text-anchor="middle" x="475.12" y="-120.5" font-family="Helvetica,sans-Serif" font-size="10.00">gerer_interaction_objet</text>
</a>
</g>
</g>
<!-- Node3&#45;&gt;Node4 -->
<g id="edge3_Node000003_Node000004" class="edge">
<title>Node3&#45;&gt;Node4</title>
<g id="a_edge3_Node000003_Node000004"><a xlink:title=" ">
<path fill="none" stroke="#63b8ff" d="M592.86,-124C574.07,-124 552.28,-124 532.66,-124"/>
<polygon fill="#63b8ff" stroke="#63b8ff" points="592.62,-127.5 602.62,-124 592.62,-120.5 592.62,-127.5"/>
</a>
</g>
</g>
<!-- Node5 -->
<g id="Node000005" class="node">
<title>Node5</title>
<g id="a_Node000005"><a xlink:href="vaisseau_8c.html#a8ea9afc9440149ddd36e96b97d8ed6c5" target="_top" xlink:title="Lance la scene interieure du vaisseau (deplacement, interactions, mini&#45;jeux, sortie).">
<polygon fill="white" stroke="#666666" points="382,-153 327,-153 327,-133 382,-133 382,-153"/>
<text xml:space="preserve" text-anchor="middle" x="354.5" y="-139.5" font-family="Helvetica,sans-Serif" font-size="10.00">vaisseau</text>
</a>
</g>
</g>
<!-- Node4&#45;&gt;Node5 -->
<g id="edge4_Node000004_Node000005" class="edge">
<title>Node4&#45;&gt;Node5</title>
<g id="a_edge4_Node000004_Node000005"><a xlink:title=" ">
<path fill="none" stroke="#63b8ff" d="M406.37,-134.85C397.89,-136.21 389.65,-137.53 382.35,-138.7"/>
<polygon fill="#63b8ff" stroke="#63b8ff" points="406.78,-138.33 416.1,-133.29 405.67,-131.42 406.78,-138.33"/>
</a>
</g>
</g>
<!-- Node6 -->
<g id="Node000006" class="node">
<title>Node6</title>
<g id="a_Node000006"><a xlink:href="cinematique_8c.html#a418cc3e727578f4cd509ad27cd6a2a31" target="_top" xlink:title="Lance cinematique fin et gere son deroulement complet.">
<polygon fill="white" stroke="#666666" points="291,-153 180.5,-153 180.5,-133 291,-133 291,-153"/>
<text xml:space="preserve" text-anchor="middle" x="235.75" y="-139.5" font-family="Helvetica,sans-Serif" font-size="10.00">jouer_cinematique_fin</text>
</a>
</g>
</g>
<!-- Node5&#45;&gt;Node6 -->
<g id="edge5_Node000005_Node000006" class="edge">
<title>Node5&#45;&gt;Node6</title>
<g id="a_edge5_Node000005_Node000006"><a xlink:title=" ">
<path fill="none" stroke="#63b8ff" d="M315.4,-143C307.61,-143 299.28,-143 291.05,-143"/>
<polygon fill="#63b8ff" stroke="#63b8ff" points="315.2,-146.5 325.2,-143 315.2,-139.5 315.2,-146.5"/>
</a>
</g>
</g>
<!-- Node8 -->
<g id="Node000008" class="node">
<title>Node8</title>
<g id="a_Node000008"><a xlink:href="main_8c.html#a0ddf1224851353fc92bfbff6f499fa97" target="_top" xlink:title=" ">
<polygon fill="white" stroke="#666666" points="37,-134 0,-134 0,-114 37,-114 37,-134"/>
<text xml:space="preserve" text-anchor="middle" x="18.5" y="-120.5" font-family="Helvetica,sans-Serif" font-size="10.00">main</text>
</a>
</g>
</g>
<!-- Node5&#45;&gt;Node8 -->
<g id="edge9_Node000005_Node000008" class="edge">
<title>Node5&#45;&gt;Node8</title>
<g id="a_edge9_Node000005_Node000008"><a xlink:title=" ">
<path fill="none" stroke="#63b8ff" d="M315.58,-156.47C307.57,-158.77 299.08,-160.8 291,-162 194.8,-176.3 167.03,-167.82 73,-143 60.8,-139.78 47.43,-135.03 37.1,-131.08"/>
<polygon fill="#63b8ff" stroke="#63b8ff" points="316.55,-159.84 325.07,-153.55 314.49,-153.15 316.55,-159.84"/>
</a>
</g>
</g>
<!-- Node7 -->
<g id="Node000007" class="node">
<title>Node7</title>
<g id="a_Node000007"><a xlink:href="map_8c.html#ad462ccdd50801fb085dc8134fc3765d1" target="_top" xlink:title="Affiche la carte et met a jour les elements visuels associes.">
<polygon fill="white" stroke="#666666" points="144.5,-134 73,-134 73,-114 144.5,-114 144.5,-134"/>
<text xml:space="preserve" text-anchor="middle" x="108.75" y="-120.5" font-family="Helvetica,sans-Serif" font-size="10.00">afficher_map</text>
</a>
</g>
</g>
<!-- Node6&#45;&gt;Node7 -->
<g id="edge6_Node000006_Node000007" class="edge">
<title>Node6&#45;&gt;Node7</title>
<g id="a_edge6_Node000006_Node000007"><a xlink:title=" ">
<path fill="none" stroke="#63b8ff" d="M169,-133.01C160.72,-131.75 152.51,-130.5 144.96,-129.35"/>
<polygon fill="#63b8ff" stroke="#63b8ff" points="168.38,-136.45 178.79,-134.49 169.43,-129.53 168.38,-136.45"/>
</a>
</g>
</g>
<!-- Node7&#45;&gt;Node4 -->
<g id="edge7_Node000007_Node000004" class="edge">
<title>Node7&#45;&gt;Node4</title>
<g id="a_edge7_Node000007_Node000004"><a xlink:title=" ">
<path fill="none" stroke="#63b8ff" d="M156.33,-124C223.07,-124 345.75,-124 417.59,-124"/>
<polygon fill="#63b8ff" stroke="#63b8ff" points="156.45,-120.5 146.45,-124 156.45,-127.5 156.45,-120.5"/>
</a>
</g>
</g>
<!-- Node7&#45;&gt;Node8 -->
<g id="edge8_Node000007_Node000008" class="edge">
<title>Node7&#45;&gt;Node8</title>
<g id="a_edge8_Node000007_Node000008"><a xlink:title=" ">
<path fill="none" stroke="#63b8ff" d="M61.39,-124C52.82,-124 44.36,-124 37.31,-124"/>
<polygon fill="#63b8ff" stroke="#63b8ff" points="61.1,-127.5 71.1,-124 61.1,-120.5 61.1,-127.5"/>
</a>
</g>
</g>
<!-- Node10 -->
<g id="Node000010" class="node">
<title>Node10</title>
<g id="a_Node000010"><a xlink:href="jeux_8c.html#adf6e0b25032f317217a43d1d4a47e08a" target="_top" xlink:title=" ">
<polygon fill="white" stroke="#666666" points="714,-58 568.25,-58 568.25,-38 714,-38 714,-58"/>
<text xml:space="preserve" text-anchor="middle" x="641.12" y="-44.5" font-family="Helvetica,sans-Serif" font-size="10.00">console_executer_commande</text>
</a>
</g>
</g>
<!-- Node9&#45;&gt;Node10 -->
<g id="edge11_Node000009_Node000010" class="edge">
<title>Node9&#45;&gt;Node10</title>
<g id="a_edge11_Node000009_Node000010"><a xlink:title=" ">
<path fill="none" stroke="#63b8ff" d="M738.22,-48C730.39,-48 722.35,-48 714.41,-48"/>
<polygon fill="#63b8ff" stroke="#63b8ff" points="738,-51.5 748,-48 738,-44.5 738,-51.5"/>
</a>
</g>
</g>
<!-- Node11 -->
<g id="Node000011" class="node">
<title>Node11</title>
<g id="a_Node000011"><a xlink:href="jeux_8c.html#a2d7491d04e8c2bdb52bb6ed7d75e4d78" target="_top" xlink:title="Execute la boucle principale de gameplay pour la planete courante.">
<polygon fill="white" stroke="#666666" points="510.12,-77 440.12,-77 440.12,-57 510.12,-57 510.12,-77"/>
<text xml:space="preserve" text-anchor="middle" x="475.12" y="-63.5" font-family="Helvetica,sans-Serif" font-size="10.00">jeu_principal</text>
</a>
</g>
</g>
<!-- Node10&#45;&gt;Node11 -->
<g id="edge12_Node000010_Node000011" class="edge">
<title>Node10&#45;&gt;Node11</title>
<g id="a_edge12_Node000010_Node000011"><a xlink:title=" ">
<path fill="none" stroke="#63b8ff" d="M556.81,-57.65C540.34,-59.56 523.94,-61.46 510.27,-63.04"/>
<polygon fill="#63b8ff" stroke="#63b8ff" points="557.16,-61.14 566.69,-56.51 556.35,-54.18 557.16,-61.14"/>
</a>
</g>
</g>
<!-- Node11&#45;&gt;Node8 -->
<g id="edge13_Node000011_Node000008" class="edge">
<title>Node11&#45;&gt;Node8</title>
<g id="a_edge13_Node000011_Node000008"><a xlink:title=" ">
<path fill="none" stroke="#63b8ff" d="M428.53,-67.68C353.51,-69.6 199.74,-76.94 73,-105 60.87,-107.68 47.72,-112.33 37.5,-116.35"/>
<polygon fill="#63b8ff" stroke="#63b8ff" points="428.45,-71.18 438.36,-67.45 428.28,-64.18 428.45,-71.18"/>
</a>
</g>
</g>
<!-- Node12&#45;&gt;Node11 -->
<g id="edge15_Node000012_Node000011" class="edge">
<title>Node12&#45;&gt;Node11</title>
<g id="a_edge15_Node000012_Node000011"><a xlink:title=" ">
<path fill="none" stroke="#63b8ff" d="M568.58,-77.71C548.42,-75.38 527.4,-72.94 510.5,-70.98"/>
<polygon fill="#63b8ff" stroke="#63b8ff" points="568.15,-81.18 578.49,-78.86 568.95,-74.23 568.15,-81.18"/>
</a>
</g>
</g>
</g>
</svg>
