<?xml version="1.0" encoding="UTF-8" standalone="no"?>
<!DOCTYPE svg PUBLIC "-//W3C//DTD SVG 1.1//EN"
 "http://www.w3.org/Graphics/SVG/1.1/DTD/svg11.dtd">
<!-- Generated by graphviz version 14.1.4 (20260321.0153)
 -->
<!-- Title: init_item Pages: 1 -->
<!--zoomable 302 -->

<svg id="main" version="1.1" xmlns="http://www.w3.org/2000/svg" xmlns:xlink="http://www.w3.org/1999/xlink" xml:space="preserve" onload="init(evt)">

<style type="text/css"><![CDATA[
.node, .edge {opacity: 0.7;}
.node.selected, .edge.selected {opacity: 1;}
.edge:hover path { stroke: red; }
.edge:hover polygon { stroke: red; fill: red; }
]]></style>

<defs>
  <circle id="rim" cx="0" cy="0" r="7"/>
  <circle id="rim2" cx="0" cy="0" r="3.5"/>
  <g id="zoomPlus">
    <use xlink:href="#rim" fill="#404040"><set attributeName="fill" to="#808080" begin="zoomplus.mouseover" end="zoomplus.mouseout"/></use>
    <path d="M-4,0h8M0,-4v8" fill="none" stroke="white" stroke-width="1.5" pointer-events="none"/>
  </g>
  <g id="zoomMin">
    <use xlink:href="#rim" fill="#404040"><set attributeName="fill" to="#808080" begin="zoomminus.mouseover" end="zoomminus.mouseout"/></use>
    <path d="M-4,0h8" fill="none" stroke="white" stroke-width="1.5" pointer-events="none"/>
  </g>
  <g id="arrowUp" transform="translate(30 24)">
    <use xlink:href="#rim"/>
    <path pointer-events="none" fill="none" stroke="white" stroke-width="1.5" d="M0,-3.0v7 M-2.5,-0.5L0,-3.0L2.5,-0.5"/>
  </g>
  <g id="arrowRight" transform="rotate(90) translate(36 -43)">
    <use xlink:href="#rim"/>
    <path pointer-events="none" fill="none" stroke="white" stroke-width="1.5" d="M0,-3.0v7 M-2.5,-0.5L0,-3.0L2.5,-0.5"/>
  </g>
  <g id="arrowDown" transform="rotate(180) translate(-30 -48)">
    <use xlink:href="#rim"/>
    <path pointer-events="none" fill="none" stroke="white" stroke-width="1.5" d="M0,-3.0v7 M-2.5,-0.5L0,-3.0L2.5,-0.5"/>
  </g>
  <g id="arrowLeft" transform="rotate(270) translate(-36 17)">
    <use xlink:href="#rim"/>
    <path pointer-events="none" fill="none" stroke="white" stroke-width="1.5" d="M0,-3.0v7 M-2.5,-0.5L0,-3.0L2.5,-0.5"/>
  </g>
  <g id="resetDef">
    <use xlink:href="#rim2" fill="#404040"><set attributeName="fill" to="#808080" begin="reset.mouseover" end="reset.mouseout"/></use>
  </g>
</defs>
<script type="application/ecmascript">
var viewWidth = 967;
var viewHeight = 302;
var sectionId = 'dynsection-6';
</script>
<script type="application/ecmascript" xlink:href="svg.min.js"/>
<svg id="graph" class="graph">
<g id="viewport">
<title>init_item</title>
<!-- Node1 -->
<g id="Node000001" class="node">
<title>Node1</title>
<g id="a_Node000001"><a xlink:title="Initialise item et prepare les ressources necessaires.">
<polygon fill="#999999" stroke="#666666" points="959,-134 906.25,-134 906.25,-114 959,-114 959,-134"/>
<text xml:space="preserve" text-anchor="middle" x="932.62" y="-120.5" font-family="Helvetica,sans-Serif" font-size="10.00">init_item</text>
</a>
</g>
</g>
<!-- Node2 -->
<g id="Node000002" class="node">
<title>Node2</title>
<g id="a_Node000002"><a xlink:href="shop_8c.html#a39103a3471c9d17e017aa8f676c074b8" target="_top" xlink:title=" ">
<polygon fill="white" stroke="#666666" points="849.62,-257 770.62,-257 770.62,-237 849.62,-237 849.62,-257"/>
<text xml:space="preserve" text-anchor="middle" x="810.12" y="-243.5" font-family="Helvetica,sans-Serif" font-size="10.00">achat_kit_soin</text>
</a>
</g>
</g>
<!-- Node1&#45;&gt;Node2 -->
<g id="edge1_Node000001_Node000002" class="edge">
<title>Node1&#45;&gt;Node2</title>
<g id="a_edge1_Node000001_Node000002"><a xlink:title=" ">
<path fill="none" stroke="#63b8ff" d="M922.91,-144.81C912.97,-166.39 894.84,-199.85 870.25,-221 862.68,-227.51 853.23,-232.63 844.12,-236.55"/>
<polygon fill="#63b8ff" stroke="#63b8ff" points="926.03,-146.42 926.86,-135.86 919.62,-143.6 926.03,-146.42"/>
</a>
</g>
</g>
<!-- Node9 -->
<g id="Node000009" class="node">
<title>Node9</title>
<g id="a_Node000009"><a xlink:href="jeux_8c.html#a60b2c871a560c8fc440273adde564aed" target="_top" xlink:title=" ">
<polygon fill="white" stroke="#666666" points="864.25,-134 756,-134 756,-114 864.25,-114 864.25,-134"/>
<text xml:space="preserve" text-anchor="middle" x="810.12" y="-120.5" font-family="Helvetica,sans-Serif" font-size="10.00">console_ajouter_item</text>
</a>
</g>
</g>
<!-- Node1&#45;&gt;Node9 -->
<g id="edge10_Node000001_Node000009" class="edge">
<title>Node1&#45;&gt;Node9</title>
<g id="a_edge10_Node000001_Node000009"><a xlink:title=" ">
<path fill="none" stroke="#63b8ff" d="M894.42,-124C885.01,-124 874.72,-124 864.68,-124"/>
<polygon fill="#63b8ff" stroke="#63b8ff" points="894.26,-127.5 904.26,-124 894.26,-120.5 894.26,-127.5"/>
</a>
</g>
</g>
<!-- Node11 -->
<g id="Node000011" class="node">
<title>Node11</title>
<g id="a_Node000011"><a xlink:href="jeux_8c.html#a2d7491d04e8c2bdb52bb6ed7d75e4d78" target="_top" xlink:title="Execute la boucle principale de gameplay pour la planete courante.">
<polygon fill="white" stroke="#666666" points="510.12,-134 440.12,-134 440.12,-114 510.12,-114 510.12,-134"/>
<text xml:space="preserve" text-anchor="middle" x="475.12" y="-120.5" font-family="Helvetica,sans-Serif" font-size="10.00">jeu_principal</text>
</a>
</g>
</g>
<!-- Node1&#45;&gt;Node11 -->
<g id="edge17_Node000001_Node000011" class="edge">
<title>Node1&#45;&gt;Node11</title>
<g id="a_edge17_Node000001_Node000011"><a xlink:title=" ">
<path fill="none" stroke="#63b8ff" d="M895.07,-110.72C887,-108.35 878.42,-106.24 870.25,-105 737.54,-84.93 701.78,-91.37 568.25,-105 548.92,-106.97 527.65,-111.22 510.43,-115.19"/>
<polygon fill="#63b8ff" stroke="#63b8ff" points="894.01,-114.06 904.6,-113.74 896.13,-107.39 894.01,-114.06"/>
</a>
</g>
</g>
<!-- Node12 -->
<g id="Node000012" class="node">
<title>Node12</title>
<g id="a_Node000012"><a xlink:href="jeux_8c.html#ae8e5f9cd970d438c5fd8cda2b7286bfd" target="_top" xlink:title="Initialise la caisse a outils et prepare les ressources necessaires.">
<polygon fill="white" stroke="#666666" points="686.62,-222 595.62,-222 595.62,-202 686.62,-202 686.62,-222"/>
<text xml:space="preserve" text-anchor="middle" x="641.12" y="-208.5" font-family="Helvetica,sans-Serif" font-size="10.00">init_caisse_outils</text>
</a>
</g>
</g>
<!-- Node1&#45;&gt;Node12 -->
<g id="edge14_Node000001_Node000012" class="edge">
<title>Node1&#45;&gt;Node12</title>
<g id="a_edge14_Node000001_Node000012"><a xlink:title=" ">
<path fill="none" stroke="#63b8ff" d="M917.91,-142.89C906.74,-156.73 889.67,-174.66 870.25,-184 811.45,-212.27 734.71,-215.85 686.92,-214.75"/>
<polygon fill="#63b8ff" stroke="#63b8ff" points="920.41,-145.37 923.74,-135.31 914.87,-141.11 920.41,-145.37"/>
</a>
</g>
</g>
<!-- Node13 -->
<g id="Node000013" class="node">
<title>Node13</title>
<g id="a_Node000013"><a xlink:href="boss_8c.html#abbb99b844a32a59c50228b7d6dcb888b" target="_top" xlink:title="Met a jour boss en fonction de l&#39;etat courant du jeu.">
<polygon fill="white" stroke="#666666" points="860.88,-20 759.38,-20 759.38,0 860.88,0 860.88,-20"/>
<text xml:space="preserve" text-anchor="middle" x="810.12" y="-6.5" font-family="Helvetica,sans-Serif" font-size="10.00">mettre_a_jour_boss</text>
</a>
</g>
</g>
<!-- Node1&#45;&gt;Node13 -->
<g id="edge18_Node000001_Node000013" class="edge">
<title>Node1&#45;&gt;Node13</title>
<g id="a_edge18_Node000001_Node000013"><a xlink:title=" ">
<path fill="none" stroke="#63b8ff" d="M923.37,-103.44C913.72,-81.91 895.74,-48.54 870.25,-29 865.8,-25.59 860.72,-22.78 855.45,-20.47"/>
<polygon fill="#63b8ff" stroke="#63b8ff" points="920.04,-104.54 927.17,-112.37 926.48,-101.8 920.04,-104.54"/>
</a>
</g>
</g>
<!-- Node14 -->
<g id="Node000014" class="node">
<title>Node14</title>
<g id="a_Node000014"><a xlink:href="sauvegarde_8c.html#a0f767253f223388fe1d131a28fc01d10" target="_top" xlink:title=" ">
<polygon fill="white" stroke="#666666" points="870.25,-175 750,-175 750,-155 870.25,-155 870.25,-175"/>
<text xml:space="preserve" text-anchor="middle" x="810.12" y="-161.5" font-family="Helvetica,sans-Serif" font-size="10.00">reconstruire_case_array</text>
</a>
</g>
</g>
<!-- Node1&#45;&gt;Node14 -->
<g id="edge20_Node000001_Node000014" class="edge">
<title>Node1&#45;&gt;Node14</title>
<g id="a_edge20_Node000001_Node000014"><a xlink:title=" ">
<path fill="none" stroke="#63b8ff" d="M895.06,-136.44C877.97,-142.26 857.87,-149.1 841.62,-154.62"/>
<polygon fill="#63b8ff" stroke="#63b8ff" points="896,-139.82 904.34,-133.28 893.75,-133.19 896,-139.82"/>
</a>
</g>
</g>
<!-- Node16 -->
<g id="Node000016" class="node">
<title>Node16</title>
<g id="a_Node000016"><a xlink:href="perso_8c.html#a8ed2806e634464929c59457d470b930b" target="_top" xlink:title="Evalue les collisions de combat (joueur/mobs/items) pour la frame courante.">
<polygon fill="white" stroke="#666666" points="869.5,-58 750.75,-58 750.75,-38 869.5,-38 869.5,-58"/>
<text xml:space="preserve" text-anchor="middle" x="810.12" y="-44.5" font-family="Helvetica,sans-Serif" font-size="10.00">tester_collision_combat</text>
</a>
</g>
</g>
<!-- Node1&#45;&gt;Node16 -->
<g id="edge23_Node000001_Node000016" class="edge">
<title>Node1&#45;&gt;Node16</title>
<g id="a_edge23_Node000001_Node000016"><a xlink:title=" ">
<path fill="none" stroke="#63b8ff" d="M913.55,-106.01C901.91,-95.13 886.05,-81.57 870.25,-72 861.53,-66.72 851.44,-62.14 842.1,-58.43"/>
<polygon fill="#63b8ff" stroke="#63b8ff" points="910.83,-108.24 920.46,-112.64 915.67,-103.19 910.83,-108.24"/>
</a>
</g>
</g>
<!-- Node3 -->
<g id="Node000003" class="node">
<title>Node3</title>
<g id="a_Node000003"><a xlink:href="shop_8c.html#ad1ea096e4fe280946f862273fc94eb30" target="_top" xlink:title="Affiche shop et met a jour les elements visuels associes.">
<polygon fill="white" stroke="#666666" points="678,-260 604.25,-260 604.25,-240 678,-240 678,-260"/>
<text xml:space="preserve" text-anchor="middle" x="641.12" y="-246.5" font-family="Helvetica,sans-Serif" font-size="10.00">afficher_shop</text>
</a>
</g>
</g>
<!-- Node2&#45;&gt;Node3 -->
<g id="edge2_Node000002_Node000003" class="edge">
<title>Node2&#45;&gt;Node3</title>
<g id="a_edge2_Node000002_Node000003"><a xlink:title=" ">
<path fill="none" stroke="#63b8ff" d="M758.89,-247.9C732.96,-248.37 701.92,-248.93 678.36,-249.35"/>
<polygon fill="#63b8ff" stroke="#63b8ff" points="758.94,-251.4 768.88,-247.72 758.82,-244.4 758.94,-251.4"/>
</a>
</g>
</g>
<!-- Node4 -->
<g id="Node000004" class="node">
<title>Node4</title>
<g id="a_Node000004"><a xlink:href="vaisseau_8c.html#ace614afc8df3a40bd5ea0771044ff217" target="_top" xlink:title=" ">
<polygon fill="white" stroke="#666666" points="532.25,-260 418,-260 418,-240 532.25,-240 532.25,-260"/>
<text xml:space="preserve" text-anchor="middle" x="475.12" y="-246.5" font-family="Helvetica,sans-Serif" font-size="10.00">gerer_interaction_objet</text>
</a>
</g>
</g>
<!-- Node3&#45;&gt;Node4 -->
<g id="edge3_Node000003_Node000004" class="edge">
<title>Node3&#45;&gt;Node4</title>
<g id="a_edge3_Node000003_Node000004"><a xlink:title=" ">
<path fill="none" stroke="#63b8ff" d="M592.86,-250C574.07,-250 552.28,-250 532.66,-250"/>
<polygon fill="#63b8ff" stroke="#63b8ff" points="592.62,-253.5 602.62,-250 592.62,-246.5 592.62,-253.5"/>
</a>
</g>
</g>
<!-- Node5 -->
<g id="Node000005" class="node">
<title>Node5</title>
<g id="a_Node000005"><a xlink:href="vaisseau_8c.html#a8ea9afc9440149ddd36e96b97d8ed6c5" target="_top" xlink:title="Lance la scene interieure du vaisseau (deplacement, interactions, mini&#45;jeux, sortie).">
<polygon fill="white" stroke="#666666" points="382,-279 327,-279 327,-259 382,-259 382,-279"/>
<text xml:space="preserve" text-anchor="middle" x="354.5" y="-265.5" font-family="Helvetica,sans-Serif" font-size="10.00">vaisseau</text>
</a>
</g>
</g>
<!-- Node4&#45;&gt;Node5 -->
<g id="edge4_Node000004_Node000005" class="edge">
<title>Node4&#45;&gt;Node5</title>
<g id="a_edge4_Node000004_Node000005"><a xlink:title=" ">
<path fill="none" stroke="#63b8ff" d="M406.37,-260.85C397.89,-262.21 389.65,-263.53 382.35,-264.7"/>
<polygon fill="#63b8ff" stroke="#63b8ff" points="406.78,-264.33 416.1,-259.29 405.67,-257.42 406.78,-264.33"/>
</a>
</g>
</g>
<!-- Node6 -->
<g id="Node000006" class="node">
<title>Node6</title>
<g id="a_Node000006"><a xlink:href="cinematique_8c.html#a418cc3e727578f4cd509ad27cd6a2a31" target="_top" xlink:title="Lance cinematique fin et gere son deroulement complet.">
<polygon fill="white" stroke="#666666" points="291,-279 180.5,-279 180.5,-259 291,-259 291,-279"/>
<text xml:space="preserve" text-anchor="middle" x="235.75" y="-265.5" font-family="Helvetica,sans-Serif" font-size="10.00">jouer_cinematique_fin</text>
</a>
</g>
</g>
<!-- Node5&#45;&gt;Node6 -->
<g id="edge5_Node000005_Node000006" class="edge">
<title>Node5&#45;&gt;Node6</title>
<g id="a_edge5_Node000005_Node000006"><a xlink:title=" ">
<path fill="none" stroke="#63b8ff" d="M315.4,-269C307.61,-269 299.28,-269 291.05,-269"/>
<polygon fill="#63b8ff" stroke="#63b8ff" points="315.2,-272.5 325.2,-269 315.2,-265.5 315.2,-272.5"/>
</a>
</g>
</g>
<!-- Node8 -->
<g id="Node000008" class="node">
<title>Node8</title>
<g id="a_Node000008"><a xlink:href="main_8c.html#a0ddf1224851353fc92bfbff6f499fa97" target="_top" xlink:title=" ">
<polygon fill="white" stroke="#666666" points="37,-222 0,-222 0,-202 37,-202 37,-222"/>
<text xml:space="preserve" text-anchor="middle" x="18.5" y="-208.5" font-family="Helvetica,sans-Serif" font-size="10.00">main</text>
</a>
</g>
</g>
<!-- Node5&#45;&gt;Node8 -->
<g id="edge9_Node000005_Node000008" class="edge">
<title>Node5&#45;&gt;Node8</title>
<g id="a_edge9_Node000005_Node000008"><a xlink:title=" ">
<path fill="none" stroke="#63b8ff" d="M315.58,-282.47C307.57,-284.77 299.08,-286.8 291,-288 242.42,-295.22 228.9,-296.3 180.5,-288 130.55,-279.43 117.98,-273.34 73,-250 58.03,-242.23 42.49,-230.75 32.04,-222.44"/>
<polygon fill="#63b8ff" stroke="#63b8ff" points="316.55,-285.84 325.07,-279.55 314.49,-279.15 316.55,-285.84"/>
</a>
</g>
</g>
<!-- Node7 -->
<g id="Node000007" class="node">
<title>Node7</title>
<g id="a_Node000007"><a xlink:href="map_8c.html#ad462ccdd50801fb085dc8134fc3765d1" target="_top" xlink:title="Affiche la carte et met a jour les elements visuels associes.">
<polygon fill="white" stroke="#666666" points="144.5,-241 73,-241 73,-221 144.5,-221 144.5,-241"/>
<text xml:space="preserve" text-anchor="middle" x="108.75" y="-227.5" font-family="Helvetica,sans-Serif" font-size="10.00">afficher_map</text>
</a>
</g>
</g>
<!-- Node6&#45;&gt;Node7 -->
<g id="edge6_Node000006_Node000007" class="edge">
<title>Node6&#45;&gt;Node7</title>
<g id="a_edge6_Node000006_Node000007"><a xlink:title=" ">
<path fill="none" stroke="#63b8ff" d="M189.65,-255.29C174.64,-250.73 158.18,-245.72 144.13,-241.45"/>
<polygon fill="#63b8ff" stroke="#63b8ff" points="188.23,-258.52 198.81,-258.08 190.26,-251.82 188.23,-258.52"/>
</a>
</g>
</g>
<!-- Node7&#45;&gt;Node4 -->
<g id="edge7_Node000007_Node000004" class="edge">
<title>Node7&#45;&gt;Node4</title>
<g id="a_edge7_Node000007_Node000004"><a xlink:title=" ">
<path fill="none" stroke="#63b8ff" d="M156.33,-233.43C223.07,-236.91 345.75,-243.31 417.59,-247.05"/>
<polygon fill="#63b8ff" stroke="#63b8ff" points="156.62,-229.94 146.45,-232.91 156.25,-236.93 156.62,-229.94"/>
</a>
</g>
</g>
<!-- Node7&#45;&gt;Node8 -->
<g id="edge8_Node000007_Node000008" class="edge">
<title>Node7&#45;&gt;Node8</title>
<g id="a_edge8_Node000007_Node000008"><a xlink:title=" ">
<path fill="none" stroke="#63b8ff" d="M61.39,-221.02C52.82,-219.17 44.36,-217.35 37.31,-215.83"/>
<polygon fill="#63b8ff" stroke="#63b8ff" points="60.63,-224.43 71.14,-223.12 62.1,-217.59 60.63,-224.43"/>
</a>
</g>
</g>
<!-- Node10 -->
<g id="Node000010" class="node">
<title>Node10</title>
<g id="a_Node000010"><a xlink:href="jeux_8c.html#adf6e0b25032f317217a43d1d4a47e08a" target="_top" xlink:title=" ">
<polygon fill="white" stroke="#666666" points="714,-134 568.25,-134 568.25,-114 714,-114 714,-134"/>
<text xml:space="preserve" text-anchor="middle" x="641.12" y="-120.5" font-family="Helvetica,sans-Serif" font-size="10.00">console_executer_commande</text>
</a>
</g>
</g>
<!-- Node9&#45;&gt;Node10 -->
<g id="edge11_Node000009_Node000010" class="edge">
<title>Node9&#45;&gt;Node10</title>
<g id="a_edge11_Node000009_Node000010"><a xlink:title=" ">
<path fill="none" stroke="#63b8ff" d="M744.47,-124C734.62,-124 724.41,-124 714.41,-124"/>
<polygon fill="#63b8ff" stroke="#63b8ff" points="744.31,-127.5 754.31,-124 744.31,-120.5 744.31,-127.5"/>
</a>
</g>
</g>
<!-- Node10&#45;&gt;Node11 -->
<g id="edge12_Node000010_Node000011" class="edge">
<title>Node10&#45;&gt;Node11</title>
<g id="a_edge12_Node000010_Node000011"><a xlink:title=" ">
<path fill="none" stroke="#63b8ff" d="M556.81,-124C540.34,-124 523.94,-124 510.27,-124"/>
<polygon fill="#63b8ff" stroke="#63b8ff" points="556.68,-127.5 566.68,-124 556.68,-120.5 556.68,-127.5"/>
</a>
</g>
</g>
<!-- Node11&#45;&gt;Node8 -->
<g id="edge13_Node000011_Node000008" class="edge">
<title>Node11&#45;&gt;Node8</title>
<g id="a_edge13_Node000011_Node000008"><a xlink:title=" ">
<path fill="none" stroke="#63b8ff" d="M428.21,-124.18C352.13,-125.82 196.09,-134.84 73,-179 58.21,-184.31 43.13,-194.09 32.77,-201.63"/>
<polygon fill="#63b8ff" stroke="#63b8ff" points="428.27,-127.68 438.21,-124.01 428.15,-120.68 428.27,-127.68"/>
</a>
</g>
</g>
<!-- Node12&#45;&gt;Node8 -->
<g id="edge16_Node000012_Node000008" class="edge">
<title>Node12&#45;&gt;Node8</title>
<g id="a_edge16_Node000012_Node000008"><a xlink:title=" ">
<path fill="none" stroke="#63b8ff" d="M583.98,-206.03C526.62,-200.46 434.96,-193 355.5,-193 355.5,-193 355.5,-193 234.75,-193 161.22,-193 74.11,-204.14 37.31,-209.36"/>
<polygon fill="#63b8ff" stroke="#63b8ff" points="583.52,-209.51 593.82,-207.01 584.21,-202.54 583.52,-209.51"/>
</a>
</g>
</g>
<!-- Node12&#45;&gt;Node11 -->
<g id="edge15_Node000012_Node000011" class="edge">
<title>Node12&#45;&gt;Node11</title>
<g id="a_edge15_Node000012_Node000011"><a xlink:title=" ">
<path fill="none" stroke="#63b8ff" d="M584.59,-199.64C578.96,-197.71 573.42,-195.5 568.25,-193 535.87,-177.33 503.48,-149.59 487.1,-134.49"/>
<polygon fill="#63b8ff" stroke="#63b8ff" points="583.42,-202.94 594.01,-202.59 585.51,-196.26 583.42,-202.94"/>
</a>
</g>
</g>
<!-- Node13&#45;&gt;Node11 -->
<g id="edge19_Node000013_Node000011" class="edge">
<title>Node13&#45;&gt;Node11</title>
<g id="a_edge19_Node000013_Node000011"><a xlink:title=" ">
<path fill="none" stroke="#63b8ff" d="M747.6,-3.23C697.03,-0.32 624.77,-2.41 568.25,-29 527.71,-48.07 495.48,-93.21 482.42,-113.64"/>
<polygon fill="#63b8ff" stroke="#63b8ff" points="747.28,-6.72 757.5,-3.89 747.75,0.27 747.28,-6.72"/>
</a>
</g>
</g>
<!-- Node15 -->
<g id="Node000015" class="node">
<title>Node15</title>
<g id="a_Node000015"><a xlink:href="sauvegarde_8c.html#a749dc51944352ce977ead8fb8ceca1cc" target="_top" xlink:title="Applique a l&#39;etat global les donnees precedemment chargees si presentes.">
<polygon fill="white" stroke="#666666" points="696.38,-184 585.88,-184 585.88,-152 696.38,-152 696.38,-184"/>
<text xml:space="preserve" text-anchor="start" x="593.88" y="-170.5" font-family="Helvetica,sans-Serif" font-size="10.00">sauvegarde_appliquer</text>
<text xml:space="preserve" text-anchor="middle" x="641.12" y="-158.5" font-family="Helvetica,sans-Serif" font-size="10.00">_si_disponible</text>
</a>
</g>
</g>
<!-- Node14&#45;&gt;Node15 -->
<g id="edge21_Node000014_Node000015" class="edge">
<title>Node14&#45;&gt;Node15</title>
<g id="a_edge21_Node000014_Node000015"><a xlink:title=" ">
<path fill="none" stroke="#63b8ff" d="M738.28,-166.27C724.41,-166.52 710.06,-166.78 696.82,-167.02"/>
<polygon fill="#63b8ff" stroke="#63b8ff" points="738.33,-169.77 748.26,-166.09 738.2,-162.77 738.33,-169.77"/>
</a>
</g>
</g>
<!-- Node15&#45;&gt;Node11 -->
<g id="edge22_Node000015_Node000011" class="edge">
<title>Node15&#45;&gt;Node11</title>
<g id="a_edge22_Node000015_Node000011"><a xlink:title=" ">
<path fill="none" stroke="#63b8ff" d="M574.56,-150.41C552.62,-144.52 529.03,-138.19 510.45,-133.21"/>
<polygon fill="#63b8ff" stroke="#63b8ff" points="573.49,-153.75 584.05,-152.96 575.3,-146.98 573.49,-153.75"/>
</a>
</g>
</g>
<!-- Node17 -->
<g id="Node000017" class="node">
<title>Node17</title>
<g id="a_Node000017"><a xlink:href="perso_8c.html#a13de525da0f522f0738bde93c1d62255" target="_top" xlink:title="Met a jour combat en fonction de l&#39;etat courant du jeu.">
<polygon fill="white" stroke="#666666" points="682.5,-58 599.75,-58 599.75,-38 682.5,-38 682.5,-58"/>
<text xml:space="preserve" text-anchor="middle" x="641.12" y="-44.5" font-family="Helvetica,sans-Serif" font-size="10.00">update_combat</text>
</a>
</g>
</g>
<!-- Node16&#45;&gt;Node17 -->
<g id="edge24_Node000016_Node000017" class="edge">
<title>Node16&#45;&gt;Node17</title>
<g id="a_edge24_Node000016_Node000017"><a xlink:title=" ">
<path fill="none" stroke="#63b8ff" d="M739.25,-48C720.05,-48 699.87,-48 682.9,-48"/>
<polygon fill="#63b8ff" stroke="#63b8ff" points="739.2,-51.5 749.2,-48 739.2,-44.5 739.2,-51.5"/>
</a>
</g>
</g>
<!-- Node17&#45;&gt;Node11 -->
<g id="edge25_Node000017_Node000011" class="edge">
<title>Node17&#45;&gt;Node11</title>
<g id="a_edge25_Node000017_Node000011"><a xlink:title=" ">
<path fill="none" stroke="#63b8ff" d="M593.81,-62.01C585.2,-65.02 576.37,-68.39 568.25,-72 540.56,-84.3 510.29,-102.35 492.27,-113.62"/>
<polygon fill="#63b8ff" stroke="#63b8ff" points="594.73,-65.39 603.08,-58.88 592.49,-58.76 594.73,-65.39"/>
</a>
</g>
</g>
</g>
</svg>

<g id="navigator" transform="translate(0 0)" fill="#404254">
  <rect fill="#f2f5e9" fill-opacity="0.5" stroke="#606060" stroke-width=".5" x="0" y="0" width="60" height="60"/>
  <use id="zoomplus" xlink:href="#zoomPlus" x="17" y="9" onmousedown="handleZoom(evt,'in')"/>
  <use id="zoomminus" xlink:href="#zoomMin" x="42" y="9" onmousedown="handleZoom(evt,'out')"/>
  <use id="reset" xlink:href="#resetDef" x="30" y="36" onmousedown="handleReset()"/>
   <use id="arrowup" xlink:href="#arrowUp" x="0" y="0" onmousedown="handlePan(0,-1)"/>
  <use id="arrowright" xlink:href="#arrowRight" x="0" y="0" onmousedown="handlePan(1,0)"/>
  <use id="arrowdown" xlink:href="#arrowDown" x="0" y="0" onmousedown="handlePan(0,1)"/>
  <use id="arrowleft" xlink:href="#arrowLeft" x="0" y="0" onmousedown="handlePan(-1,0)"/>
</g>
<svg viewBox="0 0 15 15" width="100%" height="30px" preserveAspectRatio="xMaxYMin meet">
 <g id="arrow_out" transform="scale(0.3 0.3)">
  <a xlink:href="item_8h_ac066d9bc77b421f23ca66756b7ff4a33_icgraph_org.svg" target="_base">
   <rect id="button" ry="5" rx="5" y="6" x="6" height="38" width="38"
        fill="#f2f5e9" fill-opacity="0.5" stroke="#606060" stroke-width="1.0"/>
   <path id="arrow"
     d="M 11.500037,31.436501 C 11.940474,20.09759 22.043105,11.32322 32.158766,21.979434 L 37.068811,17.246167 C 37.068811,17.246167 37.088388,32 37.088388,32 L 22.160133,31.978069 C 22.160133,31.978069 26.997745,27.140456 26.997745,27.140456 C 18.528582,18.264221 13.291696,25.230495 11.500037,31.436501 z"
     style="fill:#404040;"/>
  </a>
 </g>
</svg>

<style type='text/css'>
<![CDATA[
[data-mouse-over-selected='false'] { opacity: 0.7; }
[data-mouse-over-selected='true']  { opacity: 1.0; }
]]>
</style>
<script type="application/ecmascript"><![CDATA[
document.addEventListener('DOMContentLoaded', (event) => {
  highlightEdges();
  highlightAdjacentNodes();
});
]]></script>
</svg>
