<?xml version="1.0" encoding="UTF-8" standalone="no"?>
<!DOCTYPE svg PUBLIC "-//W3C//DTD SVG 1.1//EN"
 "http://www.w3.org/Graphics/SVG/1.1/DTD/svg11.dtd">
<!-- Generated by graphviz version 14.1.4 (20260321.0153)
 -->
<!-- Title: init_item Pages: 1 -->
<svg width="522pt" height="142pt"
 viewBox="0.00 0.00 522.00 142.00" xmlns="http://www.w3.org/2000/svg" xmlns:xlink="http://www.w3.org/1999/xlink">
<g id="graph0" class="graph" transform="scale(1 1) rotate(0) translate(4 138)">
<title>init_item</title>
<!-- Node1 -->
<g id="Node000001" class="node">
<title>Node1</title>
<g id="a_Node000001"><a xlink:title="Initialise item et prepare les ressources necessaires.">
<polygon fill="#999999" stroke="#666666" points="513.5,-77 460.75,-77 460.75,-57 513.5,-57 513.5,-77"/>
<text xml:space="preserve" text-anchor="middle" x="487.12" y="-63.5" font-family="Helvetica,sans-Serif" font-size="10.00">init_item</text>
</a>
</g>
</g>
<!-- Node2 -->
<g id="Node000002" class="node">
<title>Node2</title>
<g id="a_Node000002"><a xlink:href="jeux_8c.html#ae8e5f9cd970d438c5fd8cda2b7286bfd" target="_top" xlink:title="Initialise la caisse a outils et prepare les ressources necessaires.">
<polygon fill="white" stroke="#666666" points="270,-134 179,-134 179,-114 270,-114 270,-134"/>
<text xml:space="preserve" text-anchor="middle" x="224.5" y="-120.5" font-family="Helvetica,sans-Serif" font-size="10.00">init_caisse_outils</text>
</a>
</g>
</g>
<!-- Node1&#45;&gt;Node2 -->
<g id="edge1_Node000001_Node000002" class="edge">
<title>Node1&#45;&gt;Node2</title>
<g id="a_edge1_Node000001_Node000002"><a xlink:title=" ">
<path fill="none" stroke="#63b8ff" d="M461.13,-83.19C450.34,-89.43 437.34,-96.02 424.75,-100 373.43,-116.25 311.48,-121.63 270.43,-123.34"/>
<polygon fill="#63b8ff" stroke="#63b8ff" points="462.66,-86.35 469.4,-78.19 459.03,-80.36 462.66,-86.35"/>
</a>
</g>
</g>
<!-- Node3 -->
<g id="Node000003" class="node">
<title>Node3</title>
<g id="a_Node000003"><a xlink:href="jeux_8c.html#a2d7491d04e8c2bdb52bb6ed7d75e4d78" target="_top" xlink:title="Execute la boucle principale de gameplay pour la planete courante.">
<polygon fill="white" stroke="#666666" points="143,-96 73,-96 73,-76 143,-76 143,-96"/>
<text xml:space="preserve" text-anchor="middle" x="108" y="-82.5" font-family="Helvetica,sans-Serif" font-size="10.00">jeu_principal</text>
</a>
</g>
</g>
<!-- Node1&#45;&gt;Node3 -->
<g id="edge5_Node000001_Node000003" class="edge">
<title>Node1&#45;&gt;Node3</title>
<g id="a_edge5_Node000001_Node000003"><a xlink:title=" ">
<path fill="none" stroke="#63b8ff" d="M449.16,-68.86C376.14,-72.54 214.33,-80.69 143.42,-84.27"/>
<polygon fill="#63b8ff" stroke="#63b8ff" points="449.18,-72.37 458.99,-68.37 448.83,-65.37 449.18,-72.37"/>
</a>
</g>
</g>
<!-- Node5 -->
<g id="Node000005" class="node">
<title>Node5</title>
<g id="a_Node000005"><a xlink:href="boss_8c.html#abbb99b844a32a59c50228b7d6dcb888b" target="_top" xlink:title="Met a jour la logique du boss pour une frame de jeu.">
<polygon fill="white" stroke="#666666" points="416.12,-58 314.62,-58 314.62,-38 416.12,-38 416.12,-58"/>
<text xml:space="preserve" text-anchor="middle" x="365.38" y="-44.5" font-family="Helvetica,sans-Serif" font-size="10.00">mettre_a_jour_boss</text>
</a>
</g>
</g>
<!-- Node1&#45;&gt;Node5 -->
<g id="edge6_Node000001_Node000005" class="edge">
<title>Node1&#45;&gt;Node5</title>
<g id="a_edge6_Node000001_Node000005"><a xlink:title=" ">
<path fill="none" stroke="#63b8ff" d="M449.2,-61.14C438.77,-59.49 427.24,-57.66 416.18,-55.9"/>
<polygon fill="#63b8ff" stroke="#63b8ff" points="448.52,-64.58 458.94,-62.69 449.61,-57.66 448.52,-64.58"/>
</a>
</g>
</g>
<!-- Node6 -->
<g id="Node000006" class="node">
<title>Node6</title>
<g id="a_Node000006"><a xlink:href="perso_8c.html#a8ed2806e634464929c59457d470b930b" target="_top" xlink:title="Evalue les collisions de combat (joueur/mobs/items) pour la frame courante.">
<polygon fill="white" stroke="#666666" points="424.75,-20 306,-20 306,0 424.75,0 424.75,-20"/>
<text xml:space="preserve" text-anchor="middle" x="365.38" y="-6.5" font-family="Helvetica,sans-Serif" font-size="10.00">tester_collision_combat</text>
</a>
</g>
</g>
<!-- Node1&#45;&gt;Node6 -->
<g id="edge8_Node000001_Node000006" class="edge">
<title>Node1&#45;&gt;Node6</title>
<g id="a_edge8_Node000001_Node000006"><a xlink:title=" ">
<path fill="none" stroke="#63b8ff" d="M462.18,-50.32C451.13,-43.11 437.63,-34.98 424.75,-29 417.89,-25.81 410.34,-22.93 403.02,-20.44"/>
<polygon fill="#63b8ff" stroke="#63b8ff" points="460.04,-53.09 470.3,-55.74 463.93,-47.27 460.04,-53.09"/>
</a>
</g>
</g>
<!-- Node2&#45;&gt;Node3 -->
<g id="edge2_Node000002_Node000003" class="edge">
<title>Node2&#45;&gt;Node3</title>
<g id="a_edge2_Node000002_Node000003"><a xlink:title=" ">
<path fill="none" stroke="#63b8ff" d="M180.98,-109.89C167.57,-105.44 152.99,-100.6 140.49,-96.45"/>
<polygon fill="#63b8ff" stroke="#63b8ff" points="179.88,-113.21 190.47,-113.04 182.08,-106.57 179.88,-113.21"/>
</a>
</g>
</g>
<!-- Node4 -->
<g id="Node000004" class="node">
<title>Node4</title>
<g id="a_Node000004"><a xlink:href="main_8c.html#a0ddf1224851353fc92bfbff6f499fa97" target="_top" xlink:title=" ">
<polygon fill="white" stroke="#666666" points="37,-115 0,-115 0,-95 37,-95 37,-115"/>
<text xml:space="preserve" text-anchor="middle" x="18.5" y="-101.5" font-family="Helvetica,sans-Serif" font-size="10.00">main</text>
</a>
</g>
</g>
<!-- Node2&#45;&gt;Node4 -->
<g id="edge4_Node000002_Node000004" class="edge">
<title>Node2&#45;&gt;Node4</title>
<g id="a_edge4_Node000002_Node000004"><a xlink:title=" ">
<path fill="none" stroke="#63b8ff" d="M167.42,-118.78C123.86,-114.72 66.16,-109.35 37.4,-106.67"/>
<polygon fill="#63b8ff" stroke="#63b8ff" points="166.94,-122.25 177.22,-119.69 167.59,-115.28 166.94,-122.25"/>
</a>
</g>
</g>
<!-- Node3&#45;&gt;Node4 -->
<g id="edge3_Node000003_Node000004" class="edge">
<title>Node3&#45;&gt;Node4</title>
<g id="a_edge3_Node000003_Node000004"><a xlink:title=" ">
<path fill="none" stroke="#63b8ff" d="M61.47,-95.89C52.91,-97.75 44.44,-99.58 37.37,-101.12"/>
<polygon fill="#63b8ff" stroke="#63b8ff" points="62.16,-99.32 71.19,-93.78 60.67,-92.48 62.16,-99.32"/>
</a>
</g>
</g>
<!-- Node5&#45;&gt;Node3 -->
<g id="edge7_Node000005_Node000003" class="edge">
<title>Node5&#45;&gt;Node3</title>
<g id="a_edge7_Node000005_Node000003"><a xlink:title=" ">
<path fill="none" stroke="#63b8ff" d="M302.92,-54.88C266.75,-59.2 220.17,-65.23 179,-72 167.38,-73.91 154.75,-76.33 143.45,-78.62"/>
<polygon fill="#63b8ff" stroke="#63b8ff" points="303.25,-58.37 312.77,-53.72 302.43,-51.42 303.25,-58.37"/>
</a>
</g>
</g>
<!-- Node7 -->
<g id="Node000007" class="node">
<title>Node7</title>
<g id="a_Node000007"><a xlink:href="perso_8c.html#a13de525da0f522f0738bde93c1d62255" target="_top" xlink:title="Met a jour combat en fonction de l&#39;etat courant du jeu.">
<polygon fill="white" stroke="#666666" points="265.88,-20 183.12,-20 183.12,0 265.88,0 265.88,-20"/>
<text xml:space="preserve" text-anchor="middle" x="224.5" y="-6.5" font-family="Helvetica,sans-Serif" font-size="10.00">update_combat</text>
</a>
</g>
</g>
<!-- Node6&#45;&gt;Node7 -->
<g id="edge9_Node000006_Node000007" class="edge">
<title>Node6&#45;&gt;Node7</title>
<g id="a_edge9_Node000006_Node000007"><a xlink:title=" ">
<path fill="none" stroke="#63b8ff" d="M294.54,-10C284.84,-10 275.15,-10 266.23,-10"/>
<polygon fill="#63b8ff" stroke="#63b8ff" points="294.37,-13.5 304.37,-10 294.37,-6.5 294.37,-13.5"/>
</a>
</g>
</g>
<!-- Node7&#45;&gt;Node3 -->
<g id="edge10_Node000007_Node000003" class="edge">
<title>Node7&#45;&gt;Node3</title>
<g id="a_edge10_Node000007_Node000003"><a xlink:title=" ">
<path fill="none" stroke="#63b8ff" d="M192.76,-25.83C188.08,-28.45 183.37,-31.22 179,-34 158.18,-47.25 135.5,-64.71 121.76,-75.64"/>
<polygon fill="#63b8ff" stroke="#63b8ff" points="194.32,-28.96 201.43,-21.11 190.98,-22.81 194.32,-28.96"/>
</a>
</g>
</g>
</g>
</svg>
