<?xml version="1.0" encoding="UTF-8" standalone="no"?>
<!DOCTYPE svg PUBLIC "-//W3C//DTD SVG 1.1//EN"
 "http://www.w3.org/Graphics/SVG/1.1/DTD/svg11.dtd">
<!-- Generated by graphviz version 14.1.4 (20260321.0153)
 -->
<!-- Title: init_caisse_outils Pages: 1 -->
<svg width="252pt" height="66pt"
 viewBox="0.00 0.00 252.00 66.00" xmlns="http://www.w3.org/2000/svg" xmlns:xlink="http://www.w3.org/1999/xlink">
<g id="graph0" class="graph" transform="scale(1 1) rotate(0) translate(4 62)">
<title>init_caisse_outils</title>
<!-- Node1 -->
<g id="Node000001" class="node">
<title>Node1</title>
<g id="a_Node000001"><a xlink:title="Initialise la caisse a outils et prepare les ressources necessaires.">
<polygon fill="#999999" stroke="#666666" points="91,-39 0,-39 0,-19 91,-19 91,-39"/>
<text xml:space="preserve" text-anchor="middle" x="45.5" y="-25.5" font-family="Helvetica,sans-Serif" font-size="10.00">init_caisse_outils</text>
</a>
</g>
</g>
<!-- Node2 -->
<g id="Node000002" class="node">
<title>Node2</title>
<g id="a_Node000002"><a xlink:href="inventaire_8c.html#aaa9a799e47ee7f10a1d1ef1bc3ad559b" target="_top" xlink:title="Ajoute un item dans l&#39;inventaire principal (slot libre ou pile compatible).">
<polygon fill="white" stroke="#666666" points="243.5,-58 127,-58 127,-38 243.5,-38 243.5,-58"/>
<text xml:space="preserve" text-anchor="middle" x="185.25" y="-44.5" font-family="Helvetica,sans-Serif" font-size="10.00">ajouter_item_inventaire</text>
</a>
</g>
</g>
<!-- Node1&#45;&gt;Node2 -->
<g id="edge1_Node000001_Node000002" class="edge">
<title>Node1&#45;&gt;Node2</title>
<g id="a_edge1_Node000001_Node000002"><a xlink:title=" ">
<path fill="none" stroke="#63b8ff" d="M91.22,-35.17C99,-36.24 107.25,-37.38 115.49,-38.52"/>
<polygon fill="#63b8ff" stroke="#63b8ff" points="114.81,-41.95 125.19,-39.85 115.76,-35.02 114.81,-41.95"/>
</a>
</g>
</g>
<!-- Node3 -->
<g id="Node000003" class="node">
<title>Node3</title>
<g id="a_Node000003"><a xlink:href="item_8c.html#ac066d9bc77b421f23ca66756b7ff4a33" target="_top" xlink:title="Initialise item et prepare les ressources necessaires.">
<polygon fill="white" stroke="#666666" points="211.62,-20 158.88,-20 158.88,0 211.62,0 211.62,-20"/>
<text xml:space="preserve" text-anchor="middle" x="185.25" y="-6.5" font-family="Helvetica,sans-Serif" font-size="10.00">init_item</text>
</a>
</g>
</g>
<!-- Node1&#45;&gt;Node3 -->
<g id="edge2_Node000001_Node000003" class="edge">
<title>Node1&#45;&gt;Node3</title>
<g id="a_edge2_Node000001_Node000003"><a xlink:title=" ">
<path fill="none" stroke="#63b8ff" d="M91.22,-22.83C109.35,-20.33 130.03,-17.48 147.29,-15.1"/>
<polygon fill="#63b8ff" stroke="#63b8ff" points="147.68,-18.58 157.11,-13.74 146.73,-11.64 147.68,-18.58"/>
</a>
</g>
</g>
</g>
</svg>
