<?xml version="1.0" encoding="UTF-8" standalone="no"?>
<!DOCTYPE svg PUBLIC "-//W3C//DTD SVG 1.1//EN"
 "http://www.w3.org/Graphics/SVG/1.1/DTD/svg11.dtd">
<!-- Generated by graphviz version 14.1.4 (20260321.0153)
 -->
<!-- Title: console_afficher Pages: 1 -->
<svg width="334pt" height="123pt"
 viewBox="0.00 0.00 334.00 123.00" xmlns="http://www.w3.org/2000/svg" xmlns:xlink="http://www.w3.org/1999/xlink">
<g id="graph0" class="graph" transform="scale(1 1) rotate(0) translate(4 119)">
<title>console_afficher</title>
<!-- Node1 -->
<g id="Node000001" class="node">
<title>Node1</title>
<g id="a_Node000001"><a xlink:title=" ">
<polygon fill="#999999" stroke="#666666" points="86.5,-58 0,-58 0,-38 86.5,-38 86.5,-58"/>
<text xml:space="preserve" text-anchor="middle" x="43.25" y="-44.5" font-family="Helvetica,sans-Serif" font-size="10.00">console_afficher</text>
</a>
</g>
</g>
<!-- Node2 -->
<g id="Node000002" class="node">
<title>Node2</title>
<g id="a_Node000002"><a xlink:href="main_8h.html#a6c672075bc554c92548a916c9501bdb5" target="_top" xlink:title=" ">
<polygon fill="white" stroke="#666666" points="210.5,-115 122.5,-115 122.5,-95 210.5,-95 210.5,-115"/>
<text xml:space="preserve" text-anchor="middle" x="166.5" y="-101.5" font-family="Helvetica,sans-Serif" font-size="10.00">screen_center_x</text>
</a>
</g>
</g>
<!-- Node1&#45;&gt;Node2 -->
<g id="edge1_Node000001_Node000002" class="edge">
<title>Node1&#45;&gt;Node2</title>
<g id="a_edge1_Node000001_Node000002"><a xlink:title=" ">
<path fill="none" stroke="#63b8ff" d="M66.49,-58.45C85.12,-67.21 111.96,-79.83 133,-89.72"/>
<polygon fill="#63b8ff" stroke="#63b8ff" points="131.49,-92.88 142.03,-93.97 134.47,-86.55 131.49,-92.88"/>
</a>
</g>
</g>
<!-- Node3 -->
<g id="Node000003" class="node">
<title>Node3</title>
<g id="a_Node000003"><a xlink:href="main_8h.html#aaaa1e9fcb86ff8e60b297faa7815ad1d" target="_top" xlink:title=" ">
<polygon fill="white" stroke="#666666" points="324.75,-96 248,-96 248,-76 324.75,-76 324.75,-96"/>
<text xml:space="preserve" text-anchor="middle" x="286.38" y="-82.5" font-family="Helvetica,sans-Serif" font-size="10.00">screen_widthf</text>
</a>
</g>
</g>
<!-- Node1&#45;&gt;Node3 -->
<g id="edge6_Node000001_Node000003" class="edge">
<title>Node1&#45;&gt;Node3</title>
<g id="a_edge6_Node000001_Node000003"><a xlink:title=" ">
<path fill="none" stroke="#63b8ff" d="M86.8,-54.71C128.63,-61.3 192.4,-71.35 236.33,-78.27"/>
<polygon fill="#63b8ff" stroke="#63b8ff" points="235.69,-81.71 246.11,-79.81 236.78,-74.8 235.69,-81.71"/>
</a>
</g>
</g>
<!-- Node4 -->
<g id="Node000004" class="node">
<title>Node4</title>
<g id="a_Node000004"><a xlink:href="main_8h.html#a6456affd0d0a21e911b531a5ba25676d" target="_top" xlink:title=" ">
<polygon fill="white" stroke="#666666" points="210.5,-39 122.5,-39 122.5,-19 210.5,-19 210.5,-39"/>
<text xml:space="preserve" text-anchor="middle" x="166.5" y="-25.5" font-family="Helvetica,sans-Serif" font-size="10.00">screen_center_y</text>
</a>
</g>
</g>
<!-- Node1&#45;&gt;Node4 -->
<g id="edge3_Node000001_Node000004" class="edge">
<title>Node1&#45;&gt;Node4</title>
<g id="a_edge3_Node000001_Node000004"><a xlink:title=" ">
<path fill="none" stroke="#63b8ff" d="M87,-41.3C94.78,-40.08 103,-38.79 111.07,-37.53"/>
<polygon fill="#63b8ff" stroke="#63b8ff" points="111.49,-41.01 120.82,-36 110.4,-34.09 111.49,-41.01"/>
</a>
</g>
</g>
<!-- Node5 -->
<g id="Node000005" class="node">
<title>Node5</title>
<g id="a_Node000005"><a xlink:href="main_8h.html#a9b4aefc63ea00e60ec88da19e24e8236" target="_top" xlink:title=" ">
<polygon fill="white" stroke="#666666" points="326.25,-20 246.5,-20 246.5,0 326.25,0 326.25,-20"/>
<text xml:space="preserve" text-anchor="middle" x="286.38" y="-6.5" font-family="Helvetica,sans-Serif" font-size="10.00">screen_heightf</text>
</a>
</g>
</g>
<!-- Node1&#45;&gt;Node5 -->
<g id="edge5_Node000001_Node000005" class="edge">
<title>Node1&#45;&gt;Node5</title>
<g id="a_edge5_Node000001_Node000005"><a xlink:title=" ">
<path fill="none" stroke="#63b8ff" d="M60.23,-37.55C75.51,-28.24 99.54,-15.28 122.5,-10 159.44,-1.51 202.35,-1.91 234.85,-4.22"/>
<polygon fill="#63b8ff" stroke="#63b8ff" points="234.56,-7.7 244.81,-5.02 235.13,-0.73 234.56,-7.7"/>
</a>
</g>
</g>
<!-- Node2&#45;&gt;Node3 -->
<g id="edge2_Node000002_Node000003" class="edge">
<title>Node2&#45;&gt;Node3</title>
<g id="a_edge2_Node000002_Node000003"><a xlink:title=" ">
<path fill="none" stroke="#63b8ff" d="M210.72,-98.03C219.03,-96.69 227.8,-95.28 236.28,-93.91"/>
<polygon fill="#63b8ff" stroke="#63b8ff" points="236.79,-97.38 246.11,-92.33 235.68,-90.47 236.79,-97.38"/>
</a>
</g>
</g>
<!-- Node4&#45;&gt;Node5 -->
<g id="edge4_Node000004_Node000005" class="edge">
<title>Node4&#45;&gt;Node5</title>
<g id="a_edge4_Node000004_Node000005"><a xlink:title=" ">
<path fill="none" stroke="#63b8ff" d="M210.72,-22.03C218.58,-20.77 226.85,-19.43 234.89,-18.14"/>
<polygon fill="#63b8ff" stroke="#63b8ff" points="235.25,-21.62 244.57,-16.58 234.14,-14.71 235.25,-21.62"/>
</a>
</g>
</g>
</g>
</svg>
