<?xml version="1.0" encoding="UTF-8" standalone="no"?>
<!DOCTYPE svg PUBLIC "-//W3C//DTD SVG 1.1//EN"
 "http://www.w3.org/Graphics/SVG/1.1/DTD/svg11.dtd">
<!-- Generated by graphviz version 14.1.4 (20260321.0153)
 -->
<!-- Title: console_ajouter_item Pages: 1 -->
<svg width="254pt" height="66pt"
 viewBox="0.00 0.00 254.00 66.00" xmlns="http://www.w3.org/2000/svg" xmlns:xlink="http://www.w3.org/1999/xlink">
<g id="graph0" class="graph" transform="scale(1 1) rotate(0) translate(4 62)">
<title>console_ajouter_item</title>
<!-- Node1 -->
<g id="Node000001" class="node">
<title>Node1</title>
<g id="a_Node000001"><a xlink:title=" ">
<polygon fill="#999999" stroke="#666666" points="108.25,-39 0,-39 0,-19 108.25,-19 108.25,-39"/>
<text xml:space="preserve" text-anchor="middle" x="54.12" y="-25.5" font-family="Helvetica,sans-Serif" font-size="10.00">console_ajouter_item</text>
</a>
</g>
</g>
<!-- Node2 -->
<g id="Node000002" class="node">
<title>Node2</title>
<g id="a_Node000002"><a xlink:href="inventaire_8c.html#af0bb60f5edfe743f3132d027eaf1bcbb" target="_top" xlink:title="Ajoute un item dans la hotbar (slot libre ou pile compatible).">
<polygon fill="white" stroke="#666666" points="245.75,-58 144.25,-58 144.25,-38 245.75,-38 245.75,-58"/>
<text xml:space="preserve" text-anchor="middle" x="195" y="-44.5" font-family="Helvetica,sans-Serif" font-size="10.00">ajouter_item_hotbar</text>
</a>
</g>
</g>
<!-- Node1&#45;&gt;Node2 -->
<g id="edge1_Node000001_Node000002" class="edge">
<title>Node1&#45;&gt;Node2</title>
<g id="a_edge1_Node000001_Node000002"><a xlink:title=" ">
<path fill="none" stroke="#63b8ff" d="M108.42,-36.29C116.32,-37.37 124.52,-38.49 132.57,-39.6"/>
<polygon fill="#63b8ff" stroke="#63b8ff" points="131.93,-43.04 142.31,-40.93 132.88,-36.11 131.93,-43.04"/>
</a>
</g>
</g>
<!-- Node3 -->
<g id="Node000003" class="node">
<title>Node3</title>
<g id="a_Node000003"><a xlink:href="item_8c.html#ac066d9bc77b421f23ca66756b7ff4a33" target="_top" xlink:title="Initialise item et prepare les ressources necessaires.">
<polygon fill="white" stroke="#666666" points="221.38,-20 168.62,-20 168.62,0 221.38,0 221.38,-20"/>
<text xml:space="preserve" text-anchor="middle" x="195" y="-6.5" font-family="Helvetica,sans-Serif" font-size="10.00">init_item</text>
</a>
</g>
</g>
<!-- Node1&#45;&gt;Node3 -->
<g id="edge2_Node000001_Node000003" class="edge">
<title>Node1&#45;&gt;Node3</title>
<g id="a_edge2_Node000001_Node000003"><a xlink:title=" ">
<path fill="none" stroke="#63b8ff" d="M108.42,-21.71C124.6,-19.5 142.01,-17.11 156.88,-15.08"/>
<polygon fill="#63b8ff" stroke="#63b8ff" points="157.25,-18.56 166.68,-13.74 156.3,-11.63 157.25,-18.56"/>
</a>
</g>
</g>
</g>
</svg>
