<?xml version="1.0" encoding="UTF-8" standalone="no"?>
<!DOCTYPE svg PUBLIC "-//W3C//DTD SVG 1.1//EN"
 "http://www.w3.org/Graphics/SVG/1.1/DTD/svg11.dtd">
<!-- Generated by graphviz version 2.43.0 (0)
 -->
<!-- Title: jeu_set_progression Pages: 1 -->
<svg width="475pt" height="38pt"
 viewBox="0.00 0.00 475.00 38.00" xmlns="http://www.w3.org/2000/svg" xmlns:xlink="http://www.w3.org/1999/xlink">
<g id="graph0" class="graph" transform="scale(1 1) rotate(0) translate(4 34)">
<title>jeu_set_progression</title>
<!-- Node1 -->
<g id="Node000001" class="node">
<title>Node1</title>
<g id="a_Node000001"><a xlink:title="Applique un etat de progression global au gameplay.">
<polygon fill="#999999" stroke="#666666" points="467,-24.5 353,-24.5 353,-5.5 467,-5.5 467,-24.5"/>
<text text-anchor="middle" x="410" y="-12.5" font-family="Helvetica,sans-Serif" font-size="10.00">jeu_set_progression</text>
</a>
</g>
</g>
<!-- Node2 -->
<g id="Node000002" class="node">
<title>Node2</title>
<g id="a_Node000002"><a xlink:href="sauvegarde_8c.html#a749dc51944352ce977ead8fb8ceca1cc" target="_top" xlink:title="Applique a l&#39;etat global les donnees precedemment chargees si presentes.">
<polygon fill="white" stroke="#666666" points="317,-30 192,-30 192,0 317,0 317,-30"/>
<text text-anchor="start" x="200" y="-18" font-family="Helvetica,sans-Serif" font-size="10.00">sauvegarde_appliquer</text>
<text text-anchor="middle" x="254.5" y="-7" font-family="Helvetica,sans-Serif" font-size="10.00">_si_disponible</text>
</a>
</g>
</g>
<!-- Node1&#45;&gt;Node2 -->
<g id="edge1_Node000001_Node000002" class="edge">
<title>Node1&#45;&gt;Node2</title>
<g id="a_edge1_Node000001_Node000002"><a xlink:title=" ">
<path fill="none" stroke="#63b8ff" d="M342.56,-15C334.14,-15 325.55,-15 317.21,-15"/>
<polygon fill="#63b8ff" stroke="#63b8ff" points="342.71,-18.5 352.71,-15 342.71,-11.5 342.71,-18.5"/>
</a>
</g>
</g>
<!-- Node3 -->
<g id="Node000003" class="node">
<title>Node3</title>
<g id="a_Node000003"><a xlink:href="jeux_8c.html#a2d7491d04e8c2bdb52bb6ed7d75e4d78" target="_top" xlink:title="Execute la boucle principale de gameplay pour la planete courante.">
<polygon fill="white" stroke="#666666" points="156,-24.5 77,-24.5 77,-5.5 156,-5.5 156,-24.5"/>
<text text-anchor="middle" x="116.5" y="-12.5" font-family="Helvetica,sans-Serif" font-size="10.00">jeu_principal</text>
</a>
</g>
</g>
<!-- Node2&#45;&gt;Node3 -->
<g id="edge2_Node000002_Node000003" class="edge">
<title>Node2&#45;&gt;Node3</title>
<g id="a_edge2_Node000002_Node000003"><a xlink:title=" ">
<path fill="none" stroke="#63b8ff" d="M181.64,-15C172.93,-15 164.3,-15 156.34,-15"/>
<polygon fill="#63b8ff" stroke="#63b8ff" points="181.87,-18.5 191.87,-15 181.87,-11.5 181.87,-18.5"/>
</a>
</g>
</g>
<!-- Node4 -->
<g id="Node000004" class="node">
<title>Node4</title>
<g id="a_Node000004"><a xlink:href="main_8c.html#a0ddf1224851353fc92bfbff6f499fa97" target="_top" xlink:title=" ">
<polygon fill="white" stroke="#666666" points="41,-24.5 0,-24.5 0,-5.5 41,-5.5 41,-24.5"/>
<text text-anchor="middle" x="20.5" y="-12.5" font-family="Helvetica,sans-Serif" font-size="10.00">main</text>
</a>
</g>
</g>
<!-- Node3&#45;&gt;Node4 -->
<g id="edge3_Node000003_Node000004" class="edge">
<title>Node3&#45;&gt;Node4</title>
<g id="a_edge3_Node000003_Node000004"><a xlink:title=" ">
<path fill="none" stroke="#63b8ff" d="M66.74,-15C57.62,-15 48.59,-15 41.03,-15"/>
<polygon fill="#63b8ff" stroke="#63b8ff" points="67,-18.5 77,-15 67,-11.5 67,-18.5"/>
</a>
</g>
</g>
</g>
</svg>
