<?xml version="1.0" encoding="UTF-8" standalone="no"?>
<!DOCTYPE svg PUBLIC "-//W3C//DTD SVG 1.1//EN"
 "http://www.w3.org/Graphics/SVG/1.1/DTD/svg11.dtd">
<!-- Generated by graphviz version 14.1.4 (20260321.0153)
 -->
<!-- Title: console_executer_commande Pages: 1 -->
<svg width="445pt" height="199pt"
 viewBox="0.00 0.00 445.00 199.00" xmlns="http://www.w3.org/2000/svg" xmlns:xlink="http://www.w3.org/1999/xlink">
<g id="graph0" class="graph" transform="scale(1 1) rotate(0) translate(4 195)">
<title>console_executer_commande</title>
<!-- Node1 -->
<g id="Node000001" class="node">
<title>Node1</title>
<g id="a_Node000001"><a xlink:title=" ">
<polygon fill="#999999" stroke="#666666" points="145.75,-96 0,-96 0,-76 145.75,-76 145.75,-96"/>
<text xml:space="preserve" text-anchor="middle" x="72.88" y="-82.5" font-family="Helvetica,sans-Serif" font-size="10.00">console_executer_commande</text>
</a>
</g>
</g>
<!-- Node2 -->
<g id="Node000002" class="node">
<title>Node2</title>
<g id="a_Node000002"><a xlink:href="jeux_8c.html#a60b2c871a560c8fc440273adde564aed" target="_top" xlink:title=" ">
<polygon fill="white" stroke="#666666" points="294.5,-172 186.25,-172 186.25,-152 294.5,-152 294.5,-172"/>
<text xml:space="preserve" text-anchor="middle" x="240.38" y="-158.5" font-family="Helvetica,sans-Serif" font-size="10.00">console_ajouter_item</text>
</a>
</g>
</g>
<!-- Node1&#45;&gt;Node2 -->
<g id="edge1_Node000001_Node000002" class="edge">
<title>Node1&#45;&gt;Node2</title>
<g id="a_edge1_Node000001_Node000002"><a xlink:title=" ">
<path fill="none" stroke="#63b8ff" d="M91.37,-96.42C112.35,-108.63 148.81,-128.98 181.75,-143 185.61,-144.64 189.67,-146.24 193.76,-147.75"/>
<polygon fill="#63b8ff" stroke="#63b8ff" points="192.57,-151.04 203.17,-151.07 194.9,-144.44 192.57,-151.04"/>
</a>
</g>
</g>
<!-- Node5 -->
<g id="Node000005" class="node">
<title>Node5</title>
<g id="a_Node000005"><a xlink:href="jeux_8c.html#ac37b425563cf243adb0e886968efa930" target="_top" xlink:title=" ">
<polygon fill="white" stroke="#666666" points="297.12,-134 183.62,-134 183.62,-114 297.12,-114 297.12,-134"/>
<text xml:space="preserve" text-anchor="middle" x="240.38" y="-120.5" font-family="Helvetica,sans-Serif" font-size="10.00">console_set_message</text>
</a>
</g>
</g>
<!-- Node1&#45;&gt;Node5 -->
<g id="edge4_Node000001_Node000005" class="edge">
<title>Node1&#45;&gt;Node5</title>
<g id="a_edge4_Node000001_Node000005"><a xlink:title=" ">
<path fill="none" stroke="#63b8ff" d="M119.54,-96.48C139.07,-100.97 162.09,-106.25 182.7,-110.99"/>
<polygon fill="#63b8ff" stroke="#63b8ff" points="181.86,-114.38 192.39,-113.21 183.42,-107.56 181.86,-114.38"/>
</a>
</g>
</g>
<!-- Node6 -->
<g id="Node000006" class="node">
<title>Node6</title>
<g id="a_Node000006"><a xlink:href="main_8h.html#a6c672075bc554c92548a916c9501bdb5" target="_top" xlink:title=" ">
<polygon fill="white" stroke="#666666" points="284.38,-96 196.38,-96 196.38,-76 284.38,-76 284.38,-96"/>
<text xml:space="preserve" text-anchor="middle" x="240.38" y="-82.5" font-family="Helvetica,sans-Serif" font-size="10.00">screen_center_x</text>
</a>
</g>
</g>
<!-- Node1&#45;&gt;Node6 -->
<g id="edge5_Node000001_Node000006" class="edge">
<title>Node1&#45;&gt;Node6</title>
<g id="a_edge5_Node000001_Node000006"><a xlink:title=" ">
<path fill="none" stroke="#63b8ff" d="M145.98,-86C158.92,-86 172.21,-86 184.56,-86"/>
<polygon fill="#63b8ff" stroke="#63b8ff" points="184.56,-89.5 194.56,-86 184.56,-82.5 184.56,-89.5"/>
</a>
</g>
</g>
<!-- Node8 -->
<g id="Node000008" class="node">
<title>Node8</title>
<g id="a_Node000008"><a xlink:href="main_8h.html#a6456affd0d0a21e911b531a5ba25676d" target="_top" xlink:title=" ">
<polygon fill="white" stroke="#666666" points="284.38,-58 196.38,-58 196.38,-38 284.38,-38 284.38,-58"/>
<text xml:space="preserve" text-anchor="middle" x="240.38" y="-44.5" font-family="Helvetica,sans-Serif" font-size="10.00">screen_center_y</text>
</a>
</g>
</g>
<!-- Node1&#45;&gt;Node8 -->
<g id="edge7_Node000001_Node000008" class="edge">
<title>Node1&#45;&gt;Node8</title>
<g id="a_edge7_Node000001_Node000008"><a xlink:title=" ">
<path fill="none" stroke="#63b8ff" d="M119.54,-75.52C139.81,-70.86 163.83,-65.34 185.03,-60.48"/>
<polygon fill="#63b8ff" stroke="#63b8ff" points="185.7,-63.91 194.66,-58.27 184.14,-57.09 185.7,-63.91"/>
</a>
</g>
</g>
<!-- Node10 -->
<g id="Node000010" class="node">
<title>Node10</title>
<g id="a_Node000010"><a xlink:href="main_8c.html#a82958224f33fa21d40f4f7965f8396bc" target="_top" xlink:title="Met a jour screen metrics en fonction de l&#39;etat courant du jeu.">
<polygon fill="white" stroke="#666666" points="299,-20 181.75,-20 181.75,0 299,0 299,-20"/>
<text xml:space="preserve" text-anchor="middle" x="240.38" y="-6.5" font-family="Helvetica,sans-Serif" font-size="10.00">update_screen_metrics</text>
</a>
</g>
</g>
<!-- Node1&#45;&gt;Node10 -->
<g id="edge9_Node000001_Node000010" class="edge">
<title>Node1&#45;&gt;Node10</title>
<g id="a_edge9_Node000001_Node000010"><a xlink:title=" ">
<path fill="none" stroke="#63b8ff" d="M91.37,-75.58C112.35,-63.37 148.81,-43.02 181.75,-29 185.61,-27.36 189.67,-25.76 193.76,-24.25"/>
<polygon fill="#63b8ff" stroke="#63b8ff" points="194.9,-27.56 203.17,-20.93 192.57,-20.96 194.9,-27.56"/>
</a>
</g>
</g>
<!-- Node3 -->
<g id="Node000003" class="node">
<title>Node3</title>
<g id="a_Node000003"><a xlink:href="inventaire_8c.html#af0bb60f5edfe743f3132d027eaf1bcbb" target="_top" xlink:title="Ajoute un item dans la hotbar (slot libre ou pile compatible).">
<polygon fill="white" stroke="#666666" points="436.5,-191 335,-191 335,-171 436.5,-171 436.5,-191"/>
<text xml:space="preserve" text-anchor="middle" x="385.75" y="-177.5" font-family="Helvetica,sans-Serif" font-size="10.00">ajouter_item_hotbar</text>
</a>
</g>
</g>
<!-- Node2&#45;&gt;Node3 -->
<g id="edge2_Node000002_Node000003" class="edge">
<title>Node2&#45;&gt;Node3</title>
<g id="a_edge2_Node000002_Node000003"><a xlink:title=" ">
<path fill="none" stroke="#63b8ff" d="M294.76,-169.07C304.05,-170.31 313.77,-171.59 323.25,-172.85"/>
<polygon fill="#63b8ff" stroke="#63b8ff" points="322.77,-176.32 333.14,-174.16 323.69,-169.38 322.77,-176.32"/>
</a>
</g>
</g>
<!-- Node4 -->
<g id="Node000004" class="node">
<title>Node4</title>
<g id="a_Node000004"><a xlink:href="item_8c.html#ac066d9bc77b421f23ca66756b7ff4a33" target="_top" xlink:title="Initialise item et prepare les ressources necessaires.">
<polygon fill="white" stroke="#666666" points="412.12,-153 359.38,-153 359.38,-133 412.12,-133 412.12,-153"/>
<text xml:space="preserve" text-anchor="middle" x="385.75" y="-139.5" font-family="Helvetica,sans-Serif" font-size="10.00">init_item</text>
</a>
</g>
</g>
<!-- Node2&#45;&gt;Node4 -->
<g id="edge3_Node000002_Node000004" class="edge">
<title>Node2&#45;&gt;Node4</title>
<g id="a_edge3_Node000002_Node000004"><a xlink:title=" ">
<path fill="none" stroke="#63b8ff" d="M294.76,-154.93C312.44,-152.58 331.72,-150.03 347.88,-147.89"/>
<polygon fill="#63b8ff" stroke="#63b8ff" points="348.07,-151.39 357.52,-146.61 347.15,-144.45 348.07,-151.39"/>
</a>
</g>
</g>
<!-- Node7 -->
<g id="Node000007" class="node">
<title>Node7</title>
<g id="a_Node000007"><a xlink:href="main_8h.html#aaaa1e9fcb86ff8e60b297faa7815ad1d" target="_top" xlink:title=" ">
<polygon fill="white" stroke="#666666" points="424.12,-96 347.38,-96 347.38,-76 424.12,-76 424.12,-96"/>
<text xml:space="preserve" text-anchor="middle" x="385.75" y="-82.5" font-family="Helvetica,sans-Serif" font-size="10.00">screen_widthf</text>
</a>
</g>
</g>
<!-- Node6&#45;&gt;Node7 -->
<g id="edge6_Node000006_Node000007" class="edge">
<title>Node6&#45;&gt;Node7</title>
<g id="a_edge6_Node000006_Node000007"><a xlink:title=" ">
<path fill="none" stroke="#63b8ff" d="M284.78,-86C300.99,-86 319.49,-86 336.13,-86"/>
<polygon fill="#63b8ff" stroke="#63b8ff" points="335.8,-89.5 345.8,-86 335.8,-82.5 335.8,-89.5"/>
</a>
</g>
</g>
<!-- Node9 -->
<g id="Node000009" class="node">
<title>Node9</title>
<g id="a_Node000009"><a xlink:href="main_8h.html#a9b4aefc63ea00e60ec88da19e24e8236" target="_top" xlink:title=" ">
<polygon fill="white" stroke="#666666" points="425.62,-58 345.88,-58 345.88,-38 425.62,-38 425.62,-58"/>
<text xml:space="preserve" text-anchor="middle" x="385.75" y="-44.5" font-family="Helvetica,sans-Serif" font-size="10.00">screen_heightf</text>
</a>
</g>
</g>
<!-- Node8&#45;&gt;Node9 -->
<g id="edge8_Node000008_Node000009" class="edge">
<title>Node8&#45;&gt;Node9</title>
<g id="a_edge8_Node000008_Node000009"><a xlink:title=" ">
<path fill="none" stroke="#63b8ff" d="M284.78,-48C300.3,-48 317.93,-48 334.01,-48"/>
<polygon fill="#63b8ff" stroke="#63b8ff" points="333.88,-51.5 343.88,-48 333.88,-44.5 333.88,-51.5"/>
</a>
</g>
</g>
</g>
</svg>
