<?xml version="1.0" encoding="UTF-8" standalone="no"?>
<!DOCTYPE svg PUBLIC "-//W3C//DTD SVG 1.1//EN"
 "http://www.w3.org/Graphics/SVG/1.1/DTD/svg11.dtd">
<!-- Generated by graphviz version 14.1.4 (20260321.0153)
 -->
<!-- Title: src/main.c Pages: 1 -->
<svg width="1668pt" height="196pt"
 viewBox="0.00 0.00 1668.00 196.00" xmlns="http://www.w3.org/2000/svg" xmlns:xlink="http://www.w3.org/1999/xlink">
<g id="graph0" class="graph" transform="scale(1 1) rotate(0) translate(4 192)">
<title>src/main.c</title>
<!-- Node1 -->
<g id="Node000001" class="node">
<title>Node1</title>
<g id="a_Node000001"><a xlink:title="Point d&#39;entree du jeu et orchestration globale des ecrans.">
<polygon fill="#999999" stroke="#666666" points="455.32,-188 393.57,-188 393.57,-168 455.32,-168 455.32,-188"/>
<text xml:space="preserve" text-anchor="middle" x="424.44" y="-174.5" font-family="Helvetica,sans-Serif" font-size="10.00">src/main.c</text>
</a>
</g>
</g>
<!-- Node2 -->
<g id="Node000002" class="node">
<title>Node2</title>
<g id="a_Node000002"><a xlink:title=" ">
<polygon fill="#e0e0e0" stroke="#999999" points="961.19,-20 889.69,-20 889.69,0 961.19,0 961.19,-20"/>
<text xml:space="preserve" text-anchor="middle" x="925.44" y="-6.5" font-family="Helvetica,sans-Serif" font-size="10.00">SDL3/SDL.h</text>
</a>
</g>
</g>
<!-- Node1&#45;&gt;Node2 -->
<g id="edge1_Node000001_Node000002" class="edge">
<title>Node1&#45;&gt;Node2</title>
<g id="a_edge1_Node000001_Node000002"><a xlink:title=" ">
<path fill="none" stroke="#63b8ff" d="M455.57,-176.58C627.02,-173.98 1451.29,-157.26 1525.44,-76 1597.98,3.49 1151.75,-28.07 1044.44,-20 1020.89,-18.23 994.71,-16.25 972.92,-14.6"/>
<polygon fill="#63b8ff" stroke="#63b8ff" points="973.38,-11.12 963.14,-13.86 972.85,-18.1 973.38,-11.12"/>
</a>
</g>
</g>
<!-- Node3 -->
<g id="Node000003" class="node">
<title>Node3</title>
<g id="a_Node000003"><a xlink:title=" ">
<polygon fill="#e0e0e0" stroke="#999999" points="117.32,-132 19.57,-132 19.57,-112 117.32,-112 117.32,-132"/>
<text xml:space="preserve" text-anchor="middle" x="68.44" y="-118.5" font-family="Helvetica,sans-Serif" font-size="10.00">SDL3/SDL_main.h</text>
</a>
</g>
</g>
<!-- Node1&#45;&gt;Node3 -->
<g id="edge2_Node000001_Node000003" class="edge">
<title>Node1&#45;&gt;Node3</title>
<g id="a_edge2_Node000001_Node000003"><a xlink:title=" ">
<path fill="none" stroke="#63b8ff" d="M393.16,-172.26C334.18,-163.31 205.58,-143.8 129.1,-132.2"/>
<polygon fill="#63b8ff" stroke="#63b8ff" points="129.66,-128.75 119.25,-130.71 128.61,-135.67 129.66,-128.75"/>
</a>
</g>
</g>
<!-- Node4 -->
<g id="Node000004" class="node">
<title>Node4</title>
<g id="a_Node000004"><a xlink:title=" ">
<polygon fill="#e0e0e0" stroke="#999999" points="744.69,-20 610.19,-20 610.19,0 744.69,0 744.69,-20"/>
<text xml:space="preserve" text-anchor="middle" x="677.44" y="-6.5" font-family="Helvetica,sans-Serif" font-size="10.00">SDL3_image/SDL_image.h</text>
</a>
</g>
</g>
<!-- Node1&#45;&gt;Node4 -->
<g id="edge3_Node000001_Node000004" class="edge">
<title>Node1&#45;&gt;Node4</title>
<g id="a_edge3_Node000001_Node000004"><a xlink:title=" ">
<path fill="none" stroke="#63b8ff" d="M393.29,-170.48C309.1,-152.19 85.87,-98.92 125.44,-56 156.81,-21.97 453.23,-13.67 598.27,-11.65"/>
<polygon fill="#63b8ff" stroke="#63b8ff" points="598.25,-15.15 608.2,-11.52 598.16,-8.15 598.25,-15.15"/>
</a>
</g>
</g>
<!-- Node5 -->
<g id="Node000005" class="node">
<title>Node5</title>
<g id="a_Node000005"><a xlink:title=" ">
<polygon fill="#e0e0e0" stroke="#999999" points="1153.44,-20 1053.44,-20 1053.44,0 1153.44,0 1153.44,-20"/>
<text xml:space="preserve" text-anchor="middle" x="1103.44" y="-6.5" font-family="Helvetica,sans-Serif" font-size="10.00">SDL3_ttf/SDL_ttf.h</text>
</a>
</g>
</g>
<!-- Node1&#45;&gt;Node5 -->
<g id="edge4_Node000001_Node000005" class="edge">
<title>Node1&#45;&gt;Node5</title>
<g id="a_edge4_Node000001_Node000005"><a xlink:title=" ">
<path fill="none" stroke="#63b8ff" d="M455.72,-177.04C639.87,-176.96 1577.22,-171.83 1655.44,-76 1661.06,-69.11 1661.47,-62.54 1655.44,-56 1622.75,-20.54 1302.19,-13.02 1165.11,-11.43"/>
<polygon fill="#63b8ff" stroke="#63b8ff" points="1165.15,-7.93 1155.12,-11.32 1165.08,-14.93 1165.15,-7.93"/>
</a>
</g>
</g>
<!-- Node6 -->
<g id="Node000006" class="node">
<title>Node6</title>
<g id="a_Node000006"><a xlink:title=" ">
<polygon fill="#e0e0e0" stroke="#999999" points="221.44,-20 91.44,-20 91.44,0 221.44,0 221.44,-20"/>
<text xml:space="preserve" text-anchor="middle" x="156.44" y="-6.5" font-family="Helvetica,sans-Serif" font-size="10.00">SDL3_mixer/SDL_mixer.h</text>
</a>
</g>
</g>
<!-- Node1&#45;&gt;Node6 -->
<g id="edge5_Node000001_Node000006" class="edge">
<title>Node1&#45;&gt;Node6</title>
<g id="a_edge5_Node000001_Node000006"><a xlink:title=" ">
<path fill="none" stroke="#63b8ff" d="M393.25,-175.96C301.27,-172.58 35.94,-160.42 10.44,-132 -29.54,-87.43 60.98,-45.12 116.75,-24.35"/>
<polygon fill="#63b8ff" stroke="#63b8ff" points="117.76,-27.71 125.97,-21.01 115.38,-21.13 117.76,-27.71"/>
</a>
</g>
</g>
<!-- Node7 -->
<g id="Node000007" class="node">
<title>Node7</title>
<g id="a_Node000007"><a xlink:href="main_8h.html" target="_top" xlink:title="Declarations globales et utilitaires partages entre les modules du jeu.">
<polygon fill="white" stroke="#666666" points="814.82,-132 732.07,-132 732.07,-112 814.82,-112 814.82,-132"/>
<text xml:space="preserve" text-anchor="middle" x="773.44" y="-118.5" font-family="Helvetica,sans-Serif" font-size="10.00">headers/main.h</text>
</a>
</g>
</g>
<!-- Node1&#45;&gt;Node7 -->
<g id="edge6_Node000001_Node000007" class="edge">
<title>Node1&#45;&gt;Node7</title>
<g id="a_edge6_Node000001_Node000007"><a xlink:title=" ">
<path fill="none" stroke="#63b8ff" d="M455.72,-172.16C515.51,-162.91 646.63,-142.62 720.38,-131.21"/>
<polygon fill="#63b8ff" stroke="#63b8ff" points="720.85,-134.68 730.2,-129.69 719.78,-127.76 720.85,-134.68"/>
</a>
</g>
</g>
<!-- Node7&#45;&gt;Node2 -->
<g id="edge7_Node000007_Node000002" class="edge">
<title>Node7&#45;&gt;Node2</title>
<g id="a_edge7_Node000007_Node000002"><a xlink:title=" ">
<path fill="none" stroke="#63b8ff" d="M814.93,-120.18C925.1,-117.58 1218.59,-107.72 1247.44,-76 1253.42,-69.42 1253.28,-62.71 1247.44,-56 1229.71,-35.61 1058.33,-20.55 973.1,-14.25"/>
<polygon fill="#63b8ff" stroke="#63b8ff" points="973.4,-10.76 963.17,-13.53 972.89,-17.74 973.4,-10.76"/>
</a>
</g>
</g>
<!-- Node7&#45;&gt;Node4 -->
<g id="edge8_Node000007_Node000004" class="edge">
<title>Node7&#45;&gt;Node4</title>
<g id="a_edge8_Node000007_Node000004"><a xlink:title=" ">
<path fill="none" stroke="#63b8ff" d="M731.73,-118.82C641.61,-113.7 435.17,-99.49 414.44,-76 408.56,-69.34 408.71,-62.79 414.44,-56 437.68,-28.45 529.82,-17.77 598.52,-13.62"/>
<polygon fill="#63b8ff" stroke="#63b8ff" points="598.46,-17.13 608.25,-13.08 598.07,-10.14 598.46,-17.13"/>
</a>
</g>
</g>
<!-- Node7&#45;&gt;Node6 -->
<g id="edge10_Node000007_Node000006" class="edge">
<title>Node7&#45;&gt;Node6</title>
<g id="a_edge10_Node000007_Node000006"><a xlink:title=" ">
<path fill="none" stroke="#63b8ff" d="M731.61,-121.32C594.75,-121.93 166.74,-120.27 125.44,-76 112.73,-62.37 125.33,-42.58 138.08,-28.42"/>
<polygon fill="#63b8ff" stroke="#63b8ff" points="140.31,-31.14 144.76,-21.52 135.28,-26.27 140.31,-31.14"/>
</a>
</g>
</g>
<!-- Node8 -->
<g id="Node000008" class="node">
<title>Node8</title>
<g id="a_Node000008"><a xlink:title=" ">
<polygon fill="#e0e0e0" stroke="#999999" points="1516.44,-76 1470.44,-76 1470.44,-56 1516.44,-56 1516.44,-76"/>
<text xml:space="preserve" text-anchor="middle" x="1493.44" y="-62.5" font-family="Helvetica,sans-Serif" font-size="10.00">math.h</text>
</a>
</g>
</g>
<!-- Node7&#45;&gt;Node8 -->
<g id="edge9_Node000007_Node000008" class="edge">
<title>Node7&#45;&gt;Node8</title>
<g id="a_edge9_Node000007_Node000008"><a xlink:title=" ">
<path fill="none" stroke="#63b8ff" d="M815.29,-121.29C921.59,-121.38 1210.65,-117.62 1459.1,-76.04"/>
<polygon fill="#63b8ff" stroke="#63b8ff" points="1459.39,-79.54 1468.66,-74.41 1458.21,-72.64 1459.39,-79.54"/>
</a>
</g>
</g>
<!-- Node9 -->
<g id="Node000009" class="node">
<title>Node9</title>
<g id="a_Node000009"><a xlink:title=" ">
<polygon fill="#e0e0e0" stroke="#999999" points="302.07,-76 256.82,-76 256.82,-56 302.07,-56 302.07,-76"/>
<text xml:space="preserve" text-anchor="middle" x="279.44" y="-62.5" font-family="Helvetica,sans-Serif" font-size="10.00">stdio.h</text>
</a>
</g>
</g>
<!-- Node7&#45;&gt;Node9 -->
<g id="edge11_Node000007_Node000009" class="edge">
<title>Node7&#45;&gt;Node9</title>
<g id="a_edge11_Node000007_Node000009"><a xlink:title=" ">
<path fill="none" stroke="#63b8ff" d="M731.57,-119.53C651.73,-116.18 472.21,-105.94 313.27,-76.24"/>
<polygon fill="#63b8ff" stroke="#63b8ff" points="314.31,-72.88 303.84,-74.45 313.01,-79.76 314.31,-72.88"/>
</a>
</g>
</g>
<!-- Node10 -->
<g id="Node000010" class="node">
<title>Node10</title>
<g id="a_Node000010"><a xlink:title=" ">
<polygon fill="#e0e0e0" stroke="#999999" points="367.19,-76 319.69,-76 319.69,-56 367.19,-56 367.19,-76"/>
<text xml:space="preserve" text-anchor="middle" x="343.44" y="-62.5" font-family="Helvetica,sans-Serif" font-size="10.00">stdlib.h</text>
</a>
</g>
</g>
<!-- Node7&#45;&gt;Node10 -->
<g id="edge12_Node000007_Node000010" class="edge">
<title>Node7&#45;&gt;Node10</title>
<g id="a_edge12_Node000007_Node000010"><a xlink:title=" ">
<path fill="none" stroke="#63b8ff" d="M731.73,-117.84C659.84,-112.04 508.13,-98.19 381.44,-76 380.45,-75.83 379.44,-75.64 378.43,-75.45"/>
<polygon fill="#63b8ff" stroke="#63b8ff" points="379.46,-72.09 368.96,-73.46 378.02,-78.94 379.46,-72.09"/>
</a>
</g>
</g>
<!-- Node11 -->
<g id="Node000011" class="node">
<title>Node11</title>
<g id="a_Node000011"><a xlink:href="menu_8h.html" target="_top" xlink:title="Fichier du menu principal et des choix de navigation.">
<polygon fill="white" stroke="#666666" points="1011.57,-76 963.32,-76 963.32,-56 1011.57,-56 1011.57,-76"/>
<text xml:space="preserve" text-anchor="middle" x="987.44" y="-62.5" font-family="Helvetica,sans-Serif" font-size="10.00">menu.h</text>
</a>
</g>
</g>
<!-- Node7&#45;&gt;Node11 -->
<g id="edge13_Node000007_Node000011" class="edge">
<title>Node7&#45;&gt;Node11</title>
<g id="a_edge13_Node000007_Node000011"><a xlink:title=" ">
<path fill="none" stroke="#63b8ff" d="M812.7,-111.51C847.04,-103.15 898.54,-90.47 951.9,-76.62"/>
<polygon fill="#63b8ff" stroke="#63b8ff" points="952.69,-80.03 961.49,-74.13 950.93,-73.26 952.69,-80.03"/>
</a>
</g>
</g>
<!-- Node12 -->
<g id="Node000012" class="node">
<title>Node12</title>
<g id="a_Node000012"><a xlink:href="game__over_8h.html" target="_top" xlink:title="Fichier de l&#39;ecran de fin de partie et des transitions associees.">
<polygon fill="white" stroke="#666666" points="495.57,-76 423.32,-76 423.32,-56 495.57,-56 495.57,-76"/>
<text xml:space="preserve" text-anchor="middle" x="459.44" y="-62.5" font-family="Helvetica,sans-Serif" font-size="10.00">game_over.h</text>
</a>
</g>
</g>
<!-- Node7&#45;&gt;Node12 -->
<g id="edge16_Node000007_Node000012" class="edge">
<title>Node7&#45;&gt;Node12</title>
<g id="a_edge16_Node000007_Node000012"><a xlink:title=" ">
<path fill="none" stroke="#63b8ff" d="M731.9,-114.47C681.21,-106.41 592.62,-92.02 507.01,-76.43"/>
<polygon fill="#63b8ff" stroke="#63b8ff" points="507.73,-73 497.26,-74.64 506.47,-79.89 507.73,-73"/>
</a>
</g>
</g>
<!-- Node13 -->
<g id="Node000013" class="node">
<title>Node13</title>
<g id="a_Node000013"><a xlink:href="jeux_8h.html" target="_top" xlink:title="Fichier de la boucle de jeu principale et de son initialisation.">
<polygon fill="white" stroke="#666666" points="238.57,-76 196.32,-76 196.32,-56 238.57,-56 238.57,-76"/>
<text xml:space="preserve" text-anchor="middle" x="217.44" y="-62.5" font-family="Helvetica,sans-Serif" font-size="10.00">jeux.h</text>
</a>
</g>
</g>
<!-- Node7&#45;&gt;Node13 -->
<g id="edge19_Node000007_Node000013" class="edge">
<title>Node7&#45;&gt;Node13</title>
<g id="a_edge19_Node000007_Node000013"><a xlink:title=" ">
<path fill="none" stroke="#63b8ff" d="M731.79,-120.34C644.12,-118.34 434.11,-110.28 250.18,-76.15"/>
<polygon fill="#63b8ff" stroke="#63b8ff" points="250.9,-72.73 240.43,-74.31 249.6,-79.61 250.9,-72.73"/>
</a>
</g>
</g>
<!-- Node14 -->
<g id="Node000014" class="node">
<title>Node14</title>
<g id="a_Node000014"><a xlink:href="bouton_8h.html" target="_top" xlink:title="Fichier des boutons UI, de leur etat et de la gestion des interactions souris.">
<polygon fill="white" stroke="#666666" points="567.19,-76 513.69,-76 513.69,-56 567.19,-56 567.19,-76"/>
<text xml:space="preserve" text-anchor="middle" x="540.44" y="-62.5" font-family="Helvetica,sans-Serif" font-size="10.00">bouton.h</text>
</a>
</g>
</g>
<!-- Node7&#45;&gt;Node14 -->
<g id="edge23_Node000007_Node000014" class="edge">
<title>Node7&#45;&gt;Node14</title>
<g id="a_edge23_Node000007_Node000014"><a xlink:title=" ">
<path fill="none" stroke="#63b8ff" d="M731.88,-111.76C694.31,-103.36 637.2,-90.44 578.52,-76.46"/>
<polygon fill="#63b8ff" stroke="#63b8ff" points="579.57,-73.11 569.03,-74.19 577.94,-79.92 579.57,-73.11"/>
</a>
</g>
</g>
<!-- Node15 -->
<g id="Node000015" class="node">
<title>Node15</title>
<g id="a_Node000015"><a xlink:href="option_8h.html" target="_top" xlink:title="Fichier de l&#39;ecran d&#39;options et des reglages de jeu.">
<polygon fill="white" stroke="#666666" points="635.69,-76 585.19,-76 585.19,-56 635.69,-56 635.69,-76"/>
<text xml:space="preserve" text-anchor="middle" x="610.44" y="-62.5" font-family="Helvetica,sans-Serif" font-size="10.00">option.h</text>
</a>
</g>
</g>
<!-- Node7&#45;&gt;Node15 -->
<g id="edge26_Node000007_Node000015" class="edge">
<title>Node7&#45;&gt;Node15</title>
<g id="a_edge26_Node000007_Node000015"><a xlink:title=" ">
<path fill="none" stroke="#63b8ff" d="M745.05,-111.59C717.79,-102.56 676.5,-88.88 646.84,-79.06"/>
<polygon fill="#63b8ff" stroke="#63b8ff" points="648.13,-75.8 637.53,-75.97 645.92,-82.44 648.13,-75.8"/>
</a>
</g>
</g>
<!-- Node16 -->
<g id="Node000016" class="node">
<title>Node16</title>
<g id="a_Node000016"><a xlink:href="perso_8h.html" target="_top" xlink:title="Fichier du personnage: deplacement, combat, stats et collisions.">
<polygon fill="white" stroke="#666666" points="701.57,-76 653.32,-76 653.32,-56 701.57,-56 701.57,-76"/>
<text xml:space="preserve" text-anchor="middle" x="677.44" y="-62.5" font-family="Helvetica,sans-Serif" font-size="10.00">perso.h</text>
</a>
</g>
</g>
<!-- Node7&#45;&gt;Node16 -->
<g id="edge29_Node000007_Node000016" class="edge">
<title>Node7&#45;&gt;Node16</title>
<g id="a_edge29_Node000007_Node000016"><a xlink:title=" ">
<path fill="none" stroke="#63b8ff" d="M756.72,-111.59C742.22,-103.44 720.97,-91.48 704.12,-82"/>
<polygon fill="#63b8ff" stroke="#63b8ff" points="706.05,-79.07 695.61,-77.22 702.61,-85.17 706.05,-79.07"/>
</a>
</g>
</g>
<!-- Node17 -->
<g id="Node000017" class="node">
<title>Node17</title>
<g id="a_Node000017"><a xlink:href="son_8h.html" target="_top" xlink:title="Fichier audio: musique, effets sonores et etats d&#39;activation.">
<polygon fill="white" stroke="#666666" points="945.44,-76 905.44,-76 905.44,-56 945.44,-56 945.44,-76"/>
<text xml:space="preserve" text-anchor="middle" x="925.44" y="-62.5" font-family="Helvetica,sans-Serif" font-size="10.00">son.h</text>
</a>
</g>
</g>
<!-- Node7&#45;&gt;Node17 -->
<g id="edge32_Node000007_Node000017" class="edge">
<title>Node7&#45;&gt;Node17</title>
<g id="a_edge32_Node000007_Node000017"><a xlink:title=" ">
<path fill="none" stroke="#63b8ff" d="M799.92,-111.59C826.23,-102.25 866.58,-87.91 894.39,-78.03"/>
<polygon fill="#63b8ff" stroke="#63b8ff" points="895.42,-81.38 903.67,-74.73 893.08,-74.78 895.42,-81.38"/>
</a>
</g>
</g>
<!-- Node18 -->
<g id="Node000018" class="node">
<title>Node18</title>
<g id="a_Node000018"><a xlink:href="boss_8h.html" target="_top" xlink:title="API de gestion des boss, de leurs phases et de leurs comportements de combat.">
<polygon fill="white" stroke="#666666" points="765.07,-76 719.82,-76 719.82,-56 765.07,-56 765.07,-76"/>
<text xml:space="preserve" text-anchor="middle" x="742.44" y="-62.5" font-family="Helvetica,sans-Serif" font-size="10.00">boss.h</text>
</a>
</g>
</g>
<!-- Node7&#45;&gt;Node18 -->
<g id="edge37_Node000007_Node000018" class="edge">
<title>Node7&#45;&gt;Node18</title>
<g id="a_edge37_Node000007_Node000018"><a xlink:title=" ">
<path fill="none" stroke="#63b8ff" d="M768.04,-111.59C764,-104.55 758.33,-94.67 753.35,-86"/>
<polygon fill="#63b8ff" stroke="#63b8ff" points="756.55,-84.54 748.53,-77.61 750.48,-88.03 756.55,-84.54"/>
</a>
</g>
</g>
<!-- Node19 -->
<g id="Node000019" class="node">
<title>Node19</title>
<g id="a_Node000019"><a xlink:href="mob_8h.html" target="_top" xlink:title="Fichier des mobs: creation, mise a jour, rendu et file de respawn.">
<polygon fill="white" stroke="#666666" points="825.94,-76 782.94,-76 782.94,-56 825.94,-56 825.94,-76"/>
<text xml:space="preserve" text-anchor="middle" x="804.44" y="-62.5" font-family="Helvetica,sans-Serif" font-size="10.00">mob.h</text>
</a>
</g>
</g>
<!-- Node7&#45;&gt;Node19 -->
<g id="edge40_Node000007_Node000019" class="edge">
<title>Node7&#45;&gt;Node19</title>
<g id="a_edge40_Node000007_Node000019"><a xlink:title=" ">
<path fill="none" stroke="#63b8ff" d="M778.84,-111.59C782.89,-104.55 788.56,-94.67 793.53,-86"/>
<polygon fill="#63b8ff" stroke="#63b8ff" points="796.41,-88.03 798.35,-77.61 790.34,-84.54 796.41,-88.03"/>
</a>
</g>
</g>
<!-- Node20 -->
<g id="Node000020" class="node">
<title>Node20</title>
<g id="a_Node000020"><a xlink:href="vaisseau_8h.html" target="_top" xlink:title="Fichier de la scene vaisseau, des interactions et du retour en planete.">
<polygon fill="white" stroke="#666666" points="1358.07,-76 1294.82,-76 1294.82,-56 1358.07,-56 1358.07,-76"/>
<text xml:space="preserve" text-anchor="middle" x="1326.44" y="-62.5" font-family="Helvetica,sans-Serif" font-size="10.00">vaisseau.h</text>
</a>
</g>
</g>
<!-- Node7&#45;&gt;Node20 -->
<g id="edge43_Node000007_Node000020" class="edge">
<title>Node7&#45;&gt;Node20</title>
<g id="a_edge43_Node000007_Node000020"><a xlink:title=" ">
<path fill="none" stroke="#63b8ff" d="M815.01,-118.79C901.81,-113.85 1108.52,-100.38 1280.44,-76 1281.29,-75.88 1282.14,-75.75 1283,-75.62"/>
<polygon fill="#63b8ff" stroke="#63b8ff" points="1283.57,-79.08 1292.85,-73.97 1282.41,-72.18 1283.57,-79.08"/>
</a>
</g>
</g>
<!-- Node21 -->
<g id="Node000021" class="node">
<title>Node21</title>
<g id="a_Node000021"><a xlink:href="map_8h.html" target="_top" xlink:title="Fichier de navigation carte et de gestion des ressources cartographiques.">
<polygon fill="white" stroke="#666666" points="177.94,-76 134.94,-76 134.94,-56 177.94,-56 177.94,-76"/>
<text xml:space="preserve" text-anchor="middle" x="156.44" y="-62.5" font-family="Helvetica,sans-Serif" font-size="10.00">map.h</text>
</a>
</g>
</g>
<!-- Node7&#45;&gt;Node21 -->
<g id="edge45_Node000007_Node000021" class="edge">
<title>Node7&#45;&gt;Node21</title>
<g id="a_edge45_Node000007_Node000021"><a xlink:title=" ">
<path fill="none" stroke="#63b8ff" d="M731.86,-120.73C637.1,-119.51 397.84,-112.88 189.48,-75.97"/>
<polygon fill="#63b8ff" stroke="#63b8ff" points="190.28,-72.56 179.81,-74.23 189.03,-79.44 190.28,-72.56"/>
</a>
</g>
</g>
<!-- Node22 -->
<g id="Node000022" class="node">
<title>Node22</title>
<g id="a_Node000022"><a xlink:href="item_8h.html" target="_top" xlink:title="Fichier de creation, d&#39;affichage et de destruction des items.">
<polygon fill="white" stroke="#666666" points="886.94,-76 843.94,-76 843.94,-56 886.94,-56 886.94,-76"/>
<text xml:space="preserve" text-anchor="middle" x="865.44" y="-62.5" font-family="Helvetica,sans-Serif" font-size="10.00">item.h</text>
</a>
</g>
</g>
<!-- Node7&#45;&gt;Node22 -->
<g id="edge49_Node000007_Node000022" class="edge">
<title>Node7&#45;&gt;Node22</title>
<g id="a_edge49_Node000007_Node000022"><a xlink:title=" ">
<path fill="none" stroke="#63b8ff" d="M789.47,-111.59C803.23,-103.51 823.35,-91.71 839.42,-82.27"/>
<polygon fill="#63b8ff" stroke="#63b8ff" points="841.13,-85.33 847.99,-77.25 837.59,-79.29 841.13,-85.33"/>
</a>
</g>
</g>
<!-- Node23 -->
<g id="Node000023" class="node">
<title>Node23</title>
<g id="a_Node000023"><a xlink:href="inventaire_8h.html" target="_top" xlink:title="Fichier de l&#39;inventaire, de la hotbar et des interactions de slots.">
<polygon fill="white" stroke="#666666" points="1095.57,-76 1029.32,-76 1029.32,-56 1095.57,-56 1095.57,-76"/>
<text xml:space="preserve" text-anchor="middle" x="1062.44" y="-62.5" font-family="Helvetica,sans-Serif" font-size="10.00">inventaire.h</text>
</a>
</g>
</g>
<!-- Node7&#45;&gt;Node23 -->
<g id="edge52_Node000007_Node000023" class="edge">
<title>Node7&#45;&gt;Node23</title>
<g id="a_edge52_Node000007_Node000023"><a xlink:title=" ">
<path fill="none" stroke="#63b8ff" d="M815.03,-113.83C861.98,-105.64 940.9,-91.61 1018.11,-76.42"/>
<polygon fill="#63b8ff" stroke="#63b8ff" points="1018.37,-79.93 1027.51,-74.56 1017.02,-73.07 1018.37,-79.93"/>
</a>
</g>
</g>
<!-- Node24 -->
<g id="Node000024" class="node">
<title>Node24</title>
<g id="a_Node000024"><a xlink:href="sauvegarde_8h.html" target="_top" xlink:title="Fichier des slots de sauvegarde et du chargement de progression.">
<polygon fill="white" stroke="#666666" points="1646.69,-76 1572.19,-76 1572.19,-56 1646.69,-56 1646.69,-76"/>
<text xml:space="preserve" text-anchor="middle" x="1609.44" y="-62.5" font-family="Helvetica,sans-Serif" font-size="10.00">sauvegarde.h</text>
</a>
</g>
</g>
<!-- Node7&#45;&gt;Node24 -->
<g id="edge56_Node000007_Node000024" class="edge">
<title>Node7&#45;&gt;Node24</title>
<g id="a_edge56_Node000007_Node000024"><a xlink:title=" ">
<path fill="none" stroke="#63b8ff" d="M815.07,-119.2C928.91,-114.12 1254.99,-98.57 1525.44,-76 1536.84,-75.05 1549.09,-73.84 1560.62,-72.62"/>
<polygon fill="#63b8ff" stroke="#63b8ff" points="1560.77,-76.13 1570.34,-71.57 1560.02,-69.17 1560.77,-76.13"/>
</a>
</g>
</g>
<!-- Node26 -->
<g id="Node000026" class="node">
<title>Node26</title>
<g id="a_Node000026"><a xlink:href="objectifs_8h.html" target="_top" xlink:title="Fichier de suivi des objectifs de quete et de leur affichage.">
<polygon fill="white" stroke="#666666" points="1174.94,-76 1113.94,-76 1113.94,-56 1174.94,-56 1174.94,-76"/>
<text xml:space="preserve" text-anchor="middle" x="1144.44" y="-62.5" font-family="Helvetica,sans-Serif" font-size="10.00">objectifs.h</text>
</a>
</g>
</g>
<!-- Node7&#45;&gt;Node26 -->
<g id="edge59_Node000007_Node000026" class="edge">
<title>Node7&#45;&gt;Node26</title>
<g id="a_edge59_Node000007_Node000026"><a xlink:title=" ">
<path fill="none" stroke="#63b8ff" d="M815.16,-116.5C876.02,-109.67 992.9,-95.61 1102.25,-76.25"/>
<polygon fill="#63b8ff" stroke="#63b8ff" points="1102.77,-79.72 1112,-74.51 1101.54,-72.83 1102.77,-79.72"/>
</a>
</g>
</g>
<!-- Node27 -->
<g id="Node000027" class="node">
<title>Node27</title>
<g id="a_Node000027"><a xlink:href="cinematique_8h.html" target="_top" xlink:title="Fichier des cinematics, des intros et des sequences de credits.">
<polygon fill="white" stroke="#666666" points="1452.82,-76 1376.07,-76 1376.07,-56 1452.82,-56 1452.82,-76"/>
<text xml:space="preserve" text-anchor="middle" x="1414.44" y="-62.5" font-family="Helvetica,sans-Serif" font-size="10.00">cinematique.h</text>
</a>
</g>
</g>
<!-- Node7&#45;&gt;Node27 -->
<g id="edge63_Node000007_Node000027" class="edge">
<title>Node7&#45;&gt;Node27</title>
<g id="a_edge63_Node000007_Node000027"><a xlink:title=" ">
<path fill="none" stroke="#63b8ff" d="M815.02,-119.48C910.39,-115.63 1152.42,-103.9 1364.42,-76.26"/>
<polygon fill="#63b8ff" stroke="#63b8ff" points="1364.81,-79.74 1374.27,-74.96 1363.9,-72.8 1364.81,-79.74"/>
</a>
</g>
</g>
<!-- Node28 -->
<g id="Node000028" class="node">
<title>Node28</title>
<g id="a_Node000028"><a xlink:href="shop_8h.html" target="_top" xlink:title="Fichier de la boutique, des achats et de l&#39;economie joueur.">
<polygon fill="white" stroke="#666666" points="1238.07,-76 1192.82,-76 1192.82,-56 1238.07,-56 1238.07,-76"/>
<text xml:space="preserve" text-anchor="middle" x="1215.44" y="-62.5" font-family="Helvetica,sans-Serif" font-size="10.00">shop.h</text>
</a>
</g>
</g>
<!-- Node7&#45;&gt;Node28 -->
<g id="edge65_Node000007_Node000028" class="edge">
<title>Node7&#45;&gt;Node28</title>
<g id="a_edge65_Node000007_Node000028"><a xlink:title=" ">
<path fill="none" stroke="#63b8ff" d="M815.22,-118.83C887.95,-114.52 1042.58,-103.09 1181.3,-76.34"/>
<polygon fill="#63b8ff" stroke="#63b8ff" points="1181.91,-79.79 1191.04,-74.42 1180.56,-72.92 1181.91,-79.79"/>
</a>
</g>
</g>
<!-- Node11&#45;&gt;Node2 -->
<g id="edge14_Node000011_Node000002" class="edge">
<title>Node11&#45;&gt;Node2</title>
<g id="a_edge14_Node000011_Node000002"><a xlink:title=" ">
<path fill="none" stroke="#63b8ff" d="M976.64,-55.59C967.84,-47.93 955.19,-36.91 944.67,-27.75"/>
<polygon fill="#63b8ff" stroke="#63b8ff" points="947.1,-25.22 937.26,-21.29 942.5,-30.5 947.1,-25.22"/>
</a>
</g>
</g>
<!-- Node11&#45;&gt;Node4 -->
<g id="edge15_Node000011_Node000004" class="edge">
<title>Node11&#45;&gt;Node4</title>
<g id="a_edge15_Node000011_Node000004"><a xlink:title=" ">
<path fill="none" stroke="#63b8ff" d="M963,-58.03C960.13,-57.3 957.23,-56.6 954.44,-56 888.07,-41.6 811.85,-29.54 756.19,-21.54"/>
<polygon fill="#63b8ff" stroke="#63b8ff" points="756.87,-18.1 746.48,-20.16 755.89,-25.03 756.87,-18.1"/>
</a>
</g>
</g>
<!-- Node12&#45;&gt;Node2 -->
<g id="edge17_Node000012_Node000002" class="edge">
<title>Node12&#45;&gt;Node2</title>
<g id="a_edge17_Node000012_Node000002"><a xlink:title=" ">
<path fill="none" stroke="#63b8ff" d="M495.74,-57.45C498.68,-56.92 501.61,-56.43 504.44,-56 639.21,-35.36 799.69,-21.01 877.88,-14.67"/>
<polygon fill="#63b8ff" stroke="#63b8ff" points="878.06,-18.16 887.75,-13.87 877.5,-11.18 878.06,-18.16"/>
</a>
</g>
</g>
<!-- Node12&#45;&gt;Node4 -->
<g id="edge18_Node000012_Node000004" class="edge">
<title>Node12&#45;&gt;Node4</title>
<g id="a_edge18_Node000012_Node000004"><a xlink:title=" ">
<path fill="none" stroke="#63b8ff" d="M495.93,-55.96C532.19,-46.98 588.05,-33.14 628.22,-23.19"/>
<polygon fill="#63b8ff" stroke="#63b8ff" points="629.03,-26.6 637.9,-20.8 627.35,-19.8 629.03,-26.6"/>
</a>
</g>
</g>
<!-- Node13&#45;&gt;Node2 -->
<g id="edge20_Node000013_Node000002" class="edge">
<title>Node13&#45;&gt;Node2</title>
<g id="a_edge20_Node000013_Node000002"><a xlink:title=" ">
<path fill="none" stroke="#63b8ff" d="M238.93,-57.92C241.77,-57.17 244.66,-56.5 247.44,-56 308.98,-44.87 733.71,-21.31 877.77,-13.54"/>
<polygon fill="#63b8ff" stroke="#63b8ff" points="877.93,-17.04 887.73,-13.01 877.56,-10.05 877.93,-17.04"/>
</a>
</g>
</g>
<!-- Node13&#45;&gt;Node4 -->
<g id="edge21_Node000013_Node000004" class="edge">
<title>Node13&#45;&gt;Node4</title>
<g id="a_edge21_Node000013_Node000004"><a xlink:title=" ">
<path fill="none" stroke="#63b8ff" d="M238.95,-58.02C241.79,-57.26 244.67,-56.56 247.44,-56 368.59,-31.71 511.72,-20.05 598.48,-14.82"/>
<polygon fill="#63b8ff" stroke="#63b8ff" points="598.53,-18.33 608.31,-14.25 598.12,-11.34 598.53,-18.33"/>
</a>
</g>
</g>
<!-- Node13&#45;&gt;Node6 -->
<g id="edge22_Node000013_Node000006" class="edge">
<title>Node13&#45;&gt;Node6</title>
<g id="a_edge22_Node000013_Node000006"><a xlink:title=" ">
<path fill="none" stroke="#63b8ff" d="M206.82,-55.59C198.16,-47.93 185.71,-36.91 175.36,-27.75"/>
<polygon fill="#63b8ff" stroke="#63b8ff" points="177.89,-25.31 168.08,-21.3 173.25,-30.55 177.89,-25.31"/>
</a>
</g>
</g>
<!-- Node14&#45;&gt;Node2 -->
<g id="edge24_Node000014_Node000002" class="edge">
<title>Node14&#45;&gt;Node2</title>
<g id="a_edge24_Node000014_Node000002"><a xlink:title=" ">
<path fill="none" stroke="#63b8ff" d="M567.49,-57.88C570.5,-57.19 573.53,-56.55 576.44,-56 683.55,-35.78 810.9,-21.88 878.23,-15.32"/>
<polygon fill="#63b8ff" stroke="#63b8ff" points="878.18,-18.84 887.79,-14.4 877.51,-11.87 878.18,-18.84"/>
</a>
</g>
</g>
<!-- Node14&#45;&gt;Node4 -->
<g id="edge25_Node000014_Node000004" class="edge">
<title>Node14&#45;&gt;Node4</title>
<g id="a_edge25_Node000014_Node000004"><a xlink:title=" ">
<path fill="none" stroke="#63b8ff" d="M564.31,-55.59C585.98,-47.05 618.21,-34.35 642.73,-24.68"/>
<polygon fill="#63b8ff" stroke="#63b8ff" points="643.96,-27.96 651.98,-21.03 641.4,-21.45 643.96,-27.96"/>
</a>
</g>
</g>
<!-- Node15&#45;&gt;Node2 -->
<g id="edge27_Node000015_Node000002" class="edge">
<title>Node15&#45;&gt;Node2</title>
<g id="a_edge27_Node000015_Node000002"><a xlink:title=" ">
<path fill="none" stroke="#63b8ff" d="M636,-57.94C638.84,-57.25 641.69,-56.58 644.44,-56 725.89,-38.74 821.87,-24.71 877.96,-17.13"/>
<polygon fill="#63b8ff" stroke="#63b8ff" points="878.35,-20.61 887.8,-15.81 877.42,-13.67 878.35,-20.61"/>
</a>
</g>
</g>
<!-- Node15&#45;&gt;Node4 -->
<g id="edge28_Node000015_Node000004" class="edge">
<title>Node15&#45;&gt;Node4</title>
<g id="a_edge28_Node000015_Node000004"><a xlink:title=" ">
<path fill="none" stroke="#63b8ff" d="M622.11,-55.59C631.72,-47.85 645.57,-36.69 657.01,-27.47"/>
<polygon fill="#63b8ff" stroke="#63b8ff" points="659.14,-30.25 664.73,-21.25 654.74,-24.8 659.14,-30.25"/>
</a>
</g>
</g>
<!-- Node16&#45;&gt;Node2 -->
<g id="edge30_Node000016_Node000002" class="edge">
<title>Node16&#45;&gt;Node2</title>
<g id="a_edge30_Node000016_Node000002"><a xlink:title=" ">
<path fill="none" stroke="#63b8ff" d="M701.91,-58.15C704.78,-57.4 707.67,-56.67 710.44,-56 767.96,-42.15 834.72,-28.56 878.4,-20"/>
<polygon fill="#63b8ff" stroke="#63b8ff" points="878.9,-23.47 888.05,-18.12 877.57,-16.6 878.9,-23.47"/>
</a>
</g>
</g>
<!-- Node16&#45;&gt;Node4 -->
<g id="edge31_Node000016_Node000004" class="edge">
<title>Node16&#45;&gt;Node4</title>
<g id="a_edge31_Node000016_Node000004"><a xlink:title=" ">
<path fill="none" stroke="#63b8ff" d="M677.44,-55.59C677.44,-49.01 677.44,-39.96 677.44,-31.73"/>
<polygon fill="#63b8ff" stroke="#63b8ff" points="680.94,-31.81 677.44,-21.81 673.94,-31.81 680.94,-31.81"/>
</a>
</g>
</g>
<!-- Node17&#45;&gt;Node2 -->
<g id="edge33_Node000017_Node000002" class="edge">
<title>Node17&#45;&gt;Node2</title>
<g id="a_edge33_Node000017_Node000002"><a xlink:title=" ">
<path fill="none" stroke="#63b8ff" d="M925.44,-55.59C925.44,-49.01 925.44,-39.96 925.44,-31.73"/>
<polygon fill="#63b8ff" stroke="#63b8ff" points="928.94,-31.81 925.44,-21.81 921.94,-31.81 928.94,-31.81"/>
</a>
</g>
</g>
<!-- Node17&#45;&gt;Node4 -->
<g id="edge34_Node000017_Node000004" class="edge">
<title>Node17&#45;&gt;Node4</title>
<g id="a_edge34_Node000017_Node000004"><a xlink:title=" ">
<path fill="none" stroke="#63b8ff" d="M905.23,-58.45C902.3,-57.58 899.3,-56.74 896.44,-56 844.92,-42.75 785.78,-30.78 741.96,-22.53"/>
<polygon fill="#63b8ff" stroke="#63b8ff" points="742.84,-19.13 732.37,-20.74 741.56,-26.02 742.84,-19.13"/>
</a>
</g>
</g>
<!-- Node17&#45;&gt;Node5 -->
<g id="edge35_Node000017_Node000005" class="edge">
<title>Node17&#45;&gt;Node5</title>
<g id="a_edge35_Node000017_Node000005"><a xlink:title=" ">
<path fill="none" stroke="#63b8ff" d="M945.72,-58.69C948.64,-57.78 951.62,-56.86 954.44,-56 990.3,-45.02 1031.06,-32.72 1060.88,-23.76"/>
<polygon fill="#63b8ff" stroke="#63b8ff" points="1061.72,-27.16 1070.29,-20.93 1059.7,-20.46 1061.72,-27.16"/>
</a>
</g>
</g>
<!-- Node17&#45;&gt;Node6 -->
<g id="edge36_Node000017_Node000006" class="edge">
<title>Node17&#45;&gt;Node6</title>
<g id="a_edge36_Node000017_Node000006"><a xlink:title=" ">
<path fill="none" stroke="#63b8ff" d="M905,-57.99C902.15,-57.21 899.24,-56.51 896.44,-56 770.94,-33.06 396.06,-18.66 233.28,-13.33"/>
<polygon fill="#63b8ff" stroke="#63b8ff" points="233.56,-9.84 223.45,-13.02 233.33,-16.84 233.56,-9.84"/>
</a>
</g>
</g>
<!-- Node18&#45;&gt;Node2 -->
<g id="edge38_Node000018_Node000002" class="edge">
<title>Node18&#45;&gt;Node2</title>
<g id="a_edge38_Node000018_Node000002"><a xlink:title=" ">
<path fill="none" stroke="#63b8ff" d="M765.25,-58.27C794.51,-49.64 845.86,-34.48 882.54,-23.66"/>
<polygon fill="#63b8ff" stroke="#63b8ff" points="883.36,-27.07 891.96,-20.88 881.37,-20.35 883.36,-27.07"/>
</a>
</g>
</g>
<!-- Node18&#45;&gt;Node4 -->
<g id="edge39_Node000018_Node000004" class="edge">
<title>Node18&#45;&gt;Node4</title>
<g id="a_edge39_Node000018_Node000004"><a xlink:title=" ">
<path fill="none" stroke="#63b8ff" d="M731.12,-55.59C721.8,-47.85 708.36,-36.69 697.26,-27.47"/>
<polygon fill="#63b8ff" stroke="#63b8ff" points="699.73,-24.96 689.8,-21.27 695.25,-30.35 699.73,-24.96"/>
</a>
</g>
</g>
<!-- Node19&#45;&gt;Node2 -->
<g id="edge41_Node000019_Node000002" class="edge">
<title>Node19&#45;&gt;Node2</title>
<g id="a_edge41_Node000019_Node000002"><a xlink:title=" ">
<path fill="none" stroke="#63b8ff" d="M825.52,-55.59C844.4,-47.17 872.36,-34.69 893.91,-25.07"/>
<polygon fill="#63b8ff" stroke="#63b8ff" points="895.11,-28.37 902.82,-21.1 892.26,-21.98 895.11,-28.37"/>
</a>
</g>
</g>
<!-- Node19&#45;&gt;Node4 -->
<g id="edge42_Node000019_Node000004" class="edge">
<title>Node19&#45;&gt;Node4</title>
<g id="a_edge42_Node000019_Node000004"><a xlink:title=" ">
<path fill="none" stroke="#63b8ff" d="M782.61,-55.72C762.62,-47.22 732.76,-34.52 709.97,-24.83"/>
<polygon fill="#63b8ff" stroke="#63b8ff" points="711.38,-21.63 700.81,-20.93 708.64,-28.07 711.38,-21.63"/>
</a>
</g>
</g>
<!-- Node20&#45;&gt;Node2 -->
<g id="edge44_Node000020_Node000002" class="edge">
<title>Node20&#45;&gt;Node2</title>
<g id="a_edge44_Node000020_Node000002"><a xlink:title=" ">
<path fill="none" stroke="#63b8ff" d="M1294.32,-58.43C1289.67,-57.56 1284.94,-56.72 1280.44,-56 1170.71,-38.33 1040.98,-23.38 972.79,-15.98"/>
<polygon fill="#63b8ff" stroke="#63b8ff" points="973.41,-12.53 963.09,-14.93 972.66,-19.49 973.41,-12.53"/>
</a>
</g>
</g>
<!-- Node21&#45;&gt;Node2 -->
<g id="edge46_Node000021_Node000002" class="edge">
<title>Node21&#45;&gt;Node2</title>
<g id="a_edge46_Node000021_Node000002"><a xlink:title=" ">
<path fill="none" stroke="#63b8ff" d="M178.32,-58C181.36,-57.22 184.46,-56.52 187.44,-56 221.49,-50.1 720.54,-22.28 878.13,-13.6"/>
<polygon fill="#63b8ff" stroke="#63b8ff" points="878,-17.11 887.79,-13.06 877.61,-10.12 878,-17.11"/>
</a>
</g>
</g>
<!-- Node21&#45;&gt;Node4 -->
<g id="edge47_Node000021_Node000004" class="edge">
<title>Node21&#45;&gt;Node4</title>
<g id="a_edge47_Node000021_Node000004"><a xlink:title=" ">
<path fill="none" stroke="#63b8ff" d="M178.33,-58.08C181.37,-57.29 184.47,-56.56 187.44,-56 330.96,-28.84 501.35,-17.88 598.69,-13.6"/>
<polygon fill="#63b8ff" stroke="#63b8ff" points="598.55,-17.11 608.39,-13.19 598.25,-10.12 598.55,-17.11"/>
</a>
</g>
</g>
<!-- Node21&#45;&gt;Node6 -->
<g id="edge48_Node000021_Node000006" class="edge">
<title>Node21&#45;&gt;Node6</title>
<g id="a_edge48_Node000021_Node000006"><a xlink:title=" ">
<path fill="none" stroke="#63b8ff" d="M156.44,-55.59C156.44,-49.01 156.44,-39.96 156.44,-31.73"/>
<polygon fill="#63b8ff" stroke="#63b8ff" points="159.94,-31.81 156.44,-21.81 152.94,-31.81 159.94,-31.81"/>
</a>
</g>
</g>
<!-- Node22&#45;&gt;Node2 -->
<g id="edge50_Node000022_Node000002" class="edge">
<title>Node22&#45;&gt;Node2</title>
<g id="a_edge50_Node000022_Node000002"><a xlink:title=" ">
<path fill="none" stroke="#63b8ff" d="M875.89,-55.59C884.41,-47.93 896.65,-36.91 906.84,-27.75"/>
<polygon fill="#63b8ff" stroke="#63b8ff" points="908.89,-30.6 913.99,-21.31 904.21,-25.4 908.89,-30.6"/>
</a>
</g>
</g>
<!-- Node22&#45;&gt;Node4 -->
<g id="edge51_Node000022_Node000004" class="edge">
<title>Node22&#45;&gt;Node4</title>
<g id="a_edge51_Node000022_Node000004"><a xlink:title=" ">
<path fill="none" stroke="#63b8ff" d="M843.5,-58.38C840.79,-57.57 838.05,-56.76 835.44,-56 797.12,-44.79 753.46,-32.39 721.76,-23.44"/>
<polygon fill="#63b8ff" stroke="#63b8ff" points="723.11,-20.19 712.53,-20.84 721.21,-26.92 723.11,-20.19"/>
</a>
</g>
</g>
<!-- Node23&#45;&gt;Node2 -->
<g id="edge53_Node000023_Node000002" class="edge">
<title>Node23&#45;&gt;Node2</title>
<g id="a_edge53_Node000023_Node000002"><a xlink:title=" ">
<path fill="none" stroke="#63b8ff" d="M1038.58,-55.59C1016.91,-47.05 984.67,-34.35 960.15,-24.68"/>
<polygon fill="#63b8ff" stroke="#63b8ff" points="961.49,-21.45 950.9,-21.03 958.92,-27.96 961.49,-21.45"/>
</a>
</g>
</g>
<!-- Node23&#45;&gt;Node4 -->
<g id="edge54_Node000023_Node000004" class="edge">
<title>Node23&#45;&gt;Node4</title>
<g id="a_edge54_Node000023_Node000004"><a xlink:title=" ">
<path fill="none" stroke="#63b8ff" d="M1029.02,-57.58C1026.12,-57.02 1023.23,-56.48 1020.44,-56 930.32,-40.46 826.05,-27.48 756.36,-19.52"/>
<polygon fill="#63b8ff" stroke="#63b8ff" points="756.88,-16.06 746.55,-18.41 756.09,-23.01 756.88,-16.06"/>
</a>
</g>
</g>
<!-- Node23&#45;&gt;Node5 -->
<g id="edge55_Node000023_Node000005" class="edge">
<title>Node23&#45;&gt;Node5</title>
<g id="a_edge55_Node000023_Node000005"><a xlink:title=" ">
<path fill="none" stroke="#63b8ff" d="M1069.58,-55.59C1075.05,-48.39 1082.76,-38.23 1089.45,-29.43"/>
<polygon fill="#63b8ff" stroke="#63b8ff" points="1092.21,-31.58 1095.47,-21.5 1086.63,-27.35 1092.21,-31.58"/>
</a>
</g>
</g>
<!-- Node24&#45;&gt;Node2 -->
<g id="edge57_Node000024_Node000002" class="edge">
<title>Node24&#45;&gt;Node2</title>
<g id="a_edge57_Node000024_Node000002"><a xlink:title=" ">
<path fill="none" stroke="#63b8ff" d="M1571.91,-57.92C1567.38,-57.2 1562.81,-56.54 1558.44,-56 1331.15,-28.06 1272.84,-36.64 1044.44,-20 1020.88,-18.28 994.71,-16.31 972.92,-14.65"/>
<polygon fill="#63b8ff" stroke="#63b8ff" points="973.38,-11.18 963.14,-13.9 972.85,-18.16 973.38,-11.18"/>
</a>
</g>
</g>
<!-- Node25 -->
<g id="Node000025" class="node">
<title>Node25</title>
<g id="a_Node000025"><a xlink:title=" ">
<polygon fill="#e0e0e0" stroke="#999999" points="1637.32,-20 1581.57,-20 1581.57,0 1637.32,0 1637.32,-20"/>
<text xml:space="preserve" text-anchor="middle" x="1609.44" y="-6.5" font-family="Helvetica,sans-Serif" font-size="10.00">stdbool.h</text>
</a>
</g>
</g>
<!-- Node24&#45;&gt;Node25 -->
<g id="edge58_Node000024_Node000025" class="edge">
<title>Node24&#45;&gt;Node25</title>
<g id="a_edge58_Node000024_Node000025"><a xlink:title=" ">
<path fill="none" stroke="#63b8ff" d="M1609.44,-55.59C1609.44,-49.01 1609.44,-39.96 1609.44,-31.73"/>
<polygon fill="#63b8ff" stroke="#63b8ff" points="1612.94,-31.81 1609.44,-21.81 1605.94,-31.81 1612.94,-31.81"/>
</a>
</g>
</g>
<!-- Node26&#45;&gt;Node2 -->
<g id="edge60_Node000026_Node000002" class="edge">
<title>Node26&#45;&gt;Node2</title>
<g id="a_edge60_Node000026_Node000002"><a xlink:title=" ">
<path fill="none" stroke="#63b8ff" d="M1113.53,-57.38C1076.84,-48.33 1015.27,-33.15 972.61,-22.63"/>
<polygon fill="#63b8ff" stroke="#63b8ff" points="973.68,-19.29 963.13,-20.29 972,-26.09 973.68,-19.29"/>
</a>
</g>
</g>
<!-- Node26&#45;&gt;Node4 -->
<g id="edge61_Node000026_Node000004" class="edge">
<title>Node26&#45;&gt;Node4</title>
<g id="a_edge61_Node000026_Node000004"><a xlink:title=" ">
<path fill="none" stroke="#63b8ff" d="M1113.5,-57.67C1110.45,-57.05 1107.39,-56.49 1104.44,-56 983.72,-36.13 842.28,-23.24 756.3,-16.55"/>
<polygon fill="#63b8ff" stroke="#63b8ff" points="756.81,-13.08 746.58,-15.8 756.28,-20.06 756.81,-13.08"/>
</a>
</g>
</g>
<!-- Node26&#45;&gt;Node5 -->
<g id="edge62_Node000026_Node000005" class="edge">
<title>Node26&#45;&gt;Node5</title>
<g id="a_edge62_Node000026_Node000005"><a xlink:title=" ">
<path fill="none" stroke="#63b8ff" d="M1137.3,-55.59C1131.83,-48.39 1124.12,-38.23 1117.44,-29.43"/>
<polygon fill="#63b8ff" stroke="#63b8ff" points="1120.25,-27.35 1111.42,-21.5 1114.68,-31.58 1120.25,-27.35"/>
</a>
</g>
</g>
<!-- Node27&#45;&gt;Node2 -->
<g id="edge64_Node000027_Node000002" class="edge">
<title>Node27&#45;&gt;Node2</title>
<g id="a_edge64_Node000027_Node000002"><a xlink:title=" ">
<path fill="none" stroke="#63b8ff" d="M1375.76,-57.31C1372.95,-56.84 1370.15,-56.4 1367.44,-56 1224.5,-35.08 1054.14,-20.68 972.98,-14.46"/>
<polygon fill="#63b8ff" stroke="#63b8ff" points="973.42,-10.99 963.18,-13.72 972.89,-17.97 973.42,-10.99"/>
</a>
</g>
</g>
<!-- Node28&#45;&gt;Node2 -->
<g id="edge66_Node000028_Node000002" class="edge">
<title>Node28&#45;&gt;Node2</title>
<g id="a_edge66_Node000028_Node000002"><a xlink:title=" ">
<path fill="none" stroke="#63b8ff" d="M1192.49,-58.03C1189.79,-57.3 1187.06,-56.61 1184.44,-56 1111.07,-39.03 1024.67,-25.24 972.53,-17.58"/>
<polygon fill="#63b8ff" stroke="#63b8ff" points="973.2,-14.14 962.8,-16.17 972.19,-21.07 973.2,-14.14"/>
</a>
</g>
</g>
</g>
</svg>
