<?xml version="1.0" encoding="UTF-8" standalone="no"?>
<!DOCTYPE svg PUBLIC "-//W3C//DTD SVG 1.1//EN"
 "http://www.w3.org/Graphics/SVG/1.1/DTD/svg11.dtd">
<!-- Generated by graphviz version 14.1.4 (20260321.0153)
 -->
<!-- Title: update_screen_metrics Pages: 1 -->
<svg width="723pt" height="284pt"
 viewBox="0.00 0.00 723.00 284.00" xmlns="http://www.w3.org/2000/svg" xmlns:xlink="http://www.w3.org/1999/xlink">
<g id="graph0" class="graph" transform="scale(1 1) rotate(0) translate(4 280)">
<title>update_screen_metrics</title>
<!-- Node1 -->
<g id="Node000001" class="node">
<title>Node1</title>
<g id="a_Node000001"><a xlink:title="Met a jour screen metrics en fonction de l&#39;etat courant du jeu.">
<polygon fill="#999999" stroke="#666666" points="715.25,-143 598,-143 598,-123 715.25,-123 715.25,-143"/>
<text xml:space="preserve" text-anchor="middle" x="656.62" y="-129.5" font-family="Helvetica,sans-Serif" font-size="10.00">update_screen_metrics</text>
</a>
</g>
</g>
<!-- Node2 -->
<g id="Node000002" class="node">
<title>Node2</title>
<g id="a_Node000002"><a xlink:href="map_8c.html#ad462ccdd50801fb085dc8134fc3765d1" target="_top" xlink:title="Affiche la carte et met a jour les elements visuels associes.">
<polygon fill="white" stroke="#666666" points="537.25,-238 465.75,-238 465.75,-218 537.25,-218 537.25,-238"/>
<text xml:space="preserve" text-anchor="middle" x="501.5" y="-224.5" font-family="Helvetica,sans-Serif" font-size="10.00">afficher_map</text>
</a>
</g>
</g>
<!-- Node1&#45;&gt;Node2 -->
<g id="edge1_Node000001_Node000002" class="edge">
<title>Node1&#45;&gt;Node2</title>
<g id="a_edge1_Node000001_Node000002"><a xlink:title=" ">
<path fill="none" stroke="#63b8ff" d="M637.8,-150.93C619.99,-167.97 591.12,-193.26 562,-209 554.46,-213.07 545.91,-216.44 537.69,-219.15"/>
<polygon fill="#63b8ff" stroke="#63b8ff" points="639.82,-153.85 644.53,-144.36 634.93,-148.84 639.82,-153.85"/>
</a>
</g>
</g>
<!-- Node7 -->
<g id="Node000007" class="node">
<title>Node7</title>
<g id="a_Node000007"><a xlink:href="shop_8c.html#ad1ea096e4fe280946f862273fc94eb30" target="_top" xlink:title="Affiche shop et met a jour les elements visuels associes.">
<polygon fill="white" stroke="#666666" points="538.38,-200 464.62,-200 464.62,-180 538.38,-180 538.38,-200"/>
<text xml:space="preserve" text-anchor="middle" x="501.5" y="-186.5" font-family="Helvetica,sans-Serif" font-size="10.00">afficher_shop</text>
</a>
</g>
</g>
<!-- Node1&#45;&gt;Node7 -->
<g id="edge8_Node000001_Node000007" class="edge">
<title>Node1&#45;&gt;Node7</title>
<g id="a_edge8_Node000001_Node000007"><a xlink:title=" ">
<path fill="none" stroke="#63b8ff" d="M616.96,-147.39C590.09,-157.39 554.9,-170.5 530.67,-179.52"/>
<polygon fill="#63b8ff" stroke="#63b8ff" points="617.97,-150.75 626.12,-143.98 615.53,-144.19 617.97,-150.75"/>
</a>
</g>
</g>
<!-- Node8 -->
<g id="Node000008" class="node">
<title>Node8</title>
<g id="a_Node000008"><a xlink:href="jeux_8c.html#adf6e0b25032f317217a43d1d4a47e08a" target="_top" xlink:title=" ">
<polygon fill="white" stroke="#666666" points="405,-124 259.25,-124 259.25,-104 405,-104 405,-124"/>
<text xml:space="preserve" text-anchor="middle" x="332.12" y="-110.5" font-family="Helvetica,sans-Serif" font-size="10.00">console_executer_commande</text>
</a>
</g>
</g>
<!-- Node1&#45;&gt;Node8 -->
<g id="edge10_Node000001_Node000008" class="edge">
<title>Node1&#45;&gt;Node8</title>
<g id="a_edge10_Node000001_Node000008"><a xlink:title=" ">
<path fill="none" stroke="#63b8ff" d="M586.19,-128.91C532.85,-125.77 459.41,-121.44 405.37,-118.26"/>
<polygon fill="#63b8ff" stroke="#63b8ff" points="585.9,-132.4 596.09,-129.49 586.31,-125.41 585.9,-132.4"/>
</a>
</g>
</g>
<!-- Node9 -->
<g id="Node000009" class="node">
<title>Node9</title>
<g id="a_Node000009"><a xlink:href="jeux_8c.html#a2d7491d04e8c2bdb52bb6ed7d75e4d78" target="_top" xlink:title="Execute la boucle principale de gameplay pour la planete courante.">
<polygon fill="white" stroke="#666666" points="219.88,-124 149.88,-124 149.88,-104 219.88,-104 219.88,-124"/>
<text xml:space="preserve" text-anchor="middle" x="184.88" y="-110.5" font-family="Helvetica,sans-Serif" font-size="10.00">jeu_principal</text>
</a>
</g>
</g>
<!-- Node1&#45;&gt;Node9 -->
<g id="edge15_Node000001_Node000009" class="edge">
<title>Node1&#45;&gt;Node9</title>
<g id="a_edge15_Node000001_Node000009"><a xlink:title=" ">
<path fill="none" stroke="#63b8ff" d="M586.24,-137.12C578.07,-137.48 569.85,-137.79 562,-138 427.47,-141.59 392.5,-151.84 259.25,-133 246.09,-131.14 231.89,-127.79 219.53,-124.42"/>
<polygon fill="#63b8ff" stroke="#63b8ff" points="586.38,-140.62 596.2,-136.65 586.04,-133.63 586.38,-140.62"/>
</a>
</g>
</g>
<!-- Node10 -->
<g id="Node000010" class="node">
<title>Node10</title>
<g id="a_Node000010"><a xlink:href="main_8c.html#ab74b29daa7ab180eb345e4dd8ef01123" target="_top" xlink:title=" ">
<polygon fill="white" stroke="#666666" points="208.25,-20 161.5,-20 161.5,0 208.25,0 208.25,-20"/>
<text xml:space="preserve" text-anchor="middle" x="184.88" y="-6.5" font-family="Helvetica,sans-Serif" font-size="10.00">init_sdl</text>
</a>
</g>
</g>
<!-- Node1&#45;&gt;Node10 -->
<g id="edge13_Node000001_Node000010" class="edge">
<title>Node1&#45;&gt;Node10</title>
<g id="a_edge13_Node000001_Node000010"><a xlink:title=" ">
<path fill="none" stroke="#63b8ff" d="M639.23,-114.73C621.94,-96.77 592.95,-70.2 562,-57 437,-3.69 268.93,-5.8 208.6,-8.61"/>
<polygon fill="#63b8ff" stroke="#63b8ff" points="636.31,-116.74 645.7,-121.65 641.43,-111.96 636.31,-116.74"/>
</a>
</g>
</g>
<!-- Node11 -->
<g id="Node000011" class="node">
<title>Node11</title>
<g id="a_Node000011"><a xlink:href="sauvegarde_8c.html#ae251037c85a5a7d8172c206539398f49" target="_top" xlink:title="Affiche l&#39;interface de selection de slot (chargement ou sauvegarde).">
<polygon fill="white" stroke="#666666" points="562,-86 441,-86 441,-66 562,-66 562,-86"/>
<text xml:space="preserve" text-anchor="middle" x="501.5" y="-72.5" font-family="Helvetica,sans-Serif" font-size="10.00">sauvegarde_choisir_slot</text>
</a>
</g>
</g>
<!-- Node1&#45;&gt;Node11 -->
<g id="edge16_Node000001_Node000011" class="edge">
<title>Node1&#45;&gt;Node11</title>
<g id="a_edge16_Node000001_Node000011"><a xlink:title=" ">
<path fill="none" stroke="#63b8ff" d="M616.96,-118.61C590.09,-108.61 554.9,-95.5 530.67,-86.48"/>
<polygon fill="#63b8ff" stroke="#63b8ff" points="615.53,-121.81 626.12,-122.02 617.97,-115.25 615.53,-121.81"/>
</a>
</g>
</g>
<!-- Node3 -->
<g id="Node000003" class="node">
<title>Node3</title>
<g id="a_Node000003"><a xlink:href="vaisseau_8c.html#ace614afc8df3a40bd5ea0771044ff217" target="_top" xlink:title=" ">
<polygon fill="white" stroke="#666666" points="389.25,-200 275,-200 275,-180 389.25,-180 389.25,-200"/>
<text xml:space="preserve" text-anchor="middle" x="332.12" y="-186.5" font-family="Helvetica,sans-Serif" font-size="10.00">gerer_interaction_objet</text>
</a>
</g>
</g>
<!-- Node2&#45;&gt;Node3 -->
<g id="edge2_Node000002_Node000003" class="edge">
<title>Node2&#45;&gt;Node3</title>
<g id="a_edge2_Node000002_Node000003"><a xlink:title=" ">
<path fill="none" stroke="#63b8ff" d="M454.37,-217.53C430.99,-212.22 402.68,-205.79 379.29,-200.48"/>
<polygon fill="#63b8ff" stroke="#63b8ff" points="453.41,-220.9 463.94,-219.7 454.96,-214.07 453.41,-220.9"/>
</a>
</g>
</g>
<!-- Node6 -->
<g id="Node000006" class="node">
<title>Node6</title>
<g id="a_Node000006"><a xlink:href="main_8c.html#a0ddf1224851353fc92bfbff6f499fa97" target="_top" xlink:title=" ">
<polygon fill="white" stroke="#666666" points="73.75,-124 36.75,-124 36.75,-104 73.75,-104 73.75,-124"/>
<text xml:space="preserve" text-anchor="middle" x="55.25" y="-110.5" font-family="Helvetica,sans-Serif" font-size="10.00">main</text>
</a>
</g>
</g>
<!-- Node2&#45;&gt;Node6 -->
<g id="edge7_Node000002_Node000006" class="edge">
<title>Node2&#45;&gt;Node6</title>
<g id="a_edge7_Node000002_Node000006"><a xlink:title=" ">
<path fill="none" stroke="#63b8ff" d="M454.28,-229.22C405.1,-229.4 325.44,-226.48 259.25,-209 186.08,-189.68 106.91,-144.88 73.1,-124.47"/>
<polygon fill="#63b8ff" stroke="#63b8ff" points="454.01,-232.72 463.98,-229.14 453.95,-225.72 454.01,-232.72"/>
</a>
</g>
</g>
<!-- Node4 -->
<g id="Node000004" class="node">
<title>Node4</title>
<g id="a_Node000004"><a xlink:href="vaisseau_8c.html#a8ea9afc9440149ddd36e96b97d8ed6c5" target="_top" xlink:title="Lance la scene interieure du vaisseau (deplacement, interactions, mini&#45;jeux, sortie).">
<polygon fill="white" stroke="#666666" points="212.38,-257 157.38,-257 157.38,-237 212.38,-237 212.38,-257"/>
<text xml:space="preserve" text-anchor="middle" x="184.88" y="-243.5" font-family="Helvetica,sans-Serif" font-size="10.00">vaisseau</text>
</a>
</g>
</g>
<!-- Node3&#45;&gt;Node4 -->
<g id="edge3_Node000003_Node000004" class="edge">
<title>Node3&#45;&gt;Node4</title>
<g id="a_edge3_Node000003_Node000004"><a xlink:title=" ">
<path fill="none" stroke="#63b8ff" d="M294.07,-204.54C268.54,-214.56 235.23,-227.63 212.35,-236.61"/>
<polygon fill="#63b8ff" stroke="#63b8ff" points="295.04,-207.92 303.07,-201.01 292.49,-201.4 295.04,-207.92"/>
</a>
</g>
</g>
<!-- Node5 -->
<g id="Node000005" class="node">
<title>Node5</title>
<g id="a_Node000005"><a xlink:href="cinematique_8c.html#a418cc3e727578f4cd509ad27cd6a2a31" target="_top" xlink:title="Lance cinematique fin et gere son deroulement complet.">
<polygon fill="white" stroke="#666666" points="110.5,-276 0,-276 0,-256 110.5,-256 110.5,-276"/>
<text xml:space="preserve" text-anchor="middle" x="55.25" y="-262.5" font-family="Helvetica,sans-Serif" font-size="10.00">jouer_cinematique_fin</text>
</a>
</g>
</g>
<!-- Node4&#45;&gt;Node5 -->
<g id="edge4_Node000004_Node000005" class="edge">
<title>Node4&#45;&gt;Node5</title>
<g id="a_edge4_Node000004_Node000005"><a xlink:title=" ">
<path fill="none" stroke="#63b8ff" d="M145.77,-252.67C134.8,-254.31 122.61,-256.12 110.84,-257.87"/>
<polygon fill="#63b8ff" stroke="#63b8ff" points="146.25,-256.14 155.62,-251.21 145.22,-249.22 146.25,-256.14"/>
</a>
</g>
</g>
<!-- Node4&#45;&gt;Node6 -->
<g id="edge6_Node000004_Node000006" class="edge">
<title>Node4&#45;&gt;Node6</title>
<g id="a_edge6_Node000004_Node000006"><a xlink:title=" ">
<path fill="none" stroke="#63b8ff" d="M155.63,-230.22C152.44,-227.93 149.33,-225.51 146.5,-223 110.64,-191.23 77.05,-144.62 63.07,-124.21"/>
<polygon fill="#63b8ff" stroke="#63b8ff" points="153.68,-233.12 163.94,-235.75 157.56,-227.29 153.68,-233.12"/>
</a>
</g>
</g>
<!-- Node5&#45;&gt;Node2 -->
<g id="edge5_Node000005_Node000002" class="edge">
<title>Node5&#45;&gt;Node2</title>
<g id="a_edge5_Node000005_Node000002"><a xlink:title=" ">
<path fill="none" stroke="#63b8ff" d="M122.28,-267.99C153.01,-268.41 190.03,-268.18 223.25,-266 304.55,-260.66 324.3,-253.24 405,-242 425.08,-239.2 447.52,-235.92 465.59,-233.24"/>
<polygon fill="#63b8ff" stroke="#63b8ff" points="122.41,-264.49 112.35,-267.83 122.29,-271.49 122.41,-264.49"/>
</a>
</g>
</g>
<!-- Node7&#45;&gt;Node3 -->
<g id="edge9_Node000007_Node000003" class="edge">
<title>Node7&#45;&gt;Node3</title>
<g id="a_edge9_Node000007_Node000003"><a xlink:title=" ">
<path fill="none" stroke="#63b8ff" d="M452.69,-190C432.97,-190 409.98,-190 389.45,-190"/>
<polygon fill="#63b8ff" stroke="#63b8ff" points="452.67,-193.5 462.67,-190 452.67,-186.5 452.67,-193.5"/>
</a>
</g>
</g>
<!-- Node8&#45;&gt;Node9 -->
<g id="edge11_Node000008_Node000009" class="edge">
<title>Node8&#45;&gt;Node9</title>
<g id="a_edge11_Node000008_Node000009"><a xlink:title=" ">
<path fill="none" stroke="#63b8ff" d="M247.55,-114C237.92,-114 228.56,-114 220.16,-114"/>
<polygon fill="#63b8ff" stroke="#63b8ff" points="247.41,-117.5 257.41,-114 247.41,-110.5 247.41,-117.5"/>
</a>
</g>
</g>
<!-- Node9&#45;&gt;Node6 -->
<g id="edge12_Node000009_Node000006" class="edge">
<title>Node9&#45;&gt;Node6</title>
<g id="a_edge12_Node000009_Node000006"><a xlink:title=" ">
<path fill="none" stroke="#63b8ff" d="M138.4,-114C116.15,-114 90.65,-114 74.04,-114"/>
<polygon fill="#63b8ff" stroke="#63b8ff" points="138.16,-117.5 148.16,-114 138.16,-110.5 138.16,-117.5"/>
</a>
</g>
</g>
<!-- Node10&#45;&gt;Node6 -->
<g id="edge14_Node000010_Node000006" class="edge">
<title>Node10&#45;&gt;Node6</title>
<g id="a_edge14_Node000010_Node000006"><a xlink:title=" ">
<path fill="none" stroke="#63b8ff" d="M160.4,-27.26C155.76,-30.77 150.95,-34.47 146.5,-38 117.79,-60.81 85.11,-88.88 68.04,-103.7"/>
<polygon fill="#63b8ff" stroke="#63b8ff" points="162.4,-30.14 168.32,-21.35 158.21,-24.53 162.4,-30.14"/>
</a>
</g>
</g>
<!-- Node12 -->
<g id="Node000012" class="node">
<title>Node12</title>
<g id="a_Node000012"><a xlink:href="menu_8c.html#a55097e0b77b0fabc6cae44137b9a839a" target="_top" xlink:title="Affiche menu et met a jour les elements visuels associes.">
<polygon fill="white" stroke="#666666" points="223.25,-67 146.5,-67 146.5,-47 223.25,-47 223.25,-67"/>
<text xml:space="preserve" text-anchor="middle" x="184.88" y="-53.5" font-family="Helvetica,sans-Serif" font-size="10.00">afficher_menu</text>
</a>
</g>
</g>
<!-- Node11&#45;&gt;Node12 -->
<g id="edge17_Node000011_Node000012" class="edge">
<title>Node11&#45;&gt;Node12</title>
<g id="a_edge17_Node000011_Node000012"><a xlink:title=" ">
<path fill="none" stroke="#63b8ff" d="M446.47,-63.33C433,-60.71 418.54,-58.33 405,-57 341.59,-50.75 267.35,-52.68 223.6,-54.76"/>
<polygon fill="#63b8ff" stroke="#63b8ff" points="445.53,-66.71 456.02,-65.28 446.92,-59.85 445.53,-66.71"/>
</a>
</g>
</g>
<!-- Node13 -->
<g id="Node000013" class="node">
<title>Node13</title>
<g id="a_Node000013"><a xlink:href="pause_8c.html#abc45a9e3a6a57d6f0f44706bd52e556d" target="_top" xlink:title="Affiche pause et met a jour les elements visuels associes.">
<polygon fill="white" stroke="#666666" points="371.62,-86 292.62,-86 292.62,-66 371.62,-66 371.62,-86"/>
<text xml:space="preserve" text-anchor="middle" x="332.12" y="-72.5" font-family="Helvetica,sans-Serif" font-size="10.00">afficher_pause</text>
</a>
</g>
</g>
<!-- Node11&#45;&gt;Node13 -->
<g id="edge19_Node000011_Node000013" class="edge">
<title>Node11&#45;&gt;Node13</title>
<g id="a_edge19_Node000011_Node000013"><a xlink:title=" ">
<path fill="none" stroke="#63b8ff" d="M429.15,-76C409.57,-76 389.06,-76 372.05,-76"/>
<polygon fill="#63b8ff" stroke="#63b8ff" points="429.03,-79.5 439.03,-76 429.03,-72.5 429.03,-79.5"/>
</a>
</g>
</g>
<!-- Node12&#45;&gt;Node6 -->
<g id="edge18_Node000012_Node000006" class="edge">
<title>Node12&#45;&gt;Node6</title>
<g id="a_edge18_Node000012_Node000006"><a xlink:title=" ">
<path fill="none" stroke="#63b8ff" d="M150.21,-72.04C125.82,-82.93 93.82,-97.22 74.16,-106"/>
<polygon fill="#63b8ff" stroke="#63b8ff" points="151.38,-75.35 159.08,-68.07 148.53,-68.95 151.38,-75.35"/>
</a>
</g>
</g>
<!-- Node13&#45;&gt;Node9 -->
<g id="edge20_Node000013_Node000009" class="edge">
<title>Node13&#45;&gt;Node9</title>
<g id="a_edge20_Node000013_Node000009"><a xlink:title=" ">
<path fill="none" stroke="#63b8ff" d="M281.28,-89.04C261.06,-94.33 238.22,-100.31 219.96,-105.08"/>
<polygon fill="#63b8ff" stroke="#63b8ff" points="281.95,-92.48 290.74,-86.57 280.18,-85.71 281.95,-92.48"/>
</a>
</g>
</g>
</g>
</svg>
