<?xml version="1.0" encoding="UTF-8" standalone="no"?>
<!DOCTYPE svg PUBLIC "-//W3C//DTD SVG 1.1//EN"
 "http://www.w3.org/Graphics/SVG/1.1/DTD/svg11.dtd">
<!-- Generated by graphviz version 14.1.4 (20260321.0153)
 -->
<!-- Title: update_screen_metrics Pages: 1 -->
<svg width="578pt" height="161pt"
 viewBox="0.00 0.00 578.00 161.00" xmlns="http://www.w3.org/2000/svg" xmlns:xlink="http://www.w3.org/1999/xlink">
<g id="graph0" class="graph" transform="scale(1 1) rotate(0) translate(4 156.89)">
<title>update_screen_metrics</title>
<!-- Node1 -->
<g id="Node000001" class="node">
<title>Node1</title>
<g id="a_Node000001"><a xlink:title="Met a jour screen metrics en fonction de l&#39;etat courant du jeu.">
<polygon fill="#999999" stroke="#666666" points="569.75,-115 452.5,-115 452.5,-95 569.75,-95 569.75,-115"/>
<text xml:space="preserve" text-anchor="middle" x="511.12" y="-101.5" font-family="Helvetica,sans-Serif" font-size="10.00">update_screen_metrics</text>
</a>
</g>
</g>
<!-- Node2 -->
<g id="Node000002" class="node">
<title>Node2</title>
<g id="a_Node000002"><a xlink:href="map_8c.html#ad462ccdd50801fb085dc8134fc3765d1" target="_top" xlink:title="Affiche la carte et met a jour les elements visuels associes.">
<polygon fill="white" stroke="#666666" points="144.5,-143 73,-143 73,-123 144.5,-123 144.5,-143"/>
<text xml:space="preserve" text-anchor="middle" x="108.75" y="-129.5" font-family="Helvetica,sans-Serif" font-size="10.00">afficher_map</text>
</a>
</g>
</g>
<!-- Node1&#45;&gt;Node2 -->
<g id="edge1_Node000001_Node000002" class="edge">
<title>Node1&#45;&gt;Node2</title>
<g id="a_edge1_Node000001_Node000002"><a xlink:title=" ">
<path fill="none" stroke="#63b8ff" d="M480.59,-120.42C462.6,-128.93 438.85,-138.64 416.5,-143 319.49,-161.94 202.01,-148.18 144.66,-139.17"/>
<polygon fill="#63b8ff" stroke="#63b8ff" points="481.92,-123.67 489.36,-116.13 478.84,-117.38 481.92,-123.67"/>
</a>
</g>
</g>
<!-- Node4 -->
<g id="Node000004" class="node">
<title>Node4</title>
<g id="a_Node000004"><a xlink:href="shop_8c.html#ad1ea096e4fe280946f862273fc94eb30" target="_top" xlink:title="Affiche shop et met a jour les elements visuels associes.">
<polygon fill="white" stroke="#666666" points="392.88,-134 319.12,-134 319.12,-114 392.88,-114 392.88,-134"/>
<text xml:space="preserve" text-anchor="middle" x="356" y="-120.5" font-family="Helvetica,sans-Serif" font-size="10.00">afficher_shop</text>
</a>
</g>
</g>
<!-- Node1&#45;&gt;Node4 -->
<g id="edge3_Node000001_Node000004" class="edge">
<title>Node1&#45;&gt;Node4</title>
<g id="a_edge3_Node000001_Node000004"><a xlink:title=" ">
<path fill="none" stroke="#63b8ff" d="M440.94,-113.58C424.46,-115.63 407.52,-117.73 393.21,-119.51"/>
<polygon fill="#63b8ff" stroke="#63b8ff" points="441.24,-117.07 450.73,-112.37 440.38,-110.13 441.24,-117.07"/>
</a>
</g>
</g>
<!-- Node5 -->
<g id="Node000005" class="node">
<title>Node5</title>
<g id="a_Node000005"><a xlink:href="jeux_8c.html#a2d7491d04e8c2bdb52bb6ed7d75e4d78" target="_top" xlink:title="Execute la boucle principale de gameplay pour la planete courante.">
<polygon fill="white" stroke="#666666" points="143.75,-77 73.75,-77 73.75,-57 143.75,-57 143.75,-77"/>
<text xml:space="preserve" text-anchor="middle" x="108.75" y="-63.5" font-family="Helvetica,sans-Serif" font-size="10.00">jeu_principal</text>
</a>
</g>
</g>
<!-- Node1&#45;&gt;Node5 -->
<g id="edge4_Node000001_Node000005" class="edge">
<title>Node1&#45;&gt;Node5</title>
<g id="a_edge4_Node000001_Node000005"><a xlink:title=" ">
<path fill="none" stroke="#63b8ff" d="M441.06,-98.44C354.62,-90.24 209.96,-76.51 144.18,-70.27"/>
<polygon fill="#63b8ff" stroke="#63b8ff" points="440.54,-101.91 450.83,-99.37 441.2,-94.94 440.54,-101.91"/>
</a>
</g>
</g>
<!-- Node6 -->
<g id="Node000006" class="node">
<title>Node6</title>
<g id="a_Node000006"><a xlink:href="sauvegarde_8c.html#ae251037c85a5a7d8172c206539398f49" target="_top" xlink:title="Affiche l&#39;interface de selection de slot (chargement ou sauvegarde).">
<polygon fill="white" stroke="#666666" points="416.5,-58 295.5,-58 295.5,-38 416.5,-38 416.5,-58"/>
<text xml:space="preserve" text-anchor="middle" x="356" y="-44.5" font-family="Helvetica,sans-Serif" font-size="10.00">sauvegarde_choisir_slot</text>
</a>
</g>
</g>
<!-- Node1&#45;&gt;Node6 -->
<g id="edge6_Node000001_Node000006" class="edge">
<title>Node1&#45;&gt;Node6</title>
<g id="a_edge6_Node000001_Node000006"><a xlink:title=" ">
<path fill="none" stroke="#63b8ff" d="M471.46,-90.61C444.59,-80.61 409.4,-67.5 385.17,-58.48"/>
<polygon fill="#63b8ff" stroke="#63b8ff" points="470.03,-93.81 480.62,-94.02 472.47,-87.25 470.03,-93.81"/>
</a>
</g>
</g>
<!-- Node3 -->
<g id="Node000003" class="node">
<title>Node3</title>
<g id="a_Node000003"><a xlink:href="main_8c.html#a0ddf1224851353fc92bfbff6f499fa97" target="_top" xlink:title=" ">
<polygon fill="white" stroke="#666666" points="37,-77 0,-77 0,-57 37,-57 37,-77"/>
<text xml:space="preserve" text-anchor="middle" x="18.5" y="-63.5" font-family="Helvetica,sans-Serif" font-size="10.00">main</text>
</a>
</g>
</g>
<!-- Node2&#45;&gt;Node3 -->
<g id="edge2_Node000002_Node000003" class="edge">
<title>Node2&#45;&gt;Node3</title>
<g id="a_edge2_Node000002_Node000003"><a xlink:title=" ">
<path fill="none" stroke="#63b8ff" d="M85.06,-116.03C68.77,-103.85 47.33,-87.82 33.48,-77.46"/>
<polygon fill="#63b8ff" stroke="#63b8ff" points="82.64,-118.59 92.75,-121.78 86.84,-112.99 82.64,-118.59"/>
</a>
</g>
</g>
<!-- Node5&#45;&gt;Node3 -->
<g id="edge5_Node000005_Node000003" class="edge">
<title>Node5&#45;&gt;Node3</title>
<g id="a_edge5_Node000005_Node000003"><a xlink:title=" ">
<path fill="none" stroke="#63b8ff" d="M61.87,-67C53.07,-67 44.36,-67 37.15,-67"/>
<polygon fill="#63b8ff" stroke="#63b8ff" points="61.86,-70.5 71.86,-67 61.86,-63.5 61.86,-70.5"/>
</a>
</g>
</g>
<!-- Node7 -->
<g id="Node000007" class="node">
<title>Node7</title>
<g id="a_Node000007"><a xlink:href="menu_8c.html#a55097e0b77b0fabc6cae44137b9a839a" target="_top" xlink:title="Affiche menu et met a jour les elements visuels associes.">
<polygon fill="white" stroke="#666666" points="258.38,-20 181.62,-20 181.62,0 258.38,0 258.38,-20"/>
<text xml:space="preserve" text-anchor="middle" x="220" y="-6.5" font-family="Helvetica,sans-Serif" font-size="10.00">afficher_menu</text>
</a>
</g>
</g>
<!-- Node6&#45;&gt;Node7 -->
<g id="edge7_Node000006_Node000007" class="edge">
<title>Node6&#45;&gt;Node7</title>
<g id="a_edge7_Node000006_Node000007"><a xlink:title=" ">
<path fill="none" stroke="#63b8ff" d="M307.12,-34.42C290.91,-29.82 273.07,-24.77 257.85,-20.45"/>
<polygon fill="#63b8ff" stroke="#63b8ff" points="306,-37.74 316.57,-37.1 307.91,-31.01 306,-37.74"/>
</a>
</g>
</g>
<!-- Node8 -->
<g id="Node000008" class="node">
<title>Node8</title>
<g id="a_Node000008"><a xlink:href="pause_8c.html#abc45a9e3a6a57d6f0f44706bd52e556d" target="_top" xlink:title="Affiche pause et met a jour les elements visuels associes.">
<polygon fill="white" stroke="#666666" points="259.5,-58 180.5,-58 180.5,-38 259.5,-38 259.5,-58"/>
<text xml:space="preserve" text-anchor="middle" x="220" y="-44.5" font-family="Helvetica,sans-Serif" font-size="10.00">afficher_pause</text>
</a>
</g>
</g>
<!-- Node6&#45;&gt;Node8 -->
<g id="edge9_Node000006_Node000008" class="edge">
<title>Node6&#45;&gt;Node8</title>
<g id="a_edge9_Node000006_Node000008"><a xlink:title=" ">
<path fill="none" stroke="#63b8ff" d="M283.78,-48C275.51,-48 267.33,-48 259.74,-48"/>
<polygon fill="#63b8ff" stroke="#63b8ff" points="283.54,-51.5 293.54,-48 283.54,-44.5 283.54,-51.5"/>
</a>
</g>
</g>
<!-- Node7&#45;&gt;Node3 -->
<g id="edge8_Node000007_Node000003" class="edge">
<title>Node7&#45;&gt;Node3</title>
<g id="a_edge8_Node000007_Node000003"><a xlink:title=" ">
<path fill="none" stroke="#63b8ff" d="M170.34,-21.55C141.8,-28.59 105.16,-38.12 73,-48 60.94,-51.7 47.56,-56.45 37.2,-60.28"/>
<polygon fill="#63b8ff" stroke="#63b8ff" points="170.89,-25.01 179.77,-19.24 169.22,-18.21 170.89,-25.01"/>
</a>
</g>
</g>
<!-- Node8&#45;&gt;Node5 -->
<g id="edge10_Node000008_Node000005" class="edge">
<title>Node8&#45;&gt;Node5</title>
<g id="a_edge10_Node000008_Node000005"><a xlink:title=" ">
<path fill="none" stroke="#63b8ff" d="M168.9,-56.71C160.51,-58.17 151.97,-59.66 144.09,-61.03"/>
<polygon fill="#63b8ff" stroke="#63b8ff" points="169.43,-60.17 178.68,-55.01 168.23,-53.28 169.43,-60.17"/>
</a>
</g>
</g>
</g>
</svg>
