<?xml version="1.0" encoding="UTF-8" standalone="no"?>
<!DOCTYPE svg PUBLIC "-//W3C//DTD SVG 1.1//EN"
 "http://www.w3.org/Graphics/SVG/1.1/DTD/svg11.dtd">
<!-- Generated by graphviz version 14.1.4 (20260321.0153)
 -->
<!-- Title: afficher_map Pages: 1 -->
<!--zoomable 446 -->

<svg id="main" version="1.1" xmlns="http://www.w3.org/2000/svg" xmlns:xlink="http://www.w3.org/1999/xlink" xml:space="preserve" onload="init(evt)">

<style type="text/css"><![CDATA[
.node, .edge {opacity: 0.7;}
.node.selected, .edge.selected {opacity: 1;}
.edge:hover path { stroke: red; }
.edge:hover polygon { stroke: red; fill: red; }
]]></style>

<defs>
  <circle id="rim" cx="0" cy="0" r="7"/>
  <circle id="rim2" cx="0" cy="0" r="3.5"/>
  <g id="zoomPlus">
    <use xlink:href="#rim" fill="#404040"><set attributeName="fill" to="#808080" begin="zoomplus.mouseover" end="zoomplus.mouseout"/></use>
    <path d="M-4,0h8M0,-4v8" fill="none" stroke="white" stroke-width="1.5" pointer-events="none"/>
  </g>
  <g id="zoomMin">
    <use xlink:href="#rim" fill="#404040"><set attributeName="fill" to="#808080" begin="zoomminus.mouseover" end="zoomminus.mouseout"/></use>
    <path d="M-4,0h8" fill="none" stroke="white" stroke-width="1.5" pointer-events="none"/>
  </g>
  <g id="arrowUp" transform="translate(30 24)">
    <use xlink:href="#rim"/>
    <path pointer-events="none" fill="none" stroke="white" stroke-width="1.5" d="M0,-3.0v7 M-2.5,-0.5L0,-3.0L2.5,-0.5"/>
  </g>
  <g id="arrowRight" transform="rotate(90) translate(36 -43)">
    <use xlink:href="#rim"/>
    <path pointer-events="none" fill="none" stroke="white" stroke-width="1.5" d="M0,-3.0v7 M-2.5,-0.5L0,-3.0L2.5,-0.5"/>
  </g>
  <g id="arrowDown" transform="rotate(180) translate(-30 -48)">
    <use xlink:href="#rim"/>
    <path pointer-events="none" fill="none" stroke="white" stroke-width="1.5" d="M0,-3.0v7 M-2.5,-0.5L0,-3.0L2.5,-0.5"/>
  </g>
  <g id="arrowLeft" transform="rotate(270) translate(-36 17)">
    <use xlink:href="#rim"/>
    <path pointer-events="none" fill="none" stroke="white" stroke-width="1.5" d="M0,-3.0v7 M-2.5,-0.5L0,-3.0L2.5,-0.5"/>
  </g>
  <g id="resetDef">
    <use xlink:href="#rim2" fill="#404040"><set attributeName="fill" to="#808080" begin="reset.mouseover" end="reset.mouseout"/></use>
  </g>
</defs>
<script type="application/ecmascript">
var viewWidth = 612;
var viewHeight = 446;
var sectionId = 'dynsection-2';
</script>
<script type="application/ecmascript" xlink:href="svg.min.js"/>
<svg id="graph" class="graph">
<g id="viewport">
<title>afficher_map</title>
<!-- Node1 -->
<g id="Node000001" class="node">
<title>Node1</title>
<g id="a_Node000001"><a xlink:title="Affiche la carte et met a jour les elements visuels associes.">
<polygon fill="#999999" stroke="#666666" points="71.5,-248 0,-248 0,-228 71.5,-228 71.5,-248"/>
<text xml:space="preserve" text-anchor="middle" x="35.75" y="-234.5" font-family="Helvetica,sans-Serif" font-size="10.00">afficher_map</text>
</a>
</g>
</g>
<!-- Node2 -->
<g id="Node000002" class="node">
<title>Node2</title>
<g id="a_Node000002"><a xlink:href="map_8c.html#aba83f26d18c05dc9b25c70c530bd2059" target="_top" xlink:title=" ">
<polygon fill="white" stroke="#666666" points="217.62,-438 122.88,-438 122.88,-418 217.62,-418 217.62,-438"/>
<text xml:space="preserve" text-anchor="middle" x="170.25" y="-424.5" font-family="Helvetica,sans-Serif" font-size="10.00">afficher_animation</text>
</a>
</g>
</g>
<!-- Node1&#45;&gt;Node2 -->
<g id="edge1_Node000001_Node000002" class="edge">
<title>Node1&#45;&gt;Node2</title>
<g id="a_edge1_Node000001_Node000002"><a xlink:title=" ">
<path fill="none" stroke="#63b8ff" d="M37.95,-248.18C41.96,-277.61 57.61,-363.58 107.5,-409 109.15,-410.5 110.91,-411.88 112.77,-413.16"/>
<polygon fill="#63b8ff" stroke="#63b8ff" points="110.88,-416.11 121.31,-417.92 114.28,-409.99 110.88,-416.11"/>
</a>
</g>
</g>
<!-- Node3 -->
<g id="Node000003" class="node">
<title>Node3</title>
<g id="a_Node000003"><a xlink:href="map_8c.html#a3702bf28ebc4bde98bdec40016526b01" target="_top" xlink:title=" ">
<polygon fill="white" stroke="#666666" points="208.25,-400 132.25,-400 132.25,-380 208.25,-380 208.25,-400"/>
<text xml:space="preserve" text-anchor="middle" x="170.25" y="-386.5" font-family="Helvetica,sans-Serif" font-size="10.00">animation_init</text>
</a>
</g>
</g>
<!-- Node1&#45;&gt;Node3 -->
<g id="edge2_Node000001_Node000003" class="edge">
<title>Node1&#45;&gt;Node3</title>
<g id="a_edge2_Node000001_Node000003"><a xlink:title=" ">
<path fill="none" stroke="#63b8ff" d="M39.33,-248.39C46.06,-273.37 66.56,-337.2 107.5,-371 111.66,-374.43 116.44,-377.25 121.45,-379.56"/>
<polygon fill="#63b8ff" stroke="#63b8ff" points="119.95,-382.73 130.54,-383.07 122.48,-376.2 119.95,-382.73"/>
</a>
</g>
</g>
<!-- Node4 -->
<g id="Node000004" class="node">
<title>Node4</title>
<g id="a_Node000004"><a xlink:href="map_8c.html#acb0e2ded3b385aa7cd57035aa2bbf2c0" target="_top" xlink:title=" ">
<polygon fill="white" stroke="#666666" points="216.5,-362 124,-362 124,-342 216.5,-342 216.5,-362"/>
<text xml:space="preserve" text-anchor="middle" x="170.25" y="-348.5" font-family="Helvetica,sans-Serif" font-size="10.00">animation_update</text>
</a>
</g>
</g>
<!-- Node1&#45;&gt;Node4 -->
<g id="edge3_Node000001_Node000004" class="edge">
<title>Node1&#45;&gt;Node4</title>
<g id="a_edge3_Node000001_Node000004"><a xlink:title=" ">
<path fill="none" stroke="#63b8ff" d="M41.6,-248.27C51.33,-267.74 75.07,-310.11 107.5,-333 109.32,-334.29 111.23,-335.49 113.21,-336.61"/>
<polygon fill="#63b8ff" stroke="#63b8ff" points="111.62,-339.72 122.14,-340.91 114.66,-333.42 111.62,-339.72"/>
</a>
</g>
</g>
<!-- Node5 -->
<g id="Node000005" class="node">
<title>Node5</title>
<g id="a_Node000005"><a xlink:href="bouton_8c.html#ab4862740c43f8a9abb996fff0aba5ca1" target="_top" xlink:title="Met a jour l&#39;etat du bouton a partir d&#39;un evenement SDL.">
<polygon fill="white" stroke="#666666" points="233,-324 107.5,-324 107.5,-304 233,-304 233,-324"/>
<text xml:space="preserve" text-anchor="middle" x="170.25" y="-310.5" font-family="Helvetica,sans-Serif" font-size="10.00">Bouton_GererEvenement</text>
</a>
</g>
</g>
<!-- Node1&#45;&gt;Node5 -->
<g id="edge4_Node000001_Node000005" class="edge">
<title>Node1&#45;&gt;Node5</title>
<g id="a_edge4_Node000001_Node000005"><a xlink:title=" ">
<path fill="none" stroke="#63b8ff" d="M46.86,-248.27C59.84,-260.92 83.54,-282.27 107.5,-295 110.52,-296.61 113.7,-298.1 116.96,-299.48"/>
<polygon fill="#63b8ff" stroke="#63b8ff" points="115.52,-302.68 126.11,-303 118.03,-296.14 115.52,-302.68"/>
</a>
</g>
</g>
<!-- Node7 -->
<g id="Node000007" class="node">
<title>Node7</title>
<g id="a_Node000007"><a xlink:href="bouton_8c.html#a482b1feb9004901d0544e64b1c44051c" target="_top" xlink:title="Initialise un bouton (zone, texture et etat d&#39;interaction).">
<polygon fill="white" stroke="#666666" points="203,-286 137.5,-286 137.5,-266 203,-266 203,-286"/>
<text xml:space="preserve" text-anchor="middle" x="170.25" y="-272.5" font-family="Helvetica,sans-Serif" font-size="10.00">Bouton_Init</text>
</a>
</g>
</g>
<!-- Node1&#45;&gt;Node7 -->
<g id="edge6_Node000001_Node000007" class="edge">
<title>Node1&#45;&gt;Node7</title>
<g id="a_edge6_Node000001_Node000007"><a xlink:title=" ">
<path fill="none" stroke="#63b8ff" d="M71.91,-248.08C88.67,-252.89 108.87,-258.68 126.51,-263.74"/>
<polygon fill="#63b8ff" stroke="#63b8ff" points="125.07,-266.97 135.65,-266.36 127,-260.24 125.07,-266.97"/>
</a>
</g>
</g>
<!-- Node8 -->
<g id="Node000008" class="node">
<title>Node8</title>
<g id="a_Node000008"><a xlink:href="map_8c.html#a705469d4aec5f21df7066e783b77e613" target="_top" xlink:title=" ">
<polygon fill="white" stroke="#666666" points="218,-248 122.5,-248 122.5,-228 218,-228 218,-248"/>
<text xml:space="preserve" text-anchor="middle" x="170.25" y="-234.5" font-family="Helvetica,sans-Serif" font-size="10.00">detruire_animation</text>
</a>
</g>
</g>
<!-- Node1&#45;&gt;Node8 -->
<g id="edge7_Node000001_Node000008" class="edge">
<title>Node1&#45;&gt;Node8</title>
<g id="a_edge7_Node000001_Node000008"><a xlink:title=" ">
<path fill="none" stroke="#63b8ff" d="M71.91,-238C84.01,-238 97.9,-238 111.32,-238"/>
<polygon fill="#63b8ff" stroke="#63b8ff" points="110.93,-241.5 120.93,-238 110.93,-234.5 110.93,-241.5"/>
</a>
</g>
</g>
<!-- Node9 -->
<g id="Node000009" class="node">
<title>Node9</title>
<g id="a_Node000009"><a xlink:href="cinematique_8c.html#a418cc3e727578f4cd509ad27cd6a2a31" target="_top" xlink:title="Lance cinematique fin et gere son deroulement complet.">
<polygon fill="white" stroke="#666666" points="225.5,-172 115,-172 115,-152 225.5,-152 225.5,-172"/>
<text xml:space="preserve" text-anchor="middle" x="170.25" y="-158.5" font-family="Helvetica,sans-Serif" font-size="10.00">jouer_cinematique_fin</text>
</a>
</g>
</g>
<!-- Node1&#45;&gt;Node9 -->
<g id="edge8_Node000001_Node000009" class="edge">
<title>Node1&#45;&gt;Node9</title>
<g id="a_edge8_Node000001_Node000009"><a xlink:title=" ">
<path fill="none" stroke="#63b8ff" d="M48.61,-227.75C62.16,-216.43 85.32,-198.18 107.5,-186 113.72,-182.58 120.53,-179.42 127.28,-176.59"/>
<polygon fill="#63b8ff" stroke="#63b8ff" points="128.35,-179.93 136.34,-172.98 125.76,-173.43 128.35,-179.93"/>
</a>
</g>
</g>
<!-- Node10 -->
<g id="Node000010" class="node">
<title>Node10</title>
<g id="a_Node000010"><a xlink:href="son_8c.html#ae145ae699cc1eecf0684bdd530bd26f0" target="_top" xlink:title="Charge (ou recupere du cache) puis joue une piste audio.">
<polygon fill="white" stroke="#666666" points="338.62,-210 280.62,-210 280.62,-190 338.62,-190 338.62,-210"/>
<text xml:space="preserve" text-anchor="middle" x="309.62" y="-196.5" font-family="Helvetica,sans-Serif" font-size="10.00">jouer_son</text>
</a>
</g>
</g>
<!-- Node1&#45;&gt;Node10 -->
<g id="edge23_Node000001_Node000010" class="edge">
<title>Node1&#45;&gt;Node10</title>
<g id="a_edge23_Node000001_Node000010"><a xlink:title=" ">
<path fill="none" stroke="#63b8ff" d="M71.03,-227.55C82.53,-224.38 95.48,-221.17 107.5,-219 163.11,-208.98 228.37,-204.05 269.12,-201.77"/>
<polygon fill="#63b8ff" stroke="#63b8ff" points="269.13,-205.27 278.93,-201.25 268.76,-198.28 269.13,-205.27"/>
</a>
</g>
</g>
<!-- Node23 -->
<g id="Node000023" class="node">
<title>Node23</title>
<g id="a_Node000023"><a xlink:href="cinematique_8c.html#ac971d75b4591603132718d278d53f5a9" target="_top" xlink:title="Lance credits et gere son deroulement complet.">
<polygon fill="white" stroke="#666666" points="206,-134 134.5,-134 134.5,-114 206,-114 206,-134"/>
<text xml:space="preserve" text-anchor="middle" x="170.25" y="-120.5" font-family="Helvetica,sans-Serif" font-size="10.00">jouer_credits</text>
</a>
</g>
</g>
<!-- Node1&#45;&gt;Node23 -->
<g id="edge22_Node000001_Node000023" class="edge">
<title>Node1&#45;&gt;Node23</title>
<g id="a_edge22_Node000001_Node000023"><a xlink:title=" ">
<path fill="none" stroke="#63b8ff" d="M41.6,-227.73C51.33,-208.26 75.07,-165.89 107.5,-143 112.3,-139.61 117.73,-136.81 123.32,-134.51"/>
<polygon fill="#63b8ff" stroke="#63b8ff" points="124.48,-137.81 132.72,-131.16 122.13,-131.21 124.48,-137.81"/>
</a>
</g>
</g>
<!-- Node24 -->
<g id="Node000024" class="node">
<title>Node24</title>
<g id="a_Node000024"><a xlink:href="son_8c.html#ac03fc834fc400acde636715da98caeb0" target="_top" xlink:title="Met en pause toutes les pistes actuellement chargees.">
<polygon fill="white" stroke="#666666" points="212.75,-96 127.75,-96 127.75,-76 212.75,-76 212.75,-96"/>
<text xml:space="preserve" text-anchor="middle" x="170.25" y="-82.5" font-family="Helvetica,sans-Serif" font-size="10.00">son_pause_tout</text>
</a>
</g>
</g>
<!-- Node1&#45;&gt;Node24 -->
<g id="edge24_Node000001_Node000024" class="edge">
<title>Node1&#45;&gt;Node24</title>
<g id="a_edge24_Node000001_Node000024"><a xlink:title=" ">
<path fill="none" stroke="#63b8ff" d="M39.33,-227.61C46.06,-202.63 66.56,-138.8 107.5,-105 110.4,-102.61 113.59,-100.52 116.96,-98.69"/>
<polygon fill="#63b8ff" stroke="#63b8ff" points="118.4,-101.88 126.07,-94.58 115.52,-95.5 118.4,-101.88"/>
</a>
</g>
</g>
<!-- Node25 -->
<g id="Node000025" class="node">
<title>Node25</title>
<g id="a_Node000025"><a xlink:href="main_8c.html#a82958224f33fa21d40f4f7965f8396bc" target="_top" xlink:title="Met a jour screen metrics en fonction de l&#39;etat courant du jeu.">
<polygon fill="white" stroke="#666666" points="228.88,-58 111.62,-58 111.62,-38 228.88,-38 228.88,-58"/>
<text xml:space="preserve" text-anchor="middle" x="170.25" y="-44.5" font-family="Helvetica,sans-Serif" font-size="10.00">update_screen_metrics</text>
</a>
</g>
</g>
<!-- Node1&#45;&gt;Node25 -->
<g id="edge25_Node000001_Node000025" class="edge">
<title>Node1&#45;&gt;Node25</title>
<g id="a_edge25_Node000001_Node000025"><a xlink:title=" ">
<path fill="none" stroke="#63b8ff" d="M37.95,-227.82C41.96,-198.39 57.61,-112.42 107.5,-67 108.57,-66.02 109.7,-65.1 110.86,-64.22"/>
<polygon fill="#63b8ff" stroke="#63b8ff" points="112.45,-67.35 119.17,-59.16 108.81,-61.37 112.45,-67.35"/>
</a>
</g>
</g>
<!-- Node6 -->
<g id="Node000006" class="node">
<title>Node6</title>
<g id="a_Node000006"><a xlink:href="bouton_8c.html#a273a0b22067678e17b3e6b4be36e3641" target="_top" xlink:title=" ">
<polygon fill="white" stroke="#666666" points="350.25,-324 269,-324 269,-304 350.25,-304 350.25,-324"/>
<text xml:space="preserve" text-anchor="middle" x="309.62" y="-310.5" font-family="Helvetica,sans-Serif" font-size="10.00">pointDansRect</text>
</a>
</g>
</g>
<!-- Node5&#45;&gt;Node6 -->
<g id="edge5_Node000005_Node000006" class="edge">
<title>Node5&#45;&gt;Node6</title>
<g id="a_edge5_Node000005_Node000006"><a xlink:title=" ">
<path fill="none" stroke="#63b8ff" d="M233.11,-314C241.24,-314 249.5,-314 257.43,-314"/>
<polygon fill="#63b8ff" stroke="#63b8ff" points="257.25,-317.5 267.25,-314 257.25,-310.5 257.25,-317.5"/>
</a>
</g>
</g>
<!-- Node9&#45;&gt;Node10 -->
<g id="edge9_Node000009_Node000010" class="edge">
<title>Node9&#45;&gt;Node10</title>
<g id="a_edge9_Node000009_Node000010"><a xlink:title=" ">
<path fill="none" stroke="#63b8ff" d="M209.15,-172.48C227.92,-177.68 250.55,-183.94 269.48,-189.17"/>
<polygon fill="#63b8ff" stroke="#63b8ff" points="268.4,-192.51 278.98,-191.8 270.27,-185.76 268.4,-192.51"/>
</a>
</g>
</g>
<!-- Node11 -->
<g id="Node000011" class="node">
<title>Node11</title>
<g id="a_Node000011"><a xlink:href="vaisseau_8c.html#a8ea9afc9440149ddd36e96b97d8ed6c5" target="_top" xlink:title="Lance la scene interieure du vaisseau (deplacement, interactions, mini&#45;jeux, sortie).">
<polygon fill="white" stroke="#666666" points="337.12,-172 282.12,-172 282.12,-152 337.12,-152 337.12,-172"/>
<text xml:space="preserve" text-anchor="middle" x="309.62" y="-158.5" font-family="Helvetica,sans-Serif" font-size="10.00">vaisseau</text>
</a>
</g>
</g>
<!-- Node9&#45;&gt;Node11 -->
<g id="edge10_Node000009_Node000011" class="edge">
<title>Node9&#45;&gt;Node11</title>
<g id="a_edge10_Node000009_Node000011"><a xlink:title=" ">
<path fill="none" stroke="#63b8ff" d="M225.94,-162C240.75,-162 256.48,-162 270.19,-162"/>
<polygon fill="#63b8ff" stroke="#63b8ff" points="270.13,-165.5 280.13,-162 270.13,-158.5 270.13,-165.5"/>
</a>
</g>
</g>
<!-- Node12 -->
<g id="Node000012" class="node">
<title>Node12</title>
<g id="a_Node000012"><a xlink:href="perso_8c.html#ae1d84a7757bff4f91b5388a92d99653c" target="_top" xlink:title="Affiche perso et met a jour les elements visuels associes.">
<polygon fill="white" stroke="#666666" points="478.38,-324 401.62,-324 401.62,-304 478.38,-304 478.38,-324"/>
<text xml:space="preserve" text-anchor="middle" x="440" y="-310.5" font-family="Helvetica,sans-Serif" font-size="10.00">afficher_perso</text>
</a>
</g>
</g>
<!-- Node11&#45;&gt;Node12 -->
<g id="edge11_Node000011_Node000012" class="edge">
<title>Node11&#45;&gt;Node12</title>
<g id="a_edge11_Node000011_Node000012"><a xlink:title=" ">
<path fill="none" stroke="#63b8ff" d="M337.44,-171.13C342.2,-173.72 346.75,-176.97 350.25,-181 385.08,-221.13 349.44,-256.69 386.25,-295 387.82,-296.63 389.54,-298.12 391.36,-299.49"/>
<polygon fill="#63b8ff" stroke="#63b8ff" points="389.54,-302.48 399.93,-304.53 393.09,-296.44 389.54,-302.48"/>
</a>
</g>
</g>
<!-- Node13 -->
<g id="Node000013" class="node">
<title>Node13</title>
<g id="a_Node000013"><a xlink:href="perso_8c.html#aa234db7602e3e4190d21e9ffc79f3899" target="_top" xlink:title="Affiche les statistiques et met a jour les elements visuels associes.">
<polygon fill="white" stroke="#666666" points="474.62,-286 405.38,-286 405.38,-266 474.62,-266 474.62,-286"/>
<text xml:space="preserve" text-anchor="middle" x="440" y="-272.5" font-family="Helvetica,sans-Serif" font-size="10.00">afficher_stat</text>
</a>
</g>
</g>
<!-- Node11&#45;&gt;Node13 -->
<g id="edge12_Node000011_Node000013" class="edge">
<title>Node11&#45;&gt;Node13</title>
<g id="a_edge12_Node000011_Node000013"><a xlink:title=" ">
<path fill="none" stroke="#63b8ff" d="M337.43,-171.74C342.08,-174.26 346.59,-177.32 350.25,-181 376.62,-207.49 358.58,-231.88 386.25,-257 388.83,-259.35 391.73,-261.41 394.79,-263.22"/>
<polygon fill="#63b8ff" stroke="#63b8ff" points="393.13,-266.3 403.65,-267.52 396.19,-260 393.13,-266.3"/>
</a>
</g>
</g>
<!-- Node14 -->
<g id="Node000014" class="node">
<title>Node14</title>
<g id="a_Node000014"><a xlink:href="vaisseau_8c.html#a65aa51a88252bf0513ce59cb9ef35358" target="_top" xlink:title=" ">
<polygon fill="white" stroke="#666666" points="474.62,-248 405.38,-248 405.38,-228 474.62,-228 474.62,-248"/>
<text xml:space="preserve" text-anchor="middle" x="440" y="-234.5" font-family="Helvetica,sans-Serif" font-size="10.00">afficher_text</text>
</a>
</g>
</g>
<!-- Node11&#45;&gt;Node14 -->
<g id="edge13_Node000011_Node000014" class="edge">
<title>Node11&#45;&gt;Node14</title>
<g id="a_edge13_Node000011_Node000014"><a xlink:title=" ">
<path fill="none" stroke="#63b8ff" d="M335.73,-172.32C340.73,-174.85 345.81,-177.76 350.25,-181 369.05,-194.7 366.78,-206.27 386.25,-219 388.92,-220.75 391.78,-222.36 394.72,-223.84"/>
<polygon fill="#63b8ff" stroke="#63b8ff" points="393.01,-226.91 403.57,-227.78 395.86,-220.52 393.01,-226.91"/>
</a>
</g>
</g>
<!-- Node15 -->
<g id="Node000015" class="node">
<title>Node15</title>
<g id="a_Node000015"><a xlink:href="vaisseau_8c.html#a0a52a68b442fd4ce981c10ec1ff84f8a" target="_top" xlink:title=" ">
<polygon fill="white" stroke="#666666" points="476.12,-210 403.88,-210 403.88,-190 476.12,-190 476.12,-210"/>
<text xml:space="preserve" text-anchor="middle" x="440" y="-196.5" font-family="Helvetica,sans-Serif" font-size="10.00">charger_map</text>
</a>
</g>
</g>
<!-- Node11&#45;&gt;Node15 -->
<g id="edge14_Node000011_Node000015" class="edge">
<title>Node11&#45;&gt;Node15</title>
<g id="a_edge14_Node000011_Node000015"><a xlink:title=" ">
<path fill="none" stroke="#63b8ff" d="M337.54,-169.97C353.56,-174.71 374.34,-180.86 392.91,-186.36"/>
<polygon fill="#63b8ff" stroke="#63b8ff" points="391.8,-189.68 402.38,-189.16 393.78,-182.97 391.8,-189.68"/>
</a>
</g>
</g>
<!-- Node17 -->
<g id="Node000017" class="node">
<title>Node17</title>
<g id="a_Node000017"><a xlink:href="perso_8c.html#ac17ff910702e240707df1bb1443a3411" target="_top" xlink:title="Met a jour la position du joueur selon les entrees clavier et le delta temps.">
<polygon fill="white" stroke="#666666" points="481,-172 399,-172 399,-152 481,-152 481,-172"/>
<text xml:space="preserve" text-anchor="middle" x="440" y="-158.5" font-family="Helvetica,sans-Serif" font-size="10.00">deplacer_perso</text>
</a>
</g>
</g>
<!-- Node11&#45;&gt;Node17 -->
<g id="edge16_Node000011_Node000017" class="edge">
<title>Node11&#45;&gt;Node17</title>
<g id="a_edge16_Node000011_Node000017"><a xlink:title=" ">
<path fill="none" stroke="#63b8ff" d="M337.54,-162C352.13,-162 370.66,-162 387.88,-162"/>
<polygon fill="#63b8ff" stroke="#63b8ff" points="387.44,-165.5 397.44,-162 387.44,-158.5 387.44,-165.5"/>
</a>
</g>
</g>
<!-- Node18 -->
<g id="Node000018" class="node">
<title>Node18</title>
<g id="a_Node000018"><a xlink:href="vaisseau_8c.html#abd89247360d01ab77071e64639967e59" target="_top" xlink:title=" ">
<polygon fill="white" stroke="#666666" points="470.5,-134 409.5,-134 409.5,-114 470.5,-114 470.5,-134"/>
<text xml:space="preserve" text-anchor="middle" x="440" y="-120.5" font-family="Helvetica,sans-Serif" font-size="10.00">draw_map</text>
</a>
</g>
</g>
<!-- Node11&#45;&gt;Node18 -->
<g id="edge17_Node000011_Node000018" class="edge">
<title>Node11&#45;&gt;Node18</title>
<g id="a_edge17_Node000011_Node000018"><a xlink:title=" ">
<path fill="none" stroke="#63b8ff" d="M337.54,-154.03C355.2,-148.81 378.62,-141.87 398.51,-135.99"/>
<polygon fill="#63b8ff" stroke="#63b8ff" points="399.39,-139.38 407.98,-133.18 397.4,-132.66 399.39,-139.38"/>
</a>
</g>
</g>
<!-- Node19 -->
<g id="Node000019" class="node">
<title>Node19</title>
<g id="a_Node000019"><a xlink:href="vaisseau_8c.html#a5046ff6c88d57c428dd11a79a392baf5" target="_top" xlink:title=" ">
<polygon fill="white" stroke="#666666" points="493.75,-96 386.25,-96 386.25,-76 493.75,-76 493.75,-96"/>
<text xml:space="preserve" text-anchor="middle" x="440" y="-82.5" font-family="Helvetica,sans-Serif" font-size="10.00">est_en_collision_rect</text>
</a>
</g>
</g>
<!-- Node11&#45;&gt;Node19 -->
<g id="edge18_Node000011_Node000019" class="edge">
<title>Node11&#45;&gt;Node19</title>
<g id="a_edge18_Node000011_Node000019"><a xlink:title=" ">
<path fill="none" stroke="#63b8ff" d="M322.17,-151.53C336.38,-139.07 361.67,-118.3 386.25,-105 388.93,-103.55 391.74,-102.17 394.61,-100.87"/>
<polygon fill="#63b8ff" stroke="#63b8ff" points="395.85,-104.14 403.74,-97.07 393.16,-97.68 395.85,-104.14"/>
</a>
</g>
</g>
<!-- Node21 -->
<g id="Node000021" class="node">
<title>Node21</title>
<g id="a_Node000021"><a xlink:href="vaisseau_8c.html#a6d467f247475d877f0ac79307d90a748" target="_top" xlink:title=" ">
<polygon fill="white" stroke="#666666" points="472,-58 408,-58 408,-38 472,-38 472,-58"/>
<text xml:space="preserve" text-anchor="middle" x="440" y="-44.5" font-family="Helvetica,sans-Serif" font-size="10.00">est_proche</text>
</a>
</g>
</g>
<!-- Node11&#45;&gt;Node21 -->
<g id="edge20_Node000011_Node000021" class="edge">
<title>Node11&#45;&gt;Node21</title>
<g id="a_edge20_Node000011_Node000021"><a xlink:title=" ">
<path fill="none" stroke="#63b8ff" d="M316.27,-151.58C327.26,-132.23 353.36,-90.59 386.25,-67 389.65,-64.56 393.4,-62.4 397.29,-60.5"/>
<polygon fill="#63b8ff" stroke="#63b8ff" points="398.51,-63.79 406.34,-56.65 395.77,-57.34 398.51,-63.79"/>
</a>
</g>
</g>
<!-- Node22 -->
<g id="Node000022" class="node">
<title>Node22</title>
<g id="a_Node000022"><a xlink:href="perso_8c.html#a3a1b30f1d4b3a050543f4a881d549636" target="_top" xlink:title="Met a jour animation en fonction de l&#39;etat courant du jeu.">
<polygon fill="white" stroke="#666666" points="486.25,-20 393.75,-20 393.75,0 486.25,0 486.25,-20"/>
<text xml:space="preserve" text-anchor="middle" x="440" y="-6.5" font-family="Helvetica,sans-Serif" font-size="10.00">update_animation</text>
</a>
</g>
</g>
<!-- Node11&#45;&gt;Node22 -->
<g id="edge21_Node000011_Node000022" class="edge">
<title>Node11&#45;&gt;Node22</title>
<g id="a_edge21_Node000011_Node000022"><a xlink:title=" ">
<path fill="none" stroke="#63b8ff" d="M313.7,-151.72C321.62,-127.01 345,-63.73 386.25,-29 387.51,-27.94 388.83,-26.94 390.2,-25.99"/>
<polygon fill="#63b8ff" stroke="#63b8ff" points="391.55,-29.25 398.5,-21.25 388.08,-23.17 391.55,-29.25"/>
</a>
</g>
</g>
<!-- Node16 -->
<g id="Node000016" class="node">
<title>Node16</title>
<g id="a_Node000016"><a xlink:href="vaisseau_8c.html#ab8c3ef62605a90b8f6064f44052a3318" target="_top" xlink:title="Positionne le personnage a une tuile donnee en recentrant la camera.">
<polygon fill="white" stroke="#666666" points="603.5,-210 529.75,-210 529.75,-190 603.5,-190 603.5,-210"/>
<text xml:space="preserve" text-anchor="middle" x="566.62" y="-196.5" font-family="Helvetica,sans-Serif" font-size="10.00">spawn_perso</text>
</a>
</g>
</g>
<!-- Node15&#45;&gt;Node16 -->
<g id="edge15_Node000015_Node000016" class="edge">
<title>Node15&#45;&gt;Node16</title>
<g id="a_edge15_Node000015_Node000016"><a xlink:title=" ">
<path fill="none" stroke="#63b8ff" d="M476.38,-200C489.31,-200 504.16,-200 517.98,-200"/>
<polygon fill="#63b8ff" stroke="#63b8ff" points="517.78,-203.5 527.78,-200 517.78,-196.5 517.78,-203.5"/>
</a>
</g>
</g>
<!-- Node20 -->
<g id="Node000020" class="node">
<title>Node20</title>
<g id="a_Node000020"><a xlink:href="vaisseau_8c.html#a2d5dec4ed1b45587058f07a6de497eaf" target="_top" xlink:title=" ">
<polygon fill="white" stroke="#666666" points="600.12,-96 533.12,-96 533.12,-76 600.12,-76 600.12,-96"/>
<text xml:space="preserve" text-anchor="middle" x="566.62" y="-82.5" font-family="Helvetica,sans-Serif" font-size="10.00">en_collision</text>
</a>
</g>
</g>
<!-- Node19&#45;&gt;Node20 -->
<g id="edge19_Node000019_Node000020" class="edge">
<title>Node19&#45;&gt;Node20</title>
<g id="a_edge19_Node000019_Node000020"><a xlink:title=" ">
<path fill="none" stroke="#63b8ff" d="M494.21,-86C503.32,-86 512.69,-86 521.53,-86"/>
<polygon fill="#63b8ff" stroke="#63b8ff" points="521.26,-89.5 531.26,-86 521.26,-82.5 521.26,-89.5"/>
</a>
</g>
</g>
</g>
</svg>

<g id="navigator" transform="translate(0 0)" fill="#404254">
  <rect fill="#f2f5e9" fill-opacity="0.5" stroke="#606060" stroke-width=".5" x="0" y="0" width="60" height="60"/>
  <use id="zoomplus" xlink:href="#zoomPlus" x="17" y="9" onmousedown="handleZoom(evt,'in')"/>
  <use id="zoomminus" xlink:href="#zoomMin" x="42" y="9" onmousedown="handleZoom(evt,'out')"/>
  <use id="reset" xlink:href="#resetDef" x="30" y="36" onmousedown="handleReset()"/>
   <use id="arrowup" xlink:href="#arrowUp" x="0" y="0" onmousedown="handlePan(0,-1)"/>
  <use id="arrowright" xlink:href="#arrowRight" x="0" y="0" onmousedown="handlePan(1,0)"/>
  <use id="arrowdown" xlink:href="#arrowDown" x="0" y="0" onmousedown="handlePan(0,1)"/>
  <use id="arrowleft" xlink:href="#arrowLeft" x="0" y="0" onmousedown="handlePan(-1,0)"/>
</g>
<svg viewBox="0 0 15 15" width="100%" height="30px" preserveAspectRatio="xMaxYMin meet">
 <g id="arrow_out" transform="scale(0.3 0.3)">
  <a xlink:href="map_8c_ad462ccdd50801fb085dc8134fc3765d1_cgraph_org.svg" target="_base">
   <rect id="button" ry="5" rx="5" y="6" x="6" height="38" width="38"
        fill="#f2f5e9" fill-opacity="0.5" stroke="#606060" stroke-width="1.0"/>
   <path id="arrow"
     d="M 11.500037,31.436501 C 11.940474,20.09759 22.043105,11.32322 32.158766,21.979434 L 37.068811,17.246167 C 37.068811,17.246167 37.088388,32 37.088388,32 L 22.160133,31.978069 C 22.160133,31.978069 26.997745,27.140456 26.997745,27.140456 C 18.528582,18.264221 13.291696,25.230495 11.500037,31.436501 z"
     style="fill:#404040;"/>
  </a>
 </g>
</svg>

<style type='text/css'>
<![CDATA[
[data-mouse-over-selected='false'] { opacity: 0.7; }
[data-mouse-over-selected='true']  { opacity: 1.0; }
]]>
</style>
<script type="application/ecmascript"><![CDATA[
document.addEventListener('DOMContentLoaded', (event) => {
  highlightEdges();
  highlightAdjacentNodes();
});
]]></script>
</svg>
