<?xml version="1.0" encoding="UTF-8" standalone="no"?>
<!DOCTYPE svg PUBLIC "-//W3C//DTD SVG 1.1//EN"
 "http://www.w3.org/Graphics/SVG/1.1/DTD/svg11.dtd">
<!-- Generated by graphviz version 14.1.4 (20260321.0153)
 -->
<!-- Title: animation_update Pages: 1 -->
<svg width="596pt" height="75pt"
 viewBox="0.00 0.00 596.00 75.00" xmlns="http://www.w3.org/2000/svg" xmlns:xlink="http://www.w3.org/1999/xlink">
<g id="graph0" class="graph" transform="scale(1 1) rotate(0) translate(4 71)">
<title>animation_update</title>
<!-- Node1 -->
<g id="Node000001" class="node">
<title>Node1</title>
<g id="a_Node000001"><a xlink:title=" ">
<polygon fill="#999999" stroke="#666666" points="587.75,-39 495.25,-39 495.25,-19 587.75,-19 587.75,-39"/>
<text xml:space="preserve" text-anchor="middle" x="541.5" y="-25.5" font-family="Helvetica,sans-Serif" font-size="10.00">animation_update</text>
</a>
</g>
</g>
<!-- Node2 -->
<g id="Node000002" class="node">
<title>Node2</title>
<g id="a_Node000002"><a xlink:href="map_8c.html#ad462ccdd50801fb085dc8134fc3765d1" target="_top" xlink:title="Affiche la carte et met a jour les elements visuels associes.">
<polygon fill="white" stroke="#666666" points="459.25,-39 387.75,-39 387.75,-19 459.25,-19 459.25,-39"/>
<text xml:space="preserve" text-anchor="middle" x="423.5" y="-25.5" font-family="Helvetica,sans-Serif" font-size="10.00">afficher_map</text>
</a>
</g>
</g>
<!-- Node1&#45;&gt;Node2 -->
<g id="edge1_Node000001_Node000002" class="edge">
<title>Node1&#45;&gt;Node2</title>
<g id="a_edge1_Node000001_Node000002"><a xlink:title=" ">
<path fill="none" stroke="#63b8ff" d="M483.49,-29C475.29,-29 467.07,-29 459.48,-29"/>
<polygon fill="#63b8ff" stroke="#63b8ff" points="483.47,-32.5 493.47,-29 483.47,-25.5 483.47,-32.5"/>
</a>
</g>
</g>
<!-- Node3 -->
<g id="Node000003" class="node">
<title>Node3</title>
<g id="a_Node000003"><a xlink:href="vaisseau_8c.html#ace614afc8df3a40bd5ea0771044ff217" target="_top" xlink:title=" ">
<polygon fill="white" stroke="#666666" points="351.75,-39 237.5,-39 237.5,-19 351.75,-19 351.75,-39"/>
<text xml:space="preserve" text-anchor="middle" x="294.62" y="-25.5" font-family="Helvetica,sans-Serif" font-size="10.00">gerer_interaction_objet</text>
</a>
</g>
</g>
<!-- Node2&#45;&gt;Node3 -->
<g id="edge2_Node000002_Node000003" class="edge">
<title>Node2&#45;&gt;Node3</title>
<g id="a_edge2_Node000002_Node000003"><a xlink:title=" ">
<path fill="none" stroke="#63b8ff" d="M375.99,-29C368.17,-29 359.99,-29 351.96,-29"/>
<polygon fill="#63b8ff" stroke="#63b8ff" points="375.98,-32.5 385.98,-29 375.98,-25.5 375.98,-32.5"/>
</a>
</g>
</g>
<!-- Node6 -->
<g id="Node000006" class="node">
<title>Node6</title>
<g id="a_Node000006"><a xlink:href="main_8c.html#a0ddf1224851353fc92bfbff6f499fa97" target="_top" xlink:title=" ">
<polygon fill="white" stroke="#666666" points="73.75,-67 36.75,-67 36.75,-47 73.75,-47 73.75,-67"/>
<text xml:space="preserve" text-anchor="middle" x="55.25" y="-53.5" font-family="Helvetica,sans-Serif" font-size="10.00">main</text>
</a>
</g>
</g>
<!-- Node2&#45;&gt;Node6 -->
<g id="edge7_Node000002_Node000006" class="edge">
<title>Node2&#45;&gt;Node6</title>
<g id="a_edge7_Node000002_Node000006"><a xlink:title=" ">
<path fill="none" stroke="#63b8ff" d="M379.06,-42.36C370.11,-44.63 360.69,-46.68 351.75,-48 247.4,-63.39 120.17,-59.87 74.03,-57.88"/>
<polygon fill="#63b8ff" stroke="#63b8ff" points="379.86,-45.77 388.61,-39.79 378.05,-39.01 379.86,-45.77"/>
</a>
</g>
</g>
<!-- Node4 -->
<g id="Node000004" class="node">
<title>Node4</title>
<g id="a_Node000004"><a xlink:href="vaisseau_8c.html#a8ea9afc9440149ddd36e96b97d8ed6c5" target="_top" xlink:title="Lance la scene interieure du vaisseau (deplacement, interactions, mini&#45;jeux, sortie).">
<polygon fill="white" stroke="#666666" points="201.5,-39 146.5,-39 146.5,-19 201.5,-19 201.5,-39"/>
<text xml:space="preserve" text-anchor="middle" x="174" y="-25.5" font-family="Helvetica,sans-Serif" font-size="10.00">vaisseau</text>
</a>
</g>
</g>
<!-- Node3&#45;&gt;Node4 -->
<g id="edge3_Node000003_Node000004" class="edge">
<title>Node3&#45;&gt;Node4</title>
<g id="a_edge3_Node000003_Node000004"><a xlink:title=" ">
<path fill="none" stroke="#63b8ff" d="M225.59,-29C217.21,-29 209.07,-29 201.85,-29"/>
<polygon fill="#63b8ff" stroke="#63b8ff" points="225.58,-32.5 235.58,-29 225.58,-25.5 225.58,-32.5"/>
</a>
</g>
</g>
<!-- Node5 -->
<g id="Node000005" class="node">
<title>Node5</title>
<g id="a_Node000005"><a xlink:href="cinematique_8c.html#a418cc3e727578f4cd509ad27cd6a2a31" target="_top" xlink:title="Lance cinematique fin et gere son deroulement complet.">
<polygon fill="white" stroke="#666666" points="110.5,-20 0,-20 0,0 110.5,0 110.5,-20"/>
<text xml:space="preserve" text-anchor="middle" x="55.25" y="-6.5" font-family="Helvetica,sans-Serif" font-size="10.00">jouer_cinematique_fin</text>
</a>
</g>
</g>
<!-- Node4&#45;&gt;Node5 -->
<g id="edge4_Node000004_Node000005" class="edge">
<title>Node4&#45;&gt;Node5</title>
<g id="a_edge4_Node000004_Node000005"><a xlink:title=" ">
<path fill="none" stroke="#63b8ff" d="M134.9,-22.8C127.11,-21.53 118.78,-20.18 110.55,-18.84"/>
<polygon fill="#63b8ff" stroke="#63b8ff" points="134.29,-26.25 144.72,-24.4 135.41,-19.34 134.29,-26.25"/>
</a>
</g>
</g>
<!-- Node4&#45;&gt;Node6 -->
<g id="edge6_Node000004_Node000006" class="edge">
<title>Node4&#45;&gt;Node6</title>
<g id="a_edge6_Node000004_Node000006"><a xlink:title=" ">
<path fill="none" stroke="#63b8ff" d="M135.02,-38.11C114.59,-43.01 90.34,-48.82 74.2,-52.69"/>
<polygon fill="#63b8ff" stroke="#63b8ff" points="135.84,-41.51 144.74,-35.78 134.2,-34.71 135.84,-41.51"/>
</a>
</g>
</g>
<!-- Node5&#45;&gt;Node2 -->
<g id="edge5_Node000005_Node000002" class="edge">
<title>Node5&#45;&gt;Node2</title>
<g id="a_edge5_Node000005_Node000002"><a xlink:title=" ">
<path fill="none" stroke="#63b8ff" d="M122.22,-5.08C182.32,-1.77 273.39,0.34 351.75,-10 364.74,-11.71 378.73,-15.12 390.81,-18.59"/>
<polygon fill="#63b8ff" stroke="#63b8ff" points="122.28,-1.57 112.5,-5.65 122.69,-8.56 122.28,-1.57"/>
</a>
</g>
</g>
</g>
</svg>
