<?xml version="1.0" encoding="UTF-8" standalone="no"?>
<!DOCTYPE svg PUBLIC "-//W3C//DTD SVG 1.1//EN"
 "http://www.w3.org/Graphics/SVG/1.1/DTD/svg11.dtd">
<!-- Generated by graphviz version 14.1.4 (20260321.0153)
 -->
<!-- Title: src/map.c Pages: 1 -->
<!--zoomable 196 -->

<svg id="main" version="1.1" xmlns="http://www.w3.org/2000/svg" xmlns:xlink="http://www.w3.org/1999/xlink" xml:space="preserve" onload="init(evt)">

<style type="text/css"><![CDATA[
.node, .edge {opacity: 0.7;}
.node.selected, .edge.selected {opacity: 1;}
.edge:hover path { stroke: red; }
.edge:hover polygon { stroke: red; fill: red; }
]]></style>

<defs>
  <circle id="rim" cx="0" cy="0" r="7"/>
  <circle id="rim2" cx="0" cy="0" r="3.5"/>
  <g id="zoomPlus">
    <use xlink:href="#rim" fill="#404040"><set attributeName="fill" to="#808080" begin="zoomplus.mouseover" end="zoomplus.mouseout"/></use>
    <path d="M-4,0h8M0,-4v8" fill="none" stroke="white" stroke-width="1.5" pointer-events="none"/>
  </g>
  <g id="zoomMin">
    <use xlink:href="#rim" fill="#404040"><set attributeName="fill" to="#808080" begin="zoomminus.mouseover" end="zoomminus.mouseout"/></use>
    <path d="M-4,0h8" fill="none" stroke="white" stroke-width="1.5" pointer-events="none"/>
  </g>
  <g id="arrowUp" transform="translate(30 24)">
    <use xlink:href="#rim"/>
    <path pointer-events="none" fill="none" stroke="white" stroke-width="1.5" d="M0,-3.0v7 M-2.5,-0.5L0,-3.0L2.5,-0.5"/>
  </g>
  <g id="arrowRight" transform="rotate(90) translate(36 -43)">
    <use xlink:href="#rim"/>
    <path pointer-events="none" fill="none" stroke="white" stroke-width="1.5" d="M0,-3.0v7 M-2.5,-0.5L0,-3.0L2.5,-0.5"/>
  </g>
  <g id="arrowDown" transform="rotate(180) translate(-30 -48)">
    <use xlink:href="#rim"/>
    <path pointer-events="none" fill="none" stroke="white" stroke-width="1.5" d="M0,-3.0v7 M-2.5,-0.5L0,-3.0L2.5,-0.5"/>
  </g>
  <g id="arrowLeft" transform="rotate(270) translate(-36 17)">
    <use xlink:href="#rim"/>
    <path pointer-events="none" fill="none" stroke="white" stroke-width="1.5" d="M0,-3.0v7 M-2.5,-0.5L0,-3.0L2.5,-0.5"/>
  </g>
  <g id="resetDef">
    <use xlink:href="#rim2" fill="#404040"><set attributeName="fill" to="#808080" begin="reset.mouseover" end="reset.mouseout"/></use>
  </g>
</defs>
<script type="application/ecmascript">
var viewWidth = 1649;
var viewHeight = 196;
var sectionId = 'dynsection-0';
</script>
<script type="application/ecmascript" xlink:href="svg.min.js"/>
<svg id="graph" class="graph">
<g id="viewport">
<title>src/map.c</title>
<!-- Node1 -->
<g id="Node000001" class="node">
<title>Node1</title>
<g id="a_Node000001"><a xlink:title="Chargement, rendu et interactions de la carte du monde.">
<polygon fill="#999999" stroke="#666666" points="1556.57,-188 1497.07,-188 1497.07,-168 1556.57,-168 1556.57,-188"/>
<text xml:space="preserve" text-anchor="middle" x="1526.82" y="-174.5" font-family="Helvetica,sans-Serif" font-size="10.00">src/map.c</text>
</a>
</g>
</g>
<!-- Node2 -->
<g id="Node000002" class="node">
<title>Node2</title>
<g id="a_Node000002"><a xlink:title=" ">
<polygon fill="#e0e0e0" stroke="#999999" points="883.57,-20 812.07,-20 812.07,0 883.57,0 883.57,-20"/>
<text xml:space="preserve" text-anchor="middle" x="847.82" y="-6.5" font-family="Helvetica,sans-Serif" font-size="10.00">SDL3/SDL.h</text>
</a>
</g>
</g>
<!-- Node1&#45;&gt;Node2 -->
<g id="edge1_Node000001_Node000002" class="edge">
<title>Node1&#45;&gt;Node2</title>
<g id="a_edge1_Node000001_Node000002"><a xlink:title=" ">
<path fill="none" stroke="#63b8ff" d="M1528.74,-167.68C1532.88,-144.74 1539.81,-85.3 1507.82,-56 1502.15,-50.81 1045.07,-22.87 894.98,-13.83"/>
<polygon fill="#63b8ff" stroke="#63b8ff" points="895.59,-10.36 885.4,-13.25 895.17,-17.34 895.59,-10.36"/>
</a>
</g>
</g>
<!-- Node3 -->
<g id="Node000003" class="node">
<title>Node3</title>
<g id="a_Node000003"><a xlink:title=" ">
<polygon fill="#e0e0e0" stroke="#999999" points="467.07,-20 332.57,-20 332.57,0 467.07,0 467.07,-20"/>
<text xml:space="preserve" text-anchor="middle" x="399.82" y="-6.5" font-family="Helvetica,sans-Serif" font-size="10.00">SDL3_image/SDL_image.h</text>
</a>
</g>
</g>
<!-- Node1&#45;&gt;Node3 -->
<g id="edge2_Node000001_Node000003" class="edge">
<title>Node1&#45;&gt;Node3</title>
<g id="a_edge2_Node000001_Node000003"><a xlink:title=" ">
<path fill="none" stroke="#63b8ff" d="M1496.88,-176.17C1288.27,-170.24 58.37,-132.95 5.82,-76 -38.28,-28.21 193.8,-15.56 321,-12.21"/>
<polygon fill="#63b8ff" stroke="#63b8ff" points="320.79,-15.71 330.7,-11.97 320.62,-8.72 320.79,-15.71"/>
</a>
</g>
</g>
<!-- Node4 -->
<g id="Node000004" class="node">
<title>Node4</title>
<g id="a_Node000004"><a xlink:title=" ">
<polygon fill="#e0e0e0" stroke="#999999" points="1363.82,-20 1263.82,-20 1263.82,0 1363.82,0 1363.82,-20"/>
<text xml:space="preserve" text-anchor="middle" x="1313.82" y="-6.5" font-family="Helvetica,sans-Serif" font-size="10.00">SDL3_ttf/SDL_ttf.h</text>
</a>
</g>
</g>
<!-- Node1&#45;&gt;Node4 -->
<g id="edge3_Node000001_Node000004" class="edge">
<title>Node1&#45;&gt;Node4</title>
<g id="a_edge3_Node000001_Node000004"><a xlink:title=" ">
<path fill="none" stroke="#63b8ff" d="M1532.04,-167.53C1543.54,-145.26 1567.93,-89.01 1540.82,-56 1530.29,-43.19 1438.94,-28.18 1375.39,-19.15"/>
<polygon fill="#63b8ff" stroke="#63b8ff" points="1376.15,-15.72 1365.76,-17.8 1375.18,-22.65 1376.15,-15.72"/>
</a>
</g>
</g>
<!-- Node5 -->
<g id="Node000005" class="node">
<title>Node5</title>
<g id="a_Node000005"><a xlink:title=" ">
<polygon fill="#e0e0e0" stroke="#999999" points="1640.57,-132 1593.07,-132 1593.07,-112 1640.57,-112 1640.57,-132"/>
<text xml:space="preserve" text-anchor="middle" x="1616.82" y="-118.5" font-family="Helvetica,sans-Serif" font-size="10.00">limits.h</text>
</a>
</g>
</g>
<!-- Node1&#45;&gt;Node5 -->
<g id="edge4_Node000001_Node000005" class="edge">
<title>Node1&#45;&gt;Node5</title>
<g id="a_edge4_Node000001_Node000005"><a xlink:title=" ">
<path fill="none" stroke="#63b8ff" d="M1542.49,-167.59C1555.96,-159.51 1575.64,-147.71 1591.36,-138.27"/>
<polygon fill="#63b8ff" stroke="#63b8ff" points="1592.95,-141.4 1599.72,-133.26 1589.34,-135.4 1592.95,-141.4"/>
</a>
</g>
</g>
<!-- Node6 -->
<g id="Node000006" class="node">
<title>Node6</title>
<g id="a_Node000006"><a xlink:href="main_8h.html" target="_top" xlink:title="Declarations globales et utilitaires partages entre les modules du jeu.">
<polygon fill="white" stroke="#666666" points="794.19,-132 711.44,-132 711.44,-112 794.19,-112 794.19,-132"/>
<text xml:space="preserve" text-anchor="middle" x="752.82" y="-118.5" font-family="Helvetica,sans-Serif" font-size="10.00">headers/main.h</text>
</a>
</g>
</g>
<!-- Node1&#45;&gt;Node6 -->
<g id="edge5_Node000001_Node000006" class="edge">
<title>Node1&#45;&gt;Node6</title>
<g id="a_edge5_Node000001_Node000006"><a xlink:title=" ">
<path fill="none" stroke="#63b8ff" d="M1496.95,-174.92C1380.38,-166.78 955.15,-137.12 805.42,-126.67"/>
<polygon fill="#63b8ff" stroke="#63b8ff" points="806.02,-123.2 795.8,-126 805.53,-130.19 806.02,-123.2"/>
</a>
</g>
</g>
<!-- Node6&#45;&gt;Node2 -->
<g id="edge6_Node000006_Node000002" class="edge">
<title>Node6&#45;&gt;Node2</title>
<g id="a_edge6_Node000006_Node000002"><a xlink:title=" ">
<path fill="none" stroke="#63b8ff" d="M794.41,-119.94C900.51,-116.83 1174.75,-105.92 1201.82,-76 1207.78,-69.41 1207.69,-62.67 1201.82,-56 1181.88,-33.37 987.48,-19.13 895.54,-13.61"/>
<polygon fill="#63b8ff" stroke="#63b8ff" points="895.76,-10.12 885.57,-13.02 895.35,-17.11 895.76,-10.12"/>
</a>
</g>
</g>
<!-- Node6&#45;&gt;Node3 -->
<g id="edge7_Node000006_Node000003" class="edge">
<title>Node6&#45;&gt;Node3</title>
<g id="a_edge7_Node000006_Node000003"><a xlink:title=" ">
<path fill="none" stroke="#63b8ff" d="M710.97,-120.02C558.29,-116.23 38.81,-101.5 14.82,-76 -28.54,-29.92 196.05,-16.48 320.86,-12.58"/>
<polygon fill="#63b8ff" stroke="#63b8ff" points="320.85,-16.08 330.74,-12.29 320.64,-9.09 320.85,-16.08"/>
</a>
</g>
</g>
<!-- Node7 -->
<g id="Node000007" class="node">
<title>Node7</title>
<g id="a_Node000007"><a xlink:title=" ">
<polygon fill="#e0e0e0" stroke="#999999" points="679.82,-76 633.82,-76 633.82,-56 679.82,-56 679.82,-76"/>
<text xml:space="preserve" text-anchor="middle" x="656.82" y="-62.5" font-family="Helvetica,sans-Serif" font-size="10.00">math.h</text>
</a>
</g>
</g>
<!-- Node6&#45;&gt;Node7 -->
<g id="edge8_Node000006_Node000007" class="edge">
<title>Node6&#45;&gt;Node7</title>
<g id="a_edge8_Node000006_Node000007"><a xlink:title=" ">
<path fill="none" stroke="#63b8ff" d="M736.09,-111.59C721.59,-103.44 700.34,-91.48 683.49,-82"/>
<polygon fill="#63b8ff" stroke="#63b8ff" points="685.42,-79.07 674.99,-77.22 681.99,-85.17 685.42,-79.07"/>
</a>
</g>
</g>
<!-- Node8 -->
<g id="Node000008" class="node">
<title>Node8</title>
<g id="a_Node000008"><a xlink:title=" ">
<polygon fill="#e0e0e0" stroke="#999999" points="1155.82,-20 1025.82,-20 1025.82,0 1155.82,0 1155.82,-20"/>
<text xml:space="preserve" text-anchor="middle" x="1090.82" y="-6.5" font-family="Helvetica,sans-Serif" font-size="10.00">SDL3_mixer/SDL_mixer.h</text>
</a>
</g>
</g>
<!-- Node6&#45;&gt;Node8 -->
<g id="edge9_Node000006_Node000008" class="edge">
<title>Node6&#45;&gt;Node8</title>
<g id="a_edge9_Node000006_Node000008"><a xlink:title=" ">
<path fill="none" stroke="#63b8ff" d="M794.56,-121.2C928.06,-121.43 1338.17,-118.61 1377.82,-76 1383.87,-69.49 1383.59,-62.75 1377.82,-56 1364.22,-40.1 1247.65,-25.9 1167.33,-17.89"/>
<polygon fill="#63b8ff" stroke="#63b8ff" points="1168.05,-14.44 1157.75,-16.94 1167.36,-21.41 1168.05,-14.44"/>
</a>
</g>
</g>
<!-- Node9 -->
<g id="Node000009" class="node">
<title>Node9</title>
<g id="a_Node000009"><a xlink:title=" ">
<polygon fill="#e0e0e0" stroke="#999999" points="743.44,-76 698.19,-76 698.19,-56 743.44,-56 743.44,-76"/>
<text xml:space="preserve" text-anchor="middle" x="720.82" y="-62.5" font-family="Helvetica,sans-Serif" font-size="10.00">stdio.h</text>
</a>
</g>
</g>
<!-- Node6&#45;&gt;Node9 -->
<g id="edge10_Node000006_Node000009" class="edge">
<title>Node6&#45;&gt;Node9</title>
<g id="a_edge10_Node000006_Node000009"><a xlink:title=" ">
<path fill="none" stroke="#63b8ff" d="M747.24,-111.59C743.07,-104.55 737.21,-94.67 732.08,-86"/>
<polygon fill="#63b8ff" stroke="#63b8ff" points="735.21,-84.42 727.1,-77.6 729.19,-87.99 735.21,-84.42"/>
</a>
</g>
</g>
<!-- Node10 -->
<g id="Node000010" class="node">
<title>Node10</title>
<g id="a_Node000010"><a xlink:title=" ">
<polygon fill="#e0e0e0" stroke="#999999" points="808.57,-76 761.07,-76 761.07,-56 808.57,-56 808.57,-76"/>
<text xml:space="preserve" text-anchor="middle" x="784.82" y="-62.5" font-family="Helvetica,sans-Serif" font-size="10.00">stdlib.h</text>
</a>
</g>
</g>
<!-- Node6&#45;&gt;Node10 -->
<g id="edge11_Node000006_Node000010" class="edge">
<title>Node6&#45;&gt;Node10</title>
<g id="a_edge11_Node000006_Node000010"><a xlink:title=" ">
<path fill="none" stroke="#63b8ff" d="M758.39,-111.59C762.57,-104.55 768.42,-94.67 773.56,-86"/>
<polygon fill="#63b8ff" stroke="#63b8ff" points="776.45,-87.99 778.54,-77.6 770.43,-84.42 776.45,-87.99"/>
</a>
</g>
</g>
<!-- Node11 -->
<g id="Node000011" class="node">
<title>Node11</title>
<g id="a_Node000011"><a xlink:href="menu_8h.html" target="_top" xlink:title="Fichier du menu principal et des choix de navigation.">
<polygon fill="white" stroke="#666666" points="553.94,-76 505.69,-76 505.69,-56 553.94,-56 553.94,-76"/>
<text xml:space="preserve" text-anchor="middle" x="529.82" y="-62.5" font-family="Helvetica,sans-Serif" font-size="10.00">menu.h</text>
</a>
</g>
</g>
<!-- Node6&#45;&gt;Node11 -->
<g id="edge12_Node000006_Node000011" class="edge">
<title>Node6&#45;&gt;Node11</title>
<g id="a_edge12_Node000006_Node000011"><a xlink:title=" ">
<path fill="none" stroke="#63b8ff" d="M711.21,-111.57C675.06,-103.28 621.02,-90.67 565.43,-76.61"/>
<polygon fill="#63b8ff" stroke="#63b8ff" points="566.32,-73.22 555.77,-74.15 564.6,-80.01 566.32,-73.22"/>
</a>
</g>
</g>
<!-- Node12 -->
<g id="Node000012" class="node">
<title>Node12</title>
<g id="a_Node000012"><a xlink:href="game__over_8h.html" target="_top" xlink:title="Fichier de l&#39;ecran de fin de partie et des transitions associees.">
<polygon fill="white" stroke="#666666" points="354.94,-76 282.69,-76 282.69,-56 354.94,-56 354.94,-76"/>
<text xml:space="preserve" text-anchor="middle" x="318.82" y="-62.5" font-family="Helvetica,sans-Serif" font-size="10.00">game_over.h</text>
</a>
</g>
</g>
<!-- Node6&#45;&gt;Node12 -->
<g id="edge15_Node000006_Node000012" class="edge">
<title>Node6&#45;&gt;Node12</title>
<g id="a_edge15_Node000006_Node000012"><a xlink:title=" ">
<path fill="none" stroke="#63b8ff" d="M711.21,-117.32C641.83,-110.94 497.89,-96.65 366.2,-76.26"/>
<polygon fill="#63b8ff" stroke="#63b8ff" points="367.04,-72.85 356.62,-74.76 365.95,-79.77 367.04,-72.85"/>
</a>
</g>
</g>
<!-- Node13 -->
<g id="Node000013" class="node">
<title>Node13</title>
<g id="a_Node000013"><a xlink:href="jeux_8h.html" target="_top" xlink:title="Fichier de la boucle de jeu principale et de son initialisation.">
<polygon fill="white" stroke="#666666" points="868.94,-76 826.69,-76 826.69,-56 868.94,-56 868.94,-76"/>
<text xml:space="preserve" text-anchor="middle" x="847.82" y="-62.5" font-family="Helvetica,sans-Serif" font-size="10.00">jeux.h</text>
</a>
</g>
</g>
<!-- Node6&#45;&gt;Node13 -->
<g id="edge18_Node000006_Node000013" class="edge">
<title>Node6&#45;&gt;Node13</title>
<g id="a_edge18_Node000006_Node000013"><a xlink:title=" ">
<path fill="none" stroke="#63b8ff" d="M769.36,-111.59C783.72,-103.44 804.74,-91.48 821.42,-82"/>
<polygon fill="#63b8ff" stroke="#63b8ff" points="822.86,-85.21 829.82,-77.23 819.4,-79.13 822.86,-85.21"/>
</a>
</g>
</g>
<!-- Node14 -->
<g id="Node000014" class="node">
<title>Node14</title>
<g id="a_Node000014"><a xlink:href="bouton_8h.html" target="_top" xlink:title="Fichier des boutons UI, de leur etat et de la gestion des interactions souris.">
<polygon fill="white" stroke="#666666" points="426.57,-76 373.07,-76 373.07,-56 426.57,-56 426.57,-76"/>
<text xml:space="preserve" text-anchor="middle" x="399.82" y="-62.5" font-family="Helvetica,sans-Serif" font-size="10.00">bouton.h</text>
</a>
</g>
</g>
<!-- Node6&#45;&gt;Node14 -->
<g id="edge22_Node000006_Node000014" class="edge">
<title>Node6&#45;&gt;Node14</title>
<g id="a_edge22_Node000006_Node000014"><a xlink:title=" ">
<path fill="none" stroke="#63b8ff" d="M711.15,-116.6C652.3,-110.06 541.28,-96.53 438.12,-76.49"/>
<polygon fill="#63b8ff" stroke="#63b8ff" points="438.85,-73.07 428.37,-74.57 437.5,-79.94 438.85,-73.07"/>
</a>
</g>
</g>
<!-- Node15 -->
<g id="Node000015" class="node">
<title>Node15</title>
<g id="a_Node000015"><a xlink:href="option_8h.html" target="_top" xlink:title="Fichier de l&#39;ecran d&#39;options et des reglages de jeu.">
<polygon fill="white" stroke="#666666" points="74.07,-76 23.57,-76 23.57,-56 74.07,-56 74.07,-76"/>
<text xml:space="preserve" text-anchor="middle" x="48.82" y="-62.5" font-family="Helvetica,sans-Serif" font-size="10.00">option.h</text>
</a>
</g>
</g>
<!-- Node6&#45;&gt;Node15 -->
<g id="edge25_Node000006_Node000015" class="edge">
<title>Node6&#45;&gt;Node15</title>
<g id="a_edge25_Node000006_Node000015"><a xlink:title=" ">
<path fill="none" stroke="#63b8ff" d="M710.94,-120.96C606.62,-120.28 326.71,-114.84 85.42,-76.12"/>
<polygon fill="#63b8ff" stroke="#63b8ff" points="86.25,-72.71 75.82,-74.56 85.12,-79.62 86.25,-72.71"/>
</a>
</g>
</g>
<!-- Node16 -->
<g id="Node000016" class="node">
<title>Node16</title>
<g id="a_Node000016"><a xlink:href="perso_8h.html" target="_top" xlink:title="Fichier du personnage: deplacement, combat, stats et collisions.">
<polygon fill="white" stroke="#666666" points="139.94,-76 91.69,-76 91.69,-56 139.94,-56 139.94,-76"/>
<text xml:space="preserve" text-anchor="middle" x="115.82" y="-62.5" font-family="Helvetica,sans-Serif" font-size="10.00">perso.h</text>
</a>
</g>
</g>
<!-- Node6&#45;&gt;Node16 -->
<g id="edge28_Node000006_Node000016" class="edge">
<title>Node6&#45;&gt;Node16</title>
<g id="a_edge28_Node000006_Node000016"><a xlink:title=" ">
<path fill="none" stroke="#63b8ff" d="M711.11,-120.64C614.24,-119.21 366.55,-112.2 151.4,-76.12"/>
<polygon fill="#63b8ff" stroke="#63b8ff" points="152.15,-72.7 141.7,-74.47 150.97,-79.6 152.15,-72.7"/>
</a>
</g>
</g>
<!-- Node17 -->
<g id="Node000017" class="node">
<title>Node17</title>
<g id="a_Node000017"><a xlink:href="son_8h.html" target="_top" xlink:title="Fichier audio: musique, effets sonores et etats d&#39;activation.">
<polygon fill="white" stroke="#666666" points="1368.82,-76 1328.82,-76 1328.82,-56 1368.82,-56 1368.82,-76"/>
<text xml:space="preserve" text-anchor="middle" x="1348.82" y="-62.5" font-family="Helvetica,sans-Serif" font-size="10.00">son.h</text>
</a>
</g>
</g>
<!-- Node6&#45;&gt;Node17 -->
<g id="edge31_Node000006_Node000017" class="edge">
<title>Node6&#45;&gt;Node17</title>
<g id="a_edge31_Node000006_Node000017"><a xlink:title=" ">
<path fill="none" stroke="#63b8ff" d="M794.5,-120.84C887.15,-119.81 1117.13,-113.55 1317.06,-76.12"/>
<polygon fill="#63b8ff" stroke="#63b8ff" points="1317.71,-79.56 1326.88,-74.25 1316.4,-72.68 1317.71,-79.56"/>
</a>
</g>
</g>
<!-- Node18 -->
<g id="Node000018" class="node">
<title>Node18</title>
<g id="a_Node000018"><a xlink:href="boss_8h.html" target="_top" xlink:title="Fichier du module boss (declarations publiques).">
<polygon fill="white" stroke="#666666" points="203.44,-76 158.19,-76 158.19,-56 203.44,-56 203.44,-76"/>
<text xml:space="preserve" text-anchor="middle" x="180.82" y="-62.5" font-family="Helvetica,sans-Serif" font-size="10.00">boss.h</text>
</a>
</g>
</g>
<!-- Node6&#45;&gt;Node18 -->
<g id="edge36_Node000006_Node000018" class="edge">
<title>Node6&#45;&gt;Node18</title>
<g id="a_edge36_Node000006_Node000018"><a xlink:title=" ">
<path fill="none" stroke="#63b8ff" d="M711.04,-120.36C621.51,-118.37 404.48,-110.33 215.01,-76.27"/>
<polygon fill="#63b8ff" stroke="#63b8ff" points="215.67,-72.83 205.21,-74.47 214.41,-79.72 215.67,-72.83"/>
</a>
</g>
</g>
<!-- Node19 -->
<g id="Node000019" class="node">
<title>Node19</title>
<g id="a_Node000019"><a xlink:href="mob_8h.html" target="_top" xlink:title="Fichier des mobs: creation, mise a jour, rendu et file de respawn.">
<polygon fill="white" stroke="#666666" points="264.32,-76 221.32,-76 221.32,-56 264.32,-56 264.32,-76"/>
<text xml:space="preserve" text-anchor="middle" x="242.82" y="-62.5" font-family="Helvetica,sans-Serif" font-size="10.00">mob.h</text>
</a>
</g>
</g>
<!-- Node6&#45;&gt;Node19 -->
<g id="edge39_Node000006_Node000019" class="edge">
<title>Node6&#45;&gt;Node19</title>
<g id="a_edge39_Node000006_Node000019"><a xlink:title=" ">
<path fill="none" stroke="#63b8ff" d="M711.12,-119.73C629.29,-116.67 441.89,-106.85 275.63,-75.98"/>
<polygon fill="#63b8ff" stroke="#63b8ff" points="276.67,-72.61 266.2,-74.19 275.37,-79.49 276.67,-72.61"/>
</a>
</g>
</g>
<!-- Node20 -->
<g id="Node000020" class="node">
<title>Node20</title>
<g id="a_Node000020"><a xlink:href="vaisseau_8h.html" target="_top" xlink:title="Fichier de la scene vaisseau, des interactions et du retour en planete.">
<polygon fill="white" stroke="#666666" points="1013.44,-76 950.19,-76 950.19,-56 1013.44,-56 1013.44,-76"/>
<text xml:space="preserve" text-anchor="middle" x="981.82" y="-62.5" font-family="Helvetica,sans-Serif" font-size="10.00">vaisseau.h</text>
</a>
</g>
</g>
<!-- Node6&#45;&gt;Node20 -->
<g id="edge42_Node000006_Node000020" class="edge">
<title>Node6&#45;&gt;Node20</title>
<g id="a_edge42_Node000006_Node000020"><a xlink:title=" ">
<path fill="none" stroke="#63b8ff" d="M792.97,-111.53C833.86,-101.89 897.04,-86.99 938.9,-77.12"/>
<polygon fill="#63b8ff" stroke="#63b8ff" points="939.44,-80.59 948.37,-74.89 937.83,-73.78 939.44,-80.59"/>
</a>
</g>
</g>
<!-- Node21 -->
<g id="Node000021" class="node">
<title>Node21</title>
<g id="a_Node000021"><a xlink:href="map_8h.html" target="_top" xlink:title="Fichier de navigation carte et de gestion des ressources cartographiques.">
<polygon fill="white" stroke="#666666" points="615.32,-76 572.32,-76 572.32,-56 615.32,-56 615.32,-76"/>
<text xml:space="preserve" text-anchor="middle" x="593.82" y="-62.5" font-family="Helvetica,sans-Serif" font-size="10.00">map.h</text>
</a>
</g>
</g>
<!-- Node6&#45;&gt;Node21 -->
<g id="edge44_Node000006_Node000021" class="edge">
<title>Node6&#45;&gt;Node21</title>
<g id="a_edge44_Node000006_Node000021"><a xlink:title=" ">
<path fill="none" stroke="#63b8ff" d="M725.12,-111.59C697.63,-102.26 655.5,-87.95 626.41,-78.07"/>
<polygon fill="#63b8ff" stroke="#63b8ff" points="627.61,-74.78 617.01,-74.88 625.36,-81.41 627.61,-74.78"/>
</a>
</g>
</g>
<!-- Node22 -->
<g id="Node000022" class="node">
<title>Node22</title>
<g id="a_Node000022"><a xlink:href="item_8h.html" target="_top" xlink:title="Fichier de creation, d&#39;affichage et de destruction des items.">
<polygon fill="white" stroke="#666666" points="487.32,-76 444.32,-76 444.32,-56 487.32,-56 487.32,-76"/>
<text xml:space="preserve" text-anchor="middle" x="465.82" y="-62.5" font-family="Helvetica,sans-Serif" font-size="10.00">item.h</text>
</a>
</g>
</g>
<!-- Node6&#45;&gt;Node22 -->
<g id="edge48_Node000006_Node000022" class="edge">
<title>Node6&#45;&gt;Node22</title>
<g id="a_edge48_Node000006_Node000022"><a xlink:title=" ">
<path fill="none" stroke="#63b8ff" d="M711.3,-115.12C662.62,-107.91 579.31,-94.62 498.61,-76.2"/>
<polygon fill="#63b8ff" stroke="#63b8ff" points="499.76,-72.87 489.23,-74.03 498.18,-79.69 499.76,-72.87"/>
</a>
</g>
</g>
<!-- Node23 -->
<g id="Node000023" class="node">
<title>Node23</title>
<g id="a_Node000023"><a xlink:href="inventaire_8h.html" target="_top" xlink:title="Fichier de l&#39;inventaire, de la hotbar et des interactions de slots.">
<polygon fill="white" stroke="#666666" points="1192.94,-76 1126.69,-76 1126.69,-56 1192.94,-56 1192.94,-76"/>
<text xml:space="preserve" text-anchor="middle" x="1159.82" y="-62.5" font-family="Helvetica,sans-Serif" font-size="10.00">inventaire.h</text>
</a>
</g>
</g>
<!-- Node6&#45;&gt;Node23 -->
<g id="edge51_Node000006_Node000023" class="edge">
<title>Node6&#45;&gt;Node23</title>
<g id="a_edge51_Node000006_Node000023"><a xlink:title=" ">
<path fill="none" stroke="#63b8ff" d="M794.47,-116.99C860.28,-110.41 992.56,-96.18 1115.44,-76.09"/>
<polygon fill="#63b8ff" stroke="#63b8ff" points="1115.75,-79.58 1125.04,-74.5 1114.6,-72.68 1115.75,-79.58"/>
</a>
</g>
</g>
<!-- Node24 -->
<g id="Node000024" class="node">
<title>Node24</title>
<g id="a_Node000024"><a xlink:href="sauvegarde_8h.html" target="_top" xlink:title="Fichier des slots de sauvegarde et du chargement de progression.">
<polygon fill="white" stroke="#666666" points="1499.07,-76 1424.57,-76 1424.57,-56 1499.07,-56 1499.07,-76"/>
<text xml:space="preserve" text-anchor="middle" x="1461.82" y="-62.5" font-family="Helvetica,sans-Serif" font-size="10.00">sauvegarde.h</text>
</a>
</g>
</g>
<!-- Node6&#45;&gt;Node24 -->
<g id="edge55_Node000006_Node000024" class="edge">
<title>Node6&#45;&gt;Node24</title>
<g id="a_edge55_Node000006_Node000024"><a xlink:title=" ">
<path fill="none" stroke="#63b8ff" d="M794.53,-119.69C898.79,-116.07 1178.95,-104.31 1410.82,-76 1411.64,-75.9 1412.46,-75.8 1413.3,-75.69"/>
<polygon fill="#63b8ff" stroke="#63b8ff" points="1413.39,-79.21 1422.79,-74.31 1412.39,-72.28 1413.39,-79.21"/>
</a>
</g>
</g>
<!-- Node26 -->
<g id="Node000026" class="node">
<title>Node26</title>
<g id="a_Node000026"><a xlink:href="objectifs_8h.html" target="_top" xlink:title="Fichier de suivi des objectifs de quete et de leur affichage.">
<polygon fill="white" stroke="#666666" points="1310.32,-76 1249.32,-76 1249.32,-56 1310.32,-56 1310.32,-76"/>
<text xml:space="preserve" text-anchor="middle" x="1279.82" y="-62.5" font-family="Helvetica,sans-Serif" font-size="10.00">objectifs.h</text>
</a>
</g>
</g>
<!-- Node6&#45;&gt;Node26 -->
<g id="edge58_Node000006_Node000026" class="edge">
<title>Node6&#45;&gt;Node26</title>
<g id="a_edge58_Node000006_Node000026"><a xlink:title=" ">
<path fill="none" stroke="#63b8ff" d="M794.58,-118.57C878.37,-113.38 1072.86,-99.69 1234.82,-76 1235.82,-75.85 1236.83,-75.7 1237.85,-75.54"/>
<polygon fill="#63b8ff" stroke="#63b8ff" points="1238.16,-79.04 1247.41,-73.88 1236.96,-72.14 1238.16,-79.04"/>
</a>
</g>
</g>
<!-- Node27 -->
<g id="Node000027" class="node">
<title>Node27</title>
<g id="a_Node000027"><a xlink:href="cinematique_8h.html" target="_top" xlink:title="Fichier des cinematics, des intros et des sequences de credits.">
<polygon fill="white" stroke="#666666" points="1108.19,-76 1031.44,-76 1031.44,-56 1108.19,-56 1108.19,-76"/>
<text xml:space="preserve" text-anchor="middle" x="1069.82" y="-62.5" font-family="Helvetica,sans-Serif" font-size="10.00">cinematique.h</text>
</a>
</g>
</g>
<!-- Node6&#45;&gt;Node27 -->
<g id="edge62_Node000006_Node000027" class="edge">
<title>Node6&#45;&gt;Node27</title>
<g id="a_edge62_Node000006_Node000027"><a xlink:title=" ">
<path fill="none" stroke="#63b8ff" d="M794.5,-114.37C845.36,-106.21 934.26,-91.73 1019.87,-76.5"/>
<polygon fill="#63b8ff" stroke="#63b8ff" points="1020.38,-79.96 1029.61,-74.76 1019.15,-73.07 1020.38,-79.96"/>
</a>
</g>
</g>
<!-- Node28 -->
<g id="Node000028" class="node">
<title>Node28</title>
<g id="a_Node000028"><a xlink:href="shop_8h.html" target="_top" xlink:title="Fichier de la boutique, des achats et de l&#39;economie joueur.">
<polygon fill="white" stroke="#666666" points="932.44,-76 887.19,-76 887.19,-56 932.44,-56 932.44,-76"/>
<text xml:space="preserve" text-anchor="middle" x="909.82" y="-62.5" font-family="Helvetica,sans-Serif" font-size="10.00">shop.h</text>
</a>
</g>
</g>
<!-- Node6&#45;&gt;Node28 -->
<g id="edge64_Node000006_Node000028" class="edge">
<title>Node6&#45;&gt;Node28</title>
<g id="a_edge64_Node000006_Node000028"><a xlink:title=" ">
<path fill="none" stroke="#63b8ff" d="M780.16,-111.59C806.84,-102.42 847.49,-88.44 876.14,-78.58"/>
<polygon fill="#63b8ff" stroke="#63b8ff" points="877.11,-81.95 885.43,-75.39 874.84,-75.33 877.11,-81.95"/>
</a>
</g>
</g>
<!-- Node11&#45;&gt;Node2 -->
<g id="edge13_Node000011_Node000002" class="edge">
<title>Node11&#45;&gt;Node2</title>
<g id="a_edge13_Node000011_Node000002"><a xlink:title=" ">
<path fill="none" stroke="#63b8ff" d="M554.25,-58.02C557.13,-57.29 560.03,-56.6 562.82,-56 645.75,-38.2 743.67,-24.26 800.46,-16.86"/>
<polygon fill="#63b8ff" stroke="#63b8ff" points="800.62,-20.37 810.09,-15.62 799.72,-13.43 800.62,-20.37"/>
</a>
</g>
</g>
<!-- Node11&#45;&gt;Node3 -->
<g id="edge14_Node000011_Node000003" class="edge">
<title>Node11&#45;&gt;Node3</title>
<g id="a_edge14_Node000011_Node000003"><a xlink:title=" ">
<path fill="none" stroke="#63b8ff" d="M507.17,-55.59C486.7,-47.09 456.3,-34.46 433.07,-24.81"/>
<polygon fill="#63b8ff" stroke="#63b8ff" points="434.61,-21.66 424.04,-21.06 431.93,-28.13 434.61,-21.66"/>
</a>
</g>
</g>
<!-- Node12&#45;&gt;Node2 -->
<g id="edge16_Node000012_Node000002" class="edge">
<title>Node12&#45;&gt;Node2</title>
<g id="a_edge16_Node000012_Node000002"><a xlink:title=" ">
<path fill="none" stroke="#63b8ff" d="M355.11,-57.4C358.05,-56.89 360.98,-56.41 363.82,-56 523.09,-32.73 713.7,-19.16 800.54,-13.75"/>
<polygon fill="#63b8ff" stroke="#63b8ff" points="800.56,-17.25 810.33,-13.15 800.13,-10.26 800.56,-17.25"/>
</a>
</g>
</g>
<!-- Node12&#45;&gt;Node3 -->
<g id="edge17_Node000012_Node000003" class="edge">
<title>Node12&#45;&gt;Node3</title>
<g id="a_edge17_Node000012_Node000003"><a xlink:title=" ">
<path fill="none" stroke="#63b8ff" d="M332.93,-55.59C344.82,-47.67 362.08,-36.16 376.09,-26.82"/>
<polygon fill="#63b8ff" stroke="#63b8ff" points="377.96,-29.78 384.34,-21.32 374.08,-23.95 377.96,-29.78"/>
</a>
</g>
</g>
<!-- Node13&#45;&gt;Node2 -->
<g id="edge19_Node000013_Node000002" class="edge">
<title>Node13&#45;&gt;Node2</title>
<g id="a_edge19_Node000013_Node000002"><a xlink:title=" ">
<path fill="none" stroke="#63b8ff" d="M847.82,-55.59C847.82,-49.01 847.82,-39.96 847.82,-31.73"/>
<polygon fill="#63b8ff" stroke="#63b8ff" points="851.32,-31.81 847.82,-21.81 844.32,-31.81 851.32,-31.81"/>
</a>
</g>
</g>
<!-- Node13&#45;&gt;Node3 -->
<g id="edge20_Node000013_Node000003" class="edge">
<title>Node13&#45;&gt;Node3</title>
<g id="a_edge20_Node000013_Node000003"><a xlink:title=" ">
<path fill="none" stroke="#63b8ff" d="M826.31,-58.03C823.47,-57.26 820.59,-56.56 817.82,-56 701.03,-32.4 563.21,-20.6 478.68,-15.15"/>
<polygon fill="#63b8ff" stroke="#63b8ff" points="479.08,-11.67 468.88,-14.53 478.64,-18.65 479.08,-11.67"/>
</a>
</g>
</g>
<!-- Node13&#45;&gt;Node8 -->
<g id="edge21_Node000013_Node000008" class="edge">
<title>Node13&#45;&gt;Node8</title>
<g id="a_edge21_Node000013_Node000008"><a xlink:title=" ">
<path fill="none" stroke="#63b8ff" d="M869.39,-58.29C872.21,-57.49 875.08,-56.7 877.82,-56 928.41,-43.09 986.43,-31.01 1029.13,-22.62"/>
<polygon fill="#63b8ff" stroke="#63b8ff" points="1029.56,-26.1 1038.7,-20.75 1028.22,-19.23 1029.56,-26.1"/>
</a>
</g>
</g>
<!-- Node14&#45;&gt;Node2 -->
<g id="edge23_Node000014_Node000002" class="edge">
<title>Node14&#45;&gt;Node2</title>
<g id="a_edge23_Node000014_Node000002"><a xlink:title=" ">
<path fill="none" stroke="#63b8ff" d="M426.86,-57.64C429.54,-57.03 432.22,-56.47 434.82,-56 566.09,-32.1 723.32,-19.24 800.43,-13.95"/>
<polygon fill="#63b8ff" stroke="#63b8ff" points="800.41,-17.46 810.15,-13.29 799.94,-10.47 800.41,-17.46"/>
</a>
</g>
</g>
<!-- Node14&#45;&gt;Node3 -->
<g id="edge24_Node000014_Node000003" class="edge">
<title>Node14&#45;&gt;Node3</title>
<g id="a_edge24_Node000014_Node000003"><a xlink:title=" ">
<path fill="none" stroke="#63b8ff" d="M399.82,-55.59C399.82,-49.01 399.82,-39.96 399.82,-31.73"/>
<polygon fill="#63b8ff" stroke="#63b8ff" points="403.32,-31.81 399.82,-21.81 396.32,-31.81 403.32,-31.81"/>
</a>
</g>
</g>
<!-- Node15&#45;&gt;Node2 -->
<g id="edge26_Node000015_Node000002" class="edge">
<title>Node15&#45;&gt;Node2</title>
<g id="a_edge26_Node000015_Node000002"><a xlink:title=" ">
<path fill="none" stroke="#63b8ff" d="M74.32,-57.66C77.17,-57.02 80.04,-56.44 82.82,-56 222.23,-33.68 656.34,-17.44 800.64,-12.54"/>
<polygon fill="#63b8ff" stroke="#63b8ff" points="800.33,-16.05 810.21,-12.22 800.09,-9.05 800.33,-16.05"/>
</a>
</g>
</g>
<!-- Node15&#45;&gt;Node3 -->
<g id="edge27_Node000015_Node000003" class="edge">
<title>Node15&#45;&gt;Node3</title>
<g id="a_edge27_Node000015_Node000003"><a xlink:title=" ">
<path fill="none" stroke="#63b8ff" d="M74.36,-57.89C77.2,-57.21 80.06,-56.56 82.82,-56 163.38,-39.68 256.64,-27.2 321.05,-19.57"/>
<polygon fill="#63b8ff" stroke="#63b8ff" points="321.3,-23.06 330.82,-18.42 320.48,-16.11 321.3,-23.06"/>
</a>
</g>
</g>
<!-- Node16&#45;&gt;Node2 -->
<g id="edge29_Node000016_Node000002" class="edge">
<title>Node16&#45;&gt;Node2</title>
<g id="a_edge29_Node000016_Node000002"><a xlink:title=" ">
<path fill="none" stroke="#63b8ff" d="M140.2,-57.76C143.09,-57.08 146.01,-56.47 148.82,-56 391.52,-15.52 687.24,-10.92 800.55,-10.77"/>
<polygon fill="#63b8ff" stroke="#63b8ff" points="800.37,-14.27 810.37,-10.77 800.37,-7.27 800.37,-14.27"/>
</a>
</g>
</g>
<!-- Node16&#45;&gt;Node3 -->
<g id="edge30_Node000016_Node000003" class="edge">
<title>Node16&#45;&gt;Node3</title>
<g id="a_edge30_Node000016_Node000003"><a xlink:title=" ">
<path fill="none" stroke="#63b8ff" d="M140.26,-58.07C143.14,-57.34 146.04,-56.63 148.82,-56 208.44,-42.55 276.75,-30.52 327.04,-22.29"/>
<polygon fill="#63b8ff" stroke="#63b8ff" points="327.33,-25.79 336.64,-20.73 326.21,-18.88 327.33,-25.79"/>
</a>
</g>
</g>
<!-- Node17&#45;&gt;Node2 -->
<g id="edge32_Node000017_Node000002" class="edge">
<title>Node17&#45;&gt;Node2</title>
<g id="a_edge32_Node000017_Node000002"><a xlink:title=" ">
<path fill="none" stroke="#63b8ff" d="M1328.36,-58.08C1325.51,-57.28 1322.61,-56.56 1319.82,-56 1239.38,-39.86 998.07,-21.58 895.16,-14.27"/>
<polygon fill="#63b8ff" stroke="#63b8ff" points="895.62,-10.79 885.4,-13.58 895.13,-17.78 895.62,-10.79"/>
</a>
</g>
</g>
<!-- Node17&#45;&gt;Node3 -->
<g id="edge33_Node000017_Node000003" class="edge">
<title>Node17&#45;&gt;Node3</title>
<g id="a_edge33_Node000017_Node000003"><a xlink:title=" ">
<path fill="none" stroke="#63b8ff" d="M1328.38,-57.96C1325.53,-57.18 1322.62,-56.5 1319.82,-56 1159.32,-27.64 671.14,-15.91 478.85,-12.31"/>
<polygon fill="#63b8ff" stroke="#63b8ff" points="479.02,-8.81 468.96,-12.13 478.89,-15.81 479.02,-8.81"/>
</a>
</g>
</g>
<!-- Node17&#45;&gt;Node4 -->
<g id="edge34_Node000017_Node000004" class="edge">
<title>Node17&#45;&gt;Node4</title>
<g id="a_edge34_Node000017_Node000004"><a xlink:title=" ">
<path fill="none" stroke="#63b8ff" d="M1342.72,-55.59C1338.1,-48.47 1331.61,-38.45 1325.95,-29.72"/>
<polygon fill="#63b8ff" stroke="#63b8ff" points="1329.04,-28.06 1320.67,-21.57 1323.17,-31.86 1329.04,-28.06"/>
</a>
</g>
</g>
<!-- Node17&#45;&gt;Node8 -->
<g id="edge35_Node000017_Node000008" class="edge">
<title>Node17&#45;&gt;Node8</title>
<g id="a_edge35_Node000017_Node000008"><a xlink:title=" ">
<path fill="none" stroke="#63b8ff" d="M1328.61,-58.43C1325.68,-57.56 1322.68,-56.72 1319.82,-56 1266.22,-42.46 1204.71,-30.57 1158.94,-22.42"/>
<polygon fill="#63b8ff" stroke="#63b8ff" points="1159.6,-18.98 1149.15,-20.69 1158.39,-25.87 1159.6,-18.98"/>
</a>
</g>
</g>
<!-- Node18&#45;&gt;Node2 -->
<g id="edge37_Node000018_Node000002" class="edge">
<title>Node18&#45;&gt;Node2</title>
<g id="a_edge37_Node000018_Node000002"><a xlink:title=" ">
<path fill="none" stroke="#63b8ff" d="M203.71,-57.77C206.42,-57.08 209.17,-56.47 211.82,-56 429.24,-17.2 694.08,-11.55 800.35,-10.94"/>
<polygon fill="#63b8ff" stroke="#63b8ff" points="800.13,-14.44 810.11,-10.9 800.1,-7.44 800.13,-14.44"/>
</a>
</g>
</g>
<!-- Node18&#45;&gt;Node3 -->
<g id="edge38_Node000018_Node000003" class="edge">
<title>Node18&#45;&gt;Node3</title>
<g id="a_edge38_Node000018_Node000003"><a xlink:title=" ">
<path fill="none" stroke="#63b8ff" d="M203.81,-58.19C206.5,-57.43 209.22,-56.69 211.82,-56 257.29,-43.96 309.33,-31.62 347.11,-22.91"/>
<polygon fill="#63b8ff" stroke="#63b8ff" points="347.42,-26.43 356.38,-20.78 345.85,-19.61 347.42,-26.43"/>
</a>
</g>
</g>
<!-- Node19&#45;&gt;Node2 -->
<g id="edge40_Node000019_Node000002" class="edge">
<title>Node19&#45;&gt;Node2</title>
<g id="a_edge40_Node000019_Node000002"><a xlink:title=" ">
<path fill="none" stroke="#63b8ff" d="M264.7,-58.05C267.74,-57.26 270.84,-56.54 273.82,-56 467.06,-20.76 701.85,-13.1 800.54,-11.45"/>
<polygon fill="#63b8ff" stroke="#63b8ff" points="800.43,-14.95 810.38,-11.3 800.32,-7.95 800.43,-14.95"/>
</a>
</g>
</g>
<!-- Node19&#45;&gt;Node3 -->
<g id="edge41_Node000019_Node000003" class="edge">
<title>Node19&#45;&gt;Node3</title>
<g id="a_edge41_Node000019_Node000003"><a xlink:title=" ">
<path fill="none" stroke="#63b8ff" d="M264.65,-57.49C289.71,-48.87 331.28,-34.57 361.71,-24.11"/>
<polygon fill="#63b8ff" stroke="#63b8ff" points="362.62,-27.5 370.94,-20.93 360.34,-20.88 362.62,-27.5"/>
</a>
</g>
</g>
<!-- Node20&#45;&gt;Node2 -->
<g id="edge43_Node000020_Node000002" class="edge">
<title>Node20&#45;&gt;Node2</title>
<g id="a_edge43_Node000020_Node000002"><a xlink:title=" ">
<path fill="none" stroke="#63b8ff" d="M958.48,-55.59C937.28,-47.05 905.75,-34.35 881.77,-24.68"/>
<polygon fill="#63b8ff" stroke="#63b8ff" points="883.33,-21.54 872.74,-21.05 880.71,-28.03 883.33,-21.54"/>
</a>
</g>
</g>
<!-- Node21&#45;&gt;Node2 -->
<g id="edge45_Node000021_Node000002" class="edge">
<title>Node21&#45;&gt;Node2</title>
<g id="a_edge45_Node000021_Node000002"><a xlink:title=" ">
<path fill="none" stroke="#63b8ff" d="M615.77,-58.38C618.8,-57.54 621.88,-56.72 624.82,-56 684.98,-41.22 755.13,-27.66 800.45,-19.37"/>
<polygon fill="#63b8ff" stroke="#63b8ff" points="800.99,-22.83 810.2,-17.6 799.74,-15.94 800.99,-22.83"/>
</a>
</g>
</g>
<!-- Node21&#45;&gt;Node3 -->
<g id="edge46_Node000021_Node000003" class="edge">
<title>Node21&#45;&gt;Node3</title>
<g id="a_edge46_Node000021_Node000003"><a xlink:title=" ">
<path fill="none" stroke="#63b8ff" d="M572.15,-58.67C569.02,-57.77 565.84,-56.86 562.82,-56 523.27,-44.8 478.23,-32.39 445.54,-23.45"/>
<polygon fill="#63b8ff" stroke="#63b8ff" points="446.54,-20.1 435.97,-20.84 444.7,-26.85 446.54,-20.1"/>
</a>
</g>
</g>
<!-- Node21&#45;&gt;Node8 -->
<g id="edge47_Node000021_Node000008" class="edge">
<title>Node21&#45;&gt;Node8</title>
<g id="a_edge47_Node000021_Node000008"><a xlink:title=" ">
<path fill="none" stroke="#63b8ff" d="M615.71,-58.1C618.75,-57.3 621.84,-56.57 624.82,-56 760.45,-30 921.32,-18.69 1014.18,-14.02"/>
<polygon fill="#63b8ff" stroke="#63b8ff" points="1014.11,-17.53 1023.93,-13.55 1013.77,-10.54 1014.11,-17.53"/>
</a>
</g>
</g>
<!-- Node22&#45;&gt;Node2 -->
<g id="edge49_Node000022_Node000002" class="edge">
<title>Node22&#45;&gt;Node2</title>
<g id="a_edge49_Node000022_Node000002"><a xlink:title=" ">
<path fill="none" stroke="#63b8ff" d="M487.73,-58.18C490.76,-57.37 493.85,-56.62 496.82,-56 604.28,-33.65 732.71,-20.58 800.5,-14.72"/>
<polygon fill="#63b8ff" stroke="#63b8ff" points="800.46,-18.24 810.13,-13.9 799.87,-11.26 800.46,-18.24"/>
</a>
</g>
</g>
<!-- Node22&#45;&gt;Node3 -->
<g id="edge50_Node000022_Node000003" class="edge">
<title>Node22&#45;&gt;Node3</title>
<g id="a_edge50_Node000022_Node000003"><a xlink:title=" ">
<path fill="none" stroke="#63b8ff" d="M454.32,-55.59C444.86,-47.85 431.21,-36.69 419.94,-27.47"/>
<polygon fill="#63b8ff" stroke="#63b8ff" points="422.31,-24.88 412.35,-21.26 417.88,-30.3 422.31,-24.88"/>
</a>
</g>
</g>
<!-- Node23&#45;&gt;Node2 -->
<g id="edge52_Node000023_Node000002" class="edge">
<title>Node23&#45;&gt;Node2</title>
<g id="a_edge52_Node000023_Node000002"><a xlink:title=" ">
<path fill="none" stroke="#63b8ff" d="M1126.51,-57.89C1123.24,-57.23 1119.96,-56.59 1116.82,-56 1039.43,-41.44 949.07,-26.8 895.25,-18.34"/>
<polygon fill="#63b8ff" stroke="#63b8ff" points="895.93,-14.9 885.51,-16.81 894.85,-21.82 895.93,-14.9"/>
</a>
</g>
</g>
<!-- Node23&#45;&gt;Node3 -->
<g id="edge53_Node000023_Node000003" class="edge">
<title>Node23&#45;&gt;Node3</title>
<g id="a_edge53_Node000023_Node000003"><a xlink:title=" ">
<path fill="none" stroke="#63b8ff" d="M1126.56,-57.55C1123.28,-56.96 1119.99,-56.43 1116.82,-56 886.23,-24.8 610.94,-15.17 478.56,-12.25"/>
<polygon fill="#63b8ff" stroke="#63b8ff" points="478.94,-8.76 468.87,-12.04 478.79,-15.76 478.94,-8.76"/>
</a>
</g>
</g>
<!-- Node23&#45;&gt;Node4 -->
<g id="edge54_Node000023_Node000004" class="edge">
<title>Node23&#45;&gt;Node4</title>
<g id="a_edge54_Node000023_Node000004"><a xlink:title=" ">
<path fill="none" stroke="#63b8ff" d="M1186.64,-55.59C1211.44,-46.9 1248.54,-33.89 1276.28,-24.16"/>
<polygon fill="#63b8ff" stroke="#63b8ff" points="1277.08,-27.59 1285.35,-20.98 1274.76,-20.99 1277.08,-27.59"/>
</a>
</g>
</g>
<!-- Node24&#45;&gt;Node2 -->
<g id="edge56_Node000024_Node000002" class="edge">
<title>Node24&#45;&gt;Node2</title>
<g id="a_edge56_Node000024_Node000002"><a xlink:title=" ">
<path fill="none" stroke="#63b8ff" d="M1424.2,-60.79C1409.71,-59.22 1393,-57.46 1377.82,-56 1199.75,-38.9 987.69,-21.91 895.05,-14.66"/>
<polygon fill="#63b8ff" stroke="#63b8ff" points="895.58,-11.19 885.34,-13.9 895.03,-18.17 895.58,-11.19"/>
</a>
</g>
</g>
<!-- Node25 -->
<g id="Node000025" class="node">
<title>Node25</title>
<g id="a_Node000025"><a xlink:title=" ">
<polygon fill="#e0e0e0" stroke="#999999" points="1489.69,-20 1433.94,-20 1433.94,0 1489.69,0 1489.69,-20"/>
<text xml:space="preserve" text-anchor="middle" x="1461.82" y="-6.5" font-family="Helvetica,sans-Serif" font-size="10.00">stdbool.h</text>
</a>
</g>
</g>
<!-- Node24&#45;&gt;Node25 -->
<g id="edge57_Node000024_Node000025" class="edge">
<title>Node24&#45;&gt;Node25</title>
<g id="a_edge57_Node000024_Node000025"><a xlink:title=" ">
<path fill="none" stroke="#63b8ff" d="M1461.82,-55.59C1461.82,-49.01 1461.82,-39.96 1461.82,-31.73"/>
<polygon fill="#63b8ff" stroke="#63b8ff" points="1465.32,-31.81 1461.82,-21.81 1458.32,-31.81 1465.32,-31.81"/>
</a>
</g>
</g>
<!-- Node26&#45;&gt;Node2 -->
<g id="edge59_Node000026_Node000002" class="edge">
<title>Node26&#45;&gt;Node2</title>
<g id="a_edge59_Node000026_Node000002"><a xlink:title=" ">
<path fill="none" stroke="#63b8ff" d="M1248.89,-58.47C1244.19,-57.58 1239.38,-56.72 1234.82,-56 1112.89,-36.75 968.14,-22.08 895.06,-15.24"/>
<polygon fill="#63b8ff" stroke="#63b8ff" points="895.75,-11.79 885.47,-14.35 895.11,-18.76 895.75,-11.79"/>
</a>
</g>
</g>
<!-- Node26&#45;&gt;Node3 -->
<g id="edge60_Node000026_Node000003" class="edge">
<title>Node26&#45;&gt;Node3</title>
<g id="a_edge60_Node000026_Node000003"><a xlink:title=" ">
<path fill="none" stroke="#63b8ff" d="M1249.11,-61.03C1234.76,-59.29 1217.44,-57.34 1201.82,-56 937.34,-33.34 622.78,-19.5 478.82,-13.89"/>
<polygon fill="#63b8ff" stroke="#63b8ff" points="479.15,-10.4 469.02,-13.51 478.88,-17.4 479.15,-10.4"/>
</a>
</g>
</g>
<!-- Node26&#45;&gt;Node4 -->
<g id="edge61_Node000026_Node000004" class="edge">
<title>Node26&#45;&gt;Node4</title>
<g id="a_edge61_Node000026_Node000004"><a xlink:title=" ">
<path fill="none" stroke="#63b8ff" d="M1285.74,-55.59C1290.18,-48.55 1296.4,-38.67 1301.85,-30"/>
<polygon fill="#63b8ff" stroke="#63b8ff" points="1304.79,-31.91 1307.16,-21.58 1298.87,-28.18 1304.79,-31.91"/>
</a>
</g>
</g>
<!-- Node27&#45;&gt;Node2 -->
<g id="edge63_Node000027_Node000002" class="edge">
<title>Node27&#45;&gt;Node2</title>
<g id="a_edge63_Node000027_Node000002"><a xlink:title=" ">
<path fill="none" stroke="#63b8ff" d="M1031.15,-55.59C993.22,-46.37 935.34,-32.29 894.79,-22.43"/>
<polygon fill="#63b8ff" stroke="#63b8ff" points="895.85,-19.08 885.31,-20.12 894.2,-25.88 895.85,-19.08"/>
</a>
</g>
</g>
<!-- Node28&#45;&gt;Node2 -->
<g id="edge65_Node000028_Node000002" class="edge">
<title>Node28&#45;&gt;Node2</title>
<g id="a_edge65_Node000028_Node000002"><a xlink:title=" ">
<path fill="none" stroke="#63b8ff" d="M899.02,-55.59C890.22,-47.93 877.57,-36.91 867.04,-27.75"/>
<polygon fill="#63b8ff" stroke="#63b8ff" points="869.47,-25.22 859.63,-21.29 864.88,-30.5 869.47,-25.22"/>
</a>
</g>
</g>
</g>
</svg>

<g id="navigator" transform="translate(0 0)" fill="#404254">
  <rect fill="#f2f5e9" fill-opacity="0.5" stroke="#606060" stroke-width=".5" x="0" y="0" width="60" height="60"/>
  <use id="zoomplus" xlink:href="#zoomPlus" x="17" y="9" onmousedown="handleZoom(evt,'in')"/>
  <use id="zoomminus" xlink:href="#zoomMin" x="42" y="9" onmousedown="handleZoom(evt,'out')"/>
  <use id="reset" xlink:href="#resetDef" x="30" y="36" onmousedown="handleReset()"/>
   <use id="arrowup" xlink:href="#arrowUp" x="0" y="0" onmousedown="handlePan(0,-1)"/>
  <use id="arrowright" xlink:href="#arrowRight" x="0" y="0" onmousedown="handlePan(1,0)"/>
  <use id="arrowdown" xlink:href="#arrowDown" x="0" y="0" onmousedown="handlePan(0,1)"/>
  <use id="arrowleft" xlink:href="#arrowLeft" x="0" y="0" onmousedown="handlePan(-1,0)"/>
</g>
<svg viewBox="0 0 15 15" width="100%" height="30px" preserveAspectRatio="xMaxYMin meet">
 <g id="arrow_out" transform="scale(0.3 0.3)">
  <a xlink:href="map_8c__incl_org.svg" target="_base">
   <rect id="button" ry="5" rx="5" y="6" x="6" height="38" width="38"
        fill="#f2f5e9" fill-opacity="0.5" stroke="#606060" stroke-width="1.0"/>
   <path id="arrow"
     d="M 11.500037,31.436501 C 11.940474,20.09759 22.043105,11.32322 32.158766,21.979434 L 37.068811,17.246167 C 37.068811,17.246167 37.088388,32 37.088388,32 L 22.160133,31.978069 C 22.160133,31.978069 26.997745,27.140456 26.997745,27.140456 C 18.528582,18.264221 13.291696,25.230495 11.500037,31.436501 z"
     style="fill:#404040;"/>
  </a>
 </g>
</svg>

<style type='text/css'>
<![CDATA[
[data-mouse-over-selected='false'] { opacity: 0.7; }
[data-mouse-over-selected='true']  { opacity: 1.0; }
]]>
</style>
<script type="application/ecmascript"><![CDATA[
document.addEventListener('DOMContentLoaded', (event) => {
  highlightEdges();
  highlightAdjacentNodes();
});
]]></script>
</svg>
