<?xml version="1.0" encoding="UTF-8" standalone="no"?>
<!DOCTYPE svg PUBLIC "-//W3C//DTD SVG 1.1//EN"
 "http://www.w3.org/Graphics/SVG/1.1/DTD/svg11.dtd">
<!-- Generated by graphviz version 14.1.4 (20260321.0153)
 -->
<!-- Title: afficher_menu Pages: 1 -->
<svg width="521pt" height="289pt"
 viewBox="0.00 0.00 521.00 289.00" xmlns="http://www.w3.org/2000/svg" xmlns:xlink="http://www.w3.org/1999/xlink">
<g id="graph0" class="graph" transform="scale(1 1) rotate(0) translate(4 285)">
<title>afficher_menu</title>
<!-- Node1 -->
<g id="Node000001" class="node">
<title>Node1</title>
<g id="a_Node000001"><a xlink:title="Affiche menu et met a jour les elements visuels associes.">
<polygon fill="#999999" stroke="#666666" points="76.75,-134 0,-134 0,-114 76.75,-114 76.75,-134"/>
<text xml:space="preserve" text-anchor="middle" x="38.38" y="-120.5" font-family="Helvetica,sans-Serif" font-size="10.00">afficher_menu</text>
</a>
</g>
</g>
<!-- Node2 -->
<g id="Node000002" class="node">
<title>Node2</title>
<g id="a_Node000002"><a xlink:href="bouton_8c.html#af33c1c08b52d3d015ff6f7039a9734ee" target="_top" xlink:title="Affiche texte centre et met a jour les elements visuels associes.">
<polygon fill="white" stroke="#666666" points="385.88,-281 279.12,-281 279.12,-261 385.88,-261 385.88,-281"/>
<text xml:space="preserve" text-anchor="middle" x="332.5" y="-267.5" font-family="Helvetica,sans-Serif" font-size="10.00">afficher_texte_centre</text>
</a>
</g>
</g>
<!-- Node1&#45;&gt;Node2 -->
<g id="edge1_Node000001_Node000002" class="edge">
<title>Node1&#45;&gt;Node2</title>
<g id="a_edge1_Node000001_Node000002"><a xlink:title=" ">
<path fill="none" stroke="#63b8ff" d="M44.94,-134.31C55.56,-152.97 80.55,-192.35 112.75,-213 159.55,-243.01 221.45,-257.57 267.46,-264.58"/>
<polygon fill="#63b8ff" stroke="#63b8ff" points="266.9,-268.04 277.29,-265.99 267.89,-261.11 266.9,-268.04"/>
</a>
</g>
</g>
<!-- Node3 -->
<g id="Node000003" class="node">
<title>Node3</title>
<g id="a_Node000003"><a xlink:href="bouton_8c.html#a11f55905044ef2518b8c38311df3c48d" target="_top" xlink:title="Dessine la texture du bouton dans son rectangle d&#39;affichage.">
<polygon fill="white" stroke="#666666" points="375,-243 290,-243 290,-223 375,-223 375,-243"/>
<text xml:space="preserve" text-anchor="middle" x="332.5" y="-229.5" font-family="Helvetica,sans-Serif" font-size="10.00">Bouton_Afficher</text>
</a>
</g>
</g>
<!-- Node1&#45;&gt;Node3 -->
<g id="edge2_Node000001_Node000003" class="edge">
<title>Node1&#45;&gt;Node3</title>
<g id="a_edge2_Node000001_Node000003"><a xlink:title=" ">
<path fill="none" stroke="#63b8ff" d="M49.35,-134.06C62.64,-146.9 87.44,-168.87 112.75,-181 166.13,-206.58 233.03,-220.1 278.7,-226.88"/>
<polygon fill="#63b8ff" stroke="#63b8ff" points="277.94,-230.3 288.33,-228.24 278.93,-223.37 277.94,-230.3"/>
</a>
</g>
</g>
<!-- Node4 -->
<g id="Node000004" class="node">
<title>Node4</title>
<g id="a_Node000004"><a xlink:href="bouton_8c.html#ab4862740c43f8a9abb996fff0aba5ca1" target="_top" xlink:title="Met a jour l&#39;etat du bouton a partir d&#39;un evenement SDL.">
<polygon fill="white" stroke="#666666" points="395.25,-129 269.75,-129 269.75,-109 395.25,-109 395.25,-129"/>
<text xml:space="preserve" text-anchor="middle" x="332.5" y="-115.5" font-family="Helvetica,sans-Serif" font-size="10.00">Bouton_GererEvenement</text>
</a>
</g>
</g>
<!-- Node1&#45;&gt;Node4 -->
<g id="edge3_Node000001_Node000004" class="edge">
<title>Node1&#45;&gt;Node4</title>
<g id="a_edge3_Node000001_Node000004"><a xlink:title=" ">
<path fill="none" stroke="#63b8ff" d="M76.97,-123.36C122.55,-122.58 200.41,-121.24 258.05,-120.26"/>
<polygon fill="#63b8ff" stroke="#63b8ff" points="257.84,-123.76 267.77,-120.09 257.72,-116.76 257.84,-123.76"/>
</a>
</g>
</g>
<!-- Node6 -->
<g id="Node000006" class="node">
<title>Node6</title>
<g id="a_Node000006"><a xlink:href="bouton_8c.html#a482b1feb9004901d0544e64b1c44051c" target="_top" xlink:title="Initialise un bouton (zone, texture et etat d&#39;interaction).">
<polygon fill="white" stroke="#666666" points="365.25,-91 299.75,-91 299.75,-71 365.25,-71 365.25,-91"/>
<text xml:space="preserve" text-anchor="middle" x="332.5" y="-77.5" font-family="Helvetica,sans-Serif" font-size="10.00">Bouton_Init</text>
</a>
</g>
</g>
<!-- Node1&#45;&gt;Node6 -->
<g id="edge5_Node000001_Node000006" class="edge">
<title>Node1&#45;&gt;Node6</title>
<g id="a_edge5_Node000001_Node000006"><a xlink:title=" ">
<path fill="none" stroke="#63b8ff" d="M76.97,-118.47C131.17,-110.49 231.04,-95.79 288.24,-87.37"/>
<polygon fill="#63b8ff" stroke="#63b8ff" points="288.55,-90.86 297.93,-85.94 287.53,-83.93 288.55,-90.86"/>
</a>
</g>
</g>
<!-- Node7 -->
<g id="Node000007" class="node">
<title>Node7</title>
<g id="a_Node000007"><a xlink:href="sauvegarde_8c.html#aadcfca2e129355799bc39cbf1ca30390" target="_top" xlink:title="Charge les donnees brutes d&#39;un slot et les place en attente d&#39;application.">
<polygon fill="white" stroke="#666666" points="222.5,-58 124,-58 124,-38 222.5,-38 222.5,-58"/>
<text xml:space="preserve" text-anchor="middle" x="173.25" y="-44.5" font-family="Helvetica,sans-Serif" font-size="10.00">charger_partie_slot</text>
</a>
</g>
</g>
<!-- Node1&#45;&gt;Node7 -->
<g id="edge6_Node000001_Node000007" class="edge">
<title>Node1&#45;&gt;Node7</title>
<g id="a_edge6_Node000001_Node000007"><a xlink:title=" ">
<path fill="none" stroke="#63b8ff" d="M52.03,-113.64C66.2,-102.38 90.14,-84.35 112.75,-72 118.91,-68.64 125.64,-65.47 132.29,-62.62"/>
<polygon fill="#63b8ff" stroke="#63b8ff" points="133.25,-66.01 141.17,-58.97 130.59,-59.53 133.25,-66.01"/>
</a>
</g>
</g>
<!-- Node8 -->
<g id="Node000008" class="node">
<title>Node8</title>
<g id="a_Node000008"><a xlink:href="son_8c.html#ae145ae699cc1eecf0684bdd530bd26f0" target="_top" xlink:title="Charge (ou recupere du cache) puis joue une piste audio.">
<polygon fill="white" stroke="#666666" points="202.25,-20 144.25,-20 144.25,0 202.25,0 202.25,-20"/>
<text xml:space="preserve" text-anchor="middle" x="173.25" y="-6.5" font-family="Helvetica,sans-Serif" font-size="10.00">jouer_son</text>
</a>
</g>
</g>
<!-- Node1&#45;&gt;Node8 -->
<g id="edge7_Node000001_Node000008" class="edge">
<title>Node1&#45;&gt;Node8</title>
<g id="a_edge7_Node000001_Node000008"><a xlink:title=" ">
<path fill="none" stroke="#63b8ff" d="M44.53,-113.76C54.83,-94.35 79.81,-52.08 112.75,-29 118.88,-24.7 126.04,-21.34 133.22,-18.72"/>
<polygon fill="#63b8ff" stroke="#63b8ff" points="134.09,-22.12 142.56,-15.76 131.97,-15.45 134.09,-22.12"/>
</a>
</g>
</g>
<!-- Node9 -->
<g id="Node000009" class="node">
<title>Node9</title>
<g id="a_Node000009"><a xlink:href="sauvegarde_8c.html#ae251037c85a5a7d8172c206539398f49" target="_top" xlink:title="Affiche l&#39;interface de selection de slot (chargement ou sauvegarde).">
<polygon fill="white" stroke="#666666" points="233.75,-172 112.75,-172 112.75,-152 233.75,-152 233.75,-172"/>
<text xml:space="preserve" text-anchor="middle" x="173.25" y="-158.5" font-family="Helvetica,sans-Serif" font-size="10.00">sauvegarde_choisir_slot</text>
</a>
</g>
</g>
<!-- Node1&#45;&gt;Node9 -->
<g id="edge8_Node000001_Node000009" class="edge">
<title>Node1&#45;&gt;Node9</title>
<g id="a_edge8_Node000001_Node000009"><a xlink:title=" ">
<path fill="none" stroke="#63b8ff" d="M76.04,-134.48C91.14,-138.8 108.83,-143.86 124.9,-148.46"/>
<polygon fill="#63b8ff" stroke="#63b8ff" points="123.68,-151.75 134.25,-151.13 125.6,-145.02 123.68,-151.75"/>
</a>
</g>
</g>
<!-- Node5 -->
<g id="Node000005" class="node">
<title>Node5</title>
<g id="a_Node000005"><a xlink:href="bouton_8c.html#a273a0b22067678e17b3e6b4be36e3641" target="_top" xlink:title=" ">
<polygon fill="white" stroke="#666666" points="512.5,-129 431.25,-129 431.25,-109 512.5,-109 512.5,-129"/>
<text xml:space="preserve" text-anchor="middle" x="471.88" y="-115.5" font-family="Helvetica,sans-Serif" font-size="10.00">pointDansRect</text>
</a>
</g>
</g>
<!-- Node4&#45;&gt;Node5 -->
<g id="edge4_Node000004_Node000005" class="edge">
<title>Node4&#45;&gt;Node5</title>
<g id="a_edge4_Node000004_Node000005"><a xlink:title=" ">
<path fill="none" stroke="#63b8ff" d="M395.36,-119C403.49,-119 411.75,-119 419.68,-119"/>
<polygon fill="#63b8ff" stroke="#63b8ff" points="419.5,-122.5 429.5,-119 419.5,-115.5 419.5,-122.5"/>
</a>
</g>
</g>
<!-- Node9&#45;&gt;Node2 -->
<g id="edge9_Node000009_Node000002" class="edge">
<title>Node9&#45;&gt;Node2</title>
<g id="a_edge9_Node000009_Node000002"><a xlink:title=" ">
<path fill="none" stroke="#63b8ff" d="M182.32,-172.23C197.49,-190.78 232.14,-230.11 269.75,-252 272.39,-253.53 275.16,-254.96 278.01,-256.27"/>
<polygon fill="#63b8ff" stroke="#63b8ff" points="276.58,-259.47 287.16,-260.02 279.24,-252.99 276.58,-259.47"/>
</a>
</g>
</g>
<!-- Node9&#45;&gt;Node3 -->
<g id="edge10_Node000009_Node000003" class="edge">
<title>Node9&#45;&gt;Node3</title>
<g id="a_edge10_Node000009_Node000003"><a xlink:title=" ">
<path fill="none" stroke="#63b8ff" d="M190.99,-172.46C209.67,-183.8 241.04,-201.91 269.75,-214 273.82,-215.71 278.1,-217.35 282.43,-218.89"/>
<polygon fill="#63b8ff" stroke="#63b8ff" points="281.16,-222.16 291.76,-222.04 283.4,-215.53 281.16,-222.16"/>
</a>
</g>
</g>
<!-- Node9&#45;&gt;Node4 -->
<g id="edge11_Node000009_Node000004" class="edge">
<title>Node9&#45;&gt;Node4</title>
<g id="a_edge11_Node000009_Node000004"><a xlink:title=" ">
<path fill="none" stroke="#63b8ff" d="M212.32,-151.59C233.31,-145.85 259.62,-138.66 282.17,-132.49"/>
<polygon fill="#63b8ff" stroke="#63b8ff" points="283.06,-135.88 291.78,-129.86 281.21,-129.12 283.06,-135.88"/>
</a>
</g>
</g>
<!-- Node9&#45;&gt;Node6 -->
<g id="edge12_Node000009_Node000006" class="edge">
<title>Node9&#45;&gt;Node6</title>
<g id="a_edge12_Node000009_Node000006"><a xlink:title=" ">
<path fill="none" stroke="#63b8ff" d="M187.47,-151.71C205.29,-138.24 238.41,-114.65 269.75,-100 275.74,-97.2 282.24,-94.68 288.71,-92.47"/>
<polygon fill="#63b8ff" stroke="#63b8ff" points="289.56,-95.87 298.01,-89.49 287.42,-89.2 289.56,-95.87"/>
</a>
</g>
</g>
<!-- Node10 -->
<g id="Node000010" class="node">
<title>Node10</title>
<g id="a_Node000010"><a xlink:href="sauvegarde_8c.html#a590205a1d58df634530e608349c8dc6f" target="_top" xlink:title="Verifie si un fichier de sauvegarde existe pour un slot donne.">
<polygon fill="white" stroke="#666666" points="391.88,-205 273.12,-205 273.12,-185 391.88,-185 391.88,-205"/>
<text xml:space="preserve" text-anchor="middle" x="332.5" y="-191.5" font-family="Helvetica,sans-Serif" font-size="10.00">sauvegarde_slot_existe</text>
</a>
</g>
</g>
<!-- Node9&#45;&gt;Node10 -->
<g id="edge13_Node000009_Node000010" class="edge">
<title>Node9&#45;&gt;Node10</title>
<g id="a_edge13_Node000009_Node000010"><a xlink:title=" ">
<path fill="none" stroke="#63b8ff" d="M224,-172.44C238.78,-175.54 255.12,-178.97 270.52,-182.2"/>
<polygon fill="#63b8ff" stroke="#63b8ff" points="269.54,-185.57 280.05,-184.2 270.98,-178.72 269.54,-185.57"/>
</a>
</g>
</g>
<!-- Node11 -->
<g id="Node000011" class="node">
<title>Node11</title>
<g id="a_Node000011"><a xlink:href="main_8c.html#a82958224f33fa21d40f4f7965f8396bc" target="_top" xlink:title="Met a jour screen metrics en fonction de l&#39;etat courant du jeu.">
<polygon fill="white" stroke="#666666" points="391.12,-167 273.88,-167 273.88,-147 391.12,-147 391.12,-167"/>
<text xml:space="preserve" text-anchor="middle" x="332.5" y="-153.5" font-family="Helvetica,sans-Serif" font-size="10.00">update_screen_metrics</text>
</a>
</g>
</g>
<!-- Node9&#45;&gt;Node11 -->
<g id="edge14_Node000009_Node000011" class="edge">
<title>Node9&#45;&gt;Node11</title>
<g id="a_edge14_Node000009_Node000011"><a xlink:title=" ">
<path fill="none" stroke="#63b8ff" d="M234.15,-160.1C243.34,-159.8 252.9,-159.5 262.27,-159.2"/>
<polygon fill="#63b8ff" stroke="#63b8ff" points="262.19,-162.71 272.07,-158.89 261.97,-155.71 262.19,-162.71"/>
</a>
</g>
</g>
</g>
</svg>
