<?xml version="1.0" encoding="UTF-8" standalone="no"?>
<!DOCTYPE svg PUBLIC "-//W3C//DTD SVG 1.1//EN"
 "http://www.w3.org/Graphics/SVG/1.1/DTD/svg11.dtd">
<!-- Generated by graphviz version 14.1.4 (20260321.0153)
 -->
<!-- Title: afficher_menu Pages: 1 -->
<svg width="525pt" height="408pt"
 viewBox="0.00 0.00 525.00 408.00" xmlns="http://www.w3.org/2000/svg" xmlns:xlink="http://www.w3.org/1999/xlink">
<g id="graph0" class="graph" transform="scale(1 1) rotate(0) translate(4 404)">
<title>afficher_menu</title>
<!-- Node1 -->
<g id="Node000001" class="node">
<title>Node1</title>
<g id="a_Node000001"><a xlink:title="Affiche menu et met a jour les elements visuels associes.">
<polygon fill="#999999" stroke="#666666" points="76.75,-200 0,-200 0,-180 76.75,-180 76.75,-200"/>
<text xml:space="preserve" text-anchor="middle" x="38.38" y="-186.5" font-family="Helvetica,sans-Serif" font-size="10.00">afficher_menu</text>
</a>
</g>
</g>
<!-- Node2 -->
<g id="Node000002" class="node">
<title>Node2</title>
<g id="a_Node000002"><a xlink:href="bouton_8c.html#af33c1c08b52d3d015ff6f7039a9734ee" target="_top" xlink:title="Affiche texte centre et met a jour les elements visuels associes.">
<polygon fill="white" stroke="#666666" points="385.88,-400 279.12,-400 279.12,-380 385.88,-380 385.88,-400"/>
<text xml:space="preserve" text-anchor="middle" x="332.5" y="-386.5" font-family="Helvetica,sans-Serif" font-size="10.00">afficher_texte_centre</text>
</a>
</g>
</g>
<!-- Node1&#45;&gt;Node2 -->
<g id="edge1_Node000001_Node000002" class="edge">
<title>Node1&#45;&gt;Node2</title>
<g id="a_edge1_Node000001_Node000002"><a xlink:title=" ">
<path fill="none" stroke="#63b8ff" d="M42.65,-200.46C50.66,-224.4 73.52,-283.6 112.75,-316 157.16,-352.67 220.61,-371.49 267.75,-380.94"/>
<polygon fill="#63b8ff" stroke="#63b8ff" points="267.09,-384.38 277.57,-382.81 268.4,-377.5 267.09,-384.38"/>
</a>
</g>
</g>
<!-- Node3 -->
<g id="Node000003" class="node">
<title>Node3</title>
<g id="a_Node000003"><a xlink:href="bouton_8c.html#a11f55905044ef2518b8c38311df3c48d" target="_top" xlink:title="Dessine la texture du bouton dans son rectangle d&#39;affichage.">
<polygon fill="white" stroke="#666666" points="375,-362 290,-362 290,-342 375,-342 375,-362"/>
<text xml:space="preserve" text-anchor="middle" x="332.5" y="-348.5" font-family="Helvetica,sans-Serif" font-size="10.00">Bouton_Afficher</text>
</a>
</g>
</g>
<!-- Node1&#45;&gt;Node3 -->
<g id="edge2_Node000001_Node000003" class="edge">
<title>Node1&#45;&gt;Node3</title>
<g id="a_edge2_Node000001_Node000003"><a xlink:title=" ">
<path fill="none" stroke="#63b8ff" d="M45.78,-200.39C57.18,-218.06 82.63,-254.12 112.75,-275 163.49,-310.18 231.94,-330.84 278.67,-341.76"/>
<polygon fill="#63b8ff" stroke="#63b8ff" points="277.76,-345.14 288.29,-343.93 279.3,-338.31 277.76,-345.14"/>
</a>
</g>
</g>
<!-- Node4 -->
<g id="Node000004" class="node">
<title>Node4</title>
<g id="a_Node000004"><a xlink:href="bouton_8c.html#ab4862740c43f8a9abb996fff0aba5ca1" target="_top" xlink:title="Met a jour l&#39;etat du bouton a partir d&#39;un evenement SDL.">
<polygon fill="white" stroke="#666666" points="395.25,-324 269.75,-324 269.75,-304 395.25,-304 395.25,-324"/>
<text xml:space="preserve" text-anchor="middle" x="332.5" y="-310.5" font-family="Helvetica,sans-Serif" font-size="10.00">Bouton_GererEvenement</text>
</a>
</g>
</g>
<!-- Node1&#45;&gt;Node4 -->
<g id="edge3_Node000001_Node000004" class="edge">
<title>Node1&#45;&gt;Node4</title>
<g id="a_edge3_Node000001_Node000004"><a xlink:title=" ">
<path fill="none" stroke="#63b8ff" d="M53.13,-200.4C67.46,-210.88 90.83,-227.04 112.75,-238 167.94,-265.61 235.59,-287.43 280.92,-300.48"/>
<polygon fill="#63b8ff" stroke="#63b8ff" points="279.9,-303.83 290.48,-303.19 281.82,-297.1 279.9,-303.83"/>
</a>
</g>
</g>
<!-- Node6 -->
<g id="Node000006" class="node">
<title>Node6</title>
<g id="a_Node000006"><a xlink:href="bouton_8c.html#a482b1feb9004901d0544e64b1c44051c" target="_top" xlink:title="Initialise un bouton (zone, texture et etat d&#39;interaction).">
<polygon fill="white" stroke="#666666" points="365.25,-134 299.75,-134 299.75,-114 365.25,-114 365.25,-134"/>
<text xml:space="preserve" text-anchor="middle" x="332.5" y="-120.5" font-family="Helvetica,sans-Serif" font-size="10.00">Bouton_Init</text>
</a>
</g>
</g>
<!-- Node1&#45;&gt;Node6 -->
<g id="edge5_Node000001_Node000006" class="edge">
<title>Node1&#45;&gt;Node6</title>
<g id="a_edge5_Node000001_Node000006"><a xlink:title=" ">
<path fill="none" stroke="#63b8ff" d="M76.97,-181.51C131.17,-169.26 231.04,-146.7 288.24,-133.77"/>
<polygon fill="#63b8ff" stroke="#63b8ff" points="288.97,-137.2 297.95,-131.58 287.43,-130.37 288.97,-137.2"/>
</a>
</g>
</g>
<!-- Node7 -->
<g id="Node000007" class="node">
<title>Node7</title>
<g id="a_Node000007"><a xlink:href="sauvegarde_8c.html#aadcfca2e129355799bc39cbf1ca30390" target="_top" xlink:title="Charge les donnees brutes d&#39;un slot et les place en attente d&#39;application.">
<polygon fill="white" stroke="#666666" points="222.5,-77 124,-77 124,-57 222.5,-57 222.5,-77"/>
<text xml:space="preserve" text-anchor="middle" x="173.25" y="-63.5" font-family="Helvetica,sans-Serif" font-size="10.00">charger_partie_slot</text>
</a>
</g>
</g>
<!-- Node1&#45;&gt;Node7 -->
<g id="edge6_Node000001_Node000007" class="edge">
<title>Node1&#45;&gt;Node7</title>
<g id="a_edge6_Node000001_Node000007"><a xlink:title=" ">
<path fill="none" stroke="#63b8ff" d="M44.58,-179.55C54.97,-159.7 80.09,-116.26 112.75,-91 117.04,-87.68 121.85,-84.76 126.83,-82.2"/>
<polygon fill="#63b8ff" stroke="#63b8ff" points="128.17,-85.44 135.79,-78.08 125.24,-79.08 128.17,-85.44"/>
</a>
</g>
</g>
<!-- Node9 -->
<g id="Node000009" class="node">
<title>Node9</title>
<g id="a_Node000009"><a xlink:href="son_8c.html#ae145ae699cc1eecf0684bdd530bd26f0" target="_top" xlink:title="Charge (ou recupere du cache) puis joue une piste audio.">
<polygon fill="white" stroke="#666666" points="202.25,-39 144.25,-39 144.25,-19 202.25,-19 202.25,-39"/>
<text xml:space="preserve" text-anchor="middle" x="173.25" y="-25.5" font-family="Helvetica,sans-Serif" font-size="10.00">jouer_son</text>
</a>
</g>
</g>
<!-- Node1&#45;&gt;Node9 -->
<g id="edge8_Node000001_Node000009" class="edge">
<title>Node1&#45;&gt;Node9</title>
<g id="a_edge8_Node000001_Node000009"><a xlink:title=" ">
<path fill="none" stroke="#63b8ff" d="M41.78,-179.71C48.38,-153.68 69.29,-84.71 112.75,-48 118.58,-43.07 125.7,-39.42 132.97,-36.71"/>
<polygon fill="#63b8ff" stroke="#63b8ff" points="134,-40.06 142.5,-33.74 131.92,-33.37 134,-40.06"/>
</a>
</g>
</g>
<!-- Node12 -->
<g id="Node000012" class="node">
<title>Node12</title>
<g id="a_Node000012"><a xlink:href="sauvegarde_8c.html#ae251037c85a5a7d8172c206539398f49" target="_top" xlink:title="Affiche l&#39;interface de selection de slot (chargement ou sauvegarde).">
<polygon fill="white" stroke="#666666" points="233.75,-229 112.75,-229 112.75,-209 233.75,-209 233.75,-229"/>
<text xml:space="preserve" text-anchor="middle" x="173.25" y="-215.5" font-family="Helvetica,sans-Serif" font-size="10.00">sauvegarde_choisir_slot</text>
</a>
</g>
</g>
<!-- Node1&#45;&gt;Node12 -->
<g id="edge11_Node000001_Node000012" class="edge">
<title>Node1&#45;&gt;Node12</title>
<g id="a_edge11_Node000001_Node000012"><a xlink:title=" ">
<path fill="none" stroke="#63b8ff" d="M77.1,-198.23C88.37,-200.69 101.02,-203.45 113.32,-206.14"/>
<polygon fill="#63b8ff" stroke="#63b8ff" points="112.47,-209.54 122.99,-208.25 113.96,-202.7 112.47,-209.54"/>
</a>
</g>
</g>
<!-- Node15 -->
<g id="Node000015" class="node">
<title>Node15</title>
<g id="a_Node000015"><a xlink:href="main_8h.html#a6c672075bc554c92548a916c9501bdb5" target="_top" xlink:title=" ">
<polygon fill="white" stroke="#666666" points="376.5,-96 288.5,-96 288.5,-76 376.5,-76 376.5,-96"/>
<text xml:space="preserve" text-anchor="middle" x="332.5" y="-82.5" font-family="Helvetica,sans-Serif" font-size="10.00">screen_center_x</text>
</a>
</g>
</g>
<!-- Node1&#45;&gt;Node15 -->
<g id="edge24_Node000001_Node000015" class="edge">
<title>Node1&#45;&gt;Node15</title>
<g id="a_edge24_Node000001_Node000015"><a xlink:title=" ">
<path fill="none" stroke="#63b8ff" d="M52.71,-179.62C66.88,-169.03 90.3,-152.82 112.75,-143 166.45,-119.51 231.94,-104.03 277.19,-95.21"/>
<polygon fill="#63b8ff" stroke="#63b8ff" points="277.58,-98.7 286.75,-93.39 276.28,-91.82 277.58,-98.7"/>
</a>
</g>
</g>
<!-- Node5 -->
<g id="Node000005" class="node">
<title>Node5</title>
<g id="a_Node000005"><a xlink:href="bouton_8c.html#a273a0b22067678e17b3e6b4be36e3641" target="_top" xlink:title=" ">
<polygon fill="white" stroke="#666666" points="514.75,-324 433.5,-324 433.5,-304 514.75,-304 514.75,-324"/>
<text xml:space="preserve" text-anchor="middle" x="474.12" y="-310.5" font-family="Helvetica,sans-Serif" font-size="10.00">pointDansRect</text>
</a>
</g>
</g>
<!-- Node4&#45;&gt;Node5 -->
<g id="edge4_Node000004_Node000005" class="edge">
<title>Node4&#45;&gt;Node5</title>
<g id="a_edge4_Node000004_Node000005"><a xlink:title=" ">
<path fill="none" stroke="#63b8ff" d="M395.55,-314C404.37,-314 413.35,-314 421.92,-314"/>
<polygon fill="#63b8ff" stroke="#63b8ff" points="421.8,-317.5 431.8,-314 421.8,-310.5 421.8,-317.5"/>
</a>
</g>
</g>
<!-- Node8 -->
<g id="Node000008" class="node">
<title>Node8</title>
<g id="a_Node000008"><a xlink:href="sauvegarde_8c.html#ab305de40501185a8bfc008354c2d0f15" target="_top" xlink:title=" ">
<polygon fill="white" stroke="#666666" points="508.38,-191 439.88,-191 439.88,-171 508.38,-171 508.38,-191"/>
<text xml:space="preserve" text-anchor="middle" x="474.12" y="-177.5" font-family="Helvetica,sans-Serif" font-size="10.00">chemin_slot</text>
</a>
</g>
</g>
<!-- Node7&#45;&gt;Node8 -->
<g id="edge7_Node000007_Node000008" class="edge">
<title>Node7&#45;&gt;Node8</title>
<g id="a_edge7_Node000007_Node000008"><a xlink:title=" ">
<path fill="none" stroke="#63b8ff" d="M213.61,-56.51C259.96,-46.42 337.91,-36.73 395.25,-67 414.6,-77.22 445.96,-130.85 462.36,-160.77"/>
<polygon fill="#63b8ff" stroke="#63b8ff" points="459.12,-162.13 466.95,-169.26 465.27,-158.8 459.12,-162.13"/>
</a>
</g>
</g>
<!-- Node10 -->
<g id="Node000010" class="node">
<title>Node10</title>
<g id="a_Node000010"><a xlink:href="son_8c.html#ad0d6e981433bdc8e4291e672fa8c039b" target="_top" xlink:title=" ">
<polygon fill="white" stroke="#666666" points="371.25,-20 293.75,-20 293.75,0 371.25,0 371.25,-20"/>
<text xml:space="preserve" text-anchor="middle" x="332.5" y="-6.5" font-family="Helvetica,sans-Serif" font-size="10.00">recuperer_son</text>
</a>
</g>
</g>
<!-- Node9&#45;&gt;Node10 -->
<g id="edge9_Node000009_Node000010" class="edge">
<title>Node9&#45;&gt;Node10</title>
<g id="a_edge9_Node000009_Node000010"><a xlink:title=" ">
<path fill="none" stroke="#63b8ff" d="M202.73,-25.56C224.85,-22.89 256.07,-19.11 282.23,-15.95"/>
<polygon fill="#63b8ff" stroke="#63b8ff" points="282.46,-19.45 291.97,-14.78 281.62,-12.5 282.46,-19.45"/>
</a>
</g>
</g>
<!-- Node11 -->
<g id="Node000011" class="node">
<title>Node11</title>
<g id="a_Node000011"><a xlink:href="son_8c.html#aad43af6485e6418e4f26007ec64dba14" target="_top" xlink:title=" ">
<polygon fill="white" stroke="#666666" points="517,-20 431.25,-20 431.25,0 517,0 517,-20"/>
<text xml:space="preserve" text-anchor="middle" x="474.12" y="-6.5" font-family="Helvetica,sans-Serif" font-size="10.00">recuperer_mixer</text>
</a>
</g>
</g>
<!-- Node10&#45;&gt;Node11 -->
<g id="edge10_Node000010_Node000011" class="edge">
<title>Node10&#45;&gt;Node11</title>
<g id="a_edge10_Node000010_Node000011"><a xlink:title=" ">
<path fill="none" stroke="#63b8ff" d="M371.65,-10C386.47,-10 403.69,-10 419.7,-10"/>
<polygon fill="#63b8ff" stroke="#63b8ff" points="419.58,-13.5 429.58,-10 419.58,-6.5 419.58,-13.5"/>
</a>
</g>
</g>
<!-- Node12&#45;&gt;Node2 -->
<g id="edge12_Node000012_Node000002" class="edge">
<title>Node12&#45;&gt;Node2</title>
<g id="a_edge12_Node000012_Node000002"><a xlink:title=" ">
<path fill="none" stroke="#63b8ff" d="M177.78,-229.26C187.71,-256.59 218.56,-331.74 269.75,-371 271.28,-372.17 272.88,-373.27 274.54,-374.31"/>
<polygon fill="#63b8ff" stroke="#63b8ff" points="272.71,-377.3 283.2,-378.82 275.95,-371.1 272.71,-377.3"/>
</a>
</g>
</g>
<!-- Node12&#45;&gt;Node3 -->
<g id="edge13_Node000012_Node000003" class="edge">
<title>Node12&#45;&gt;Node3</title>
<g id="a_edge13_Node000012_Node000003"><a xlink:title=" ">
<path fill="none" stroke="#63b8ff" d="M179.98,-229.21C192.98,-251.46 226.94,-304.59 269.75,-333 272.79,-335.02 276.05,-336.83 279.43,-338.45"/>
<polygon fill="#63b8ff" stroke="#63b8ff" points="277.84,-341.58 288.42,-342.2 280.54,-335.12 277.84,-341.58"/>
</a>
</g>
</g>
<!-- Node12&#45;&gt;Node4 -->
<g id="edge14_Node000012_Node000004" class="edge">
<title>Node12&#45;&gt;Node4</title>
<g id="a_edge14_Node000012_Node000004"><a xlink:title=" ">
<path fill="none" stroke="#63b8ff" d="M186.13,-229.38C207.5,-247.9 251.85,-285.56 269.75,-295 272.78,-296.6 275.96,-298.08 279.22,-299.46"/>
<polygon fill="#63b8ff" stroke="#63b8ff" points="277.78,-302.66 288.37,-302.97 280.28,-296.12 277.78,-302.66"/>
</a>
</g>
</g>
<!-- Node12&#45;&gt;Node6 -->
<g id="edge15_Node000012_Node000006" class="edge">
<title>Node12&#45;&gt;Node6</title>
<g id="a_edge15_Node000012_Node000006"><a xlink:title=" ">
<path fill="none" stroke="#63b8ff" d="M184.48,-208.66C201.02,-192.49 235.26,-161.19 269.75,-143 275.66,-139.88 282.16,-137.19 288.67,-134.89"/>
<polygon fill="#63b8ff" stroke="#63b8ff" points="289.62,-138.26 298.06,-131.85 287.47,-131.6 289.62,-138.26"/>
</a>
</g>
</g>
<!-- Node13 -->
<g id="Node000013" class="node">
<title>Node13</title>
<g id="a_Node000013"><a xlink:href="sauvegarde_8c.html#aeb4954bdff741edc886abc066b4d9b49" target="_top" xlink:title=" ">
<polygon fill="white" stroke="#666666" points="364.88,-172 300.12,-172 300.12,-152 364.88,-152 364.88,-172"/>
<text xml:space="preserve" text-anchor="middle" x="332.5" y="-158.5" font-family="Helvetica,sans-Serif" font-size="10.00">creer_texte</text>
</a>
</g>
</g>
<!-- Node12&#45;&gt;Node13 -->
<g id="edge16_Node000012_Node000013" class="edge">
<title>Node12&#45;&gt;Node13</title>
<g id="a_edge16_Node000012_Node000013"><a xlink:title=" ">
<path fill="none" stroke="#63b8ff" d="M198.78,-208.61C217.95,-200.64 245.35,-189.59 269.75,-181 275.99,-178.8 282.62,-176.61 289.15,-174.54"/>
<polygon fill="#63b8ff" stroke="#63b8ff" points="289.97,-177.95 298.48,-171.63 287.89,-171.26 289.97,-177.95"/>
</a>
</g>
</g>
<!-- Node14 -->
<g id="Node000014" class="node">
<title>Node14</title>
<g id="a_Node000014"><a xlink:href="sauvegarde_8c.html#a590205a1d58df634530e608349c8dc6f" target="_top" xlink:title="Verifie si un fichier de sauvegarde existe pour un slot donne.">
<polygon fill="white" stroke="#666666" points="391.88,-248 273.12,-248 273.12,-228 391.88,-228 391.88,-248"/>
<text xml:space="preserve" text-anchor="middle" x="332.5" y="-234.5" font-family="Helvetica,sans-Serif" font-size="10.00">sauvegarde_slot_existe</text>
</a>
</g>
</g>
<!-- Node12&#45;&gt;Node14 -->
<g id="edge17_Node000012_Node000014" class="edge">
<title>Node12&#45;&gt;Node14</title>
<g id="a_edge17_Node000012_Node000014"><a xlink:title=" ">
<path fill="none" stroke="#63b8ff" d="M234.15,-226.24C243.06,-227.31 252.31,-228.43 261.41,-229.53"/>
<polygon fill="#63b8ff" stroke="#63b8ff" points="260.96,-233 271.31,-230.73 261.8,-226.05 260.96,-233"/>
</a>
</g>
</g>
<!-- Node12&#45;&gt;Node15 -->
<g id="edge19_Node000012_Node000015" class="edge">
<title>Node12&#45;&gt;Node15</title>
<g id="a_edge19_Node000012_Node000015"><a xlink:title=" ">
<path fill="none" stroke="#63b8ff" d="M179.98,-208.79C192.98,-186.54 226.94,-133.41 269.75,-105 272.29,-103.31 274.99,-101.77 277.78,-100.36"/>
<polygon fill="#63b8ff" stroke="#63b8ff" points="279.05,-103.63 286.81,-96.42 276.24,-97.21 279.05,-103.63"/>
</a>
</g>
</g>
<!-- Node17 -->
<g id="Node000017" class="node">
<title>Node17</title>
<g id="a_Node000017"><a xlink:href="main_8h.html#a6456affd0d0a21e911b531a5ba25676d" target="_top" xlink:title=" ">
<polygon fill="white" stroke="#666666" points="376.5,-286 288.5,-286 288.5,-266 376.5,-266 376.5,-286"/>
<text xml:space="preserve" text-anchor="middle" x="332.5" y="-272.5" font-family="Helvetica,sans-Serif" font-size="10.00">screen_center_y</text>
</a>
</g>
</g>
<!-- Node12&#45;&gt;Node17 -->
<g id="edge21_Node000012_Node000017" class="edge">
<title>Node12&#45;&gt;Node17</title>
<g id="a_edge21_Node000012_Node000017"><a xlink:title=" ">
<path fill="none" stroke="#63b8ff" d="M198.78,-229.39C217.95,-237.36 245.35,-248.41 269.75,-257 274.71,-258.75 279.93,-260.49 285.14,-262.18"/>
<polygon fill="#63b8ff" stroke="#63b8ff" points="283.72,-265.4 294.31,-265.08 285.83,-258.72 283.72,-265.4"/>
</a>
</g>
</g>
<!-- Node19 -->
<g id="Node000019" class="node">
<title>Node19</title>
<g id="a_Node000019"><a xlink:href="main_8c.html#a82958224f33fa21d40f4f7965f8396bc" target="_top" xlink:title="Met a jour screen metrics en fonction de l&#39;etat courant du jeu.">
<polygon fill="white" stroke="#666666" points="391.12,-210 273.88,-210 273.88,-190 391.12,-190 391.12,-210"/>
<text xml:space="preserve" text-anchor="middle" x="332.5" y="-196.5" font-family="Helvetica,sans-Serif" font-size="10.00">update_screen_metrics</text>
</a>
</g>
</g>
<!-- Node12&#45;&gt;Node19 -->
<g id="edge23_Node000012_Node000019" class="edge">
<title>Node12&#45;&gt;Node19</title>
<g id="a_edge23_Node000012_Node000019"><a xlink:title=" ">
<path fill="none" stroke="#63b8ff" d="M234.15,-211.76C243.34,-210.65 252.9,-209.5 262.27,-208.36"/>
<polygon fill="#63b8ff" stroke="#63b8ff" points="262.57,-211.85 272.08,-207.18 261.74,-204.9 262.57,-211.85"/>
</a>
</g>
</g>
<!-- Node14&#45;&gt;Node8 -->
<g id="edge18_Node000014_Node000008" class="edge">
<title>Node14&#45;&gt;Node8</title>
<g id="a_edge18_Node000014_Node000008"><a xlink:title=" ">
<path fill="none" stroke="#63b8ff" d="M370.72,-227.57C378.89,-225 387.43,-222.09 395.25,-219 411.8,-212.46 429.68,-203.85 444.13,-196.48"/>
<polygon fill="#63b8ff" stroke="#63b8ff" points="445.37,-199.78 452.64,-192.08 442.15,-193.57 445.37,-199.78"/>
</a>
</g>
</g>
<!-- Node16 -->
<g id="Node000016" class="node">
<title>Node16</title>
<g id="a_Node000016"><a xlink:href="main_8h.html#aaaa1e9fcb86ff8e60b297faa7815ad1d" target="_top" xlink:title=" ">
<polygon fill="white" stroke="#666666" points="512.5,-96 435.75,-96 435.75,-76 512.5,-76 512.5,-96"/>
<text xml:space="preserve" text-anchor="middle" x="474.12" y="-82.5" font-family="Helvetica,sans-Serif" font-size="10.00">screen_widthf</text>
</a>
</g>
</g>
<!-- Node15&#45;&gt;Node16 -->
<g id="edge20_Node000015_Node000016" class="edge">
<title>Node15&#45;&gt;Node16</title>
<g id="a_edge20_Node000015_Node000016"><a xlink:title=" ">
<path fill="none" stroke="#63b8ff" d="M376.91,-86C391.84,-86 408.66,-86 424.01,-86"/>
<polygon fill="#63b8ff" stroke="#63b8ff" points="423.89,-89.5 433.89,-86 423.89,-82.5 423.89,-89.5"/>
</a>
</g>
</g>
<!-- Node18 -->
<g id="Node000018" class="node">
<title>Node18</title>
<g id="a_Node000018"><a xlink:href="main_8h.html#a9b4aefc63ea00e60ec88da19e24e8236" target="_top" xlink:title=" ">
<polygon fill="white" stroke="#666666" points="514,-286 434.25,-286 434.25,-266 514,-266 514,-286"/>
<text xml:space="preserve" text-anchor="middle" x="474.12" y="-272.5" font-family="Helvetica,sans-Serif" font-size="10.00">screen_heightf</text>
</a>
</g>
</g>
<!-- Node17&#45;&gt;Node18 -->
<g id="edge22_Node000017_Node000018" class="edge">
<title>Node17&#45;&gt;Node18</title>
<g id="a_edge22_Node000017_Node000018"><a xlink:title=" ">
<path fill="none" stroke="#63b8ff" d="M376.91,-276C391.46,-276 407.8,-276 422.82,-276"/>
<polygon fill="#63b8ff" stroke="#63b8ff" points="422.49,-279.5 432.49,-276 422.49,-272.5 422.49,-279.5"/>
</a>
</g>
</g>
</g>
</svg>
