<?xml version="1.0" encoding="UTF-8" standalone="no"?>
<!DOCTYPE svg PUBLIC "-//W3C//DTD SVG 1.1//EN"
 "http://www.w3.org/Graphics/SVG/1.1/DTD/svg11.dtd">
<!-- Generated by graphviz version 14.1.4 (20260321.0153)
 -->
<!-- Title: spawn_one_mob_of_type Pages: 1 -->
<svg width="636pt" height="66pt"
 viewBox="0.00 0.00 636.00 66.00" xmlns="http://www.w3.org/2000/svg" xmlns:xlink="http://www.w3.org/1999/xlink">
<g id="graph0" class="graph" transform="scale(1 1) rotate(0) translate(4 62)">
<title>spawn_one_mob_of_type</title>
<!-- Node1 -->
<g id="Node000001" class="node">
<title>Node1</title>
<g id="a_Node000001"><a xlink:title=" ">
<polygon fill="#999999" stroke="#666666" points="127,-39 0,-39 0,-19 127,-19 127,-39"/>
<text xml:space="preserve" text-anchor="middle" x="63.5" y="-25.5" font-family="Helvetica,sans-Serif" font-size="10.00">spawn_one_mob_of_type</text>
</a>
</g>
</g>
<!-- Node2 -->
<g id="Node000002" class="node">
<title>Node2</title>
<g id="a_Node000002"><a xlink:href="mob_8c.html#af87428c098eeb520a5ae73c472e6f56d" target="_top" xlink:title=" ">
<polygon fill="white" stroke="#666666" points="299,-58 163,-58 163,-38 299,-38 299,-58"/>
<text xml:space="preserve" text-anchor="middle" x="231" y="-44.5" font-family="Helvetica,sans-Serif" font-size="10.00">get_vaisseau_collision_rect</text>
</a>
</g>
</g>
<!-- Node1&#45;&gt;Node2 -->
<g id="edge1_Node000001_Node000002" class="edge">
<title>Node1&#45;&gt;Node2</title>
<g id="a_edge1_Node000001_Node000002"><a xlink:title=" ">
<path fill="none" stroke="#63b8ff" d="M127.07,-36.18C134.97,-37.09 143.13,-38.03 151.24,-38.96"/>
<polygon fill="#63b8ff" stroke="#63b8ff" points="150.81,-42.43 161.14,-40.09 151.61,-35.48 150.81,-42.43"/>
</a>
</g>
</g>
<!-- Node3 -->
<g id="Node000003" class="node">
<title>Node3</title>
<g id="a_Node000003"><a xlink:href="perso_8c.html#a2a53403cf290bb65fb010b095c4843cf" target="_top" xlink:title="Verifie collision et retourne le resultat du test.">
<polygon fill="white" stroke="#666666" points="267.5,-20 194.5,-20 194.5,0 267.5,0 267.5,-20"/>
<text xml:space="preserve" text-anchor="middle" x="231" y="-6.5" font-family="Helvetica,sans-Serif" font-size="10.00">test_collision</text>
</a>
</g>
</g>
<!-- Node1&#45;&gt;Node3 -->
<g id="edge2_Node000001_Node000003" class="edge">
<title>Node1&#45;&gt;Node3</title>
<g id="a_edge2_Node000001_Node000003"><a xlink:title=" ">
<path fill="none" stroke="#63b8ff" d="M127.07,-21.82C145.69,-19.68 165.76,-17.37 183.2,-15.37"/>
<polygon fill="#63b8ff" stroke="#63b8ff" points="183.19,-18.9 192.73,-14.28 182.39,-11.94 183.19,-18.9"/>
</a>
</g>
</g>
<!-- Node4 -->
<g id="Node000004" class="node">
<title>Node4</title>
<g id="a_Node000004"><a xlink:href="son_8c.html#ae145ae699cc1eecf0684bdd530bd26f0" target="_top" xlink:title="Charge (ou recupere du cache) puis joue une piste audio.">
<polygon fill="white" stroke="#666666" points="393,-20 335,-20 335,0 393,0 393,-20"/>
<text xml:space="preserve" text-anchor="middle" x="364" y="-6.5" font-family="Helvetica,sans-Serif" font-size="10.00">jouer_son</text>
</a>
</g>
</g>
<!-- Node3&#45;&gt;Node4 -->
<g id="edge3_Node000003_Node000004" class="edge">
<title>Node3&#45;&gt;Node4</title>
<g id="a_edge3_Node000003_Node000004"><a xlink:title=" ">
<path fill="none" stroke="#63b8ff" d="M267.8,-10C284.99,-10 305.65,-10 323.32,-10"/>
<polygon fill="#63b8ff" stroke="#63b8ff" points="323.2,-13.5 333.2,-10 323.2,-6.5 323.2,-13.5"/>
</a>
</g>
</g>
<!-- Node5 -->
<g id="Node000005" class="node">
<title>Node5</title>
<g id="a_Node000005"><a xlink:href="son_8c.html#ad0d6e981433bdc8e4291e672fa8c039b" target="_top" xlink:title=" ">
<polygon fill="white" stroke="#666666" points="506.5,-20 429,-20 429,0 506.5,0 506.5,-20"/>
<text xml:space="preserve" text-anchor="middle" x="467.75" y="-6.5" font-family="Helvetica,sans-Serif" font-size="10.00">recuperer_son</text>
</a>
</g>
</g>
<!-- Node4&#45;&gt;Node5 -->
<g id="edge4_Node000004_Node000005" class="edge">
<title>Node4&#45;&gt;Node5</title>
<g id="a_edge4_Node000004_Node000005"><a xlink:title=" ">
<path fill="none" stroke="#63b8ff" d="M393.34,-10C400.78,-10 409.02,-10 417.21,-10"/>
<polygon fill="#63b8ff" stroke="#63b8ff" points="417.16,-13.5 427.16,-10 417.16,-6.5 417.16,-13.5"/>
</a>
</g>
</g>
<!-- Node6 -->
<g id="Node000006" class="node">
<title>Node6</title>
<g id="a_Node000006"><a xlink:href="son_8c.html#aad43af6485e6418e4f26007ec64dba14" target="_top" xlink:title=" ">
<polygon fill="white" stroke="#666666" points="628.25,-20 542.5,-20 542.5,0 628.25,0 628.25,-20"/>
<text xml:space="preserve" text-anchor="middle" x="585.38" y="-6.5" font-family="Helvetica,sans-Serif" font-size="10.00">recuperer_mixer</text>
</a>
</g>
</g>
<!-- Node5&#45;&gt;Node6 -->
<g id="edge5_Node000005_Node000006" class="edge">
<title>Node5&#45;&gt;Node6</title>
<g id="a_edge5_Node000005_Node000006"><a xlink:title=" ">
<path fill="none" stroke="#63b8ff" d="M506.93,-10C514.62,-10 522.84,-10 530.94,-10"/>
<polygon fill="#63b8ff" stroke="#63b8ff" points="530.73,-13.5 540.73,-10 530.73,-6.5 530.73,-13.5"/>
</a>
</g>
</g>
</g>
</svg>
