<?xml version="1.0" encoding="UTF-8" standalone="no"?>
<!DOCTYPE svg PUBLIC "-//W3C//DTD SVG 1.1//EN"
 "http://www.w3.org/Graphics/SVG/1.1/DTD/svg11.dtd">
<!-- Generated by graphviz version 14.1.4 (20260321.0153)
 -->
<!-- Title: detruire_un_mob Pages: 1 -->
<svg width="714pt" height="142pt"
 viewBox="0.00 0.00 714.00 142.00" xmlns="http://www.w3.org/2000/svg" xmlns:xlink="http://www.w3.org/1999/xlink">
<g id="graph0" class="graph" transform="scale(1 1) rotate(0) translate(4 138)">
<title>detruire_un_mob</title>
<!-- Node1 -->
<g id="Node000001" class="node">
<title>Node1</title>
<g id="a_Node000001"><a xlink:title="Libere un mob et nettoie les ressources associees.">
<polygon fill="#999999" stroke="#666666" points="705.75,-58 617.75,-58 617.75,-38 705.75,-38 705.75,-58"/>
<text xml:space="preserve" text-anchor="middle" x="661.75" y="-44.5" font-family="Helvetica,sans-Serif" font-size="10.00">detruire_un_mob</text>
</a>
</g>
</g>
<!-- Node2 -->
<g id="Node000002" class="node">
<title>Node2</title>
<g id="a_Node000002"><a xlink:href="boss_8c.html#a06fdb2e8e1170b4f3dbdea1b5d3ee5e9" target="_top" xlink:title=" ">
<polygon fill="white" stroke="#666666" points="581.75,-86 457.75,-86 457.75,-66 581.75,-66 581.75,-86"/>
<text xml:space="preserve" text-anchor="middle" x="519.75" y="-72.5" font-family="Helvetica,sans-Serif" font-size="10.00">supprimer_minions_boss</text>
</a>
</g>
</g>
<!-- Node1&#45;&gt;Node2 -->
<g id="edge1_Node000001_Node000002" class="edge">
<title>Node1&#45;&gt;Node2</title>
<g id="a_edge1_Node000001_Node000002"><a xlink:title=" ">
<path fill="none" stroke="#63b8ff" d="M606.44,-58.86C595.49,-61.05 584,-63.35 573.12,-65.53"/>
<polygon fill="#63b8ff" stroke="#63b8ff" points="607,-62.32 616.12,-56.93 605.63,-55.46 607,-62.32"/>
</a>
</g>
</g>
<!-- Node9 -->
<g id="Node000009" class="node">
<title>Node9</title>
<g id="a_Node000009"><a xlink:href="perso_8c.html#a8ed2806e634464929c59457d470b930b" target="_top" xlink:title="Evalue les collisions de combat (joueur/mobs/items) pour la frame courante.">
<polygon fill="white" stroke="#666666" points="579.12,-39 460.38,-39 460.38,-19 579.12,-19 579.12,-39"/>
<text xml:space="preserve" text-anchor="middle" x="519.75" y="-25.5" font-family="Helvetica,sans-Serif" font-size="10.00">tester_collision_combat</text>
</a>
</g>
</g>
<!-- Node1&#45;&gt;Node9 -->
<g id="edge10_Node000001_Node000009" class="edge">
<title>Node1&#45;&gt;Node9</title>
<g id="a_edge10_Node000001_Node000009"><a xlink:title=" ">
<path fill="none" stroke="#63b8ff" d="M606.29,-40.61C597.49,-39.42 588.35,-38.17 579.46,-36.97"/>
<polygon fill="#63b8ff" stroke="#63b8ff" points="605.72,-44.06 616.1,-41.94 606.66,-37.13 605.72,-44.06"/>
</a>
</g>
</g>
<!-- Node3 -->
<g id="Node000003" class="node">
<title>Node3</title>
<g id="a_Node000003"><a xlink:href="boss_8c.html#a236f706845850941c512c45d6e52d55b" target="_top" xlink:title="Libere boss et nettoie les ressources associees.">
<polygon fill="white" stroke="#666666" points="267,-134 192.5,-134 192.5,-114 267,-114 267,-134"/>
<text xml:space="preserve" text-anchor="middle" x="229.75" y="-120.5" font-family="Helvetica,sans-Serif" font-size="10.00">detruire_boss</text>
</a>
</g>
</g>
<!-- Node2&#45;&gt;Node3 -->
<g id="edge2_Node000002_Node000003" class="edge">
<title>Node2&#45;&gt;Node3</title>
<g id="a_edge2_Node000002_Node000003"><a xlink:title=" ">
<path fill="none" stroke="#63b8ff" d="M456.21,-88.66C444.76,-90.86 432.91,-93.06 421.75,-95 368.22,-104.3 305.95,-113.44 267.44,-118.9"/>
<polygon fill="#63b8ff" stroke="#63b8ff" points="456.84,-92.1 465.99,-86.76 455.51,-85.23 456.84,-92.1"/>
</a>
</g>
</g>
<!-- Node6 -->
<g id="Node000006" class="node">
<title>Node6</title>
<g id="a_Node000006"><a xlink:href="boss_8c.html#abbb99b844a32a59c50228b7d6dcb888b" target="_top" xlink:title="Met a jour boss en fonction de l&#39;etat courant du jeu.">
<polygon fill="white" stroke="#666666" points="280.5,-96 179,-96 179,-76 280.5,-76 280.5,-96"/>
<text xml:space="preserve" text-anchor="middle" x="229.75" y="-82.5" font-family="Helvetica,sans-Serif" font-size="10.00">mettre_a_jour_boss</text>
</a>
</g>
</g>
<!-- Node2&#45;&gt;Node6 -->
<g id="edge5_Node000002_Node000006" class="edge">
<title>Node2&#45;&gt;Node6</title>
<g id="a_edge5_Node000002_Node000006"><a xlink:title=" ">
<path fill="none" stroke="#63b8ff" d="M445.89,-78.53C394.2,-80.32 326.19,-82.69 280.6,-84.27"/>
<polygon fill="#63b8ff" stroke="#63b8ff" points="445.93,-82.03 455.81,-78.19 445.69,-75.03 445.93,-82.03"/>
</a>
</g>
</g>
<!-- Node7 -->
<g id="Node000007" class="node">
<title>Node7</title>
<g id="a_Node000007"><a xlink:href="boss_8c.html#a6ebb70c1cce9efe2e97dfee86382e964" target="_top" xlink:title="Reinitialise boss for retry pour repartir d&#39;un etat propre.">
<polygon fill="white" stroke="#666666" points="421.75,-58 316.5,-58 316.5,-38 421.75,-38 421.75,-58"/>
<text xml:space="preserve" text-anchor="middle" x="369.12" y="-44.5" font-family="Helvetica,sans-Serif" font-size="10.00">reset_boss_for_retry</text>
</a>
</g>
</g>
<!-- Node2&#45;&gt;Node7 -->
<g id="edge7_Node000002_Node000007" class="edge">
<title>Node2&#45;&gt;Node7</title>
<g id="a_edge7_Node000002_Node000007"><a xlink:title=" ">
<path fill="none" stroke="#63b8ff" d="M452.14,-63.45C442.06,-61.55 431.78,-59.62 422.07,-57.79"/>
<polygon fill="#63b8ff" stroke="#63b8ff" points="451.45,-66.88 461.92,-65.29 452.74,-60 451.45,-66.88"/>
</a>
</g>
</g>
<!-- Node4 -->
<g id="Node000004" class="node">
<title>Node4</title>
<g id="a_Node000004"><a xlink:href="jeux_8c.html#a2d7491d04e8c2bdb52bb6ed7d75e4d78" target="_top" xlink:title="Execute la boucle principale de gameplay pour la planete courante.">
<polygon fill="white" stroke="#666666" points="143,-77 73,-77 73,-57 143,-57 143,-77"/>
<text xml:space="preserve" text-anchor="middle" x="108" y="-63.5" font-family="Helvetica,sans-Serif" font-size="10.00">jeu_principal</text>
</a>
</g>
</g>
<!-- Node3&#45;&gt;Node4 -->
<g id="edge3_Node000003_Node000004" class="edge">
<title>Node3&#45;&gt;Node4</title>
<g id="a_edge3_Node000003_Node000004"><a xlink:title=" ">
<path fill="none" stroke="#63b8ff" d="M189.17,-109.44C185.71,-108 182.28,-106.51 179,-105 160.66,-96.56 140.47,-85.39 126.51,-77.35"/>
<polygon fill="#63b8ff" stroke="#63b8ff" points="187.55,-112.56 198.14,-113.02 190.16,-106.06 187.55,-112.56"/>
</a>
</g>
</g>
<!-- Node5 -->
<g id="Node000005" class="node">
<title>Node5</title>
<g id="a_Node000005"><a xlink:href="main_8c.html#a0ddf1224851353fc92bfbff6f499fa97" target="_top" xlink:title=" ">
<polygon fill="white" stroke="#666666" points="37,-77 0,-77 0,-57 37,-57 37,-77"/>
<text xml:space="preserve" text-anchor="middle" x="18.5" y="-63.5" font-family="Helvetica,sans-Serif" font-size="10.00">main</text>
</a>
</g>
</g>
<!-- Node4&#45;&gt;Node5 -->
<g id="edge4_Node000004_Node000005" class="edge">
<title>Node4&#45;&gt;Node5</title>
<g id="a_edge4_Node000004_Node000005"><a xlink:title=" ">
<path fill="none" stroke="#63b8ff" d="M61.18,-67C52.72,-67 44.36,-67 37.37,-67"/>
<polygon fill="#63b8ff" stroke="#63b8ff" points="61.16,-70.5 71.16,-67 61.16,-63.5 61.16,-70.5"/>
</a>
</g>
</g>
<!-- Node6&#45;&gt;Node4 -->
<g id="edge6_Node000006_Node000004" class="edge">
<title>Node6&#45;&gt;Node4</title>
<g id="a_edge6_Node000006_Node000004"><a xlink:title=" ">
<path fill="none" stroke="#63b8ff" d="M167.39,-76.26C159.09,-74.95 150.84,-73.64 143.26,-72.44"/>
<polygon fill="#63b8ff" stroke="#63b8ff" points="166.74,-79.7 177.16,-77.82 167.84,-72.79 166.74,-79.7"/>
</a>
</g>
</g>
<!-- Node8 -->
<g id="Node000008" class="node">
<title>Node8</title>
<g id="a_Node000008"><a xlink:href="game__over_8c.html#a37d3fac8300008a434af7c66a4e695d0" target="_top" xlink:title="Affiche l&#39;ecran de game over et traite le choix du joueur.">
<polygon fill="white" stroke="#666666" points="261.75,-58 197.75,-58 197.75,-38 261.75,-38 261.75,-58"/>
<text xml:space="preserve" text-anchor="middle" x="229.75" y="-44.5" font-family="Helvetica,sans-Serif" font-size="10.00">game_over</text>
</a>
</g>
</g>
<!-- Node7&#45;&gt;Node8 -->
<g id="edge8_Node000007_Node000008" class="edge">
<title>Node7&#45;&gt;Node8</title>
<g id="a_edge8_Node000007_Node000008"><a xlink:title=" ">
<path fill="none" stroke="#63b8ff" d="M304.92,-48C290.03,-48 274.79,-48 262.03,-48"/>
<polygon fill="#63b8ff" stroke="#63b8ff" points="304.68,-51.5 314.68,-48 304.68,-44.5 304.68,-51.5"/>
</a>
</g>
</g>
<!-- Node8&#45;&gt;Node4 -->
<g id="edge9_Node000008_Node000004" class="edge">
<title>Node8&#45;&gt;Node4</title>
<g id="a_edge9_Node000008_Node000004"><a xlink:title=" ">
<path fill="none" stroke="#63b8ff" d="M186.32,-54.73C172.19,-56.97 156.63,-59.44 143.2,-61.57"/>
<polygon fill="#63b8ff" stroke="#63b8ff" points="186.46,-58.25 195.79,-53.23 185.37,-51.34 186.46,-58.25"/>
</a>
</g>
</g>
<!-- Node10 -->
<g id="Node000010" class="node">
<title>Node10</title>
<g id="a_Node000010"><a xlink:href="perso_8c.html#a13de525da0f522f0738bde93c1d62255" target="_top" xlink:title="Met a jour combat en fonction de l&#39;etat courant du jeu.">
<polygon fill="white" stroke="#666666" points="410.5,-20 327.75,-20 327.75,0 410.5,0 410.5,-20"/>
<text xml:space="preserve" text-anchor="middle" x="369.12" y="-6.5" font-family="Helvetica,sans-Serif" font-size="10.00">update_combat</text>
</a>
</g>
</g>
<!-- Node9&#45;&gt;Node10 -->
<g id="edge11_Node000009_Node000010" class="edge">
<title>Node9&#45;&gt;Node10</title>
<g id="a_edge11_Node000009_Node000010"><a xlink:title=" ">
<path fill="none" stroke="#63b8ff" d="M448.63,-20.04C435.59,-18.37 422.38,-16.68 410.6,-15.17"/>
<polygon fill="#63b8ff" stroke="#63b8ff" points="448.15,-23.5 458.51,-21.3 449.03,-16.56 448.15,-23.5"/>
</a>
</g>
</g>
<!-- Node10&#45;&gt;Node4 -->
<g id="edge12_Node000010_Node000004" class="edge">
<title>Node10&#45;&gt;Node4</title>
<g id="a_edge12_Node000010_Node000004"><a xlink:title=" ">
<path fill="none" stroke="#63b8ff" d="M315.89,-9.74C277.29,-10.85 223.87,-15.18 179,-29 158.78,-35.23 137.73,-47.58 124.06,-56.52"/>
<polygon fill="#63b8ff" stroke="#63b8ff" points="315.93,-13.24 325.85,-9.52 315.78,-6.24 315.93,-13.24"/>
</a>
</g>
</g>
</g>
</svg>
