<?xml version="1.0" encoding="UTF-8" standalone="no"?>
<!DOCTYPE svg PUBLIC "-//W3C//DTD SVG 1.1//EN"
 "http://www.w3.org/Graphics/SVG/1.1/DTD/svg11.dtd">
<!-- Generated by graphviz version 14.1.4 (20260321.0153)
 -->
<!-- Title: reset_mob_respawn_queue Pages: 1 -->
<svg width="436pt" height="47pt"
 viewBox="0.00 0.00 436.00 47.00" xmlns="http://www.w3.org/2000/svg" xmlns:xlink="http://www.w3.org/1999/xlink">
<g id="graph0" class="graph" transform="scale(1 1) rotate(0) translate(4 43)">
<title>reset_mob_respawn_queue</title>
<!-- Node1 -->
<g id="Node000001" class="node">
<title>Node1</title>
<g id="a_Node000001"><a xlink:title="Reinitialise mob respawn queue pour repartir d&#39;un etat propre.">
<polygon fill="#999999" stroke="#666666" points="427.75,-20 292.5,-20 292.5,0 427.75,0 427.75,-20"/>
<text xml:space="preserve" text-anchor="middle" x="360.12" y="-6.5" font-family="Helvetica,sans-Serif" font-size="10.00">reset_mob_respawn_queue</text>
</a>
</g>
</g>
<!-- Node2 -->
<g id="Node000002" class="node">
<title>Node2</title>
<g id="a_Node000002"><a xlink:href="mob_8c.html#ac1404d83610b06ad915d669824ab42c3" target="_top" xlink:title="Libere mobs et nettoie les ressources associees.">
<polygon fill="white" stroke="#666666" points="256.5,-39 179,-39 179,-19 256.5,-19 256.5,-39"/>
<text xml:space="preserve" text-anchor="middle" x="217.75" y="-25.5" font-family="Helvetica,sans-Serif" font-size="10.00">detruire_mobs</text>
</a>
</g>
</g>
<!-- Node1&#45;&gt;Node2 -->
<g id="edge1_Node000001_Node000002" class="edge">
<title>Node1&#45;&gt;Node2</title>
<g id="a_edge1_Node000001_Node000002"><a xlink:title=" ">
<path fill="none" stroke="#63b8ff" d="M280.85,-20.6C272.54,-21.72 264.38,-22.82 256.85,-23.84"/>
<polygon fill="#63b8ff" stroke="#63b8ff" points="281.29,-24.07 290.73,-19.26 280.35,-17.13 281.29,-24.07"/>
</a>
</g>
</g>
<!-- Node3 -->
<g id="Node000003" class="node">
<title>Node3</title>
<g id="a_Node000003"><a xlink:href="jeux_8c.html#a2d7491d04e8c2bdb52bb6ed7d75e4d78" target="_top" xlink:title="Execute la boucle principale de gameplay pour la planete courante.">
<polygon fill="white" stroke="#666666" points="143,-20 73,-20 73,0 143,0 143,-20"/>
<text xml:space="preserve" text-anchor="middle" x="108" y="-6.5" font-family="Helvetica,sans-Serif" font-size="10.00">jeu_principal</text>
</a>
</g>
</g>
<!-- Node1&#45;&gt;Node3 -->
<g id="edge4_Node000001_Node000003" class="edge">
<title>Node1&#45;&gt;Node3</title>
<g id="a_edge4_Node000001_Node000003"><a xlink:title=" ">
<path fill="none" stroke="#63b8ff" d="M280.59,-10C234.4,-10 178.35,-10 143.16,-10"/>
<polygon fill="#63b8ff" stroke="#63b8ff" points="280.58,-13.5 290.58,-10 280.58,-6.5 280.58,-13.5"/>
</a>
</g>
</g>
<!-- Node2&#45;&gt;Node3 -->
<g id="edge2_Node000002_Node000003" class="edge">
<title>Node2&#45;&gt;Node3</title>
<g id="a_edge2_Node000002_Node000003"><a xlink:title=" ">
<path fill="none" stroke="#63b8ff" d="M167.45,-20.31C159.33,-18.87 151.07,-17.42 143.41,-16.07"/>
<polygon fill="#63b8ff" stroke="#63b8ff" points="166.81,-23.75 177.27,-22.04 168.03,-16.86 166.81,-23.75"/>
</a>
</g>
</g>
<!-- Node4 -->
<g id="Node000004" class="node">
<title>Node4</title>
<g id="a_Node000004"><a xlink:href="main_8c.html#a0ddf1224851353fc92bfbff6f499fa97" target="_top" xlink:title=" ">
<polygon fill="white" stroke="#666666" points="37,-20 0,-20 0,0 37,0 37,-20"/>
<text xml:space="preserve" text-anchor="middle" x="18.5" y="-6.5" font-family="Helvetica,sans-Serif" font-size="10.00">main</text>
</a>
</g>
</g>
<!-- Node3&#45;&gt;Node4 -->
<g id="edge3_Node000003_Node000004" class="edge">
<title>Node3&#45;&gt;Node4</title>
<g id="a_edge3_Node000003_Node000004"><a xlink:title=" ">
<path fill="none" stroke="#63b8ff" d="M61.18,-10C52.72,-10 44.36,-10 37.37,-10"/>
<polygon fill="#63b8ff" stroke="#63b8ff" points="61.16,-13.5 71.16,-10 61.16,-6.5 61.16,-13.5"/>
</a>
</g>
</g>
</g>
</svg>
