<?xml version="1.0" encoding="UTF-8" standalone="no"?>
<!DOCTYPE svg PUBLIC "-//W3C//DTD SVG 1.1//EN"
 "http://www.w3.org/Graphics/SVG/1.1/DTD/svg11.dtd">
<!-- Generated by graphviz version 14.1.4 (20260321.0153)
 -->
<!-- Title: src/mob.c Pages: 1 -->
<svg width="1497pt" height="196pt"
 viewBox="0.00 0.00 1497.00 196.00" xmlns="http://www.w3.org/2000/svg" xmlns:xlink="http://www.w3.org/1999/xlink">
<g id="graph0" class="graph" transform="scale(1 1) rotate(0) translate(4 192)">
<title>src/mob.c</title>
<!-- Node1 -->
<g id="Node000001" class="node">
<title>Node1</title>
<g id="a_Node000001"><a xlink:title="Gestion des ennemis, de leur deplacement et de leur apparition.">
<polygon fill="#999999" stroke="#666666" points="685.89,-188 626.39,-188 626.39,-168 685.89,-168 685.89,-188"/>
<text xml:space="preserve" text-anchor="middle" x="656.14" y="-174.5" font-family="Helvetica,sans-Serif" font-size="10.00">src/mob.c</text>
</a>
</g>
</g>
<!-- Node2 -->
<g id="Node000002" class="node">
<title>Node2</title>
<g id="a_Node000002"><a xlink:href="main_8h.html" target="_top" xlink:title="Declarations globales et utilitaires partages entre les modules du jeu.">
<polygon fill="white" stroke="#666666" points="697.52,-132 614.77,-132 614.77,-112 697.52,-112 697.52,-132"/>
<text xml:space="preserve" text-anchor="middle" x="656.14" y="-118.5" font-family="Helvetica,sans-Serif" font-size="10.00">headers/main.h</text>
</a>
</g>
</g>
<!-- Node1&#45;&gt;Node2 -->
<g id="edge1_Node000001_Node000002" class="edge">
<title>Node1&#45;&gt;Node2</title>
<g id="a_edge1_Node000001_Node000002"><a xlink:title=" ">
<path fill="none" stroke="#63b8ff" d="M656.14,-167.59C656.14,-161.01 656.14,-151.96 656.14,-143.73"/>
<polygon fill="#63b8ff" stroke="#63b8ff" points="659.64,-143.81 656.14,-133.81 652.64,-143.81 659.64,-143.81"/>
</a>
</g>
</g>
<!-- Node3 -->
<g id="Node000003" class="node">
<title>Node3</title>
<g id="a_Node000003"><a xlink:title=" ">
<polygon fill="#e0e0e0" stroke="#999999" points="865.89,-20 794.39,-20 794.39,0 865.89,0 865.89,-20"/>
<text xml:space="preserve" text-anchor="middle" x="830.14" y="-6.5" font-family="Helvetica,sans-Serif" font-size="10.00">SDL3/SDL.h</text>
</a>
</g>
</g>
<!-- Node2&#45;&gt;Node3 -->
<g id="edge2_Node000002_Node000003" class="edge">
<title>Node2&#45;&gt;Node3</title>
<g id="a_edge2_Node000002_Node000003"><a xlink:title=" ">
<path fill="none" stroke="#63b8ff" d="M697.62,-121.22C831.26,-121.5 1244.25,-118.85 1284.14,-76 1290.2,-69.49 1290.11,-62.59 1284.14,-56 1277.35,-48.51 992.43,-24.33 877.49,-14.86"/>
<polygon fill="#63b8ff" stroke="#63b8ff" points="878.03,-11.39 867.77,-14.06 877.45,-18.37 878.03,-11.39"/>
</a>
</g>
</g>
<!-- Node4 -->
<g id="Node000004" class="node">
<title>Node4</title>
<g id="a_Node000004"><a xlink:title=" ">
<polygon fill="#e0e0e0" stroke="#999999" points="684.39,-20 549.89,-20 549.89,0 684.39,0 684.39,-20"/>
<text xml:space="preserve" text-anchor="middle" x="617.14" y="-6.5" font-family="Helvetica,sans-Serif" font-size="10.00">SDL3_image/SDL_image.h</text>
</a>
</g>
</g>
<!-- Node2&#45;&gt;Node4 -->
<g id="edge3_Node000002_Node000004" class="edge">
<title>Node2&#45;&gt;Node4</title>
<g id="a_edge3_Node000002_Node000004"><a xlink:title=" ">
<path fill="none" stroke="#63b8ff" d="M614.41,-121.07C540.57,-120.21 391.57,-113.71 359.14,-76 353.35,-69.26 353.42,-62.8 359.14,-56 381.72,-29.15 470.83,-18.32 538.06,-13.95"/>
<polygon fill="#63b8ff" stroke="#63b8ff" points="538.21,-17.45 547.98,-13.35 537.78,-10.46 538.21,-17.45"/>
</a>
</g>
</g>
<!-- Node5 -->
<g id="Node000005" class="node">
<title>Node5</title>
<g id="a_Node000005"><a xlink:title=" ">
<polygon fill="#e0e0e0" stroke="#999999" points="123.14,-76 77.14,-76 77.14,-56 123.14,-56 123.14,-76"/>
<text xml:space="preserve" text-anchor="middle" x="100.14" y="-62.5" font-family="Helvetica,sans-Serif" font-size="10.00">math.h</text>
</a>
</g>
</g>
<!-- Node2&#45;&gt;Node5 -->
<g id="edge4_Node000002_Node000005" class="edge">
<title>Node2&#45;&gt;Node5</title>
<g id="a_edge4_Node000002_Node000005"><a xlink:title=" ">
<path fill="none" stroke="#63b8ff" d="M614.35,-120.08C526.89,-117.58 318.14,-108.64 134.65,-76.12"/>
<polygon fill="#63b8ff" stroke="#63b8ff" points="135.39,-72.7 124.93,-74.37 134.15,-79.59 135.39,-72.7"/>
</a>
</g>
</g>
<!-- Node6 -->
<g id="Node000006" class="node">
<title>Node6</title>
<g id="a_Node000006"><a xlink:title=" ">
<polygon fill="#e0e0e0" stroke="#999999" points="165.14,-20 35.14,-20 35.14,0 165.14,0 165.14,-20"/>
<text xml:space="preserve" text-anchor="middle" x="100.14" y="-6.5" font-family="Helvetica,sans-Serif" font-size="10.00">SDL3_mixer/SDL_mixer.h</text>
</a>
</g>
</g>
<!-- Node2&#45;&gt;Node6 -->
<g id="edge5_Node000002_Node000006" class="edge">
<title>Node2&#45;&gt;Node6</title>
<g id="a_edge5_Node000002_Node000006"><a xlink:title=" ">
<path fill="none" stroke="#63b8ff" d="M614.66,-121.33C477.9,-121.98 47.62,-120.45 6.14,-76 -14.2,-54.21 21.71,-35.61 54.85,-23.96"/>
<polygon fill="#63b8ff" stroke="#63b8ff" points="55.63,-27.39 64.01,-20.9 53.41,-20.75 55.63,-27.39"/>
</a>
</g>
</g>
<!-- Node7 -->
<g id="Node000007" class="node">
<title>Node7</title>
<g id="a_Node000007"><a xlink:title=" ">
<polygon fill="#e0e0e0" stroke="#999999" points="246.77,-76 201.52,-76 201.52,-56 246.77,-56 246.77,-76"/>
<text xml:space="preserve" text-anchor="middle" x="224.14" y="-62.5" font-family="Helvetica,sans-Serif" font-size="10.00">stdio.h</text>
</a>
</g>
</g>
<!-- Node2&#45;&gt;Node7 -->
<g id="edge6_Node000002_Node000007" class="edge">
<title>Node2&#45;&gt;Node7</title>
<g id="a_edge6_Node000002_Node000007"><a xlink:title=" ">
<path fill="none" stroke="#63b8ff" d="M614.51,-118.68C543.19,-114.19 393,-102.54 257.99,-76.29"/>
<polygon fill="#63b8ff" stroke="#63b8ff" points="259.03,-72.93 248.54,-74.42 257.67,-79.8 259.03,-72.93"/>
</a>
</g>
</g>
<!-- Node8 -->
<g id="Node000008" class="node">
<title>Node8</title>
<g id="a_Node000008"><a xlink:title=" ">
<polygon fill="#e0e0e0" stroke="#999999" points="311.89,-76 264.39,-76 264.39,-56 311.89,-56 311.89,-76"/>
<text xml:space="preserve" text-anchor="middle" x="288.14" y="-62.5" font-family="Helvetica,sans-Serif" font-size="10.00">stdlib.h</text>
</a>
</g>
</g>
<!-- Node2&#45;&gt;Node8 -->
<g id="edge7_Node000002_Node000008" class="edge">
<title>Node2&#45;&gt;Node8</title>
<g id="a_edge7_Node000002_Node000008"><a xlink:title=" ">
<path fill="none" stroke="#63b8ff" d="M614.52,-116.64C551.73,-109.76 429.17,-95.18 326.14,-76 325.15,-75.82 324.15,-75.62 323.13,-75.42"/>
<polygon fill="#63b8ff" stroke="#63b8ff" points="324.18,-72.07 313.67,-73.39 322.71,-78.91 324.18,-72.07"/>
</a>
</g>
</g>
<!-- Node9 -->
<g id="Node000009" class="node">
<title>Node9</title>
<g id="a_Node000009"><a xlink:href="menu_8h.html" target="_top" xlink:title="Fichier du menu principal et des choix de navigation.">
<polygon fill="white" stroke="#666666" points="602.27,-76 554.02,-76 554.02,-56 602.27,-56 602.27,-76"/>
<text xml:space="preserve" text-anchor="middle" x="578.14" y="-62.5" font-family="Helvetica,sans-Serif" font-size="10.00">menu.h</text>
</a>
</g>
</g>
<!-- Node2&#45;&gt;Node9 -->
<g id="edge8_Node000002_Node000009" class="edge">
<title>Node2&#45;&gt;Node9</title>
<g id="a_edge8_Node000002_Node000009"><a xlink:title=" ">
<path fill="none" stroke="#63b8ff" d="M642.55,-111.59C631.1,-103.67 614.48,-92.16 600.99,-82.82"/>
<polygon fill="#63b8ff" stroke="#63b8ff" points="603.29,-80.16 593.08,-77.34 599.31,-85.91 603.29,-80.16"/>
</a>
</g>
</g>
<!-- Node10 -->
<g id="Node000010" class="node">
<title>Node10</title>
<g id="a_Node000010"><a xlink:href="game__over_8h.html" target="_top" xlink:title="Fichier de l&#39;ecran de fin de partie et des transitions associees.">
<polygon fill="white" stroke="#666666" points="692.27,-76 620.02,-76 620.02,-56 692.27,-56 692.27,-76"/>
<text xml:space="preserve" text-anchor="middle" x="656.14" y="-62.5" font-family="Helvetica,sans-Serif" font-size="10.00">game_over.h</text>
</a>
</g>
</g>
<!-- Node2&#45;&gt;Node10 -->
<g id="edge11_Node000002_Node000010" class="edge">
<title>Node2&#45;&gt;Node10</title>
<g id="a_edge11_Node000002_Node000010"><a xlink:title=" ">
<path fill="none" stroke="#63b8ff" d="M656.14,-111.59C656.14,-105.01 656.14,-95.96 656.14,-87.73"/>
<polygon fill="#63b8ff" stroke="#63b8ff" points="659.64,-87.81 656.14,-77.81 652.64,-87.81 659.64,-87.81"/>
</a>
</g>
</g>
<!-- Node11 -->
<g id="Node000011" class="node">
<title>Node11</title>
<g id="a_Node000011"><a xlink:href="jeux_8h.html" target="_top" xlink:title="Fichier de la boucle de jeu principale et de son initialisation.">
<polygon fill="white" stroke="#666666" points="183.27,-76 141.02,-76 141.02,-56 183.27,-56 183.27,-76"/>
<text xml:space="preserve" text-anchor="middle" x="162.14" y="-62.5" font-family="Helvetica,sans-Serif" font-size="10.00">jeux.h</text>
</a>
</g>
</g>
<!-- Node2&#45;&gt;Node11 -->
<g id="edge14_Node000002_Node000011" class="edge">
<title>Node2&#45;&gt;Node11</title>
<g id="a_edge14_Node000002_Node000011"><a xlink:title=" ">
<path fill="none" stroke="#63b8ff" d="M614.47,-119.68C534.59,-116.55 354.34,-106.7 194.62,-76.14"/>
<polygon fill="#63b8ff" stroke="#63b8ff" points="195.62,-72.77 185.13,-74.29 194.28,-79.64 195.62,-72.77"/>
</a>
</g>
</g>
<!-- Node12 -->
<g id="Node000012" class="node">
<title>Node12</title>
<g id="a_Node000012"><a xlink:href="bouton_8h.html" target="_top" xlink:title="Fichier des boutons UI, de leur etat et de la gestion des interactions souris.">
<polygon fill="white" stroke="#666666" points="821.89,-76 768.39,-76 768.39,-56 821.89,-56 821.89,-76"/>
<text xml:space="preserve" text-anchor="middle" x="795.14" y="-62.5" font-family="Helvetica,sans-Serif" font-size="10.00">bouton.h</text>
</a>
</g>
</g>
<!-- Node2&#45;&gt;Node12 -->
<g id="edge18_Node000002_Node000012" class="edge">
<title>Node2&#45;&gt;Node12</title>
<g id="a_edge18_Node000002_Node000012"><a xlink:title=" ">
<path fill="none" stroke="#63b8ff" d="M680.35,-111.59C702.44,-103.01 735.34,-90.23 760.26,-80.55"/>
<polygon fill="#63b8ff" stroke="#63b8ff" points="761.28,-83.91 769.33,-77.03 758.74,-77.39 761.28,-83.91"/>
</a>
</g>
</g>
<!-- Node13 -->
<g id="Node000013" class="node">
<title>Node13</title>
<g id="a_Node000013"><a xlink:href="option_8h.html" target="_top" xlink:title="Fichier de l&#39;ecran d&#39;options et des reglages de jeu.">
<polygon fill="white" stroke="#666666" points="890.39,-76 839.89,-76 839.89,-56 890.39,-56 890.39,-76"/>
<text xml:space="preserve" text-anchor="middle" x="865.14" y="-62.5" font-family="Helvetica,sans-Serif" font-size="10.00">option.h</text>
</a>
</g>
</g>
<!-- Node2&#45;&gt;Node13 -->
<g id="edge21_Node000002_Node000013" class="edge">
<title>Node2&#45;&gt;Node13</title>
<g id="a_edge21_Node000002_Node000013"><a xlink:title=" ">
<path fill="none" stroke="#63b8ff" d="M693.37,-111.51C726.46,-103.05 776.44,-90.24 828.41,-76.7"/>
<polygon fill="#63b8ff" stroke="#63b8ff" points="829.27,-80.09 838.06,-74.18 827.5,-73.32 829.27,-80.09"/>
</a>
</g>
</g>
<!-- Node14 -->
<g id="Node000014" class="node">
<title>Node14</title>
<g id="a_Node000014"><a xlink:href="perso_8h.html" target="_top" xlink:title="Fichier du personnage: deplacement, combat, stats et collisions.">
<polygon fill="white" stroke="#666666" points="956.27,-76 908.02,-76 908.02,-56 956.27,-56 956.27,-76"/>
<text xml:space="preserve" text-anchor="middle" x="932.14" y="-62.5" font-family="Helvetica,sans-Serif" font-size="10.00">perso.h</text>
</a>
</g>
</g>
<!-- Node2&#45;&gt;Node14 -->
<g id="edge24_Node000002_Node000014" class="edge">
<title>Node2&#45;&gt;Node14</title>
<g id="a_edge24_Node000002_Node000014"><a xlink:title=" ">
<path fill="none" stroke="#63b8ff" d="M697.63,-114.4C743.9,-106.79 821.2,-93.39 896.58,-76.44"/>
<polygon fill="#63b8ff" stroke="#63b8ff" points="897.24,-79.88 906.21,-74.25 895.69,-73.05 897.24,-79.88"/>
</a>
</g>
</g>
<!-- Node15 -->
<g id="Node000015" class="node">
<title>Node15</title>
<g id="a_Node000015"><a xlink:href="son_8h.html" target="_top" xlink:title="Fichier audio: musique, effets sonores et etats d&#39;activation.">
<polygon fill="white" stroke="#666666" points="750.14,-76 710.14,-76 710.14,-56 750.14,-56 750.14,-76"/>
<text xml:space="preserve" text-anchor="middle" x="730.14" y="-62.5" font-family="Helvetica,sans-Serif" font-size="10.00">son.h</text>
</a>
</g>
</g>
<!-- Node2&#45;&gt;Node15 -->
<g id="edge27_Node000002_Node000015" class="edge">
<title>Node2&#45;&gt;Node15</title>
<g id="a_edge27_Node000002_Node000015"><a xlink:title=" ">
<path fill="none" stroke="#63b8ff" d="M669.03,-111.59C679.85,-103.7 695.55,-92.24 708.33,-82.92"/>
<polygon fill="#63b8ff" stroke="#63b8ff" points="710.16,-85.91 716.18,-77.19 706.04,-80.26 710.16,-85.91"/>
</a>
</g>
</g>
<!-- Node17 -->
<g id="Node000017" class="node">
<title>Node17</title>
<g id="a_Node000017"><a xlink:href="boss_8h.html" target="_top" xlink:title="API de gestion des boss, de leurs phases et de leurs comportements de combat.">
<polygon fill="white" stroke="#666666" points="413.77,-76 368.52,-76 368.52,-56 413.77,-56 413.77,-76"/>
<text xml:space="preserve" text-anchor="middle" x="391.14" y="-62.5" font-family="Helvetica,sans-Serif" font-size="10.00">boss.h</text>
</a>
</g>
</g>
<!-- Node2&#45;&gt;Node17 -->
<g id="edge32_Node000002_Node000017" class="edge">
<title>Node2&#45;&gt;Node17</title>
<g id="a_edge32_Node000002_Node000017"><a xlink:title=" ">
<path fill="none" stroke="#63b8ff" d="M614.47,-114.19C569.77,-106.61 496.5,-93.44 425.08,-76.55"/>
<polygon fill="#63b8ff" stroke="#63b8ff" points="426.11,-73.2 415.57,-74.27 424.48,-80.01 426.11,-73.2"/>
</a>
</g>
</g>
<!-- Node18 -->
<g id="Node000018" class="node">
<title>Node18</title>
<g id="a_Node000018"><a xlink:href="mob_8h.html" target="_top" xlink:title="Fichier des mobs: creation, mise a jour, rendu et file de respawn.">
<polygon fill="white" stroke="#666666" points="474.64,-76 431.64,-76 431.64,-56 474.64,-56 474.64,-76"/>
<text xml:space="preserve" text-anchor="middle" x="453.14" y="-62.5" font-family="Helvetica,sans-Serif" font-size="10.00">mob.h</text>
</a>
</g>
</g>
<!-- Node2&#45;&gt;Node18 -->
<g id="edge35_Node000002_Node000018" class="edge">
<title>Node2&#45;&gt;Node18</title>
<g id="a_edge35_Node000002_Node000018"><a xlink:title=" ">
<path fill="none" stroke="#63b8ff" d="M618.24,-111.57C585.44,-103.32 536.51,-90.77 485.89,-76.7"/>
<polygon fill="#63b8ff" stroke="#63b8ff" points="487.1,-73.41 476.53,-74.09 485.22,-80.15 487.1,-73.41"/>
</a>
</g>
</g>
<!-- Node19 -->
<g id="Node000019" class="node">
<title>Node19</title>
<g id="a_Node000019"><a xlink:href="vaisseau_8h.html" target="_top" xlink:title="Fichier de la scene vaisseau, des interactions et du retour en planete.">
<polygon fill="white" stroke="#666666" points="1116.77,-76 1053.52,-76 1053.52,-56 1116.77,-56 1116.77,-76"/>
<text xml:space="preserve" text-anchor="middle" x="1085.14" y="-62.5" font-family="Helvetica,sans-Serif" font-size="10.00">vaisseau.h</text>
</a>
</g>
</g>
<!-- Node2&#45;&gt;Node19 -->
<g id="edge38_Node000002_Node000019" class="edge">
<title>Node2&#45;&gt;Node19</title>
<g id="a_edge38_Node000002_Node000019"><a xlink:title=" ">
<path fill="none" stroke="#63b8ff" d="M697.8,-117.64C767.26,-111.73 911.31,-98.12 1042.31,-76.34"/>
<polygon fill="#63b8ff" stroke="#63b8ff" points="1042.55,-79.84 1051.83,-74.73 1041.39,-72.94 1042.55,-79.84"/>
</a>
</g>
</g>
<!-- Node20 -->
<g id="Node000020" class="node">
<title>Node20</title>
<g id="a_Node000020"><a xlink:href="map_8h.html" target="_top" xlink:title="Fichier de navigation carte et de gestion des ressources cartographiques.">
<polygon fill="white" stroke="#666666" points="58.64,-76 15.64,-76 15.64,-56 58.64,-56 58.64,-76"/>
<text xml:space="preserve" text-anchor="middle" x="37.14" y="-62.5" font-family="Helvetica,sans-Serif" font-size="10.00">map.h</text>
</a>
</g>
</g>
<!-- Node2&#45;&gt;Node20 -->
<g id="edge40_Node000002_Node000020" class="edge">
<title>Node2&#45;&gt;Node20</title>
<g id="a_edge40_Node000002_Node000020"><a xlink:title=" ">
<path fill="none" stroke="#63b8ff" d="M614.42,-120.75C519.33,-119.55 279.26,-112.97 70.21,-75.97"/>
<polygon fill="#63b8ff" stroke="#63b8ff" points="70.97,-72.55 60.51,-74.23 69.73,-79.44 70.97,-72.55"/>
</a>
</g>
</g>
<!-- Node21 -->
<g id="Node000021" class="node">
<title>Node21</title>
<g id="a_Node000021"><a xlink:href="item_8h.html" target="_top" xlink:title="Fichier de creation, d&#39;affichage et de destruction des items.">
<polygon fill="white" stroke="#666666" points="535.64,-76 492.64,-76 492.64,-56 535.64,-56 535.64,-76"/>
<text xml:space="preserve" text-anchor="middle" x="514.14" y="-62.5" font-family="Helvetica,sans-Serif" font-size="10.00">item.h</text>
</a>
</g>
</g>
<!-- Node2&#45;&gt;Node21 -->
<g id="edge44_Node000002_Node000021" class="edge">
<title>Node2&#45;&gt;Node21</title>
<g id="a_edge44_Node000002_Node000021"><a xlink:title=" ">
<path fill="none" stroke="#63b8ff" d="M631.41,-111.59C607.87,-102.64 572.33,-89.13 546.54,-79.32"/>
<polygon fill="#63b8ff" stroke="#63b8ff" points="547.81,-76.06 537.22,-75.78 545.32,-82.6 547.81,-76.06"/>
</a>
</g>
</g>
<!-- Node22 -->
<g id="Node000022" class="node">
<title>Node22</title>
<g id="a_Node000022"><a xlink:href="inventaire_8h.html" target="_top" xlink:title="Fichier de l&#39;inventaire, de la hotbar et des interactions de slots.">
<polygon fill="white" stroke="#666666" points="1397.27,-76 1331.02,-76 1331.02,-56 1397.27,-56 1397.27,-76"/>
<text xml:space="preserve" text-anchor="middle" x="1364.14" y="-62.5" font-family="Helvetica,sans-Serif" font-size="10.00">inventaire.h</text>
</a>
</g>
</g>
<!-- Node2&#45;&gt;Node22 -->
<g id="edge47_Node000002_Node000022" class="edge">
<title>Node2&#45;&gt;Node22</title>
<g id="a_edge47_Node000002_Node000022"><a xlink:title=" ">
<path fill="none" stroke="#63b8ff" d="M697.69,-119.92C802.17,-116.83 1084.15,-106.13 1317.14,-76 1317.96,-75.89 1318.79,-75.78 1319.62,-75.67"/>
<polygon fill="#63b8ff" stroke="#63b8ff" points="1319.76,-79.19 1329.09,-74.17 1318.67,-72.27 1319.76,-79.19"/>
</a>
</g>
</g>
<!-- Node23 -->
<g id="Node000023" class="node">
<title>Node23</title>
<g id="a_Node000023"><a xlink:href="sauvegarde_8h.html" target="_top" xlink:title="Fichier des slots de sauvegarde et du chargement de progression.">
<polygon fill="white" stroke="#666666" points="1489.39,-76 1414.89,-76 1414.89,-56 1489.39,-56 1489.39,-76"/>
<text xml:space="preserve" text-anchor="middle" x="1452.14" y="-62.5" font-family="Helvetica,sans-Serif" font-size="10.00">sauvegarde.h</text>
</a>
</g>
</g>
<!-- Node2&#45;&gt;Node23 -->
<g id="edge51_Node000002_Node000023" class="edge">
<title>Node2&#45;&gt;Node23</title>
<g id="a_edge51_Node000002_Node000023"><a xlink:title=" ">
<path fill="none" stroke="#63b8ff" d="M697.79,-120.45C810.11,-118.54 1128.76,-110.39 1403.17,-76.21"/>
<polygon fill="#63b8ff" stroke="#63b8ff" points="1403.57,-79.69 1413.05,-74.97 1402.69,-72.75 1403.57,-79.69"/>
</a>
</g>
</g>
<!-- Node25 -->
<g id="Node000025" class="node">
<title>Node25</title>
<g id="a_Node000025"><a xlink:href="objectifs_8h.html" target="_top" xlink:title="Fichier de suivi des objectifs de quete et de leur affichage.">
<polygon fill="white" stroke="#666666" points="1035.64,-76 974.64,-76 974.64,-56 1035.64,-56 1035.64,-76"/>
<text xml:space="preserve" text-anchor="middle" x="1005.14" y="-62.5" font-family="Helvetica,sans-Serif" font-size="10.00">objectifs.h</text>
</a>
</g>
</g>
<!-- Node2&#45;&gt;Node25 -->
<g id="edge54_Node000002_Node000025" class="edge">
<title>Node2&#45;&gt;Node25</title>
<g id="a_edge54_Node000002_Node000025"><a xlink:title=" ">
<path fill="none" stroke="#63b8ff" d="M697.79,-115.97C755.21,-108.8 862.13,-94.65 963.16,-76.24"/>
<polygon fill="#63b8ff" stroke="#63b8ff" points="963.49,-79.74 972.69,-74.49 962.22,-72.86 963.49,-79.74"/>
</a>
</g>
</g>
<!-- Node26 -->
<g id="Node000026" class="node">
<title>Node26</title>
<g id="a_Node000026"><a xlink:href="cinematique_8h.html" target="_top" xlink:title="Fichier des cinematics, des intros et des sequences de credits.">
<polygon fill="white" stroke="#666666" points="1211.52,-76 1134.77,-76 1134.77,-56 1211.52,-56 1211.52,-76"/>
<text xml:space="preserve" text-anchor="middle" x="1173.14" y="-62.5" font-family="Helvetica,sans-Serif" font-size="10.00">cinematique.h</text>
</a>
</g>
</g>
<!-- Node2&#45;&gt;Node26 -->
<g id="edge58_Node000002_Node000026" class="edge">
<title>Node2&#45;&gt;Node26</title>
<g id="a_edge58_Node000002_Node000026"><a xlink:title=" ">
<path fill="none" stroke="#63b8ff" d="M697.79,-118.33C778.14,-112.89 960.3,-99.19 1123.26,-76.3"/>
<polygon fill="#63b8ff" stroke="#63b8ff" points="1123.55,-79.79 1132.96,-74.92 1122.57,-72.86 1123.55,-79.79"/>
</a>
</g>
</g>
<!-- Node27 -->
<g id="Node000027" class="node">
<title>Node27</title>
<g id="a_Node000027"><a xlink:href="shop_8h.html" target="_top" xlink:title="Fichier de la boutique, des achats et de l&#39;economie joueur.">
<polygon fill="white" stroke="#666666" points="1274.77,-76 1229.52,-76 1229.52,-56 1274.77,-56 1274.77,-76"/>
<text xml:space="preserve" text-anchor="middle" x="1252.14" y="-62.5" font-family="Helvetica,sans-Serif" font-size="10.00">shop.h</text>
</a>
</g>
</g>
<!-- Node2&#45;&gt;Node27 -->
<g id="edge60_Node000002_Node000027" class="edge">
<title>Node2&#45;&gt;Node27</title>
<g id="a_edge60_Node000002_Node000027"><a xlink:title=" ">
<path fill="none" stroke="#63b8ff" d="M697.89,-120.44C790.14,-118.61 1018.32,-110.82 1217.91,-76.03"/>
<polygon fill="#63b8ff" stroke="#63b8ff" points="1218.47,-79.49 1227.7,-74.3 1217.25,-72.6 1218.47,-79.49"/>
</a>
</g>
</g>
<!-- Node9&#45;&gt;Node3 -->
<g id="edge9_Node000009_Node000003" class="edge">
<title>Node9&#45;&gt;Node3</title>
<g id="a_edge9_Node000009_Node000003"><a xlink:title=" ">
<path fill="none" stroke="#63b8ff" d="M602.6,-58.14C605.48,-57.39 608.37,-56.66 611.14,-56 670.01,-41.94 738.41,-28.31 782.9,-19.81"/>
<polygon fill="#63b8ff" stroke="#63b8ff" points="783.29,-23.3 792.46,-17.99 781.98,-16.42 783.29,-23.3"/>
</a>
</g>
</g>
<!-- Node9&#45;&gt;Node4 -->
<g id="edge10_Node000009_Node000004" class="edge">
<title>Node9&#45;&gt;Node4</title>
<g id="a_edge10_Node000009_Node000004"><a xlink:title=" ">
<path fill="none" stroke="#63b8ff" d="M584.93,-55.59C590.14,-48.39 597.47,-38.23 603.83,-29.43"/>
<polygon fill="#63b8ff" stroke="#63b8ff" points="606.52,-31.68 609.54,-21.53 600.85,-27.58 606.52,-31.68"/>
</a>
</g>
</g>
<!-- Node10&#45;&gt;Node3 -->
<g id="edge12_Node000010_Node000003" class="edge">
<title>Node10&#45;&gt;Node3</title>
<g id="a_edge12_Node000010_Node000003"><a xlink:title=" ">
<path fill="none" stroke="#63b8ff" d="M686.45,-55.59C714.84,-46.78 757.51,-33.54 788.97,-23.78"/>
<polygon fill="#63b8ff" stroke="#63b8ff" points="789.64,-27.23 798.15,-20.93 787.56,-20.55 789.64,-27.23"/>
</a>
</g>
</g>
<!-- Node10&#45;&gt;Node4 -->
<g id="edge13_Node000010_Node000004" class="edge">
<title>Node10&#45;&gt;Node4</title>
<g id="a_edge13_Node000010_Node000004"><a xlink:title=" ">
<path fill="none" stroke="#63b8ff" d="M649.35,-55.59C644.15,-48.39 636.81,-38.23 630.45,-29.43"/>
<polygon fill="#63b8ff" stroke="#63b8ff" points="633.44,-27.58 624.74,-21.53 627.76,-31.68 633.44,-27.58"/>
</a>
</g>
</g>
<!-- Node11&#45;&gt;Node3 -->
<g id="edge15_Node000011_Node000003" class="edge">
<title>Node11&#45;&gt;Node3</title>
<g id="a_edge15_Node000011_Node000003"><a xlink:title=" ">
<path fill="none" stroke="#63b8ff" d="M183.63,-57.93C186.47,-57.18 189.36,-56.51 192.14,-56 206.66,-53.34 637.64,-24.03 782.88,-14.19"/>
<polygon fill="#63b8ff" stroke="#63b8ff" points="782.79,-17.71 792.53,-13.54 782.32,-10.72 782.79,-17.71"/>
</a>
</g>
</g>
<!-- Node11&#45;&gt;Node4 -->
<g id="edge16_Node000011_Node000004" class="edge">
<title>Node11&#45;&gt;Node4</title>
<g id="a_edge16_Node000011_Node000004"><a xlink:title=" ">
<path fill="none" stroke="#63b8ff" d="M183.65,-58.03C186.49,-57.26 189.37,-56.56 192.14,-56 311.41,-32.01 452.24,-20.29 538.09,-14.97"/>
<polygon fill="#63b8ff" stroke="#63b8ff" points="538.29,-18.46 548.06,-14.36 537.87,-11.47 538.29,-18.46"/>
</a>
</g>
</g>
<!-- Node11&#45;&gt;Node6 -->
<g id="edge17_Node000011_Node000006" class="edge">
<title>Node11&#45;&gt;Node6</title>
<g id="a_edge17_Node000011_Node000006"><a xlink:title=" ">
<path fill="none" stroke="#63b8ff" d="M151.34,-55.59C142.54,-47.93 129.89,-36.91 119.37,-27.75"/>
<polygon fill="#63b8ff" stroke="#63b8ff" points="121.8,-25.22 111.96,-21.29 117.2,-30.5 121.8,-25.22"/>
</a>
</g>
</g>
<!-- Node12&#45;&gt;Node3 -->
<g id="edge19_Node000012_Node000003" class="edge">
<title>Node12&#45;&gt;Node3</title>
<g id="a_edge19_Node000012_Node000003"><a xlink:title=" ">
<path fill="none" stroke="#63b8ff" d="M801.24,-55.59C805.85,-48.47 812.35,-38.45 818.01,-29.72"/>
<polygon fill="#63b8ff" stroke="#63b8ff" points="820.79,-31.86 823.29,-21.57 814.92,-28.06 820.79,-31.86"/>
</a>
</g>
</g>
<!-- Node12&#45;&gt;Node4 -->
<g id="edge20_Node000012_Node000004" class="edge">
<title>Node12&#45;&gt;Node4</title>
<g id="a_edge20_Node000012_Node000004"><a xlink:title=" ">
<path fill="none" stroke="#63b8ff" d="M768.11,-56.8C739.18,-48.02 692.93,-33.99 659.23,-23.77"/>
<polygon fill="#63b8ff" stroke="#63b8ff" points="660.37,-20.46 649.78,-20.9 658.33,-27.15 660.37,-20.46"/>
</a>
</g>
</g>
<!-- Node13&#45;&gt;Node3 -->
<g id="edge22_Node000013_Node000003" class="edge">
<title>Node13&#45;&gt;Node3</title>
<g id="a_edge22_Node000013_Node000003"><a xlink:title=" ">
<path fill="none" stroke="#63b8ff" d="M859.04,-55.59C854.43,-48.47 847.93,-38.45 842.27,-29.72"/>
<polygon fill="#63b8ff" stroke="#63b8ff" points="845.37,-28.06 836.99,-21.57 839.49,-31.86 845.37,-28.06"/>
</a>
</g>
</g>
<!-- Node13&#45;&gt;Node4 -->
<g id="edge23_Node000013_Node000004" class="edge">
<title>Node13&#45;&gt;Node4</title>
<g id="a_edge23_Node000013_Node000004"><a xlink:title=" ">
<path fill="none" stroke="#63b8ff" d="M839.56,-58.08C836.72,-57.35 833.87,-56.65 831.14,-56 779.26,-43.69 719.89,-31.34 676.87,-22.7"/>
<polygon fill="#63b8ff" stroke="#63b8ff" points="677.72,-19.3 667.23,-20.77 676.35,-26.17 677.72,-19.3"/>
</a>
</g>
</g>
<!-- Node14&#45;&gt;Node3 -->
<g id="edge25_Node000014_Node000003" class="edge">
<title>Node14&#45;&gt;Node3</title>
<g id="a_edge25_Node000014_Node000003"><a xlink:title=" ">
<path fill="none" stroke="#63b8ff" d="M914.37,-55.59C898.82,-47.36 875.96,-35.26 857.98,-25.74"/>
<polygon fill="#63b8ff" stroke="#63b8ff" points="859.86,-22.77 849.38,-21.19 856.58,-28.96 859.86,-22.77"/>
</a>
</g>
</g>
<!-- Node14&#45;&gt;Node4 -->
<g id="edge26_Node000014_Node000004" class="edge">
<title>Node14&#45;&gt;Node4</title>
<g id="a_edge26_Node000014_Node000004"><a xlink:title=" ">
<path fill="none" stroke="#63b8ff" d="M907.71,-58.02C904.83,-57.29 901.93,-56.6 899.14,-56 830.99,-41.31 752.62,-29.18 695.82,-21.23"/>
<polygon fill="#63b8ff" stroke="#63b8ff" points="696.64,-17.81 686.26,-19.91 695.68,-24.75 696.64,-17.81"/>
</a>
</g>
</g>
<!-- Node15&#45;&gt;Node3 -->
<g id="edge28_Node000015_Node000003" class="edge">
<title>Node15&#45;&gt;Node3</title>
<g id="a_edge28_Node000015_Node000003"><a xlink:title=" ">
<path fill="none" stroke="#63b8ff" d="M747.56,-55.59C762.81,-47.36 785.22,-35.26 802.85,-25.74"/>
<polygon fill="#63b8ff" stroke="#63b8ff" points="804.12,-29.03 811.25,-21.2 800.79,-22.87 804.12,-29.03"/>
</a>
</g>
</g>
<!-- Node15&#45;&gt;Node4 -->
<g id="edge29_Node000015_Node000004" class="edge">
<title>Node15&#45;&gt;Node4</title>
<g id="a_edge29_Node000015_Node000004"><a xlink:title=" ">
<path fill="none" stroke="#63b8ff" d="M710.46,-55.59C692.98,-47.24 667.19,-34.92 647.15,-25.34"/>
<polygon fill="#63b8ff" stroke="#63b8ff" points="648.88,-22.29 638.34,-21.13 645.86,-28.6 648.88,-22.29"/>
</a>
</g>
</g>
<!-- Node15&#45;&gt;Node6 -->
<g id="edge31_Node000015_Node000006" class="edge">
<title>Node15&#45;&gt;Node6</title>
<g id="a_edge31_Node000015_Node000006"><a xlink:title=" ">
<path fill="none" stroke="#63b8ff" d="M709.69,-58.03C706.84,-57.24 703.94,-56.53 701.14,-56 515.05,-20.63 291.61,-12.78 176.7,-11.22"/>
<polygon fill="#63b8ff" stroke="#63b8ff" points="176.81,-7.72 166.76,-11.1 176.72,-14.72 176.81,-7.72"/>
</a>
</g>
</g>
<!-- Node16 -->
<g id="Node000016" class="node">
<title>Node16</title>
<g id="a_Node000016"><a xlink:title=" ">
<polygon fill="#e0e0e0" stroke="#999999" points="1055.14,-20 955.14,-20 955.14,0 1055.14,0 1055.14,-20"/>
<text xml:space="preserve" text-anchor="middle" x="1005.14" y="-6.5" font-family="Helvetica,sans-Serif" font-size="10.00">SDL3_ttf/SDL_ttf.h</text>
</a>
</g>
</g>
<!-- Node15&#45;&gt;Node16 -->
<g id="edge30_Node000015_Node000016" class="edge">
<title>Node15&#45;&gt;Node16</title>
<g id="a_edge30_Node000015_Node000016"><a xlink:title=" ">
<path fill="none" stroke="#63b8ff" d="M750.34,-58.39C753.27,-57.53 756.27,-56.7 759.14,-56 821.34,-40.72 893.53,-28.11 943.55,-20.16"/>
<polygon fill="#63b8ff" stroke="#63b8ff" points="943.99,-23.64 953.33,-18.63 942.91,-16.72 943.99,-23.64"/>
</a>
</g>
</g>
<!-- Node17&#45;&gt;Node3 -->
<g id="edge33_Node000017_Node000003" class="edge">
<title>Node17&#45;&gt;Node3</title>
<g id="a_edge33_Node000017_Node000003"><a xlink:title=" ">
<path fill="none" stroke="#63b8ff" d="M414.06,-57.87C416.76,-57.17 419.5,-56.52 422.14,-56 551.28,-30.33 706.54,-18.27 782.95,-13.55"/>
<polygon fill="#63b8ff" stroke="#63b8ff" points="782.79,-17.07 792.57,-12.97 782.37,-10.08 782.79,-17.07"/>
</a>
</g>
</g>
<!-- Node17&#45;&gt;Node4 -->
<g id="edge34_Node000017_Node000004" class="edge">
<title>Node17&#45;&gt;Node4</title>
<g id="a_edge34_Node000017_Node000004"><a xlink:title=" ">
<path fill="none" stroke="#63b8ff" d="M414.12,-58.17C416.82,-57.42 419.54,-56.68 422.14,-56 468.96,-43.81 522.55,-31.57 561.68,-22.94"/>
<polygon fill="#63b8ff" stroke="#63b8ff" points="562.33,-26.38 571.35,-20.81 560.83,-19.54 562.33,-26.38"/>
</a>
</g>
</g>
<!-- Node18&#45;&gt;Node3 -->
<g id="edge36_Node000018_Node000003" class="edge">
<title>Node18&#45;&gt;Node3</title>
<g id="a_edge36_Node000018_Node000003"><a xlink:title=" ">
<path fill="none" stroke="#63b8ff" d="M474.99,-58C477.72,-57.26 480.48,-56.57 483.14,-56 588.93,-33.43 715.43,-20.49 782.65,-14.7"/>
<polygon fill="#63b8ff" stroke="#63b8ff" points="782.92,-18.19 792.59,-13.86 782.33,-11.21 782.92,-18.19"/>
</a>
</g>
</g>
<!-- Node18&#45;&gt;Node4 -->
<g id="edge37_Node000018_Node000004" class="edge">
<title>Node18&#45;&gt;Node4</title>
<g id="a_edge37_Node000018_Node000004"><a xlink:title=" ">
<path fill="none" stroke="#63b8ff" d="M474.92,-57.83C501.03,-49.23 545.3,-34.66 577.52,-24.05"/>
<polygon fill="#63b8ff" stroke="#63b8ff" points="578.53,-27.4 586.93,-20.95 576.34,-20.75 578.53,-27.4"/>
</a>
</g>
</g>
<!-- Node19&#45;&gt;Node3 -->
<g id="edge39_Node000019_Node000003" class="edge">
<title>Node19&#45;&gt;Node3</title>
<g id="a_edge39_Node000019_Node000003"><a xlink:title=" ">
<path fill="none" stroke="#63b8ff" d="M1053.27,-57.78C1050.52,-57.18 1047.78,-56.57 1045.14,-56 987.5,-43.48 921.02,-29.66 877.43,-20.69"/>
<polygon fill="#63b8ff" stroke="#63b8ff" points="878.3,-17.29 867.8,-18.7 876.89,-24.15 878.3,-17.29"/>
</a>
</g>
</g>
<!-- Node20&#45;&gt;Node3 -->
<g id="edge41_Node000020_Node000003" class="edge">
<title>Node20&#45;&gt;Node3</title>
<g id="a_edge41_Node000020_Node000003"><a xlink:title=" ">
<path fill="none" stroke="#63b8ff" d="M59.01,-57.99C62.05,-57.21 65.16,-56.51 68.14,-56 342.37,-8.91 415.43,-37.12 693.14,-20 722.98,-18.16 756.47,-15.96 782.87,-14.2"/>
<polygon fill="#63b8ff" stroke="#63b8ff" points="782.84,-17.71 792.58,-13.55 782.37,-10.73 782.84,-17.71"/>
</a>
</g>
</g>
<!-- Node20&#45;&gt;Node4 -->
<g id="edge42_Node000020_Node000004" class="edge">
<title>Node20&#45;&gt;Node4</title>
<g id="a_edge42_Node000020_Node000004"><a xlink:title=" ">
<path fill="none" stroke="#63b8ff" d="M59.03,-58.06C62.06,-57.27 65.16,-56.55 68.14,-56 233.75,-25.49 431.27,-15.66 538.46,-12.5"/>
<polygon fill="#63b8ff" stroke="#63b8ff" points="538.4,-16 548.3,-12.22 538.2,-9.01 538.4,-16"/>
</a>
</g>
</g>
<!-- Node20&#45;&gt;Node6 -->
<g id="edge43_Node000020_Node000006" class="edge">
<title>Node20&#45;&gt;Node6</title>
<g id="a_edge43_Node000020_Node000006"><a xlink:title=" ">
<path fill="none" stroke="#63b8ff" d="M48.11,-55.59C57.06,-47.93 69.91,-36.91 80.6,-27.75"/>
<polygon fill="#63b8ff" stroke="#63b8ff" points="82.83,-30.45 88.14,-21.28 78.27,-25.13 82.83,-30.45"/>
</a>
</g>
</g>
<!-- Node21&#45;&gt;Node3 -->
<g id="edge45_Node000021_Node000003" class="edge">
<title>Node21&#45;&gt;Node3</title>
<g id="a_edge45_Node000021_Node000003"><a xlink:title=" ">
<path fill="none" stroke="#63b8ff" d="M536.07,-58.26C539.1,-57.44 542.19,-56.66 545.14,-56 628.16,-37.47 726.43,-23.73 783.2,-16.57"/>
<polygon fill="#63b8ff" stroke="#63b8ff" points="783.33,-20.08 792.82,-15.37 782.47,-13.13 783.33,-20.08"/>
</a>
</g>
</g>
<!-- Node21&#45;&gt;Node4 -->
<g id="edge46_Node000021_Node000004" class="edge">
<title>Node21&#45;&gt;Node4</title>
<g id="a_edge46_Node000021_Node000004"><a xlink:title=" ">
<path fill="none" stroke="#63b8ff" d="M532.08,-55.59C547.79,-47.36 570.87,-35.26 589.03,-25.74"/>
<polygon fill="#63b8ff" stroke="#63b8ff" points="590.49,-28.93 597.72,-21.18 587.24,-22.73 590.49,-28.93"/>
</a>
</g>
</g>
<!-- Node22&#45;&gt;Node3 -->
<g id="edge48_Node000022_Node000003" class="edge">
<title>Node22&#45;&gt;Node3</title>
<g id="a_edge48_Node000022_Node000003"><a xlink:title=" ">
<path fill="none" stroke="#63b8ff" d="M1330.57,-58.16C1326.07,-57.36 1321.5,-56.62 1317.14,-56 1232.97,-44.08 982.51,-23.28 877.4,-14.78"/>
<polygon fill="#63b8ff" stroke="#63b8ff" points="877.97,-11.31 867.72,-14 877.41,-18.29 877.97,-11.31"/>
</a>
</g>
</g>
<!-- Node22&#45;&gt;Node4 -->
<g id="edge49_Node000022_Node000004" class="edge">
<title>Node22&#45;&gt;Node4</title>
<g id="a_edge49_Node000022_Node000004"><a xlink:title=" ">
<path fill="none" stroke="#63b8ff" d="M1330.7,-60.9C1316.38,-59.23 1299.45,-57.38 1284.14,-56 1071.72,-36.9 820.57,-22.03 695.75,-15.16"/>
<polygon fill="#63b8ff" stroke="#63b8ff" points="696.13,-11.68 685.95,-14.63 695.74,-18.67 696.13,-11.68"/>
</a>
</g>
</g>
<!-- Node22&#45;&gt;Node16 -->
<g id="edge50_Node000022_Node000016" class="edge">
<title>Node22&#45;&gt;Node16</title>
<g id="a_edge50_Node000022_Node000016"><a xlink:title=" ">
<path fill="none" stroke="#63b8ff" d="M1330.54,-58.37C1326.04,-57.54 1321.48,-56.73 1317.14,-56 1230.51,-41.47 1129.86,-27.47 1066.83,-19.05"/>
<polygon fill="#63b8ff" stroke="#63b8ff" points="1067.38,-15.59 1057.01,-17.74 1066.46,-22.53 1067.38,-15.59"/>
</a>
</g>
</g>
<!-- Node23&#45;&gt;Node3 -->
<g id="edge52_Node000023_Node000003" class="edge">
<title>Node23&#45;&gt;Node3</title>
<g id="a_edge52_Node000023_Node000003"><a xlink:title=" ">
<path fill="none" stroke="#63b8ff" d="M1414.54,-57.28C1411.71,-56.81 1408.88,-56.37 1406.14,-56 1402.87,-55.55 1015.12,-25.38 877.73,-14.7"/>
<polygon fill="#63b8ff" stroke="#63b8ff" points="878.12,-11.22 867.88,-13.93 877.58,-18.2 878.12,-11.22"/>
</a>
</g>
</g>
<!-- Node24 -->
<g id="Node000024" class="node">
<title>Node24</title>
<g id="a_Node000024"><a xlink:title=" ">
<polygon fill="#e0e0e0" stroke="#999999" points="1480.02,-20 1424.27,-20 1424.27,0 1480.02,0 1480.02,-20"/>
<text xml:space="preserve" text-anchor="middle" x="1452.14" y="-6.5" font-family="Helvetica,sans-Serif" font-size="10.00">stdbool.h</text>
</a>
</g>
</g>
<!-- Node23&#45;&gt;Node24 -->
<g id="edge53_Node000023_Node000024" class="edge">
<title>Node23&#45;&gt;Node24</title>
<g id="a_edge53_Node000023_Node000024"><a xlink:title=" ">
<path fill="none" stroke="#63b8ff" d="M1452.14,-55.59C1452.14,-49.01 1452.14,-39.96 1452.14,-31.73"/>
<polygon fill="#63b8ff" stroke="#63b8ff" points="1455.64,-31.81 1452.14,-21.81 1448.64,-31.81 1455.64,-31.81"/>
</a>
</g>
</g>
<!-- Node25&#45;&gt;Node3 -->
<g id="edge55_Node000025_Node000003" class="edge">
<title>Node25&#45;&gt;Node3</title>
<g id="a_edge55_Node000025_Node000003"><a xlink:title=" ">
<path fill="none" stroke="#63b8ff" d="M974.66,-55.59C946.1,-46.78 903.19,-33.54 871.54,-23.78"/>
<polygon fill="#63b8ff" stroke="#63b8ff" points="872.9,-20.53 862.31,-20.93 870.83,-27.22 872.9,-20.53"/>
</a>
</g>
</g>
<!-- Node25&#45;&gt;Node4 -->
<g id="edge56_Node000025_Node000004" class="edge">
<title>Node25&#45;&gt;Node4</title>
<g id="a_edge56_Node000025_Node000004"><a xlink:title=" ">
<path fill="none" stroke="#63b8ff" d="M974.19,-57.74C971.14,-57.11 968.09,-56.52 965.14,-56 873.18,-39.74 766.56,-26.82 695.82,-19.07"/>
<polygon fill="#63b8ff" stroke="#63b8ff" points="696.61,-15.63 686.29,-18.03 695.85,-22.59 696.61,-15.63"/>
</a>
</g>
</g>
<!-- Node25&#45;&gt;Node16 -->
<g id="edge57_Node000025_Node000016" class="edge">
<title>Node25&#45;&gt;Node16</title>
<g id="a_edge57_Node000025_Node000016"><a xlink:title=" ">
<path fill="none" stroke="#63b8ff" d="M1005.14,-55.59C1005.14,-49.01 1005.14,-39.96 1005.14,-31.73"/>
<polygon fill="#63b8ff" stroke="#63b8ff" points="1008.64,-31.81 1005.14,-21.81 1001.64,-31.81 1008.64,-31.81"/>
</a>
</g>
</g>
<!-- Node26&#45;&gt;Node3 -->
<g id="edge59_Node000026_Node000003" class="edge">
<title>Node26&#45;&gt;Node3</title>
<g id="a_edge59_Node000026_Node000003"><a xlink:title=" ">
<path fill="none" stroke="#63b8ff" d="M1134.43,-57.47C1131.63,-56.96 1128.84,-56.46 1126.14,-56 1038.49,-40.95 935.78,-25.92 877.3,-17.6"/>
<polygon fill="#63b8ff" stroke="#63b8ff" points="878.1,-14.18 867.71,-16.24 877.12,-21.11 878.1,-14.18"/>
</a>
</g>
</g>
<!-- Node27&#45;&gt;Node3 -->
<g id="edge61_Node000027_Node000003" class="edge">
<title>Node27&#45;&gt;Node3</title>
<g id="a_edge61_Node000027_Node000003"><a xlink:title=" ">
<path fill="none" stroke="#63b8ff" d="M1229.17,-58.07C1226.15,-57.3 1223.09,-56.58 1220.14,-56 1155.58,-43.28 966.55,-24.15 877.54,-15.51"/>
<polygon fill="#63b8ff" stroke="#63b8ff" points="877.97,-12.04 867.68,-14.56 877.3,-19.01 877.97,-12.04"/>
</a>
</g>
</g>
</g>
</svg>
