<?xml version="1.0" encoding="UTF-8" standalone="no"?>
<!DOCTYPE svg PUBLIC "-//W3C//DTD SVG 1.1//EN"
 "http://www.w3.org/Graphics/SVG/1.1/DTD/svg11.dtd">
<!-- Generated by graphviz version 14.1.4 (20260321.0153)
 -->
<!-- Title: init_mobs Pages: 1 -->
<svg width="589pt" height="142pt"
 viewBox="0.00 0.00 589.00 142.00" xmlns="http://www.w3.org/2000/svg" xmlns:xlink="http://www.w3.org/1999/xlink">
<g id="graph0" class="graph" transform="scale(1 1) rotate(0) translate(4 138)">
<title>init_mobs</title>
<!-- Node1 -->
<g id="Node000001" class="node">
<title>Node1</title>
<g id="a_Node000001"><a xlink:title="Initialise mobs et prepare les ressources necessaires.">
<polygon fill="#999999" stroke="#666666" points="58,-77 0,-77 0,-57 58,-57 58,-77"/>
<text xml:space="preserve" text-anchor="middle" x="29" y="-63.5" font-family="Helvetica,sans-Serif" font-size="10.00">init_mobs</text>
</a>
</g>
</g>
<!-- Node2 -->
<g id="Node000002" class="node">
<title>Node2</title>
<g id="a_Node000002"><a xlink:href="mob_8c.html#af87428c098eeb520a5ae73c472e6f56d" target="_top" xlink:title=" ">
<polygon fill="white" stroke="#666666" points="230,-134 94,-134 94,-114 230,-114 230,-134"/>
<text xml:space="preserve" text-anchor="middle" x="162" y="-120.5" font-family="Helvetica,sans-Serif" font-size="10.00">get_vaisseau_collision_rect</text>
</a>
</g>
</g>
<!-- Node1&#45;&gt;Node2 -->
<g id="edge1_Node000001_Node000002" class="edge">
<title>Node1&#45;&gt;Node2</title>
<g id="a_edge1_Node000001_Node000002"><a xlink:title=" ">
<path fill="none" stroke="#63b8ff" d="M44.93,-77.38C57.53,-85.77 76.31,-97.39 94,-105 98.25,-106.83 102.72,-108.53 107.26,-110.11"/>
<polygon fill="#63b8ff" stroke="#63b8ff" points="105.86,-113.33 116.45,-113.1 108.02,-106.68 105.86,-113.33"/>
</a>
</g>
</g>
<!-- Node3 -->
<g id="Node000003" class="node">
<title>Node3</title>
<g id="a_Node000003"><a xlink:href="main_8h.html#a6c672075bc554c92548a916c9501bdb5" target="_top" xlink:title=" ">
<polygon fill="white" stroke="#666666" points="206,-96 118,-96 118,-76 206,-76 206,-96"/>
<text xml:space="preserve" text-anchor="middle" x="162" y="-82.5" font-family="Helvetica,sans-Serif" font-size="10.00">screen_center_x</text>
</a>
</g>
</g>
<!-- Node1&#45;&gt;Node3 -->
<g id="edge2_Node000001_Node000003" class="edge">
<title>Node1&#45;&gt;Node3</title>
<g id="a_edge2_Node000001_Node000003"><a xlink:title=" ">
<path fill="none" stroke="#63b8ff" d="M58.43,-71.12C72.49,-73.16 89.95,-75.69 106.46,-78.09"/>
<polygon fill="#63b8ff" stroke="#63b8ff" points="105.78,-81.53 116.18,-79.5 106.79,-74.6 105.78,-81.53"/>
</a>
</g>
</g>
<!-- Node5 -->
<g id="Node000005" class="node">
<title>Node5</title>
<g id="a_Node000005"><a xlink:href="main_8h.html#a6456affd0d0a21e911b531a5ba25676d" target="_top" xlink:title=" ">
<polygon fill="white" stroke="#666666" points="206,-58 118,-58 118,-38 206,-38 206,-58"/>
<text xml:space="preserve" text-anchor="middle" x="162" y="-44.5" font-family="Helvetica,sans-Serif" font-size="10.00">screen_center_y</text>
</a>
</g>
</g>
<!-- Node1&#45;&gt;Node5 -->
<g id="edge4_Node000001_Node000005" class="edge">
<title>Node1&#45;&gt;Node5</title>
<g id="a_edge4_Node000001_Node000005"><a xlink:title=" ">
<path fill="none" stroke="#63b8ff" d="M58.43,-62.88C72.49,-60.84 89.95,-58.31 106.46,-55.91"/>
<polygon fill="#63b8ff" stroke="#63b8ff" points="106.79,-59.4 116.18,-54.5 105.78,-52.47 106.79,-59.4"/>
</a>
</g>
</g>
<!-- Node7 -->
<g id="Node000007" class="node">
<title>Node7</title>
<g id="a_Node000007"><a xlink:href="perso_8c.html#a2a53403cf290bb65fb010b095c4843cf" target="_top" xlink:title="Verifie collision et retourne le resultat du test.">
<polygon fill="white" stroke="#666666" points="198.5,-20 125.5,-20 125.5,0 198.5,0 198.5,-20"/>
<text xml:space="preserve" text-anchor="middle" x="162" y="-6.5" font-family="Helvetica,sans-Serif" font-size="10.00">test_collision</text>
</a>
</g>
</g>
<!-- Node1&#45;&gt;Node7 -->
<g id="edge6_Node000001_Node000007" class="edge">
<title>Node1&#45;&gt;Node7</title>
<g id="a_edge6_Node000001_Node000007"><a xlink:title=" ">
<path fill="none" stroke="#63b8ff" d="M44.93,-56.62C57.53,-48.23 76.31,-36.61 94,-29 100.49,-26.21 107.5,-23.71 114.47,-21.5"/>
<polygon fill="#63b8ff" stroke="#63b8ff" points="115.25,-24.92 123.83,-18.71 113.25,-18.21 115.25,-24.92"/>
</a>
</g>
</g>
<!-- Node4 -->
<g id="Node000004" class="node">
<title>Node4</title>
<g id="a_Node000004"><a xlink:href="main_8h.html#aaaa1e9fcb86ff8e60b297faa7815ad1d" target="_top" xlink:title=" ">
<polygon fill="white" stroke="#666666" points="344.25,-96 267.5,-96 267.5,-76 344.25,-76 344.25,-96"/>
<text xml:space="preserve" text-anchor="middle" x="305.88" y="-82.5" font-family="Helvetica,sans-Serif" font-size="10.00">screen_widthf</text>
</a>
</g>
</g>
<!-- Node3&#45;&gt;Node4 -->
<g id="edge3_Node000003_Node000004" class="edge">
<title>Node3&#45;&gt;Node4</title>
<g id="a_edge3_Node000003_Node000004"><a xlink:title=" ">
<path fill="none" stroke="#63b8ff" d="M206.34,-86C221.94,-86 239.66,-86 255.73,-86"/>
<polygon fill="#63b8ff" stroke="#63b8ff" points="255.57,-89.5 265.57,-86 255.57,-82.5 255.57,-89.5"/>
</a>
</g>
</g>
<!-- Node6 -->
<g id="Node000006" class="node">
<title>Node6</title>
<g id="a_Node000006"><a xlink:href="main_8h.html#a9b4aefc63ea00e60ec88da19e24e8236" target="_top" xlink:title=" ">
<polygon fill="white" stroke="#666666" points="345.75,-58 266,-58 266,-38 345.75,-38 345.75,-58"/>
<text xml:space="preserve" text-anchor="middle" x="305.88" y="-44.5" font-family="Helvetica,sans-Serif" font-size="10.00">screen_heightf</text>
</a>
</g>
</g>
<!-- Node5&#45;&gt;Node6 -->
<g id="edge5_Node000005_Node000006" class="edge">
<title>Node5&#45;&gt;Node6</title>
<g id="a_edge5_Node000005_Node000006"><a xlink:title=" ">
<path fill="none" stroke="#63b8ff" d="M206.34,-48C221.55,-48 238.77,-48 254.51,-48"/>
<polygon fill="#63b8ff" stroke="#63b8ff" points="254.15,-51.5 264.15,-48 254.15,-44.5 254.15,-51.5"/>
</a>
</g>
</g>
<!-- Node8 -->
<g id="Node000008" class="node">
<title>Node8</title>
<g id="a_Node000008"><a xlink:href="son_8c.html#ae145ae699cc1eecf0684bdd530bd26f0" target="_top" xlink:title="Charge (ou recupere du cache) puis joue une piste audio.">
<polygon fill="white" stroke="#666666" points="334.88,-20 276.88,-20 276.88,0 334.88,0 334.88,-20"/>
<text xml:space="preserve" text-anchor="middle" x="305.88" y="-6.5" font-family="Helvetica,sans-Serif" font-size="10.00">jouer_son</text>
</a>
</g>
</g>
<!-- Node7&#45;&gt;Node8 -->
<g id="edge7_Node000007_Node000008" class="edge">
<title>Node7&#45;&gt;Node8</title>
<g id="a_edge7_Node000007_Node000008"><a xlink:title=" ">
<path fill="none" stroke="#63b8ff" d="M198.8,-10C219.07,-10 244.46,-10 265.32,-10"/>
<polygon fill="#63b8ff" stroke="#63b8ff" points="265.17,-13.5 275.17,-10 265.17,-6.5 265.17,-13.5"/>
</a>
</g>
</g>
<!-- Node9 -->
<g id="Node000009" class="node">
<title>Node9</title>
<g id="a_Node000009"><a xlink:href="son_8c.html#ad0d6e981433bdc8e4291e672fa8c039b" target="_top" xlink:title=" ">
<polygon fill="white" stroke="#666666" points="459.25,-20 381.75,-20 381.75,0 459.25,0 459.25,-20"/>
<text xml:space="preserve" text-anchor="middle" x="420.5" y="-6.5" font-family="Helvetica,sans-Serif" font-size="10.00">recuperer_son</text>
</a>
</g>
</g>
<!-- Node8&#45;&gt;Node9 -->
<g id="edge8_Node000008_Node000009" class="edge">
<title>Node8&#45;&gt;Node9</title>
<g id="a_edge8_Node000008_Node000009"><a xlink:title=" ">
<path fill="none" stroke="#63b8ff" d="M335.3,-10C345.86,-10 358.18,-10 370.09,-10"/>
<polygon fill="#63b8ff" stroke="#63b8ff" points="369.79,-13.5 379.79,-10 369.79,-6.5 369.79,-13.5"/>
</a>
</g>
</g>
<!-- Node10 -->
<g id="Node000010" class="node">
<title>Node10</title>
<g id="a_Node000010"><a xlink:href="son_8c.html#aad43af6485e6418e4f26007ec64dba14" target="_top" xlink:title=" ">
<polygon fill="white" stroke="#666666" points="581,-20 495.25,-20 495.25,0 581,0 581,-20"/>
<text xml:space="preserve" text-anchor="middle" x="538.12" y="-6.5" font-family="Helvetica,sans-Serif" font-size="10.00">recuperer_mixer</text>
</a>
</g>
</g>
<!-- Node9&#45;&gt;Node10 -->
<g id="edge9_Node000009_Node000010" class="edge">
<title>Node9&#45;&gt;Node10</title>
<g id="a_edge9_Node000009_Node000010"><a xlink:title=" ">
<path fill="none" stroke="#63b8ff" d="M459.68,-10C467.37,-10 475.59,-10 483.69,-10"/>
<polygon fill="#63b8ff" stroke="#63b8ff" points="483.48,-13.5 493.48,-10 483.48,-6.5 483.48,-13.5"/>
</a>
</g>
</g>
</g>
</svg>
