<?xml version="1.0" encoding="UTF-8" standalone="no"?>
<!DOCTYPE svg PUBLIC "-//W3C//DTD SVG 1.1//EN"
 "http://www.w3.org/Graphics/SVG/1.1/DTD/svg11.dtd">
<!-- Generated by graphviz version 14.1.4 (20260321.0153)
 -->
<!-- Title: init_mobs Pages: 1 -->
<svg width="269pt" height="28pt"
 viewBox="0.00 0.00 269.00 28.00" xmlns="http://www.w3.org/2000/svg" xmlns:xlink="http://www.w3.org/1999/xlink">
<g id="graph0" class="graph" transform="scale(1 1) rotate(0) translate(4 24)">
<title>init_mobs</title>
<!-- Node1 -->
<g id="Node000001" class="node">
<title>Node1</title>
<g id="a_Node000001"><a xlink:title="Initialise mobs et prepare les ressources necessaires.">
<polygon fill="#999999" stroke="#666666" points="58,-20 0,-20 0,0 58,0 58,-20"/>
<text xml:space="preserve" text-anchor="middle" x="29" y="-6.5" font-family="Helvetica,sans-Serif" font-size="10.00">init_mobs</text>
</a>
</g>
</g>
<!-- Node2 -->
<g id="Node000002" class="node">
<title>Node2</title>
<g id="a_Node000002"><a xlink:href="perso_8c.html#a2a53403cf290bb65fb010b095c4843cf" target="_top" xlink:title="Verifie collision et retourne le resultat du test.">
<polygon fill="white" stroke="#666666" points="167,-20 94,-20 94,0 167,0 167,-20"/>
<text xml:space="preserve" text-anchor="middle" x="130.5" y="-6.5" font-family="Helvetica,sans-Serif" font-size="10.00">test_collision</text>
</a>
</g>
</g>
<!-- Node1&#45;&gt;Node2 -->
<g id="edge1_Node000001_Node000002" class="edge">
<title>Node1&#45;&gt;Node2</title>
<g id="a_edge1_Node000001_Node000002"><a xlink:title=" ">
<path fill="none" stroke="#63b8ff" d="M58.25,-10C65.74,-10 74.05,-10 82.26,-10"/>
<polygon fill="#63b8ff" stroke="#63b8ff" points="82.21,-13.5 92.21,-10 82.21,-6.5 82.21,-13.5"/>
</a>
</g>
</g>
<!-- Node3 -->
<g id="Node000003" class="node">
<title>Node3</title>
<g id="a_Node000003"><a xlink:href="son_8c.html#ae145ae699cc1eecf0684bdd530bd26f0" target="_top" xlink:title="Charge (ou recupere du cache) puis joue une piste audio.">
<polygon fill="white" stroke="#666666" points="261,-20 203,-20 203,0 261,0 261,-20"/>
<text xml:space="preserve" text-anchor="middle" x="232" y="-6.5" font-family="Helvetica,sans-Serif" font-size="10.00">jouer_son</text>
</a>
</g>
</g>
<!-- Node2&#45;&gt;Node3 -->
<g id="edge2_Node000002_Node000003" class="edge">
<title>Node2&#45;&gt;Node3</title>
<g id="a_edge2_Node000002_Node000003"><a xlink:title=" ">
<path fill="none" stroke="#63b8ff" d="M167.42,-10C175.2,-10 183.47,-10 191.38,-10"/>
<polygon fill="#63b8ff" stroke="#63b8ff" points="191.11,-13.5 201.11,-10 191.11,-6.5 191.11,-13.5"/>
</a>
</g>
</g>
</g>
</svg>
