<?xml version="1.0" encoding="UTF-8" standalone="no"?>
<!DOCTYPE svg PUBLIC "-//W3C//DTD SVG 1.1//EN"
 "http://www.w3.org/Graphics/SVG/1.1/DTD/svg11.dtd">
<!-- Generated by graphviz version 14.1.4 (20260321.0153)
 -->
<!-- Title: update_mobs Pages: 1 -->
<svg width="769pt" height="185pt"
 viewBox="0.00 0.00 769.00 185.00" xmlns="http://www.w3.org/2000/svg" xmlns:xlink="http://www.w3.org/1999/xlink">
<g id="graph0" class="graph" transform="scale(1 1) rotate(0) translate(4 181.07)">
<title>update_mobs</title>
<!-- Node1 -->
<g id="Node000001" class="node">
<title>Node1</title>
<g id="a_Node000001"><a xlink:title="Met a jour mobs en fonction de l&#39;etat courant du jeu.">
<polygon fill="#999999" stroke="#666666" points="74.5,-82.07 0,-82.07 0,-62.07 74.5,-62.07 74.5,-82.07"/>
<text xml:space="preserve" text-anchor="middle" x="37.25" y="-68.57" font-family="Helvetica,sans-Serif" font-size="10.00">update_mobs</text>
</a>
</g>
</g>
<!-- Node2 -->
<g id="Node000002" class="node">
<title>Node2</title>
<g id="a_Node000002"><a xlink:href="mob_8c.html#a1d5fd526db9bbc3f5b70491cfc645818" target="_top" xlink:title=" ">
<polygon fill="white" stroke="#666666" points="234.88,-158.07 113.12,-158.07 113.12,-138.07 234.88,-138.07 234.88,-158.07"/>
<text xml:space="preserve" text-anchor="middle" x="174" y="-144.57" font-family="Helvetica,sans-Serif" font-size="10.00">get_player_world_center</text>
</a>
</g>
</g>
<!-- Node1&#45;&gt;Node2 -->
<g id="edge1_Node000001_Node000002" class="edge">
<title>Node1&#45;&gt;Node2</title>
<g id="a_edge1_Node000001_Node000002"><a xlink:title=" ">
<path fill="none" stroke="#63b8ff" d="M50.64,-82.52C64.54,-93.85 88.06,-111.95 110.5,-124.07 116.81,-127.48 123.71,-130.64 130.54,-133.47"/>
<polygon fill="#63b8ff" stroke="#63b8ff" points="129.14,-136.68 139.73,-137.08 131.71,-130.17 129.14,-136.68"/>
</a>
</g>
</g>
<!-- Node7 -->
<g id="Node000007" class="node">
<title>Node7</title>
<g id="a_Node000007"><a xlink:href="mob_8c.html#af87428c098eeb520a5ae73c472e6f56d" target="_top" xlink:title=" ">
<polygon fill="white" stroke="#666666" points="409.5,-92.07 273.5,-92.07 273.5,-72.07 409.5,-72.07 409.5,-92.07"/>
<text xml:space="preserve" text-anchor="middle" x="341.5" y="-78.57" font-family="Helvetica,sans-Serif" font-size="10.00">get_vaisseau_collision_rect</text>
</a>
</g>
</g>
<!-- Node1&#45;&gt;Node7 -->
<g id="edge6_Node000001_Node000007" class="edge">
<title>Node1&#45;&gt;Node7</title>
<g id="a_edge6_Node000001_Node000007"><a xlink:title=" ">
<path fill="none" stroke="#63b8ff" d="M70.63,-82.48C82.97,-85.95 97.25,-89.36 110.5,-91.07 160.54,-97.54 217.17,-95.44 261.71,-91.65"/>
<polygon fill="#63b8ff" stroke="#63b8ff" points="261.9,-95.14 271.55,-90.76 261.27,-88.17 261.9,-95.14"/>
</a>
</g>
</g>
<!-- Node8 -->
<g id="Node000008" class="node">
<title>Node8</title>
<g id="a_Node000008"><a xlink:href="mob_8c.html#a6d9cf118a455f327d2d151281260aafd" target="_top" xlink:title=" ">
<polygon fill="white" stroke="#666666" points="225.5,-82.07 122.5,-82.07 122.5,-62.07 225.5,-62.07 225.5,-82.07"/>
<text xml:space="preserve" text-anchor="middle" x="174" y="-68.57" font-family="Helvetica,sans-Serif" font-size="10.00">pop_respawn_prevu</text>
</a>
</g>
</g>
<!-- Node1&#45;&gt;Node8 -->
<g id="edge7_Node000001_Node000008" class="edge">
<title>Node1&#45;&gt;Node8</title>
<g id="a_edge7_Node000001_Node000008"><a xlink:title=" ">
<path fill="none" stroke="#63b8ff" d="M74.72,-72.07C85.87,-72.07 98.48,-72.07 110.85,-72.07"/>
<polygon fill="#63b8ff" stroke="#63b8ff" points="110.58,-75.57 120.58,-72.07 110.58,-68.57 110.58,-75.57"/>
</a>
</g>
</g>
<!-- Node9 -->
<g id="Node000009" class="node">
<title>Node9</title>
<g id="a_Node000009"><a xlink:href="mob_8c.html#ad937d045795912d2cc7b363b7d2d19b8" target="_top" xlink:title=" ">
<polygon fill="white" stroke="#666666" points="237.5,-44.07 110.5,-44.07 110.5,-24.07 237.5,-24.07 237.5,-44.07"/>
<text xml:space="preserve" text-anchor="middle" x="174" y="-30.57" font-family="Helvetica,sans-Serif" font-size="10.00">spawn_one_mob_of_type</text>
</a>
</g>
</g>
<!-- Node1&#45;&gt;Node9 -->
<g id="edge8_Node000001_Node000009" class="edge">
<title>Node1&#45;&gt;Node9</title>
<g id="a_edge8_Node000001_Node000009"><a xlink:title=" ">
<path fill="none" stroke="#63b8ff" d="M74.72,-61.79C90.32,-57.39 108.74,-52.19 125.39,-47.49"/>
<polygon fill="#63b8ff" stroke="#63b8ff" points="125.91,-50.99 134.58,-44.9 124.01,-44.25 125.91,-50.99"/>
</a>
</g>
</g>
<!-- Node10 -->
<g id="Node000010" class="node">
<title>Node10</title>
<g id="a_Node000010"><a xlink:href="perso_8c.html#a2a53403cf290bb65fb010b095c4843cf" target="_top" xlink:title="Verifie collision et retourne le resultat du test.">
<polygon fill="white" stroke="#666666" points="378,-25.07 305,-25.07 305,-5.07 378,-5.07 378,-25.07"/>
<text xml:space="preserve" text-anchor="middle" x="341.5" y="-11.57" font-family="Helvetica,sans-Serif" font-size="10.00">test_collision</text>
</a>
</g>
</g>
<!-- Node1&#45;&gt;Node10 -->
<g id="edge14_Node000001_Node000010" class="edge">
<title>Node1&#45;&gt;Node10</title>
<g id="a_edge14_Node000001_Node000010"><a xlink:title=" ">
<path fill="none" stroke="#63b8ff" d="M46.8,-62.02C59.2,-48.31 83.63,-24.39 110.5,-15.07 170.97,5.91 245.88,0.62 293.44,-6.27"/>
<polygon fill="#63b8ff" stroke="#63b8ff" points="292.72,-9.7 303.13,-7.76 293.78,-2.78 292.72,-9.7"/>
</a>
</g>
</g>
<!-- Node3 -->
<g id="Node000003" class="node">
<title>Node3</title>
<g id="a_Node000003"><a xlink:href="main_8h.html#a6c672075bc554c92548a916c9501bdb5" target="_top" xlink:title=" ">
<polygon fill="white" stroke="#666666" points="385.5,-177.07 297.5,-177.07 297.5,-157.07 385.5,-157.07 385.5,-177.07"/>
<text xml:space="preserve" text-anchor="middle" x="341.5" y="-163.57" font-family="Helvetica,sans-Serif" font-size="10.00">screen_center_x</text>
</a>
</g>
</g>
<!-- Node2&#45;&gt;Node3 -->
<g id="edge2_Node000002_Node000003" class="edge">
<title>Node2&#45;&gt;Node3</title>
<g id="a_edge2_Node000002_Node000003"><a xlink:title=" ">
<path fill="none" stroke="#63b8ff" d="M235.22,-154.98C251.89,-156.9 269.88,-158.96 286.19,-160.84"/>
<polygon fill="#63b8ff" stroke="#63b8ff" points="285.34,-164.26 295.68,-161.92 286.14,-157.31 285.34,-164.26"/>
</a>
</g>
</g>
<!-- Node5 -->
<g id="Node000005" class="node">
<title>Node5</title>
<g id="a_Node000005"><a xlink:href="main_8h.html#a6456affd0d0a21e911b531a5ba25676d" target="_top" xlink:title=" ">
<polygon fill="white" stroke="#666666" points="385.5,-139.07 297.5,-139.07 297.5,-119.07 385.5,-119.07 385.5,-139.07"/>
<text xml:space="preserve" text-anchor="middle" x="341.5" y="-125.57" font-family="Helvetica,sans-Serif" font-size="10.00">screen_center_y</text>
</a>
</g>
</g>
<!-- Node2&#45;&gt;Node5 -->
<g id="edge4_Node000002_Node000005" class="edge">
<title>Node2&#45;&gt;Node5</title>
<g id="a_edge4_Node000002_Node000005"><a xlink:title=" ">
<path fill="none" stroke="#63b8ff" d="M235.22,-141.16C251.89,-139.24 269.88,-137.18 286.19,-135.3"/>
<polygon fill="#63b8ff" stroke="#63b8ff" points="286.14,-138.83 295.68,-134.22 285.34,-131.88 286.14,-138.83"/>
</a>
</g>
</g>
<!-- Node4 -->
<g id="Node000004" class="node">
<title>Node4</title>
<g id="a_Node000004"><a xlink:href="main_8h.html#aaaa1e9fcb86ff8e60b297faa7815ad1d" target="_top" xlink:title=" ">
<polygon fill="white" stroke="#666666" points="523.75,-177.07 447,-177.07 447,-157.07 523.75,-157.07 523.75,-177.07"/>
<text xml:space="preserve" text-anchor="middle" x="485.38" y="-163.57" font-family="Helvetica,sans-Serif" font-size="10.00">screen_widthf</text>
</a>
</g>
</g>
<!-- Node3&#45;&gt;Node4 -->
<g id="edge3_Node000003_Node000004" class="edge">
<title>Node3&#45;&gt;Node4</title>
<g id="a_edge3_Node000003_Node000004"><a xlink:title=" ">
<path fill="none" stroke="#63b8ff" d="M385.84,-167.07C401.44,-167.07 419.16,-167.07 435.23,-167.07"/>
<polygon fill="#63b8ff" stroke="#63b8ff" points="435.07,-170.57 445.07,-167.07 435.07,-163.57 435.07,-170.57"/>
</a>
</g>
</g>
<!-- Node6 -->
<g id="Node000006" class="node">
<title>Node6</title>
<g id="a_Node000006"><a xlink:href="main_8h.html#a9b4aefc63ea00e60ec88da19e24e8236" target="_top" xlink:title=" ">
<polygon fill="white" stroke="#666666" points="525.25,-139.07 445.5,-139.07 445.5,-119.07 525.25,-119.07 525.25,-139.07"/>
<text xml:space="preserve" text-anchor="middle" x="485.38" y="-125.57" font-family="Helvetica,sans-Serif" font-size="10.00">screen_heightf</text>
</a>
</g>
</g>
<!-- Node5&#45;&gt;Node6 -->
<g id="edge5_Node000005_Node000006" class="edge">
<title>Node5&#45;&gt;Node6</title>
<g id="a_edge5_Node000005_Node000006"><a xlink:title=" ">
<path fill="none" stroke="#63b8ff" d="M385.84,-129.07C401.05,-129.07 418.27,-129.07 434.01,-129.07"/>
<polygon fill="#63b8ff" stroke="#63b8ff" points="433.65,-132.57 443.65,-129.07 433.65,-125.57 433.65,-132.57"/>
</a>
</g>
</g>
<!-- Node9&#45;&gt;Node7 -->
<g id="edge9_Node000009_Node000007" class="edge">
<title>Node9&#45;&gt;Node7</title>
<g id="a_edge9_Node000009_Node000007"><a xlink:title=" ">
<path fill="none" stroke="#63b8ff" d="M210.91,-44.49C235.12,-51.51 267.3,-60.84 293.53,-68.45"/>
<polygon fill="#63b8ff" stroke="#63b8ff" points="292.34,-71.75 302.92,-71.17 294.29,-65.02 292.34,-71.75"/>
</a>
</g>
</g>
<!-- Node9&#45;&gt;Node10 -->
<g id="edge10_Node000009_Node000010" class="edge">
<title>Node9&#45;&gt;Node10</title>
<g id="a_edge10_Node000009_Node000010"><a xlink:title=" ">
<path fill="none" stroke="#63b8ff" d="M237.57,-26.89C256.19,-24.75 276.26,-22.44 293.7,-20.44"/>
<polygon fill="#63b8ff" stroke="#63b8ff" points="293.69,-23.97 303.23,-19.35 292.89,-17.01 293.69,-23.97"/>
</a>
</g>
</g>
<!-- Node11 -->
<g id="Node000011" class="node">
<title>Node11</title>
<g id="a_Node000011"><a xlink:href="son_8c.html#ae145ae699cc1eecf0684bdd530bd26f0" target="_top" xlink:title="Charge (ou recupere du cache) puis joue une piste audio.">
<polygon fill="white" stroke="#666666" points="514.38,-25.07 456.38,-25.07 456.38,-5.07 514.38,-5.07 514.38,-25.07"/>
<text xml:space="preserve" text-anchor="middle" x="485.38" y="-11.57" font-family="Helvetica,sans-Serif" font-size="10.00">jouer_son</text>
</a>
</g>
</g>
<!-- Node10&#45;&gt;Node11 -->
<g id="edge11_Node000010_Node000011" class="edge">
<title>Node10&#45;&gt;Node11</title>
<g id="a_edge11_Node000010_Node000011"><a xlink:title=" ">
<path fill="none" stroke="#63b8ff" d="M378.3,-15.07C398.57,-15.07 423.96,-15.07 444.82,-15.07"/>
<polygon fill="#63b8ff" stroke="#63b8ff" points="444.67,-18.57 454.67,-15.07 444.67,-11.57 444.67,-18.57"/>
</a>
</g>
</g>
<!-- Node12 -->
<g id="Node000012" class="node">
<title>Node12</title>
<g id="a_Node000012"><a xlink:href="son_8c.html#ad0d6e981433bdc8e4291e672fa8c039b" target="_top" xlink:title=" ">
<polygon fill="white" stroke="#666666" points="638.75,-25.07 561.25,-25.07 561.25,-5.07 638.75,-5.07 638.75,-25.07"/>
<text xml:space="preserve" text-anchor="middle" x="600" y="-11.57" font-family="Helvetica,sans-Serif" font-size="10.00">recuperer_son</text>
</a>
</g>
</g>
<!-- Node11&#45;&gt;Node12 -->
<g id="edge12_Node000011_Node000012" class="edge">
<title>Node11&#45;&gt;Node12</title>
<g id="a_edge12_Node000011_Node000012"><a xlink:title=" ">
<path fill="none" stroke="#63b8ff" d="M514.8,-15.07C525.36,-15.07 537.68,-15.07 549.59,-15.07"/>
<polygon fill="#63b8ff" stroke="#63b8ff" points="549.29,-18.57 559.29,-15.07 549.29,-11.57 549.29,-18.57"/>
</a>
</g>
</g>
<!-- Node13 -->
<g id="Node000013" class="node">
<title>Node13</title>
<g id="a_Node000013"><a xlink:href="son_8c.html#aad43af6485e6418e4f26007ec64dba14" target="_top" xlink:title=" ">
<polygon fill="white" stroke="#666666" points="760.5,-25.07 674.75,-25.07 674.75,-5.07 760.5,-5.07 760.5,-25.07"/>
<text xml:space="preserve" text-anchor="middle" x="717.62" y="-11.57" font-family="Helvetica,sans-Serif" font-size="10.00">recuperer_mixer</text>
</a>
</g>
</g>
<!-- Node12&#45;&gt;Node13 -->
<g id="edge13_Node000012_Node000013" class="edge">
<title>Node12&#45;&gt;Node13</title>
<g id="a_edge13_Node000012_Node000013"><a xlink:title=" ">
<path fill="none" stroke="#63b8ff" d="M639.18,-15.07C646.87,-15.07 655.09,-15.07 663.19,-15.07"/>
<polygon fill="#63b8ff" stroke="#63b8ff" points="662.98,-18.57 672.98,-15.07 662.98,-11.57 662.98,-18.57"/>
</a>
</g>
</g>
</g>
</svg>
