<?xml version="1.0" encoding="UTF-8" standalone="no"?>
<!DOCTYPE svg PUBLIC "-//W3C//DTD SVG 1.1//EN"
 "http://www.w3.org/Graphics/SVG/1.1/DTD/svg11.dtd">
<!-- Generated by graphviz version 14.1.4 (20260321.0153)
 -->
<!-- Title: get_player_world_center Pages: 1 -->
<svg width="419pt" height="66pt"
 viewBox="0.00 0.00 419.00 66.00" xmlns="http://www.w3.org/2000/svg" xmlns:xlink="http://www.w3.org/1999/xlink">
<g id="graph0" class="graph" transform="scale(1 1) rotate(0) translate(4 62)">
<title>get_player_world_center</title>
<!-- Node1 -->
<g id="Node000001" class="node">
<title>Node1</title>
<g id="a_Node000001"><a xlink:title=" ">
<polygon fill="#999999" stroke="#666666" points="411.25,-39 289.5,-39 289.5,-19 411.25,-19 411.25,-39"/>
<text xml:space="preserve" text-anchor="middle" x="350.38" y="-25.5" font-family="Helvetica,sans-Serif" font-size="10.00">get_player_world_center</text>
</a>
</g>
</g>
<!-- Node2 -->
<g id="Node000002" class="node">
<title>Node2</title>
<g id="a_Node000002"><a xlink:href="mob_8c.html#aa1ffa891e170487c45dd0bb0fd1c32c8" target="_top" xlink:title="Affiche mob et met a jour les elements visuels associes.">
<polygon fill="white" stroke="#666666" points="252,-58 180.5,-58 180.5,-38 252,-38 252,-58"/>
<text xml:space="preserve" text-anchor="middle" x="216.25" y="-44.5" font-family="Helvetica,sans-Serif" font-size="10.00">afficher_mob</text>
</a>
</g>
</g>
<!-- Node1&#45;&gt;Node2 -->
<g id="edge1_Node000001_Node000002" class="edge">
<title>Node1&#45;&gt;Node2</title>
<g id="a_edge1_Node000001_Node000002"><a xlink:title=" ">
<path fill="none" stroke="#63b8ff" d="M277.81,-39.29C268.91,-40.57 260.14,-41.83 252.15,-42.98"/>
<polygon fill="#63b8ff" stroke="#63b8ff" points="278.21,-42.77 287.61,-37.88 277.22,-35.84 278.21,-42.77"/>
</a>
</g>
</g>
<!-- Node5 -->
<g id="Node000005" class="node">
<title>Node5</title>
<g id="a_Node000005"><a xlink:href="mob_8c.html#a1f766d8b9a9348d960e6f211fce5d558" target="_top" xlink:title="Met a jour mobs en fonction de l&#39;etat courant du jeu.">
<polygon fill="white" stroke="#666666" points="253.5,-20 179,-20 179,0 253.5,0 253.5,-20"/>
<text xml:space="preserve" text-anchor="middle" x="216.25" y="-6.5" font-family="Helvetica,sans-Serif" font-size="10.00">update_mobs</text>
</a>
</g>
</g>
<!-- Node1&#45;&gt;Node5 -->
<g id="edge4_Node000001_Node000005" class="edge">
<title>Node1&#45;&gt;Node5</title>
<g id="a_edge4_Node000001_Node000005"><a xlink:title=" ">
<path fill="none" stroke="#63b8ff" d="M277.86,-18.72C269.62,-17.53 261.49,-16.36 254,-15.28"/>
<polygon fill="#63b8ff" stroke="#63b8ff" points="277.22,-22.16 287.61,-20.12 278.21,-15.23 277.22,-22.16"/>
</a>
</g>
</g>
<!-- Node3 -->
<g id="Node000003" class="node">
<title>Node3</title>
<g id="a_Node000003"><a xlink:href="jeux_8c.html#a2d7491d04e8c2bdb52bb6ed7d75e4d78" target="_top" xlink:title="Execute la boucle principale de gameplay pour la planete courante.">
<polygon fill="white" stroke="#666666" points="143,-39 73,-39 73,-19 143,-19 143,-39"/>
<text xml:space="preserve" text-anchor="middle" x="108" y="-25.5" font-family="Helvetica,sans-Serif" font-size="10.00">jeu_principal</text>
</a>
</g>
</g>
<!-- Node2&#45;&gt;Node3 -->
<g id="edge2_Node000002_Node000003" class="edge">
<title>Node2&#45;&gt;Node3</title>
<g id="a_edge2_Node000002_Node000003"><a xlink:title=" ">
<path fill="none" stroke="#63b8ff" d="M169.04,-39.74C160.4,-38.19 151.52,-36.6 143.32,-35.14"/>
<polygon fill="#63b8ff" stroke="#63b8ff" points="168.22,-43.14 178.68,-41.46 169.45,-36.25 168.22,-43.14"/>
</a>
</g>
</g>
<!-- Node4 -->
<g id="Node000004" class="node">
<title>Node4</title>
<g id="a_Node000004"><a xlink:href="main_8c.html#a0ddf1224851353fc92bfbff6f499fa97" target="_top" xlink:title=" ">
<polygon fill="white" stroke="#666666" points="37,-39 0,-39 0,-19 37,-19 37,-39"/>
<text xml:space="preserve" text-anchor="middle" x="18.5" y="-25.5" font-family="Helvetica,sans-Serif" font-size="10.00">main</text>
</a>
</g>
</g>
<!-- Node3&#45;&gt;Node4 -->
<g id="edge3_Node000003_Node000004" class="edge">
<title>Node3&#45;&gt;Node4</title>
<g id="a_edge3_Node000003_Node000004"><a xlink:title=" ">
<path fill="none" stroke="#63b8ff" d="M61.18,-29C52.72,-29 44.36,-29 37.37,-29"/>
<polygon fill="#63b8ff" stroke="#63b8ff" points="61.16,-32.5 71.16,-29 61.16,-25.5 61.16,-32.5"/>
</a>
</g>
</g>
<!-- Node5&#45;&gt;Node3 -->
<g id="edge5_Node000005_Node000003" class="edge">
<title>Node5&#45;&gt;Node3</title>
<g id="a_edge5_Node000005_Node000003"><a xlink:title=" ">
<path fill="none" stroke="#63b8ff" d="M167.46,-18.55C159.38,-19.99 151.14,-21.46 143.48,-22.83"/>
<polygon fill="#63b8ff" stroke="#63b8ff" points="167.97,-22.01 177.19,-16.81 166.73,-15.12 167.97,-22.01"/>
</a>
</g>
</g>
</g>
</svg>
