<?xml version="1.0" encoding="UTF-8" standalone="no"?>
<!DOCTYPE svg PUBLIC "-//W3C//DTD SVG 1.1//EN"
 "http://www.w3.org/Graphics/SVG/1.1/DTD/svg11.dtd">
<!-- Generated by graphviz version 14.1.4 (20260321.0153)
 -->
<!-- Title: get_vaisseau_collision_rect Pages: 1 -->
<svg width="597pt" height="80pt"
 viewBox="0.00 0.00 597.00 80.00" xmlns="http://www.w3.org/2000/svg" xmlns:xlink="http://www.w3.org/1999/xlink">
<g id="graph0" class="graph" transform="scale(1 1) rotate(0) translate(4 75.9)">
<title>get_vaisseau_collision_rect</title>
<!-- Node1 -->
<g id="Node000001" class="node">
<title>Node1</title>
<g id="a_Node000001"><a xlink:title=" ">
<polygon fill="#999999" stroke="#666666" points="588.5,-33.9 452.5,-33.9 452.5,-13.9 588.5,-13.9 588.5,-33.9"/>
<text xml:space="preserve" text-anchor="middle" x="520.5" y="-20.4" font-family="Helvetica,sans-Serif" font-size="10.00">get_vaisseau_collision_rect</text>
</a>
</g>
</g>
<!-- Node2 -->
<g id="Node000002" class="node">
<title>Node2</title>
<g id="a_Node000002"><a xlink:href="mob_8c.html#af2bb33cec05837a53c00e0f901d38c68" target="_top" xlink:title="Initialise mobs et prepare les ressources necessaires.">
<polygon fill="white" stroke="#666666" points="245.25,-71.9 187.25,-71.9 187.25,-51.9 245.25,-51.9 245.25,-71.9"/>
<text xml:space="preserve" text-anchor="middle" x="216.25" y="-58.4" font-family="Helvetica,sans-Serif" font-size="10.00">init_mobs</text>
</a>
</g>
</g>
<!-- Node1&#45;&gt;Node2 -->
<g id="edge1_Node000001_Node000002" class="edge">
<title>Node1&#45;&gt;Node2</title>
<g id="a_edge1_Node000001_Node000002"><a xlink:title=" ">
<path fill="none" stroke="#63b8ff" d="M456.81,-36.37C443.54,-38.76 429.58,-41.08 416.5,-42.9 355.93,-51.36 284.47,-57.17 245.72,-59.98"/>
<polygon fill="#63b8ff" stroke="#63b8ff" points="457.08,-39.88 466.28,-34.63 455.82,-32.99 457.08,-39.88"/>
</a>
</g>
</g>
<!-- Node5 -->
<g id="Node000005" class="node">
<title>Node5</title>
<g id="a_Node000005"><a xlink:href="mob_8c.html#ad937d045795912d2cc7b363b7d2d19b8" target="_top" xlink:title=" ">
<polygon fill="white" stroke="#666666" points="416.5,-33.9 289.5,-33.9 289.5,-13.9 416.5,-13.9 416.5,-33.9"/>
<text xml:space="preserve" text-anchor="middle" x="353" y="-20.4" font-family="Helvetica,sans-Serif" font-size="10.00">spawn_one_mob_of_type</text>
</a>
</g>
</g>
<!-- Node1&#45;&gt;Node5 -->
<g id="edge4_Node000001_Node000005" class="edge">
<title>Node1&#45;&gt;Node5</title>
<g id="a_edge4_Node000001_Node000005"><a xlink:title=" ">
<path fill="none" stroke="#63b8ff" d="M440.91,-23.9C432.88,-23.9 424.81,-23.9 416.98,-23.9"/>
<polygon fill="#63b8ff" stroke="#63b8ff" points="440.67,-27.4 450.67,-23.9 440.67,-20.4 440.67,-27.4"/>
</a>
</g>
</g>
<!-- Node6 -->
<g id="Node000006" class="node">
<title>Node6</title>
<g id="a_Node000006"><a xlink:href="mob_8c.html#a1f766d8b9a9348d960e6f211fce5d558" target="_top" xlink:title="Met a jour mobs en fonction de l&#39;etat courant du jeu.">
<polygon fill="white" stroke="#666666" points="253.5,-33.9 179,-33.9 179,-13.9 253.5,-13.9 253.5,-33.9"/>
<text xml:space="preserve" text-anchor="middle" x="216.25" y="-20.4" font-family="Helvetica,sans-Serif" font-size="10.00">update_mobs</text>
</a>
</g>
</g>
<!-- Node1&#45;&gt;Node6 -->
<g id="edge7_Node000001_Node000006" class="edge">
<title>Node1&#45;&gt;Node6</title>
<g id="a_edge7_Node000001_Node000006"><a xlink:title=" ">
<path fill="none" stroke="#63b8ff" d="M461.84,-11.35C447.13,-8.68 431.29,-6.26 416.5,-4.9 360.29,0.24 345.48,2.33 289.5,-4.9 276.25,-6.62 261.97,-10.03 249.63,-13.49"/>
<polygon fill="#63b8ff" stroke="#63b8ff" points="460.87,-14.73 471.35,-13.15 462.17,-7.85 460.87,-14.73"/>
</a>
</g>
</g>
<!-- Node3 -->
<g id="Node000003" class="node">
<title>Node3</title>
<g id="a_Node000003"><a xlink:href="jeux_8c.html#a2d7491d04e8c2bdb52bb6ed7d75e4d78" target="_top" xlink:title="Execute la boucle principale de gameplay pour la planete courante.">
<polygon fill="white" stroke="#666666" points="143,-52.9 73,-52.9 73,-32.9 143,-32.9 143,-52.9"/>
<text xml:space="preserve" text-anchor="middle" x="108" y="-39.4" font-family="Helvetica,sans-Serif" font-size="10.00">jeu_principal</text>
</a>
</g>
</g>
<!-- Node2&#45;&gt;Node3 -->
<g id="edge2_Node000002_Node000003" class="edge">
<title>Node2&#45;&gt;Node3</title>
<g id="a_edge2_Node000002_Node000003"><a xlink:title=" ">
<path fill="none" stroke="#63b8ff" d="M175.62,-54.82C164.97,-52.91 153.55,-50.87 143.23,-49.02"/>
<polygon fill="#63b8ff" stroke="#63b8ff" points="174.83,-58.23 185.29,-56.55 176.06,-51.34 174.83,-58.23"/>
</a>
</g>
</g>
<!-- Node4 -->
<g id="Node000004" class="node">
<title>Node4</title>
<g id="a_Node000004"><a xlink:href="main_8c.html#a0ddf1224851353fc92bfbff6f499fa97" target="_top" xlink:title=" ">
<polygon fill="white" stroke="#666666" points="37,-52.9 0,-52.9 0,-32.9 37,-32.9 37,-52.9"/>
<text xml:space="preserve" text-anchor="middle" x="18.5" y="-39.4" font-family="Helvetica,sans-Serif" font-size="10.00">main</text>
</a>
</g>
</g>
<!-- Node3&#45;&gt;Node4 -->
<g id="edge3_Node000003_Node000004" class="edge">
<title>Node3&#45;&gt;Node4</title>
<g id="a_edge3_Node000003_Node000004"><a xlink:title=" ">
<path fill="none" stroke="#63b8ff" d="M61.18,-42.9C52.72,-42.9 44.36,-42.9 37.37,-42.9"/>
<polygon fill="#63b8ff" stroke="#63b8ff" points="61.16,-46.4 71.16,-42.9 61.16,-39.4 61.16,-46.4"/>
</a>
</g>
</g>
<!-- Node5&#45;&gt;Node6 -->
<g id="edge5_Node000005_Node000006" class="edge">
<title>Node5&#45;&gt;Node6</title>
<g id="a_edge5_Node000005_Node000006"><a xlink:title=" ">
<path fill="none" stroke="#63b8ff" d="M277.88,-23.9C269.49,-23.9 261.24,-23.9 253.65,-23.9"/>
<polygon fill="#63b8ff" stroke="#63b8ff" points="277.85,-27.4 287.85,-23.9 277.85,-20.4 277.85,-27.4"/>
</a>
</g>
</g>
<!-- Node6&#45;&gt;Node3 -->
<g id="edge6_Node000006_Node000003" class="edge">
<title>Node6&#45;&gt;Node3</title>
<g id="a_edge6_Node000006_Node000003"><a xlink:title=" ">
<path fill="none" stroke="#63b8ff" d="M167.46,-32.45C159.38,-33.89 151.14,-35.37 143.48,-36.74"/>
<polygon fill="#63b8ff" stroke="#63b8ff" points="167.97,-35.91 177.19,-30.71 166.73,-29.02 167.97,-35.91"/>
</a>
</g>
</g>
</g>
</svg>
