<?xml version="1.0" encoding="UTF-8" standalone="no"?>
<!DOCTYPE svg PUBLIC "-//W3C//DTD SVG 1.1//EN"
 "http://www.w3.org/Graphics/SVG/1.1/DTD/svg11.dtd">
<!-- Generated by graphviz version 14.1.4 (20260321.0153)
 -->
<!-- Title: objectifs_init Pages: 1 -->
<svg width="246pt" height="218pt"
 viewBox="0.00 0.00 246.00 218.00" xmlns="http://www.w3.org/2000/svg" xmlns:xlink="http://www.w3.org/1999/xlink">
<g id="graph0" class="graph" transform="scale(1 1) rotate(0) translate(4 214)">
<title>objectifs_init</title>
<!-- Node1 -->
<g id="Node000001" class="node">
<title>Node1</title>
<g id="a_Node000001"><a xlink:title="Initialise la liste des objectifs selon la planete en cours.">
<polygon fill="#999999" stroke="#666666" points="70.75,-115 0,-115 0,-95 70.75,-95 70.75,-115"/>
<text xml:space="preserve" text-anchor="middle" x="35.38" y="-101.5" font-family="Helvetica,sans-Serif" font-size="10.00">objectifs_init</text>
</a>
</g>
</g>
<!-- Node2 -->
<g id="Node000002" class="node">
<title>Node2</title>
<g id="a_Node000002"><a xlink:href="objectifs_8c.html#afb5db08343ca8f41f20bf268ed4e9640" target="_top" xlink:title=" ">
<polygon fill="white" stroke="#666666" points="214.62,-210 129.62,-210 129.62,-190 214.62,-190 214.62,-210"/>
<text xml:space="preserve" text-anchor="middle" x="172.12" y="-196.5" font-family="Helvetica,sans-Serif" font-size="10.00">verif_boss3_tue</text>
</a>
</g>
</g>
<!-- Node1&#45;&gt;Node2 -->
<g id="edge1_Node000001_Node000002" class="edge">
<title>Node1&#45;&gt;Node2</title>
<g id="a_edge1_Node000001_Node000002"><a xlink:title=" ">
<path fill="none" stroke="#63b8ff" d="M43.09,-115.25C54.32,-131.58 78.48,-163.46 106.75,-181 110.49,-183.32 114.52,-185.37 118.68,-187.17"/>
<polygon fill="#63b8ff" stroke="#63b8ff" points="117.19,-190.35 127.78,-190.64 119.69,-183.81 117.19,-190.35"/>
</a>
</g>
</g>
<!-- Node3 -->
<g id="Node000003" class="node">
<title>Node3</title>
<g id="a_Node000003"><a xlink:href="objectifs_8c.html#a8e9a7a0e6797416005b6a89976702573" target="_top" xlink:title=" ">
<polygon fill="white" stroke="#666666" points="218,-172 126.25,-172 126.25,-152 218,-152 218,-172"/>
<text xml:space="preserve" text-anchor="middle" x="172.12" y="-158.5" font-family="Helvetica,sans-Serif" font-size="10.00">verif_cinq_pieces</text>
</a>
</g>
</g>
<!-- Node1&#45;&gt;Node3 -->
<g id="edge2_Node000001_Node000003" class="edge">
<title>Node1&#45;&gt;Node3</title>
<g id="a_edge2_Node000001_Node000003"><a xlink:title=" ">
<path fill="none" stroke="#63b8ff" d="M53.24,-115.4C67.2,-123.69 87.75,-135.17 106.75,-143 111.05,-144.77 115.58,-146.46 120.16,-148.03"/>
<polygon fill="#63b8ff" stroke="#63b8ff" points="118.81,-151.28 129.4,-151.05 120.98,-144.62 118.81,-151.28"/>
</a>
</g>
</g>
<!-- Node4 -->
<g id="Node000004" class="node">
<title>Node4</title>
<g id="a_Node000004"><a xlink:href="objectifs_8c.html#a5780079dd165a4168ad15240f3207596" target="_top" xlink:title=" ">
<polygon fill="white" stroke="#666666" points="213.88,-134 130.38,-134 130.38,-114 213.88,-114 213.88,-134"/>
<text xml:space="preserve" text-anchor="middle" x="172.12" y="-120.5" font-family="Helvetica,sans-Serif" font-size="10.00">verif_pleine_vie</text>
</a>
</g>
</g>
<!-- Node1&#45;&gt;Node4 -->
<g id="edge3_Node000001_Node000004" class="edge">
<title>Node1&#45;&gt;Node4</title>
<g id="a_edge3_Node000001_Node000004"><a xlink:title=" ">
<path fill="none" stroke="#63b8ff" d="M71.08,-109.89C85.78,-111.97 103.21,-114.42 119.38,-116.7"/>
<polygon fill="#63b8ff" stroke="#63b8ff" points="118.43,-120.1 128.82,-118.03 119.41,-113.17 118.43,-120.1"/>
</a>
</g>
</g>
<!-- Node5 -->
<g id="Node000005" class="node">
<title>Node5</title>
<g id="a_Node000005"><a xlink:href="objectifs_8c.html#a27d55a948e07ef12c5bcdba1696b486b" target="_top" xlink:title=" ">
<polygon fill="white" stroke="#666666" points="237.5,-96 106.75,-96 106.75,-76 237.5,-76 237.5,-96"/>
<text xml:space="preserve" text-anchor="middle" x="172.12" y="-82.5" font-family="Helvetica,sans-Serif" font-size="10.00">verif_ramasser_engrenage</text>
</a>
</g>
</g>
<!-- Node1&#45;&gt;Node5 -->
<g id="edge4_Node000001_Node000005" class="edge">
<title>Node1&#45;&gt;Node5</title>
<g id="a_edge4_Node000001_Node000005"><a xlink:title=" ">
<path fill="none" stroke="#63b8ff" d="M71.08,-100.11C78.61,-99.04 86.87,-97.88 95.31,-96.69"/>
<polygon fill="#63b8ff" stroke="#63b8ff" points="95.54,-100.19 104.95,-95.33 94.56,-93.26 95.54,-100.19"/>
</a>
</g>
</g>
<!-- Node6 -->
<g id="Node000006" class="node">
<title>Node6</title>
<g id="a_Node000006"><a xlink:href="objectifs_8c.html#ad54fbecd8ebe7f7156fb63ff156cfe32" target="_top" xlink:title=" ">
<polygon fill="white" stroke="#666666" points="229.25,-58 115,-58 115,-38 229.25,-38 229.25,-58"/>
<text xml:space="preserve" text-anchor="middle" x="172.12" y="-44.5" font-family="Helvetica,sans-Serif" font-size="10.00">verif_reparer_vaisseau</text>
</a>
</g>
</g>
<!-- Node1&#45;&gt;Node6 -->
<g id="edge5_Node000001_Node000006" class="edge">
<title>Node1&#45;&gt;Node6</title>
<g id="a_edge5_Node000001_Node000006"><a xlink:title=" ">
<path fill="none" stroke="#63b8ff" d="M53.24,-94.6C67.2,-86.31 87.75,-74.83 106.75,-67 111.05,-65.23 115.58,-63.54 120.16,-61.97"/>
<polygon fill="#63b8ff" stroke="#63b8ff" points="120.98,-65.38 129.4,-58.95 118.81,-58.72 120.98,-65.38"/>
</a>
</g>
</g>
<!-- Node7 -->
<g id="Node000007" class="node">
<title>Node7</title>
<g id="a_Node000007"><a xlink:href="objectifs_8c.html#a09a479742af03c7e138174bb26eca53b" target="_top" xlink:title=" ">
<polygon fill="white" stroke="#666666" points="219.5,-20 124.75,-20 124.75,0 219.5,0 219.5,-20"/>
<text xml:space="preserve" text-anchor="middle" x="172.12" y="-6.5" font-family="Helvetica,sans-Serif" font-size="10.00">verif_viande_cuite</text>
</a>
</g>
</g>
<!-- Node1&#45;&gt;Node7 -->
<g id="edge6_Node000001_Node000007" class="edge">
<title>Node1&#45;&gt;Node7</title>
<g id="a_edge6_Node000001_Node000007"><a xlink:title=" ">
<path fill="none" stroke="#63b8ff" d="M43.09,-94.75C54.32,-78.42 78.48,-46.54 106.75,-29 109.05,-27.57 111.46,-26.25 113.94,-25.02"/>
<polygon fill="#63b8ff" stroke="#63b8ff" points="115.27,-28.26 123.07,-21.09 112.5,-21.83 115.27,-28.26"/>
</a>
</g>
</g>
</g>
</svg>
