<?xml version="1.0" encoding="UTF-8" standalone="no"?>
<!DOCTYPE svg PUBLIC "-//W3C//DTD SVG 1.1//EN"
 "http://www.w3.org/Graphics/SVG/1.1/DTD/svg11.dtd">
<!-- Generated by graphviz version 14.1.4 (20260321.0153)
 -->
<!-- Title: src/option.c Pages: 1 -->
<svg width="1676pt" height="196pt"
 viewBox="0.00 0.00 1676.00 196.00" xmlns="http://www.w3.org/2000/svg" xmlns:xlink="http://www.w3.org/1999/xlink">
<g id="graph0" class="graph" transform="scale(1 1) rotate(0) translate(4 192)">
<title>src/option.c</title>
<!-- Node1 -->
<g id="Node000001" class="node">
<title>Node1</title>
<g id="a_Node000001"><a xlink:title="Menu des options audio et aide aux commandes.">
<polygon fill="#999999" stroke="#666666" points="1197.96,-188 1130.96,-188 1130.96,-168 1197.96,-168 1197.96,-188"/>
<text xml:space="preserve" text-anchor="middle" x="1164.46" y="-174.5" font-family="Helvetica,sans-Serif" font-size="10.00">src/option.c</text>
</a>
</g>
</g>
<!-- Node2 -->
<g id="Node000002" class="node">
<title>Node2</title>
<g id="a_Node000002"><a xlink:title=" ">
<polygon fill="#e0e0e0" stroke="#999999" points="901.21,-20 829.71,-20 829.71,0 901.21,0 901.21,-20"/>
<text xml:space="preserve" text-anchor="middle" x="865.46" y="-6.5" font-family="Helvetica,sans-Serif" font-size="10.00">SDL3/SDL.h</text>
</a>
</g>
</g>
<!-- Node1&#45;&gt;Node2 -->
<g id="edge1_Node000001_Node000002" class="edge">
<title>Node1&#45;&gt;Node2</title>
<g id="a_edge1_Node000001_Node000002"><a xlink:title=" ">
<path fill="none" stroke="#63b8ff" d="M1198.37,-175.94C1299.25,-171.7 1585.09,-151.18 1496.46,-56 1496.46,-56 1059.71,-24.85 912.93,-14.38"/>
<polygon fill="#63b8ff" stroke="#63b8ff" points="913.39,-10.91 903.16,-13.69 912.89,-17.89 913.39,-10.91"/>
</a>
</g>
</g>
<!-- Node3 -->
<g id="Node000003" class="node">
<title>Node3</title>
<g id="a_Node000003"><a xlink:title=" ">
<polygon fill="#e0e0e0" stroke="#999999" points="552.71,-20 418.21,-20 418.21,0 552.71,0 552.71,-20"/>
<text xml:space="preserve" text-anchor="middle" x="485.46" y="-6.5" font-family="Helvetica,sans-Serif" font-size="10.00">SDL3_image/SDL_image.h</text>
</a>
</g>
</g>
<!-- Node1&#45;&gt;Node3 -->
<g id="edge2_Node000001_Node000003" class="edge">
<title>Node1&#45;&gt;Node3</title>
<g id="a_edge2_Node000001_Node000003"><a xlink:title=" ">
<path fill="none" stroke="#63b8ff" d="M1130.73,-176.76C947.87,-175.12 80.93,-162.79 4.46,-76 -1.41,-69.33 -1.52,-62.57 4.46,-56 30.95,-26.92 276.89,-16.3 406.45,-12.69"/>
<polygon fill="#63b8ff" stroke="#63b8ff" points="406.43,-16.19 416.34,-12.43 406.24,-9.2 406.43,-16.19"/>
</a>
</g>
</g>
<!-- Node4 -->
<g id="Node000004" class="node">
<title>Node4</title>
<g id="a_Node000004"><a xlink:title=" ">
<polygon fill="#e0e0e0" stroke="#999999" points="59.46,-76 13.46,-76 13.46,-56 59.46,-56 59.46,-76"/>
<text xml:space="preserve" text-anchor="middle" x="36.46" y="-62.5" font-family="Helvetica,sans-Serif" font-size="10.00">math.h</text>
</a>
</g>
</g>
<!-- Node1&#45;&gt;Node4 -->
<g id="edge3_Node000001_Node000004" class="edge">
<title>Node1&#45;&gt;Node4</title>
<g id="a_edge3_Node000001_Node000004"><a xlink:title=" ">
<path fill="none" stroke="#63b8ff" d="M1130.76,-174.45C998.64,-164.33 503.39,-125.12 97.46,-76 88.91,-74.97 79.71,-73.69 71.12,-72.43"/>
<polygon fill="#63b8ff" stroke="#63b8ff" points="71.79,-69 61.38,-70.97 70.75,-75.92 71.79,-69"/>
</a>
</g>
</g>
<!-- Node5 -->
<g id="Node000005" class="node">
<title>Node5</title>
<g id="a_Node000005"><a xlink:title=" ">
<polygon fill="#e0e0e0" stroke="#999999" points="1331.46,-20 1231.46,-20 1231.46,0 1331.46,0 1331.46,-20"/>
<text xml:space="preserve" text-anchor="middle" x="1281.46" y="-6.5" font-family="Helvetica,sans-Serif" font-size="10.00">SDL3_ttf/SDL_ttf.h</text>
</a>
</g>
</g>
<!-- Node1&#45;&gt;Node5 -->
<g id="edge4_Node000001_Node000005" class="edge">
<title>Node1&#45;&gt;Node5</title>
<g id="a_edge4_Node000001_Node000005"><a xlink:title=" ">
<path fill="none" stroke="#63b8ff" d="M1198.3,-175.34C1284.61,-170.76 1507.68,-156.63 1529.46,-132 1545.22,-114.18 1533.32,-74.83 1512.46,-56 1488.03,-33.95 1402.85,-21.83 1343.07,-15.87"/>
<polygon fill="#63b8ff" stroke="#63b8ff" points="1343.64,-12.41 1333.36,-14.94 1342.98,-19.38 1343.64,-12.41"/>
</a>
</g>
</g>
<!-- Node6 -->
<g id="Node000006" class="node">
<title>Node6</title>
<g id="a_Node000006"><a xlink:href="main_8h.html" target="_top" xlink:title="Declarations globales et utilitaires partages entre les modules du jeu.">
<polygon fill="white" stroke="#666666" points="824.84,-132 742.09,-132 742.09,-112 824.84,-112 824.84,-132"/>
<text xml:space="preserve" text-anchor="middle" x="783.46" y="-118.5" font-family="Helvetica,sans-Serif" font-size="10.00">headers/main.h</text>
</a>
</g>
</g>
<!-- Node1&#45;&gt;Node6 -->
<g id="edge5_Node000001_Node000006" class="edge">
<title>Node1&#45;&gt;Node6</title>
<g id="a_edge5_Node000001_Node000006"><a xlink:title=" ">
<path fill="none" stroke="#63b8ff" d="M1130.65,-172.21C1064.17,-162.79 916,-141.78 836.42,-130.51"/>
<polygon fill="#63b8ff" stroke="#63b8ff" points="837.08,-127.06 826.69,-129.13 836.1,-134 837.08,-127.06"/>
</a>
</g>
</g>
<!-- Node28 -->
<g id="Node000028" class="node">
<title>Node28</title>
<g id="a_Node000028"><a xlink:title=" ">
<polygon fill="#e0e0e0" stroke="#999999" points="1667.59,-132 1619.34,-132 1619.34,-112 1667.59,-112 1667.59,-132"/>
<text xml:space="preserve" text-anchor="middle" x="1643.46" y="-118.5" font-family="Helvetica,sans-Serif" font-size="10.00">string.h</text>
</a>
</g>
</g>
<!-- Node1&#45;&gt;Node28 -->
<g id="edge66_Node000001_Node000028" class="edge">
<title>Node1&#45;&gt;Node28</title>
<g id="a_edge66_Node000001_Node000028"><a xlink:title=" ">
<path fill="none" stroke="#63b8ff" d="M1198.41,-175.06C1272.65,-170.47 1454.82,-157.41 1605.46,-132 1606.29,-131.86 1607.13,-131.71 1607.97,-131.56"/>
<polygon fill="#63b8ff" stroke="#63b8ff" points="1608.46,-135.03 1617.55,-129.59 1607.05,-128.18 1608.46,-135.03"/>
</a>
</g>
</g>
<!-- Node6&#45;&gt;Node2 -->
<g id="edge6_Node000006_Node000002" class="edge">
<title>Node6&#45;&gt;Node2</title>
<g id="a_edge6_Node000006_Node000002"><a xlink:title=" ">
<path fill="none" stroke="#63b8ff" d="M802.95,-111.6C816.98,-103.88 835.33,-91.67 846.46,-76 855.84,-62.79 860.63,-44.97 863.05,-31.32"/>
<polygon fill="#63b8ff" stroke="#63b8ff" points="866.47,-32.12 864.45,-21.72 859.54,-31.11 866.47,-32.12"/>
</a>
</g>
</g>
<!-- Node6&#45;&gt;Node3 -->
<g id="edge7_Node000006_Node000003" class="edge">
<title>Node6&#45;&gt;Node3</title>
<g id="a_edge7_Node000006_Node000003"><a xlink:title=" ">
<path fill="none" stroke="#63b8ff" d="M741.64,-119.78C597.38,-115.37 128.24,-99.28 106.46,-76 64,-30.62 283.78,-16.87 406.8,-12.74"/>
<polygon fill="#63b8ff" stroke="#63b8ff" points="406.64,-16.25 416.52,-12.43 406.41,-9.25 406.64,-16.25"/>
</a>
</g>
</g>
<!-- Node6&#45;&gt;Node4 -->
<g id="edge8_Node000006_Node000004" class="edge">
<title>Node6&#45;&gt;Node4</title>
<g id="a_edge8_Node000006_Node000004"><a xlink:title=" ">
<path fill="none" stroke="#63b8ff" d="M741.98,-120.9C632.2,-120.1 325.31,-114.31 73.46,-76 72.63,-75.87 71.79,-75.74 70.94,-75.59"/>
<polygon fill="#63b8ff" stroke="#63b8ff" points="71.81,-72.2 61.31,-73.64 70.41,-79.06 71.81,-72.2"/>
</a>
</g>
</g>
<!-- Node7 -->
<g id="Node000007" class="node">
<title>Node7</title>
<g id="a_Node000007"><a xlink:title=" ">
<polygon fill="#e0e0e0" stroke="#999999" points="1131.46,-20 1001.46,-20 1001.46,0 1131.46,0 1131.46,-20"/>
<text xml:space="preserve" text-anchor="middle" x="1066.46" y="-6.5" font-family="Helvetica,sans-Serif" font-size="10.00">SDL3_mixer/SDL_mixer.h</text>
</a>
</g>
</g>
<!-- Node6&#45;&gt;Node7 -->
<g id="edge9_Node000006_Node000007" class="edge">
<title>Node6&#45;&gt;Node7</title>
<g id="a_edge9_Node000006_Node000007"><a xlink:title=" ">
<path fill="none" stroke="#63b8ff" d="M825.17,-119.93C974.28,-115.89 1473.37,-100.6 1496.46,-76 1502.55,-69.52 1502.41,-62.6 1496.46,-56 1484.8,-43.05 1263.66,-25.2 1143.18,-16.38"/>
<polygon fill="#63b8ff" stroke="#63b8ff" points="1143.58,-12.9 1133.36,-15.66 1143.08,-19.88 1143.58,-12.9"/>
</a>
</g>
</g>
<!-- Node8 -->
<g id="Node000008" class="node">
<title>Node8</title>
<g id="a_Node000008"><a xlink:title=" ">
<polygon fill="#e0e0e0" stroke="#999999" points="585.09,-76 539.84,-76 539.84,-56 585.09,-56 585.09,-76"/>
<text xml:space="preserve" text-anchor="middle" x="562.46" y="-62.5" font-family="Helvetica,sans-Serif" font-size="10.00">stdio.h</text>
</a>
</g>
</g>
<!-- Node6&#45;&gt;Node8 -->
<g id="edge10_Node000006_Node000008" class="edge">
<title>Node6&#45;&gt;Node8</title>
<g id="a_edge10_Node000006_Node000008"><a xlink:title=" ">
<path fill="none" stroke="#63b8ff" d="M741.8,-111.76C705.62,-103.6 651.56,-91.07 596.47,-76.71"/>
<polygon fill="#63b8ff" stroke="#63b8ff" points="597.47,-73.35 586.91,-74.2 595.7,-80.12 597.47,-73.35"/>
</a>
</g>
</g>
<!-- Node9 -->
<g id="Node000009" class="node">
<title>Node9</title>
<g id="a_Node000009"><a xlink:title=" ">
<polygon fill="#e0e0e0" stroke="#999999" points="713.21,-76 665.71,-76 665.71,-56 713.21,-56 713.21,-76"/>
<text xml:space="preserve" text-anchor="middle" x="689.46" y="-62.5" font-family="Helvetica,sans-Serif" font-size="10.00">stdlib.h</text>
</a>
</g>
</g>
<!-- Node6&#45;&gt;Node9 -->
<g id="edge11_Node000006_Node000009" class="edge">
<title>Node6&#45;&gt;Node9</title>
<g id="a_edge11_Node000006_Node000009"><a xlink:title=" ">
<path fill="none" stroke="#63b8ff" d="M767.09,-111.59C752.89,-103.44 732.08,-91.48 715.58,-82"/>
<polygon fill="#63b8ff" stroke="#63b8ff" points="717.69,-79.18 707.28,-77.23 714.2,-85.25 717.69,-79.18"/>
</a>
</g>
</g>
<!-- Node10 -->
<g id="Node000010" class="node">
<title>Node10</title>
<g id="a_Node000010"><a xlink:href="menu_8h.html" target="_top" xlink:title="Fichier du menu principal et des choix de navigation.">
<polygon fill="white" stroke="#666666" points="163.59,-76 115.34,-76 115.34,-56 163.59,-56 163.59,-76"/>
<text xml:space="preserve" text-anchor="middle" x="139.46" y="-62.5" font-family="Helvetica,sans-Serif" font-size="10.00">menu.h</text>
</a>
</g>
</g>
<!-- Node6&#45;&gt;Node10 -->
<g id="edge12_Node000006_Node000010" class="edge">
<title>Node6&#45;&gt;Node10</title>
<g id="a_edge12_Node000006_Node000010"><a xlink:title=" ">
<path fill="none" stroke="#63b8ff" d="M741.64,-120.69C643.92,-119.37 393,-112.56 175.18,-76.14"/>
<polygon fill="#63b8ff" stroke="#63b8ff" points="175.79,-72.69 165.34,-74.47 174.62,-79.6 175.79,-72.69"/>
</a>
</g>
</g>
<!-- Node11 -->
<g id="Node000011" class="node">
<title>Node11</title>
<g id="a_Node000011"><a xlink:href="game__over_8h.html" target="_top" xlink:title="Fichier de l&#39;ecran de fin de partie et des transitions associees.">
<polygon fill="white" stroke="#666666" points="521.59,-76 449.34,-76 449.34,-56 521.59,-56 521.59,-76"/>
<text xml:space="preserve" text-anchor="middle" x="485.46" y="-62.5" font-family="Helvetica,sans-Serif" font-size="10.00">game_over.h</text>
</a>
</g>
</g>
<!-- Node6&#45;&gt;Node11 -->
<g id="edge15_Node000006_Node000011" class="edge">
<title>Node6&#45;&gt;Node11</title>
<g id="a_edge15_Node000006_Node000011"><a xlink:title=" ">
<path fill="none" stroke="#63b8ff" d="M741.78,-113.87C693.84,-105.6 612.49,-91.39 533,-76.45"/>
<polygon fill="#63b8ff" stroke="#63b8ff" points="533.76,-73.03 523.29,-74.62 532.46,-79.91 533.76,-73.03"/>
</a>
</g>
</g>
<!-- Node12 -->
<g id="Node000012" class="node">
<title>Node12</title>
<g id="a_Node000012"><a xlink:href="jeux_8h.html" target="_top" xlink:title="Fichier de la boucle de jeu principale et de son initialisation.">
<polygon fill="white" stroke="#666666" points="1078.59,-76 1036.34,-76 1036.34,-56 1078.59,-56 1078.59,-76"/>
<text xml:space="preserve" text-anchor="middle" x="1057.46" y="-62.5" font-family="Helvetica,sans-Serif" font-size="10.00">jeux.h</text>
</a>
</g>
</g>
<!-- Node6&#45;&gt;Node12 -->
<g id="edge18_Node000006_Node000012" class="edge">
<title>Node6&#45;&gt;Node12</title>
<g id="a_edge18_Node000006_Node000012"><a xlink:title=" ">
<path fill="none" stroke="#63b8ff" d="M825.2,-114.72C871.73,-107.42 949.4,-94.29 1024.8,-76.44"/>
<polygon fill="#63b8ff" stroke="#63b8ff" points="1025.53,-79.87 1034.44,-74.13 1023.9,-73.06 1025.53,-79.87"/>
</a>
</g>
</g>
<!-- Node13 -->
<g id="Node000013" class="node">
<title>Node13</title>
<g id="a_Node000013"><a xlink:href="bouton_8h.html" target="_top" xlink:title="Fichier des boutons UI, de leur etat et de la gestion des interactions souris.">
<polygon fill="white" stroke="#666666" points="303.21,-76 249.71,-76 249.71,-56 303.21,-56 303.21,-76"/>
<text xml:space="preserve" text-anchor="middle" x="276.46" y="-62.5" font-family="Helvetica,sans-Serif" font-size="10.00">bouton.h</text>
</a>
</g>
</g>
<!-- Node6&#45;&gt;Node13 -->
<g id="edge22_Node000006_Node000013" class="edge">
<title>Node6&#45;&gt;Node13</title>
<g id="a_edge22_Node000006_Node000013"><a xlink:title=" ">
<path fill="none" stroke="#63b8ff" d="M741.6,-119.11C660.88,-115 477.98,-103.51 314.72,-76.13"/>
<polygon fill="#63b8ff" stroke="#63b8ff" points="315.43,-72.7 304.99,-74.47 314.26,-79.6 315.43,-72.7"/>
</a>
</g>
</g>
<!-- Node14 -->
<g id="Node000014" class="node">
<title>Node14</title>
<g id="a_Node000014"><a xlink:href="option_8h.html" target="_top" xlink:title="Fichier de l&#39;ecran d&#39;options et des reglages de jeu.">
<polygon fill="white" stroke="#666666" points="231.71,-76 181.21,-76 181.21,-56 231.71,-56 231.71,-76"/>
<text xml:space="preserve" text-anchor="middle" x="206.46" y="-62.5" font-family="Helvetica,sans-Serif" font-size="10.00">option.h</text>
</a>
</g>
</g>
<!-- Node6&#45;&gt;Node14 -->
<g id="edge25_Node000006_Node000014" class="edge">
<title>Node6&#45;&gt;Node14</title>
<g id="a_edge25_Node000006_Node000014"><a xlink:title=" ">
<path fill="none" stroke="#63b8ff" d="M741.59,-120.04C651.8,-117.44 434.01,-108.26 243.06,-76.16"/>
<polygon fill="#63b8ff" stroke="#63b8ff" points="243.91,-72.76 233.47,-74.52 242.73,-79.66 243.91,-72.76"/>
</a>
</g>
</g>
<!-- Node15 -->
<g id="Node000015" class="node">
<title>Node15</title>
<g id="a_Node000015"><a xlink:href="perso_8h.html" target="_top" xlink:title="Fichier du personnage: deplacement, combat, stats et collisions.">
<polygon fill="white" stroke="#666666" points="369.59,-76 321.34,-76 321.34,-56 369.59,-56 369.59,-76"/>
<text xml:space="preserve" text-anchor="middle" x="345.46" y="-62.5" font-family="Helvetica,sans-Serif" font-size="10.00">perso.h</text>
</a>
</g>
</g>
<!-- Node6&#45;&gt;Node15 -->
<g id="edge28_Node000006_Node000015" class="edge">
<title>Node6&#45;&gt;Node15</title>
<g id="a_edge28_Node000006_Node000015"><a xlink:title=" ">
<path fill="none" stroke="#63b8ff" d="M741.75,-118.51C669.91,-113.77 518.08,-101.71 380.98,-76.21"/>
<polygon fill="#63b8ff" stroke="#63b8ff" points="381.83,-72.81 371.36,-74.39 380.53,-79.69 381.83,-72.81"/>
</a>
</g>
</g>
<!-- Node16 -->
<g id="Node000016" class="node">
<title>Node16</title>
<g id="a_Node000016"><a xlink:href="son_8h.html" target="_top" xlink:title="Fichier audio: musique, effets sonores et etats d&#39;activation.">
<polygon fill="white" stroke="#666666" points="1395.46,-76 1355.46,-76 1355.46,-56 1395.46,-56 1395.46,-76"/>
<text xml:space="preserve" text-anchor="middle" x="1375.46" y="-62.5" font-family="Helvetica,sans-Serif" font-size="10.00">son.h</text>
</a>
</g>
</g>
<!-- Node6&#45;&gt;Node16 -->
<g id="edge31_Node000006_Node000016" class="edge">
<title>Node6&#45;&gt;Node16</title>
<g id="a_edge31_Node000006_Node000016"><a xlink:title=" ">
<path fill="none" stroke="#63b8ff" d="M825.2,-120.8C917.43,-119.7 1145.46,-113.3 1343.79,-76.1"/>
<polygon fill="#63b8ff" stroke="#63b8ff" points="1344.36,-79.56 1353.52,-74.25 1343.04,-72.68 1344.36,-79.56"/>
</a>
</g>
</g>
<!-- Node17 -->
<g id="Node000017" class="node">
<title>Node17</title>
<g id="a_Node000017"><a xlink:href="boss_8h.html" target="_top" xlink:title="Fichier du module boss (declarations publiques).">
<polygon fill="white" stroke="#666666" points="648.09,-76 602.84,-76 602.84,-56 648.09,-56 648.09,-76"/>
<text xml:space="preserve" text-anchor="middle" x="625.46" y="-62.5" font-family="Helvetica,sans-Serif" font-size="10.00">boss.h</text>
</a>
</g>
</g>
<!-- Node6&#45;&gt;Node17 -->
<g id="edge36_Node000006_Node000017" class="edge">
<title>Node6&#45;&gt;Node17</title>
<g id="a_edge36_Node000006_Node000017"><a xlink:title=" ">
<path fill="none" stroke="#63b8ff" d="M755.94,-111.59C729.09,-102.42 688.19,-88.44 659.35,-78.58"/>
<polygon fill="#63b8ff" stroke="#63b8ff" points="660.59,-75.31 650,-75.38 658.33,-81.93 660.59,-75.31"/>
</a>
</g>
</g>
<!-- Node18 -->
<g id="Node000018" class="node">
<title>Node18</title>
<g id="a_Node000018"><a xlink:href="mob_8h.html" target="_top" xlink:title="Fichier des mobs: creation, mise a jour, rendu et file de respawn.">
<polygon fill="white" stroke="#666666" points="430.96,-76 387.96,-76 387.96,-56 430.96,-56 430.96,-76"/>
<text xml:space="preserve" text-anchor="middle" x="409.46" y="-62.5" font-family="Helvetica,sans-Serif" font-size="10.00">mob.h</text>
</a>
</g>
</g>
<!-- Node6&#45;&gt;Node18 -->
<g id="edge39_Node000006_Node000018" class="edge">
<title>Node6&#45;&gt;Node18</title>
<g id="a_edge39_Node000006_Node000018"><a xlink:title=" ">
<path fill="none" stroke="#63b8ff" d="M741.67,-117.58C678.76,-111.99 555.88,-99.33 442.33,-76.09"/>
<polygon fill="#63b8ff" stroke="#63b8ff" points="443.36,-72.73 432.85,-74.12 441.93,-79.58 443.36,-72.73"/>
</a>
</g>
</g>
<!-- Node19 -->
<g id="Node000019" class="node">
<title>Node19</title>
<g id="a_Node000019"><a xlink:href="vaisseau_8h.html" target="_top" xlink:title="Fichier de la scene vaisseau, des interactions et du retour en planete.">
<polygon fill="white" stroke="#666666" points="957.09,-76 893.84,-76 893.84,-56 957.09,-56 957.09,-76"/>
<text xml:space="preserve" text-anchor="middle" x="925.46" y="-62.5" font-family="Helvetica,sans-Serif" font-size="10.00">vaisseau.h</text>
</a>
</g>
</g>
<!-- Node6&#45;&gt;Node19 -->
<g id="edge42_Node000006_Node000019" class="edge">
<title>Node6&#45;&gt;Node19</title>
<g id="a_edge42_Node000006_Node000019"><a xlink:title=" ">
<path fill="none" stroke="#63b8ff" d="M808.2,-111.59C830.76,-103.01 864.37,-90.23 889.83,-80.55"/>
<polygon fill="#63b8ff" stroke="#63b8ff" points="891.02,-83.84 899.12,-77.02 888.53,-77.3 891.02,-83.84"/>
</a>
</g>
</g>
<!-- Node20 -->
<g id="Node000020" class="node">
<title>Node20</title>
<g id="a_Node000020"><a xlink:href="map_8h.html" target="_top" xlink:title="Fichier de navigation carte et de gestion des ressources cartographiques.">
<polygon fill="white" stroke="#666666" points="1017.96,-76 974.96,-76 974.96,-56 1017.96,-56 1017.96,-76"/>
<text xml:space="preserve" text-anchor="middle" x="996.46" y="-62.5" font-family="Helvetica,sans-Serif" font-size="10.00">map.h</text>
</a>
</g>
</g>
<!-- Node6&#45;&gt;Node20 -->
<g id="edge44_Node000006_Node000020" class="edge">
<title>Node6&#45;&gt;Node20</title>
<g id="a_edge44_Node000006_Node000020"><a xlink:title=" ">
<path fill="none" stroke="#63b8ff" d="M824.32,-111.58C859.11,-103.41 910.67,-90.99 963.59,-76.69"/>
<polygon fill="#63b8ff" stroke="#63b8ff" points="964.35,-80.11 973.08,-74.11 962.51,-73.36 964.35,-80.11"/>
</a>
</g>
</g>
<!-- Node21 -->
<g id="Node000021" class="node">
<title>Node21</title>
<g id="a_Node000021"><a xlink:href="item_8h.html" target="_top" xlink:title="Fichier de creation, d&#39;affichage et de destruction des items.">
<polygon fill="white" stroke="#666666" points="773.96,-76 730.96,-76 730.96,-56 773.96,-56 773.96,-76"/>
<text xml:space="preserve" text-anchor="middle" x="752.46" y="-62.5" font-family="Helvetica,sans-Serif" font-size="10.00">item.h</text>
</a>
</g>
</g>
<!-- Node6&#45;&gt;Node21 -->
<g id="edge48_Node000006_Node000021" class="edge">
<title>Node6&#45;&gt;Node21</title>
<g id="a_edge48_Node000006_Node000021"><a xlink:title=" ">
<path fill="none" stroke="#63b8ff" d="M778.06,-111.59C774.02,-104.55 768.35,-94.67 763.37,-86"/>
<polygon fill="#63b8ff" stroke="#63b8ff" points="766.57,-84.54 758.55,-77.61 760.5,-88.03 766.57,-84.54"/>
</a>
</g>
</g>
<!-- Node22 -->
<g id="Node000022" class="node">
<title>Node22</title>
<g id="a_Node000022"><a xlink:href="inventaire_8h.html" target="_top" xlink:title="Fichier de l&#39;inventaire, de la hotbar et des interactions de slots.">
<polygon fill="white" stroke="#666666" points="1242.59,-76 1176.34,-76 1176.34,-56 1242.59,-56 1242.59,-76"/>
<text xml:space="preserve" text-anchor="middle" x="1209.46" y="-62.5" font-family="Helvetica,sans-Serif" font-size="10.00">inventaire.h</text>
</a>
</g>
</g>
<!-- Node6&#45;&gt;Node22 -->
<g id="edge51_Node000006_Node000022" class="edge">
<title>Node6&#45;&gt;Node22</title>
<g id="a_edge51_Node000006_Node000022"><a xlink:title=" ">
<path fill="none" stroke="#63b8ff" d="M825.12,-117.42C893.81,-111.23 1035.31,-97.3 1164.76,-76.31"/>
<polygon fill="#63b8ff" stroke="#63b8ff" points="1165.25,-79.78 1174.55,-74.7 1164.12,-72.87 1165.25,-79.78"/>
</a>
</g>
</g>
<!-- Node23 -->
<g id="Node000023" class="node">
<title>Node23</title>
<g id="a_Node000023"><a xlink:href="sauvegarde_8h.html" target="_top" xlink:title="Fichier des slots de sauvegarde et du chargement de progression.">
<polygon fill="white" stroke="#666666" points="1487.71,-76 1413.21,-76 1413.21,-56 1487.71,-56 1487.71,-76"/>
<text xml:space="preserve" text-anchor="middle" x="1450.46" y="-62.5" font-family="Helvetica,sans-Serif" font-size="10.00">sauvegarde.h</text>
</a>
</g>
</g>
<!-- Node6&#45;&gt;Node23 -->
<g id="edge55_Node000006_Node000023" class="edge">
<title>Node6&#45;&gt;Node23</title>
<g id="a_edge55_Node000006_Node000023"><a xlink:title=" ">
<path fill="none" stroke="#63b8ff" d="M825.06,-119.72C923.55,-116.33 1178.83,-105.35 1401.61,-76.23"/>
<polygon fill="#63b8ff" stroke="#63b8ff" points="1401.91,-79.72 1411.37,-74.94 1400.99,-72.78 1401.91,-79.72"/>
</a>
</g>
</g>
<!-- Node25 -->
<g id="Node000025" class="node">
<title>Node25</title>
<g id="a_Node000025"><a xlink:href="objectifs_8h.html" target="_top" xlink:title="Fichier de suivi des objectifs de quete et de leur affichage.">
<polygon fill="white" stroke="#666666" points="1157.96,-76 1096.96,-76 1096.96,-56 1157.96,-56 1157.96,-76"/>
<text xml:space="preserve" text-anchor="middle" x="1127.46" y="-62.5" font-family="Helvetica,sans-Serif" font-size="10.00">objectifs.h</text>
</a>
</g>
</g>
<!-- Node6&#45;&gt;Node25 -->
<g id="edge58_Node000006_Node000025" class="edge">
<title>Node6&#45;&gt;Node25</title>
<g id="a_edge58_Node000006_Node000025"><a xlink:title=" ">
<path fill="none" stroke="#63b8ff" d="M824.93,-115.86C881.48,-108.62 986.18,-94.46 1085.37,-76.27"/>
<polygon fill="#63b8ff" stroke="#63b8ff" points="1085.82,-79.74 1095.01,-74.48 1084.54,-72.86 1085.82,-79.74"/>
</a>
</g>
</g>
<!-- Node26 -->
<g id="Node000026" class="node">
<title>Node26</title>
<g id="a_Node000026"><a xlink:href="cinematique_8h.html" target="_top" xlink:title="Fichier des cinematics, des intros et des sequences de credits.">
<polygon fill="white" stroke="#666666" points="1337.84,-76 1261.09,-76 1261.09,-56 1337.84,-56 1337.84,-76"/>
<text xml:space="preserve" text-anchor="middle" x="1299.46" y="-62.5" font-family="Helvetica,sans-Serif" font-size="10.00">cinematique.h</text>
</a>
</g>
</g>
<!-- Node6&#45;&gt;Node26 -->
<g id="edge62_Node000006_Node000026" class="edge">
<title>Node6&#45;&gt;Node26</title>
<g id="a_edge62_Node000006_Node000026"><a xlink:title=" ">
<path fill="none" stroke="#63b8ff" d="M825.24,-118.24C905.4,-112.68 1086.5,-98.81 1249.53,-76.14"/>
<polygon fill="#63b8ff" stroke="#63b8ff" points="1249.82,-79.64 1259.24,-74.78 1248.85,-72.71 1249.82,-79.64"/>
</a>
</g>
</g>
<!-- Node27 -->
<g id="Node000027" class="node">
<title>Node27</title>
<g id="a_Node000027"><a xlink:href="shop_8h.html" target="_top" xlink:title="Fichier de la boutique, des achats et de l&#39;economie joueur.">
<polygon fill="white" stroke="#666666" points="837.09,-76 791.84,-76 791.84,-56 837.09,-56 837.09,-76"/>
<text xml:space="preserve" text-anchor="middle" x="814.46" y="-62.5" font-family="Helvetica,sans-Serif" font-size="10.00">shop.h</text>
</a>
</g>
</g>
<!-- Node6&#45;&gt;Node27 -->
<g id="edge64_Node000006_Node000027" class="edge">
<title>Node6&#45;&gt;Node27</title>
<g id="a_edge64_Node000006_Node000027"><a xlink:title=" ">
<path fill="none" stroke="#63b8ff" d="M788.86,-111.59C792.91,-104.55 798.58,-94.67 803.55,-86"/>
<polygon fill="#63b8ff" stroke="#63b8ff" points="806.43,-88.03 808.37,-77.61 800.36,-84.54 806.43,-88.03"/>
</a>
</g>
</g>
<!-- Node10&#45;&gt;Node2 -->
<g id="edge13_Node000010_Node000002" class="edge">
<title>Node10&#45;&gt;Node2</title>
<g id="a_edge13_Node000010_Node000002"><a xlink:title=" ">
<path fill="none" stroke="#63b8ff" d="M163.85,-57.76C166.73,-57.08 169.65,-56.47 172.46,-56 297.26,-35.15 683.23,-18.24 818.25,-12.83"/>
<polygon fill="#63b8ff" stroke="#63b8ff" points="818.03,-16.34 827.89,-12.44 817.75,-9.34 818.03,-16.34"/>
</a>
</g>
</g>
<!-- Node10&#45;&gt;Node3 -->
<g id="edge14_Node000010_Node000003" class="edge">
<title>Node10&#45;&gt;Node3</title>
<g id="a_edge14_Node000010_Node000003"><a xlink:title=" ">
<path fill="none" stroke="#63b8ff" d="M163.89,-57.98C166.77,-57.26 169.67,-56.58 172.46,-56 251.57,-39.59 343.16,-27.18 406.74,-19.59"/>
<polygon fill="#63b8ff" stroke="#63b8ff" points="406.86,-23.1 416.38,-18.45 406.04,-16.15 406.86,-23.1"/>
</a>
</g>
</g>
<!-- Node11&#45;&gt;Node2 -->
<g id="edge16_Node000011_Node000002" class="edge">
<title>Node11&#45;&gt;Node2</title>
<g id="a_edge16_Node000011_Node000002"><a xlink:title=" ">
<path fill="none" stroke="#63b8ff" d="M521.77,-57.53C524.71,-56.99 527.63,-56.47 530.46,-56 632.84,-38.9 753.67,-23.95 818.58,-16.34"/>
<polygon fill="#63b8ff" stroke="#63b8ff" points="818.62,-19.86 828.15,-15.22 817.81,-12.91 818.62,-19.86"/>
</a>
</g>
</g>
<!-- Node11&#45;&gt;Node3 -->
<g id="edge17_Node000011_Node000003" class="edge">
<title>Node11&#45;&gt;Node3</title>
<g id="a_edge17_Node000011_Node000003"><a xlink:title=" ">
<path fill="none" stroke="#63b8ff" d="M485.46,-55.59C485.46,-49.01 485.46,-39.96 485.46,-31.73"/>
<polygon fill="#63b8ff" stroke="#63b8ff" points="488.96,-31.81 485.46,-21.81 481.96,-31.81 488.96,-31.81"/>
</a>
</g>
</g>
<!-- Node12&#45;&gt;Node2 -->
<g id="edge19_Node000012_Node000002" class="edge">
<title>Node12&#45;&gt;Node2</title>
<g id="a_edge19_Node000012_Node000002"><a xlink:title=" ">
<path fill="none" stroke="#63b8ff" d="M1035.85,-58.46C1033.03,-57.62 1030.18,-56.78 1027.46,-56 988.33,-44.7 943.72,-32.34 911.24,-23.45"/>
<polygon fill="#63b8ff" stroke="#63b8ff" points="912.31,-20.11 901.74,-20.85 910.46,-26.86 912.31,-20.11"/>
</a>
</g>
</g>
<!-- Node12&#45;&gt;Node3 -->
<g id="edge20_Node000012_Node000003" class="edge">
<title>Node12&#45;&gt;Node3</title>
<g id="a_edge20_Node000012_Node000003"><a xlink:title=" ">
<path fill="none" stroke="#63b8ff" d="M1035.96,-57.97C1033.13,-57.21 1030.24,-56.53 1027.46,-56 864.55,-25.15 670.12,-15.45 564.05,-12.4"/>
<polygon fill="#63b8ff" stroke="#63b8ff" points="564.42,-8.91 554.33,-12.13 564.23,-15.91 564.42,-8.91"/>
</a>
</g>
</g>
<!-- Node12&#45;&gt;Node7 -->
<g id="edge21_Node000012_Node000007" class="edge">
<title>Node12&#45;&gt;Node7</title>
<g id="a_edge21_Node000012_Node000007"><a xlink:title=" ">
<path fill="none" stroke="#63b8ff" d="M1059.03,-55.59C1060.14,-48.93 1061.67,-39.75 1063.06,-31.44"/>
<polygon fill="#63b8ff" stroke="#63b8ff" points="1066.47,-32.23 1064.66,-21.79 1059.57,-31.08 1066.47,-32.23"/>
</a>
</g>
</g>
<!-- Node13&#45;&gt;Node2 -->
<g id="edge23_Node000013_Node000002" class="edge">
<title>Node13&#45;&gt;Node2</title>
<g id="a_edge23_Node000013_Node000002"><a xlink:title=" ">
<path fill="none" stroke="#63b8ff" d="M303.49,-57.74C306.5,-57.08 309.54,-56.48 312.46,-56 497.91,-25.49 721.9,-15.34 817.97,-12.25"/>
<polygon fill="#63b8ff" stroke="#63b8ff" points="817.91,-15.75 827.79,-11.94 817.69,-8.75 817.91,-15.75"/>
</a>
</g>
</g>
<!-- Node13&#45;&gt;Node3 -->
<g id="edge24_Node000013_Node000003" class="edge">
<title>Node13&#45;&gt;Node3</title>
<g id="a_edge24_Node000013_Node000003"><a xlink:title=" ">
<path fill="none" stroke="#63b8ff" d="M303.36,-58.05C337.29,-49.28 396.23,-34.05 437.85,-23.3"/>
<polygon fill="#63b8ff" stroke="#63b8ff" points="438.56,-26.73 447.37,-20.84 436.81,-19.96 438.56,-26.73"/>
</a>
</g>
</g>
<!-- Node14&#45;&gt;Node2 -->
<g id="edge26_Node000014_Node000002" class="edge">
<title>Node14&#45;&gt;Node2</title>
<g id="a_edge26_Node000014_Node000002"><a xlink:title=" ">
<path fill="none" stroke="#63b8ff" d="M231.97,-57.7C234.82,-57.05 237.69,-56.46 240.46,-56 453.82,-20.4 712.79,-12.95 817.81,-11.4"/>
<polygon fill="#63b8ff" stroke="#63b8ff" points="817.78,-14.9 827.74,-11.27 817.69,-7.91 817.78,-14.9"/>
</a>
</g>
</g>
<!-- Node14&#45;&gt;Node3 -->
<g id="edge27_Node000014_Node000003" class="edge">
<title>Node14&#45;&gt;Node3</title>
<g id="a_edge27_Node000014_Node000003"><a xlink:title=" ">
<path fill="none" stroke="#63b8ff" d="M232.03,-58.01C234.87,-57.3 237.72,-56.61 240.46,-56 299.19,-42.85 366.47,-30.7 415.64,-22.35"/>
<polygon fill="#63b8ff" stroke="#63b8ff" points="416.02,-25.84 425.3,-20.72 414.86,-18.93 416.02,-25.84"/>
</a>
</g>
</g>
<!-- Node15&#45;&gt;Node2 -->
<g id="edge29_Node000015_Node000002" class="edge">
<title>Node15&#45;&gt;Node2</title>
<g id="a_edge29_Node000015_Node000002"><a xlink:title=" ">
<path fill="none" stroke="#63b8ff" d="M369.86,-57.84C372.74,-57.14 375.66,-56.51 378.46,-56 538.02,-27.1 730.53,-16.27 818.04,-12.64"/>
<polygon fill="#63b8ff" stroke="#63b8ff" points="818.07,-16.14 827.92,-12.25 817.79,-9.15 818.07,-16.14"/>
</a>
</g>
</g>
<!-- Node15&#45;&gt;Node3 -->
<g id="edge30_Node000015_Node000003" class="edge">
<title>Node15&#45;&gt;Node3</title>
<g id="a_edge30_Node000015_Node000003"><a xlink:title=" ">
<path fill="none" stroke="#63b8ff" d="M369.85,-55.59C392.1,-47.01 425.23,-34.23 450.33,-24.55"/>
<polygon fill="#63b8ff" stroke="#63b8ff" points="451.4,-27.89 459.47,-21.02 448.88,-21.36 451.4,-27.89"/>
</a>
</g>
</g>
<!-- Node16&#45;&gt;Node2 -->
<g id="edge32_Node000016_Node000002" class="edge">
<title>Node16&#45;&gt;Node2</title>
<g id="a_edge32_Node000016_Node000002"><a xlink:title=" ">
<path fill="none" stroke="#63b8ff" d="M1355,-58.07C1352.16,-57.28 1349.25,-56.56 1346.46,-56 1304.66,-47.65 1025.89,-24.18 912.9,-14.87"/>
<polygon fill="#63b8ff" stroke="#63b8ff" points="913.3,-11.4 903.05,-14.06 912.73,-18.37 913.3,-11.4"/>
</a>
</g>
</g>
<!-- Node16&#45;&gt;Node3 -->
<g id="edge33_Node000016_Node000003" class="edge">
<title>Node16&#45;&gt;Node3</title>
<g id="a_edge33_Node000016_Node000003"><a xlink:title=" ">
<path fill="none" stroke="#63b8ff" d="M1355.02,-57.97C1352.17,-57.19 1349.26,-56.5 1346.46,-56 1270.84,-42.51 762.84,-21.72 564.54,-14.01"/>
<polygon fill="#63b8ff" stroke="#63b8ff" points="564.7,-10.51 554.58,-13.62 564.43,-17.51 564.7,-10.51"/>
</a>
</g>
</g>
<!-- Node16&#45;&gt;Node5 -->
<g id="edge34_Node000016_Node000005" class="edge">
<title>Node16&#45;&gt;Node5</title>
<g id="a_edge34_Node000016_Node000005"><a xlink:title=" ">
<path fill="none" stroke="#63b8ff" d="M1359.09,-55.59C1344.89,-47.44 1324.08,-35.48 1307.58,-26"/>
<polygon fill="#63b8ff" stroke="#63b8ff" points="1309.69,-23.18 1299.28,-21.23 1306.2,-29.25 1309.69,-23.18"/>
</a>
</g>
</g>
<!-- Node16&#45;&gt;Node7 -->
<g id="edge35_Node000016_Node000007" class="edge">
<title>Node16&#45;&gt;Node7</title>
<g id="a_edge35_Node000016_Node000007"><a xlink:title=" ">
<path fill="none" stroke="#63b8ff" d="M1354.97,-58.25C1352.13,-57.43 1349.23,-56.65 1346.46,-56 1278.41,-40.06 1199.72,-27.96 1143.13,-20.34"/>
<polygon fill="#63b8ff" stroke="#63b8ff" points="1143.63,-16.88 1133.25,-19.03 1142.71,-23.82 1143.63,-16.88"/>
</a>
</g>
</g>
<!-- Node17&#45;&gt;Node2 -->
<g id="edge37_Node000017_Node000002" class="edge">
<title>Node17&#45;&gt;Node2</title>
<g id="a_edge37_Node000017_Node000002"><a xlink:title=" ">
<path fill="none" stroke="#63b8ff" d="M648.44,-58.13C651.13,-57.39 653.85,-56.66 656.46,-56 711.68,-42.06 775.78,-28.66 818.29,-20.17"/>
<polygon fill="#63b8ff" stroke="#63b8ff" points="818.8,-23.64 827.93,-18.25 817.44,-16.77 818.8,-23.64"/>
</a>
</g>
</g>
<!-- Node17&#45;&gt;Node3 -->
<g id="edge38_Node000017_Node000003" class="edge">
<title>Node17&#45;&gt;Node3</title>
<g id="a_edge38_Node000017_Node000003"><a xlink:title=" ">
<path fill="none" stroke="#63b8ff" d="M602.34,-56.08C580.15,-47.52 546.33,-34.48 520.77,-24.62"/>
<polygon fill="#63b8ff" stroke="#63b8ff" points="522.03,-21.35 511.44,-21.02 519.51,-27.88 522.03,-21.35"/>
</a>
</g>
</g>
<!-- Node18&#45;&gt;Node2 -->
<g id="edge40_Node000018_Node000002" class="edge">
<title>Node18&#45;&gt;Node2</title>
<g id="a_edge40_Node000018_Node000002"><a xlink:title=" ">
<path fill="none" stroke="#63b8ff" d="M431.36,-58.12C434.4,-57.32 437.49,-56.58 440.46,-56 575.85,-29.4 738.79,-17.7 817.83,-13.29"/>
<polygon fill="#63b8ff" stroke="#63b8ff" points="818.01,-16.78 827.81,-12.75 817.63,-9.79 818.01,-16.78"/>
</a>
</g>
</g>
<!-- Node18&#45;&gt;Node3 -->
<g id="edge41_Node000018_Node000003" class="edge">
<title>Node18&#45;&gt;Node3</title>
<g id="a_edge41_Node000018_Node000003"><a xlink:title=" ">
<path fill="none" stroke="#63b8ff" d="M422.7,-55.59C433.75,-47.74 449.74,-36.38 462.82,-27.09"/>
<polygon fill="#63b8ff" stroke="#63b8ff" points="464.76,-30 470.89,-21.36 460.71,-24.3 464.76,-30"/>
</a>
</g>
</g>
<!-- Node19&#45;&gt;Node2 -->
<g id="edge43_Node000019_Node000002" class="edge">
<title>Node19&#45;&gt;Node2</title>
<g id="a_edge43_Node000019_Node000002"><a xlink:title=" ">
<path fill="none" stroke="#63b8ff" d="M915.01,-55.59C906.49,-47.93 894.25,-36.91 884.07,-27.75"/>
<polygon fill="#63b8ff" stroke="#63b8ff" points="886.69,-25.4 876.92,-21.31 882.01,-30.6 886.69,-25.4"/>
</a>
</g>
</g>
<!-- Node20&#45;&gt;Node2 -->
<g id="edge45_Node000020_Node000002" class="edge">
<title>Node20&#45;&gt;Node2</title>
<g id="a_edge45_Node000020_Node000002"><a xlink:title=" ">
<path fill="none" stroke="#63b8ff" d="M974.54,-55.96C953.82,-47.42 922.46,-34.49 898.67,-24.69"/>
<polygon fill="#63b8ff" stroke="#63b8ff" points="900.32,-21.58 889.74,-21.01 897.65,-28.05 900.32,-21.58"/>
</a>
</g>
</g>
<!-- Node20&#45;&gt;Node3 -->
<g id="edge46_Node000020_Node000003" class="edge">
<title>Node20&#45;&gt;Node3</title>
<g id="a_edge46_Node000020_Node000003"><a xlink:title=" ">
<path fill="none" stroke="#63b8ff" d="M974.63,-57.91C971.9,-57.18 969.13,-56.52 966.46,-56 826.44,-28.73 660.15,-17.83 564.31,-13.59"/>
<polygon fill="#63b8ff" stroke="#63b8ff" points="564.63,-10.1 554.49,-13.17 564.33,-17.09 564.63,-10.1"/>
</a>
</g>
</g>
<!-- Node20&#45;&gt;Node7 -->
<g id="edge47_Node000020_Node000007" class="edge">
<title>Node20&#45;&gt;Node7</title>
<g id="a_edge47_Node000020_Node000007"><a xlink:title=" ">
<path fill="none" stroke="#63b8ff" d="M1008.65,-55.59C1018.79,-47.77 1033.45,-36.46 1045.47,-27.19"/>
<polygon fill="#63b8ff" stroke="#63b8ff" points="1047.43,-30.1 1053.21,-21.22 1043.15,-24.56 1047.43,-30.1"/>
</a>
</g>
</g>
<!-- Node21&#45;&gt;Node2 -->
<g id="edge49_Node000021_Node000002" class="edge">
<title>Node21&#45;&gt;Node2</title>
<g id="a_edge49_Node000021_Node000002"><a xlink:title=" ">
<path fill="none" stroke="#63b8ff" d="M772.14,-55.59C789.62,-47.24 815.41,-34.92 835.46,-25.34"/>
<polygon fill="#63b8ff" stroke="#63b8ff" points="836.75,-28.6 844.26,-21.13 833.73,-22.29 836.75,-28.6"/>
</a>
</g>
</g>
<!-- Node21&#45;&gt;Node3 -->
<g id="edge50_Node000021_Node000003" class="edge">
<title>Node21&#45;&gt;Node3</title>
<g id="a_edge50_Node000021_Node000003"><a xlink:title=" ">
<path fill="none" stroke="#63b8ff" d="M730.58,-58.15C727.86,-57.38 725.1,-56.65 722.46,-56 666.91,-42.43 603.18,-30.53 555.82,-22.39"/>
<polygon fill="#63b8ff" stroke="#63b8ff" points="556.69,-18.98 546.25,-20.75 555.51,-25.89 556.69,-18.98"/>
</a>
</g>
</g>
<!-- Node22&#45;&gt;Node2 -->
<g id="edge52_Node000022_Node000002" class="edge">
<title>Node22&#45;&gt;Node2</title>
<g id="a_edge52_Node000022_Node000002"><a xlink:title=" ">
<path fill="none" stroke="#63b8ff" d="M1176.03,-57.64C1173.14,-57.06 1170.25,-56.51 1167.46,-56 1077.73,-39.72 972.22,-25 912.66,-17.09"/>
<polygon fill="#63b8ff" stroke="#63b8ff" points="913.25,-13.64 902.88,-15.8 912.34,-20.58 913.25,-13.64"/>
</a>
</g>
</g>
<!-- Node22&#45;&gt;Node3 -->
<g id="edge53_Node000022_Node000003" class="edge">
<title>Node22&#45;&gt;Node3</title>
<g id="a_edge53_Node000022_Node000003"><a xlink:title=" ">
<path fill="none" stroke="#63b8ff" d="M1176.07,-57.39C1173.17,-56.86 1170.27,-56.39 1167.46,-56 950.42,-25.75 691.61,-15.73 564.24,-12.49"/>
<polygon fill="#63b8ff" stroke="#63b8ff" points="564.67,-9 554.58,-12.25 564.49,-16 564.67,-9"/>
</a>
</g>
</g>
<!-- Node22&#45;&gt;Node5 -->
<g id="edge54_Node000022_Node000005" class="edge">
<title>Node22&#45;&gt;Node5</title>
<g id="a_edge54_Node000022_Node000005"><a xlink:title=" ">
<path fill="none" stroke="#63b8ff" d="M1222,-55.59C1232.43,-47.77 1247.51,-36.46 1259.87,-27.19"/>
<polygon fill="#63b8ff" stroke="#63b8ff" points="1261.95,-30.01 1267.85,-21.21 1257.75,-24.41 1261.95,-30.01"/>
</a>
</g>
</g>
<!-- Node23&#45;&gt;Node2 -->
<g id="edge56_Node000023_Node000002" class="edge">
<title>Node23&#45;&gt;Node2</title>
<g id="a_edge56_Node000023_Node000002"><a xlink:title=" ">
<path fill="none" stroke="#63b8ff" d="M1412.86,-57.29C1410.03,-56.82 1407.2,-56.38 1404.46,-56 1356.43,-49.32 1034.92,-24.12 912.59,-14.64"/>
<polygon fill="#63b8ff" stroke="#63b8ff" points="913.14,-11.17 902.89,-13.89 912.59,-18.15 913.14,-11.17"/>
</a>
</g>
</g>
<!-- Node24 -->
<g id="Node000024" class="node">
<title>Node24</title>
<g id="a_Node000024"><a xlink:title=" ">
<polygon fill="#e0e0e0" stroke="#999999" points="1478.34,-20 1422.59,-20 1422.59,0 1478.34,0 1478.34,-20"/>
<text xml:space="preserve" text-anchor="middle" x="1450.46" y="-6.5" font-family="Helvetica,sans-Serif" font-size="10.00">stdbool.h</text>
</a>
</g>
</g>
<!-- Node23&#45;&gt;Node24 -->
<g id="edge57_Node000023_Node000024" class="edge">
<title>Node23&#45;&gt;Node24</title>
<g id="a_edge57_Node000023_Node000024"><a xlink:title=" ">
<path fill="none" stroke="#63b8ff" d="M1450.46,-55.59C1450.46,-49.01 1450.46,-39.96 1450.46,-31.73"/>
<polygon fill="#63b8ff" stroke="#63b8ff" points="1453.96,-31.81 1450.46,-21.81 1446.96,-31.81 1453.96,-31.81"/>
</a>
</g>
</g>
<!-- Node25&#45;&gt;Node2 -->
<g id="edge59_Node000025_Node000002" class="edge">
<title>Node25&#45;&gt;Node2</title>
<g id="a_edge59_Node000025_Node000002"><a xlink:title=" ">
<path fill="none" stroke="#63b8ff" d="M1096.47,-57.96C1093.43,-57.29 1090.39,-56.63 1087.46,-56 1027.32,-43.14 957.81,-29.2 912.82,-20.3"/>
<polygon fill="#63b8ff" stroke="#63b8ff" points="913.63,-16.89 903.14,-18.38 912.27,-23.76 913.63,-16.89"/>
</a>
</g>
</g>
<!-- Node25&#45;&gt;Node3 -->
<g id="edge60_Node000025_Node000003" class="edge">
<title>Node25&#45;&gt;Node3</title>
<g id="a_edge60_Node000025_Node000003"><a xlink:title=" ">
<path fill="none" stroke="#63b8ff" d="M1096.54,-57.57C1093.48,-56.98 1090.42,-56.44 1087.46,-56 901.12,-28.22 679.64,-17.27 564.25,-13.21"/>
<polygon fill="#63b8ff" stroke="#63b8ff" points="564.71,-9.72 554.59,-12.87 564.47,-16.72 564.71,-9.72"/>
</a>
</g>
</g>
<!-- Node25&#45;&gt;Node5 -->
<g id="edge61_Node000025_Node000005" class="edge">
<title>Node25&#45;&gt;Node5</title>
<g id="a_edge61_Node000025_Node000005"><a xlink:title=" ">
<path fill="none" stroke="#63b8ff" d="M1154.29,-55.59C1179.09,-46.9 1216.19,-33.89 1243.93,-24.16"/>
<polygon fill="#63b8ff" stroke="#63b8ff" points="1244.72,-27.59 1253,-20.98 1242.4,-20.99 1244.72,-27.59"/>
</a>
</g>
</g>
<!-- Node26&#45;&gt;Node2 -->
<g id="edge63_Node000026_Node000002" class="edge">
<title>Node26&#45;&gt;Node2</title>
<g id="a_edge63_Node000026_Node000002"><a xlink:title=" ">
<path fill="none" stroke="#63b8ff" d="M1260.73,-57.5C1257.6,-56.97 1254.48,-56.46 1251.46,-56 1129.74,-37.52 985.41,-22.52 912.56,-15.43"/>
<polygon fill="#63b8ff" stroke="#63b8ff" points="913.29,-11.98 903,-14.5 912.62,-18.95 913.29,-11.98"/>
</a>
</g>
</g>
<!-- Node27&#45;&gt;Node2 -->
<g id="edge65_Node000027_Node000002" class="edge">
<title>Node27&#45;&gt;Node2</title>
<g id="a_edge65_Node000027_Node000002"><a xlink:title=" ">
<path fill="none" stroke="#63b8ff" d="M823.35,-55.59C830.37,-48.16 840.36,-37.58 848.86,-28.58"/>
<polygon fill="#63b8ff" stroke="#63b8ff" points="851.32,-31.07 855.64,-21.4 846.23,-26.27 851.32,-31.07"/>
</a>
</g>
</g>
</g>
</svg>
