<?xml version="1.0" encoding="UTF-8" standalone="no"?>
<!DOCTYPE svg PUBLIC "-//W3C//DTD SVG 1.1//EN"
 "http://www.w3.org/Graphics/SVG/1.1/DTD/svg11.dtd">
<!-- Generated by graphviz version 14.1.4 (20260321.0153)
 -->
<!-- Title: afficher_option Pages: 1 -->
<svg width="370pt" height="306pt"
 viewBox="0.00 0.00 370.00 306.00" xmlns="http://www.w3.org/2000/svg" xmlns:xlink="http://www.w3.org/1999/xlink">
<g id="graph0" class="graph" transform="scale(1 1) rotate(0) translate(4 302)">
<title>afficher_option</title>
<!-- Node1 -->
<g id="Node000001" class="node">
<title>Node1</title>
<g id="a_Node000001"><a xlink:title="Affiche option et met a jour les elements visuels associes.">
<polygon fill="#999999" stroke="#666666" points="79,-165 0,-165 0,-145 79,-145 79,-165"/>
<text xml:space="preserve" text-anchor="middle" x="39.5" y="-151.5" font-family="Helvetica,sans-Serif" font-size="10.00">afficher_option</text>
</a>
</g>
</g>
<!-- Node2 -->
<g id="Node000002" class="node">
<title>Node2</title>
<g id="a_Node000002"><a xlink:href="bouton_8c.html#af33c1c08b52d3d015ff6f7039a9734ee" target="_top" xlink:title="Affiche texte centre et met a jour les elements visuels associes.">
<polygon fill="white" stroke="#666666" points="233,-298 126.25,-298 126.25,-278 233,-278 233,-298"/>
<text xml:space="preserve" text-anchor="middle" x="179.62" y="-284.5" font-family="Helvetica,sans-Serif" font-size="10.00">afficher_texte_centre</text>
</a>
</g>
</g>
<!-- Node1&#45;&gt;Node2 -->
<g id="edge1_Node000001_Node000002" class="edge">
<title>Node1&#45;&gt;Node2</title>
<g id="a_edge1_Node000001_Node000002"><a xlink:title=" ">
<path fill="none" stroke="#63b8ff" d="M44.33,-165.25C53.19,-187.58 77.29,-240.86 115,-269 116.73,-270.29 118.55,-271.5 120.44,-272.62"/>
<polygon fill="#63b8ff" stroke="#63b8ff" points="118.45,-275.54 128.96,-276.91 121.6,-269.29 118.45,-275.54"/>
</a>
</g>
</g>
<!-- Node3 -->
<g id="Node000003" class="node">
<title>Node3</title>
<g id="a_Node000003"><a xlink:href="bouton_8c.html#a11f55905044ef2518b8c38311df3c48d" target="_top" xlink:title="Dessine la texture du bouton dans son rectangle d&#39;affichage.">
<polygon fill="white" stroke="#666666" points="222.12,-260 137.12,-260 137.12,-240 222.12,-240 222.12,-260"/>
<text xml:space="preserve" text-anchor="middle" x="179.62" y="-246.5" font-family="Helvetica,sans-Serif" font-size="10.00">Bouton_Afficher</text>
</a>
</g>
</g>
<!-- Node1&#45;&gt;Node3 -->
<g id="edge2_Node000001_Node000003" class="edge">
<title>Node1&#45;&gt;Node3</title>
<g id="a_edge2_Node000001_Node000003"><a xlink:title=" ">
<path fill="none" stroke="#63b8ff" d="M47.96,-165.49C60.14,-181.86 85.89,-213.44 115,-231 118.57,-233.15 122.39,-235.07 126.33,-236.79"/>
<polygon fill="#63b8ff" stroke="#63b8ff" points="124.94,-240 135.53,-240.32 127.45,-233.47 124.94,-240"/>
</a>
</g>
</g>
<!-- Node4 -->
<g id="Node000004" class="node">
<title>Node4</title>
<g id="a_Node000004"><a xlink:href="bouton_8c.html#ab4862740c43f8a9abb996fff0aba5ca1" target="_top" xlink:title="Met a jour l&#39;etat du bouton a partir d&#39;un evenement SDL.">
<polygon fill="white" stroke="#666666" points="242.38,-222 116.88,-222 116.88,-202 242.38,-202 242.38,-222"/>
<text xml:space="preserve" text-anchor="middle" x="179.62" y="-208.5" font-family="Helvetica,sans-Serif" font-size="10.00">Bouton_GererEvenement</text>
</a>
</g>
</g>
<!-- Node1&#45;&gt;Node4 -->
<g id="edge3_Node000001_Node000004" class="edge">
<title>Node1&#45;&gt;Node4</title>
<g id="a_edge3_Node000001_Node000004"><a xlink:title=" ">
<path fill="none" stroke="#63b8ff" d="M58.74,-165.48C73.56,-173.71 95.19,-185.06 115,-193 119.39,-194.76 124.02,-196.44 128.68,-198.03"/>
<polygon fill="#63b8ff" stroke="#63b8ff" points="127.51,-201.33 138.11,-201.08 129.67,-194.67 127.51,-201.33"/>
</a>
</g>
</g>
<!-- Node6 -->
<g id="Node000006" class="node">
<title>Node6</title>
<g id="a_Node000006"><a xlink:href="bouton_8c.html#a482b1feb9004901d0544e64b1c44051c" target="_top" xlink:title="Initialise un bouton (zone, texture et etat d&#39;interaction).">
<polygon fill="white" stroke="#666666" points="212.38,-184 146.88,-184 146.88,-164 212.38,-164 212.38,-184"/>
<text xml:space="preserve" text-anchor="middle" x="179.62" y="-170.5" font-family="Helvetica,sans-Serif" font-size="10.00">Bouton_Init</text>
</a>
</g>
</g>
<!-- Node1&#45;&gt;Node6 -->
<g id="edge5_Node000001_Node000006" class="edge">
<title>Node1&#45;&gt;Node6</title>
<g id="a_edge5_Node000001_Node000006"><a xlink:title=" ">
<path fill="none" stroke="#63b8ff" d="M79.34,-160.34C96.75,-162.74 117.36,-165.57 135.27,-168.04"/>
<polygon fill="#63b8ff" stroke="#63b8ff" points="134.71,-171.49 145.09,-169.39 135.66,-164.56 134.71,-171.49"/>
</a>
</g>
</g>
<!-- Node7 -->
<g id="Node000007" class="node">
<title>Node7</title>
<g id="a_Node000007"><a xlink:href="son_8c.html#ac32eff9d3cca9f4d196044b77e8be773" target="_top" xlink:title="Indique si la categorie ambiance/musique est active.">
<polygon fill="white" stroke="#666666" points="244.25,-146 115,-146 115,-126 244.25,-126 244.25,-146"/>
<text xml:space="preserve" text-anchor="middle" x="179.62" y="-132.5" font-family="Helvetica,sans-Serif" font-size="10.00">son_ambiance_est_active</text>
</a>
</g>
</g>
<!-- Node1&#45;&gt;Node7 -->
<g id="edge6_Node000001_Node000007" class="edge">
<title>Node1&#45;&gt;Node7</title>
<g id="a_edge6_Node000001_Node000007"><a xlink:title=" ">
<path fill="none" stroke="#63b8ff" d="M79.34,-149.66C86.91,-148.62 95.09,-147.49 103.38,-146.35"/>
<polygon fill="#63b8ff" stroke="#63b8ff" points="103.79,-149.83 113.22,-145 102.84,-142.89 103.79,-149.83"/>
</a>
</g>
</g>
<!-- Node8 -->
<g id="Node000008" class="node">
<title>Node8</title>
<g id="a_Node000008"><a xlink:href="son_8c.html#a8a52d99b75360359dcdc073a5617eadf" target="_top" xlink:title="Active ou desactive uniquement les pistes d&#39;ambiance.">
<polygon fill="white" stroke="#666666" points="234.88,-108 124.38,-108 124.38,-76 234.88,-76 234.88,-108"/>
<text xml:space="preserve" text-anchor="start" x="132.38" y="-94.5" font-family="Helvetica,sans-Serif" font-size="10.00">son_definir_ambiance</text>
<text xml:space="preserve" text-anchor="middle" x="179.62" y="-82.5" font-family="Helvetica,sans-Serif" font-size="10.00">_active</text>
</a>
</g>
</g>
<!-- Node1&#45;&gt;Node8 -->
<g id="edge7_Node000001_Node000008" class="edge">
<title>Node1&#45;&gt;Node8</title>
<g id="a_edge7_Node000001_Node000008"><a xlink:title=" ">
<path fill="none" stroke="#63b8ff" d="M59.55,-144.64C74.45,-136.69 95.8,-125.64 115,-117 118.15,-115.58 121.4,-114.17 124.69,-112.77"/>
<polygon fill="#63b8ff" stroke="#63b8ff" points="125.97,-116.03 133.87,-108.96 123.29,-109.56 125.97,-116.03"/>
</a>
</g>
</g>
<!-- Node9 -->
<g id="Node000009" class="node">
<title>Node9</title>
<g id="a_Node000009"><a xlink:href="son_8c.html#af5a69f840820938ab962a3371bd3f929" target="_top" xlink:title="Active ou desactive uniquement les effets sonores (SFX).">
<polygon fill="white" stroke="#666666" points="236.38,-58 122.88,-58 122.88,-38 236.38,-38 236.38,-58"/>
<text xml:space="preserve" text-anchor="middle" x="179.62" y="-44.5" font-family="Helvetica,sans-Serif" font-size="10.00">son_definir_sfx_active</text>
</a>
</g>
</g>
<!-- Node1&#45;&gt;Node9 -->
<g id="edge8_Node000001_Node000009" class="edge">
<title>Node1&#45;&gt;Node9</title>
<g id="a_edge8_Node000001_Node000009"><a xlink:title=" ">
<path fill="none" stroke="#63b8ff" d="M46.46,-144.62C57.55,-126.21 83.17,-87.82 115,-67 117.12,-65.62 119.34,-64.33 121.63,-63.13"/>
<polygon fill="#63b8ff" stroke="#63b8ff" points="122.97,-66.37 130.65,-59.08 120.09,-59.99 122.97,-66.37"/>
</a>
</g>
</g>
<!-- Node10 -->
<g id="Node000010" class="node">
<title>Node10</title>
<g id="a_Node000010"><a xlink:href="son_8c.html#ae2e2d99b70e1f3a05cb7120d267202f4" target="_top" xlink:title="Indique si la categorie SFX est active.">
<polygon fill="white" stroke="#666666" points="226.25,-20 133,-20 133,0 226.25,0 226.25,-20"/>
<text xml:space="preserve" text-anchor="middle" x="179.62" y="-6.5" font-family="Helvetica,sans-Serif" font-size="10.00">son_sfx_est_actif</text>
</a>
</g>
</g>
<!-- Node1&#45;&gt;Node10 -->
<g id="edge9_Node000001_Node000010" class="edge">
<title>Node1&#45;&gt;Node10</title>
<g id="a_edge9_Node000001_Node000010"><a xlink:title=" ">
<path fill="none" stroke="#63b8ff" d="M43.65,-144.77C51.55,-120.79 74.56,-60.62 115,-29 117.39,-27.13 119.95,-25.45 122.64,-23.93"/>
<polygon fill="#63b8ff" stroke="#63b8ff" points="123.87,-27.22 131.4,-19.77 120.87,-20.9 123.87,-27.22"/>
</a>
</g>
</g>
<!-- Node5 -->
<g id="Node000005" class="node">
<title>Node5</title>
<g id="a_Node000005"><a xlink:href="bouton_8c.html#a273a0b22067678e17b3e6b4be36e3641" target="_top" xlink:title=" ">
<polygon fill="white" stroke="#666666" points="361.5,-222 280.25,-222 280.25,-202 361.5,-202 361.5,-222"/>
<text xml:space="preserve" text-anchor="middle" x="320.88" y="-208.5" font-family="Helvetica,sans-Serif" font-size="10.00">pointDansRect</text>
</a>
</g>
</g>
<!-- Node4&#45;&gt;Node5 -->
<g id="edge4_Node000004_Node000005" class="edge">
<title>Node4&#45;&gt;Node5</title>
<g id="a_edge4_Node000004_Node000005"><a xlink:title=" ">
<path fill="none" stroke="#63b8ff" d="M242.51,-212C251.2,-212 260.05,-212 268.52,-212"/>
<polygon fill="#63b8ff" stroke="#63b8ff" points="268.26,-215.5 278.26,-212 268.26,-208.5 268.26,-215.5"/>
</a>
</g>
</g>
</g>
</svg>
