<?xml version="1.0" encoding="UTF-8" standalone="no"?>
<!DOCTYPE svg PUBLIC "-//W3C//DTD SVG 1.1//EN"
 "http://www.w3.org/Graphics/SVG/1.1/DTD/svg11.dtd">
<!-- Generated by graphviz version 14.1.4 (20260321.0153)
 -->
<!-- Title: src/headers/pause.h Pages: 1 -->
<svg width="228pt" height="84pt"
 viewBox="0.00 0.00 228.00 84.00" xmlns="http://www.w3.org/2000/svg" xmlns:xlink="http://www.w3.org/1999/xlink">
<g id="graph0" class="graph" transform="scale(1 1) rotate(0) translate(4 80)">
<title>src/headers/pause.h</title>
<!-- Node1 -->
<g id="Node000001" class="node">
<title>Node1</title>
<g id="a_Node000001"><a xlink:title="Fichier du menu pause et des actions de reprise/sauvegarde.">
<polygon fill="#999999" stroke="#666666" points="147,-76 42.5,-76 42.5,-56 147,-56 147,-76"/>
<text xml:space="preserve" text-anchor="middle" x="94.75" y="-62.5" font-family="Helvetica,sans-Serif" font-size="10.00">src/headers/pause.h</text>
</a>
</g>
</g>
<!-- Node2 -->
<g id="Node000002" class="node">
<title>Node2</title>
<g id="a_Node000002"><a xlink:title=" ">
<polygon fill="#e0e0e0" stroke="#999999" points="71.5,-20 0,-20 0,0 71.5,0 71.5,-20"/>
<text xml:space="preserve" text-anchor="middle" x="35.75" y="-6.5" font-family="Helvetica,sans-Serif" font-size="10.00">SDL3/SDL.h</text>
</a>
</g>
</g>
<!-- Node1&#45;&gt;Node2 -->
<g id="edge1_Node000001_Node000002" class="edge">
<title>Node1&#45;&gt;Node2</title>
<g id="a_edge1_Node000001_Node000002"><a xlink:title=" ">
<path fill="none" stroke="#63b8ff" d="M84.47,-55.59C76.18,-48.01 64.3,-37.13 54.35,-28.02"/>
<polygon fill="#63b8ff" stroke="#63b8ff" points="56.77,-25.49 47.03,-21.32 52.04,-30.65 56.77,-25.49"/>
</a>
</g>
</g>
<!-- Node3 -->
<g id="Node000003" class="node">
<title>Node3</title>
<g id="a_Node000003"><a xlink:title=" ">
<polygon fill="#e0e0e0" stroke="#999999" points="219.75,-20 89.75,-20 89.75,0 219.75,0 219.75,-20"/>
<text xml:space="preserve" text-anchor="middle" x="154.75" y="-6.5" font-family="Helvetica,sans-Serif" font-size="10.00">SDL3_mixer/SDL_mixer.h</text>
</a>
</g>
</g>
<!-- Node1&#45;&gt;Node3 -->
<g id="edge2_Node000001_Node000003" class="edge">
<title>Node1&#45;&gt;Node3</title>
<g id="a_edge2_Node000001_Node000003"><a xlink:title=" ">
<path fill="none" stroke="#63b8ff" d="M105.2,-55.59C113.72,-47.93 125.96,-36.91 136.14,-27.75"/>
<polygon fill="#63b8ff" stroke="#63b8ff" points="138.2,-30.6 143.29,-21.31 133.52,-25.4 138.2,-30.6"/>
</a>
</g>
</g>
</g>
</svg>
