<?xml version="1.0" encoding="UTF-8" standalone="no"?>
<!DOCTYPE svg PUBLIC "-//W3C//DTD SVG 1.1//EN"
 "http://www.w3.org/Graphics/SVG/1.1/DTD/svg11.dtd">
<!-- Generated by graphviz version 2.43.0 (0)
 -->
<!-- Title: afficher_pause Pages: 1 -->
<!--zoomable 409 -->

<svg id="main" version="1.1" xmlns="http://www.w3.org/2000/svg" xmlns:xlink="http://www.w3.org/1999/xlink" xml:space="preserve" onload="init(evt)">

<style type="text/css"><![CDATA[
.node, .edge {opacity: 0.7;}
.node.selected, .edge.selected {opacity: 1;}
.edge:hover path { stroke: red; }
.edge:hover polygon { stroke: red; fill: red; }
]]></style>

<defs>
  <circle id="rim" cx="0" cy="0" r="7"/>
  <circle id="rim2" cx="0" cy="0" r="3.5"/>
  <g id="zoomPlus">
    <use xlink:href="#rim" fill="#404040"><set attributeName="fill" to="#808080" begin="zoomplus.mouseover" end="zoomplus.mouseout"/></use>
    <path d="M-4,0h8M0,-4v8" fill="none" stroke="white" stroke-width="1.5" pointer-events="none"/>
  </g>
  <g id="zoomMin">
    <use xlink:href="#rim" fill="#404040"><set attributeName="fill" to="#808080" begin="zoomminus.mouseover" end="zoomminus.mouseout"/></use>
    <path d="M-4,0h8" fill="none" stroke="white" stroke-width="1.5" pointer-events="none"/>
  </g>
  <g id="arrowUp" transform="translate(30 24)">
    <use xlink:href="#rim"/>
    <path pointer-events="none" fill="none" stroke="white" stroke-width="1.5" d="M0,-3.0v7 M-2.5,-0.5L0,-3.0L2.5,-0.5"/>
  </g>
  <g id="arrowRight" transform="rotate(90) translate(36 -43)">
    <use xlink:href="#rim"/>
    <path pointer-events="none" fill="none" stroke="white" stroke-width="1.5" d="M0,-3.0v7 M-2.5,-0.5L0,-3.0L2.5,-0.5"/>
  </g>
  <g id="arrowDown" transform="rotate(180) translate(-30 -48)">
    <use xlink:href="#rim"/>
    <path pointer-events="none" fill="none" stroke="white" stroke-width="1.5" d="M0,-3.0v7 M-2.5,-0.5L0,-3.0L2.5,-0.5"/>
  </g>
  <g id="arrowLeft" transform="rotate(270) translate(-36 17)">
    <use xlink:href="#rim"/>
    <path pointer-events="none" fill="none" stroke="white" stroke-width="1.5" d="M0,-3.0v7 M-2.5,-0.5L0,-3.0L2.5,-0.5"/>
  </g>
  <g id="resetDef">
    <use xlink:href="#rim2" fill="#404040"><set attributeName="fill" to="#808080" begin="reset.mouseover" end="reset.mouseout"/></use>
  </g>
</defs>
<script type="application/ecmascript">
var viewWidth = 569;
var viewHeight = 409;
var sectionId = 'dynsection-2';
</script>
<script type="application/ecmascript" xlink:href="svg.min.js"/>
<svg id="graph" class="graph">
<g id="viewport">
<title>afficher_pause</title>
<!-- Node1 -->
<g id="Node000001" class="node">
<title>Node1</title>
<g id="a_Node000001"><a xlink:title="Affiche pause et met a jour les elements visuels associes.">
<polygon fill="#999999" stroke="#666666" points="88,-195 0,-195 0,-176 88,-176 88,-195"/>
<text text-anchor="middle" x="44" y="-183" font-family="Helvetica,sans-Serif" font-size="10.00">afficher_pause</text>
</a>
</g>
</g>
<!-- Node2 -->
<g id="Node000002" class="node">
<title>Node2</title>
<g id="a_Node000002"><a xlink:href="option_8c.html#ac77b6b0f042469d82d75b270f5193806" target="_top" xlink:title="Affiche option et met a jour les elements visuels associes.">
<polygon fill="white" stroke="#666666" points="235.5,-176 146.5,-176 146.5,-157 235.5,-157 235.5,-176"/>
<text text-anchor="middle" x="191" y="-164" font-family="Helvetica,sans-Serif" font-size="10.00">afficher_option</text>
</a>
</g>
</g>
<!-- Node1&#45;&gt;Node2 -->
<g id="edge1_Node000001_Node000002" class="edge">
<title>Node1&#45;&gt;Node2</title>
<g id="a_edge1_Node000001_Node000002"><a xlink:title=" ">
<path fill="none" stroke="#63b8ff" d="M88.11,-179.85C103.18,-177.88 120.28,-175.64 136.11,-173.56"/>
<polygon fill="#63b8ff" stroke="#63b8ff" points="136.84,-177 146.3,-172.23 135.93,-170.05 136.84,-177"/>
</a>
</g>
</g>
<!-- Node3 -->
<g id="Node000003" class="node">
<title>Node3</title>
<g id="a_Node000003"><a xlink:href="bouton_8c.html#af33c1c08b52d3d015ff6f7039a9734ee" target="_top" xlink:title="Affiche texte centre et met a jour les elements visuels associes.">
<polygon fill="white" stroke="#666666" points="425.5,-364 305.5,-364 305.5,-345 425.5,-345 425.5,-364"/>
<text text-anchor="middle" x="365.5" y="-352" font-family="Helvetica,sans-Serif" font-size="10.00">afficher_texte_centre</text>
</a>
</g>
</g>
<!-- Node1&#45;&gt;Node3 -->
<g id="edge11_Node000001_Node000003" class="edge">
<title>Node1&#45;&gt;Node3</title>
<g id="a_edge11_Node000001_Node000003"><a xlink:title=" ">
<path fill="none" stroke="#63b8ff" d="M46.68,-195.14C52.08,-222.9 71.79,-303.22 124,-337.5 177.96,-372.93 254.19,-371.84 306.27,-365.38"/>
<polygon fill="#63b8ff" stroke="#63b8ff" points="306.91,-368.82 316.35,-364.02 305.97,-361.89 306.91,-368.82"/>
</a>
</g>
</g>
<!-- Node4 -->
<g id="Node000004" class="node">
<title>Node4</title>
<g id="a_Node000004"><a xlink:href="bouton_8c.html#a11f55905044ef2518b8c38311df3c48d" target="_top" xlink:title="Dessine la texture du bouton dans son rectangle d&#39;affichage.">
<polygon fill="white" stroke="#666666" points="412.5,-290 318.5,-290 318.5,-271 412.5,-271 412.5,-290"/>
<text text-anchor="middle" x="365.5" y="-278" font-family="Helvetica,sans-Serif" font-size="10.00">Bouton_Afficher</text>
</a>
</g>
</g>
<!-- Node1&#45;&gt;Node4 -->
<g id="edge12_Node000001_Node000004" class="edge">
<title>Node1&#45;&gt;Node4</title>
<g id="a_edge12_Node000001_Node000004"><a xlink:title=" ">
<path fill="none" stroke="#63b8ff" d="M56.8,-195.02C71.6,-206.45 98.17,-225.34 124,-235.5 184.34,-259.23 258.23,-270.66 308.06,-276.02"/>
<polygon fill="#63b8ff" stroke="#63b8ff" points="308,-279.53 318.31,-277.07 308.72,-272.57 308,-279.53"/>
</a>
</g>
</g>
<!-- Node5 -->
<g id="Node000005" class="node">
<title>Node5</title>
<g id="a_Node000005"><a xlink:href="bouton_8c.html#ab4862740c43f8a9abb996fff0aba5ca1" target="_top" xlink:title="Met a jour l&#39;etat du bouton a partir d&#39;un evenement SDL.">
<polygon fill="white" stroke="#666666" points="435,-253 296,-253 296,-234 435,-234 435,-253"/>
<text text-anchor="middle" x="365.5" y="-241" font-family="Helvetica,sans-Serif" font-size="10.00">Bouton_GererEvenement</text>
</a>
</g>
</g>
<!-- Node1&#45;&gt;Node5 -->
<g id="edge13_Node000001_Node000005" class="edge">
<title>Node1&#45;&gt;Node5</title>
<g id="a_edge13_Node000001_Node000005"><a xlink:title=" ">
<path fill="none" stroke="#63b8ff" d="M72.51,-195C87.57,-199.91 106.65,-205.66 124,-209.5 177.41,-221.32 238.45,-229.89 285.67,-235.47"/>
<polygon fill="#63b8ff" stroke="#63b8ff" points="285.5,-238.97 295.84,-236.65 286.31,-232.02 285.5,-238.97"/>
</a>
</g>
</g>
<!-- Node7 -->
<g id="Node000007" class="node">
<title>Node7</title>
<g id="a_Node000007"><a xlink:href="bouton_8c.html#a482b1feb9004901d0544e64b1c44051c" target="_top" xlink:title="Initialise un bouton (zone, texture et etat d&#39;interaction).">
<polygon fill="white" stroke="#666666" points="401.5,-216 329.5,-216 329.5,-197 401.5,-197 401.5,-216"/>
<text text-anchor="middle" x="365.5" y="-204" font-family="Helvetica,sans-Serif" font-size="10.00">Bouton_Init</text>
</a>
</g>
</g>
<!-- Node1&#45;&gt;Node7 -->
<g id="edge14_Node000001_Node000007" class="edge">
<title>Node1&#45;&gt;Node7</title>
<g id="a_edge14_Node000001_Node000007"><a xlink:title=" ">
<path fill="none" stroke="#63b8ff" d="M88.09,-188.33C148.47,-192.3 257.74,-199.48 319.26,-203.53"/>
<polygon fill="#63b8ff" stroke="#63b8ff" points="319.23,-207.03 329.44,-204.2 319.69,-200.05 319.23,-207.03"/>
</a>
</g>
</g>
<!-- Node12 -->
<g id="Node000012" class="node">
<title>Node12</title>
<g id="a_Node000012"><a xlink:href="son_8c.html#a034468875b501292a7c8520c6b6a02de" target="_top" xlink:title="Met en pause une piste audio si elle est valide.">
<polygon fill="white" stroke="#666666" points="225,-139 157,-139 157,-120 225,-120 225,-139"/>
<text text-anchor="middle" x="191" y="-127" font-family="Helvetica,sans-Serif" font-size="10.00">pause_son</text>
</a>
</g>
</g>
<!-- Node1&#45;&gt;Node12 -->
<g id="edge15_Node000001_Node000012" class="edge">
<title>Node1&#45;&gt;Node12</title>
<g id="a_edge15_Node000001_Node000012"><a xlink:title=" ">
<path fill="none" stroke="#63b8ff" d="M62.48,-175.95C78.23,-167.63 102.18,-155.64 124,-147.5 131.35,-144.75 139.31,-142.23 147.07,-139.99"/>
<polygon fill="#63b8ff" stroke="#63b8ff" points="148.02,-143.35 156.73,-137.31 146.15,-136.61 148.02,-143.35"/>
</a>
</g>
</g>
<!-- Node13 -->
<g id="Node000013" class="node">
<title>Node13</title>
<g id="a_Node000013"><a xlink:href="son_8c.html#a70ea47d9c00bc921d67e4bea89f0ee4b" target="_top" xlink:title="Reprend une piste si le son global et la categorie associee sont actifs.">
<polygon fill="white" stroke="#666666" points="234,-102 148,-102 148,-83 234,-83 234,-102"/>
<text text-anchor="middle" x="191" y="-90" font-family="Helvetica,sans-Serif" font-size="10.00">reprendre_son</text>
</a>
</g>
</g>
<!-- Node1&#45;&gt;Node13 -->
<g id="edge16_Node000001_Node000013" class="edge">
<title>Node1&#45;&gt;Node13</title>
<g id="a_edge16_Node000001_Node000013"><a xlink:title=" ">
<path fill="none" stroke="#63b8ff" d="M52.41,-175.87C65.24,-159.87 93.18,-127.85 124,-110.5 128.48,-107.98 133.33,-105.8 138.29,-103.91"/>
<polygon fill="#63b8ff" stroke="#63b8ff" points="139.59,-107.17 147.93,-100.63 137.33,-100.54 139.59,-107.17"/>
</a>
</g>
</g>
<!-- Node14 -->
<g id="Node000014" class="node">
<title>Node14</title>
<g id="a_Node000014"><a xlink:href="sauvegarde_8c.html#ae251037c85a5a7d8172c206539398f49" target="_top" xlink:title="Affiche l&#39;interface de selection de slot (chargement ou sauvegarde).">
<polygon fill="white" stroke="#666666" points="258,-328 124,-328 124,-309 258,-309 258,-328"/>
<text text-anchor="middle" x="191" y="-316" font-family="Helvetica,sans-Serif" font-size="10.00">sauvegarde_choisir_slot</text>
</a>
</g>
</g>
<!-- Node1&#45;&gt;Node14 -->
<g id="edge17_Node000001_Node000014" class="edge">
<title>Node1&#45;&gt;Node14</title>
<g id="a_edge17_Node000001_Node000014"><a xlink:title=" ">
<path fill="none" stroke="#63b8ff" d="M49.48,-195.14C59.73,-216.16 86.87,-266.49 124,-294.5 129.49,-298.64 135.77,-302.13 142.22,-305.04"/>
<polygon fill="#63b8ff" stroke="#63b8ff" points="141.15,-308.38 151.73,-308.91 143.79,-301.9 141.15,-308.38"/>
</a>
</g>
</g>
<!-- Node17 -->
<g id="Node000017" class="node">
<title>Node17</title>
<g id="a_Node000017"><a xlink:href="sauvegarde_8c.html#af41024137aa5cec5baf4cef86ae63bd8" target="_top" xlink:title="Serialize l&#39;etat de partie courant dans le slot cible.">
<polygon fill="white" stroke="#666666" points="258,-65 124,-65 124,-46 258,-46 258,-65"/>
<text text-anchor="middle" x="191" y="-53" font-family="Helvetica,sans-Serif" font-size="10.00">sauvegarder_partie_slot</text>
</a>
</g>
</g>
<!-- Node1&#45;&gt;Node17 -->
<g id="edge24_Node000001_Node000017" class="edge">
<title>Node1&#45;&gt;Node17</title>
<g id="a_edge24_Node000001_Node000017"><a xlink:title=" ">
<path fill="none" stroke="#63b8ff" d="M49.09,-175.69C58.73,-153.81 85.03,-100.82 124,-73.5 126.13,-72.01 128.37,-70.64 130.7,-69.39"/>
<polygon fill="#63b8ff" stroke="#63b8ff" points="132.4,-72.46 140.02,-65.09 129.47,-66.1 132.4,-72.46"/>
</a>
</g>
</g>
<!-- Node19 -->
<g id="Node000019" class="node">
<title>Node19</title>
<g id="a_Node000019"><a xlink:href="son_8c.html#a1a3616f7218893fdf54329eac9298f6b" target="_top" xlink:title="Indique si l&#39;audio global du jeu est active.">
<polygon fill="white" stroke="#666666" points="231.5,-28 150.5,-28 150.5,-9 231.5,-9 231.5,-28"/>
<text text-anchor="middle" x="191" y="-16" font-family="Helvetica,sans-Serif" font-size="10.00">son_est_actif</text>
</a>
</g>
</g>
<!-- Node1&#45;&gt;Node19 -->
<g id="edge26_Node000001_Node000019" class="edge">
<title>Node1&#45;&gt;Node19</title>
<g id="a_edge26_Node000001_Node000019"><a xlink:title=" ">
<path fill="none" stroke="#63b8ff" d="M47.28,-175.76C54.01,-149.13 76.45,-74.55 124,-36.5 128.93,-32.56 134.66,-29.47 140.64,-27.07"/>
<polygon fill="#63b8ff" stroke="#63b8ff" points="141.84,-30.35 150.17,-23.81 139.58,-23.73 141.84,-30.35"/>
</a>
</g>
</g>
<!-- Node2&#45;&gt;Node3 -->
<g id="edge2_Node000002_Node000003" class="edge">
<title>Node2&#45;&gt;Node3</title>
<g id="a_edge2_Node000002_Node000003"><a xlink:title=" ">
<path fill="none" stroke="#63b8ff" d="M196.51,-176.03C212.07,-208.54 264.19,-314.3 294,-336.5 295.85,-337.88 297.8,-339.15 299.82,-340.33"/>
<polygon fill="#63b8ff" stroke="#63b8ff" points="298.54,-343.6 309.06,-344.89 301.64,-337.33 298.54,-343.6"/>
</a>
</g>
</g>
<!-- Node2&#45;&gt;Node4 -->
<g id="edge3_Node000002_Node000004" class="edge">
<title>Node2&#45;&gt;Node4</title>
<g id="a_edge3_Node000002_Node000004"><a xlink:title=" ">
<path fill="none" stroke="#63b8ff" d="M199.3,-176.07C214.63,-195.47 252.23,-239.54 294,-262.5 298.59,-265.02 303.54,-267.2 308.61,-269.08"/>
<polygon fill="#63b8ff" stroke="#63b8ff" points="307.87,-272.52 318.46,-272.33 310.06,-265.87 307.87,-272.52"/>
</a>
</g>
</g>
<!-- Node2&#45;&gt;Node5 -->
<g id="edge4_Node000002_Node000005" class="edge">
<title>Node2&#45;&gt;Node5</title>
<g id="a_edge4_Node000002_Node000005"><a xlink:title=" ">
<path fill="none" stroke="#63b8ff" d="M206.27,-176.17C225.47,-188.82 261.03,-210.94 294,-224.5 299.85,-226.9 306.09,-229.09 312.36,-231.06"/>
<polygon fill="#63b8ff" stroke="#63b8ff" points="311.58,-234.48 322.17,-233.96 313.57,-227.77 311.58,-234.48"/>
</a>
</g>
</g>
<!-- Node2&#45;&gt;Node7 -->
<g id="edge6_Node000002_Node000007" class="edge">
<title>Node2&#45;&gt;Node7</title>
<g id="a_edge6_Node000002_Node000007"><a xlink:title=" ">
<path fill="none" stroke="#63b8ff" d="M233.32,-176.08C259.3,-182.11 292.84,-189.88 319.49,-196.06"/>
<polygon fill="#63b8ff" stroke="#63b8ff" points="318.81,-199.5 329.34,-198.35 320.39,-192.68 318.81,-199.5"/>
</a>
</g>
</g>
<!-- Node8 -->
<g id="Node000008" class="node">
<title>Node8</title>
<g id="a_Node000008"><a xlink:href="son_8c.html#ac32eff9d3cca9f4d196044b77e8be773" target="_top" xlink:title="Indique si la categorie ambiance/musique est active.">
<polygon fill="white" stroke="#666666" points="437,-142 294,-142 294,-123 437,-123 437,-142"/>
<text text-anchor="middle" x="365.5" y="-130" font-family="Helvetica,sans-Serif" font-size="10.00">son_ambiance_est_active</text>
</a>
</g>
</g>
<!-- Node2&#45;&gt;Node8 -->
<g id="edge7_Node000002_Node000008" class="edge">
<title>Node2&#45;&gt;Node8</title>
<g id="a_edge7_Node000002_Node000008"><a xlink:title=" ">
<path fill="none" stroke="#63b8ff" d="M235.53,-157.92C256.92,-153.7 282.99,-148.57 306.09,-144.01"/>
<polygon fill="#63b8ff" stroke="#63b8ff" points="306.98,-147.4 316.12,-142.04 305.63,-140.54 306.98,-147.4"/>
</a>
</g>
</g>
<!-- Node9 -->
<g id="Node000009" class="node">
<title>Node9</title>
<g id="a_Node000009"><a xlink:href="son_8c.html#a8a52d99b75360359dcdc073a5617eadf" target="_top" xlink:title="Active ou desactive uniquement les pistes d&#39;ambiance.">
<polygon fill="white" stroke="#666666" points="427,-104.5 304,-104.5 304,-74.5 427,-74.5 427,-104.5"/>
<text text-anchor="start" x="312" y="-92.5" font-family="Helvetica,sans-Serif" font-size="10.00">son_definir_ambiance</text>
<text text-anchor="middle" x="365.5" y="-81.5" font-family="Helvetica,sans-Serif" font-size="10.00">_active</text>
</a>
</g>
</g>
<!-- Node2&#45;&gt;Node9 -->
<g id="edge8_Node000002_Node000009" class="edge">
<title>Node2&#45;&gt;Node9</title>
<g id="a_edge8_Node000002_Node000009"><a xlink:title=" ">
<path fill="none" stroke="#63b8ff" d="M235.81,-157.08C243.47,-154.55 251.16,-151.4 258,-147.5 277.11,-136.59 275.15,-124.86 294,-113.5 296.77,-111.83 299.67,-110.26 302.65,-108.78"/>
<polygon fill="#63b8ff" stroke="#63b8ff" points="304.12,-111.96 311.77,-104.63 301.22,-105.59 304.12,-111.96"/>
</a>
</g>
</g>
<!-- Node10 -->
<g id="Node000010" class="node">
<title>Node10</title>
<g id="a_Node000010"><a xlink:href="son_8c.html#af5a69f840820938ab962a3371bd3f929" target="_top" xlink:title="Active ou desactive uniquement les effets sonores (SFX).">
<polygon fill="white" stroke="#666666" points="428,-56 303,-56 303,-37 428,-37 428,-56"/>
<text text-anchor="middle" x="365.5" y="-44" font-family="Helvetica,sans-Serif" font-size="10.00">son_definir_sfx_active</text>
</a>
</g>
</g>
<!-- Node2&#45;&gt;Node10 -->
<g id="edge9_Node000002_Node000010" class="edge">
<title>Node2&#45;&gt;Node10</title>
<g id="a_edge9_Node000002_Node000010"><a xlink:title=" ">
<path fill="none" stroke="#63b8ff" d="M235.6,-159.81C243.71,-157.02 251.63,-153.07 258,-147.5 287.96,-121.29 263.82,-91.45 294,-65.5 295.98,-63.8 298.09,-62.25 300.31,-60.84"/>
<polygon fill="#63b8ff" stroke="#63b8ff" points="302.11,-63.84 309.29,-56.05 298.82,-57.67 302.11,-63.84"/>
</a>
</g>
</g>
<!-- Node11 -->
<g id="Node000011" class="node">
<title>Node11</title>
<g id="a_Node000011"><a xlink:href="son_8c.html#ae2e2d99b70e1f3a05cb7120d267202f4" target="_top" xlink:title="Indique si la categorie SFX est active.">
<polygon fill="white" stroke="#666666" points="416,-179 315,-179 315,-160 416,-160 416,-179"/>
<text text-anchor="middle" x="365.5" y="-167" font-family="Helvetica,sans-Serif" font-size="10.00">son_sfx_est_actif</text>
</a>
</g>
</g>
<!-- Node2&#45;&gt;Node11 -->
<g id="edge10_Node000002_Node000011" class="edge">
<title>Node2&#45;&gt;Node11</title>
<g id="a_edge10_Node000002_Node000011"><a xlink:title=" ">
<path fill="none" stroke="#63b8ff" d="M235.53,-167.26C256.47,-167.62 281.92,-168.06 304.65,-168.46"/>
<polygon fill="#63b8ff" stroke="#63b8ff" points="304.82,-171.96 314.88,-168.64 304.94,-164.96 304.82,-171.96"/>
</a>
</g>
</g>
<!-- Node6 -->
<g id="Node000006" class="node">
<title>Node6</title>
<g id="a_Node000006"><a xlink:href="bouton_8c.html#a273a0b22067678e17b3e6b4be36e3641" target="_top" xlink:title=" ">
<polygon fill="white" stroke="#666666" points="561,-253 473,-253 473,-234 561,-234 561,-253"/>
<text text-anchor="middle" x="517" y="-241" font-family="Helvetica,sans-Serif" font-size="10.00">pointDansRect</text>
</a>
</g>
</g>
<!-- Node5&#45;&gt;Node6 -->
<g id="edge5_Node000005_Node000006" class="edge">
<title>Node5&#45;&gt;Node6</title>
<g id="a_edge5_Node000005_Node000006"><a xlink:title=" ">
<path fill="none" stroke="#63b8ff" d="M435.12,-243.5C444.39,-243.5 453.79,-243.5 462.73,-243.5"/>
<polygon fill="#63b8ff" stroke="#63b8ff" points="463,-247 473,-243.5 463,-240 463,-247"/>
</a>
</g>
</g>
<!-- Node14&#45;&gt;Node3 -->
<g id="edge18_Node000014_Node000003" class="edge">
<title>Node14&#45;&gt;Node3</title>
<g id="a_edge18_Node000014_Node000003"><a xlink:title=" ">
<path fill="none" stroke="#63b8ff" d="M237.77,-328.05C259.6,-332.61 285.89,-338.09 308.86,-342.89"/>
<polygon fill="#63b8ff" stroke="#63b8ff" points="308.31,-346.35 318.81,-344.97 309.74,-339.5 308.31,-346.35"/>
</a>
</g>
</g>
<!-- Node14&#45;&gt;Node4 -->
<g id="edge19_Node000014_Node000004" class="edge">
<title>Node14&#45;&gt;Node4</title>
<g id="a_edge19_Node000014_Node000004"><a xlink:title=" ">
<path fill="none" stroke="#63b8ff" d="M235.53,-308.91C258.6,-303.83 287.13,-297.54 311.48,-292.18"/>
<polygon fill="#63b8ff" stroke="#63b8ff" points="312.27,-295.59 321.28,-290.02 310.77,-288.75 312.27,-295.59"/>
</a>
</g>
</g>
<!-- Node14&#45;&gt;Node5 -->
<g id="edge20_Node000014_Node000005" class="edge">
<title>Node14&#45;&gt;Node5</title>
<g id="a_edge20_Node000014_Node000005"><a xlink:title=" ">
<path fill="none" stroke="#63b8ff" d="M206.65,-308.98C225.99,-296.78 261.39,-275.63 294,-262.5 299.94,-260.11 306.29,-257.92 312.64,-255.95"/>
<polygon fill="#63b8ff" stroke="#63b8ff" points="313.97,-259.21 322.58,-253.03 312,-252.49 313.97,-259.21"/>
</a>
</g>
</g>
<!-- Node14&#45;&gt;Node7 -->
<g id="edge21_Node000014_Node000007" class="edge">
<title>Node14&#45;&gt;Node7</title>
<g id="a_edge21_Node000014_Node000007"><a xlink:title=" ">
<path fill="none" stroke="#63b8ff" d="M199.58,-308.85C215.15,-289.72 252.73,-246.9 294,-224.5 301.82,-220.25 310.68,-216.98 319.42,-214.47"/>
<polygon fill="#63b8ff" stroke="#63b8ff" points="320.36,-217.84 329.16,-211.94 318.6,-211.06 320.36,-217.84"/>
</a>
</g>
</g>
<!-- Node15 -->
<g id="Node000015" class="node">
<title>Node15</title>
<g id="a_Node000015"><a xlink:href="sauvegarde_8c.html#a590205a1d58df634530e608349c8dc6f" target="_top" xlink:title="Verifie si un fichier de sauvegarde existe pour un slot donne.">
<polygon fill="white" stroke="#666666" points="431.5,-327 299.5,-327 299.5,-308 431.5,-308 431.5,-327"/>
<text text-anchor="middle" x="365.5" y="-315" font-family="Helvetica,sans-Serif" font-size="10.00">sauvegarde_slot_existe</text>
</a>
</g>
</g>
<!-- Node14&#45;&gt;Node15 -->
<g id="edge22_Node000014_Node000015" class="edge">
<title>Node14&#45;&gt;Node15</title>
<g id="a_edge22_Node000014_Node000015"><a xlink:title=" ">
<path fill="none" stroke="#63b8ff" d="M258.2,-318.12C268.32,-318.06 278.83,-318 289.13,-317.94"/>
<polygon fill="#63b8ff" stroke="#63b8ff" points="289.35,-321.44 299.33,-317.88 289.31,-314.44 289.35,-321.44"/>
</a>
</g>
</g>
<!-- Node16 -->
<g id="Node000016" class="node">
<title>Node16</title>
<g id="a_Node000016"><a xlink:href="main_8c.html#a82958224f33fa21d40f4f7965f8396bc" target="_top" xlink:title="Met a jour screen metrics en fonction de l&#39;etat courant du jeu.">
<polygon fill="white" stroke="#666666" points="430.5,-401 300.5,-401 300.5,-382 430.5,-382 430.5,-401"/>
<text text-anchor="middle" x="365.5" y="-389" font-family="Helvetica,sans-Serif" font-size="10.00">update_screen_metrics</text>
</a>
</g>
</g>
<!-- Node14&#45;&gt;Node16 -->
<g id="edge23_Node000014_Node000016" class="edge">
<title>Node14&#45;&gt;Node16</title>
<g id="a_edge23_Node000014_Node000016"><a xlink:title=" ">
<path fill="none" stroke="#63b8ff" d="M206.99,-328.1C226.4,-340.17 261.58,-360.84 294,-373.5 299.22,-375.54 304.75,-377.41 310.33,-379.11"/>
<polygon fill="#63b8ff" stroke="#63b8ff" points="309.77,-382.6 320.35,-382 311.71,-375.87 309.77,-382.6"/>
</a>
</g>
</g>
<!-- Node18 -->
<g id="Node000018" class="node">
<title>Node18</title>
<g id="a_Node000018"><a xlink:href="jeux_8c.html#affe4ed140aa40ab1adbec1328824838e" target="_top" xlink:title="Recupere l&#39;etat de progression global du gameplay.">
<polygon fill="white" stroke="#666666" points="423,-19 308,-19 308,0 423,0 423,-19"/>
<text text-anchor="middle" x="365.5" y="-7" font-family="Helvetica,sans-Serif" font-size="10.00">jeu_get_progression</text>
</a>
</g>
</g>
<!-- Node17&#45;&gt;Node18 -->
<g id="edge25_Node000017_Node000018" class="edge">
<title>Node17&#45;&gt;Node18</title>
<g id="a_edge25_Node000017_Node000018"><a xlink:title=" ">
<path fill="none" stroke="#63b8ff" d="M226.42,-45.88C246.18,-40.41 271.46,-33.47 294,-27.5 301.3,-25.57 309.04,-23.55 316.61,-21.6"/>
<polygon fill="#63b8ff" stroke="#63b8ff" points="317.6,-24.96 326.42,-19.09 315.86,-18.18 317.6,-24.96"/>
</a>
</g>
</g>
</g>
</svg>

<g id="navigator" transform="translate(0 0)" fill="#404254">
  <rect fill="#f2f5e9" fill-opacity="0.5" stroke="#606060" stroke-width=".5" x="0" y="0" width="60" height="60"/>
  <use id="zoomplus" xlink:href="#zoomPlus" x="17" y="9" onmousedown="handleZoom(evt,'in')"/>
  <use id="zoomminus" xlink:href="#zoomMin" x="42" y="9" onmousedown="handleZoom(evt,'out')"/>
  <use id="reset" xlink:href="#resetDef" x="30" y="36" onmousedown="handleReset()"/>
   <use id="arrowup" xlink:href="#arrowUp" x="0" y="0" onmousedown="handlePan(0,-1)"/>
  <use id="arrowright" xlink:href="#arrowRight" x="0" y="0" onmousedown="handlePan(1,0)"/>
  <use id="arrowdown" xlink:href="#arrowDown" x="0" y="0" onmousedown="handlePan(0,1)"/>
  <use id="arrowleft" xlink:href="#arrowLeft" x="0" y="0" onmousedown="handlePan(-1,0)"/>
</g>
<svg viewBox="0 0 15 15" width="100%" height="30px" preserveAspectRatio="xMaxYMin meet">
 <g id="arrow_out" transform="scale(0.3 0.3)">
  <a xlink:href="pause_8h_abc45a9e3a6a57d6f0f44706bd52e556d_cgraph_org.svg" target="_base">
   <rect id="button" ry="5" rx="5" y="6" x="6" height="38" width="38"
        fill="#f2f5e9" fill-opacity="0.5" stroke="#606060" stroke-width="1.0"/>
   <path id="arrow"
     d="M 11.500037,31.436501 C 11.940474,20.09759 22.043105,11.32322 32.158766,21.979434 L 37.068811,17.246167 C 37.068811,17.246167 37.088388,32 37.088388,32 L 22.160133,31.978069 C 22.160133,31.978069 26.997745,27.140456 26.997745,27.140456 C 18.528582,18.264221 13.291696,25.230495 11.500037,31.436501 z"
     style="fill:#404040;"/>
  </a>
 </g>
</svg>

<style type='text/css'>
<![CDATA[
[data-mouse-over-selected='false'] { opacity: 0.7; }
[data-mouse-over-selected='true']  { opacity: 1.0; }
]]>
</style>
<script type="application/ecmascript"><![CDATA[
document.addEventListener('DOMContentLoaded', (event) => {
  highlightEdges();
  highlightAdjacentNodes();
});
]]></script>
</svg>
