<?xml version="1.0" encoding="UTF-8" standalone="no"?>
<!DOCTYPE svg PUBLIC "-//W3C//DTD SVG 1.1//EN"
 "http://www.w3.org/Graphics/SVG/1.1/DTD/svg11.dtd">
<!-- Generated by graphviz version 14.1.4 (20260321.0153)
 -->
<!-- Title: afficher_pause Pages: 1 -->
<!--zoomable 724 -->

<svg id="main" version="1.1" xmlns="http://www.w3.org/2000/svg" xmlns:xlink="http://www.w3.org/1999/xlink" xml:space="preserve" onload="init(evt)">

<style type="text/css"><![CDATA[
.node, .edge {opacity: 0.7;}
.node.selected, .edge.selected {opacity: 1;}
.edge:hover path { stroke: red; }
.edge:hover polygon { stroke: red; fill: red; }
]]></style>

<defs>
  <circle id="rim" cx="0" cy="0" r="7"/>
  <circle id="rim2" cx="0" cy="0" r="3.5"/>
  <g id="zoomPlus">
    <use xlink:href="#rim" fill="#404040"><set attributeName="fill" to="#808080" begin="zoomplus.mouseover" end="zoomplus.mouseout"/></use>
    <path d="M-4,0h8M0,-4v8" fill="none" stroke="white" stroke-width="1.5" pointer-events="none"/>
  </g>
  <g id="zoomMin">
    <use xlink:href="#rim" fill="#404040"><set attributeName="fill" to="#808080" begin="zoomminus.mouseover" end="zoomminus.mouseout"/></use>
    <path d="M-4,0h8" fill="none" stroke="white" stroke-width="1.5" pointer-events="none"/>
  </g>
  <g id="arrowUp" transform="translate(30 24)">
    <use xlink:href="#rim"/>
    <path pointer-events="none" fill="none" stroke="white" stroke-width="1.5" d="M0,-3.0v7 M-2.5,-0.5L0,-3.0L2.5,-0.5"/>
  </g>
  <g id="arrowRight" transform="rotate(90) translate(36 -43)">
    <use xlink:href="#rim"/>
    <path pointer-events="none" fill="none" stroke="white" stroke-width="1.5" d="M0,-3.0v7 M-2.5,-0.5L0,-3.0L2.5,-0.5"/>
  </g>
  <g id="arrowDown" transform="rotate(180) translate(-30 -48)">
    <use xlink:href="#rim"/>
    <path pointer-events="none" fill="none" stroke="white" stroke-width="1.5" d="M0,-3.0v7 M-2.5,-0.5L0,-3.0L2.5,-0.5"/>
  </g>
  <g id="arrowLeft" transform="rotate(270) translate(-36 17)">
    <use xlink:href="#rim"/>
    <path pointer-events="none" fill="none" stroke="white" stroke-width="1.5" d="M0,-3.0v7 M-2.5,-0.5L0,-3.0L2.5,-0.5"/>
  </g>
  <g id="resetDef">
    <use xlink:href="#rim2" fill="#404040"><set attributeName="fill" to="#808080" begin="reset.mouseover" end="reset.mouseout"/></use>
  </g>
</defs>
<script type="application/ecmascript">
var viewWidth = 527;
var viewHeight = 724;
var sectionId = 'dynsection-1';
</script>
<script type="application/ecmascript" xlink:href="svg.min.js"/>
<svg id="graph" class="graph">
<g id="viewport">
<title>afficher_pause</title>
<!-- Node1 -->
<g id="Node000001" class="node">
<title>Node1</title>
<g id="a_Node000001"><a xlink:title="Affiche pause et met a jour les elements visuels associes.">
<polygon fill="#999999" stroke="#666666" points="79,-248 0,-248 0,-228 79,-228 79,-248"/>
<text xml:space="preserve" text-anchor="middle" x="39.5" y="-234.5" font-family="Helvetica,sans-Serif" font-size="10.00">afficher_pause</text>
</a>
</g>
</g>
<!-- Node2 -->
<g id="Node000002" class="node">
<title>Node2</title>
<g id="a_Node000002"><a xlink:href="option_8c.html#ac77b6b0f042469d82d75b270f5193806" target="_top" xlink:title="Affiche option et met a jour les elements visuels associes.">
<polygon fill="white" stroke="#666666" points="215,-552 136,-552 136,-532 215,-532 215,-552"/>
<text xml:space="preserve" text-anchor="middle" x="175.5" y="-538.5" font-family="Helvetica,sans-Serif" font-size="10.00">afficher_option</text>
</a>
</g>
</g>
<!-- Node1&#45;&gt;Node2 -->
<g id="edge1_Node000001_Node000002" class="edge">
<title>Node1&#45;&gt;Node2</title>
<g id="a_edge1_Node000001_Node000002"><a xlink:title=" ">
<path fill="none" stroke="#63b8ff" d="M40.15,-248.41C39.38,-288.56 41.89,-435.26 115,-518 118.03,-521.42 121.61,-524.37 125.49,-526.89"/>
<polygon fill="#63b8ff" stroke="#63b8ff" points="123.83,-529.97 134.29,-531.64 127.15,-523.81 123.83,-529.97"/>
</a>
</g>
</g>
<!-- Node3 -->
<g id="Node000003" class="node">
<title>Node3</title>
<g id="a_Node000003"><a xlink:href="bouton_8c.html#af33c1c08b52d3d015ff6f7039a9734ee" target="_top" xlink:title="Affiche texte centre et met a jour les elements visuels associes.">
<polygon fill="white" stroke="#666666" points="390,-552 283.25,-552 283.25,-532 390,-532 390,-552"/>
<text xml:space="preserve" text-anchor="middle" x="336.62" y="-538.5" font-family="Helvetica,sans-Serif" font-size="10.00">afficher_texte_centre</text>
</a>
</g>
</g>
<!-- Node1&#45;&gt;Node3 -->
<g id="edge11_Node000001_Node000003" class="edge">
<title>Node1&#45;&gt;Node3</title>
<g id="a_edge11_Node000001_Node000003"><a xlink:title=" ">
<path fill="none" stroke="#63b8ff" d="M40.53,-248.24C41.23,-284.63 48.56,-409.08 115,-475 137.24,-497.07 214.8,-517.21 271.69,-529.52"/>
<polygon fill="#63b8ff" stroke="#63b8ff" points="270.78,-532.9 281.29,-531.56 272.24,-526.05 270.78,-532.9"/>
</a>
</g>
</g>
<!-- Node4 -->
<g id="Node000004" class="node">
<title>Node4</title>
<g id="a_Node000004"><a xlink:href="bouton_8c.html#a11f55905044ef2518b8c38311df3c48d" target="_top" xlink:title="Dessine la texture du bouton dans son rectangle d&#39;affichage.">
<polygon fill="white" stroke="#666666" points="379.12,-514 294.12,-514 294.12,-494 379.12,-494 379.12,-514"/>
<text xml:space="preserve" text-anchor="middle" x="336.62" y="-500.5" font-family="Helvetica,sans-Serif" font-size="10.00">Bouton_Afficher</text>
</a>
</g>
</g>
<!-- Node1&#45;&gt;Node4 -->
<g id="edge12_Node000001_Node000004" class="edge">
<title>Node1&#45;&gt;Node4</title>
<g id="a_edge12_Node000001_Node000004"><a xlink:title=" ">
<path fill="none" stroke="#63b8ff" d="M41.16,-248.07C43.84,-280.71 56.79,-384.64 115,-439 139.35,-461.74 225.7,-482.45 282.88,-494.12"/>
<polygon fill="#63b8ff" stroke="#63b8ff" points="281.92,-497.5 292.41,-496.03 283.29,-490.63 281.92,-497.5"/>
</a>
</g>
</g>
<!-- Node5 -->
<g id="Node000005" class="node">
<title>Node5</title>
<g id="a_Node000005"><a xlink:href="bouton_8c.html#ab4862740c43f8a9abb996fff0aba5ca1" target="_top" xlink:title="Met a jour l&#39;etat du bouton a partir d&#39;un evenement SDL.">
<polygon fill="white" stroke="#666666" points="399.38,-476 273.88,-476 273.88,-456 399.38,-456 399.38,-476"/>
<text xml:space="preserve" text-anchor="middle" x="336.62" y="-462.5" font-family="Helvetica,sans-Serif" font-size="10.00">Bouton_GererEvenement</text>
</a>
</g>
</g>
<!-- Node1&#45;&gt;Node5 -->
<g id="edge13_Node000001_Node000005" class="edge">
<title>Node1&#45;&gt;Node5</title>
<g id="a_edge13_Node000001_Node000005"><a xlink:title=" ">
<path fill="none" stroke="#63b8ff" d="M42.05,-248.37C46.98,-277.53 65,-360.89 115,-404 137.8,-423.66 210.74,-441.74 266.57,-453.24"/>
<polygon fill="#63b8ff" stroke="#63b8ff" points="265.86,-456.67 276.36,-455.22 267.25,-449.81 265.86,-456.67"/>
</a>
</g>
</g>
<!-- Node7 -->
<g id="Node000007" class="node">
<title>Node7</title>
<g id="a_Node000007"><a xlink:href="bouton_8c.html#a482b1feb9004901d0544e64b1c44051c" target="_top" xlink:title="Initialise un bouton (zone, texture et etat d&#39;interaction).">
<polygon fill="white" stroke="#666666" points="369.38,-438 303.88,-438 303.88,-418 369.38,-418 369.38,-438"/>
<text xml:space="preserve" text-anchor="middle" x="336.62" y="-424.5" font-family="Helvetica,sans-Serif" font-size="10.00">Bouton_Init</text>
</a>
</g>
</g>
<!-- Node1&#45;&gt;Node7 -->
<g id="edge14_Node000001_Node000007" class="edge">
<title>Node1&#45;&gt;Node7</title>
<g id="a_edge14_Node000001_Node000007"><a xlink:title=" ">
<path fill="none" stroke="#63b8ff" d="M43.18,-248.15C50.32,-273.16 72.23,-338.05 115,-371 142.56,-392.23 236.39,-411.2 292.42,-420.99"/>
<polygon fill="#63b8ff" stroke="#63b8ff" points="291.49,-424.38 301.94,-422.62 292.68,-417.48 291.49,-424.38"/>
</a>
</g>
</g>
<!-- Node12 -->
<g id="Node000012" class="node">
<title>Node12</title>
<g id="a_Node000012"><a xlink:href="son_8c.html#a034468875b501292a7c8520c6b6a02de" target="_top" xlink:title="Met en pause une piste audio si elle est valide.">
<polygon fill="white" stroke="#666666" points="207.12,-96 143.88,-96 143.88,-76 207.12,-76 207.12,-96"/>
<text xml:space="preserve" text-anchor="middle" x="175.5" y="-82.5" font-family="Helvetica,sans-Serif" font-size="10.00">pause_son</text>
</a>
</g>
</g>
<!-- Node1&#45;&gt;Node12 -->
<g id="edge15_Node000001_Node000012" class="edge">
<title>Node1&#45;&gt;Node12</title>
<g id="a_edge15_Node000001_Node000012"><a xlink:title=" ">
<path fill="none" stroke="#63b8ff" d="M43.41,-227.63C50.92,-202.7 73.38,-138.98 115,-105 120.22,-100.74 126.41,-97.43 132.8,-94.85"/>
<polygon fill="#63b8ff" stroke="#63b8ff" points="133.81,-98.21 142.15,-91.67 131.56,-91.58 133.81,-98.21"/>
</a>
</g>
</g>
<!-- Node13 -->
<g id="Node000013" class="node">
<title>Node13</title>
<g id="a_Node000013"><a xlink:href="son_8c.html#a70ea47d9c00bc921d67e4bea89f0ee4b" target="_top" xlink:title="Reprend une piste si le son global et la categorie associee sont actifs.">
<polygon fill="white" stroke="#666666" points="214.25,-58 136.75,-58 136.75,-38 214.25,-38 214.25,-58"/>
<text xml:space="preserve" text-anchor="middle" x="175.5" y="-44.5" font-family="Helvetica,sans-Serif" font-size="10.00">reprendre_son</text>
</a>
</g>
</g>
<!-- Node1&#45;&gt;Node13 -->
<g id="edge16_Node000001_Node000013" class="edge">
<title>Node1&#45;&gt;Node13</title>
<g id="a_edge16_Node000001_Node000013"><a xlink:title=" ">
<path fill="none" stroke="#63b8ff" d="M41.96,-227.84C46.73,-198.45 64.53,-112.58 115,-67 118.3,-64.02 122.07,-61.51 126.08,-59.39"/>
<polygon fill="#63b8ff" stroke="#63b8ff" points="127.23,-62.7 134.99,-55.49 124.43,-56.29 127.23,-62.7"/>
</a>
</g>
</g>
<!-- Node14 -->
<g id="Node000014" class="node">
<title>Node14</title>
<g id="a_Node000014"><a xlink:href="sauvegarde_8c.html#ae251037c85a5a7d8172c206539398f49" target="_top" xlink:title="Affiche l&#39;interface de selection de slot (chargement ou sauvegarde).">
<polygon fill="white" stroke="#666666" points="236,-362 115,-362 115,-342 236,-342 236,-362"/>
<text xml:space="preserve" text-anchor="middle" x="175.5" y="-348.5" font-family="Helvetica,sans-Serif" font-size="10.00">sauvegarde_choisir_slot</text>
</a>
</g>
</g>
<!-- Node1&#45;&gt;Node14 -->
<g id="edge17_Node000001_Node000014" class="edge">
<title>Node1&#45;&gt;Node14</title>
<g id="a_edge17_Node000001_Node000014"><a xlink:title=" ">
<path fill="none" stroke="#63b8ff" d="M52.39,-248.12C75.18,-267.5 125.26,-310.11 153.7,-334.3"/>
<polygon fill="#63b8ff" stroke="#63b8ff" points="151.41,-336.95 161.29,-340.76 155.94,-331.62 151.41,-336.95"/>
</a>
</g>
</g>
<!-- Node18 -->
<g id="Node000018" class="node">
<title>Node18</title>
<g id="a_Node000018"><a xlink:href="main_8h.html#a6c672075bc554c92548a916c9501bdb5" target="_top" xlink:title=" ">
<polygon fill="white" stroke="#666666" points="380.62,-210 292.62,-210 292.62,-190 380.62,-190 380.62,-210"/>
<text xml:space="preserve" text-anchor="middle" x="336.62" y="-196.5" font-family="Helvetica,sans-Serif" font-size="10.00">screen_center_x</text>
</a>
</g>
</g>
<!-- Node1&#45;&gt;Node18 -->
<g id="edge33_Node000001_Node000018" class="edge">
<title>Node1&#45;&gt;Node18</title>
<g id="a_edge33_Node000001_Node000018"><a xlink:title=" ">
<path fill="none" stroke="#63b8ff" d="M79.46,-230.09C90.88,-227.93 103.41,-225.72 115,-224 171.45,-215.64 236.43,-208.92 281.17,-204.74"/>
<polygon fill="#63b8ff" stroke="#63b8ff" points="281.23,-208.25 290.87,-203.85 280.59,-201.28 281.23,-208.25"/>
</a>
</g>
</g>
<!-- Node19 -->
<g id="Node000019" class="node">
<title>Node19</title>
<g id="a_Node000019"><a xlink:href="main_8h.html#aaaa1e9fcb86ff8e60b297faa7815ad1d" target="_top" xlink:title=" ">
<polygon fill="white" stroke="#666666" points="516.25,-191 439.5,-191 439.5,-171 516.25,-171 516.25,-191"/>
<text xml:space="preserve" text-anchor="middle" x="477.88" y="-177.5" font-family="Helvetica,sans-Serif" font-size="10.00">screen_widthf</text>
</a>
</g>
</g>
<!-- Node1&#45;&gt;Node19 -->
<g id="edge35_Node000001_Node000019" class="edge">
<title>Node1&#45;&gt;Node19</title>
<g id="a_edge35_Node000001_Node000019"><a xlink:title=" ">
<path fill="none" stroke="#63b8ff" d="M60.19,-227.55C74.91,-220.17 95.72,-210.63 115,-205 223.34,-173.34 357.4,-174.25 428.03,-177.64"/>
<polygon fill="#63b8ff" stroke="#63b8ff" points="427.54,-181.12 437.71,-178.15 427.91,-174.13 427.54,-181.12"/>
</a>
</g>
</g>
<!-- Node21 -->
<g id="Node000021" class="node">
<title>Node21</title>
<g id="a_Node000021"><a xlink:href="main_8h.html#a9b4aefc63ea00e60ec88da19e24e8236" target="_top" xlink:title=" ">
<polygon fill="white" stroke="#666666" points="517.75,-362 438,-362 438,-342 517.75,-342 517.75,-362"/>
<text xml:space="preserve" text-anchor="middle" x="477.88" y="-348.5" font-family="Helvetica,sans-Serif" font-size="10.00">screen_heightf</text>
</a>
</g>
</g>
<!-- Node1&#45;&gt;Node21 -->
<g id="edge34_Node000001_Node000021" class="edge">
<title>Node1&#45;&gt;Node21</title>
<g id="a_edge34_Node000001_Node000021"><a xlink:title=" ">
<path fill="none" stroke="#63b8ff" d="M79.47,-236.09C160.9,-232.74 346.12,-228.61 401.25,-257 432.51,-273.1 455.15,-308.56 467.12,-331.31"/>
<polygon fill="#63b8ff" stroke="#63b8ff" points="463.98,-332.86 471.59,-340.24 470.24,-329.73 463.98,-332.86"/>
</a>
</g>
</g>
<!-- Node23 -->
<g id="Node000023" class="node">
<title>Node23</title>
<g id="a_Node000023"><a xlink:href="sauvegarde_8c.html#af41024137aa5cec5baf4cef86ae63bd8" target="_top" xlink:title="Serialize l&#39;etat de partie courant dans le slot cible.">
<polygon fill="white" stroke="#666666" points="235.25,-134 115.75,-134 115.75,-114 235.25,-114 235.25,-134"/>
<text xml:space="preserve" text-anchor="middle" x="175.5" y="-120.5" font-family="Helvetica,sans-Serif" font-size="10.00">sauvegarder_partie_slot</text>
</a>
</g>
</g>
<!-- Node1&#45;&gt;Node23 -->
<g id="edge30_Node000001_Node000023" class="edge">
<title>Node1&#45;&gt;Node23</title>
<g id="a_edge30_Node000001_Node000023"><a xlink:title=" ">
<path fill="none" stroke="#63b8ff" d="M46.6,-227.67C57.92,-209.31 83.89,-170.75 115,-148 119.6,-144.63 124.74,-141.66 130.02,-139.04"/>
<polygon fill="#63b8ff" stroke="#63b8ff" points="131.17,-142.37 138.86,-135.08 128.3,-135.98 131.17,-142.37"/>
</a>
</g>
</g>
<!-- Node25 -->
<g id="Node000025" class="node">
<title>Node25</title>
<g id="a_Node000025"><a xlink:href="son_8c.html#a1a3616f7218893fdf54329eac9298f6b" target="_top" xlink:title="Indique si l&#39;audio global du jeu est active.">
<polygon fill="white" stroke="#666666" points="212.75,-20 138.25,-20 138.25,0 212.75,0 212.75,-20"/>
<text xml:space="preserve" text-anchor="middle" x="175.5" y="-6.5" font-family="Helvetica,sans-Serif" font-size="10.00">son_est_actif</text>
</a>
</g>
</g>
<!-- Node1&#45;&gt;Node25 -->
<g id="edge36_Node000001_Node000025" class="edge">
<title>Node1&#45;&gt;Node25</title>
<g id="a_edge36_Node000001_Node000025"><a xlink:title=" ">
<path fill="none" stroke="#63b8ff" d="M41.07,-227.6C43.5,-193.85 55.75,-86.31 115,-29 118.65,-25.47 122.96,-22.6 127.55,-20.25"/>
<polygon fill="#63b8ff" stroke="#63b8ff" points="128.66,-23.59 136.55,-16.52 125.98,-17.12 128.66,-23.59"/>
</a>
</g>
</g>
<!-- Node2&#45;&gt;Node3 -->
<g id="edge2_Node000002_Node000003" class="edge">
<title>Node2&#45;&gt;Node3</title>
<g id="a_edge2_Node000002_Node000003"><a xlink:title=" ">
<path fill="none" stroke="#63b8ff" d="M215.43,-542C232.34,-542 252.61,-542 271.65,-542"/>
<polygon fill="#63b8ff" stroke="#63b8ff" points="271.47,-545.5 281.47,-542 271.47,-538.5 271.47,-545.5"/>
</a>
</g>
</g>
<!-- Node2&#45;&gt;Node4 -->
<g id="edge3_Node000002_Node000004" class="edge">
<title>Node2&#45;&gt;Node4</title>
<g id="a_edge3_Node000002_Node000004"><a xlink:title=" ">
<path fill="none" stroke="#63b8ff" d="M215.43,-532.7C235.64,-527.88 260.64,-521.91 282.59,-516.66"/>
<polygon fill="#63b8ff" stroke="#63b8ff" points="283.37,-520.08 292.28,-514.35 281.75,-513.27 283.37,-520.08"/>
</a>
</g>
</g>
<!-- Node2&#45;&gt;Node5 -->
<g id="edge4_Node000002_Node000005" class="edge">
<title>Node2&#45;&gt;Node5</title>
<g id="a_edge4_Node000002_Node000005"><a xlink:title=" ">
<path fill="none" stroke="#63b8ff" d="M191.1,-531.72C209.32,-519.26 241.77,-498.29 272,-485 275.98,-483.25 280.17,-481.6 284.42,-480.07"/>
<polygon fill="#63b8ff" stroke="#63b8ff" points="285.25,-483.48 293.6,-476.96 283,-476.85 285.25,-483.48"/>
</a>
</g>
</g>
<!-- Node2&#45;&gt;Node7 -->
<g id="edge6_Node000002_Node000007" class="edge">
<title>Node2&#45;&gt;Node7</title>
<g id="a_edge6_Node000002_Node000007"><a xlink:title=" ">
<path fill="none" stroke="#63b8ff" d="M183.96,-531.76C198.63,-512.35 233.21,-470.07 272,-447 278.38,-443.2 285.58,-440.12 292.78,-437.62"/>
<polygon fill="#63b8ff" stroke="#63b8ff" points="293.64,-441.02 302.16,-434.72 291.57,-434.33 293.64,-441.02"/>
</a>
</g>
</g>
<!-- Node8 -->
<g id="Node000008" class="node">
<title>Node8</title>
<g id="a_Node000008"><a xlink:href="son_8c.html#ac32eff9d3cca9f4d196044b77e8be773" target="_top" xlink:title="Indique si la categorie ambiance/musique est active.">
<polygon fill="white" stroke="#666666" points="401.25,-678 272,-678 272,-658 401.25,-658 401.25,-678"/>
<text xml:space="preserve" text-anchor="middle" x="336.62" y="-664.5" font-family="Helvetica,sans-Serif" font-size="10.00">son_ambiance_est_active</text>
</a>
</g>
</g>
<!-- Node2&#45;&gt;Node8 -->
<g id="edge7_Node000002_Node000008" class="edge">
<title>Node2&#45;&gt;Node8</title>
<g id="a_edge7_Node000002_Node000008"><a xlink:title=" ">
<path fill="none" stroke="#63b8ff" d="M182.78,-552.24C196.37,-573.51 230.6,-622.69 272,-649 274.26,-650.43 276.63,-651.77 279.07,-653"/>
<polygon fill="#63b8ff" stroke="#63b8ff" points="277.49,-656.13 288.06,-656.94 280.3,-649.72 277.49,-656.13"/>
</a>
</g>
</g>
<!-- Node9 -->
<g id="Node000009" class="node">
<title>Node9</title>
<g id="a_Node000009"><a xlink:href="son_8c.html#a8a52d99b75360359dcdc073a5617eadf" target="_top" xlink:title="Active ou desactive uniquement les pistes d&#39;ambiance.">
<polygon fill="white" stroke="#666666" points="391.88,-640 281.38,-640 281.38,-608 391.88,-608 391.88,-640"/>
<text xml:space="preserve" text-anchor="start" x="289.38" y="-626.5" font-family="Helvetica,sans-Serif" font-size="10.00">son_definir_ambiance</text>
<text xml:space="preserve" text-anchor="middle" x="336.62" y="-614.5" font-family="Helvetica,sans-Serif" font-size="10.00">_active</text>
</a>
</g>
</g>
<!-- Node2&#45;&gt;Node9 -->
<g id="edge8_Node000002_Node000009" class="edge">
<title>Node2&#45;&gt;Node9</title>
<g id="a_edge8_Node000002_Node000009"><a xlink:title=" ">
<path fill="none" stroke="#63b8ff" d="M191.94,-552.29C210.47,-564.39 242.71,-584.62 272,-599 274.85,-600.4 277.79,-601.77 280.78,-603.12"/>
<polygon fill="#63b8ff" stroke="#63b8ff" points="279.11,-606.21 289.68,-606.97 281.89,-599.79 279.11,-606.21"/>
</a>
</g>
</g>
<!-- Node10 -->
<g id="Node000010" class="node">
<title>Node10</title>
<g id="a_Node000010"><a xlink:href="son_8c.html#af5a69f840820938ab962a3371bd3f929" target="_top" xlink:title="Active ou desactive uniquement les effets sonores (SFX).">
<polygon fill="white" stroke="#666666" points="393.38,-590 279.88,-590 279.88,-570 393.38,-570 393.38,-590"/>
<text xml:space="preserve" text-anchor="middle" x="336.62" y="-576.5" font-family="Helvetica,sans-Serif" font-size="10.00">son_definir_sfx_active</text>
</a>
</g>
</g>
<!-- Node2&#45;&gt;Node10 -->
<g id="edge9_Node000002_Node000010" class="edge">
<title>Node2&#45;&gt;Node10</title>
<g id="a_edge9_Node000002_Node000010"><a xlink:title=" ">
<path fill="none" stroke="#63b8ff" d="M215.43,-551.3C235.09,-555.99 259.29,-561.77 280.8,-566.91"/>
<polygon fill="#63b8ff" stroke="#63b8ff" points="279.76,-570.26 290.3,-569.18 281.38,-563.45 279.76,-570.26"/>
</a>
</g>
</g>
<!-- Node11 -->
<g id="Node000011" class="node">
<title>Node11</title>
<g id="a_Node000011"><a xlink:href="son_8c.html#ae2e2d99b70e1f3a05cb7120d267202f4" target="_top" xlink:title="Indique si la categorie SFX est active.">
<polygon fill="white" stroke="#666666" points="383.25,-716 290,-716 290,-696 383.25,-696 383.25,-716"/>
<text xml:space="preserve" text-anchor="middle" x="336.62" y="-702.5" font-family="Helvetica,sans-Serif" font-size="10.00">son_sfx_est_actif</text>
</a>
</g>
</g>
<!-- Node2&#45;&gt;Node11 -->
<g id="edge10_Node000002_Node000011" class="edge">
<title>Node2&#45;&gt;Node11</title>
<g id="a_edge10_Node000002_Node000011"><a xlink:title=" ">
<path fill="none" stroke="#63b8ff" d="M180.3,-552.19C190.7,-578.64 222.17,-649.95 272,-687 274.31,-688.72 276.77,-690.28 279.33,-691.7"/>
<polygon fill="#63b8ff" stroke="#63b8ff" points="277.71,-694.8 288.25,-695.87 280.67,-688.46 277.71,-694.8"/>
</a>
</g>
</g>
<!-- Node6 -->
<g id="Node000006" class="node">
<title>Node6</title>
<g id="a_Node000006"><a xlink:href="bouton_8c.html#a273a0b22067678e17b3e6b4be36e3641" target="_top" xlink:title=" ">
<polygon fill="white" stroke="#666666" points="518.5,-476 437.25,-476 437.25,-456 518.5,-456 518.5,-476"/>
<text xml:space="preserve" text-anchor="middle" x="477.88" y="-462.5" font-family="Helvetica,sans-Serif" font-size="10.00">pointDansRect</text>
</a>
</g>
</g>
<!-- Node5&#45;&gt;Node6 -->
<g id="edge5_Node000005_Node000006" class="edge">
<title>Node5&#45;&gt;Node6</title>
<g id="a_edge5_Node000005_Node000006"><a xlink:title=" ">
<path fill="none" stroke="#63b8ff" d="M399.51,-466C408.2,-466 417.05,-466 425.52,-466"/>
<polygon fill="#63b8ff" stroke="#63b8ff" points="425.26,-469.5 435.26,-466 425.26,-462.5 425.26,-469.5"/>
</a>
</g>
</g>
<!-- Node14&#45;&gt;Node3 -->
<g id="edge18_Node000014_Node000003" class="edge">
<title>Node14&#45;&gt;Node3</title>
<g id="a_edge18_Node000014_Node000003"><a xlink:title=" ">
<path fill="none" stroke="#63b8ff" d="M179.25,-362.25C187.72,-391.88 216.29,-478.33 272,-523 273.48,-524.19 275.04,-525.31 276.66,-526.35"/>
<polygon fill="#63b8ff" stroke="#63b8ff" points="274.62,-529.23 285.09,-530.89 277.94,-523.07 274.62,-529.23"/>
</a>
</g>
</g>
<!-- Node14&#45;&gt;Node4 -->
<g id="edge19_Node000014_Node000004" class="edge">
<title>Node14&#45;&gt;Node4</title>
<g id="a_edge19_Node000014_Node000004"><a xlink:title=" ">
<path fill="none" stroke="#63b8ff" d="M181.04,-362.44C192.49,-387.5 225.01,-451.51 272,-485 275.44,-487.45 279.2,-489.59 283.12,-491.46"/>
<polygon fill="#63b8ff" stroke="#63b8ff" points="281.76,-494.68 292.34,-495.22 284.4,-488.2 281.76,-494.68"/>
</a>
</g>
</g>
<!-- Node14&#45;&gt;Node5 -->
<g id="edge20_Node000014_Node000005" class="edge">
<title>Node14&#45;&gt;Node5</title>
<g id="a_edge20_Node000014_Node000005"><a xlink:title=" ">
<path fill="none" stroke="#63b8ff" d="M186.43,-362.44C208.79,-385.85 261.9,-440.99 272,-447 274.6,-448.55 277.34,-449.98 280.16,-451.3"/>
<polygon fill="#63b8ff" stroke="#63b8ff" points="278.65,-454.46 289.23,-455.04 281.32,-447.99 278.65,-454.46"/>
</a>
</g>
</g>
<!-- Node14&#45;&gt;Node7 -->
<g id="edge21_Node000014_Node000007" class="edge">
<title>Node14&#45;&gt;Node7</title>
<g id="a_edge21_Node000014_Node000007"><a xlink:title=" ">
<path fill="none" stroke="#63b8ff" d="M208.41,-362.44C217.65,-366.1 227.52,-370.65 236,-376 254.36,-387.58 253.12,-398.29 272,-409 278.32,-412.58 285.38,-415.55 292.43,-418"/>
<polygon fill="#63b8ff" stroke="#63b8ff" points="291.38,-421.33 301.97,-420.96 293.46,-414.65 291.38,-421.33"/>
</a>
</g>
</g>
<!-- Node15 -->
<g id="Node000015" class="node">
<title>Node15</title>
<g id="a_Node000015"><a xlink:href="sauvegarde_8c.html#aeb4954bdff741edc886abc066b4d9b49" target="_top" xlink:title=" ">
<polygon fill="white" stroke="#666666" points="369,-324 304.25,-324 304.25,-304 369,-304 369,-324"/>
<text xml:space="preserve" text-anchor="middle" x="336.62" y="-310.5" font-family="Helvetica,sans-Serif" font-size="10.00">creer_texte</text>
</a>
</g>
</g>
<!-- Node14&#45;&gt;Node15 -->
<g id="edge22_Node000014_Node000015" class="edge">
<title>Node14&#45;&gt;Node15</title>
<g id="a_edge22_Node000014_Node000015"><a xlink:title=" ">
<path fill="none" stroke="#63b8ff" d="M220.4,-341.52C243.07,-336.1 270.6,-329.53 293.07,-324.16"/>
<polygon fill="#63b8ff" stroke="#63b8ff" points="293.59,-327.64 302.5,-321.91 291.96,-320.83 293.59,-327.64"/>
</a>
</g>
</g>
<!-- Node16 -->
<g id="Node000016" class="node">
<title>Node16</title>
<g id="a_Node000016"><a xlink:href="sauvegarde_8c.html#a590205a1d58df634530e608349c8dc6f" target="_top" xlink:title="Verifie si un fichier de sauvegarde existe pour un slot donne.">
<polygon fill="white" stroke="#666666" points="396,-286 277.25,-286 277.25,-266 396,-266 396,-286"/>
<text xml:space="preserve" text-anchor="middle" x="336.62" y="-272.5" font-family="Helvetica,sans-Serif" font-size="10.00">sauvegarde_slot_existe</text>
</a>
</g>
</g>
<!-- Node14&#45;&gt;Node16 -->
<g id="edge23_Node000014_Node000016" class="edge">
<title>Node14&#45;&gt;Node16</title>
<g id="a_edge23_Node000014_Node000016"><a xlink:title=" ">
<path fill="none" stroke="#63b8ff" d="M191.1,-341.72C209.32,-329.26 241.77,-308.29 272,-295 275.98,-293.25 280.17,-291.6 284.42,-290.07"/>
<polygon fill="#63b8ff" stroke="#63b8ff" points="285.25,-293.48 293.6,-286.96 283,-286.85 285.25,-293.48"/>
</a>
</g>
</g>
<!-- Node14&#45;&gt;Node18 -->
<g id="edge25_Node000014_Node000018" class="edge">
<title>Node14&#45;&gt;Node18</title>
<g id="a_edge25_Node000014_Node000018"><a xlink:title=" ">
<path fill="none" stroke="#63b8ff" d="M186.64,-341.56C203.9,-323.87 240.2,-287.02 272,-257 286.23,-243.56 302.7,-228.83 315.31,-217.71"/>
<polygon fill="#63b8ff" stroke="#63b8ff" points="317.39,-220.55 322.59,-211.32 312.77,-215.29 317.39,-220.55"/>
</a>
</g>
</g>
<!-- Node20 -->
<g id="Node000020" class="node">
<title>Node20</title>
<g id="a_Node000020"><a xlink:href="main_8h.html#a6456affd0d0a21e911b531a5ba25676d" target="_top" xlink:title=" ">
<polygon fill="white" stroke="#666666" points="380.62,-400 292.62,-400 292.62,-380 380.62,-380 380.62,-400"/>
<text xml:space="preserve" text-anchor="middle" x="336.62" y="-386.5" font-family="Helvetica,sans-Serif" font-size="10.00">screen_center_y</text>
</a>
</g>
</g>
<!-- Node14&#45;&gt;Node20 -->
<g id="edge27_Node000014_Node000020" class="edge">
<title>Node14&#45;&gt;Node20</title>
<g id="a_edge27_Node000014_Node000020"><a xlink:title=" ">
<path fill="none" stroke="#63b8ff" d="M220.4,-362.48C239.18,-366.97 261.29,-372.25 281.1,-376.98"/>
<polygon fill="#63b8ff" stroke="#63b8ff" points="280.13,-380.35 290.67,-379.26 281.76,-373.54 280.13,-380.35"/>
</a>
</g>
</g>
<!-- Node22 -->
<g id="Node000022" class="node">
<title>Node22</title>
<g id="a_Node000022"><a xlink:href="main_8c.html#a82958224f33fa21d40f4f7965f8396bc" target="_top" xlink:title="Met a jour screen metrics en fonction de l&#39;etat courant du jeu.">
<polygon fill="white" stroke="#666666" points="395.25,-362 278,-362 278,-342 395.25,-342 395.25,-362"/>
<text xml:space="preserve" text-anchor="middle" x="336.62" y="-348.5" font-family="Helvetica,sans-Serif" font-size="10.00">update_screen_metrics</text>
</a>
</g>
</g>
<!-- Node14&#45;&gt;Node22 -->
<g id="edge29_Node000014_Node000022" class="edge">
<title>Node14&#45;&gt;Node22</title>
<g id="a_edge29_Node000014_Node000022"><a xlink:title=" ">
<path fill="none" stroke="#63b8ff" d="M236.21,-352C246.07,-352 256.38,-352 266.45,-352"/>
<polygon fill="#63b8ff" stroke="#63b8ff" points="266.18,-355.5 276.18,-352 266.18,-348.5 266.18,-355.5"/>
</a>
</g>
</g>
<!-- Node17 -->
<g id="Node000017" class="node">
<title>Node17</title>
<g id="a_Node000017"><a xlink:href="sauvegarde_8c.html#ab305de40501185a8bfc008354c2d0f15" target="_top" xlink:title=" ">
<polygon fill="white" stroke="#666666" points="512.12,-258 443.62,-258 443.62,-238 512.12,-238 512.12,-258"/>
<text xml:space="preserve" text-anchor="middle" x="477.88" y="-244.5" font-family="Helvetica,sans-Serif" font-size="10.00">chemin_slot</text>
</a>
</g>
</g>
<!-- Node16&#45;&gt;Node17 -->
<g id="edge24_Node000016_Node000017" class="edge">
<title>Node16&#45;&gt;Node17</title>
<g id="a_edge24_Node000016_Node000017"><a xlink:title=" ">
<path fill="none" stroke="#63b8ff" d="M389.48,-265.57C403.49,-262.76 418.54,-259.73 432.13,-257"/>
<polygon fill="#63b8ff" stroke="#63b8ff" points="432.55,-260.48 441.66,-255.08 431.17,-253.62 432.55,-260.48"/>
</a>
</g>
</g>
<!-- Node18&#45;&gt;Node19 -->
<g id="edge26_Node000018_Node000019" class="edge">
<title>Node18&#45;&gt;Node19</title>
<g id="a_edge26_Node000018_Node000019"><a xlink:title=" ">
<path fill="none" stroke="#63b8ff" d="M380.92,-194.09C395.81,-192.06 412.58,-189.77 427.89,-187.68"/>
<polygon fill="#63b8ff" stroke="#63b8ff" points="428.32,-191.16 437.75,-186.34 427.37,-184.22 428.32,-191.16"/>
</a>
</g>
</g>
<!-- Node20&#45;&gt;Node21 -->
<g id="edge28_Node000020_Node000021" class="edge">
<title>Node20&#45;&gt;Node21</title>
<g id="a_edge28_Node000020_Node000021"><a xlink:title=" ">
<path fill="none" stroke="#63b8ff" d="M376.04,-379.52C392.03,-375.15 410.77,-370.04 427.74,-365.41"/>
<polygon fill="#63b8ff" stroke="#63b8ff" points="428.4,-368.86 437.12,-362.85 426.55,-362.1 428.4,-368.86"/>
</a>
</g>
</g>
<!-- Node23&#45;&gt;Node17 -->
<g id="edge32_Node000023_Node000017" class="edge">
<title>Node23&#45;&gt;Node17</title>
<g id="a_edge32_Node000023_Node000017"><a xlink:title=" ">
<path fill="none" stroke="#63b8ff" d="M235.59,-131.15C282.6,-138.64 348.95,-153.32 401.25,-181 424.58,-193.34 446.61,-214.32 460.81,-229.52"/>
<polygon fill="#63b8ff" stroke="#63b8ff" points="457.89,-231.51 467.2,-236.57 463.08,-226.81 457.89,-231.51"/>
</a>
</g>
</g>
<!-- Node24 -->
<g id="Node000024" class="node">
<title>Node24</title>
<g id="a_Node000024"><a xlink:href="sauvegarde_8c.html#a7fa8471112a5e1439781a4d1950fbe51" target="_top" xlink:title=" ">
<polygon fill="white" stroke="#666666" points="394.88,-96 278.38,-96 278.38,-76 394.88,-76 394.88,-96"/>
<text xml:space="preserve" text-anchor="middle" x="336.62" y="-82.5" font-family="Helvetica,sans-Serif" font-size="10.00">assurer_dossier_saves</text>
</a>
</g>
</g>
<!-- Node23&#45;&gt;Node24 -->
<g id="edge31_Node000023_Node000024" class="edge">
<title>Node23&#45;&gt;Node24</title>
<g id="a_edge31_Node000023_Node000024"><a xlink:title=" ">
<path fill="none" stroke="#63b8ff" d="M220.4,-113.52C239.1,-109.05 261.11,-103.79 280.85,-99.08"/>
<polygon fill="#63b8ff" stroke="#63b8ff" points="281.48,-102.53 290.39,-96.8 279.85,-95.72 281.48,-102.53"/>
</a>
</g>
</g>
</g>
</svg>

<g id="navigator" transform="translate(0 0)" fill="#404254">
  <rect fill="#f2f5e9" fill-opacity="0.5" stroke="#606060" stroke-width=".5" x="0" y="0" width="60" height="60"/>
  <use id="zoomplus" xlink:href="#zoomPlus" x="17" y="9" onmousedown="handleZoom(evt,'in')"/>
  <use id="zoomminus" xlink:href="#zoomMin" x="42" y="9" onmousedown="handleZoom(evt,'out')"/>
  <use id="reset" xlink:href="#resetDef" x="30" y="36" onmousedown="handleReset()"/>
   <use id="arrowup" xlink:href="#arrowUp" x="0" y="0" onmousedown="handlePan(0,-1)"/>
  <use id="arrowright" xlink:href="#arrowRight" x="0" y="0" onmousedown="handlePan(1,0)"/>
  <use id="arrowdown" xlink:href="#arrowDown" x="0" y="0" onmousedown="handlePan(0,1)"/>
  <use id="arrowleft" xlink:href="#arrowLeft" x="0" y="0" onmousedown="handlePan(-1,0)"/>
</g>
<svg viewBox="0 0 15 15" width="100%" height="30px" preserveAspectRatio="xMaxYMin meet">
 <g id="arrow_out" transform="scale(0.3 0.3)">
  <a xlink:href="pause_8c_abc45a9e3a6a57d6f0f44706bd52e556d_cgraph_org.svg" target="_base">
   <rect id="button" ry="5" rx="5" y="6" x="6" height="38" width="38"
        fill="#f2f5e9" fill-opacity="0.5" stroke="#606060" stroke-width="1.0"/>
   <path id="arrow"
     d="M 11.500037,31.436501 C 11.940474,20.09759 22.043105,11.32322 32.158766,21.979434 L 37.068811,17.246167 C 37.068811,17.246167 37.088388,32 37.088388,32 L 22.160133,31.978069 C 22.160133,31.978069 26.997745,27.140456 26.997745,27.140456 C 18.528582,18.264221 13.291696,25.230495 11.500037,31.436501 z"
     style="fill:#404040;"/>
  </a>
 </g>
</svg>

<style type='text/css'>
<![CDATA[
[data-mouse-over-selected='false'] { opacity: 0.7; }
[data-mouse-over-selected='true']  { opacity: 1.0; }
]]>
</style>
<script type="application/ecmascript"><![CDATA[
document.addEventListener('DOMContentLoaded', (event) => {
  highlightEdges();
  highlightAdjacentNodes();
});
]]></script>
</svg>
