<?xml version="1.0" encoding="UTF-8" standalone="no"?>
<!DOCTYPE svg PUBLIC "-//W3C//DTD SVG 1.1//EN"
 "http://www.w3.org/Graphics/SVG/1.1/DTD/svg11.dtd">
<!-- Generated by graphviz version 14.1.4 (20260321.0153)
 -->
<!-- Title: src/pause.c Pages: 1 -->
<!--zoomable 196 -->

<svg id="main" version="1.1" xmlns="http://www.w3.org/2000/svg" xmlns:xlink="http://www.w3.org/1999/xlink" xml:space="preserve" onload="init(evt)">

<style type="text/css"><![CDATA[
.node, .edge {opacity: 0.7;}
.node.selected, .edge.selected {opacity: 1;}
.edge:hover path { stroke: red; }
.edge:hover polygon { stroke: red; fill: red; }
]]></style>

<defs>
  <circle id="rim" cx="0" cy="0" r="7"/>
  <circle id="rim2" cx="0" cy="0" r="3.5"/>
  <g id="zoomPlus">
    <use xlink:href="#rim" fill="#404040"><set attributeName="fill" to="#808080" begin="zoomplus.mouseover" end="zoomplus.mouseout"/></use>
    <path d="M-4,0h8M0,-4v8" fill="none" stroke="white" stroke-width="1.5" pointer-events="none"/>
  </g>
  <g id="zoomMin">
    <use xlink:href="#rim" fill="#404040"><set attributeName="fill" to="#808080" begin="zoomminus.mouseover" end="zoomminus.mouseout"/></use>
    <path d="M-4,0h8" fill="none" stroke="white" stroke-width="1.5" pointer-events="none"/>
  </g>
  <g id="arrowUp" transform="translate(30 24)">
    <use xlink:href="#rim"/>
    <path pointer-events="none" fill="none" stroke="white" stroke-width="1.5" d="M0,-3.0v7 M-2.5,-0.5L0,-3.0L2.5,-0.5"/>
  </g>
  <g id="arrowRight" transform="rotate(90) translate(36 -43)">
    <use xlink:href="#rim"/>
    <path pointer-events="none" fill="none" stroke="white" stroke-width="1.5" d="M0,-3.0v7 M-2.5,-0.5L0,-3.0L2.5,-0.5"/>
  </g>
  <g id="arrowDown" transform="rotate(180) translate(-30 -48)">
    <use xlink:href="#rim"/>
    <path pointer-events="none" fill="none" stroke="white" stroke-width="1.5" d="M0,-3.0v7 M-2.5,-0.5L0,-3.0L2.5,-0.5"/>
  </g>
  <g id="arrowLeft" transform="rotate(270) translate(-36 17)">
    <use xlink:href="#rim"/>
    <path pointer-events="none" fill="none" stroke="white" stroke-width="1.5" d="M0,-3.0v7 M-2.5,-0.5L0,-3.0L2.5,-0.5"/>
  </g>
  <g id="resetDef">
    <use xlink:href="#rim2" fill="#404040"><set attributeName="fill" to="#808080" begin="reset.mouseover" end="reset.mouseout"/></use>
  </g>
</defs>
<script type="application/ecmascript">
var viewWidth = 1701;
var viewHeight = 196;
var sectionId = 'dynsection-0';
</script>
<script type="application/ecmascript" xlink:href="svg.min.js"/>
<svg id="graph" class="graph">
<g id="viewport">
<title>src/pause.c</title>
<!-- Node1 -->
<g id="Node000001" class="node">
<title>Node1</title>
<g id="a_Node000001"><a xlink:title="Menu pause et actions disponibles pendant une partie.">
<polygon fill="#999999" stroke="#666666" points="865.04,-188 798.04,-188 798.04,-168 865.04,-168 865.04,-188"/>
<text xml:space="preserve" text-anchor="middle" x="831.54" y="-174.5" font-family="Helvetica,sans-Serif" font-size="10.00">src/pause.c</text>
</a>
</g>
</g>
<!-- Node2 -->
<g id="Node000002" class="node">
<title>Node2</title>
<g id="a_Node000002"><a xlink:title=" ">
<polygon fill="#e0e0e0" stroke="#999999" points="984.29,-20 912.79,-20 912.79,0 984.29,0 984.29,-20"/>
<text xml:space="preserve" text-anchor="middle" x="948.54" y="-6.5" font-family="Helvetica,sans-Serif" font-size="10.00">SDL3/SDL.h</text>
</a>
</g>
</g>
<!-- Node1&#45;&gt;Node2 -->
<g id="edge1_Node000001_Node000002" class="edge">
<title>Node1&#45;&gt;Node2</title>
<g id="a_edge1_Node000001_Node000002"><a xlink:title=" ">
<path fill="none" stroke="#63b8ff" d="M865.3,-177.45C990.05,-178.31 1422.04,-174.08 1506.54,-76 1512.34,-69.27 1512.56,-62.53 1506.54,-56 1489.3,-37.32 1127.65,-19.12 995.96,-13.09"/>
<polygon fill="#63b8ff" stroke="#63b8ff" points="996.34,-9.6 986.19,-12.65 996.02,-16.6 996.34,-9.6"/>
</a>
</g>
</g>
<!-- Node3 -->
<g id="Node000003" class="node">
<title>Node3</title>
<g id="a_Node000003"><a xlink:title=" ">
<polygon fill="#e0e0e0" stroke="#999999" points="729.79,-20 595.29,-20 595.29,0 729.79,0 729.79,-20"/>
<text xml:space="preserve" text-anchor="middle" x="662.54" y="-6.5" font-family="Helvetica,sans-Serif" font-size="10.00">SDL3_image/SDL_image.h</text>
</a>
</g>
</g>
<!-- Node1&#45;&gt;Node3 -->
<g id="edge2_Node000001_Node000003" class="edge">
<title>Node1&#45;&gt;Node3</title>
<g id="a_edge2_Node000001_Node000003"><a xlink:title=" ">
<path fill="none" stroke="#63b8ff" d="M797.77,-175.53C649.81,-168.75 63.91,-138.09 13.54,-76 7.93,-69.1 7.47,-62.5 13.54,-56 32.72,-35.44 414.9,-19.63 583.63,-13.63"/>
<polygon fill="#63b8ff" stroke="#63b8ff" points="583.53,-17.13 593.4,-13.28 583.29,-10.14 583.53,-17.13"/>
</a>
</g>
</g>
<!-- Node4 -->
<g id="Node000004" class="node">
<title>Node4</title>
<g id="a_Node000004"><a xlink:title=" ">
<polygon fill="#e0e0e0" stroke="#999999" points="210.54,-20 110.54,-20 110.54,0 210.54,0 210.54,-20"/>
<text xml:space="preserve" text-anchor="middle" x="160.54" y="-6.5" font-family="Helvetica,sans-Serif" font-size="10.00">SDL3_ttf/SDL_ttf.h</text>
</a>
</g>
</g>
<!-- Node1&#45;&gt;Node4 -->
<g id="edge3_Node000001_Node000004" class="edge">
<title>Node1&#45;&gt;Node4</title>
<g id="a_edge3_Node000001_Node000004"><a xlink:title=" ">
<path fill="none" stroke="#63b8ff" d="M797.6,-176.67C673.87,-175.18 247.37,-167.51 116.54,-132 63.21,-117.53 34.5,-123.06 5.54,-76 -18.55,-36.87 45.62,-21.29 98.6,-15.09"/>
<polygon fill="#63b8ff" stroke="#63b8ff" points="98.96,-18.57 108.54,-14.03 98.22,-11.61 98.96,-18.57"/>
</a>
</g>
</g>
<!-- Node5 -->
<g id="Node000005" class="node">
<title>Node5</title>
<g id="a_Node000005"><a xlink:title=" ">
<polygon fill="#e0e0e0" stroke="#999999" points="1412.54,-20 1282.54,-20 1282.54,0 1412.54,0 1412.54,-20"/>
<text xml:space="preserve" text-anchor="middle" x="1347.54" y="-6.5" font-family="Helvetica,sans-Serif" font-size="10.00">SDL3_mixer/SDL_mixer.h</text>
</a>
</g>
</g>
<!-- Node1&#45;&gt;Node5 -->
<g id="edge4_Node000001_Node000005" class="edge">
<title>Node1&#45;&gt;Node5</title>
<g id="a_edge4_Node000001_Node000005"><a xlink:title=" ">
<path fill="none" stroke="#63b8ff" d="M865.42,-176.7C992.03,-175.29 1437.01,-167.86 1573.54,-132 1628.52,-117.56 1658.39,-124.2 1688.54,-76 1693.25,-68.46 1694.4,-62.68 1688.54,-56 1686.36,-53.51 1523.86,-32.92 1424,-20.47"/>
<polygon fill="#63b8ff" stroke="#63b8ff" points="1424.6,-17.01 1414.25,-19.25 1423.74,-23.96 1424.6,-17.01"/>
</a>
</g>
</g>
<!-- Node6 -->
<g id="Node000006" class="node">
<title>Node6</title>
<g id="a_Node000006"><a xlink:title=" ">
<polygon fill="#e0e0e0" stroke="#999999" points="897.66,-132 849.41,-132 849.41,-112 897.66,-112 897.66,-132"/>
<text xml:space="preserve" text-anchor="middle" x="873.54" y="-118.5" font-family="Helvetica,sans-Serif" font-size="10.00">string.h</text>
</a>
</g>
</g>
<!-- Node1&#45;&gt;Node6 -->
<g id="edge5_Node000001_Node000006" class="edge">
<title>Node1&#45;&gt;Node6</title>
<g id="a_edge5_Node000001_Node000006"><a xlink:title=" ">
<path fill="none" stroke="#63b8ff" d="M838.85,-167.59C844.51,-160.32 852.52,-150.02 859.42,-141.15"/>
<polygon fill="#63b8ff" stroke="#63b8ff" points="862,-143.54 865.37,-133.49 856.47,-139.24 862,-143.54"/>
</a>
</g>
</g>
<!-- Node7 -->
<g id="Node000007" class="node">
<title>Node7</title>
<g id="a_Node000007"><a xlink:title=" ">
<polygon fill="#e0e0e0" stroke="#999999" points="68.16,-76 22.91,-76 22.91,-56 68.16,-56 68.16,-76"/>
<text xml:space="preserve" text-anchor="middle" x="45.54" y="-62.5" font-family="Helvetica,sans-Serif" font-size="10.00">stdio.h</text>
</a>
</g>
</g>
<!-- Node1&#45;&gt;Node7 -->
<g id="edge6_Node000001_Node000007" class="edge">
<title>Node1&#45;&gt;Node7</title>
<g id="a_edge6_Node000001_Node000007"><a xlink:title=" ">
<path fill="none" stroke="#63b8ff" d="M797.81,-174.19C692.67,-165.08 361.6,-133.67 79.78,-76.2"/>
<polygon fill="#63b8ff" stroke="#63b8ff" points="80.49,-72.77 69.99,-74.19 79.08,-79.63 80.49,-72.77"/>
</a>
</g>
</g>
<!-- Node8 -->
<g id="Node000008" class="node">
<title>Node8</title>
<g id="a_Node000008"><a xlink:href="main_8h.html" target="_top" xlink:title="Declarations globales et utilitaires partages entre les modules du jeu.">
<polygon fill="white" stroke="#666666" points="830.91,-132 748.16,-132 748.16,-112 830.91,-112 830.91,-132"/>
<text xml:space="preserve" text-anchor="middle" x="789.54" y="-118.5" font-family="Helvetica,sans-Serif" font-size="10.00">headers/main.h</text>
</a>
</g>
</g>
<!-- Node1&#45;&gt;Node8 -->
<g id="edge7_Node000001_Node000008" class="edge">
<title>Node1&#45;&gt;Node8</title>
<g id="a_edge7_Node000001_Node000008"><a xlink:title=" ">
<path fill="none" stroke="#63b8ff" d="M824.22,-167.59C818.56,-160.32 810.55,-150.02 803.65,-141.15"/>
<polygon fill="#63b8ff" stroke="#63b8ff" points="806.6,-139.24 797.7,-133.49 801.07,-143.54 806.6,-139.24"/>
</a>
</g>
</g>
<!-- Node29 -->
<g id="Node000029" class="node">
<title>Node29</title>
<g id="a_Node000029"><a xlink:href="pause_8h.html" target="_top" xlink:title="Fichier du menu pause et des actions de reprise/sauvegarde.">
<polygon fill="white" stroke="#666666" points="1679.54,-76 1591.54,-76 1591.54,-56 1679.54,-56 1679.54,-76"/>
<text xml:space="preserve" text-anchor="middle" x="1635.54" y="-62.5" font-family="Helvetica,sans-Serif" font-size="10.00">headers/pause.h</text>
</a>
</g>
</g>
<!-- Node1&#45;&gt;Node29 -->
<g id="edge68_Node000001_Node000029" class="edge">
<title>Node1&#45;&gt;Node29</title>
<g id="a_edge68_Node000001_Node000029"><a xlink:title=" ">
<path fill="none" stroke="#63b8ff" d="M865.31,-177.19C988.41,-177.52 1412.5,-175.42 1539.54,-132 1569.54,-121.75 1598.97,-99.5 1617.17,-83.9"/>
<polygon fill="#63b8ff" stroke="#63b8ff" points="1619.3,-86.69 1624.47,-77.45 1614.66,-81.45 1619.3,-86.69"/>
</a>
</g>
</g>
<!-- Node8&#45;&gt;Node2 -->
<g id="edge8_Node000008_Node000002" class="edge">
<title>Node8&#45;&gt;Node2</title>
<g id="a_edge8_Node000008_Node000002"><a xlink:title=" ">
<path fill="none" stroke="#63b8ff" d="M831.23,-113.27C834.37,-112.8 837.5,-112.37 840.54,-112 899.79,-104.8 1335.77,-119.6 1376.54,-76 1429.62,-19.23 1117.56,-11.76 995.72,-10.99"/>
<polygon fill="#63b8ff" stroke="#63b8ff" points="996.07,-7.49 986.05,-10.94 996.03,-14.49 996.07,-7.49"/>
</a>
</g>
</g>
<!-- Node8&#45;&gt;Node3 -->
<g id="edge9_Node000008_Node000003" class="edge">
<title>Node8&#45;&gt;Node3</title>
<g id="a_edge9_Node000008_Node000003"><a xlink:title=" ">
<path fill="none" stroke="#63b8ff" d="M747.86,-120.48C631.74,-118.59 310.94,-110.29 279.54,-76 237.08,-29.63 459.58,-16.33 583.65,-12.52"/>
<polygon fill="#63b8ff" stroke="#63b8ff" points="583.56,-16.02 593.45,-12.23 583.36,-9.03 583.56,-16.02"/>
</a>
</g>
</g>
<!-- Node8&#45;&gt;Node5 -->
<g id="edge11_Node000008_Node000005" class="edge">
<title>Node8&#45;&gt;Node5</title>
<g id="a_edge11_Node000008_Node000005"><a xlink:title=" ">
<path fill="none" stroke="#63b8ff" d="M831.22,-113.22C834.37,-112.76 837.5,-112.35 840.54,-112 914.16,-103.55 1455.57,-129.8 1506.54,-76 1512.65,-69.55 1511.9,-63.09 1506.54,-56 1495.56,-41.48 1456.41,-30.3 1419.7,-22.72"/>
<polygon fill="#63b8ff" stroke="#63b8ff" points="1420.4,-19.29 1409.91,-20.77 1419.04,-26.15 1420.4,-19.29"/>
</a>
</g>
</g>
<!-- Node8&#45;&gt;Node7 -->
<g id="edge12_Node000008_Node000007" class="edge">
<title>Node8&#45;&gt;Node7</title>
<g id="a_edge12_Node000008_Node000007"><a xlink:title=" ">
<path fill="none" stroke="#63b8ff" d="M747.85,-121.42C639.13,-121.87 338.06,-118.96 79.59,-75.96"/>
<polygon fill="#63b8ff" stroke="#63b8ff" points="80.41,-72.55 69.97,-74.33 79.24,-79.45 80.41,-72.55"/>
</a>
</g>
</g>
<!-- Node9 -->
<g id="Node000009" class="node">
<title>Node9</title>
<g id="a_Node000009"><a xlink:title=" ">
<polygon fill="#e0e0e0" stroke="#999999" points="554.54,-76 508.54,-76 508.54,-56 554.54,-56 554.54,-76"/>
<text xml:space="preserve" text-anchor="middle" x="531.54" y="-62.5" font-family="Helvetica,sans-Serif" font-size="10.00">math.h</text>
</a>
</g>
</g>
<!-- Node8&#45;&gt;Node9 -->
<g id="edge10_Node000008_Node000009" class="edge">
<title>Node8&#45;&gt;Node9</title>
<g id="a_edge10_Node000008_Node000009"><a xlink:title=" ">
<path fill="none" stroke="#63b8ff" d="M747.67,-113.67C704.46,-105.88 634.86,-92.72 565.95,-76.44"/>
<polygon fill="#63b8ff" stroke="#63b8ff" points="566.91,-73.07 556.37,-74.15 565.28,-79.88 566.91,-73.07"/>
</a>
</g>
</g>
<!-- Node10 -->
<g id="Node000010" class="node">
<title>Node10</title>
<g id="a_Node000010"><a xlink:title=" ">
<polygon fill="#e0e0e0" stroke="#999999" points="620.29,-76 572.79,-76 572.79,-56 620.29,-56 620.29,-76"/>
<text xml:space="preserve" text-anchor="middle" x="596.54" y="-62.5" font-family="Helvetica,sans-Serif" font-size="10.00">stdlib.h</text>
</a>
</g>
</g>
<!-- Node8&#45;&gt;Node10 -->
<g id="edge13_Node000008_Node000010" class="edge">
<title>Node8&#45;&gt;Node10</title>
<g id="a_edge13_Node000008_Node000010"><a xlink:title=" ">
<path fill="none" stroke="#63b8ff" d="M755.92,-111.59C721.03,-101.83 666.72,-86.64 631.38,-76.75"/>
<polygon fill="#63b8ff" stroke="#63b8ff" points="632.66,-73.47 622.08,-74.15 630.77,-80.21 632.66,-73.47"/>
</a>
</g>
</g>
<!-- Node11 -->
<g id="Node000011" class="node">
<title>Node11</title>
<g id="a_Node000011"><a xlink:href="menu_8h.html" target="_top" xlink:title="Fichier du menu principal et des choix de navigation.">
<polygon fill="white" stroke="#666666" points="1006.66,-76 958.41,-76 958.41,-56 1006.66,-56 1006.66,-76"/>
<text xml:space="preserve" text-anchor="middle" x="982.54" y="-62.5" font-family="Helvetica,sans-Serif" font-size="10.00">menu.h</text>
</a>
</g>
</g>
<!-- Node8&#45;&gt;Node11 -->
<g id="edge14_Node000008_Node000011" class="edge">
<title>Node8&#45;&gt;Node11</title>
<g id="a_edge14_Node000008_Node000011"><a xlink:title=" ">
<path fill="none" stroke="#63b8ff" d="M823.15,-111.59C857.94,-101.86 912.05,-86.72 947.39,-76.83"/>
<polygon fill="#63b8ff" stroke="#63b8ff" points="948.01,-80.29 956.7,-74.23 946.13,-73.55 948.01,-80.29"/>
</a>
</g>
</g>
<!-- Node12 -->
<g id="Node000012" class="node">
<title>Node12</title>
<g id="a_Node000012"><a xlink:href="game__over_8h.html" target="_top" xlink:title="Fichier de l&#39;ecran de fin de partie et des transitions associees.">
<polygon fill="white" stroke="#666666" points="360.66,-76 288.41,-76 288.41,-56 360.66,-56 360.66,-76"/>
<text xml:space="preserve" text-anchor="middle" x="324.54" y="-62.5" font-family="Helvetica,sans-Serif" font-size="10.00">game_over.h</text>
</a>
</g>
</g>
<!-- Node8&#45;&gt;Node12 -->
<g id="edge17_Node000008_Node000012" class="edge">
<title>Node8&#45;&gt;Node12</title>
<g id="a_edge17_Node000008_Node000012"><a xlink:title=" ">
<path fill="none" stroke="#63b8ff" d="M747.94,-117.8C674.26,-111.86 515.76,-97.87 372.04,-76.26"/>
<polygon fill="#63b8ff" stroke="#63b8ff" points="372.74,-72.83 362.33,-74.78 371.69,-79.75 372.74,-72.83"/>
</a>
</g>
</g>
<!-- Node13 -->
<g id="Node000013" class="node">
<title>Node13</title>
<g id="a_Node000013"><a xlink:href="jeux_8h.html" target="_top" xlink:title="Fichier de la boucle de jeu principale et de son initialisation.">
<polygon fill="white" stroke="#666666" points="1367.66,-76 1325.41,-76 1325.41,-56 1367.66,-56 1367.66,-76"/>
<text xml:space="preserve" text-anchor="middle" x="1346.54" y="-62.5" font-family="Helvetica,sans-Serif" font-size="10.00">jeux.h</text>
</a>
</g>
</g>
<!-- Node8&#45;&gt;Node13 -->
<g id="edge20_Node000008_Node000013" class="edge">
<title>Node8&#45;&gt;Node13</title>
<g id="a_edge20_Node000008_Node000013"><a xlink:title=" ">
<path fill="none" stroke="#63b8ff" d="M831.23,-113.29C834.38,-112.82 837.5,-112.38 840.54,-112 1047.34,-86 1105.89,-113.7 1313.74,-76.13"/>
<polygon fill="#63b8ff" stroke="#63b8ff" points="1314.35,-79.58 1323.55,-74.33 1313.09,-72.7 1314.35,-79.58"/>
</a>
</g>
</g>
<!-- Node14 -->
<g id="Node000014" class="node">
<title>Node14</title>
<g id="a_Node000014"><a xlink:href="bouton_8h.html" target="_top" xlink:title="Fichier des boutons UI, de leur etat et de la gestion des interactions souris.">
<polygon fill="white" stroke="#666666" points="432.29,-76 378.79,-76 378.79,-56 432.29,-56 432.29,-76"/>
<text xml:space="preserve" text-anchor="middle" x="405.54" y="-62.5" font-family="Helvetica,sans-Serif" font-size="10.00">bouton.h</text>
</a>
</g>
</g>
<!-- Node8&#45;&gt;Node14 -->
<g id="edge24_Node000008_Node000014" class="edge">
<title>Node8&#45;&gt;Node14</title>
<g id="a_edge24_Node000008_Node000014"><a xlink:title=" ">
<path fill="none" stroke="#63b8ff" d="M747.77,-117.19C684.24,-111.04 559.35,-97.61 443.74,-76.22"/>
<polygon fill="#63b8ff" stroke="#63b8ff" points="444.55,-72.81 434.08,-74.4 443.26,-79.69 444.55,-72.81"/>
</a>
</g>
</g>
<!-- Node15 -->
<g id="Node000015" class="node">
<title>Node15</title>
<g id="a_Node000015"><a xlink:href="option_8h.html" target="_top" xlink:title="Fichier de l&#39;ecran d&#39;options et des reglages de jeu.">
<polygon fill="white" stroke="#666666" points="940.79,-76 890.29,-76 890.29,-56 940.79,-56 940.79,-76"/>
<text xml:space="preserve" text-anchor="middle" x="915.54" y="-62.5" font-family="Helvetica,sans-Serif" font-size="10.00">option.h</text>
</a>
</g>
</g>
<!-- Node8&#45;&gt;Node15 -->
<g id="edge27_Node000008_Node000015" class="edge">
<title>Node8&#45;&gt;Node15</title>
<g id="a_edge27_Node000008_Node000015"><a xlink:title=" ">
<path fill="none" stroke="#63b8ff" d="M811.48,-111.59C831.24,-103.13 860.53,-90.58 883,-80.94"/>
<polygon fill="#63b8ff" stroke="#63b8ff" points="884.21,-84.23 892.03,-77.08 881.46,-77.8 884.21,-84.23"/>
</a>
</g>
</g>
<!-- Node16 -->
<g id="Node000016" class="node">
<title>Node16</title>
<g id="a_Node000016"><a xlink:href="perso_8h.html" target="_top" xlink:title="Fichier du personnage: deplacement, combat, stats et collisions.">
<polygon fill="white" stroke="#666666" points="686.66,-76 638.41,-76 638.41,-56 686.66,-56 686.66,-76"/>
<text xml:space="preserve" text-anchor="middle" x="662.54" y="-62.5" font-family="Helvetica,sans-Serif" font-size="10.00">perso.h</text>
</a>
</g>
</g>
<!-- Node8&#45;&gt;Node16 -->
<g id="edge30_Node000008_Node000016" class="edge">
<title>Node8&#45;&gt;Node16</title>
<g id="a_edge30_Node000008_Node000016"><a xlink:title=" ">
<path fill="none" stroke="#63b8ff" d="M767.41,-111.59C747.5,-103.13 717.98,-90.58 695.33,-80.94"/>
<polygon fill="#63b8ff" stroke="#63b8ff" points="696.79,-77.76 686.22,-77.07 694.06,-84.21 696.79,-77.76"/>
</a>
</g>
</g>
<!-- Node17 -->
<g id="Node000017" class="node">
<title>Node17</title>
<g id="a_Node000017"><a xlink:href="son_8h.html" target="_top" xlink:title="Fichier audio: musique, effets sonores et etats d&#39;activation.">
<polygon fill="white" stroke="#666666" points="490.54,-76 450.54,-76 450.54,-56 490.54,-56 490.54,-76"/>
<text xml:space="preserve" text-anchor="middle" x="470.54" y="-62.5" font-family="Helvetica,sans-Serif" font-size="10.00">son.h</text>
</a>
</g>
</g>
<!-- Node8&#45;&gt;Node17 -->
<g id="edge33_Node000008_Node000017" class="edge">
<title>Node8&#45;&gt;Node17</title>
<g id="a_edge33_Node000008_Node000017"><a xlink:title=" ">
<path fill="none" stroke="#63b8ff" d="M747.87,-116.49C693.37,-110.16 594.77,-97.25 502.02,-76.3"/>
<polygon fill="#63b8ff" stroke="#63b8ff" points="503.03,-72.94 492.5,-74.11 501.46,-79.76 503.03,-72.94"/>
</a>
</g>
</g>
<!-- Node18 -->
<g id="Node000018" class="node">
<title>Node18</title>
<g id="a_Node000018"><a xlink:href="boss_8h.html" target="_top" xlink:title="Fichier du module boss (declarations publiques).">
<polygon fill="white" stroke="#666666" points="750.16,-76 704.91,-76 704.91,-56 750.16,-56 750.16,-76"/>
<text xml:space="preserve" text-anchor="middle" x="727.54" y="-62.5" font-family="Helvetica,sans-Serif" font-size="10.00">boss.h</text>
</a>
</g>
</g>
<!-- Node8&#45;&gt;Node18 -->
<g id="edge38_Node000008_Node000018" class="edge">
<title>Node8&#45;&gt;Node18</title>
<g id="a_edge38_Node000008_Node000018"><a xlink:title=" ">
<path fill="none" stroke="#63b8ff" d="M778.74,-111.59C769.93,-103.93 757.28,-92.91 746.76,-83.75"/>
<polygon fill="#63b8ff" stroke="#63b8ff" points="749.19,-81.22 739.35,-77.29 744.59,-86.5 749.19,-81.22"/>
</a>
</g>
</g>
<!-- Node19 -->
<g id="Node000019" class="node">
<title>Node19</title>
<g id="a_Node000019"><a xlink:href="mob_8h.html" target="_top" xlink:title="Fichier des mobs: creation, mise a jour, rendu et file de respawn.">
<polygon fill="white" stroke="#666666" points="811.04,-76 768.04,-76 768.04,-56 811.04,-56 811.04,-76"/>
<text xml:space="preserve" text-anchor="middle" x="789.54" y="-62.5" font-family="Helvetica,sans-Serif" font-size="10.00">mob.h</text>
</a>
</g>
</g>
<!-- Node8&#45;&gt;Node19 -->
<g id="edge41_Node000008_Node000019" class="edge">
<title>Node8&#45;&gt;Node19</title>
<g id="a_edge41_Node000008_Node000019"><a xlink:title=" ">
<path fill="none" stroke="#63b8ff" d="M789.54,-111.59C789.54,-105.01 789.54,-95.96 789.54,-87.73"/>
<polygon fill="#63b8ff" stroke="#63b8ff" points="793.04,-87.81 789.54,-77.81 786.04,-87.81 793.04,-87.81"/>
</a>
</g>
</g>
<!-- Node20 -->
<g id="Node000020" class="node">
<title>Node20</title>
<g id="a_Node000020"><a xlink:href="vaisseau_8h.html" target="_top" xlink:title="Fichier de la scene vaisseau, des interactions et du retour en planete.">
<polygon fill="white" stroke="#666666" points="1149.16,-76 1085.91,-76 1085.91,-56 1149.16,-56 1149.16,-76"/>
<text xml:space="preserve" text-anchor="middle" x="1117.54" y="-62.5" font-family="Helvetica,sans-Serif" font-size="10.00">vaisseau.h</text>
</a>
</g>
</g>
<!-- Node8&#45;&gt;Node20 -->
<g id="edge44_Node000008_Node000020" class="edge">
<title>Node8&#45;&gt;Node20</title>
<g id="a_edge44_Node000008_Node000020"><a xlink:title=" ">
<path fill="none" stroke="#63b8ff" d="M831.27,-113.55C834.4,-113.02 837.52,-112.5 840.54,-112 942.08,-95.33 970.88,-95.66 1074.42,-76.49"/>
<polygon fill="#63b8ff" stroke="#63b8ff" points="1075.03,-79.93 1084.21,-74.65 1073.74,-73.05 1075.03,-79.93"/>
</a>
</g>
</g>
<!-- Node21 -->
<g id="Node000021" class="node">
<title>Node21</title>
<g id="a_Node000021"><a xlink:href="map_8h.html" target="_top" xlink:title="Fichier de navigation carte et de gestion des ressources cartographiques.">
<polygon fill="white" stroke="#666666" points="1068.04,-76 1025.04,-76 1025.04,-56 1068.04,-56 1068.04,-76"/>
<text xml:space="preserve" text-anchor="middle" x="1046.54" y="-62.5" font-family="Helvetica,sans-Serif" font-size="10.00">map.h</text>
</a>
</g>
</g>
<!-- Node8&#45;&gt;Node21 -->
<g id="edge46_Node000008_Node000021" class="edge">
<title>Node8&#45;&gt;Node21</title>
<g id="a_edge46_Node000008_Node000021"><a xlink:title=" ">
<path fill="none" stroke="#63b8ff" d="M830.99,-113.19C881.95,-103.52 966.56,-87.21 1013.5,-76.28"/>
<polygon fill="#63b8ff" stroke="#63b8ff" points="1014.2,-79.71 1023.11,-73.98 1012.57,-72.91 1014.2,-79.71"/>
</a>
</g>
</g>
<!-- Node22 -->
<g id="Node000022" class="node">
<title>Node22</title>
<g id="a_Node000022"><a xlink:href="item_8h.html" target="_top" xlink:title="Fichier de creation, d&#39;affichage et de destruction des items.">
<polygon fill="white" stroke="#666666" points="872.04,-76 829.04,-76 829.04,-56 872.04,-56 872.04,-76"/>
<text xml:space="preserve" text-anchor="middle" x="850.54" y="-62.5" font-family="Helvetica,sans-Serif" font-size="10.00">item.h</text>
</a>
</g>
</g>
<!-- Node8&#45;&gt;Node22 -->
<g id="edge50_Node000008_Node000022" class="edge">
<title>Node8&#45;&gt;Node22</title>
<g id="a_edge50_Node000008_Node000022"><a xlink:title=" ">
<path fill="none" stroke="#63b8ff" d="M800.16,-111.59C808.82,-103.93 821.27,-92.91 831.62,-83.75"/>
<polygon fill="#63b8ff" stroke="#63b8ff" points="833.73,-86.55 838.9,-77.3 829.09,-81.31 833.73,-86.55"/>
</a>
</g>
</g>
<!-- Node23 -->
<g id="Node000023" class="node">
<title>Node23</title>
<g id="a_Node000023"><a xlink:href="inventaire_8h.html" target="_top" xlink:title="Fichier de l&#39;inventaire, de la hotbar et des interactions de slots.">
<polygon fill="white" stroke="#666666" points="152.66,-76 86.41,-76 86.41,-56 152.66,-56 152.66,-76"/>
<text xml:space="preserve" text-anchor="middle" x="119.54" y="-62.5" font-family="Helvetica,sans-Serif" font-size="10.00">inventaire.h</text>
</a>
</g>
</g>
<!-- Node8&#45;&gt;Node23 -->
<g id="edge53_Node000008_Node000023" class="edge">
<title>Node8&#45;&gt;Node23</title>
<g id="a_edge53_Node000008_Node000023"><a xlink:title=" ">
<path fill="none" stroke="#63b8ff" d="M747.8,-120.02C648.41,-117.26 389.73,-107.54 164.32,-76.2"/>
<polygon fill="#63b8ff" stroke="#63b8ff" points="164.82,-72.74 154.43,-74.81 163.84,-79.67 164.82,-72.74"/>
</a>
</g>
</g>
<!-- Node24 -->
<g id="Node000024" class="node">
<title>Node24</title>
<g id="a_Node000024"><a xlink:href="sauvegarde_8h.html" target="_top" xlink:title="Fichier des slots de sauvegarde et du chargement de progression.">
<polygon fill="white" stroke="#666666" points="1497.79,-76 1423.29,-76 1423.29,-56 1497.79,-56 1497.79,-76"/>
<text xml:space="preserve" text-anchor="middle" x="1460.54" y="-62.5" font-family="Helvetica,sans-Serif" font-size="10.00">sauvegarde.h</text>
</a>
</g>
</g>
<!-- Node8&#45;&gt;Node24 -->
<g id="edge57_Node000008_Node000024" class="edge">
<title>Node8&#45;&gt;Node24</title>
<g id="a_edge57_Node000008_Node000024"><a xlink:title=" ">
<path fill="none" stroke="#63b8ff" d="M831.23,-113.25C834.37,-112.79 837.5,-112.36 840.54,-112 1092.14,-81.94 1157.93,-106.06 1409.54,-76 1410.36,-75.9 1411.18,-75.8 1412.01,-75.69"/>
<polygon fill="#63b8ff" stroke="#63b8ff" points="1412.11,-79.22 1421.51,-74.33 1411.11,-72.29 1412.11,-79.22"/>
</a>
</g>
</g>
<!-- Node26 -->
<g id="Node000026" class="node">
<title>Node26</title>
<g id="a_Node000026"><a xlink:href="objectifs_8h.html" target="_top" xlink:title="Fichier de suivi des objectifs de quete et de leur affichage.">
<polygon fill="white" stroke="#666666" points="232.04,-76 171.04,-76 171.04,-56 232.04,-56 232.04,-76"/>
<text xml:space="preserve" text-anchor="middle" x="201.54" y="-62.5" font-family="Helvetica,sans-Serif" font-size="10.00">objectifs.h</text>
</a>
</g>
</g>
<!-- Node8&#45;&gt;Node26 -->
<g id="edge60_Node000008_Node000026" class="edge">
<title>Node8&#45;&gt;Node26</title>
<g id="a_edge60_Node000008_Node000026"><a xlink:title=" ">
<path fill="none" stroke="#63b8ff" d="M747.8,-119.18C656.53,-114.83 432.47,-102.21 246.54,-76 245.53,-75.86 244.52,-75.71 243.5,-75.55"/>
<polygon fill="#63b8ff" stroke="#63b8ff" points="244.38,-72.15 233.93,-73.92 243.2,-79.05 244.38,-72.15"/>
</a>
</g>
</g>
<!-- Node27 -->
<g id="Node000027" class="node">
<title>Node27</title>
<g id="a_Node000027"><a xlink:href="cinematique_8h.html" target="_top" xlink:title="Fichier des cinematics, des intros et des sequences de credits.">
<polygon fill="white" stroke="#666666" points="1243.91,-76 1167.16,-76 1167.16,-56 1243.91,-56 1243.91,-76"/>
<text xml:space="preserve" text-anchor="middle" x="1205.54" y="-62.5" font-family="Helvetica,sans-Serif" font-size="10.00">cinematique.h</text>
</a>
</g>
</g>
<!-- Node8&#45;&gt;Node27 -->
<g id="edge64_Node000008_Node000027" class="edge">
<title>Node8&#45;&gt;Node27</title>
<g id="a_edge64_Node000008_Node000027"><a xlink:title=" ">
<path fill="none" stroke="#63b8ff" d="M831.25,-113.42C834.39,-112.92 837.51,-112.44 840.54,-112 977.73,-92.15 1015.99,-97.12 1155.72,-76.33"/>
<polygon fill="#63b8ff" stroke="#63b8ff" points="1155.98,-79.83 1165.35,-74.88 1154.94,-72.91 1155.98,-79.83"/>
</a>
</g>
</g>
<!-- Node28 -->
<g id="Node000028" class="node">
<title>Node28</title>
<g id="a_Node000028"><a xlink:href="shop_8h.html" target="_top" xlink:title="Fichier de la boutique, des achats et de l&#39;economie joueur.">
<polygon fill="white" stroke="#666666" points="1307.16,-76 1261.91,-76 1261.91,-56 1307.16,-56 1307.16,-76"/>
<text xml:space="preserve" text-anchor="middle" x="1284.54" y="-62.5" font-family="Helvetica,sans-Serif" font-size="10.00">shop.h</text>
</a>
</g>
</g>
<!-- Node8&#45;&gt;Node28 -->
<g id="edge66_Node000008_Node000028" class="edge">
<title>Node8&#45;&gt;Node28</title>
<g id="a_edge66_Node000008_Node000028"><a xlink:title=" ">
<path fill="none" stroke="#63b8ff" d="M831.24,-113.33C834.38,-112.85 837.5,-112.4 840.54,-112 1019.12,-88.49 1069.7,-108.2 1250.35,-76.05"/>
<polygon fill="#63b8ff" stroke="#63b8ff" points="1250.88,-79.51 1260.09,-74.28 1249.63,-72.62 1250.88,-79.51"/>
</a>
</g>
</g>
<!-- Node11&#45;&gt;Node2 -->
<g id="edge15_Node000011_Node000002" class="edge">
<title>Node11&#45;&gt;Node2</title>
<g id="a_edge15_Node000011_Node000002"><a xlink:title=" ">
<path fill="none" stroke="#63b8ff" d="M976.61,-55.59C972.18,-48.55 965.96,-38.67 960.5,-30"/>
<polygon fill="#63b8ff" stroke="#63b8ff" points="963.49,-28.18 955.2,-21.58 957.56,-31.91 963.49,-28.18"/>
</a>
</g>
</g>
<!-- Node11&#45;&gt;Node3 -->
<g id="edge16_Node000011_Node000003" class="edge">
<title>Node11&#45;&gt;Node3</title>
<g id="a_edge16_Node000011_Node000003"><a xlink:title=" ">
<path fill="none" stroke="#63b8ff" d="M958.1,-58.01C955.22,-57.29 952.32,-56.6 949.54,-56 879.72,-41.05 799.36,-28.88 741.46,-20.98"/>
<polygon fill="#63b8ff" stroke="#63b8ff" points="742.07,-17.53 731.69,-19.66 741.13,-24.47 742.07,-17.53"/>
</a>
</g>
</g>
<!-- Node12&#45;&gt;Node2 -->
<g id="edge18_Node000012_Node000002" class="edge">
<title>Node12&#45;&gt;Node2</title>
<g id="a_edge18_Node000012_Node000002"><a xlink:title=" ">
<path fill="none" stroke="#63b8ff" d="M360.82,-57.35C363.76,-56.85 366.69,-56.39 369.54,-56 565.8,-28.85 801.92,-16.86 901.06,-12.76"/>
<polygon fill="#63b8ff" stroke="#63b8ff" points="901.1,-16.26 910.95,-12.36 900.82,-9.27 901.1,-16.26"/>
</a>
</g>
</g>
<!-- Node12&#45;&gt;Node3 -->
<g id="edge19_Node000012_Node000003" class="edge">
<title>Node12&#45;&gt;Node3</title>
<g id="a_edge19_Node000012_Node000003"><a xlink:title=" ">
<path fill="none" stroke="#63b8ff" d="M360.86,-57.59C363.79,-57.04 366.71,-56.5 369.54,-56 442.02,-43.19 524.97,-30.65 584.07,-22.07"/>
<polygon fill="#63b8ff" stroke="#63b8ff" points="584.29,-25.58 593.69,-20.68 583.29,-18.65 584.29,-25.58"/>
</a>
</g>
</g>
<!-- Node13&#45;&gt;Node2 -->
<g id="edge21_Node000013_Node000002" class="edge">
<title>Node13&#45;&gt;Node2</title>
<g id="a_edge21_Node000013_Node000002"><a xlink:title=" ">
<path fill="none" stroke="#63b8ff" d="M1325.02,-58.07C1322.18,-57.3 1319.3,-56.58 1316.54,-56 1202.71,-32.15 1066.23,-19.55 995.79,-14.2"/>
<polygon fill="#63b8ff" stroke="#63b8ff" points="996.39,-10.73 986.16,-13.48 995.87,-17.71 996.39,-10.73"/>
</a>
</g>
</g>
<!-- Node13&#45;&gt;Node3 -->
<g id="edge22_Node000013_Node000003" class="edge">
<title>Node13&#45;&gt;Node3</title>
<g id="a_edge22_Node000013_Node000003"><a xlink:title=" ">
<path fill="none" stroke="#63b8ff" d="M1325.05,-57.93C1322.21,-57.18 1319.32,-56.51 1316.54,-56 1208.3,-36.29 890.53,-20.69 741.45,-14.23"/>
<polygon fill="#63b8ff" stroke="#63b8ff" points="741.8,-10.74 731.66,-13.81 741.5,-17.73 741.8,-10.74"/>
</a>
</g>
</g>
<!-- Node13&#45;&gt;Node5 -->
<g id="edge23_Node000013_Node000005" class="edge">
<title>Node13&#45;&gt;Node5</title>
<g id="a_edge23_Node000013_Node000005"><a xlink:title=" ">
<path fill="none" stroke="#63b8ff" d="M1346.71,-55.59C1346.83,-49.01 1347,-39.96 1347.15,-31.73"/>
<polygon fill="#63b8ff" stroke="#63b8ff" points="1350.65,-31.87 1347.34,-21.81 1343.65,-31.75 1350.65,-31.87"/>
</a>
</g>
</g>
<!-- Node14&#45;&gt;Node2 -->
<g id="edge25_Node000014_Node000002" class="edge">
<title>Node14&#45;&gt;Node2</title>
<g id="a_edge25_Node000014_Node000002"><a xlink:title=" ">
<path fill="none" stroke="#63b8ff" d="M432.57,-57.76C435.58,-57.1 438.61,-56.49 441.54,-56 608.95,-27.82 810.64,-16.59 900.86,-12.74"/>
<polygon fill="#63b8ff" stroke="#63b8ff" points="900.97,-16.24 910.82,-12.33 900.68,-9.25 900.97,-16.24"/>
</a>
</g>
</g>
<!-- Node14&#45;&gt;Node3 -->
<g id="edge26_Node000014_Node000003" class="edge">
<title>Node14&#45;&gt;Node3</title>
<g id="a_edge26_Node000014_Node000003"><a xlink:title=" ">
<path fill="none" stroke="#63b8ff" d="M432.63,-58.09C435.63,-57.37 438.65,-56.66 441.54,-56 495.46,-43.78 557.13,-31.35 601.6,-22.66"/>
<polygon fill="#63b8ff" stroke="#63b8ff" points="602.18,-26.11 611.32,-20.76 600.84,-19.24 602.18,-26.11"/>
</a>
</g>
</g>
<!-- Node15&#45;&gt;Node2 -->
<g id="edge28_Node000015_Node000002" class="edge">
<title>Node15&#45;&gt;Node2</title>
<g id="a_edge28_Node000015_Node000002"><a xlink:title=" ">
<path fill="none" stroke="#63b8ff" d="M921.28,-55.59C925.59,-48.55 931.63,-38.67 936.92,-30"/>
<polygon fill="#63b8ff" stroke="#63b8ff" points="939.84,-31.95 942.06,-21.59 933.86,-28.3 939.84,-31.95"/>
</a>
</g>
</g>
<!-- Node15&#45;&gt;Node3 -->
<g id="edge29_Node000015_Node000003" class="edge">
<title>Node15&#45;&gt;Node3</title>
<g id="a_edge29_Node000015_Node000003"><a xlink:title=" ">
<path fill="none" stroke="#63b8ff" d="M889.95,-58.06C887.12,-57.34 884.27,-56.64 881.54,-56 828.53,-43.55 767.85,-31.23 723.83,-22.64"/>
<polygon fill="#63b8ff" stroke="#63b8ff" points="724.69,-19.24 714.21,-20.77 723.36,-26.11 724.69,-19.24"/>
</a>
</g>
</g>
<!-- Node16&#45;&gt;Node2 -->
<g id="edge31_Node000016_Node000002" class="edge">
<title>Node16&#45;&gt;Node2</title>
<g id="a_edge31_Node000016_Node000002"><a xlink:title=" ">
<path fill="none" stroke="#63b8ff" d="M686.98,-58.07C689.86,-57.33 692.75,-56.63 695.54,-56 766.61,-40.02 849.94,-26.12 900.98,-18.15"/>
<polygon fill="#63b8ff" stroke="#63b8ff" points="901.46,-21.61 910.8,-16.62 900.39,-14.7 901.46,-21.61"/>
</a>
</g>
</g>
<!-- Node16&#45;&gt;Node3 -->
<g id="edge32_Node000016_Node000003" class="edge">
<title>Node16&#45;&gt;Node3</title>
<g id="a_edge32_Node000016_Node000003"><a xlink:title=" ">
<path fill="none" stroke="#63b8ff" d="M662.54,-55.59C662.54,-49.01 662.54,-39.96 662.54,-31.73"/>
<polygon fill="#63b8ff" stroke="#63b8ff" points="666.04,-31.81 662.54,-21.81 659.04,-31.81 666.04,-31.81"/>
</a>
</g>
</g>
<!-- Node17&#45;&gt;Node2 -->
<g id="edge34_Node000017_Node000002" class="edge">
<title>Node17&#45;&gt;Node2</title>
<g id="a_edge34_Node000017_Node000002"><a xlink:title=" ">
<path fill="none" stroke="#63b8ff" d="M491,-58.09C493.84,-57.29 496.75,-56.57 499.54,-56 643.87,-26.68 818.37,-16.16 900.88,-12.63"/>
<polygon fill="#63b8ff" stroke="#63b8ff" points="901.01,-16.13 910.86,-12.22 900.73,-9.14 901.01,-16.13"/>
</a>
</g>
</g>
<!-- Node17&#45;&gt;Node3 -->
<g id="edge35_Node000017_Node000003" class="edge">
<title>Node17&#45;&gt;Node3</title>
<g id="a_edge35_Node000017_Node000003"><a xlink:title=" ">
<path fill="none" stroke="#63b8ff" d="M490.79,-58.62C493.72,-57.73 496.7,-56.83 499.54,-56 538.72,-44.51 583.45,-32.22 616.12,-23.39"/>
<polygon fill="#63b8ff" stroke="#63b8ff" points="616.94,-26.8 625.69,-20.82 615.12,-20.04 616.94,-26.8"/>
</a>
</g>
</g>
<!-- Node17&#45;&gt;Node4 -->
<g id="edge36_Node000017_Node000004" class="edge">
<title>Node17&#45;&gt;Node4</title>
<g id="a_edge36_Node000017_Node000004"><a xlink:title=" ">
<path fill="none" stroke="#63b8ff" d="M450.04,-58.24C447.2,-57.42 444.31,-56.65 441.54,-56 366.94,-38.54 279.61,-25.72 222.35,-18.33"/>
<polygon fill="#63b8ff" stroke="#63b8ff" points="222.82,-14.86 212.45,-17.07 221.93,-21.8 222.82,-14.86"/>
</a>
</g>
</g>
<!-- Node17&#45;&gt;Node5 -->
<g id="edge37_Node000017_Node000005" class="edge">
<title>Node17&#45;&gt;Node5</title>
<g id="a_edge37_Node000017_Node000005"><a xlink:title=" ">
<path fill="none" stroke="#63b8ff" d="M490.97,-57.97C493.82,-57.19 496.73,-56.5 499.54,-56 646.34,-29.75 1090.71,-16.88 1270.65,-12.64"/>
<polygon fill="#63b8ff" stroke="#63b8ff" points="1270.68,-16.14 1280.6,-12.41 1270.52,-9.15 1270.68,-16.14"/>
</a>
</g>
</g>
<!-- Node18&#45;&gt;Node2 -->
<g id="edge39_Node000018_Node000002" class="edge">
<title>Node18&#45;&gt;Node2</title>
<g id="a_edge39_Node000018_Node000002"><a xlink:title=" ">
<path fill="none" stroke="#63b8ff" d="M750.58,-58.4C753.59,-57.57 756.63,-56.75 759.54,-56 807.82,-43.47 863.4,-30.4 901.73,-21.59"/>
<polygon fill="#63b8ff" stroke="#63b8ff" points="902.11,-25.09 911.07,-19.45 900.54,-18.27 902.11,-25.09"/>
</a>
</g>
</g>
<!-- Node18&#45;&gt;Node3 -->
<g id="edge40_Node000018_Node000003" class="edge">
<title>Node18&#45;&gt;Node3</title>
<g id="a_edge40_Node000018_Node000003"><a xlink:title=" ">
<path fill="none" stroke="#63b8ff" d="M716.21,-55.59C706.89,-47.85 693.46,-36.69 682.36,-27.47"/>
<polygon fill="#63b8ff" stroke="#63b8ff" points="684.82,-24.96 674.89,-21.27 680.35,-30.35 684.82,-24.96"/>
</a>
</g>
</g>
<!-- Node19&#45;&gt;Node2 -->
<g id="edge42_Node000019_Node000002" class="edge">
<title>Node19&#45;&gt;Node2</title>
<g id="a_edge42_Node000019_Node000002"><a xlink:title=" ">
<path fill="none" stroke="#63b8ff" d="M811.31,-57.6C836.61,-49.01 878.83,-34.67 909.77,-24.16"/>
<polygon fill="#63b8ff" stroke="#63b8ff" points="910.83,-27.5 919.18,-20.97 908.58,-20.87 910.83,-27.5"/>
</a>
</g>
</g>
<!-- Node19&#45;&gt;Node3 -->
<g id="edge43_Node000019_Node000003" class="edge">
<title>Node19&#45;&gt;Node3</title>
<g id="a_edge43_Node000019_Node000003"><a xlink:title=" ">
<path fill="none" stroke="#63b8ff" d="M767.7,-55.72C747.71,-47.22 717.86,-34.52 695.06,-24.83"/>
<polygon fill="#63b8ff" stroke="#63b8ff" points="696.47,-21.63 685.9,-20.93 693.73,-28.07 696.47,-21.63"/>
</a>
</g>
</g>
<!-- Node20&#45;&gt;Node2 -->
<g id="edge45_Node000020_Node000002" class="edge">
<title>Node20&#45;&gt;Node2</title>
<g id="a_edge45_Node000020_Node000002"><a xlink:title=" ">
<path fill="none" stroke="#63b8ff" d="M1088.1,-55.59C1060.64,-46.82 1019.44,-33.66 988.92,-23.9"/>
<polygon fill="#63b8ff" stroke="#63b8ff" points="990.24,-20.65 979.64,-20.94 988.1,-27.32 990.24,-20.65"/>
</a>
</g>
</g>
<!-- Node21&#45;&gt;Node2 -->
<g id="edge47_Node000021_Node000002" class="edge">
<title>Node21&#45;&gt;Node2</title>
<g id="a_edge47_Node000021_Node000002"><a xlink:title=" ">
<path fill="none" stroke="#63b8ff" d="M1029.47,-55.59C1014.66,-47.44 992.97,-35.48 975.77,-26"/>
<polygon fill="#63b8ff" stroke="#63b8ff" points="977.51,-22.97 967.06,-21.21 974.13,-29.1 977.51,-22.97"/>
</a>
</g>
</g>
<!-- Node21&#45;&gt;Node3 -->
<g id="edge48_Node000021_Node000003" class="edge">
<title>Node21&#45;&gt;Node3</title>
<g id="a_edge48_Node000021_Node000003"><a xlink:title=" ">
<path fill="none" stroke="#63b8ff" d="M1024.63,-58.18C1021.59,-57.37 1018.5,-56.62 1015.54,-56 922.23,-36.63 813.21,-24.27 741.28,-17.5"/>
<polygon fill="#63b8ff" stroke="#63b8ff" points="741.85,-14.03 731.57,-16.6 741.21,-21 741.85,-14.03"/>
</a>
</g>
</g>
<!-- Node21&#45;&gt;Node5 -->
<g id="edge49_Node000021_Node000005" class="edge">
<title>Node21&#45;&gt;Node5</title>
<g id="a_edge49_Node000021_Node000005"><a xlink:title=" ">
<path fill="none" stroke="#63b8ff" d="M1068.4,-58.09C1071.13,-57.33 1073.89,-56.61 1076.54,-56 1141.49,-40.93 1216.32,-28.9 1270.87,-21.08"/>
<polygon fill="#63b8ff" stroke="#63b8ff" points="1271.28,-24.56 1280.69,-19.69 1270.3,-17.63 1271.28,-24.56"/>
</a>
</g>
</g>
<!-- Node22&#45;&gt;Node2 -->
<g id="edge51_Node000022_Node000002" class="edge">
<title>Node22&#45;&gt;Node2</title>
<g id="a_edge51_Node000022_Node000002"><a xlink:title=" ">
<path fill="none" stroke="#63b8ff" d="M867.61,-55.59C882.41,-47.44 904.1,-35.48 921.3,-26"/>
<polygon fill="#63b8ff" stroke="#63b8ff" points="922.94,-29.1 930.01,-21.21 919.56,-22.97 922.94,-29.1"/>
</a>
</g>
</g>
<!-- Node22&#45;&gt;Node3 -->
<g id="edge52_Node000022_Node000003" class="edge">
<title>Node22&#45;&gt;Node3</title>
<g id="a_edge52_Node000022_Node000003"><a xlink:title=" ">
<path fill="none" stroke="#63b8ff" d="M828.59,-58.38C825.88,-57.57 823.14,-56.76 820.54,-56 782.21,-44.79 738.55,-32.39 706.86,-23.44"/>
<polygon fill="#63b8ff" stroke="#63b8ff" points="708.2,-20.19 697.63,-20.84 706.3,-26.92 708.2,-20.19"/>
</a>
</g>
</g>
<!-- Node23&#45;&gt;Node2 -->
<g id="edge54_Node000023_Node000002" class="edge">
<title>Node23&#45;&gt;Node2</title>
<g id="a_edge54_Node000023_Node000002"><a xlink:title=" ">
<path fill="none" stroke="#63b8ff" d="M152.92,-57.36C155.83,-56.84 158.73,-56.38 161.54,-56 234.64,-46.14 742.83,-20.97 901.39,-13.27"/>
<polygon fill="#63b8ff" stroke="#63b8ff" points="901.3,-16.78 911.12,-12.8 900.96,-9.79 901.3,-16.78"/>
</a>
</g>
</g>
<!-- Node23&#45;&gt;Node3 -->
<g id="edge55_Node000023_Node000003" class="edge">
<title>Node23&#45;&gt;Node3</title>
<g id="a_edge55_Node000023_Node000003"><a xlink:title=" ">
<path fill="none" stroke="#63b8ff" d="M152.94,-57.46C155.84,-56.92 158.73,-56.42 161.54,-56 309.79,-33.54 484.55,-20.97 583.57,-15.12"/>
<polygon fill="#63b8ff" stroke="#63b8ff" points="583.67,-18.62 593.45,-14.54 583.27,-11.63 583.67,-18.62"/>
</a>
</g>
</g>
<!-- Node23&#45;&gt;Node4 -->
<g id="edge56_Node000023_Node000004" class="edge">
<title>Node23&#45;&gt;Node4</title>
<g id="a_edge56_Node000023_Node000004"><a xlink:title=" ">
<path fill="none" stroke="#63b8ff" d="M126.68,-55.59C132.14,-48.39 139.86,-38.23 146.54,-29.43"/>
<polygon fill="#63b8ff" stroke="#63b8ff" points="149.3,-31.58 152.56,-21.5 143.73,-27.35 149.3,-31.58"/>
</a>
</g>
</g>
<!-- Node24&#45;&gt;Node2 -->
<g id="edge58_Node000024_Node000002" class="edge">
<title>Node24&#45;&gt;Node2</title>
<g id="a_edge58_Node000024_Node000002"><a xlink:title=" ">
<path fill="none" stroke="#63b8ff" d="M1422.99,-58.03C1418.46,-57.3 1413.9,-56.6 1409.54,-56 1259.02,-35.41 1079.61,-20.7 995.91,-14.41"/>
<polygon fill="#63b8ff" stroke="#63b8ff" points="996.25,-10.92 986.02,-13.67 995.73,-17.9 996.25,-10.92"/>
</a>
</g>
</g>
<!-- Node25 -->
<g id="Node000025" class="node">
<title>Node25</title>
<g id="a_Node000025"><a xlink:title=" ">
<polygon fill="#e0e0e0" stroke="#999999" points="1488.41,-20 1432.66,-20 1432.66,0 1488.41,0 1488.41,-20"/>
<text xml:space="preserve" text-anchor="middle" x="1460.54" y="-6.5" font-family="Helvetica,sans-Serif" font-size="10.00">stdbool.h</text>
</a>
</g>
</g>
<!-- Node24&#45;&gt;Node25 -->
<g id="edge59_Node000024_Node000025" class="edge">
<title>Node24&#45;&gt;Node25</title>
<g id="a_edge59_Node000024_Node000025"><a xlink:title=" ">
<path fill="none" stroke="#63b8ff" d="M1460.54,-55.59C1460.54,-49.01 1460.54,-39.96 1460.54,-31.73"/>
<polygon fill="#63b8ff" stroke="#63b8ff" points="1464.04,-31.81 1460.54,-21.81 1457.04,-31.81 1464.04,-31.81"/>
</a>
</g>
</g>
<!-- Node26&#45;&gt;Node2 -->
<g id="edge61_Node000026_Node000002" class="edge">
<title>Node26&#45;&gt;Node2</title>
<g id="a_edge61_Node000026_Node000002"><a xlink:title=" ">
<path fill="none" stroke="#63b8ff" d="M232.25,-61.11C246.6,-59.39 263.92,-57.42 279.54,-56 512.46,-34.74 791.88,-19.13 901.31,-13.4"/>
<polygon fill="#63b8ff" stroke="#63b8ff" points="901.27,-16.91 911.08,-12.89 900.91,-9.92 901.27,-16.91"/>
</a>
</g>
</g>
<!-- Node26&#45;&gt;Node3 -->
<g id="edge62_Node000026_Node000003" class="edge">
<title>Node26&#45;&gt;Node3</title>
<g id="a_edge62_Node000026_Node000003"><a xlink:title=" ">
<path fill="none" stroke="#63b8ff" d="M232.46,-58.44C237.16,-57.55 241.97,-56.7 246.54,-56 363.4,-38.03 499.83,-24.72 583.7,-17.41"/>
<polygon fill="#63b8ff" stroke="#63b8ff" points="583.76,-20.92 593.42,-16.57 583.15,-13.94 583.76,-20.92"/>
</a>
</g>
</g>
<!-- Node26&#45;&gt;Node4 -->
<g id="edge63_Node000026_Node000004" class="edge">
<title>Node26&#45;&gt;Node4</title>
<g id="a_edge63_Node000026_Node000004"><a xlink:title=" ">
<path fill="none" stroke="#63b8ff" d="M194.39,-55.59C188.93,-48.39 181.21,-38.23 174.53,-29.43"/>
<polygon fill="#63b8ff" stroke="#63b8ff" points="177.35,-27.35 168.51,-21.5 171.77,-31.58 177.35,-27.35"/>
</a>
</g>
</g>
<!-- Node27&#45;&gt;Node2 -->
<g id="edge65_Node000027_Node000002" class="edge">
<title>Node27&#45;&gt;Node2</title>
<g id="a_edge65_Node000027_Node000002"><a xlink:title=" ">
<path fill="none" stroke="#63b8ff" d="M1166.78,-56.86C1120.99,-47.24 1044.83,-31.23 995.66,-20.9"/>
<polygon fill="#63b8ff" stroke="#63b8ff" points="996.68,-17.54 986.17,-18.91 995.24,-24.39 996.68,-17.54"/>
</a>
</g>
</g>
<!-- Node28&#45;&gt;Node2 -->
<g id="edge67_Node000028_Node000002" class="edge">
<title>Node28&#45;&gt;Node2</title>
<g id="a_edge67_Node000028_Node000002"><a xlink:title=" ">
<path fill="none" stroke="#63b8ff" d="M1261.55,-58.16C1258.53,-57.37 1255.47,-56.63 1252.54,-56 1162.53,-36.76 1055.79,-23.02 995.74,-16.1"/>
<polygon fill="#63b8ff" stroke="#63b8ff" points="996.2,-12.63 985.87,-14.98 995.41,-19.59 996.2,-12.63"/>
</a>
</g>
</g>
<!-- Node29&#45;&gt;Node2 -->
<g id="edge69_Node000029_Node000002" class="edge">
<title>Node29&#45;&gt;Node2</title>
<g id="a_edge69_Node000029_Node000002"><a xlink:title=" ">
<path fill="none" stroke="#63b8ff" d="M1591.1,-60.67C1574.88,-59.13 1556.38,-57.43 1539.54,-56 1337.35,-38.83 1095.98,-21.41 995.76,-14.31"/>
<polygon fill="#63b8ff" stroke="#63b8ff" points="996.26,-10.84 986.04,-13.63 995.77,-17.82 996.26,-10.84"/>
</a>
</g>
</g>
<!-- Node29&#45;&gt;Node5 -->
<g id="edge70_Node000029_Node000005" class="edge">
<title>Node29&#45;&gt;Node5</title>
<g id="a_edge70_Node000029_Node000005"><a xlink:title=" ">
<path fill="none" stroke="#63b8ff" d="M1591.17,-56.68C1542.41,-47.54 1463.76,-32.79 1409.06,-22.54"/>
<polygon fill="#63b8ff" stroke="#63b8ff" points="1409.73,-19.1 1399.26,-20.7 1408.44,-25.98 1409.73,-19.1"/>
</a>
</g>
</g>
</g>
</svg>

<g id="navigator" transform="translate(0 0)" fill="#404254">
  <rect fill="#f2f5e9" fill-opacity="0.5" stroke="#606060" stroke-width=".5" x="0" y="0" width="60" height="60"/>
  <use id="zoomplus" xlink:href="#zoomPlus" x="17" y="9" onmousedown="handleZoom(evt,'in')"/>
  <use id="zoomminus" xlink:href="#zoomMin" x="42" y="9" onmousedown="handleZoom(evt,'out')"/>
  <use id="reset" xlink:href="#resetDef" x="30" y="36" onmousedown="handleReset()"/>
   <use id="arrowup" xlink:href="#arrowUp" x="0" y="0" onmousedown="handlePan(0,-1)"/>
  <use id="arrowright" xlink:href="#arrowRight" x="0" y="0" onmousedown="handlePan(1,0)"/>
  <use id="arrowdown" xlink:href="#arrowDown" x="0" y="0" onmousedown="handlePan(0,1)"/>
  <use id="arrowleft" xlink:href="#arrowLeft" x="0" y="0" onmousedown="handlePan(-1,0)"/>
</g>
<svg viewBox="0 0 15 15" width="100%" height="30px" preserveAspectRatio="xMaxYMin meet">
 <g id="arrow_out" transform="scale(0.3 0.3)">
  <a xlink:href="pause_8c__incl_org.svg" target="_base">
   <rect id="button" ry="5" rx="5" y="6" x="6" height="38" width="38"
        fill="#f2f5e9" fill-opacity="0.5" stroke="#606060" stroke-width="1.0"/>
   <path id="arrow"
     d="M 11.500037,31.436501 C 11.940474,20.09759 22.043105,11.32322 32.158766,21.979434 L 37.068811,17.246167 C 37.068811,17.246167 37.088388,32 37.088388,32 L 22.160133,31.978069 C 22.160133,31.978069 26.997745,27.140456 26.997745,27.140456 C 18.528582,18.264221 13.291696,25.230495 11.500037,31.436501 z"
     style="fill:#404040;"/>
  </a>
 </g>
</svg>

<style type='text/css'>
<![CDATA[
[data-mouse-over-selected='false'] { opacity: 0.7; }
[data-mouse-over-selected='true']  { opacity: 1.0; }
]]>
</style>
<script type="application/ecmascript"><![CDATA[
document.addEventListener('DOMContentLoaded', (event) => {
  highlightEdges();
  highlightAdjacentNodes();
});
]]></script>
</svg>
