<?xml version="1.0" encoding="UTF-8" standalone="no"?>
<!DOCTYPE svg PUBLIC "-//W3C//DTD SVG 1.1//EN"
 "http://www.w3.org/Graphics/SVG/1.1/DTD/svg11.dtd">
<!-- Generated by graphviz version 14.1.4 (20260321.0153)
 -->
<!-- Title: afficher_pause Pages: 1 -->
<!--zoomable 408 -->

<svg id="main" version="1.1" xmlns="http://www.w3.org/2000/svg" xmlns:xlink="http://www.w3.org/1999/xlink" xml:space="preserve" onload="init(evt)">

<style type="text/css"><![CDATA[
.node, .edge {opacity: 0.7;}
.node.selected, .edge.selected {opacity: 1;}
.edge:hover path { stroke: red; }
.edge:hover polygon { stroke: red; fill: red; }
]]></style>

<defs>
  <circle id="rim" cx="0" cy="0" r="7"/>
  <circle id="rim2" cx="0" cy="0" r="3.5"/>
  <g id="zoomPlus">
    <use xlink:href="#rim" fill="#404040"><set attributeName="fill" to="#808080" begin="zoomplus.mouseover" end="zoomplus.mouseout"/></use>
    <path d="M-4,0h8M0,-4v8" fill="none" stroke="white" stroke-width="1.5" pointer-events="none"/>
  </g>
  <g id="zoomMin">
    <use xlink:href="#rim" fill="#404040"><set attributeName="fill" to="#808080" begin="zoomminus.mouseover" end="zoomminus.mouseout"/></use>
    <path d="M-4,0h8" fill="none" stroke="white" stroke-width="1.5" pointer-events="none"/>
  </g>
  <g id="arrowUp" transform="translate(30 24)">
    <use xlink:href="#rim"/>
    <path pointer-events="none" fill="none" stroke="white" stroke-width="1.5" d="M0,-3.0v7 M-2.5,-0.5L0,-3.0L2.5,-0.5"/>
  </g>
  <g id="arrowRight" transform="rotate(90) translate(36 -43)">
    <use xlink:href="#rim"/>
    <path pointer-events="none" fill="none" stroke="white" stroke-width="1.5" d="M0,-3.0v7 M-2.5,-0.5L0,-3.0L2.5,-0.5"/>
  </g>
  <g id="arrowDown" transform="rotate(180) translate(-30 -48)">
    <use xlink:href="#rim"/>
    <path pointer-events="none" fill="none" stroke="white" stroke-width="1.5" d="M0,-3.0v7 M-2.5,-0.5L0,-3.0L2.5,-0.5"/>
  </g>
  <g id="arrowLeft" transform="rotate(270) translate(-36 17)">
    <use xlink:href="#rim"/>
    <path pointer-events="none" fill="none" stroke="white" stroke-width="1.5" d="M0,-3.0v7 M-2.5,-0.5L0,-3.0L2.5,-0.5"/>
  </g>
  <g id="resetDef">
    <use xlink:href="#rim2" fill="#404040"><set attributeName="fill" to="#808080" begin="reset.mouseover" end="reset.mouseout"/></use>
  </g>
</defs>
<script type="application/ecmascript">
var viewWidth = 527;
var viewHeight = 408;
var sectionId = 'dynsection-1';
</script>
<script type="application/ecmascript" xlink:href="svg.min.js"/>
<svg id="graph" class="graph">
<g id="viewport">
<title>afficher_pause</title>
<!-- Node1 -->
<g id="Node000001" class="node">
<title>Node1</title>
<g id="a_Node000001"><a xlink:title="Affiche pause et met a jour les elements visuels associes.">
<polygon fill="#999999" stroke="#666666" points="79,-191 0,-191 0,-171 79,-171 79,-191"/>
<text xml:space="preserve" text-anchor="middle" x="39.5" y="-177.5" font-family="Helvetica,sans-Serif" font-size="10.00">afficher_pause</text>
</a>
</g>
</g>
<!-- Node2 -->
<g id="Node000002" class="node">
<title>Node2</title>
<g id="a_Node000002"><a xlink:href="option_8c.html#ac77b6b0f042469d82d75b270f5193806" target="_top" xlink:title="Affiche option et met a jour les elements visuels associes.">
<polygon fill="white" stroke="#666666" points="215,-172 136,-172 136,-152 215,-152 215,-172"/>
<text xml:space="preserve" text-anchor="middle" x="175.5" y="-158.5" font-family="Helvetica,sans-Serif" font-size="10.00">afficher_option</text>
</a>
</g>
</g>
<!-- Node1&#45;&gt;Node2 -->
<g id="edge1_Node000001_Node000002" class="edge">
<title>Node1&#45;&gt;Node2</title>
<g id="a_edge1_Node000001_Node000002"><a xlink:title=" ">
<path fill="none" stroke="#63b8ff" d="M79.26,-175.5C93.43,-173.5 109.65,-171.19 124.65,-169.07"/>
<polygon fill="#63b8ff" stroke="#63b8ff" points="124.92,-172.57 134.33,-167.7 123.94,-165.63 124.92,-172.57"/>
</a>
</g>
</g>
<!-- Node3 -->
<g id="Node000003" class="node">
<title>Node3</title>
<g id="a_Node000003"><a xlink:href="bouton_8c.html#af33c1c08b52d3d015ff6f7039a9734ee" target="_top" xlink:title="Affiche texte centre et met a jour les elements visuels associes.">
<polygon fill="white" stroke="#666666" points="390,-324 283.25,-324 283.25,-304 390,-304 390,-324"/>
<text xml:space="preserve" text-anchor="middle" x="336.62" y="-310.5" font-family="Helvetica,sans-Serif" font-size="10.00">afficher_texte_centre</text>
</a>
</g>
</g>
<!-- Node1&#45;&gt;Node3 -->
<g id="edge11_Node000001_Node000003" class="edge">
<title>Node1&#45;&gt;Node3</title>
<g id="a_edge11_Node000001_Node000003"><a xlink:title=" ">
<path fill="none" stroke="#63b8ff" d="M41.84,-191.2C46.21,-219.76 62.88,-300.5 115,-333 141.25,-349.37 221.67,-337.65 277.79,-326.69"/>
<polygon fill="#63b8ff" stroke="#63b8ff" points="278.41,-330.13 287.53,-324.74 277.04,-323.27 278.41,-330.13"/>
</a>
</g>
</g>
<!-- Node4 -->
<g id="Node000004" class="node">
<title>Node4</title>
<g id="a_Node000004"><a xlink:href="bouton_8c.html#a11f55905044ef2518b8c38311df3c48d" target="_top" xlink:title="Dessine la texture du bouton dans son rectangle d&#39;affichage.">
<polygon fill="white" stroke="#666666" points="379.12,-286 294.12,-286 294.12,-266 379.12,-266 379.12,-286"/>
<text xml:space="preserve" text-anchor="middle" x="336.62" y="-272.5" font-family="Helvetica,sans-Serif" font-size="10.00">Bouton_Afficher</text>
</a>
</g>
</g>
<!-- Node1&#45;&gt;Node4 -->
<g id="edge12_Node000001_Node000004" class="edge">
<title>Node1&#45;&gt;Node4</title>
<g id="a_edge12_Node000001_Node000004"><a xlink:title=" ">
<path fill="none" stroke="#63b8ff" d="M53.41,-191.41C67.66,-202.39 91.67,-219.38 115,-229 169.74,-251.57 236.77,-263.88 282.49,-270.17"/>
<polygon fill="#63b8ff" stroke="#63b8ff" points="281.76,-273.6 292.13,-271.44 282.67,-266.66 281.76,-273.6"/>
</a>
</g>
</g>
<!-- Node5 -->
<g id="Node000005" class="node">
<title>Node5</title>
<g id="a_Node000005"><a xlink:href="bouton_8c.html#ab4862740c43f8a9abb996fff0aba5ca1" target="_top" xlink:title="Met a jour l&#39;etat du bouton a partir d&#39;un evenement SDL.">
<polygon fill="white" stroke="#666666" points="399.38,-248 273.88,-248 273.88,-228 399.38,-228 399.38,-248"/>
<text xml:space="preserve" text-anchor="middle" x="336.62" y="-234.5" font-family="Helvetica,sans-Serif" font-size="10.00">Bouton_GererEvenement</text>
</a>
</g>
</g>
<!-- Node1&#45;&gt;Node5 -->
<g id="edge13_Node000001_Node000005" class="edge">
<title>Node1&#45;&gt;Node5</title>
<g id="a_edge13_Node000001_Node000005"><a xlink:title=" ">
<path fill="none" stroke="#63b8ff" d="M70.67,-191.42C84.12,-195.77 100.23,-200.6 115,-204 163.71,-215.21 219.34,-223.75 262.55,-229.47"/>
<polygon fill="#63b8ff" stroke="#63b8ff" points="261.96,-232.93 272.32,-230.74 262.86,-225.98 261.96,-232.93"/>
</a>
</g>
</g>
<!-- Node7 -->
<g id="Node000007" class="node">
<title>Node7</title>
<g id="a_Node000007"><a xlink:href="bouton_8c.html#a482b1feb9004901d0544e64b1c44051c" target="_top" xlink:title="Initialise un bouton (zone, texture et etat d&#39;interaction).">
<polygon fill="white" stroke="#666666" points="369.38,-210 303.88,-210 303.88,-190 369.38,-190 369.38,-210"/>
<text xml:space="preserve" text-anchor="middle" x="336.62" y="-196.5" font-family="Helvetica,sans-Serif" font-size="10.00">Bouton_Init</text>
</a>
</g>
</g>
<!-- Node1&#45;&gt;Node7 -->
<g id="edge14_Node000001_Node000007" class="edge">
<title>Node1&#45;&gt;Node7</title>
<g id="a_edge14_Node000001_Node000007"><a xlink:title=" ">
<path fill="none" stroke="#63b8ff" d="M79.39,-183.5C134.44,-187.05 234.8,-193.51 292.22,-197.21"/>
<polygon fill="#63b8ff" stroke="#63b8ff" points="291.73,-200.68 301.94,-197.83 292.18,-193.7 291.73,-200.68"/>
</a>
</g>
</g>
<!-- Node12 -->
<g id="Node000012" class="node">
<title>Node12</title>
<g id="a_Node000012"><a xlink:href="son_8c.html#a034468875b501292a7c8520c6b6a02de" target="_top" xlink:title="Met en pause une piste audio si elle est valide.">
<polygon fill="white" stroke="#666666" points="207.12,-134 143.88,-134 143.88,-114 207.12,-114 207.12,-134"/>
<text xml:space="preserve" text-anchor="middle" x="175.5" y="-120.5" font-family="Helvetica,sans-Serif" font-size="10.00">pause_son</text>
</a>
</g>
</g>
<!-- Node1&#45;&gt;Node12 -->
<g id="edge15_Node000001_Node000012" class="edge">
<title>Node1&#45;&gt;Node12</title>
<g id="a_edge15_Node000001_Node000012"><a xlink:title=" ">
<path fill="none" stroke="#63b8ff" d="M58.78,-170.62C73.63,-162.45 95.26,-151.12 115,-143 120.7,-140.65 126.81,-138.41 132.86,-136.34"/>
<polygon fill="#63b8ff" stroke="#63b8ff" points="133.73,-139.74 142.14,-133.3 131.55,-133.09 133.73,-139.74"/>
</a>
</g>
</g>
<!-- Node13 -->
<g id="Node000013" class="node">
<title>Node13</title>
<g id="a_Node000013"><a xlink:href="son_8c.html#a70ea47d9c00bc921d67e4bea89f0ee4b" target="_top" xlink:title="Reprend une piste si le son global et la categorie associee sont actifs.">
<polygon fill="white" stroke="#666666" points="214.25,-96 136.75,-96 136.75,-76 214.25,-76 214.25,-96"/>
<text xml:space="preserve" text-anchor="middle" x="175.5" y="-82.5" font-family="Helvetica,sans-Serif" font-size="10.00">reprendre_son</text>
</a>
</g>
</g>
<!-- Node1&#45;&gt;Node13 -->
<g id="edge16_Node000001_Node000013" class="edge">
<title>Node1&#45;&gt;Node13</title>
<g id="a_edge16_Node000001_Node000013"><a xlink:title=" ">
<path fill="none" stroke="#63b8ff" d="M48,-170.58C60.23,-154.29 86.06,-122.83 115,-105 118.48,-102.85 122.23,-100.93 126.09,-99.2"/>
<polygon fill="#63b8ff" stroke="#63b8ff" points="127.04,-102.59 135.05,-95.66 124.47,-96.08 127.04,-102.59"/>
</a>
</g>
</g>
<!-- Node14 -->
<g id="Node000014" class="node">
<title>Node14</title>
<g id="a_Node000014"><a xlink:href="sauvegarde_8c.html#ae251037c85a5a7d8172c206539398f49" target="_top" xlink:title="Affiche l&#39;interface de selection de slot (chargement ou sauvegarde).">
<polygon fill="white" stroke="#666666" points="236,-324 115,-324 115,-304 236,-304 236,-324"/>
<text xml:space="preserve" text-anchor="middle" x="175.5" y="-310.5" font-family="Helvetica,sans-Serif" font-size="10.00">sauvegarde_choisir_slot</text>
</a>
</g>
</g>
<!-- Node1&#45;&gt;Node14 -->
<g id="edge17_Node000001_Node000014" class="edge">
<title>Node1&#45;&gt;Node14</title>
<g id="a_edge17_Node000001_Node000014"><a xlink:title=" ">
<path fill="none" stroke="#63b8ff" d="M44.94,-191.19C54.66,-212.41 79.81,-261.7 115,-290 119.17,-293.36 123.88,-296.3 128.77,-298.87"/>
<polygon fill="#63b8ff" stroke="#63b8ff" points="127.04,-301.92 137.59,-302.97 130,-295.58 127.04,-301.92"/>
</a>
</g>
</g>
<!-- Node17 -->
<g id="Node000017" class="node">
<title>Node17</title>
<g id="a_Node000017"><a xlink:href="sauvegarde_8c.html#af41024137aa5cec5baf4cef86ae63bd8" target="_top" xlink:title="Serialize l&#39;etat de partie courant dans le slot cible.">
<polygon fill="white" stroke="#666666" points="235.25,-58 115.75,-58 115.75,-38 235.25,-38 235.25,-58"/>
<text xml:space="preserve" text-anchor="middle" x="175.5" y="-44.5" font-family="Helvetica,sans-Serif" font-size="10.00">sauvegarder_partie_slot</text>
</a>
</g>
</g>
<!-- Node1&#45;&gt;Node17 -->
<g id="edge24_Node000001_Node000017" class="edge">
<title>Node1&#45;&gt;Node17</title>
<g id="a_edge24_Node000001_Node000017"><a xlink:title=" ">
<path fill="none" stroke="#63b8ff" d="M44.37,-170.8C53.31,-148.57 77.56,-95.49 115,-67 116.54,-65.83 118.16,-64.72 119.83,-63.69"/>
<polygon fill="#63b8ff" stroke="#63b8ff" points="121.3,-66.87 128.57,-59.16 118.08,-60.65 121.3,-66.87"/>
</a>
</g>
</g>
<!-- Node18 -->
<g id="Node000018" class="node">
<title>Node18</title>
<g id="a_Node000018"><a xlink:href="son_8c.html#a1a3616f7218893fdf54329eac9298f6b" target="_top" xlink:title="Indique si l&#39;audio global du jeu est active.">
<polygon fill="white" stroke="#666666" points="212.75,-20 138.25,-20 138.25,0 212.75,0 212.75,-20"/>
<text xml:space="preserve" text-anchor="middle" x="175.5" y="-6.5" font-family="Helvetica,sans-Serif" font-size="10.00">son_est_actif</text>
</a>
</g>
</g>
<!-- Node1&#45;&gt;Node18 -->
<g id="edge25_Node000001_Node000018" class="edge">
<title>Node1&#45;&gt;Node18</title>
<g id="a_edge25_Node000001_Node000018"><a xlink:title=" ">
<path fill="none" stroke="#63b8ff" d="M42.58,-170.79C48.66,-143.6 68.95,-68.75 115,-29 118.65,-25.85 122.82,-23.22 127.23,-21.03"/>
<polygon fill="#63b8ff" stroke="#63b8ff" points="128.5,-24.29 136.4,-17.24 125.82,-17.82 128.5,-24.29"/>
</a>
</g>
</g>
<!-- Node2&#45;&gt;Node3 -->
<g id="edge2_Node000002_Node000003" class="edge">
<title>Node2&#45;&gt;Node3</title>
<g id="a_edge2_Node000002_Node000003"><a xlink:title=" ">
<path fill="none" stroke="#63b8ff" d="M181.04,-172.44C192.49,-197.5 225.01,-261.51 272,-295 273.8,-296.28 275.68,-297.47 277.62,-298.59"/>
<polygon fill="#63b8ff" stroke="#63b8ff" points="275.9,-301.64 286.42,-302.86 278.96,-295.34 275.9,-301.64"/>
</a>
</g>
</g>
<!-- Node2&#45;&gt;Node4 -->
<g id="edge3_Node000002_Node000004" class="edge">
<title>Node2&#45;&gt;Node4</title>
<g id="a_edge3_Node000002_Node000004"><a xlink:title=" ">
<path fill="none" stroke="#63b8ff" d="M183.96,-172.24C198.63,-191.65 233.21,-233.93 272,-257 275.53,-259.1 279.3,-260.98 283.19,-262.66"/>
<polygon fill="#63b8ff" stroke="#63b8ff" points="281.65,-265.82 292.24,-266.14 284.15,-259.28 281.65,-265.82"/>
</a>
</g>
</g>
<!-- Node2&#45;&gt;Node5 -->
<g id="edge4_Node000002_Node000005" class="edge">
<title>Node2&#45;&gt;Node5</title>
<g id="a_edge4_Node000002_Node000005"><a xlink:title=" ">
<path fill="none" stroke="#63b8ff" d="M191.1,-172.28C209.32,-184.74 241.77,-205.71 272,-219 275.98,-220.75 280.17,-222.4 284.42,-223.93"/>
<polygon fill="#63b8ff" stroke="#63b8ff" points="283,-227.15 293.6,-227.04 285.25,-220.52 283,-227.15"/>
</a>
</g>
</g>
<!-- Node2&#45;&gt;Node7 -->
<g id="edge6_Node000002_Node000007" class="edge">
<title>Node2&#45;&gt;Node7</title>
<g id="a_edge6_Node000002_Node000007"><a xlink:title=" ">
<path fill="none" stroke="#63b8ff" d="M215.43,-171.3C238.78,-176.87 268.52,-183.97 292.57,-189.72"/>
<polygon fill="#63b8ff" stroke="#63b8ff" points="291.51,-193.06 302.05,-191.98 293.14,-186.25 291.51,-193.06"/>
</a>
</g>
</g>
<!-- Node8 -->
<g id="Node000008" class="node">
<title>Node8</title>
<g id="a_Node000008"><a xlink:href="son_8c.html#ac32eff9d3cca9f4d196044b77e8be773" target="_top" xlink:title="Indique si la categorie ambiance/musique est active.">
<polygon fill="white" stroke="#666666" points="401.25,-172 272,-172 272,-152 401.25,-152 401.25,-172"/>
<text xml:space="preserve" text-anchor="middle" x="336.62" y="-158.5" font-family="Helvetica,sans-Serif" font-size="10.00">son_ambiance_est_active</text>
</a>
</g>
</g>
<!-- Node2&#45;&gt;Node8 -->
<g id="edge7_Node000002_Node000008" class="edge">
<title>Node2&#45;&gt;Node8</title>
<g id="a_edge7_Node000002_Node000008"><a xlink:title=" ">
<path fill="none" stroke="#63b8ff" d="M215.43,-162C229.05,-162 244.85,-162 260.42,-162"/>
<polygon fill="#63b8ff" stroke="#63b8ff" points="260.17,-165.5 270.17,-162 260.17,-158.5 260.17,-165.5"/>
</a>
</g>
</g>
<!-- Node9 -->
<g id="Node000009" class="node">
<title>Node9</title>
<g id="a_Node000009"><a xlink:href="son_8c.html#a8a52d99b75360359dcdc073a5617eadf" target="_top" xlink:title="Active ou desactive uniquement les pistes d&#39;ambiance.">
<polygon fill="white" stroke="#666666" points="391.88,-134 281.38,-134 281.38,-102 391.88,-102 391.88,-134"/>
<text xml:space="preserve" text-anchor="start" x="289.38" y="-120.5" font-family="Helvetica,sans-Serif" font-size="10.00">son_definir_ambiance</text>
<text xml:space="preserve" text-anchor="middle" x="336.62" y="-108.5" font-family="Helvetica,sans-Serif" font-size="10.00">_active</text>
</a>
</g>
</g>
<!-- Node2&#45;&gt;Node9 -->
<g id="edge8_Node000002_Node000009" class="edge">
<title>Node2&#45;&gt;Node9</title>
<g id="a_edge8_Node000002_Node000009"><a xlink:title=" ">
<path fill="none" stroke="#63b8ff" d="M214.21,-151.57C230.88,-146.96 250.98,-141.41 269.99,-136.15"/>
<polygon fill="#63b8ff" stroke="#63b8ff" points="270.85,-139.54 279.56,-133.5 268.98,-132.8 270.85,-139.54"/>
</a>
</g>
</g>
<!-- Node10 -->
<g id="Node000010" class="node">
<title>Node10</title>
<g id="a_Node000010"><a xlink:href="son_8c.html#af5a69f840820938ab962a3371bd3f929" target="_top" xlink:title="Active ou desactive uniquement les effets sonores (SFX).">
<polygon fill="white" stroke="#666666" points="393.38,-84 279.88,-84 279.88,-64 393.38,-64 393.38,-84"/>
<text xml:space="preserve" text-anchor="middle" x="336.62" y="-70.5" font-family="Helvetica,sans-Serif" font-size="10.00">son_definir_sfx_active</text>
</a>
</g>
</g>
<!-- Node2&#45;&gt;Node10 -->
<g id="edge9_Node000002_Node000010" class="edge">
<title>Node2&#45;&gt;Node10</title>
<g id="a_edge9_Node000002_Node000010"><a xlink:title=" ">
<path fill="none" stroke="#63b8ff" d="M215.36,-153.55C222.63,-150.9 229.86,-147.46 236,-143 258.16,-126.91 249.69,-108.88 272,-93 273.8,-91.72 275.68,-90.53 277.63,-89.41"/>
<polygon fill="#63b8ff" stroke="#63b8ff" points="278.96,-92.66 286.42,-85.14 275.9,-86.36 278.96,-92.66"/>
</a>
</g>
</g>
<!-- Node11 -->
<g id="Node000011" class="node">
<title>Node11</title>
<g id="a_Node000011"><a xlink:href="son_8c.html#ae2e2d99b70e1f3a05cb7120d267202f4" target="_top" xlink:title="Indique si la categorie SFX est active.">
<polygon fill="white" stroke="#666666" points="383.25,-46 290,-46 290,-26 383.25,-26 383.25,-46"/>
<text xml:space="preserve" text-anchor="middle" x="336.62" y="-32.5" font-family="Helvetica,sans-Serif" font-size="10.00">son_sfx_est_actif</text>
</a>
</g>
</g>
<!-- Node2&#45;&gt;Node11 -->
<g id="edge10_Node000002_Node000011" class="edge">
<title>Node2&#45;&gt;Node11</title>
<g id="a_edge10_Node000002_Node000011"><a xlink:title=" ">
<path fill="none" stroke="#63b8ff" d="M215.33,-154.99C222.85,-152.22 230.19,-148.37 236,-143 267.04,-114.33 240.69,-83.38 272,-55 274.28,-52.93 276.78,-51.09 279.43,-49.44"/>
<polygon fill="#63b8ff" stroke="#63b8ff" points="280.85,-52.65 288.18,-45.01 277.68,-46.4 280.85,-52.65"/>
</a>
</g>
</g>
<!-- Node6 -->
<g id="Node000006" class="node">
<title>Node6</title>
<g id="a_Node000006"><a xlink:href="bouton_8c.html#a273a0b22067678e17b3e6b4be36e3641" target="_top" xlink:title=" ">
<polygon fill="white" stroke="#666666" points="518.5,-248 437.25,-248 437.25,-228 518.5,-228 518.5,-248"/>
<text xml:space="preserve" text-anchor="middle" x="477.88" y="-234.5" font-family="Helvetica,sans-Serif" font-size="10.00">pointDansRect</text>
</a>
</g>
</g>
<!-- Node5&#45;&gt;Node6 -->
<g id="edge5_Node000005_Node000006" class="edge">
<title>Node5&#45;&gt;Node6</title>
<g id="a_edge5_Node000005_Node000006"><a xlink:title=" ">
<path fill="none" stroke="#63b8ff" d="M399.51,-238C408.2,-238 417.05,-238 425.52,-238"/>
<polygon fill="#63b8ff" stroke="#63b8ff" points="425.26,-241.5 435.26,-238 425.26,-234.5 425.26,-241.5"/>
</a>
</g>
</g>
<!-- Node14&#45;&gt;Node3 -->
<g id="edge18_Node000014_Node000003" class="edge">
<title>Node14&#45;&gt;Node3</title>
<g id="a_edge18_Node000014_Node000003"><a xlink:title=" ">
<path fill="none" stroke="#63b8ff" d="M236.21,-314C247.71,-314 259.81,-314 271.46,-314"/>
<polygon fill="#63b8ff" stroke="#63b8ff" points="271.4,-317.5 281.4,-314 271.4,-310.5 271.4,-317.5"/>
</a>
</g>
</g>
<!-- Node14&#45;&gt;Node4 -->
<g id="edge19_Node000014_Node000004" class="edge">
<title>Node14&#45;&gt;Node4</title>
<g id="a_edge19_Node000014_Node000004"><a xlink:title=" ">
<path fill="none" stroke="#63b8ff" d="M220.4,-303.52C239.73,-298.9 262.6,-293.44 282.84,-288.6"/>
<polygon fill="#63b8ff" stroke="#63b8ff" points="283.4,-292.07 292.31,-286.34 281.77,-285.26 283.4,-292.07"/>
</a>
</g>
</g>
<!-- Node14&#45;&gt;Node5 -->
<g id="edge20_Node000014_Node000005" class="edge">
<title>Node14&#45;&gt;Node5</title>
<g id="a_edge20_Node000014_Node000005"><a xlink:title=" ">
<path fill="none" stroke="#63b8ff" d="M191.1,-303.72C209.32,-291.26 241.77,-270.29 272,-257 275.98,-255.25 280.17,-253.6 284.42,-252.07"/>
<polygon fill="#63b8ff" stroke="#63b8ff" points="285.25,-255.48 293.6,-248.96 283,-248.85 285.25,-255.48"/>
</a>
</g>
</g>
<!-- Node14&#45;&gt;Node7 -->
<g id="edge21_Node000014_Node000007" class="edge">
<title>Node14&#45;&gt;Node7</title>
<g id="a_edge21_Node000014_Node000007"><a xlink:title=" ">
<path fill="none" stroke="#63b8ff" d="M183.96,-303.76C198.63,-284.35 233.21,-242.07 272,-219 278.38,-215.2 285.58,-212.12 292.78,-209.62"/>
<polygon fill="#63b8ff" stroke="#63b8ff" points="293.64,-213.02 302.16,-206.72 291.57,-206.33 293.64,-213.02"/>
</a>
</g>
</g>
<!-- Node15 -->
<g id="Node000015" class="node">
<title>Node15</title>
<g id="a_Node000015"><a xlink:href="sauvegarde_8c.html#a590205a1d58df634530e608349c8dc6f" target="_top" xlink:title="Verifie si un fichier de sauvegarde existe pour un slot donne.">
<polygon fill="white" stroke="#666666" points="396,-400 277.25,-400 277.25,-380 396,-380 396,-400"/>
<text xml:space="preserve" text-anchor="middle" x="336.62" y="-386.5" font-family="Helvetica,sans-Serif" font-size="10.00">sauvegarde_slot_existe</text>
</a>
</g>
</g>
<!-- Node14&#45;&gt;Node15 -->
<g id="edge22_Node000014_Node000015" class="edge">
<title>Node14&#45;&gt;Node15</title>
<g id="a_edge22_Node000014_Node000015"><a xlink:title=" ">
<path fill="none" stroke="#63b8ff" d="M191.1,-324.28C209.32,-336.74 241.77,-357.71 272,-371 275.98,-372.75 280.17,-374.4 284.42,-375.93"/>
<polygon fill="#63b8ff" stroke="#63b8ff" points="283,-379.15 293.6,-379.04 285.25,-372.52 283,-379.15"/>
</a>
</g>
</g>
<!-- Node16 -->
<g id="Node000016" class="node">
<title>Node16</title>
<g id="a_Node000016"><a xlink:href="main_8c.html#a82958224f33fa21d40f4f7965f8396bc" target="_top" xlink:title="Met a jour screen metrics en fonction de l&#39;etat courant du jeu.">
<polygon fill="white" stroke="#666666" points="395.25,-362 278,-362 278,-342 395.25,-342 395.25,-362"/>
<text xml:space="preserve" text-anchor="middle" x="336.62" y="-348.5" font-family="Helvetica,sans-Serif" font-size="10.00">update_screen_metrics</text>
</a>
</g>
</g>
<!-- Node14&#45;&gt;Node16 -->
<g id="edge23_Node000014_Node000016" class="edge">
<title>Node14&#45;&gt;Node16</title>
<g id="a_edge23_Node000014_Node000016"><a xlink:title=" ">
<path fill="none" stroke="#63b8ff" d="M220.4,-324.48C239.1,-328.95 261.11,-334.21 280.85,-338.92"/>
<polygon fill="#63b8ff" stroke="#63b8ff" points="279.85,-342.28 290.39,-341.2 281.48,-335.47 279.85,-342.28"/>
</a>
</g>
</g>
</g>
</svg>

<g id="navigator" transform="translate(0 0)" fill="#404254">
  <rect fill="#f2f5e9" fill-opacity="0.5" stroke="#606060" stroke-width=".5" x="0" y="0" width="60" height="60"/>
  <use id="zoomplus" xlink:href="#zoomPlus" x="17" y="9" onmousedown="handleZoom(evt,'in')"/>
  <use id="zoomminus" xlink:href="#zoomMin" x="42" y="9" onmousedown="handleZoom(evt,'out')"/>
  <use id="reset" xlink:href="#resetDef" x="30" y="36" onmousedown="handleReset()"/>
   <use id="arrowup" xlink:href="#arrowUp" x="0" y="0" onmousedown="handlePan(0,-1)"/>
  <use id="arrowright" xlink:href="#arrowRight" x="0" y="0" onmousedown="handlePan(1,0)"/>
  <use id="arrowdown" xlink:href="#arrowDown" x="0" y="0" onmousedown="handlePan(0,1)"/>
  <use id="arrowleft" xlink:href="#arrowLeft" x="0" y="0" onmousedown="handlePan(-1,0)"/>
</g>
<svg viewBox="0 0 15 15" width="100%" height="30px" preserveAspectRatio="xMaxYMin meet">
 <g id="arrow_out" transform="scale(0.3 0.3)">
  <a xlink:href="pause_8c_abc45a9e3a6a57d6f0f44706bd52e556d_cgraph_org.svg" target="_base">
   <rect id="button" ry="5" rx="5" y="6" x="6" height="38" width="38"
        fill="#f2f5e9" fill-opacity="0.5" stroke="#606060" stroke-width="1.0"/>
   <path id="arrow"
     d="M 11.500037,31.436501 C 11.940474,20.09759 22.043105,11.32322 32.158766,21.979434 L 37.068811,17.246167 C 37.068811,17.246167 37.088388,32 37.088388,32 L 22.160133,31.978069 C 22.160133,31.978069 26.997745,27.140456 26.997745,27.140456 C 18.528582,18.264221 13.291696,25.230495 11.500037,31.436501 z"
     style="fill:#404040;"/>
  </a>
 </g>
</svg>

<style type='text/css'>
<![CDATA[
[data-mouse-over-selected='false'] { opacity: 0.7; }
[data-mouse-over-selected='true']  { opacity: 1.0; }
]]>
</style>
<script type="application/ecmascript"><![CDATA[
document.addEventListener('DOMContentLoaded', (event) => {
  highlightEdges();
  highlightAdjacentNodes();
});
]]></script>
</svg>
