<?xml version="1.0" encoding="UTF-8" standalone="no"?>
<!DOCTYPE svg PUBLIC "-//W3C//DTD SVG 1.1//EN"
 "http://www.w3.org/Graphics/SVG/1.1/DTD/svg11.dtd">
<!-- Generated by graphviz version 14.1.4 (20260321.0153)
 -->
<!-- Title: test_collision Pages: 1 -->
<svg width="534pt" height="142pt"
 viewBox="0.00 0.00 534.00 142.00" xmlns="http://www.w3.org/2000/svg" xmlns:xlink="http://www.w3.org/1999/xlink">
<g id="graph0" class="graph" transform="scale(1 1) rotate(0) translate(4 138)">
<title>test_collision</title>
<!-- Node1 -->
<g id="Node000001" class="node">
<title>Node1</title>
<g id="a_Node000001"><a xlink:title="Verifie collision et retourne le resultat du test.">
<polygon fill="#999999" stroke="#666666" points="525.5,-77 452.5,-77 452.5,-57 525.5,-57 525.5,-77"/>
<text xml:space="preserve" text-anchor="middle" x="489" y="-63.5" font-family="Helvetica,sans-Serif" font-size="10.00">test_collision</text>
</a>
</g>
</g>
<!-- Node2 -->
<g id="Node000002" class="node">
<title>Node2</title>
<g id="a_Node000002"><a xlink:href="mob_8c.html#af2bb33cec05837a53c00e0f901d38c68" target="_top" xlink:title="Initialise mobs et prepare les ressources necessaires.">
<polygon fill="white" stroke="#666666" points="386.12,-134 328.12,-134 328.12,-114 386.12,-114 386.12,-134"/>
<text xml:space="preserve" text-anchor="middle" x="357.12" y="-120.5" font-family="Helvetica,sans-Serif" font-size="10.00">init_mobs</text>
</a>
</g>
</g>
<!-- Node1&#45;&gt;Node2 -->
<g id="edge1_Node000001_Node000002" class="edge">
<title>Node1&#45;&gt;Node2</title>
<g id="a_edge1_Node000001_Node000002"><a xlink:title=" ">
<path fill="none" stroke="#63b8ff" d="M455.69,-82.26C443.47,-87.95 429.39,-94.38 416.5,-100 405.95,-104.6 394.24,-109.46 384.09,-113.6"/>
<polygon fill="#63b8ff" stroke="#63b8ff" points="456.94,-85.54 464.52,-78.14 453.97,-79.2 456.94,-85.54"/>
</a>
</g>
</g>
<!-- Node3 -->
<g id="Node000003" class="node">
<title>Node3</title>
<g id="a_Node000003"><a xlink:href="jeux_8c.html#a2d7491d04e8c2bdb52bb6ed7d75e4d78" target="_top" xlink:title="Execute la boucle principale de gameplay pour la planete courante.">
<polygon fill="white" stroke="#666666" points="143,-77 73,-77 73,-57 143,-57 143,-77"/>
<text xml:space="preserve" text-anchor="middle" x="108" y="-63.5" font-family="Helvetica,sans-Serif" font-size="10.00">jeu_principal</text>
</a>
</g>
</g>
<!-- Node1&#45;&gt;Node3 -->
<g id="edge4_Node000001_Node000003" class="edge">
<title>Node1&#45;&gt;Node3</title>
<g id="a_edge4_Node000001_Node000003"><a xlink:title=" ">
<path fill="none" stroke="#63b8ff" d="M440.69,-67C363.3,-67 211.42,-67 143.39,-67"/>
<polygon fill="#63b8ff" stroke="#63b8ff" points="440.49,-70.5 450.49,-67 440.49,-63.5 440.49,-70.5"/>
</a>
</g>
</g>
<!-- Node5 -->
<g id="Node000005" class="node">
<title>Node5</title>
<g id="a_Node000005"><a xlink:href="perso_8c.html#a8ed2806e634464929c59457d470b930b" target="_top" xlink:title="Evalue les collisions de combat (joueur/mobs/items) pour la frame courante.">
<polygon fill="white" stroke="#666666" points="416.5,-58 297.75,-58 297.75,-38 416.5,-38 416.5,-58"/>
<text xml:space="preserve" text-anchor="middle" x="357.12" y="-44.5" font-family="Helvetica,sans-Serif" font-size="10.00">tester_collision_combat</text>
</a>
</g>
</g>
<!-- Node1&#45;&gt;Node5 -->
<g id="edge5_Node000001_Node000005" class="edge">
<title>Node1&#45;&gt;Node5</title>
<g id="a_edge5_Node000001_Node000005"><a xlink:title=" ">
<path fill="none" stroke="#63b8ff" d="M440.99,-60.12C433.13,-58.97 424.89,-57.77 416.78,-56.58"/>
<polygon fill="#63b8ff" stroke="#63b8ff" points="440.27,-63.55 450.67,-61.54 441.28,-56.63 440.27,-63.55"/>
</a>
</g>
</g>
<!-- Node7 -->
<g id="Node000007" class="node">
<title>Node7</title>
<g id="a_Node000007"><a xlink:href="mob_8c.html#a1f766d8b9a9348d960e6f211fce5d558" target="_top" xlink:title="Met a jour mobs en fonction de l&#39;etat courant du jeu.">
<polygon fill="white" stroke="#666666" points="257.62,-20 183.12,-20 183.12,0 257.62,0 257.62,-20"/>
<text xml:space="preserve" text-anchor="middle" x="220.38" y="-6.5" font-family="Helvetica,sans-Serif" font-size="10.00">update_mobs</text>
</a>
</g>
</g>
<!-- Node1&#45;&gt;Node7 -->
<g id="edge8_Node000001_Node000007" class="edge">
<title>Node1&#45;&gt;Node7</title>
<g id="a_edge8_Node000001_Node000007"><a xlink:title=" ">
<path fill="none" stroke="#63b8ff" d="M462.82,-50.49C449.57,-42.63 432.75,-33.9 416.5,-29 362.89,-12.84 297.61,-9.6 257.79,-9.35"/>
<polygon fill="#63b8ff" stroke="#63b8ff" points="460.95,-53.45 471.3,-55.72 464.63,-47.49 460.95,-53.45"/>
</a>
</g>
</g>
<!-- Node2&#45;&gt;Node3 -->
<g id="edge2_Node000002_Node000003" class="edge">
<title>Node2&#45;&gt;Node3</title>
<g id="a_edge2_Node000002_Node000003"><a xlink:title=" ">
<path fill="none" stroke="#63b8ff" d="M316.53,-122.1C280.15,-119.54 225.05,-113.62 179,-100 160.58,-94.55 140.89,-84.89 127.11,-77.43"/>
<polygon fill="#63b8ff" stroke="#63b8ff" points="315.94,-125.57 326.14,-122.72 316.39,-118.58 315.94,-125.57"/>
</a>
</g>
</g>
<!-- Node4 -->
<g id="Node000004" class="node">
<title>Node4</title>
<g id="a_Node000004"><a xlink:href="main_8c.html#a0ddf1224851353fc92bfbff6f499fa97" target="_top" xlink:title=" ">
<polygon fill="white" stroke="#666666" points="37,-77 0,-77 0,-57 37,-57 37,-77"/>
<text xml:space="preserve" text-anchor="middle" x="18.5" y="-63.5" font-family="Helvetica,sans-Serif" font-size="10.00">main</text>
</a>
</g>
</g>
<!-- Node3&#45;&gt;Node4 -->
<g id="edge3_Node000003_Node000004" class="edge">
<title>Node3&#45;&gt;Node4</title>
<g id="a_edge3_Node000003_Node000004"><a xlink:title=" ">
<path fill="none" stroke="#63b8ff" d="M61.18,-67C52.72,-67 44.36,-67 37.37,-67"/>
<polygon fill="#63b8ff" stroke="#63b8ff" points="61.16,-70.5 71.16,-67 61.16,-63.5 61.16,-70.5"/>
</a>
</g>
</g>
<!-- Node6 -->
<g id="Node000006" class="node">
<title>Node6</title>
<g id="a_Node000006"><a xlink:href="perso_8c.html#a13de525da0f522f0738bde93c1d62255" target="_top" xlink:title="Met a jour combat en fonction de l&#39;etat courant du jeu.">
<polygon fill="white" stroke="#666666" points="261.75,-58 179,-58 179,-38 261.75,-38 261.75,-58"/>
<text xml:space="preserve" text-anchor="middle" x="220.38" y="-44.5" font-family="Helvetica,sans-Serif" font-size="10.00">update_combat</text>
</a>
</g>
</g>
<!-- Node5&#45;&gt;Node6 -->
<g id="edge6_Node000005_Node000006" class="edge">
<title>Node5&#45;&gt;Node6</title>
<g id="a_edge6_Node000005_Node000006"><a xlink:title=" ">
<path fill="none" stroke="#63b8ff" d="M285.9,-48C277.75,-48 269.65,-48 262.09,-48"/>
<polygon fill="#63b8ff" stroke="#63b8ff" points="285.9,-51.5 295.9,-48 285.9,-44.5 285.9,-51.5"/>
</a>
</g>
</g>
<!-- Node6&#45;&gt;Node3 -->
<g id="edge7_Node000006_Node000003" class="edge">
<title>Node6&#45;&gt;Node3</title>
<g id="a_edge7_Node000006_Node000003"><a xlink:title=" ">
<path fill="none" stroke="#63b8ff" d="M167.29,-56.97C159.2,-58.36 151.03,-59.77 143.46,-61.07"/>
<polygon fill="#63b8ff" stroke="#63b8ff" points="167.84,-60.42 177.1,-55.28 166.65,-53.52 167.84,-60.42"/>
</a>
</g>
</g>
<!-- Node7&#45;&gt;Node3 -->
<g id="edge9_Node000007_Node000003" class="edge">
<title>Node7&#45;&gt;Node3</title>
<g id="a_edge9_Node000007_Node000003"><a xlink:title=" ">
<path fill="none" stroke="#63b8ff" d="M186.38,-25.34C183.87,-26.56 181.39,-27.79 179,-29 161.36,-37.93 141.58,-48.74 127.56,-56.54"/>
<polygon fill="#63b8ff" stroke="#63b8ff" points="187.76,-28.56 195.26,-21.08 184.73,-22.24 187.76,-28.56"/>
</a>
</g>
</g>
</g>
</svg>
