<?xml version="1.0" encoding="UTF-8" standalone="no"?>
<!DOCTYPE svg PUBLIC "-//W3C//DTD SVG 1.1//EN"
 "http://www.w3.org/Graphics/SVG/1.1/DTD/svg11.dtd">
<!-- Generated by graphviz version 14.1.4 (20260321.0153)
 -->
<!-- Title: afficher_stat Pages: 1 -->
<svg width="495pt" height="104pt"
 viewBox="0.00 0.00 495.00 104.00" xmlns="http://www.w3.org/2000/svg" xmlns:xlink="http://www.w3.org/1999/xlink">
<g id="graph0" class="graph" transform="scale(1 1) rotate(0) translate(4 100)">
<title>afficher_stat</title>
<!-- Node1 -->
<g id="Node000001" class="node">
<title>Node1</title>
<g id="a_Node000001"><a xlink:title="Affiche les statistiques et met a jour les elements visuels associes.">
<polygon fill="#999999" stroke="#666666" points="487.25,-77 418,-77 418,-57 487.25,-57 487.25,-77"/>
<text xml:space="preserve" text-anchor="middle" x="452.62" y="-63.5" font-family="Helvetica,sans-Serif" font-size="10.00">afficher_stat</text>
</a>
</g>
</g>
<!-- Node2 -->
<g id="Node000002" class="node">
<title>Node2</title>
<g id="a_Node000002"><a xlink:href="jeux_8c.html#a2d7491d04e8c2bdb52bb6ed7d75e4d78" target="_top" xlink:title="Execute la boucle principale de gameplay pour la planete courante.">
<polygon fill="white" stroke="#666666" points="270.75,-96 200.75,-96 200.75,-76 270.75,-76 270.75,-96"/>
<text xml:space="preserve" text-anchor="middle" x="235.75" y="-82.5" font-family="Helvetica,sans-Serif" font-size="10.00">jeu_principal</text>
</a>
</g>
</g>
<!-- Node1&#45;&gt;Node2 -->
<g id="edge1_Node000001_Node000002" class="edge">
<title>Node1&#45;&gt;Node2</title>
<g id="a_edge1_Node000001_Node000002"><a xlink:title=" ">
<path fill="none" stroke="#63b8ff" d="M406.17,-71.02C365.76,-74.59 307.58,-79.74 270.99,-82.97"/>
<polygon fill="#63b8ff" stroke="#63b8ff" points="406.42,-74.51 416.07,-70.14 405.8,-67.54 406.42,-74.51"/>
</a>
</g>
</g>
<!-- Node4 -->
<g id="Node000004" class="node">
<title>Node4</title>
<g id="a_Node000004"><a xlink:href="vaisseau_8c.html#a8ea9afc9440149ddd36e96b97d8ed6c5" target="_top" xlink:title="Lance la scene interieure du vaisseau (deplacement, interactions, mini&#45;jeux, sortie).">
<polygon fill="white" stroke="#666666" points="382,-58 327,-58 327,-38 382,-38 382,-58"/>
<text xml:space="preserve" text-anchor="middle" x="354.5" y="-44.5" font-family="Helvetica,sans-Serif" font-size="10.00">vaisseau</text>
</a>
</g>
</g>
<!-- Node1&#45;&gt;Node4 -->
<g id="edge3_Node000001_Node000004" class="edge">
<title>Node1&#45;&gt;Node4</title>
<g id="a_edge3_Node000001_Node000004"><a xlink:title=" ">
<path fill="none" stroke="#63b8ff" d="M406.63,-58.11C398.36,-56.47 389.98,-54.81 382.45,-53.33"/>
<polygon fill="#63b8ff" stroke="#63b8ff" points="405.76,-61.5 416.25,-60.01 407.12,-54.64 405.76,-61.5"/>
</a>
</g>
</g>
<!-- Node3 -->
<g id="Node000003" class="node">
<title>Node3</title>
<g id="a_Node000003"><a xlink:href="main_8c.html#a0ddf1224851353fc92bfbff6f499fa97" target="_top" xlink:title=" ">
<polygon fill="white" stroke="#666666" points="37,-58 0,-58 0,-38 37,-38 37,-58"/>
<text xml:space="preserve" text-anchor="middle" x="18.5" y="-44.5" font-family="Helvetica,sans-Serif" font-size="10.00">main</text>
</a>
</g>
</g>
<!-- Node2&#45;&gt;Node3 -->
<g id="edge2_Node000002_Node000003" class="edge">
<title>Node2&#45;&gt;Node3</title>
<g id="a_edge2_Node000002_Node000003"><a xlink:title=" ">
<path fill="none" stroke="#63b8ff" d="M189.08,-80.57C156.55,-76.38 111.89,-69.95 73,-62 60.96,-59.54 47.58,-56.04 37.22,-53.15"/>
<polygon fill="#63b8ff" stroke="#63b8ff" points="188.62,-84.04 198.98,-81.82 189.5,-77.09 188.62,-84.04"/>
</a>
</g>
</g>
<!-- Node4&#45;&gt;Node3 -->
<g id="edge7_Node000004_Node000003" class="edge">
<title>Node4&#45;&gt;Node3</title>
<g id="a_edge7_Node000004_Node000003"><a xlink:title=" ">
<path fill="none" stroke="#63b8ff" d="M315.5,-48C243.51,-48 89.77,-48 37.4,-48"/>
<polygon fill="#63b8ff" stroke="#63b8ff" points="315.22,-51.5 325.22,-48 315.22,-44.5 315.22,-51.5"/>
</a>
</g>
</g>
<!-- Node5 -->
<g id="Node000005" class="node">
<title>Node5</title>
<g id="a_Node000005"><a xlink:href="cinematique_8c.html#a418cc3e727578f4cd509ad27cd6a2a31" target="_top" xlink:title="Lance cinematique fin et gere son deroulement complet.">
<polygon fill="white" stroke="#666666" points="291,-20 180.5,-20 180.5,0 291,0 291,-20"/>
<text xml:space="preserve" text-anchor="middle" x="235.75" y="-6.5" font-family="Helvetica,sans-Serif" font-size="10.00">jouer_cinematique_fin</text>
</a>
</g>
</g>
<!-- Node4&#45;&gt;Node5 -->
<g id="edge4_Node000004_Node000005" class="edge">
<title>Node4&#45;&gt;Node5</title>
<g id="a_edge4_Node000004_Node000005"><a xlink:title=" ">
<path fill="none" stroke="#63b8ff" d="M316.09,-35.82C300.86,-30.87 283.44,-25.2 268.81,-20.43"/>
<polygon fill="#63b8ff" stroke="#63b8ff" points="314.68,-39.05 325.28,-38.81 316.85,-32.39 314.68,-39.05"/>
</a>
</g>
</g>
<!-- Node6 -->
<g id="Node000006" class="node">
<title>Node6</title>
<g id="a_Node000006"><a xlink:href="map_8c.html#ad462ccdd50801fb085dc8134fc3765d1" target="_top" xlink:title="Affiche la carte et met a jour les elements visuels associes.">
<polygon fill="white" stroke="#666666" points="144.5,-20 73,-20 73,0 144.5,0 144.5,-20"/>
<text xml:space="preserve" text-anchor="middle" x="108.75" y="-6.5" font-family="Helvetica,sans-Serif" font-size="10.00">afficher_map</text>
</a>
</g>
</g>
<!-- Node5&#45;&gt;Node6 -->
<g id="edge5_Node000005_Node000006" class="edge">
<title>Node5&#45;&gt;Node6</title>
<g id="a_edge5_Node000005_Node000006"><a xlink:title=" ">
<path fill="none" stroke="#63b8ff" d="M169,-10C160.72,-10 152.51,-10 144.96,-10"/>
<polygon fill="#63b8ff" stroke="#63b8ff" points="168.77,-13.5 178.77,-10 168.77,-6.5 168.77,-13.5"/>
</a>
</g>
</g>
<!-- Node6&#45;&gt;Node3 -->
<g id="edge6_Node000006_Node000003" class="edge">
<title>Node6&#45;&gt;Node3</title>
<g id="a_edge6_Node000006_Node000003"><a xlink:title=" ">
<path fill="none" stroke="#63b8ff" d="M73.25,-24.86C61,-30.13 47.72,-35.85 37.43,-40.28"/>
<polygon fill="#63b8ff" stroke="#63b8ff" points="74.44,-28.15 82.25,-20.98 71.68,-21.72 74.44,-28.15"/>
</a>
</g>
</g>
</g>
</svg>
