<?xml version="1.0" encoding="UTF-8" standalone="no"?>
<!DOCTYPE svg PUBLIC "-//W3C//DTD SVG 1.1//EN"
 "http://www.w3.org/Graphics/SVG/1.1/DTD/svg11.dtd">
<!-- Generated by graphviz version 14.1.4 (20260321.0153)
 -->
<!-- Title: afficher_perso Pages: 1 -->
<svg width="580pt" height="130pt"
 viewBox="0.00 0.00 580.00 130.00" xmlns="http://www.w3.org/2000/svg" xmlns:xlink="http://www.w3.org/1999/xlink">
<g id="graph0" class="graph" transform="scale(1 1) rotate(0) translate(4 125.77)">
<title>afficher_perso</title>
<!-- Node1 -->
<g id="Node000001" class="node">
<title>Node1</title>
<g id="a_Node000001"><a xlink:title="Affiche perso et met a jour les elements visuels associes.">
<polygon fill="#999999" stroke="#666666" points="572,-83.77 495.25,-83.77 495.25,-63.77 572,-63.77 572,-83.77"/>
<text xml:space="preserve" text-anchor="middle" x="533.62" y="-70.27" font-family="Helvetica,sans-Serif" font-size="10.00">afficher_perso</text>
</a>
</g>
</g>
<!-- Node2 -->
<g id="Node000002" class="node">
<title>Node2</title>
<g id="a_Node000002"><a xlink:href="jeux_8c.html#a2d7491d04e8c2bdb52bb6ed7d75e4d78" target="_top" xlink:title="Execute la boucle principale de gameplay pour la planete courante.">
<polygon fill="white" stroke="#666666" points="348,-121.77 278,-121.77 278,-101.77 348,-101.77 348,-121.77"/>
<text xml:space="preserve" text-anchor="middle" x="313" y="-108.27" font-family="Helvetica,sans-Serif" font-size="10.00">jeu_principal</text>
</a>
</g>
</g>
<!-- Node1&#45;&gt;Node2 -->
<g id="edge1_Node000001_Node000002" class="edge">
<title>Node1&#45;&gt;Node2</title>
<g id="a_edge1_Node000001_Node000002"><a xlink:title=" ">
<path fill="none" stroke="#63b8ff" d="M483.89,-82.24C442.68,-89.4 384.67,-99.48 348.22,-105.82"/>
<polygon fill="#63b8ff" stroke="#63b8ff" points="484.3,-85.72 493.55,-80.56 483.1,-78.82 484.3,-85.72"/>
</a>
</g>
</g>
<!-- Node4 -->
<g id="Node000004" class="node">
<title>Node4</title>
<g id="a_Node000004"><a xlink:href="vaisseau_8c.html#a8ea9afc9440149ddd36e96b97d8ed6c5" target="_top" xlink:title="Lance la scene interieure du vaisseau (deplacement, interactions, mini&#45;jeux, sortie).">
<polygon fill="white" stroke="#666666" points="459.25,-64.77 404.25,-64.77 404.25,-44.77 459.25,-44.77 459.25,-64.77"/>
<text xml:space="preserve" text-anchor="middle" x="431.75" y="-51.27" font-family="Helvetica,sans-Serif" font-size="10.00">vaisseau</text>
</a>
</g>
</g>
<!-- Node1&#45;&gt;Node4 -->
<g id="edge3_Node000001_Node000004" class="edge">
<title>Node1&#45;&gt;Node4</title>
<g id="a_edge3_Node000001_Node000004"><a xlink:title=" ">
<path fill="none" stroke="#63b8ff" d="M483.69,-64.46C475.42,-62.88 467.11,-61.3 459.67,-59.89"/>
<polygon fill="#63b8ff" stroke="#63b8ff" points="482.9,-67.87 493.38,-66.3 484.21,-60.99 482.9,-67.87"/>
</a>
</g>
</g>
<!-- Node3 -->
<g id="Node000003" class="node">
<title>Node3</title>
<g id="a_Node000003"><a xlink:href="main_8c.html#a0ddf1224851353fc92bfbff6f499fa97" target="_top" xlink:title=" ">
<polygon fill="white" stroke="#666666" points="75.62,-83.77 38.63,-83.77 38.63,-63.77 75.62,-63.77 75.62,-83.77"/>
<text xml:space="preserve" text-anchor="middle" x="57.13" y="-70.27" font-family="Helvetica,sans-Serif" font-size="10.00">main</text>
</a>
</g>
</g>
<!-- Node2&#45;&gt;Node3 -->
<g id="edge2_Node000002_Node000003" class="edge">
<title>Node2&#45;&gt;Node3</title>
<g id="a_edge2_Node000002_Node000003"><a xlink:title=" ">
<path fill="none" stroke="#63b8ff" d="M266.25,-105.02C233.85,-100.23 189.38,-93.64 150.25,-87.77 124.33,-83.87 94.33,-79.3 75.78,-76.47"/>
<polygon fill="#63b8ff" stroke="#63b8ff" points="265.7,-108.48 276.1,-106.48 266.72,-101.55 265.7,-108.48"/>
</a>
</g>
</g>
<!-- Node4&#45;&gt;Node3 -->
<g id="edge9_Node000004_Node000003" class="edge">
<title>Node4&#45;&gt;Node3</title>
<g id="a_edge9_Node000004_Node000003"><a xlink:title=" ">
<path fill="none" stroke="#63b8ff" d="M392.56,-56.71C313.22,-60.76 133.2,-69.94 75.95,-72.86"/>
<polygon fill="#63b8ff" stroke="#63b8ff" points="392.63,-60.21 402.44,-56.21 392.27,-53.22 392.63,-60.21"/>
</a>
</g>
</g>
<!-- Node5 -->
<g id="Node000005" class="node">
<title>Node5</title>
<g id="a_Node000005"><a xlink:href="cinematique_8c.html#a418cc3e727578f4cd509ad27cd6a2a31" target="_top" xlink:title="Lance cinematique fin et gere son deroulement complet.">
<polygon fill="white" stroke="#666666" points="368.25,-45.77 257.75,-45.77 257.75,-25.77 368.25,-25.77 368.25,-45.77"/>
<text xml:space="preserve" text-anchor="middle" x="313" y="-32.27" font-family="Helvetica,sans-Serif" font-size="10.00">jouer_cinematique_fin</text>
</a>
</g>
</g>
<!-- Node4&#45;&gt;Node5 -->
<g id="edge4_Node000004_Node000005" class="edge">
<title>Node4&#45;&gt;Node5</title>
<g id="a_edge4_Node000004_Node000005"><a xlink:title=" ">
<path fill="none" stroke="#63b8ff" d="M392.65,-48.57C384.86,-47.3 376.53,-45.94 368.3,-44.6"/>
<polygon fill="#63b8ff" stroke="#63b8ff" points="392.04,-52.01 402.47,-50.16 393.16,-45.1 392.04,-52.01"/>
</a>
</g>
</g>
<!-- Node6 -->
<g id="Node000006" class="node">
<title>Node6</title>
<g id="a_Node000006"><a xlink:href="map_8c.html#ad462ccdd50801fb085dc8134fc3765d1" target="_top" xlink:title="Affiche la carte et met a jour les elements visuels associes.">
<polygon fill="white" stroke="#666666" points="221.75,-45.77 150.25,-45.77 150.25,-25.77 221.75,-25.77 221.75,-45.77"/>
<text xml:space="preserve" text-anchor="middle" x="186" y="-32.27" font-family="Helvetica,sans-Serif" font-size="10.00">afficher_map</text>
</a>
</g>
</g>
<!-- Node5&#45;&gt;Node6 -->
<g id="edge5_Node000005_Node000006" class="edge">
<title>Node5&#45;&gt;Node6</title>
<g id="a_edge5_Node000005_Node000006"><a xlink:title=" ">
<path fill="none" stroke="#63b8ff" d="M246.25,-35.77C237.97,-35.77 229.76,-35.77 222.21,-35.77"/>
<polygon fill="#63b8ff" stroke="#63b8ff" points="246.02,-39.27 256.02,-35.77 246.02,-32.27 246.02,-39.27"/>
</a>
</g>
</g>
<!-- Node6&#45;&gt;Node3 -->
<g id="edge8_Node000006_Node000003" class="edge">
<title>Node6&#45;&gt;Node3</title>
<g id="a_edge8_Node000006_Node000003"><a xlink:title=" ">
<path fill="none" stroke="#63b8ff" d="M139.19,-49.49C117.24,-56.06 92.23,-63.55 75.87,-68.45"/>
<polygon fill="#63b8ff" stroke="#63b8ff" points="139.97,-52.91 148.55,-46.68 137.96,-46.2 139.97,-52.91"/>
</a>
</g>
</g>
<!-- Node7 -->
<g id="Node000007" class="node">
<title>Node7</title>
<g id="a_Node000007"><a xlink:href="vaisseau_8c.html#ace614afc8df3a40bd5ea0771044ff217" target="_top" xlink:title=" ">
<polygon fill="white" stroke="#666666" points="114.25,-26.77 0,-26.77 0,-6.77 114.25,-6.77 114.25,-26.77"/>
<text xml:space="preserve" text-anchor="middle" x="57.13" y="-13.27" font-family="Helvetica,sans-Serif" font-size="10.00">gerer_interaction_objet</text>
</a>
</g>
</g>
<!-- Node6&#45;&gt;Node7 -->
<g id="edge6_Node000006_Node000007" class="edge">
<title>Node6&#45;&gt;Node7</title>
<g id="a_edge6_Node000006_Node000007"><a xlink:title=" ">
<path fill="none" stroke="#63b8ff" d="M138.76,-28.84C130.87,-27.66 122.58,-26.42 114.46,-25.2"/>
<polygon fill="#63b8ff" stroke="#63b8ff" points="138.09,-32.28 148.5,-30.3 139.13,-25.36 138.09,-32.28"/>
</a>
</g>
</g>
<!-- Node7&#45;&gt;Node4 -->
<g id="edge7_Node000007_Node000004" class="edge">
<title>Node7&#45;&gt;Node4</title>
<g id="a_edge7_Node000007_Node000004"><a xlink:title=" ">
<path fill="none" stroke="#63b8ff" d="M125.65,-6.45C189.45,0.91 287.18,5.94 368.25,-16.77 387.33,-22.11 406.36,-35.05 418.32,-44.35"/>
<polygon fill="#63b8ff" stroke="#63b8ff" points="125.55,-2.93 116.04,-7.61 126.39,-9.88 125.55,-2.93"/>
</a>
</g>
</g>
</g>
</svg>
