<?xml version="1.0" encoding="UTF-8" standalone="no"?>
<!DOCTYPE svg PUBLIC "-//W3C//DTD SVG 1.1//EN"
 "http://www.w3.org/Graphics/SVG/1.1/DTD/svg11.dtd">
<!-- Generated by graphviz version 14.1.4 (20260321.0153)
 -->
<!-- Title: afficher_combat Pages: 1 -->
<svg width="333pt" height="66pt"
 viewBox="0.00 0.00 333.00 66.00" xmlns="http://www.w3.org/2000/svg" xmlns:xlink="http://www.w3.org/1999/xlink">
<g id="graph0" class="graph" transform="scale(1 1) rotate(0) translate(4 62)">
<title>afficher_combat</title>
<!-- Node1 -->
<g id="Node000001" class="node">
<title>Node1</title>
<g id="a_Node000001"><a xlink:title="Affiche combat et met a jour les elements visuels associes.">
<polygon fill="#999999" stroke="#666666" points="85,-39 0,-39 0,-19 85,-19 85,-39"/>
<text xml:space="preserve" text-anchor="middle" x="42.5" y="-25.5" font-family="Helvetica,sans-Serif" font-size="10.00">afficher_combat</text>
</a>
</g>
</g>
<!-- Node2 -->
<g id="Node000002" class="node">
<title>Node2</title>
<g id="a_Node000002"><a xlink:href="main_8h.html#a6c672075bc554c92548a916c9501bdb5" target="_top" xlink:title=" ">
<polygon fill="white" stroke="#666666" points="209,-58 121,-58 121,-38 209,-38 209,-58"/>
<text xml:space="preserve" text-anchor="middle" x="165" y="-44.5" font-family="Helvetica,sans-Serif" font-size="10.00">screen_center_x</text>
</a>
</g>
</g>
<!-- Node1&#45;&gt;Node2 -->
<g id="edge1_Node000001_Node000002" class="edge">
<title>Node1&#45;&gt;Node2</title>
<g id="a_edge1_Node000001_Node000002"><a xlink:title=" ">
<path fill="none" stroke="#63b8ff" d="M85.31,-35.59C93.07,-36.82 101.28,-38.11 109.36,-39.38"/>
<polygon fill="#63b8ff" stroke="#63b8ff" points="108.71,-42.83 119.13,-40.93 109.8,-35.91 108.71,-42.83"/>
</a>
</g>
</g>
<!-- Node4 -->
<g id="Node000004" class="node">
<title>Node4</title>
<g id="a_Node000004"><a xlink:href="main_8h.html#a6456affd0d0a21e911b531a5ba25676d" target="_top" xlink:title=" ">
<polygon fill="white" stroke="#666666" points="209,-20 121,-20 121,0 209,0 209,-20"/>
<text xml:space="preserve" text-anchor="middle" x="165" y="-6.5" font-family="Helvetica,sans-Serif" font-size="10.00">screen_center_y</text>
</a>
</g>
</g>
<!-- Node1&#45;&gt;Node4 -->
<g id="edge3_Node000001_Node000004" class="edge">
<title>Node1&#45;&gt;Node4</title>
<g id="a_edge3_Node000001_Node000004"><a xlink:title=" ">
<path fill="none" stroke="#63b8ff" d="M85.31,-22.41C93.07,-21.18 101.28,-19.89 109.36,-18.62"/>
<polygon fill="#63b8ff" stroke="#63b8ff" points="109.8,-22.09 119.13,-17.07 108.71,-15.17 109.8,-22.09"/>
</a>
</g>
</g>
<!-- Node3 -->
<g id="Node000003" class="node">
<title>Node3</title>
<g id="a_Node000003"><a xlink:href="main_8h.html#aaaa1e9fcb86ff8e60b297faa7815ad1d" target="_top" xlink:title=" ">
<polygon fill="white" stroke="#666666" points="323.25,-58 246.5,-58 246.5,-38 323.25,-38 323.25,-58"/>
<text xml:space="preserve" text-anchor="middle" x="284.88" y="-44.5" font-family="Helvetica,sans-Serif" font-size="10.00">screen_widthf</text>
</a>
</g>
</g>
<!-- Node2&#45;&gt;Node3 -->
<g id="edge2_Node000002_Node000003" class="edge">
<title>Node2&#45;&gt;Node3</title>
<g id="a_edge2_Node000002_Node000003"><a xlink:title=" ">
<path fill="none" stroke="#63b8ff" d="M209.22,-48C217.53,-48 226.3,-48 234.78,-48"/>
<polygon fill="#63b8ff" stroke="#63b8ff" points="234.59,-51.5 244.59,-48 234.59,-44.5 234.59,-51.5"/>
</a>
</g>
</g>
<!-- Node5 -->
<g id="Node000005" class="node">
<title>Node5</title>
<g id="a_Node000005"><a xlink:href="main_8h.html#a9b4aefc63ea00e60ec88da19e24e8236" target="_top" xlink:title=" ">
<polygon fill="white" stroke="#666666" points="324.75,-20 245,-20 245,0 324.75,0 324.75,-20"/>
<text xml:space="preserve" text-anchor="middle" x="284.88" y="-6.5" font-family="Helvetica,sans-Serif" font-size="10.00">screen_heightf</text>
</a>
</g>
</g>
<!-- Node4&#45;&gt;Node5 -->
<g id="edge4_Node000004_Node000005" class="edge">
<title>Node4&#45;&gt;Node5</title>
<g id="a_edge4_Node000004_Node000005"><a xlink:title=" ">
<path fill="none" stroke="#63b8ff" d="M209.22,-10C216.99,-10 225.16,-10 233.12,-10"/>
<polygon fill="#63b8ff" stroke="#63b8ff" points="233.05,-13.5 243.05,-10 233.05,-6.5 233.05,-13.5"/>
</a>
</g>
</g>
</g>
</svg>
