<?xml version="1.0" encoding="UTF-8" standalone="no"?>
<!DOCTYPE svg PUBLIC "-//W3C//DTD SVG 1.1//EN"
 "http://www.w3.org/Graphics/SVG/1.1/DTD/svg11.dtd">
<!-- Generated by graphviz version 14.1.4 (20260321.0153)
 -->
<!-- Title: tester_collision_combat Pages: 1 -->
<!--zoomable 218 -->

<svg id="main" version="1.1" xmlns="http://www.w3.org/2000/svg" xmlns:xlink="http://www.w3.org/1999/xlink" xml:space="preserve" onload="init(evt)">

<style type="text/css"><![CDATA[
.node, .edge {opacity: 0.7;}
.node.selected, .edge.selected {opacity: 1;}
.edge:hover path { stroke: red; }
.edge:hover polygon { stroke: red; fill: red; }
]]></style>

<defs>
  <circle id="rim" cx="0" cy="0" r="7"/>
  <circle id="rim2" cx="0" cy="0" r="3.5"/>
  <g id="zoomPlus">
    <use xlink:href="#rim" fill="#404040"><set attributeName="fill" to="#808080" begin="zoomplus.mouseover" end="zoomplus.mouseout"/></use>
    <path d="M-4,0h8M0,-4v8" fill="none" stroke="white" stroke-width="1.5" pointer-events="none"/>
  </g>
  <g id="zoomMin">
    <use xlink:href="#rim" fill="#404040"><set attributeName="fill" to="#808080" begin="zoomminus.mouseover" end="zoomminus.mouseout"/></use>
    <path d="M-4,0h8" fill="none" stroke="white" stroke-width="1.5" pointer-events="none"/>
  </g>
  <g id="arrowUp" transform="translate(30 24)">
    <use xlink:href="#rim"/>
    <path pointer-events="none" fill="none" stroke="white" stroke-width="1.5" d="M0,-3.0v7 M-2.5,-0.5L0,-3.0L2.5,-0.5"/>
  </g>
  <g id="arrowRight" transform="rotate(90) translate(36 -43)">
    <use xlink:href="#rim"/>
    <path pointer-events="none" fill="none" stroke="white" stroke-width="1.5" d="M0,-3.0v7 M-2.5,-0.5L0,-3.0L2.5,-0.5"/>
  </g>
  <g id="arrowDown" transform="rotate(180) translate(-30 -48)">
    <use xlink:href="#rim"/>
    <path pointer-events="none" fill="none" stroke="white" stroke-width="1.5" d="M0,-3.0v7 M-2.5,-0.5L0,-3.0L2.5,-0.5"/>
  </g>
  <g id="arrowLeft" transform="rotate(270) translate(-36 17)">
    <use xlink:href="#rim"/>
    <path pointer-events="none" fill="none" stroke="white" stroke-width="1.5" d="M0,-3.0v7 M-2.5,-0.5L0,-3.0L2.5,-0.5"/>
  </g>
  <g id="resetDef">
    <use xlink:href="#rim2" fill="#404040"><set attributeName="fill" to="#808080" begin="reset.mouseover" end="reset.mouseout"/></use>
  </g>
</defs>
<script type="application/ecmascript">
var viewWidth = 611;
var viewHeight = 218;
var sectionId = 'dynsection-11';
</script>
<script type="application/ecmascript" xlink:href="svg.min.js"/>
<svg id="graph" class="graph">
<g id="viewport">
<title>tester_collision_combat</title>
<!-- Node1 -->
<g id="Node000001" class="node">
<title>Node1</title>
<g id="a_Node000001"><a xlink:title="Evalue les collisions de combat (joueur/mobs/items) pour la frame courante.">
<polygon fill="#999999" stroke="#666666" points="118.75,-115 0,-115 0,-95 118.75,-95 118.75,-115"/>
<text xml:space="preserve" text-anchor="middle" x="59.38" y="-101.5" font-family="Helvetica,sans-Serif" font-size="10.00">tester_collision_combat</text>
</a>
</g>
</g>
<!-- Node2 -->
<g id="Node000002" class="node">
<title>Node2</title>
<g id="a_Node000002"><a xlink:href="mob_8c.html#a982672a13ed7a7b25477f268c592c14b" target="_top" xlink:title="Libere un mob et nettoie les ressources associees.">
<polygon fill="white" stroke="#666666" points="247.25,-210 159.25,-210 159.25,-190 247.25,-190 247.25,-210"/>
<text xml:space="preserve" text-anchor="middle" x="203.25" y="-196.5" font-family="Helvetica,sans-Serif" font-size="10.00">detruire_un_mob</text>
</a>
</g>
</g>
<!-- Node1&#45;&gt;Node2 -->
<g id="edge1_Node000001_Node000002" class="edge">
<title>Node1&#45;&gt;Node2</title>
<g id="a_edge1_Node000001_Node000002"><a xlink:title=" ">
<path fill="none" stroke="#63b8ff" d="M70.91,-115.27C87.57,-131.08 121.52,-161.56 154.75,-181 157.05,-182.34 159.46,-183.63 161.92,-184.86"/>
<polygon fill="#63b8ff" stroke="#63b8ff" points="160.29,-187.96 170.84,-188.93 163.19,-181.59 160.29,-187.96"/>
</a>
</g>
</g>
<!-- Node3 -->
<g id="Node000003" class="node">
<title>Node3</title>
<g id="a_Node000003"><a xlink:href="item_8c.html#ac066d9bc77b421f23ca66756b7ff4a33" target="_top" xlink:title="Initialise item et prepare les ressources necessaires.">
<polygon fill="white" stroke="#666666" points="229.62,-172 176.88,-172 176.88,-152 229.62,-152 229.62,-172"/>
<text xml:space="preserve" text-anchor="middle" x="203.25" y="-158.5" font-family="Helvetica,sans-Serif" font-size="10.00">init_item</text>
</a>
</g>
</g>
<!-- Node1&#45;&gt;Node3 -->
<g id="edge2_Node000001_Node000003" class="edge">
<title>Node1&#45;&gt;Node3</title>
<g id="a_edge2_Node000001_Node000003"><a xlink:title=" ">
<path fill="none" stroke="#63b8ff" d="M86.41,-115.5C105.35,-123.14 131.64,-133.72 154.75,-143 158.41,-144.47 162.22,-146 166.03,-147.52"/>
<polygon fill="#63b8ff" stroke="#63b8ff" points="164.62,-150.73 175.2,-151.19 167.22,-144.23 164.62,-150.73"/>
</a>
</g>
</g>
<!-- Node4 -->
<g id="Node000004" class="node">
<title>Node4</title>
<g id="a_Node000004"><a xlink:href="mob_8c.html#a30dd485a00ed194617f87517eb3e07f5" target="_top" xlink:title="Programme la reapparition differee d&#39;un mob dans la file de respawn.">
<polygon fill="white" stroke="#666666" points="251.75,-134 154.75,-134 154.75,-114 251.75,-114 251.75,-134"/>
<text xml:space="preserve" text-anchor="middle" x="203.25" y="-120.5" font-family="Helvetica,sans-Serif" font-size="10.00">schedule_respawn</text>
</a>
</g>
</g>
<!-- Node1&#45;&gt;Node4 -->
<g id="edge3_Node000001_Node000004" class="edge">
<title>Node1&#45;&gt;Node4</title>
<g id="a_edge3_Node000001_Node000004"><a xlink:title=" ">
<path fill="none" stroke="#63b8ff" d="M118.9,-112.84C126.99,-113.92 135.31,-115.04 143.41,-116.12"/>
<polygon fill="#63b8ff" stroke="#63b8ff" points="142.79,-119.57 153.17,-117.43 143.72,-112.63 142.79,-119.57"/>
</a>
</g>
</g>
<!-- Node5 -->
<g id="Node000005" class="node">
<title>Node5</title>
<g id="a_Node000005"><a xlink:href="main_8h.html#a6c672075bc554c92548a916c9501bdb5" target="_top" xlink:title=" ">
<polygon fill="white" stroke="#666666" points="247.25,-96 159.25,-96 159.25,-76 247.25,-76 247.25,-96"/>
<text xml:space="preserve" text-anchor="middle" x="203.25" y="-82.5" font-family="Helvetica,sans-Serif" font-size="10.00">screen_center_x</text>
</a>
</g>
</g>
<!-- Node1&#45;&gt;Node5 -->
<g id="edge4_Node000001_Node000005" class="edge">
<title>Node1&#45;&gt;Node5</title>
<g id="a_edge4_Node000001_Node000005"><a xlink:title=" ">
<path fill="none" stroke="#63b8ff" d="M118.9,-97.16C128.45,-95.88 138.31,-94.56 147.76,-93.3"/>
<polygon fill="#63b8ff" stroke="#63b8ff" points="148.09,-96.79 157.53,-91.99 147.16,-89.85 148.09,-96.79"/>
</a>
</g>
</g>
<!-- Node7 -->
<g id="Node000007" class="node">
<title>Node7</title>
<g id="a_Node000007"><a xlink:href="main_8h.html#a6456affd0d0a21e911b531a5ba25676d" target="_top" xlink:title=" ">
<polygon fill="white" stroke="#666666" points="247.25,-58 159.25,-58 159.25,-38 247.25,-38 247.25,-58"/>
<text xml:space="preserve" text-anchor="middle" x="203.25" y="-44.5" font-family="Helvetica,sans-Serif" font-size="10.00">screen_center_y</text>
</a>
</g>
</g>
<!-- Node1&#45;&gt;Node7 -->
<g id="edge6_Node000001_Node000007" class="edge">
<title>Node1&#45;&gt;Node7</title>
<g id="a_edge6_Node000001_Node000007"><a xlink:title=" ">
<path fill="none" stroke="#63b8ff" d="M86.41,-94.5C105.35,-86.86 131.64,-76.28 154.75,-67 158.32,-65.57 162.04,-64.08 165.76,-62.59"/>
<polygon fill="#63b8ff" stroke="#63b8ff" points="166.72,-65.97 174.71,-59 164.12,-59.47 166.72,-65.97"/>
</a>
</g>
</g>
<!-- Node9 -->
<g id="Node000009" class="node">
<title>Node9</title>
<g id="a_Node000009"><a xlink:href="perso_8c.html#a2a53403cf290bb65fb010b095c4843cf" target="_top" xlink:title="Verifie collision et retourne le resultat du test.">
<polygon fill="white" stroke="#666666" points="239.75,-20 166.75,-20 166.75,0 239.75,0 239.75,-20"/>
<text xml:space="preserve" text-anchor="middle" x="203.25" y="-6.5" font-family="Helvetica,sans-Serif" font-size="10.00">test_collision</text>
</a>
</g>
</g>
<!-- Node1&#45;&gt;Node9 -->
<g id="edge8_Node000001_Node000009" class="edge">
<title>Node1&#45;&gt;Node9</title>
<g id="a_edge8_Node000001_Node000009"><a xlink:title=" ">
<path fill="none" stroke="#63b8ff" d="M70.91,-94.73C87.57,-78.92 121.52,-48.44 154.75,-29 157.05,-27.66 159.46,-26.37 161.92,-25.14"/>
<polygon fill="#63b8ff" stroke="#63b8ff" points="163.19,-28.41 170.84,-21.07 160.29,-22.04 163.19,-28.41"/>
</a>
</g>
</g>
<!-- Node6 -->
<g id="Node000006" class="node">
<title>Node6</title>
<g id="a_Node000006"><a xlink:href="main_8h.html#aaaa1e9fcb86ff8e60b297faa7815ad1d" target="_top" xlink:title=" ">
<polygon fill="white" stroke="#666666" points="366,-96 289.25,-96 289.25,-76 366,-76 366,-96"/>
<text xml:space="preserve" text-anchor="middle" x="327.62" y="-82.5" font-family="Helvetica,sans-Serif" font-size="10.00">screen_widthf</text>
</a>
</g>
</g>
<!-- Node5&#45;&gt;Node6 -->
<g id="edge5_Node000005_Node000006" class="edge">
<title>Node5&#45;&gt;Node6</title>
<g id="a_edge5_Node000005_Node000006"><a xlink:title=" ">
<path fill="none" stroke="#63b8ff" d="M247.74,-86C257.42,-86 267.74,-86 277.62,-86"/>
<polygon fill="#63b8ff" stroke="#63b8ff" points="277.44,-89.5 287.44,-86 277.44,-82.5 277.44,-89.5"/>
</a>
</g>
</g>
<!-- Node8 -->
<g id="Node000008" class="node">
<title>Node8</title>
<g id="a_Node000008"><a xlink:href="main_8h.html#a9b4aefc63ea00e60ec88da19e24e8236" target="_top" xlink:title=" ">
<polygon fill="white" stroke="#666666" points="367.5,-58 287.75,-58 287.75,-38 367.5,-38 367.5,-58"/>
<text xml:space="preserve" text-anchor="middle" x="327.62" y="-44.5" font-family="Helvetica,sans-Serif" font-size="10.00">screen_heightf</text>
</a>
</g>
</g>
<!-- Node7&#45;&gt;Node8 -->
<g id="edge7_Node000007_Node000008" class="edge">
<title>Node7&#45;&gt;Node8</title>
<g id="a_edge7_Node000007_Node000008"><a xlink:title=" ">
<path fill="none" stroke="#63b8ff" d="M247.74,-48C256.92,-48 266.69,-48 276.1,-48"/>
<polygon fill="#63b8ff" stroke="#63b8ff" points="275.84,-51.5 285.84,-48 275.84,-44.5 275.84,-51.5"/>
</a>
</g>
</g>
<!-- Node10 -->
<g id="Node000010" class="node">
<title>Node10</title>
<g id="a_Node000010"><a xlink:href="son_8c.html#ae145ae699cc1eecf0684bdd530bd26f0" target="_top" xlink:title="Charge (ou recupere du cache) puis joue une piste audio.">
<polygon fill="white" stroke="#666666" points="356.62,-20 298.62,-20 298.62,0 356.62,0 356.62,-20"/>
<text xml:space="preserve" text-anchor="middle" x="327.62" y="-6.5" font-family="Helvetica,sans-Serif" font-size="10.00">jouer_son</text>
</a>
</g>
</g>
<!-- Node9&#45;&gt;Node10 -->
<g id="edge9_Node000009_Node000010" class="edge">
<title>Node9&#45;&gt;Node10</title>
<g id="a_edge9_Node000009_Node000010"><a xlink:title=" ">
<path fill="none" stroke="#63b8ff" d="M239.97,-10C254.82,-10 272.09,-10 287.29,-10"/>
<polygon fill="#63b8ff" stroke="#63b8ff" points="286.93,-13.5 296.93,-10 286.93,-6.5 286.93,-13.5"/>
</a>
</g>
</g>
<!-- Node11 -->
<g id="Node000011" class="node">
<title>Node11</title>
<g id="a_Node000011"><a xlink:href="son_8c.html#ad0d6e981433bdc8e4291e672fa8c039b" target="_top" xlink:title=" ">
<polygon fill="white" stroke="#666666" points="481,-20 403.5,-20 403.5,0 481,0 481,-20"/>
<text xml:space="preserve" text-anchor="middle" x="442.25" y="-6.5" font-family="Helvetica,sans-Serif" font-size="10.00">recuperer_son</text>
</a>
</g>
</g>
<!-- Node10&#45;&gt;Node11 -->
<g id="edge10_Node000010_Node000011" class="edge">
<title>Node10&#45;&gt;Node11</title>
<g id="a_edge10_Node000010_Node000011"><a xlink:title=" ">
<path fill="none" stroke="#63b8ff" d="M357.05,-10C367.61,-10 379.93,-10 391.84,-10"/>
<polygon fill="#63b8ff" stroke="#63b8ff" points="391.54,-13.5 401.54,-10 391.54,-6.5 391.54,-13.5"/>
</a>
</g>
</g>
<!-- Node12 -->
<g id="Node000012" class="node">
<title>Node12</title>
<g id="a_Node000012"><a xlink:href="son_8c.html#aad43af6485e6418e4f26007ec64dba14" target="_top" xlink:title=" ">
<polygon fill="white" stroke="#666666" points="602.75,-20 517,-20 517,0 602.75,0 602.75,-20"/>
<text xml:space="preserve" text-anchor="middle" x="559.88" y="-6.5" font-family="Helvetica,sans-Serif" font-size="10.00">recuperer_mixer</text>
</a>
</g>
</g>
<!-- Node11&#45;&gt;Node12 -->
<g id="edge11_Node000011_Node000012" class="edge">
<title>Node11&#45;&gt;Node12</title>
<g id="a_edge11_Node000011_Node000012"><a xlink:title=" ">
<path fill="none" stroke="#63b8ff" d="M481.43,-10C489.12,-10 497.34,-10 505.44,-10"/>
<polygon fill="#63b8ff" stroke="#63b8ff" points="505.23,-13.5 515.23,-10 505.23,-6.5 505.23,-13.5"/>
</a>
</g>
</g>
</g>
</svg>

<g id="navigator" transform="translate(0 0)" fill="#404254">
  <rect fill="#f2f5e9" fill-opacity="0.5" stroke="#606060" stroke-width=".5" x="0" y="0" width="60" height="60"/>
  <use id="zoomplus" xlink:href="#zoomPlus" x="17" y="9" onmousedown="handleZoom(evt,'in')"/>
  <use id="zoomminus" xlink:href="#zoomMin" x="42" y="9" onmousedown="handleZoom(evt,'out')"/>
  <use id="reset" xlink:href="#resetDef" x="30" y="36" onmousedown="handleReset()"/>
   <use id="arrowup" xlink:href="#arrowUp" x="0" y="0" onmousedown="handlePan(0,-1)"/>
  <use id="arrowright" xlink:href="#arrowRight" x="0" y="0" onmousedown="handlePan(1,0)"/>
  <use id="arrowdown" xlink:href="#arrowDown" x="0" y="0" onmousedown="handlePan(0,1)"/>
  <use id="arrowleft" xlink:href="#arrowLeft" x="0" y="0" onmousedown="handlePan(-1,0)"/>
</g>
<svg viewBox="0 0 15 15" width="100%" height="30px" preserveAspectRatio="xMaxYMin meet">
 <g id="arrow_out" transform="scale(0.3 0.3)">
  <a xlink:href="perso_8h_a8ed2806e634464929c59457d470b930b_cgraph_org.svg" target="_base">
   <rect id="button" ry="5" rx="5" y="6" x="6" height="38" width="38"
        fill="#f2f5e9" fill-opacity="0.5" stroke="#606060" stroke-width="1.0"/>
   <path id="arrow"
     d="M 11.500037,31.436501 C 11.940474,20.09759 22.043105,11.32322 32.158766,21.979434 L 37.068811,17.246167 C 37.068811,17.246167 37.088388,32 37.088388,32 L 22.160133,31.978069 C 22.160133,31.978069 26.997745,27.140456 26.997745,27.140456 C 18.528582,18.264221 13.291696,25.230495 11.500037,31.436501 z"
     style="fill:#404040;"/>
  </a>
 </g>
</svg>

<style type='text/css'>
<![CDATA[
[data-mouse-over-selected='false'] { opacity: 0.7; }
[data-mouse-over-selected='true']  { opacity: 1.0; }
]]>
</style>
<script type="application/ecmascript"><![CDATA[
document.addEventListener('DOMContentLoaded', (event) => {
  highlightEdges();
  highlightAdjacentNodes();
});
]]></script>
</svg>
