<?xml version="1.0" encoding="UTF-8" standalone="no"?>
<!DOCTYPE svg PUBLIC "-//W3C//DTD SVG 1.1//EN"
 "http://www.w3.org/Graphics/SVG/1.1/DTD/svg11.dtd">
<!-- Generated by graphviz version 14.1.4 (20260321.0153)
 -->
<!-- Title: update_combat Pages: 1 -->
<svg width="473pt" height="170pt"
 viewBox="0.00 0.00 473.00 170.00" xmlns="http://www.w3.org/2000/svg" xmlns:xlink="http://www.w3.org/1999/xlink">

<svg id="main" version="1.1" xmlns="http://www.w3.org/2000/svg" xmlns:xlink="http://www.w3.org/1999/xlink" xml:space="preserve">

<style type="text/css"><![CDATA[
.node, .edge {opacity: 0.7;}
.node.selected, .edge.selected {opacity: 1;}
.edge:hover path { stroke: red; }
.edge:hover polygon { stroke: red; fill: red; }
]]></style>
<script type="application/ecmascript" xlink:href="svg.min.js"/>
<svg id="graph" class="graph">
<g id="graph0" class="graph" transform="scale(1 1) rotate(0) translate(4 166.16)">
<title>update_combat</title>
<!-- Node1 -->
<g id="Node000001" class="node">
<title>Node1</title>
<g id="a_Node000001"><a xlink:title="Met a jour combat en fonction de l&#39;etat courant du jeu.">
<polygon fill="#999999" stroke="#666666" points="82.75,-134 0,-134 0,-114 82.75,-114 82.75,-134"/>
<text xml:space="preserve" text-anchor="middle" x="41.38" y="-120.5" font-family="Helvetica,sans-Serif" font-size="10.00">update_combat</text>
</a>
</g>
</g>
<!-- Node2 -->
<g id="Node000002" class="node">
<title>Node2</title>
<g id="a_Node000002"><a xlink:href="son_8c.html#ae145ae699cc1eecf0684bdd530bd26f0" target="_top" xlink:title="Charge (ou recupere du cache) puis joue une piste audio.">
<polygon fill="white" stroke="#666666" points="464.5,-96 406.5,-96 406.5,-76 464.5,-76 464.5,-96"/>
<text xml:space="preserve" text-anchor="middle" x="435.5" y="-82.5" font-family="Helvetica,sans-Serif" font-size="10.00">jouer_son</text>
</a>
</g>
</g>
<!-- Node1&#45;&gt;Node2 -->
<g id="edge1_Node000001_Node000002" class="edge">
<title>Node1&#45;&gt;Node2</title>
<g id="a_edge1_Node000001_Node000002"><a xlink:title=" ">
<path fill="none" stroke="#63b8ff" d="M74.92,-134.42C135.43,-151.96 268.38,-181.88 370.5,-143 390.38,-135.43 408.02,-118.53 419.72,-105.09"/>
<polygon fill="#63b8ff" stroke="#63b8ff" points="422.19,-107.6 425.86,-97.66 416.79,-103.14 422.19,-107.6"/>
</a>
</g>
</g>
<!-- Node3 -->
<g id="Node000003" class="node">
<title>Node3</title>
<g id="a_Node000003"><a xlink:href="perso_8c.html#a8ed2806e634464929c59457d470b930b" target="_top" xlink:title="Evalue les collisions de combat (joueur/mobs/items) pour la frame courante.">
<polygon fill="white" stroke="#666666" points="237.5,-96 118.75,-96 118.75,-76 237.5,-76 237.5,-96"/>
<text xml:space="preserve" text-anchor="middle" x="178.12" y="-82.5" font-family="Helvetica,sans-Serif" font-size="10.00">tester_collision_combat</text>
</a>
</g>
</g>
<!-- Node1&#45;&gt;Node3 -->
<g id="edge2_Node000001_Node000003" class="edge">
<title>Node1&#45;&gt;Node3</title>
<g id="a_edge2_Node000001_Node000003"><a xlink:title=" ">
<path fill="none" stroke="#63b8ff" d="M79.55,-113.52C94.87,-109.2 112.81,-104.14 129.11,-99.54"/>
<polygon fill="#63b8ff" stroke="#63b8ff" points="129.94,-102.94 138.61,-96.86 128.04,-96.21 129.94,-102.94"/>
</a>
</g>
</g>
<!-- Node4 -->
<g id="Node000004" class="node">
<title>Node4</title>
<g id="a_Node000004"><a xlink:href="mob_8c.html#a982672a13ed7a7b25477f268c592c14b" target="_top" xlink:title="Libere un mob et nettoie les ressources associees.">
<polygon fill="white" stroke="#666666" points="366,-134 278,-134 278,-114 366,-114 366,-134"/>
<text xml:space="preserve" text-anchor="middle" x="322" y="-120.5" font-family="Helvetica,sans-Serif" font-size="10.00">detruire_un_mob</text>
</a>
</g>
</g>
<!-- Node3&#45;&gt;Node4 -->
<g id="edge3_Node000003_Node000004" class="edge">
<title>Node3&#45;&gt;Node4</title>
<g id="a_edge3_Node000003_Node000004"><a xlink:title=" ">
<path fill="none" stroke="#63b8ff" d="M218.27,-96.48C234.55,-100.85 253.65,-105.96 270.94,-110.59"/>
<polygon fill="#63b8ff" stroke="#63b8ff" points="269.96,-113.95 280.52,-113.16 271.77,-107.19 269.96,-113.95"/>
</a>
</g>
</g>
<!-- Node5 -->
<g id="Node000005" class="node">
<title>Node5</title>
<g id="a_Node000005"><a xlink:href="item_8c.html#ac066d9bc77b421f23ca66756b7ff4a33" target="_top" xlink:title="Initialise item et prepare les ressources necessaires.">
<polygon fill="white" stroke="#666666" points="348.38,-96 295.62,-96 295.62,-76 348.38,-76 348.38,-96"/>
<text xml:space="preserve" text-anchor="middle" x="322" y="-82.5" font-family="Helvetica,sans-Serif" font-size="10.00">init_item</text>
</a>
</g>
</g>
<!-- Node3&#45;&gt;Node5 -->
<g id="edge4_Node000003_Node000005" class="edge">
<title>Node3&#45;&gt;Node5</title>
<g id="a_edge4_Node000003_Node000005"><a xlink:title=" ">
<path fill="none" stroke="#63b8ff" d="M237.65,-86C253.39,-86 269.98,-86 284.17,-86"/>
<polygon fill="#63b8ff" stroke="#63b8ff" points="283.95,-89.5 293.95,-86 283.95,-82.5 283.95,-89.5"/>
</a>
</g>
</g>
<!-- Node6 -->
<g id="Node000006" class="node">
<title>Node6</title>
<g id="a_Node000006"><a xlink:href="mob_8c.html#a30dd485a00ed194617f87517eb3e07f5" target="_top" xlink:title="Programme la reapparition differee d&#39;un mob dans la file de respawn.">
<polygon fill="white" stroke="#666666" points="370.5,-58 273.5,-58 273.5,-38 370.5,-38 370.5,-58"/>
<text xml:space="preserve" text-anchor="middle" x="322" y="-44.5" font-family="Helvetica,sans-Serif" font-size="10.00">schedule_respawn</text>
</a>
</g>
</g>
<!-- Node3&#45;&gt;Node6 -->
<g id="edge5_Node000003_Node000006" class="edge">
<title>Node3&#45;&gt;Node6</title>
<g id="a_edge5_Node000003_Node000006"><a xlink:title=" ">
<path fill="none" stroke="#63b8ff" d="M218.27,-75.52C234.55,-71.15 253.65,-66.04 270.94,-61.41"/>
<polygon fill="#63b8ff" stroke="#63b8ff" points="271.77,-64.81 280.52,-58.84 269.96,-58.05 271.77,-64.81"/>
</a>
</g>
</g>
<!-- Node7 -->
<g id="Node000007" class="node">
<title>Node7</title>
<g id="a_Node000007"><a xlink:href="perso_8c.html#a2a53403cf290bb65fb010b095c4843cf" target="_top" xlink:title="Verifie collision et retourne le resultat du test.">
<polygon fill="white" stroke="#666666" points="358.5,-20 285.5,-20 285.5,0 358.5,0 358.5,-20"/>
<text xml:space="preserve" text-anchor="middle" x="322" y="-6.5" font-family="Helvetica,sans-Serif" font-size="10.00">test_collision</text>
</a>
</g>
</g>
<!-- Node3&#45;&gt;Node7 -->
<g id="edge6_Node000003_Node000007" class="edge">
<title>Node3&#45;&gt;Node7</title>
<g id="a_edge6_Node000003_Node000007"><a xlink:title=" ">
<path fill="none" stroke="#63b8ff" d="M194.71,-75.5C213.07,-63.4 244.71,-43.33 273.5,-29 276.37,-27.57 279.37,-26.17 282.42,-24.81"/>
<polygon fill="#63b8ff" stroke="#63b8ff" points="283.56,-28.13 291.39,-21 280.82,-21.69 283.56,-28.13"/>
</a>
</g>
</g>
<!-- Node7&#45;&gt;Node2 -->
<g id="edge7_Node000007_Node000002" class="edge">
<title>Node7&#45;&gt;Node2</title>
<g id="a_edge7_Node000007_Node000002"><a xlink:title=" ">
<path fill="none" stroke="#63b8ff" d="M353.67,-20.44C359.44,-22.91 365.29,-25.78 370.5,-29 387.81,-39.71 404.89,-55.25 417.05,-67.4"/>
<polygon fill="#63b8ff" stroke="#63b8ff" points="414.43,-69.72 423.91,-74.45 419.44,-64.84 414.43,-69.72"/>
</a>
</g>
</g>
</g>
</svg>
</svg>

<style type='text/css'>
<![CDATA[
[data-mouse-over-selected='false'] { opacity: 0.7; }
[data-mouse-over-selected='true']  { opacity: 1.0; }
]]>
</style>
<script type="application/ecmascript"><![CDATA[
document.addEventListener('DOMContentLoaded', (event) => {
  highlightEdges();
  highlightAdjacentNodes();
});
]]></script>
</svg>
