<?xml version="1.0" encoding="UTF-8" standalone="no"?>
<!DOCTYPE svg PUBLIC "-//W3C//DTD SVG 1.1//EN"
 "http://www.w3.org/Graphics/SVG/1.1/DTD/svg11.dtd">
<!-- Generated by graphviz version 14.1.4 (20260321.0153)
 -->
<!-- Title: test_collision Pages: 1 -->
<svg width="542pt" height="180pt"
 viewBox="0.00 0.00 542.00 180.00" xmlns="http://www.w3.org/2000/svg" xmlns:xlink="http://www.w3.org/1999/xlink">
<g id="graph0" class="graph" transform="scale(1 1) rotate(0) translate(4 176)">
<title>test_collision</title>
<!-- Node1 -->
<g id="Node000001" class="node">
<title>Node1</title>
<g id="a_Node000001"><a xlink:title="Verifie collision et retourne le resultat du test.">
<polygon fill="#999999" stroke="#666666" points="533.75,-96 460.75,-96 460.75,-76 533.75,-76 533.75,-96"/>
<text xml:space="preserve" text-anchor="middle" x="497.25" y="-82.5" font-family="Helvetica,sans-Serif" font-size="10.00">test_collision</text>
</a>
</g>
</g>
<!-- Node2 -->
<g id="Node000002" class="node">
<title>Node2</title>
<g id="a_Node000002"><a xlink:href="mob_8c.html#af2bb33cec05837a53c00e0f901d38c68" target="_top" xlink:title="Initialise mobs et prepare les ressources necessaires.">
<polygon fill="white" stroke="#666666" points="249.38,-172 191.38,-172 191.38,-152 249.38,-152 249.38,-172"/>
<text xml:space="preserve" text-anchor="middle" x="220.38" y="-158.5" font-family="Helvetica,sans-Serif" font-size="10.00">init_mobs</text>
</a>
</g>
</g>
<!-- Node1&#45;&gt;Node2 -->
<g id="edge1_Node000001_Node000002" class="edge">
<title>Node1&#45;&gt;Node2</title>
<g id="a_edge1_Node000001_Node000002"><a xlink:title=" ">
<path fill="none" stroke="#63b8ff" d="M477.29,-104.01C463.74,-115.75 444.49,-130.27 424.75,-138 365.65,-161.13 290.09,-163.68 249.76,-163.09"/>
<polygon fill="#63b8ff" stroke="#63b8ff" points="479.48,-106.75 484.57,-97.45 474.79,-101.54 479.48,-106.75"/>
</a>
</g>
</g>
<!-- Node3 -->
<g id="Node000003" class="node">
<title>Node3</title>
<g id="a_Node000003"><a xlink:href="jeux_8c.html#a2d7491d04e8c2bdb52bb6ed7d75e4d78" target="_top" xlink:title="Execute la boucle principale de gameplay pour la planete courante.">
<polygon fill="white" stroke="#666666" points="143,-115 73,-115 73,-95 143,-95 143,-115"/>
<text xml:space="preserve" text-anchor="middle" x="108" y="-101.5" font-family="Helvetica,sans-Serif" font-size="10.00">jeu_principal</text>
</a>
</g>
</g>
<!-- Node1&#45;&gt;Node3 -->
<g id="edge4_Node000001_Node000003" class="edge">
<title>Node1&#45;&gt;Node3</title>
<g id="a_edge4_Node000001_Node000003"><a xlink:title=" ">
<path fill="none" stroke="#63b8ff" d="M453.22,-99.36C443.92,-101.71 434.08,-103.78 424.75,-105 323.1,-118.28 201.48,-112.16 143.3,-107.89"/>
<polygon fill="#63b8ff" stroke="#63b8ff" points="454,-102.78 462.75,-96.8 452.19,-96.01 454,-102.78"/>
</a>
</g>
</g>
<!-- Node5 -->
<g id="Node000005" class="node">
<title>Node5</title>
<g id="a_Node000005"><a xlink:href="mob_8c.html#ad937d045795912d2cc7b363b7d2d19b8" target="_top" xlink:title=" ">
<polygon fill="white" stroke="#666666" points="424.75,-96 297.75,-96 297.75,-76 424.75,-76 424.75,-96"/>
<text xml:space="preserve" text-anchor="middle" x="361.25" y="-82.5" font-family="Helvetica,sans-Serif" font-size="10.00">spawn_one_mob_of_type</text>
</a>
</g>
</g>
<!-- Node1&#45;&gt;Node5 -->
<g id="edge5_Node000001_Node000005" class="edge">
<title>Node1&#45;&gt;Node5</title>
<g id="a_edge5_Node000001_Node000005"><a xlink:title=" ">
<path fill="none" stroke="#63b8ff" d="M448.99,-86C441.28,-86 433.18,-86 425.16,-86"/>
<polygon fill="#63b8ff" stroke="#63b8ff" points="448.83,-89.5 458.83,-86 448.83,-82.5 448.83,-89.5"/>
</a>
</g>
</g>
<!-- Node6 -->
<g id="Node000006" class="node">
<title>Node6</title>
<g id="a_Node000006"><a xlink:href="mob_8c.html#a1f766d8b9a9348d960e6f211fce5d558" target="_top" xlink:title="Met a jour mobs en fonction de l&#39;etat courant du jeu.">
<polygon fill="white" stroke="#666666" points="257.62,-96 183.12,-96 183.12,-76 257.62,-76 257.62,-96"/>
<text xml:space="preserve" text-anchor="middle" x="220.38" y="-82.5" font-family="Helvetica,sans-Serif" font-size="10.00">update_mobs</text>
</a>
</g>
</g>
<!-- Node1&#45;&gt;Node6 -->
<g id="edge11_Node000001_Node000006" class="edge">
<title>Node1&#45;&gt;Node6</title>
<g id="a_edge11_Node000001_Node000006"><a xlink:title=" ">
<path fill="none" stroke="#63b8ff" d="M453.22,-72.64C443.92,-70.29 434.08,-68.22 424.75,-67 368.78,-59.69 353.78,-60.14 297.75,-67 283.78,-68.71 268.69,-72.12 255.64,-75.59"/>
<polygon fill="#63b8ff" stroke="#63b8ff" points="452.19,-75.99 462.75,-75.2 454,-69.22 452.19,-75.99"/>
</a>
</g>
</g>
<!-- Node7 -->
<g id="Node000007" class="node">
<title>Node7</title>
<g id="a_Node000007"><a xlink:href="perso_8c.html#a8ed2806e634464929c59457d470b930b" target="_top" xlink:title="Evalue les collisions de combat (joueur/mobs/items) pour la frame courante.">
<polygon fill="white" stroke="#666666" points="420.62,-20 301.88,-20 301.88,0 420.62,0 420.62,-20"/>
<text xml:space="preserve" text-anchor="middle" x="361.25" y="-6.5" font-family="Helvetica,sans-Serif" font-size="10.00">tester_collision_combat</text>
</a>
</g>
</g>
<!-- Node1&#45;&gt;Node7 -->
<g id="edge8_Node000001_Node000007" class="edge">
<title>Node1&#45;&gt;Node7</title>
<g id="a_edge8_Node000001_Node000007"><a xlink:title=" ">
<path fill="none" stroke="#63b8ff" d="M475.59,-68.73C461.81,-57.79 442.94,-43.88 424.75,-34 415.15,-28.78 404.17,-24.16 394.13,-20.4"/>
<polygon fill="#63b8ff" stroke="#63b8ff" points="473.1,-71.22 483.08,-74.8 477.51,-65.78 473.1,-71.22"/>
</a>
</g>
</g>
<!-- Node2&#45;&gt;Node3 -->
<g id="edge2_Node000002_Node000003" class="edge">
<title>Node2&#45;&gt;Node3</title>
<g id="a_edge2_Node000002_Node000003"><a xlink:title=" ">
<path fill="none" stroke="#63b8ff" d="M189.12,-146.38C170.02,-136.51 145.88,-124.05 129.12,-115.39"/>
<polygon fill="#63b8ff" stroke="#63b8ff" points="187.29,-149.37 197.79,-150.85 190.51,-143.15 187.29,-149.37"/>
</a>
</g>
</g>
<!-- Node4 -->
<g id="Node000004" class="node">
<title>Node4</title>
<g id="a_Node000004"><a xlink:href="main_8c.html#a0ddf1224851353fc92bfbff6f499fa97" target="_top" xlink:title=" ">
<polygon fill="white" stroke="#666666" points="37,-115 0,-115 0,-95 37,-95 37,-115"/>
<text xml:space="preserve" text-anchor="middle" x="18.5" y="-101.5" font-family="Helvetica,sans-Serif" font-size="10.00">main</text>
</a>
</g>
</g>
<!-- Node3&#45;&gt;Node4 -->
<g id="edge3_Node000003_Node000004" class="edge">
<title>Node3&#45;&gt;Node4</title>
<g id="a_edge3_Node000003_Node000004"><a xlink:title=" ">
<path fill="none" stroke="#63b8ff" d="M61.18,-105C52.72,-105 44.36,-105 37.37,-105"/>
<polygon fill="#63b8ff" stroke="#63b8ff" points="61.16,-108.5 71.16,-105 61.16,-101.5 61.16,-108.5"/>
</a>
</g>
</g>
<!-- Node5&#45;&gt;Node6 -->
<g id="edge6_Node000005_Node000006" class="edge">
<title>Node5&#45;&gt;Node6</title>
<g id="a_edge6_Node000005_Node000006"><a xlink:title=" ">
<path fill="none" stroke="#63b8ff" d="M285.9,-86C276.18,-86 266.6,-86 257.91,-86"/>
<polygon fill="#63b8ff" stroke="#63b8ff" points="285.8,-89.5 295.8,-86 285.8,-82.5 285.8,-89.5"/>
</a>
</g>
</g>
<!-- Node6&#45;&gt;Node3 -->
<g id="edge7_Node000006_Node000003" class="edge">
<title>Node6&#45;&gt;Node3</title>
<g id="a_edge7_Node000006_Node000003"><a xlink:title=" ">
<path fill="none" stroke="#63b8ff" d="M171.83,-94.18C162.19,-95.84 152.23,-97.56 143.17,-99.12"/>
<polygon fill="#63b8ff" stroke="#63b8ff" points="172.18,-97.68 181.44,-92.53 170.99,-90.78 172.18,-97.68"/>
</a>
</g>
</g>
<!-- Node8 -->
<g id="Node000008" class="node">
<title>Node8</title>
<g id="a_Node000008"><a xlink:href="perso_8c.html#a13de525da0f522f0738bde93c1d62255" target="_top" xlink:title="Met a jour combat en fonction de l&#39;etat courant du jeu.">
<polygon fill="white" stroke="#666666" points="261.75,-39 179,-39 179,-19 261.75,-19 261.75,-39"/>
<text xml:space="preserve" text-anchor="middle" x="220.38" y="-25.5" font-family="Helvetica,sans-Serif" font-size="10.00">update_combat</text>
</a>
</g>
</g>
<!-- Node7&#45;&gt;Node8 -->
<g id="edge9_Node000007_Node000008" class="edge">
<title>Node7&#45;&gt;Node8</title>
<g id="a_edge9_Node000007_Node000008"><a xlink:title=" ">
<path fill="none" stroke="#63b8ff" d="M290.41,-19.55C280.71,-20.88 271.03,-22.21 262.11,-23.43"/>
<polygon fill="#63b8ff" stroke="#63b8ff" points="290.82,-23.03 300.26,-18.21 289.88,-16.1 290.82,-23.03"/>
</a>
</g>
</g>
<!-- Node8&#45;&gt;Node3 -->
<g id="edge10_Node000008_Node000003" class="edge">
<title>Node8&#45;&gt;Node3</title>
<g id="a_edge10_Node000008_Node000003"><a xlink:title=" ">
<path fill="none" stroke="#63b8ff" d="M195.26,-45.6C173.55,-60.55 142.33,-82.05 124,-94.67"/>
<polygon fill="#63b8ff" stroke="#63b8ff" points="196.99,-48.66 203.24,-40.11 193.02,-42.9 196.99,-48.66"/>
</a>
</g>
</g>
</g>
</svg>
