<?xml version="1.0" encoding="UTF-8" standalone="no"?>
<!DOCTYPE svg PUBLIC "-//W3C//DTD SVG 1.1//EN"
 "http://www.w3.org/Graphics/SVG/1.1/DTD/svg11.dtd">
<!-- Generated by graphviz version 14.1.4 (20260321.0153)
 -->
<!-- Title: update_combat Pages: 1 -->
<svg width="730pt" height="241pt"
 viewBox="0.00 0.00 730.00 241.00" xmlns="http://www.w3.org/2000/svg" xmlns:xlink="http://www.w3.org/1999/xlink">
<g id="graph0" class="graph" transform="scale(1 1) rotate(0) translate(4 237.39)">
<title>update_combat</title>
<!-- Node1 -->
<g id="Node000001" class="node">
<title>Node1</title>
<g id="a_Node000001"><a xlink:title="Met a jour combat en fonction de l&#39;etat courant du jeu.">
<polygon fill="#999999" stroke="#666666" points="82.75,-191 0,-191 0,-171 82.75,-171 82.75,-191"/>
<text xml:space="preserve" text-anchor="middle" x="41.38" y="-177.5" font-family="Helvetica,sans-Serif" font-size="10.00">update_combat</text>
</a>
</g>
</g>
<!-- Node2 -->
<g id="Node000002" class="node">
<title>Node2</title>
<g id="a_Node000002"><a xlink:href="son_8c.html#ae145ae699cc1eecf0684bdd530bd26f0" target="_top" xlink:title="Charge (ou recupere du cache) puis joue une piste audio.">
<polygon fill="white" stroke="#666666" points="475.38,-172 417.38,-172 417.38,-152 475.38,-152 475.38,-172"/>
<text xml:space="preserve" text-anchor="middle" x="446.38" y="-158.5" font-family="Helvetica,sans-Serif" font-size="10.00">jouer_son</text>
</a>
</g>
</g>
<!-- Node1&#45;&gt;Node2 -->
<g id="edge1_Node000001_Node000002" class="edge">
<title>Node1&#45;&gt;Node2</title>
<g id="a_edge1_Node000001_Node000002"><a xlink:title=" ">
<path fill="none" stroke="#63b8ff" d="M68.28,-191.4C124.77,-212.5 262.64,-255.38 370.5,-219 393.32,-211.3 414.68,-193.57 428.7,-179.91"/>
<polygon fill="#63b8ff" stroke="#63b8ff" points="430.85,-182.72 435.37,-173.14 425.86,-177.81 430.85,-182.72"/>
</a>
</g>
</g>
<!-- Node5 -->
<g id="Node000005" class="node">
<title>Node5</title>
<g id="a_Node000005"><a xlink:href="perso_8c.html#a8ed2806e634464929c59457d470b930b" target="_top" xlink:title="Evalue les collisions de combat (joueur/mobs/items) pour la frame courante.">
<polygon fill="white" stroke="#666666" points="237.5,-134 118.75,-134 118.75,-114 237.5,-114 237.5,-134"/>
<text xml:space="preserve" text-anchor="middle" x="178.12" y="-120.5" font-family="Helvetica,sans-Serif" font-size="10.00">tester_collision_combat</text>
</a>
</g>
</g>
<!-- Node1&#45;&gt;Node5 -->
<g id="edge4_Node000001_Node000005" class="edge">
<title>Node1&#45;&gt;Node5</title>
<g id="a_edge4_Node000001_Node000005"><a xlink:title=" ">
<path fill="none" stroke="#63b8ff" d="M67.09,-170.55C88.08,-161.67 118.45,-148.82 141.97,-138.87"/>
<polygon fill="#63b8ff" stroke="#63b8ff" points="143.33,-142.1 151.17,-134.98 140.6,-135.65 143.33,-142.1"/>
</a>
</g>
</g>
<!-- Node3 -->
<g id="Node000003" class="node">
<title>Node3</title>
<g id="a_Node000003"><a xlink:href="son_8c.html#ad0d6e981433bdc8e4291e672fa8c039b" target="_top" xlink:title=" ">
<polygon fill="white" stroke="#666666" points="599.75,-172 522.25,-172 522.25,-152 599.75,-152 599.75,-172"/>
<text xml:space="preserve" text-anchor="middle" x="561" y="-158.5" font-family="Helvetica,sans-Serif" font-size="10.00">recuperer_son</text>
</a>
</g>
</g>
<!-- Node2&#45;&gt;Node3 -->
<g id="edge2_Node000002_Node000003" class="edge">
<title>Node2&#45;&gt;Node3</title>
<g id="a_edge2_Node000002_Node000003"><a xlink:title=" ">
<path fill="none" stroke="#63b8ff" d="M475.8,-162C486.36,-162 498.68,-162 510.59,-162"/>
<polygon fill="#63b8ff" stroke="#63b8ff" points="510.29,-165.5 520.29,-162 510.29,-158.5 510.29,-165.5"/>
</a>
</g>
</g>
<!-- Node4 -->
<g id="Node000004" class="node">
<title>Node4</title>
<g id="a_Node000004"><a xlink:href="son_8c.html#aad43af6485e6418e4f26007ec64dba14" target="_top" xlink:title=" ">
<polygon fill="white" stroke="#666666" points="721.5,-172 635.75,-172 635.75,-152 721.5,-152 721.5,-172"/>
<text xml:space="preserve" text-anchor="middle" x="678.62" y="-158.5" font-family="Helvetica,sans-Serif" font-size="10.00">recuperer_mixer</text>
</a>
</g>
</g>
<!-- Node3&#45;&gt;Node4 -->
<g id="edge3_Node000003_Node000004" class="edge">
<title>Node3&#45;&gt;Node4</title>
<g id="a_edge3_Node000003_Node000004"><a xlink:title=" ">
<path fill="none" stroke="#63b8ff" d="M600.18,-162C607.87,-162 616.09,-162 624.19,-162"/>
<polygon fill="#63b8ff" stroke="#63b8ff" points="623.98,-165.5 633.98,-162 623.98,-158.5 623.98,-165.5"/>
</a>
</g>
</g>
<!-- Node6 -->
<g id="Node000006" class="node">
<title>Node6</title>
<g id="a_Node000006"><a xlink:href="mob_8c.html#a982672a13ed7a7b25477f268c592c14b" target="_top" xlink:title="Libere un mob et nettoie les ressources associees.">
<polygon fill="white" stroke="#666666" points="366,-210 278,-210 278,-190 366,-190 366,-210"/>
<text xml:space="preserve" text-anchor="middle" x="322" y="-196.5" font-family="Helvetica,sans-Serif" font-size="10.00">detruire_un_mob</text>
</a>
</g>
</g>
<!-- Node5&#45;&gt;Node6 -->
<g id="edge5_Node000005_Node000006" class="edge">
<title>Node5&#45;&gt;Node6</title>
<g id="a_edge5_Node000005_Node000006"><a xlink:title=" ">
<path fill="none" stroke="#63b8ff" d="M194.71,-134.5C213.07,-146.6 244.71,-166.67 273.5,-181 276.37,-182.43 279.37,-183.83 282.42,-185.19"/>
<polygon fill="#63b8ff" stroke="#63b8ff" points="280.82,-188.31 291.39,-189 283.56,-181.87 280.82,-188.31"/>
</a>
</g>
</g>
<!-- Node7 -->
<g id="Node000007" class="node">
<title>Node7</title>
<g id="a_Node000007"><a xlink:href="item_8c.html#ac066d9bc77b421f23ca66756b7ff4a33" target="_top" xlink:title="Initialise item et prepare les ressources necessaires.">
<polygon fill="white" stroke="#666666" points="348.38,-172 295.62,-172 295.62,-152 348.38,-152 348.38,-172"/>
<text xml:space="preserve" text-anchor="middle" x="322" y="-158.5" font-family="Helvetica,sans-Serif" font-size="10.00">init_item</text>
</a>
</g>
</g>
<!-- Node5&#45;&gt;Node7 -->
<g id="edge6_Node000005_Node000007" class="edge">
<title>Node5&#45;&gt;Node7</title>
<g id="a_edge6_Node000005_Node000007"><a xlink:title=" ">
<path fill="none" stroke="#63b8ff" d="M218.27,-134.48C238.93,-140.02 264.14,-146.77 284.41,-152.2"/>
<polygon fill="#63b8ff" stroke="#63b8ff" points="283.38,-155.55 293.94,-154.75 285.19,-148.78 283.38,-155.55"/>
</a>
</g>
</g>
<!-- Node8 -->
<g id="Node000008" class="node">
<title>Node8</title>
<g id="a_Node000008"><a xlink:href="mob_8c.html#a30dd485a00ed194617f87517eb3e07f5" target="_top" xlink:title="Programme la reapparition differee d&#39;un mob dans la file de respawn.">
<polygon fill="white" stroke="#666666" points="370.5,-134 273.5,-134 273.5,-114 370.5,-114 370.5,-134"/>
<text xml:space="preserve" text-anchor="middle" x="322" y="-120.5" font-family="Helvetica,sans-Serif" font-size="10.00">schedule_respawn</text>
</a>
</g>
</g>
<!-- Node5&#45;&gt;Node8 -->
<g id="edge7_Node000005_Node000008" class="edge">
<title>Node5&#45;&gt;Node8</title>
<g id="a_edge7_Node000005_Node000008"><a xlink:title=" ">
<path fill="none" stroke="#63b8ff" d="M237.65,-124C245.74,-124 254.06,-124 262.16,-124"/>
<polygon fill="#63b8ff" stroke="#63b8ff" points="261.91,-127.5 271.91,-124 261.9,-120.5 261.91,-127.5"/>
</a>
</g>
</g>
<!-- Node9 -->
<g id="Node000009" class="node">
<title>Node9</title>
<g id="a_Node000009"><a xlink:href="main_8h.html#a6c672075bc554c92548a916c9501bdb5" target="_top" xlink:title=" ">
<polygon fill="white" stroke="#666666" points="366,-58 278,-58 278,-38 366,-38 366,-58"/>
<text xml:space="preserve" text-anchor="middle" x="322" y="-44.5" font-family="Helvetica,sans-Serif" font-size="10.00">screen_center_x</text>
</a>
</g>
</g>
<!-- Node5&#45;&gt;Node9 -->
<g id="edge8_Node000005_Node000009" class="edge">
<title>Node5&#45;&gt;Node9</title>
<g id="a_edge8_Node000005_Node000009"><a xlink:title=" ">
<path fill="none" stroke="#63b8ff" d="M194.71,-113.5C213.07,-101.4 244.71,-81.33 273.5,-67 276.37,-65.57 279.37,-64.17 282.42,-62.81"/>
<polygon fill="#63b8ff" stroke="#63b8ff" points="283.56,-66.13 291.39,-59 280.82,-59.69 283.56,-66.13"/>
</a>
</g>
</g>
<!-- Node11 -->
<g id="Node000011" class="node">
<title>Node11</title>
<g id="a_Node000011"><a xlink:href="main_8h.html#a6456affd0d0a21e911b531a5ba25676d" target="_top" xlink:title=" ">
<polygon fill="white" stroke="#666666" points="366,-20 278,-20 278,0 366,0 366,-20"/>
<text xml:space="preserve" text-anchor="middle" x="322" y="-6.5" font-family="Helvetica,sans-Serif" font-size="10.00">screen_center_y</text>
</a>
</g>
</g>
<!-- Node5&#45;&gt;Node11 -->
<g id="edge10_Node000005_Node000011" class="edge">
<title>Node5&#45;&gt;Node11</title>
<g id="a_edge10_Node000005_Node000011"><a xlink:title=" ">
<path fill="none" stroke="#63b8ff" d="M186.89,-113.78C201.8,-94.75 236.28,-53.63 273.5,-29 275.44,-27.72 277.48,-26.5 279.58,-25.34"/>
<polygon fill="#63b8ff" stroke="#63b8ff" points="280.87,-28.61 288.31,-21.07 277.79,-22.32 280.87,-28.61"/>
</a>
</g>
</g>
<!-- Node13 -->
<g id="Node000013" class="node">
<title>Node13</title>
<g id="a_Node000013"><a xlink:href="perso_8c.html#a2a53403cf290bb65fb010b095c4843cf" target="_top" xlink:title="Verifie collision et retourne le resultat du test.">
<polygon fill="white" stroke="#666666" points="358.5,-96 285.5,-96 285.5,-76 358.5,-76 358.5,-96"/>
<text xml:space="preserve" text-anchor="middle" x="322" y="-82.5" font-family="Helvetica,sans-Serif" font-size="10.00">test_collision</text>
</a>
</g>
</g>
<!-- Node5&#45;&gt;Node13 -->
<g id="edge12_Node000005_Node000013" class="edge">
<title>Node5&#45;&gt;Node13</title>
<g id="a_edge12_Node000005_Node000013"><a xlink:title=" ">
<path fill="none" stroke="#63b8ff" d="M218.27,-113.52C235.66,-108.86 256.26,-103.34 274.43,-98.47"/>
<polygon fill="#63b8ff" stroke="#63b8ff" points="275.17,-101.9 283.92,-95.93 273.35,-95.14 275.17,-101.9"/>
</a>
</g>
</g>
<!-- Node10 -->
<g id="Node000010" class="node">
<title>Node10</title>
<g id="a_Node000010"><a xlink:href="main_8h.html#aaaa1e9fcb86ff8e60b297faa7815ad1d" target="_top" xlink:title=" ">
<polygon fill="white" stroke="#666666" points="484.75,-58 408,-58 408,-38 484.75,-38 484.75,-58"/>
<text xml:space="preserve" text-anchor="middle" x="446.38" y="-44.5" font-family="Helvetica,sans-Serif" font-size="10.00">screen_widthf</text>
</a>
</g>
</g>
<!-- Node9&#45;&gt;Node10 -->
<g id="edge9_Node000009_Node000010" class="edge">
<title>Node9&#45;&gt;Node10</title>
<g id="a_edge9_Node000009_Node000010"><a xlink:title=" ">
<path fill="none" stroke="#63b8ff" d="M366.49,-48C376.17,-48 386.49,-48 396.37,-48"/>
<polygon fill="#63b8ff" stroke="#63b8ff" points="396.19,-51.5 406.19,-48 396.19,-44.5 396.19,-51.5"/>
</a>
</g>
</g>
<!-- Node12 -->
<g id="Node000012" class="node">
<title>Node12</title>
<g id="a_Node000012"><a xlink:href="main_8h.html#a9b4aefc63ea00e60ec88da19e24e8236" target="_top" xlink:title=" ">
<polygon fill="white" stroke="#666666" points="486.25,-20 406.5,-20 406.5,0 486.25,0 486.25,-20"/>
<text xml:space="preserve" text-anchor="middle" x="446.38" y="-6.5" font-family="Helvetica,sans-Serif" font-size="10.00">screen_heightf</text>
</a>
</g>
</g>
<!-- Node11&#45;&gt;Node12 -->
<g id="edge11_Node000011_Node000012" class="edge">
<title>Node11&#45;&gt;Node12</title>
<g id="a_edge11_Node000011_Node000012"><a xlink:title=" ">
<path fill="none" stroke="#63b8ff" d="M366.49,-10C375.67,-10 385.44,-10 394.85,-10"/>
<polygon fill="#63b8ff" stroke="#63b8ff" points="394.59,-13.5 404.59,-10 394.59,-6.5 394.59,-13.5"/>
</a>
</g>
</g>
<!-- Node13&#45;&gt;Node2 -->
<g id="edge13_Node000013_Node000002" class="edge">
<title>Node13&#45;&gt;Node2</title>
<g id="a_edge13_Node000013_Node000002"><a xlink:title=" ">
<path fill="none" stroke="#63b8ff" d="M352.72,-96.45C358.75,-98.96 364.94,-101.85 370.5,-105 390.32,-116.23 410.77,-132.14 425.27,-144.3"/>
<polygon fill="#63b8ff" stroke="#63b8ff" points="422.86,-146.84 432.73,-150.68 427.41,-141.52 422.86,-146.84"/>
</a>
</g>
</g>
</g>
</svg>
