<?xml version="1.0" encoding="UTF-8" standalone="no"?>
<!DOCTYPE svg PUBLIC "-//W3C//DTD SVG 1.1//EN"
 "http://www.w3.org/Graphics/SVG/1.1/DTD/svg11.dtd">
<!-- Generated by graphviz version 14.1.4 (20260321.0153)
 -->
<!-- Title: src/headers/perso.h Pages: 1 -->
<svg width="1747pt" height="196pt"
 viewBox="0.00 0.00 1747.00 196.00" xmlns="http://www.w3.org/2000/svg" xmlns:xlink="http://www.w3.org/1999/xlink">
<g id="graph0" class="graph" transform="scale(1 1) rotate(0) translate(4 192)">
<title>src/headers/perso.h</title>
<!-- Node1 -->
<g id="Node000001" class="node">
<title>Node1</title>
<g id="a_Node000001"><a xlink:title="Fichier du personnage: deplacement, combat, stats et collisions.">
<polygon fill="#999999" stroke="#666666" points="931.12,-188 828.88,-188 828.88,-168 931.12,-168 931.12,-188"/>
<text xml:space="preserve" text-anchor="middle" x="880" y="-174.5" font-family="Helvetica,sans-Serif" font-size="10.00">src/headers/perso.h</text>
</a>
</g>
</g>
<!-- Node2 -->
<g id="Node000002" class="node">
<title>Node2</title>
<g id="a_Node000002"><a xlink:href="main_8h.html" target="_top" xlink:title="Declarations globales et utilitaires partages entre les modules du jeu.">
<polygon fill="white" stroke="#666666" points="929.62,-132 830.38,-132 830.38,-112 929.62,-112 929.62,-132"/>
<text xml:space="preserve" text-anchor="middle" x="880" y="-118.5" font-family="Helvetica,sans-Serif" font-size="10.00">src/headers/main.h</text>
</a>
</g>
</g>
<!-- Node1&#45;&gt;Node2 -->
<g id="edge1_Node000001_Node000002" class="edge">
<title>Node1&#45;&gt;Node2</title>
<g id="a_edge1_Node000001_Node000002"><a xlink:title=" ">
<path fill="none" stroke="#63b8ff" d="M880,-156.13C880,-147.9 880,-138.85 880,-132.3"/>
<polygon fill="#63b8ff" stroke="#63b8ff" points="876.5,-156.08 880,-166.08 883.5,-156.08 876.5,-156.08"/>
</a>
</g>
</g>
<!-- Node3 -->
<g id="Node000003" class="node">
<title>Node3</title>
<g id="a_Node000003"><a xlink:href="arcade_8c.html" target="_top" xlink:title="Gestion de la séquence d&#39;arcade et de ses ecrans associes.">
<polygon fill="white" stroke="#666666" points="70,-76 0,-76 0,-56 70,-56 70,-76"/>
<text xml:space="preserve" text-anchor="middle" x="35" y="-62.5" font-family="Helvetica,sans-Serif" font-size="10.00">src/arcade.c</text>
</a>
</g>
</g>
<!-- Node2&#45;&gt;Node3 -->
<g id="edge2_Node000002_Node000003" class="edge">
<title>Node2&#45;&gt;Node3</title>
<g id="a_edge2_Node000002_Node000003"><a xlink:title=" ">
<path fill="none" stroke="#63b8ff" d="M818.84,-120.59C684.45,-119.04 353.47,-111.59 79,-76 76.22,-75.64 73.35,-75.2 70.47,-74.72"/>
<polygon fill="#63b8ff" stroke="#63b8ff" points="818.54,-124.09 828.57,-120.7 818.61,-117.09 818.54,-124.09"/>
</a>
</g>
</g>
<!-- Node4 -->
<g id="Node000004" class="node">
<title>Node4</title>
<g id="a_Node000004"><a xlink:href="boss_8c.html" target="_top" xlink:title="Gestion du boss, de ses phases et de ses attaques.">
<polygon fill="white" stroke="#666666" points="149.88,-76 88.12,-76 88.12,-56 149.88,-56 149.88,-76"/>
<text xml:space="preserve" text-anchor="middle" x="119" y="-62.5" font-family="Helvetica,sans-Serif" font-size="10.00">src/boss.c</text>
</a>
</g>
</g>
<!-- Node2&#45;&gt;Node4 -->
<g id="edge3_Node000002_Node000004" class="edge">
<title>Node2&#45;&gt;Node4</title>
<g id="a_edge3_Node000002_Node000004"><a xlink:title=" ">
<path fill="none" stroke="#63b8ff" d="M818.71,-120.45C693.91,-118.62 401.6,-110.64 159,-76 156.18,-75.6 153.27,-75.1 150.36,-74.55"/>
<polygon fill="#63b8ff" stroke="#63b8ff" points="818.34,-123.95 828.38,-120.59 818.43,-116.95 818.34,-123.95"/>
</a>
</g>
</g>
<!-- Node5 -->
<g id="Node000005" class="node">
<title>Node5</title>
<g id="a_Node000005"><a xlink:href="cinematique_8c.html" target="_top" xlink:title="Lecture des cinematics et enchainement des sequences narratives.">
<polygon fill="white" stroke="#666666" points="261.62,-76 168.38,-76 168.38,-56 261.62,-56 261.62,-76"/>
<text xml:space="preserve" text-anchor="middle" x="215" y="-62.5" font-family="Helvetica,sans-Serif" font-size="10.00">src/cinematique.c</text>
</a>
</g>
</g>
<!-- Node2&#45;&gt;Node5 -->
<g id="edge4_Node000002_Node000005" class="edge">
<title>Node2&#45;&gt;Node5</title>
<g id="a_edge4_Node000002_Node000005"><a xlink:title=" ">
<path fill="none" stroke="#63b8ff" d="M818.95,-118.22C709.08,-112.84 470.84,-99.4 271,-76 268.07,-75.66 265.05,-75.27 262.01,-74.85"/>
<polygon fill="#63b8ff" stroke="#63b8ff" points="818.46,-121.7 828.62,-118.69 818.8,-114.71 818.46,-121.7"/>
</a>
</g>
</g>
<!-- Node6 -->
<g id="Node000006" class="node">
<title>Node6</title>
<g id="a_Node000006"><a xlink:href="game__over_8c.html" target="_top" xlink:title="Affichage de l&#39;ecran de fin de partie et retour au menu.">
<polygon fill="white" stroke="#666666" points="368.38,-76 279.62,-76 279.62,-56 368.38,-56 368.38,-76"/>
<text xml:space="preserve" text-anchor="middle" x="324" y="-62.5" font-family="Helvetica,sans-Serif" font-size="10.00">src/game_over.c</text>
</a>
</g>
</g>
<!-- Node2&#45;&gt;Node6 -->
<g id="edge5_Node000002_Node000006" class="edge">
<title>Node2&#45;&gt;Node6</title>
<g id="a_edge5_Node000002_Node000006"><a xlink:title=" ">
<path fill="none" stroke="#63b8ff" d="M818.77,-116.73C724.68,-109.89 538.95,-95.25 382,-76 377.65,-75.47 373.13,-74.86 368.61,-74.22"/>
<polygon fill="#63b8ff" stroke="#63b8ff" points="818.32,-120.21 828.55,-117.44 818.82,-113.23 818.32,-120.21"/>
</a>
</g>
</g>
<!-- Node7 -->
<g id="Node000007" class="node">
<title>Node7</title>
<g id="a_Node000007"><a xlink:href="planete_8h.html" target="_top" xlink:title="Fichier des ecrans de planetes et transitions d&#39;environnement.">
<polygon fill="white" stroke="#666666" points="533.88,-76 424.12,-76 424.12,-56 533.88,-56 533.88,-76"/>
<text xml:space="preserve" text-anchor="middle" x="479" y="-62.5" font-family="Helvetica,sans-Serif" font-size="10.00">src/headers/planete.h</text>
</a>
</g>
</g>
<!-- Node2&#45;&gt;Node7 -->
<g id="edge6_Node000002_Node000007" class="edge">
<title>Node2&#45;&gt;Node7</title>
<g id="a_edge6_Node000002_Node000007"><a xlink:title=" ">
<path fill="none" stroke="#63b8ff" d="M818.76,-112.95C751.22,-104.05 639.33,-89.2 543,-76 540.11,-75.6 537.15,-75.2 534.15,-74.78"/>
<polygon fill="#63b8ff" stroke="#63b8ff" points="818.15,-116.4 828.52,-114.24 819.07,-109.46 818.15,-116.4"/>
</a>
</g>
</g>
<!-- Node8 -->
<g id="Node000008" class="node">
<title>Node8</title>
<g id="a_Node000008"><a xlink:href="jeux_8c.html" target="_top" xlink:title="Boucle principale et orchestration des etats de jeu.">
<polygon fill="white" stroke="#666666" points="425.38,-20 366.62,-20 366.62,0 425.38,0 425.38,-20"/>
<text xml:space="preserve" text-anchor="middle" x="396" y="-6.5" font-family="Helvetica,sans-Serif" font-size="10.00">src/jeux.c</text>
</a>
</g>
</g>
<!-- Node2&#45;&gt;Node8 -->
<g id="edge11_Node000002_Node000008" class="edge">
<title>Node2&#45;&gt;Node8</title>
<g id="a_edge11_Node000002_Node000008"><a xlink:title=" ">
<path fill="none" stroke="#63b8ff" d="M818.58,-118.85C699.33,-114.13 445.46,-101.21 415,-76 398.34,-62.21 395.81,-34.66 395.71,-20.26"/>
<polygon fill="#63b8ff" stroke="#63b8ff" points="818.39,-122.34 828.52,-119.23 818.66,-115.35 818.39,-122.34"/>
</a>
</g>
</g>
<!-- Node10 -->
<g id="Node000010" class="node">
<title>Node10</title>
<g id="a_Node000010"><a xlink:href="inventaire_8c.html" target="_top" xlink:title="Gestion de l&#39;inventaire, de la hotbar et des objets ramassables.">
<polygon fill="white" stroke="#666666" points="634.38,-76 551.62,-76 551.62,-56 634.38,-56 634.38,-76"/>
<text xml:space="preserve" text-anchor="middle" x="593" y="-62.5" font-family="Helvetica,sans-Serif" font-size="10.00">src/inventaire.c</text>
</a>
</g>
</g>
<!-- Node2&#45;&gt;Node10 -->
<g id="edge9_Node000002_Node000010" class="edge">
<title>Node2&#45;&gt;Node10</title>
<g id="a_edge9_Node000002_Node000010"><a xlink:title=" ">
<path fill="none" stroke="#63b8ff" d="M818.9,-109.5C763.36,-99.05 682.92,-83.92 634.51,-74.81"/>
<polygon fill="#63b8ff" stroke="#63b8ff" points="818.05,-112.9 828.52,-111.31 819.34,-106.03 818.05,-112.9"/>
</a>
</g>
</g>
<!-- Node11 -->
<g id="Node000011" class="node">
<title>Node11</title>
<g id="a_Node000011"><a xlink:href="item_8c.html" target="_top" xlink:title="Creation, affichage et ramassage des objets du monde.">
<polygon fill="white" stroke="#666666" points="711.75,-76 652.25,-76 652.25,-56 711.75,-56 711.75,-76"/>
<text xml:space="preserve" text-anchor="middle" x="682" y="-62.5" font-family="Helvetica,sans-Serif" font-size="10.00">src/item.c</text>
</a>
</g>
</g>
<!-- Node2&#45;&gt;Node11 -->
<g id="edge10_Node000002_Node000011" class="edge">
<title>Node2&#45;&gt;Node11</title>
<g id="a_edge10_Node000002_Node000011"><a xlink:title=" ">
<path fill="none" stroke="#63b8ff" d="M834.86,-108.69C797.3,-98.44 744.87,-84.15 712.21,-75.24"/>
<polygon fill="#63b8ff" stroke="#63b8ff" points="833.48,-111.94 844.05,-111.2 835.32,-105.19 833.48,-111.94"/>
</a>
</g>
</g>
<!-- Node12 -->
<g id="Node000012" class="node">
<title>Node12</title>
<g id="a_Node000012"><a xlink:href="main_8c.html" target="_top" xlink:title="Point d&#39;entree du jeu et orchestration globale des ecrans.">
<polygon fill="white" stroke="#666666" points="791.88,-76 730.12,-76 730.12,-56 791.88,-56 791.88,-76"/>
<text xml:space="preserve" text-anchor="middle" x="761" y="-62.5" font-family="Helvetica,sans-Serif" font-size="10.00">src/main.c</text>
</a>
</g>
</g>
<!-- Node2&#45;&gt;Node12 -->
<g id="edge12_Node000002_Node000012" class="edge">
<title>Node2&#45;&gt;Node12</title>
<g id="a_edge12_Node000002_Node000012"><a xlink:title=" ">
<path fill="none" stroke="#63b8ff" d="M848.88,-106.88C827.77,-97.3 800.43,-84.89 781.89,-76.48"/>
<polygon fill="#63b8ff" stroke="#63b8ff" points="847.34,-110.02 857.89,-110.97 850.23,-103.65 847.34,-110.02"/>
</a>
</g>
</g>
<!-- Node13 -->
<g id="Node000013" class="node">
<title>Node13</title>
<g id="a_Node000013"><a xlink:href="map_8c.html" target="_top" xlink:title="Chargement, rendu et interactions de la carte du monde.">
<polygon fill="white" stroke="#666666" points="869.75,-76 810.25,-76 810.25,-56 869.75,-56 869.75,-76"/>
<text xml:space="preserve" text-anchor="middle" x="840" y="-62.5" font-family="Helvetica,sans-Serif" font-size="10.00">src/map.c</text>
</a>
</g>
</g>
<!-- Node2&#45;&gt;Node13 -->
<g id="edge13_Node000002_Node000013" class="edge">
<title>Node2&#45;&gt;Node13</title>
<g id="a_edge13_Node000002_Node000013"><a xlink:title=" ">
<path fill="none" stroke="#63b8ff" d="M866.25,-102.44C859.72,-93.62 852.2,-83.47 846.89,-76.3"/>
<polygon fill="#63b8ff" stroke="#63b8ff" points="863.37,-104.43 872.13,-110.38 868.99,-100.26 863.37,-104.43"/>
</a>
</g>
</g>
<!-- Node14 -->
<g id="Node000014" class="node">
<title>Node14</title>
<g id="a_Node000014"><a xlink:href="menu_8c.html" target="_top" xlink:title="Menu principal et navigation entre les ecrans.">
<polygon fill="white" stroke="#666666" points="952.38,-76 887.62,-76 887.62,-56 952.38,-56 952.38,-76"/>
<text xml:space="preserve" text-anchor="middle" x="920" y="-62.5" font-family="Helvetica,sans-Serif" font-size="10.00">src/menu.c</text>
</a>
</g>
</g>
<!-- Node2&#45;&gt;Node14 -->
<g id="edge14_Node000002_Node000014" class="edge">
<title>Node2&#45;&gt;Node14</title>
<g id="a_edge14_Node000002_Node000014"><a xlink:title=" ">
<path fill="none" stroke="#63b8ff" d="M893.75,-102.44C900.28,-93.62 907.8,-83.47 913.11,-76.3"/>
<polygon fill="#63b8ff" stroke="#63b8ff" points="891.01,-100.26 887.87,-110.38 896.63,-104.43 891.01,-100.26"/>
</a>
</g>
</g>
<!-- Node15 -->
<g id="Node000015" class="node">
<title>Node15</title>
<g id="a_Node000015"><a xlink:href="mob_8c.html" target="_top" xlink:title="Gestion des ennemis, de leur deplacement et de leur apparition.">
<polygon fill="white" stroke="#666666" points="1029.75,-76 970.25,-76 970.25,-56 1029.75,-56 1029.75,-76"/>
<text xml:space="preserve" text-anchor="middle" x="1000" y="-62.5" font-family="Helvetica,sans-Serif" font-size="10.00">src/mob.c</text>
</a>
</g>
</g>
<!-- Node2&#45;&gt;Node15 -->
<g id="edge15_Node000002_Node000015" class="edge">
<title>Node2&#45;&gt;Node15</title>
<g id="a_edge15_Node000002_Node000015"><a xlink:title=" ">
<path fill="none" stroke="#63b8ff" d="M911.38,-106.88C932.67,-97.3 960.24,-84.89 978.93,-76.48"/>
<polygon fill="#63b8ff" stroke="#63b8ff" points="909.97,-103.68 902.28,-110.97 912.84,-110.06 909.97,-103.68"/>
</a>
</g>
</g>
<!-- Node16 -->
<g id="Node000016" class="node">
<title>Node16</title>
<g id="a_Node000016"><a xlink:href="objectifs_8c.html" target="_top" xlink:title="Gestion des objectifs de progression et de leur affichage.">
<polygon fill="white" stroke="#666666" points="1125.75,-76 1048.25,-76 1048.25,-56 1125.75,-56 1125.75,-76"/>
<text xml:space="preserve" text-anchor="middle" x="1087" y="-62.5" font-family="Helvetica,sans-Serif" font-size="10.00">src/objectifs.c</text>
</a>
</g>
</g>
<!-- Node2&#45;&gt;Node16 -->
<g id="edge16_Node000002_Node000016" class="edge">
<title>Node2&#45;&gt;Node16</title>
<g id="a_edge16_Node000002_Node000016"><a xlink:title=" ">
<path fill="none" stroke="#63b8ff" d="M926.72,-108.81C964.25,-99.02 1016.2,-85.47 1050.66,-76.48"/>
<polygon fill="#63b8ff" stroke="#63b8ff" points="926.31,-105.3 917.52,-111.21 928.08,-112.07 926.31,-105.3"/>
</a>
</g>
</g>
<!-- Node17 -->
<g id="Node000017" class="node">
<title>Node17</title>
<g id="a_Node000017"><a xlink:href="option_8c.html" target="_top" xlink:title="Menu des options audio et aide aux commandes.">
<polygon fill="white" stroke="#666666" points="1210.5,-76 1143.5,-76 1143.5,-56 1210.5,-56 1210.5,-76"/>
<text xml:space="preserve" text-anchor="middle" x="1177" y="-62.5" font-family="Helvetica,sans-Serif" font-size="10.00">src/option.c</text>
</a>
</g>
</g>
<!-- Node2&#45;&gt;Node17 -->
<g id="edge17_Node000002_Node000017" class="edge">
<title>Node2&#45;&gt;Node17</title>
<g id="a_edge17_Node000002_Node000017"><a xlink:title=" ">
<path fill="none" stroke="#63b8ff" d="M941.24,-110.84C992.97,-102.1 1068.96,-88.9 1135,-76 1137.63,-75.49 1140.36,-74.94 1143.1,-74.38"/>
<polygon fill="#63b8ff" stroke="#63b8ff" points="940.71,-107.38 931.43,-112.49 941.87,-114.28 940.71,-107.38"/>
</a>
</g>
</g>
<!-- Node18 -->
<g id="Node000018" class="node">
<title>Node18</title>
<g id="a_Node000018"><a xlink:href="pause_8c.html" target="_top" xlink:title="Menu pause et actions disponibles pendant une partie.">
<polygon fill="white" stroke="#666666" points="1295.5,-76 1228.5,-76 1228.5,-56 1295.5,-56 1295.5,-76"/>
<text xml:space="preserve" text-anchor="middle" x="1262" y="-62.5" font-family="Helvetica,sans-Serif" font-size="10.00">src/pause.c</text>
</a>
</g>
</g>
<!-- Node2&#45;&gt;Node18 -->
<g id="edge18_Node000002_Node000018" class="edge">
<title>Node2&#45;&gt;Node18</title>
<g id="a_edge18_Node000002_Node000018"><a xlink:title=" ">
<path fill="none" stroke="#63b8ff" d="M941.41,-114.36C1009.67,-106.64 1123.08,-92.77 1220,-76 1222.65,-75.54 1225.38,-75.04 1228.12,-74.5"/>
<polygon fill="#63b8ff" stroke="#63b8ff" points="941.07,-110.88 931.53,-115.47 941.86,-117.83 941.07,-110.88"/>
</a>
</g>
</g>
<!-- Node19 -->
<g id="Node000019" class="node">
<title>Node19</title>
<g id="a_Node000019"><a xlink:href="perso_8c.html" target="_top" xlink:title="Deplacement, animation, combat et collecte du personnage.">
<polygon fill="white" stroke="#666666" points="1378.38,-76 1313.62,-76 1313.62,-56 1378.38,-56 1378.38,-76"/>
<text xml:space="preserve" text-anchor="middle" x="1346" y="-62.5" font-family="Helvetica,sans-Serif" font-size="10.00">src/perso.c</text>
</a>
</g>
</g>
<!-- Node2&#45;&gt;Node19 -->
<g id="edge19_Node000002_Node000019" class="edge">
<title>Node2&#45;&gt;Node19</title>
<g id="a_edge19_Node000002_Node000019"><a xlink:title=" ">
<path fill="none" stroke="#63b8ff" d="M941.44,-116.64C1024.33,-110.27 1176.42,-96.85 1305,-76 1307.73,-75.56 1310.56,-75.05 1313.39,-74.5"/>
<polygon fill="#63b8ff" stroke="#63b8ff" points="941.18,-113.15 931.47,-117.4 941.71,-120.13 941.18,-113.15"/>
</a>
</g>
</g>
<!-- Node20 -->
<g id="Node000020" class="node">
<title>Node20</title>
<g id="a_Node000020"><a xlink:href="sauvegarde_8c.html" target="_top" xlink:title="Gestion des sauvegardes, des chargements et des emplacements.">
<polygon fill="white" stroke="#666666" points="1487.5,-76 1396.5,-76 1396.5,-56 1487.5,-56 1487.5,-76"/>
<text xml:space="preserve" text-anchor="middle" x="1442" y="-62.5" font-family="Helvetica,sans-Serif" font-size="10.00">src/sauvegarde.c</text>
</a>
</g>
</g>
<!-- Node2&#45;&gt;Node20 -->
<g id="edge20_Node000002_Node000020" class="edge">
<title>Node2&#45;&gt;Node20</title>
<g id="a_edge20_Node000002_Node000020"><a xlink:title=" ">
<path fill="none" stroke="#63b8ff" d="M941.23,-117.03C1036.68,-110.51 1226.67,-96.21 1387,-76 1389.98,-75.62 1393.04,-75.21 1396.12,-74.77"/>
<polygon fill="#63b8ff" stroke="#63b8ff" points="941.04,-113.53 931.3,-117.7 941.51,-120.52 941.04,-113.53"/>
</a>
</g>
</g>
<!-- Node21 -->
<g id="Node000021" class="node">
<title>Node21</title>
<g id="a_Node000021"><a xlink:href="shop_8c.html" target="_top" xlink:title="Interface de boutique du vaisseau et achats du joueur.">
<polygon fill="white" stroke="#666666" points="1566.88,-76 1505.12,-76 1505.12,-56 1566.88,-56 1566.88,-76"/>
<text xml:space="preserve" text-anchor="middle" x="1536" y="-62.5" font-family="Helvetica,sans-Serif" font-size="10.00">src/shop.c</text>
</a>
</g>
</g>
<!-- Node2&#45;&gt;Node21 -->
<g id="edge21_Node000002_Node000021" class="edge">
<title>Node2&#45;&gt;Node21</title>
<g id="a_edge21_Node000002_Node000021"><a xlink:title=" ">
<path fill="none" stroke="#63b8ff" d="M941.18,-119.66C1052.41,-116.52 1294.94,-106.5 1497,-76 1499.61,-75.61 1502.31,-75.13 1505,-74.61"/>
<polygon fill="#63b8ff" stroke="#63b8ff" points="941.29,-116.15 931.39,-119.92 941.48,-123.15 941.29,-116.15"/>
</a>
</g>
</g>
<!-- Node22 -->
<g id="Node000022" class="node">
<title>Node22</title>
<g id="a_Node000022"><a xlink:href="son_8c.html" target="_top" xlink:title="Gestion des musiques, des effets sonores et de leur etat.">
<polygon fill="white" stroke="#666666" points="1641.25,-76 1584.75,-76 1584.75,-56 1641.25,-56 1641.25,-76"/>
<text xml:space="preserve" text-anchor="middle" x="1613" y="-62.5" font-family="Helvetica,sans-Serif" font-size="10.00">src/son.c</text>
</a>
</g>
</g>
<!-- Node2&#45;&gt;Node22 -->
<g id="edge22_Node000002_Node000022" class="edge">
<title>Node2&#45;&gt;Node22</title>
<g id="a_edge22_Node000002_Node000022"><a xlink:title=" ">
<path fill="none" stroke="#63b8ff" d="M941.39,-120.61C1063.15,-119.04 1343.51,-111.52 1576,-76 1578.74,-75.58 1581.58,-75.06 1584.41,-74.47"/>
<polygon fill="#63b8ff" stroke="#63b8ff" points="941.59,-117.11 931.63,-120.72 941.67,-124.1 941.59,-117.11"/>
</a>
</g>
</g>
<!-- Node23 -->
<g id="Node000023" class="node">
<title>Node23</title>
<g id="a_Node000023"><a xlink:href="vaisseau_8c.html" target="_top" xlink:title="Exploration du vaisseau, interactions et retour vers la planete.">
<polygon fill="white" stroke="#666666" points="1738.88,-76 1659.12,-76 1659.12,-56 1738.88,-56 1738.88,-76"/>
<text xml:space="preserve" text-anchor="middle" x="1699" y="-62.5" font-family="Helvetica,sans-Serif" font-size="10.00">src/vaisseau.c</text>
</a>
</g>
</g>
<!-- Node2&#45;&gt;Node23 -->
<g id="edge23_Node000002_Node000023" class="edge">
<title>Node2&#45;&gt;Node23</title>
<g id="a_edge23_Node000002_Node000023"><a xlink:title=" ">
<path fill="none" stroke="#63b8ff" d="M941.04,-119.99C1071.58,-117.26 1387.38,-107.67 1650,-76 1652.83,-75.66 1655.75,-75.26 1658.68,-74.81"/>
<polygon fill="#63b8ff" stroke="#63b8ff" points="941.17,-116.48 931.25,-120.18 941.32,-123.48 941.17,-116.48"/>
</a>
</g>
</g>
<!-- Node7&#45;&gt;Node8 -->
<g id="edge7_Node000007_Node000008" class="edge">
<title>Node7&#45;&gt;Node8</title>
<g id="a_edge7_Node000007_Node000008"><a xlink:title=" ">
<path fill="none" stroke="#63b8ff" d="M455.24,-49.54C440.83,-40.17 422.91,-28.51 410.57,-20.48"/>
<polygon fill="#63b8ff" stroke="#63b8ff" points="452.98,-52.25 463.27,-54.77 456.8,-46.38 452.98,-52.25"/>
</a>
</g>
</g>
<!-- Node9 -->
<g id="Node000009" class="node">
<title>Node9</title>
<g id="a_Node000009"><a xlink:href="planete_8c.html" target="_top" xlink:title="Gestion des planetes et des transitions d&#39;exploration.">
<polygon fill="white" stroke="#666666" points="516.12,-20 443.88,-20 443.88,0 516.12,0 516.12,-20"/>
<text xml:space="preserve" text-anchor="middle" x="480" y="-6.5" font-family="Helvetica,sans-Serif" font-size="10.00">src/planete.c</text>
</a>
</g>
</g>
<!-- Node7&#45;&gt;Node9 -->
<g id="edge8_Node000007_Node000009" class="edge">
<title>Node7&#45;&gt;Node9</title>
<g id="a_edge8_Node000007_Node000009"><a xlink:title=" ">
<path fill="none" stroke="#63b8ff" d="M479.39,-44.13C479.54,-35.9 479.71,-26.85 479.83,-20.3"/>
<polygon fill="#63b8ff" stroke="#63b8ff" points="475.89,-44.02 479.2,-54.08 482.89,-44.15 475.89,-44.02"/>
</a>
</g>
</g>
</g>
</svg>
