<?xml version="1.0" encoding="UTF-8" standalone="no"?>
<!DOCTYPE svg PUBLIC "-//W3C//DTD SVG 1.1//EN"
 "http://www.w3.org/Graphics/SVG/1.1/DTD/svg11.dtd">
<!-- Generated by graphviz version 14.1.4 (20260321.0153)
 -->
<!-- Title: src/perso.c Pages: 1 -->
<svg width="1560pt" height="196pt"
 viewBox="0.00 0.00 1560.00 196.00" xmlns="http://www.w3.org/2000/svg" xmlns:xlink="http://www.w3.org/1999/xlink">
<g id="graph0" class="graph" transform="scale(1 1) rotate(0) translate(4 192)">
<title>src/perso.c</title>
<!-- Node1 -->
<g id="Node000001" class="node">
<title>Node1</title>
<g id="a_Node000001"><a xlink:title="Deplacement, animation, combat et collecte du personnage.">
<polygon fill="#999999" stroke="#666666" points="1507.37,-188 1442.62,-188 1442.62,-168 1507.37,-168 1507.37,-188"/>
<text xml:space="preserve" text-anchor="middle" x="1474.99" y="-174.5" font-family="Helvetica,sans-Serif" font-size="10.00">src/perso.c</text>
</a>
</g>
</g>
<!-- Node2 -->
<g id="Node000002" class="node">
<title>Node2</title>
<g id="a_Node000002"><a xlink:title=" ">
<polygon fill="#e0e0e0" stroke="#999999" points="707.74,-20 636.24,-20 636.24,0 707.74,0 707.74,-20"/>
<text xml:space="preserve" text-anchor="middle" x="671.99" y="-6.5" font-family="Helvetica,sans-Serif" font-size="10.00">SDL3/SDL.h</text>
</a>
</g>
</g>
<!-- Node1&#45;&gt;Node2 -->
<g id="edge1_Node000001_Node000002" class="edge">
<title>Node1&#45;&gt;Node2</title>
<g id="a_edge1_Node000001_Node000002"><a xlink:title=" ">
<path fill="none" stroke="#63b8ff" d="M1482.46,-167.69C1499.49,-145.29 1537.46,-87.89 1506.99,-56 1478.03,-25.69 824.89,-25.29 719.11,-19.54"/>
<polygon fill="#63b8ff" stroke="#63b8ff" points="719.52,-16.06 709.28,-18.78 718.98,-23.04 719.52,-16.06"/>
</a>
</g>
</g>
<!-- Node3 -->
<g id="Node000003" class="node">
<title>Node3</title>
<g id="a_Node000003"><a xlink:title=" ">
<polygon fill="#e0e0e0" stroke="#999999" points="477.24,-20 342.74,-20 342.74,0 477.24,0 477.24,-20"/>
<text xml:space="preserve" text-anchor="middle" x="409.99" y="-6.5" font-family="Helvetica,sans-Serif" font-size="10.00">SDL3_image/SDL_image.h</text>
</a>
</g>
</g>
<!-- Node1&#45;&gt;Node3 -->
<g id="edge2_Node000001_Node000003" class="edge">
<title>Node1&#45;&gt;Node3</title>
<g id="a_edge2_Node000001_Node000003"><a xlink:title=" ">
<path fill="none" stroke="#63b8ff" d="M1442.44,-176.01C1230.73,-169.43 56.6,-130.55 5.99,-76 -39.56,-26.9 201.17,-14.87 331.16,-11.93"/>
<polygon fill="#63b8ff" stroke="#63b8ff" points="331.18,-15.43 341.11,-11.72 331.04,-8.44 331.18,-15.43"/>
</a>
</g>
</g>
<!-- Node4 -->
<g id="Node000004" class="node">
<title>Node4</title>
<g id="a_Node000004"><a xlink:href="main_8h.html" target="_top" xlink:title="Declarations globales et utilitaires partages entre les modules du jeu.">
<polygon fill="white" stroke="#666666" points="844.37,-132 761.62,-132 761.62,-112 844.37,-112 844.37,-132"/>
<text xml:space="preserve" text-anchor="middle" x="802.99" y="-118.5" font-family="Helvetica,sans-Serif" font-size="10.00">headers/main.h</text>
</a>
</g>
</g>
<!-- Node1&#45;&gt;Node4 -->
<g id="edge3_Node000001_Node000004" class="edge">
<title>Node1&#45;&gt;Node4</title>
<g id="a_edge3_Node000001_Node000004"><a xlink:title=" ">
<path fill="none" stroke="#63b8ff" d="M1442.12,-174.36C1334.05,-165.67 989.03,-137.95 856,-127.26"/>
<polygon fill="#63b8ff" stroke="#63b8ff" points="856.3,-123.77 846.06,-126.46 855.74,-130.75 856.3,-123.77"/>
</a>
</g>
</g>
<!-- Node7 -->
<g id="Node000007" class="node">
<title>Node7</title>
<g id="a_Node000007"><a xlink:title=" ">
<polygon fill="#e0e0e0" stroke="#999999" points="1497.62,-76 1452.37,-76 1452.37,-56 1497.62,-56 1497.62,-76"/>
<text xml:space="preserve" text-anchor="middle" x="1474.99" y="-62.5" font-family="Helvetica,sans-Serif" font-size="10.00">stdio.h</text>
</a>
</g>
</g>
<!-- Node1&#45;&gt;Node7 -->
<g id="edge65_Node000001_Node000007" class="edge">
<title>Node1&#45;&gt;Node7</title>
<g id="a_edge65_Node000001_Node000007"><a xlink:title=" ">
<path fill="none" stroke="#63b8ff" d="M1474.99,-167.62C1474.99,-150.01 1474.99,-111.59 1474.99,-87.65"/>
<polygon fill="#63b8ff" stroke="#63b8ff" points="1478.49,-87.87 1474.99,-77.87 1471.49,-87.87 1478.49,-87.87"/>
</a>
</g>
</g>
<!-- Node24 -->
<g id="Node000024" class="node">
<title>Node24</title>
<g id="a_Node000024"><a xlink:title=" ">
<polygon fill="#e0e0e0" stroke="#999999" points="1488.87,-20 1433.12,-20 1433.12,0 1488.87,0 1488.87,-20"/>
<text xml:space="preserve" text-anchor="middle" x="1460.99" y="-6.5" font-family="Helvetica,sans-Serif" font-size="10.00">stdbool.h</text>
</a>
</g>
</g>
<!-- Node1&#45;&gt;Node24 -->
<g id="edge64_Node000001_Node000024" class="edge">
<title>Node1&#45;&gt;Node24</title>
<g id="a_edge64_Node000001_Node000024"><a xlink:title=" ">
<path fill="none" stroke="#63b8ff" d="M1498.74,-167.51C1513.52,-160.2 1531.33,-148.53 1539.99,-132 1555.67,-102.08 1556.97,-85.2 1539.99,-56 1531.16,-40.81 1515.07,-30.32 1499.71,-23.32"/>
<polygon fill="#63b8ff" stroke="#63b8ff" points="1501.27,-20.17 1490.69,-19.59 1498.59,-26.64 1501.27,-20.17"/>
</a>
</g>
</g>
<!-- Node4&#45;&gt;Node2 -->
<g id="edge4_Node000004_Node000002" class="edge">
<title>Node4&#45;&gt;Node2</title>
<g id="a_edge4_Node000004_Node000002"><a xlink:title=" ">
<path fill="none" stroke="#63b8ff" d="M844.56,-120.86C959.33,-119.78 1268.85,-111.72 1216.99,-56 1180.82,-17.14 809.52,-26.44 719.02,-19.7"/>
<polygon fill="#63b8ff" stroke="#63b8ff" points="719.59,-16.24 709.29,-18.73 718.89,-23.2 719.59,-16.24"/>
</a>
</g>
</g>
<!-- Node4&#45;&gt;Node3 -->
<g id="edge5_Node000004_Node000003" class="edge">
<title>Node4&#45;&gt;Node3</title>
<g id="a_edge5_Node000004_Node000003"><a xlink:title=" ">
<path fill="none" stroke="#63b8ff" d="M761.13,-120.18C601.92,-116.87 41.77,-103.3 15.99,-76 -28.66,-28.73 203.69,-15.83 331.05,-12.32"/>
<polygon fill="#63b8ff" stroke="#63b8ff" points="330.87,-15.82 340.78,-12.06 330.69,-8.83 330.87,-15.82"/>
</a>
</g>
</g>
<!-- Node5 -->
<g id="Node000005" class="node">
<title>Node5</title>
<g id="a_Node000005"><a xlink:title=" ">
<polygon fill="#e0e0e0" stroke="#999999" points="862.99,-76 816.99,-76 816.99,-56 862.99,-56 862.99,-76"/>
<text xml:space="preserve" text-anchor="middle" x="839.99" y="-62.5" font-family="Helvetica,sans-Serif" font-size="10.00">math.h</text>
</a>
</g>
</g>
<!-- Node4&#45;&gt;Node5 -->
<g id="edge6_Node000004_Node000005" class="edge">
<title>Node4&#45;&gt;Node5</title>
<g id="a_edge6_Node000004_Node000005"><a xlink:title=" ">
<path fill="none" stroke="#63b8ff" d="M809.44,-111.59C814.32,-104.47 821.18,-94.45 827.17,-85.72"/>
<polygon fill="#63b8ff" stroke="#63b8ff" points="830,-87.77 832.76,-77.55 824.22,-83.82 830,-87.77"/>
</a>
</g>
</g>
<!-- Node6 -->
<g id="Node000006" class="node">
<title>Node6</title>
<g id="a_Node000006"><a xlink:title=" ">
<polygon fill="#e0e0e0" stroke="#999999" points="1281.99,-20 1151.99,-20 1151.99,0 1281.99,0 1281.99,-20"/>
<text xml:space="preserve" text-anchor="middle" x="1216.99" y="-6.5" font-family="Helvetica,sans-Serif" font-size="10.00">SDL3_mixer/SDL_mixer.h</text>
</a>
</g>
</g>
<!-- Node4&#45;&gt;Node6 -->
<g id="edge7_Node000004_Node000006" class="edge">
<title>Node4&#45;&gt;Node6</title>
<g id="a_edge7_Node000004_Node000006"><a xlink:title=" ">
<path fill="none" stroke="#63b8ff" d="M844.57,-121.08C974.57,-120.9 1366.98,-116.96 1404.99,-76 1442.38,-35.72 1360.63,-20.4 1293.42,-14.57"/>
<polygon fill="#63b8ff" stroke="#63b8ff" points="1294.11,-11.12 1283.86,-13.81 1293.55,-18.1 1294.11,-11.12"/>
</a>
</g>
</g>
<!-- Node4&#45;&gt;Node7 -->
<g id="edge8_Node000004_Node000007" class="edge">
<title>Node4&#45;&gt;Node7</title>
<g id="a_edge8_Node000004_Node000007"><a xlink:title=" ">
<path fill="none" stroke="#63b8ff" d="M844.49,-120.46C946.25,-118.63 1216.04,-110.61 1437.99,-76 1438.99,-75.84 1440,-75.67 1441.02,-75.49"/>
<polygon fill="#63b8ff" stroke="#63b8ff" points="1441.45,-78.98 1450.54,-73.53 1440.03,-72.12 1441.45,-78.98"/>
</a>
</g>
</g>
<!-- Node8 -->
<g id="Node000008" class="node">
<title>Node8</title>
<g id="a_Node000008"><a xlink:title=" ">
<polygon fill="#e0e0e0" stroke="#999999" points="928.74,-76 881.24,-76 881.24,-56 928.74,-56 928.74,-76"/>
<text xml:space="preserve" text-anchor="middle" x="904.99" y="-62.5" font-family="Helvetica,sans-Serif" font-size="10.00">stdlib.h</text>
</a>
</g>
</g>
<!-- Node4&#45;&gt;Node8 -->
<g id="edge9_Node000004_Node000008" class="edge">
<title>Node4&#45;&gt;Node8</title>
<g id="a_edge9_Node000004_Node000008"><a xlink:title=" ">
<path fill="none" stroke="#63b8ff" d="M820.76,-111.59C836.31,-103.36 859.17,-91.26 877.15,-81.74"/>
<polygon fill="#63b8ff" stroke="#63b8ff" points="878.55,-84.96 885.75,-77.19 875.27,-78.77 878.55,-84.96"/>
</a>
</g>
</g>
<!-- Node9 -->
<g id="Node000009" class="node">
<title>Node9</title>
<g id="a_Node000009"><a xlink:href="menu_8h.html" target="_top" xlink:title="Fichier du menu principal et des choix de navigation.">
<polygon fill="white" stroke="#666666" points="73.12,-76 24.87,-76 24.87,-56 73.12,-56 73.12,-76"/>
<text xml:space="preserve" text-anchor="middle" x="48.99" y="-62.5" font-family="Helvetica,sans-Serif" font-size="10.00">menu.h</text>
</a>
</g>
</g>
<!-- Node4&#45;&gt;Node9 -->
<g id="edge10_Node000004_Node000009" class="edge">
<title>Node4&#45;&gt;Node9</title>
<g id="a_edge10_Node000004_Node000009"><a xlink:title=" ">
<path fill="none" stroke="#63b8ff" d="M761.2,-121.35C651.51,-121.66 346.3,-118.45 84.62,-76.1"/>
<polygon fill="#63b8ff" stroke="#63b8ff" points="85.31,-72.66 74.87,-74.49 84.17,-79.57 85.31,-72.66"/>
</a>
</g>
</g>
<!-- Node10 -->
<g id="Node000010" class="node">
<title>Node10</title>
<g id="a_Node000010"><a xlink:href="game__over_8h.html" target="_top" xlink:title="Fichier de l&#39;ecran de fin de partie et des transitions associees.">
<polygon fill="white" stroke="#666666" points="163.12,-76 90.87,-76 90.87,-56 163.12,-56 163.12,-76"/>
<text xml:space="preserve" text-anchor="middle" x="126.99" y="-62.5" font-family="Helvetica,sans-Serif" font-size="10.00">game_over.h</text>
</a>
</g>
</g>
<!-- Node4&#45;&gt;Node10 -->
<g id="edge13_Node000004_Node000010" class="edge">
<title>Node4&#45;&gt;Node10</title>
<g id="a_edge13_Node000004_Node000010"><a xlink:title=" ">
<path fill="none" stroke="#63b8ff" d="M761.46,-119.85C661.88,-116.71 401.5,-106.2 174.4,-76.16"/>
<polygon fill="#63b8ff" stroke="#63b8ff" points="175.15,-72.73 164.77,-74.87 174.22,-79.66 175.15,-72.73"/>
</a>
</g>
</g>
<!-- Node11 -->
<g id="Node000011" class="node">
<title>Node11</title>
<g id="a_Node000011"><a xlink:href="jeux_8h.html" target="_top" xlink:title="Fichier de la boucle de jeu principale et de son initialisation.">
<polygon fill="white" stroke="#666666" points="1208.12,-76 1165.87,-76 1165.87,-56 1208.12,-56 1208.12,-76"/>
<text xml:space="preserve" text-anchor="middle" x="1186.99" y="-62.5" font-family="Helvetica,sans-Serif" font-size="10.00">jeux.h</text>
</a>
</g>
</g>
<!-- Node4&#45;&gt;Node11 -->
<g id="edge16_Node000004_Node000011" class="edge">
<title>Node4&#45;&gt;Node11</title>
<g id="a_edge16_Node000004_Node000011"><a xlink:title=" ">
<path fill="none" stroke="#63b8ff" d="M844.78,-117.93C909.37,-112.71 1037.42,-100.42 1154.54,-76.22"/>
<polygon fill="#63b8ff" stroke="#63b8ff" points="1154.93,-79.72 1163.99,-74.23 1153.48,-72.87 1154.93,-79.72"/>
</a>
</g>
</g>
<!-- Node12 -->
<g id="Node000012" class="node">
<title>Node12</title>
<g id="a_Node000012"><a xlink:href="bouton_8h.html" target="_top" xlink:title="Fichier des boutons UI, de leur etat et de la gestion des interactions souris.">
<polygon fill="white" stroke="#666666" points="234.74,-76 181.24,-76 181.24,-56 234.74,-56 234.74,-76"/>
<text xml:space="preserve" text-anchor="middle" x="207.99" y="-62.5" font-family="Helvetica,sans-Serif" font-size="10.00">bouton.h</text>
</a>
</g>
</g>
<!-- Node4&#45;&gt;Node12 -->
<g id="edge20_Node000004_Node000012" class="edge">
<title>Node4&#45;&gt;Node12</title>
<g id="a_edge20_Node000004_Node000012"><a xlink:title=" ">
<path fill="none" stroke="#63b8ff" d="M761.33,-119.99C669.81,-117.26 444.24,-107.81 246.22,-76.09"/>
<polygon fill="#63b8ff" stroke="#63b8ff" points="246.94,-72.66 236.51,-74.51 245.82,-79.57 246.94,-72.66"/>
</a>
</g>
</g>
<!-- Node13 -->
<g id="Node000013" class="node">
<title>Node13</title>
<g id="a_Node000013"><a xlink:href="option_8h.html" target="_top" xlink:title="Fichier de l&#39;ecran d&#39;options et des reglages de jeu.">
<polygon fill="white" stroke="#666666" points="303.24,-76 252.74,-76 252.74,-56 303.24,-56 303.24,-76"/>
<text xml:space="preserve" text-anchor="middle" x="277.99" y="-62.5" font-family="Helvetica,sans-Serif" font-size="10.00">option.h</text>
</a>
</g>
</g>
<!-- Node4&#45;&gt;Node13 -->
<g id="edge23_Node000004_Node000013" class="edge">
<title>Node4&#45;&gt;Node13</title>
<g id="a_edge23_Node000004_Node000013"><a xlink:title=" ">
<path fill="none" stroke="#63b8ff" d="M761.3,-119.53C678.06,-116.1 485.3,-105.61 314.71,-76.21"/>
<polygon fill="#63b8ff" stroke="#63b8ff" points="315.45,-72.79 305,-74.51 314.24,-79.68 315.45,-72.79"/>
</a>
</g>
</g>
<!-- Node14 -->
<g id="Node000014" class="node">
<title>Node14</title>
<g id="a_Node000014"><a xlink:href="perso_8h.html" target="_top" xlink:title="Fichier du personnage: deplacement, combat, stats et collisions.">
<polygon fill="white" stroke="#666666" points="369.12,-76 320.87,-76 320.87,-56 369.12,-56 369.12,-76"/>
<text xml:space="preserve" text-anchor="middle" x="344.99" y="-62.5" font-family="Helvetica,sans-Serif" font-size="10.00">perso.h</text>
</a>
</g>
</g>
<!-- Node4&#45;&gt;Node14 -->
<g id="edge26_Node000004_Node000014" class="edge">
<title>Node4&#45;&gt;Node14</title>
<g id="a_edge26_Node000004_Node000014"><a xlink:title=" ">
<path fill="none" stroke="#63b8ff" d="M761.34,-118.82C686.8,-114.43 525.55,-102.77 380.68,-76.23"/>
<polygon fill="#63b8ff" stroke="#63b8ff" points="381.36,-72.8 370.89,-74.4 380.07,-79.68 381.36,-72.8"/>
</a>
</g>
</g>
<!-- Node15 -->
<g id="Node000015" class="node">
<title>Node15</title>
<g id="a_Node000015"><a xlink:href="son_8h.html" target="_top" xlink:title="Fichier audio: musique, effets sonores et etats d&#39;activation.">
<polygon fill="white" stroke="#666666" points="1303.99,-76 1263.99,-76 1263.99,-56 1303.99,-56 1303.99,-76"/>
<text xml:space="preserve" text-anchor="middle" x="1283.99" y="-62.5" font-family="Helvetica,sans-Serif" font-size="10.00">son.h</text>
</a>
</g>
</g>
<!-- Node4&#45;&gt;Node15 -->
<g id="edge29_Node000004_Node000015" class="edge">
<title>Node4&#45;&gt;Node15</title>
<g id="a_edge29_Node000004_Node000015"><a xlink:title=" ">
<path fill="none" stroke="#63b8ff" d="M844.59,-119.02C923.95,-114.75 1102.26,-102.81 1249.99,-76 1250.82,-75.85 1251.67,-75.69 1252.52,-75.52"/>
<polygon fill="#63b8ff" stroke="#63b8ff" points="1253.18,-78.96 1262.14,-73.3 1251.61,-72.14 1253.18,-78.96"/>
</a>
</g>
</g>
<!-- Node17 -->
<g id="Node000017" class="node">
<title>Node17</title>
<g id="a_Node000017"><a xlink:href="boss_8h.html" target="_top" xlink:title="API de gestion des boss, de leurs phases et de leurs comportements de combat.">
<polygon fill="white" stroke="#666666" points="432.62,-76 387.37,-76 387.37,-56 432.62,-56 432.62,-76"/>
<text xml:space="preserve" text-anchor="middle" x="409.99" y="-62.5" font-family="Helvetica,sans-Serif" font-size="10.00">boss.h</text>
</a>
</g>
</g>
<!-- Node4&#45;&gt;Node17 -->
<g id="edge34_Node000004_Node000017" class="edge">
<title>Node4&#45;&gt;Node17</title>
<g id="a_edge34_Node000004_Node000017"><a xlink:title=" ">
<path fill="none" stroke="#63b8ff" d="M761.38,-117.99C695.74,-112.77 564.03,-100.41 444.11,-76.38"/>
<polygon fill="#63b8ff" stroke="#63b8ff" points="444.89,-72.97 434.4,-74.4 443.49,-79.83 444.89,-72.97"/>
</a>
</g>
</g>
<!-- Node18 -->
<g id="Node000018" class="node">
<title>Node18</title>
<g id="a_Node000018"><a xlink:href="mob_8h.html" target="_top" xlink:title="Fichier des mobs: creation, mise a jour, rendu et file de respawn.">
<polygon fill="white" stroke="#666666" points="493.49,-76 450.49,-76 450.49,-56 493.49,-56 493.49,-76"/>
<text xml:space="preserve" text-anchor="middle" x="471.99" y="-62.5" font-family="Helvetica,sans-Serif" font-size="10.00">mob.h</text>
</a>
</g>
</g>
<!-- Node4&#45;&gt;Node18 -->
<g id="edge37_Node000004_Node000018" class="edge">
<title>Node4&#45;&gt;Node18</title>
<g id="a_edge37_Node000004_Node000018"><a xlink:title=" ">
<path fill="none" stroke="#63b8ff" d="M761.26,-116.67C705,-110.42 601.56,-97.47 504.98,-76.42"/>
<polygon fill="#63b8ff" stroke="#63b8ff" points="505.85,-73.03 495.33,-74.28 504.33,-79.86 505.85,-73.03"/>
</a>
</g>
</g>
<!-- Node19 -->
<g id="Node000019" class="node">
<title>Node19</title>
<g id="a_Node000019"><a xlink:href="vaisseau_8h.html" target="_top" xlink:title="Fichier de la scene vaisseau, des interactions et du retour en planete.">
<polygon fill="white" stroke="#666666" points="714.62,-76 651.37,-76 651.37,-56 714.62,-56 714.62,-76"/>
<text xml:space="preserve" text-anchor="middle" x="682.99" y="-62.5" font-family="Helvetica,sans-Serif" font-size="10.00">vaisseau.h</text>
</a>
</g>
</g>
<!-- Node4&#45;&gt;Node19 -->
<g id="edge40_Node000004_Node000019" class="edge">
<title>Node4&#45;&gt;Node19</title>
<g id="a_edge40_Node000004_Node000019"><a xlink:title=" ">
<path fill="none" stroke="#63b8ff" d="M782.09,-111.59C763.36,-103.17 735.63,-90.69 714.27,-81.07"/>
<polygon fill="#63b8ff" stroke="#63b8ff" points="715.99,-78.01 705.44,-77.1 713.12,-84.4 715.99,-78.01"/>
</a>
</g>
</g>
<!-- Node20 -->
<g id="Node000020" class="node">
<title>Node20</title>
<g id="a_Node000020"><a xlink:href="map_8h.html" target="_top" xlink:title="Fichier de navigation carte et de gestion des ressources cartographiques.">
<polygon fill="white" stroke="#666666" points="989.49,-76 946.49,-76 946.49,-56 989.49,-56 989.49,-76"/>
<text xml:space="preserve" text-anchor="middle" x="967.99" y="-62.5" font-family="Helvetica,sans-Serif" font-size="10.00">map.h</text>
</a>
</g>
</g>
<!-- Node4&#45;&gt;Node20 -->
<g id="edge42_Node000004_Node000020" class="edge">
<title>Node4&#45;&gt;Node20</title>
<g id="a_edge42_Node000004_Node000020"><a xlink:title=" ">
<path fill="none" stroke="#63b8ff" d="M831.73,-111.59C860.71,-102.11 905.38,-87.49 935.6,-77.6"/>
<polygon fill="#63b8ff" stroke="#63b8ff" points="936.56,-80.97 944.97,-74.53 934.38,-74.32 936.56,-80.97"/>
</a>
</g>
</g>
<!-- Node21 -->
<g id="Node000021" class="node">
<title>Node21</title>
<g id="a_Node000021"><a xlink:href="item_8h.html" target="_top" xlink:title="Fichier de creation, d&#39;affichage et de destruction des items.">
<polygon fill="white" stroke="#666666" points="554.49,-76 511.49,-76 511.49,-56 554.49,-56 554.49,-76"/>
<text xml:space="preserve" text-anchor="middle" x="532.99" y="-62.5" font-family="Helvetica,sans-Serif" font-size="10.00">item.h</text>
</a>
</g>
</g>
<!-- Node4&#45;&gt;Node21 -->
<g id="edge46_Node000004_Node000021" class="edge">
<title>Node4&#45;&gt;Node21</title>
<g id="a_edge46_Node000004_Node000021"><a xlink:title=" ">
<path fill="none" stroke="#63b8ff" d="M761.28,-114.4C715.63,-106.9 640.08,-93.69 565.87,-76.26"/>
<polygon fill="#63b8ff" stroke="#63b8ff" points="566.95,-72.92 556.41,-74.01 565.33,-79.73 566.95,-72.92"/>
</a>
</g>
</g>
<!-- Node22 -->
<g id="Node000022" class="node">
<title>Node22</title>
<g id="a_Node000022"><a xlink:href="inventaire_8h.html" target="_top" xlink:title="Fichier de l&#39;inventaire, de la hotbar et des interactions de slots.">
<polygon fill="white" stroke="#666666" points="799.12,-76 732.87,-76 732.87,-56 799.12,-56 799.12,-76"/>
<text xml:space="preserve" text-anchor="middle" x="765.99" y="-62.5" font-family="Helvetica,sans-Serif" font-size="10.00">inventaire.h</text>
</a>
</g>
</g>
<!-- Node4&#45;&gt;Node22 -->
<g id="edge49_Node000004_Node000022" class="edge">
<title>Node4&#45;&gt;Node22</title>
<g id="a_edge49_Node000004_Node000022"><a xlink:title=" ">
<path fill="none" stroke="#63b8ff" d="M796.55,-111.59C791.67,-104.47 784.8,-94.45 778.81,-85.72"/>
<polygon fill="#63b8ff" stroke="#63b8ff" points="781.76,-83.82 773.22,-77.55 775.98,-87.77 781.76,-83.82"/>
</a>
</g>
</g>
<!-- Node23 -->
<g id="Node000023" class="node">
<title>Node23</title>
<g id="a_Node000023"><a xlink:href="sauvegarde_8h.html" target="_top" xlink:title="Fichier des slots de sauvegarde et du chargement de progression.">
<polygon fill="white" stroke="#666666" points="1396.24,-76 1321.74,-76 1321.74,-56 1396.24,-56 1396.24,-76"/>
<text xml:space="preserve" text-anchor="middle" x="1358.99" y="-62.5" font-family="Helvetica,sans-Serif" font-size="10.00">sauvegarde.h</text>
</a>
</g>
</g>
<!-- Node4&#45;&gt;Node23 -->
<g id="edge53_Node000004_Node000023" class="edge">
<title>Node4&#45;&gt;Node23</title>
<g id="a_edge53_Node000004_Node000023"><a xlink:title=" ">
<path fill="none" stroke="#63b8ff" d="M844.81,-118.8C930.33,-113.99 1131.58,-101.02 1310.2,-76.26"/>
<polygon fill="#63b8ff" stroke="#63b8ff" points="1310.48,-79.76 1319.89,-74.9 1309.5,-72.83 1310.48,-79.76"/>
</a>
</g>
</g>
<!-- Node25 -->
<g id="Node000025" class="node">
<title>Node25</title>
<g id="a_Node000025"><a xlink:href="objectifs_8h.html" target="_top" xlink:title="Fichier de suivi des objectifs de quete et de leur affichage.">
<polygon fill="white" stroke="#666666" points="633.49,-76 572.49,-76 572.49,-56 633.49,-56 633.49,-76"/>
<text xml:space="preserve" text-anchor="middle" x="602.99" y="-62.5" font-family="Helvetica,sans-Serif" font-size="10.00">objectifs.h</text>
</a>
</g>
</g>
<!-- Node4&#45;&gt;Node25 -->
<g id="edge56_Node000004_Node000025" class="edge">
<title>Node4&#45;&gt;Node25</title>
<g id="a_edge56_Node000004_Node000025"><a xlink:title=" ">
<path fill="none" stroke="#63b8ff" d="M768.15,-111.59C733.77,-102.31 681.18,-88.11 644.62,-78.24"/>
<polygon fill="#63b8ff" stroke="#63b8ff" points="645.85,-74.95 635.28,-75.72 644.03,-81.7 645.85,-74.95"/>
</a>
</g>
</g>
<!-- Node26 -->
<g id="Node000026" class="node">
<title>Node26</title>
<g id="a_Node000026"><a xlink:href="cinematique_8h.html" target="_top" xlink:title="Fichier des cinematics, des intros et des sequences de credits.">
<polygon fill="white" stroke="#666666" points="1084.37,-76 1007.62,-76 1007.62,-56 1084.37,-56 1084.37,-76"/>
<text xml:space="preserve" text-anchor="middle" x="1045.99" y="-62.5" font-family="Helvetica,sans-Serif" font-size="10.00">cinematique.h</text>
</a>
</g>
</g>
<!-- Node4&#45;&gt;Node26 -->
<g id="edge60_Node000004_Node000026" class="edge">
<title>Node4&#45;&gt;Node26</title>
<g id="a_edge60_Node000004_Node000026"><a xlink:title=" ">
<path fill="none" stroke="#63b8ff" d="M844.76,-111.72C886.71,-102.4 951.35,-88.03 995.99,-78.11"/>
<polygon fill="#63b8ff" stroke="#63b8ff" points="996.69,-81.54 1005.69,-75.96 995.17,-74.71 996.69,-81.54"/>
</a>
</g>
</g>
<!-- Node27 -->
<g id="Node000027" class="node">
<title>Node27</title>
<g id="a_Node000027"><a xlink:href="shop_8h.html" target="_top" xlink:title="Fichier de la boutique, des achats et de l&#39;economie joueur.">
<polygon fill="white" stroke="#666666" points="1147.62,-76 1102.37,-76 1102.37,-56 1147.62,-56 1147.62,-76"/>
<text xml:space="preserve" text-anchor="middle" x="1124.99" y="-62.5" font-family="Helvetica,sans-Serif" font-size="10.00">shop.h</text>
</a>
</g>
</g>
<!-- Node4&#45;&gt;Node27 -->
<g id="edge62_Node000004_Node000027" class="edge">
<title>Node4&#45;&gt;Node27</title>
<g id="a_edge62_Node000004_Node000027"><a xlink:title=" ">
<path fill="none" stroke="#63b8ff" d="M844.58,-116.14C899,-109.44 997.5,-96.11 1090.93,-76.22"/>
<polygon fill="#63b8ff" stroke="#63b8ff" points="1091.49,-79.68 1100.52,-74.14 1090.01,-72.84 1091.49,-79.68"/>
</a>
</g>
</g>
<!-- Node9&#45;&gt;Node2 -->
<g id="edge11_Node000009_Node000002" class="edge">
<title>Node9&#45;&gt;Node2</title>
<g id="a_edge11_Node000009_Node000002"><a xlink:title=" ">
<path fill="none" stroke="#63b8ff" d="M73.38,-57.79C76.27,-57.11 79.18,-56.49 81.99,-56 186.08,-38.01 503.68,-19.88 624.58,-13.45"/>
<polygon fill="#63b8ff" stroke="#63b8ff" points="624.68,-16.95 634.48,-12.93 624.31,-9.96 624.68,-16.95"/>
</a>
</g>
</g>
<!-- Node9&#45;&gt;Node3 -->
<g id="edge12_Node000009_Node000003" class="edge">
<title>Node9&#45;&gt;Node3</title>
<g id="a_edge12_Node000009_Node000003"><a xlink:title=" ">
<path fill="none" stroke="#63b8ff" d="M73.41,-57.96C76.29,-57.24 79.2,-56.57 81.99,-56 166.37,-38.78 264.34,-26.3 331.08,-18.91"/>
<polygon fill="#63b8ff" stroke="#63b8ff" points="331.28,-22.41 340.84,-17.85 330.52,-15.46 331.28,-22.41"/>
</a>
</g>
</g>
<!-- Node10&#45;&gt;Node2 -->
<g id="edge14_Node000010_Node000002" class="edge">
<title>Node10&#45;&gt;Node2</title>
<g id="a_edge14_Node000010_Node000002"><a xlink:title=" ">
<path fill="none" stroke="#63b8ff" d="M163.28,-57.39C166.22,-56.88 169.15,-56.41 171.99,-56 337.3,-32.1 535.32,-18.76 624.43,-13.57"/>
<polygon fill="#63b8ff" stroke="#63b8ff" points="624.46,-17.07 634.25,-13.01 624.06,-10.09 624.46,-17.07"/>
</a>
</g>
</g>
<!-- Node10&#45;&gt;Node3 -->
<g id="edge15_Node000010_Node000003" class="edge">
<title>Node10&#45;&gt;Node3</title>
<g id="a_edge15_Node000010_Node000003"><a xlink:title=" ">
<path fill="none" stroke="#63b8ff" d="M163.33,-57.7C166.26,-57.12 169.18,-56.55 171.99,-56 231.8,-44.37 300.14,-31.49 348.2,-22.5"/>
<polygon fill="#63b8ff" stroke="#63b8ff" points="348.68,-25.97 357.87,-20.69 347.39,-19.09 348.68,-25.97"/>
</a>
</g>
</g>
<!-- Node11&#45;&gt;Node2 -->
<g id="edge17_Node000011_Node000002" class="edge">
<title>Node11&#45;&gt;Node2</title>
<g id="a_edge17_Node000011_Node000002"><a xlink:title=" ">
<path fill="none" stroke="#63b8ff" d="M1165.49,-57.96C1162.66,-57.21 1159.77,-56.52 1156.99,-56 967.76,-20.29 913.3,-46.28 718.96,-20.09"/>
<polygon fill="#63b8ff" stroke="#63b8ff" points="719.67,-16.66 709.29,-18.75 718.72,-23.59 719.67,-16.66"/>
</a>
</g>
</g>
<!-- Node11&#45;&gt;Node3 -->
<g id="edge18_Node000011_Node000003" class="edge">
<title>Node11&#45;&gt;Node3</title>
<g id="a_edge18_Node000011_Node000003"><a xlink:title=" ">
<path fill="none" stroke="#63b8ff" d="M1165.51,-57.91C1162.67,-57.16 1159.78,-56.49 1156.99,-56 1092.61,-44.56 667.48,-23.28 488.83,-14.72"/>
<polygon fill="#63b8ff" stroke="#63b8ff" points="489.1,-11.22 478.94,-14.24 488.76,-18.22 489.1,-11.22"/>
</a>
</g>
</g>
<!-- Node11&#45;&gt;Node6 -->
<g id="edge19_Node000011_Node000006" class="edge">
<title>Node11&#45;&gt;Node6</title>
<g id="a_edge19_Node000011_Node000006"><a xlink:title=" ">
<path fill="none" stroke="#63b8ff" d="M1192.22,-55.59C1196.09,-48.63 1201.5,-38.89 1206.28,-30.29"/>
<polygon fill="#63b8ff" stroke="#63b8ff" points="1209.29,-32.06 1211.09,-21.62 1203.17,-28.66 1209.29,-32.06"/>
</a>
</g>
</g>
<!-- Node12&#45;&gt;Node2 -->
<g id="edge21_Node000012_Node000002" class="edge">
<title>Node12&#45;&gt;Node2</title>
<g id="a_edge21_Node000012_Node000002"><a xlink:title=" ">
<path fill="none" stroke="#63b8ff" d="M235.03,-57.81C238.04,-57.14 241.07,-56.52 243.99,-56 381.26,-31.75 545.78,-18.94 624.92,-13.78"/>
<polygon fill="#63b8ff" stroke="#63b8ff" points="624.7,-17.3 634.45,-13.17 624.25,-10.32 624.7,-17.3"/>
</a>
</g>
</g>
<!-- Node12&#45;&gt;Node3 -->
<g id="edge22_Node000012_Node000003" class="edge">
<title>Node12&#45;&gt;Node3</title>
<g id="a_edge22_Node000012_Node000003"><a xlink:title=" ">
<path fill="none" stroke="#63b8ff" d="M235.23,-57.72C268.14,-48.92 324.01,-33.98 363.72,-23.37"/>
<polygon fill="#63b8ff" stroke="#63b8ff" points="364.49,-26.79 373.25,-20.82 362.68,-20.02 364.49,-26.79"/>
</a>
</g>
</g>
<!-- Node13&#45;&gt;Node2 -->
<g id="edge24_Node000013_Node000002" class="edge">
<title>Node13&#45;&gt;Node2</title>
<g id="a_edge24_Node000013_Node000002"><a xlink:title=" ">
<path fill="none" stroke="#63b8ff" d="M303.53,-57.85C306.37,-57.17 309.23,-56.53 311.99,-56 423.05,-34.46 555.48,-20.99 624.62,-14.88"/>
<polygon fill="#63b8ff" stroke="#63b8ff" points="624.8,-18.37 634.46,-14.02 624.2,-11.4 624.8,-18.37"/>
</a>
</g>
</g>
<!-- Node13&#45;&gt;Node3 -->
<g id="edge25_Node000013_Node000003" class="edge">
<title>Node13&#45;&gt;Node3</title>
<g id="a_edge25_Node000013_Node000003"><a xlink:title=" ">
<path fill="none" stroke="#63b8ff" d="M300.98,-55.59C321.77,-47.09 352.64,-34.46 376.23,-24.81"/>
<polygon fill="#63b8ff" stroke="#63b8ff" points="377.49,-28.08 385.42,-21.05 374.84,-21.6 377.49,-28.08"/>
</a>
</g>
</g>
<!-- Node14&#45;&gt;Node2 -->
<g id="edge27_Node000014_Node000002" class="edge">
<title>Node14&#45;&gt;Node2</title>
<g id="a_edge27_Node000014_Node000002"><a xlink:title=" ">
<path fill="none" stroke="#63b8ff" d="M369.42,-58C372.3,-57.28 375.2,-56.59 377.99,-56 464.23,-37.7 566.21,-23.79 624.58,-16.56"/>
<polygon fill="#63b8ff" stroke="#63b8ff" points="625,-20.04 634.5,-15.35 624.15,-13.09 625,-20.04"/>
</a>
</g>
</g>
<!-- Node14&#45;&gt;Node3 -->
<g id="edge28_Node000014_Node000003" class="edge">
<title>Node14&#45;&gt;Node3</title>
<g id="a_edge28_Node000014_Node000003"><a xlink:title=" ">
<path fill="none" stroke="#63b8ff" d="M356.31,-55.59C365.63,-47.85 379.07,-36.69 390.17,-27.47"/>
<polygon fill="#63b8ff" stroke="#63b8ff" points="392.18,-30.35 397.63,-21.27 387.71,-24.96 392.18,-30.35"/>
</a>
</g>
</g>
<!-- Node15&#45;&gt;Node2 -->
<g id="edge30_Node000015_Node000002" class="edge">
<title>Node15&#45;&gt;Node2</title>
<g id="a_edge30_Node000015_Node000002"><a xlink:title=" ">
<path fill="none" stroke="#63b8ff" d="M1263.63,-58.93C1259.17,-57.8 1254.45,-56.73 1249.99,-56 1019.37,-18.05 954.36,-50.31 719.11,-20.08"/>
<polygon fill="#63b8ff" stroke="#63b8ff" points="719.65,-16.62 709.28,-18.79 718.74,-23.56 719.65,-16.62"/>
</a>
</g>
</g>
<!-- Node15&#45;&gt;Node3 -->
<g id="edge31_Node000015_Node000003" class="edge">
<title>Node15&#45;&gt;Node3</title>
<g id="a_edge31_Node000015_Node000003"><a xlink:title=" ">
<path fill="none" stroke="#63b8ff" d="M1263.51,-61.83C1250.27,-59.88 1232.65,-57.49 1216.99,-56 1077.29,-42.74 663.29,-22.73 488.87,-14.61"/>
<polygon fill="#63b8ff" stroke="#63b8ff" points="489.15,-11.12 479,-14.16 488.83,-18.12 489.15,-11.12"/>
</a>
</g>
</g>
<!-- Node15&#45;&gt;Node6 -->
<g id="edge33_Node000015_Node000006" class="edge">
<title>Node15&#45;&gt;Node6</title>
<g id="a_edge33_Node000015_Node000006"><a xlink:title=" ">
<path fill="none" stroke="#63b8ff" d="M1272.32,-55.59C1262.71,-47.85 1248.86,-36.69 1237.42,-27.47"/>
<polygon fill="#63b8ff" stroke="#63b8ff" points="1239.69,-24.8 1229.71,-21.25 1235.3,-30.25 1239.69,-24.8"/>
</a>
</g>
</g>
<!-- Node16 -->
<g id="Node000016" class="node">
<title>Node16</title>
<g id="a_Node000016"><a xlink:title=" ">
<polygon fill="#e0e0e0" stroke="#999999" points="825.99,-20 725.99,-20 725.99,0 825.99,0 825.99,-20"/>
<text xml:space="preserve" text-anchor="middle" x="775.99" y="-6.5" font-family="Helvetica,sans-Serif" font-size="10.00">SDL3_ttf/SDL_ttf.h</text>
</a>
</g>
</g>
<!-- Node15&#45;&gt;Node16 -->
<g id="edge32_Node000015_Node000016" class="edge">
<title>Node15&#45;&gt;Node16</title>
<g id="a_edge32_Node000015_Node000016"><a xlink:title=" ">
<path fill="none" stroke="#63b8ff" d="M1263.62,-59.03C1259.16,-57.88 1254.44,-56.79 1249.99,-56 1103.43,-29.83 928.48,-18.21 837.63,-13.62"/>
<polygon fill="#63b8ff" stroke="#63b8ff" points="837.85,-10.13 827.69,-13.13 837.5,-17.12 837.85,-10.13"/>
</a>
</g>
</g>
<!-- Node17&#45;&gt;Node2 -->
<g id="edge35_Node000017_Node000002" class="edge">
<title>Node17&#45;&gt;Node2</title>
<g id="a_edge35_Node000017_Node000002"><a xlink:title=" ">
<path fill="none" stroke="#63b8ff" d="M432.95,-58.08C435.65,-57.34 438.38,-56.63 440.99,-56 503.96,-40.76 577.54,-27.13 624.44,-18.97"/>
<polygon fill="#63b8ff" stroke="#63b8ff" points="625.01,-22.42 634.27,-17.27 623.82,-15.53 625.01,-22.42"/>
</a>
</g>
</g>
<!-- Node17&#45;&gt;Node3 -->
<g id="edge36_Node000017_Node000003" class="edge">
<title>Node17&#45;&gt;Node3</title>
<g id="a_edge36_Node000017_Node000003"><a xlink:title=" ">
<path fill="none" stroke="#63b8ff" d="M409.99,-55.59C409.99,-49.01 409.99,-39.96 409.99,-31.73"/>
<polygon fill="#63b8ff" stroke="#63b8ff" points="413.49,-31.81 409.99,-21.81 406.49,-31.81 413.49,-31.81"/>
</a>
</g>
</g>
<!-- Node18&#45;&gt;Node2 -->
<g id="edge38_Node000018_Node000002" class="edge">
<title>Node18&#45;&gt;Node2</title>
<g id="a_edge38_Node000018_Node000002"><a xlink:title=" ">
<path fill="none" stroke="#63b8ff" d="M493.92,-58.33C496.64,-57.53 499.37,-56.74 501.99,-56 543.3,-44.34 590.52,-31.91 624.69,-23.08"/>
<polygon fill="#63b8ff" stroke="#63b8ff" points="625.47,-26.49 634.28,-20.6 623.73,-19.71 625.47,-26.49"/>
</a>
</g>
</g>
<!-- Node18&#45;&gt;Node3 -->
<g id="edge39_Node000018_Node000003" class="edge">
<title>Node18&#45;&gt;Node3</title>
<g id="a_edge39_Node000018_Node000003"><a xlink:title=" ">
<path fill="none" stroke="#63b8ff" d="M461.19,-55.59C452.39,-47.93 439.74,-36.91 429.22,-27.75"/>
<polygon fill="#63b8ff" stroke="#63b8ff" points="431.65,-25.22 421.81,-21.29 427.05,-30.5 431.65,-25.22"/>
</a>
</g>
</g>
<!-- Node19&#45;&gt;Node2 -->
<g id="edge41_Node000019_Node000002" class="edge">
<title>Node19&#45;&gt;Node2</title>
<g id="a_edge41_Node000019_Node000002"><a xlink:title=" ">
<path fill="none" stroke="#63b8ff" d="M681.08,-55.59C679.72,-48.93 677.85,-39.75 676.15,-31.44"/>
<polygon fill="#63b8ff" stroke="#63b8ff" points="679.61,-30.88 674.19,-21.78 672.75,-32.28 679.61,-30.88"/>
</a>
</g>
</g>
<!-- Node20&#45;&gt;Node2 -->
<g id="edge43_Node000020_Node000002" class="edge">
<title>Node20&#45;&gt;Node2</title>
<g id="a_edge43_Node000020_Node000002"><a xlink:title=" ">
<path fill="none" stroke="#63b8ff" d="M946.12,-58.08C943.4,-57.33 940.64,-56.61 937.99,-56 844.52,-34.46 816.89,-37.5 719.13,-20.31"/>
<polygon fill="#63b8ff" stroke="#63b8ff" points="719.78,-16.87 709.32,-18.55 718.55,-23.76 719.78,-16.87"/>
</a>
</g>
</g>
<!-- Node20&#45;&gt;Node3 -->
<g id="edge44_Node000020_Node000003" class="edge">
<title>Node20&#45;&gt;Node3</title>
<g id="a_edge44_Node000020_Node000003"><a xlink:title=" ">
<path fill="none" stroke="#63b8ff" d="M946.17,-57.88C943.43,-57.16 940.66,-56.51 937.99,-56 854.19,-40.04 614.7,-23.58 489.08,-15.73"/>
<polygon fill="#63b8ff" stroke="#63b8ff" points="489.36,-12.24 479.16,-15.11 488.93,-19.23 489.36,-12.24"/>
</a>
</g>
</g>
<!-- Node20&#45;&gt;Node6 -->
<g id="edge45_Node000020_Node000006" class="edge">
<title>Node20&#45;&gt;Node6</title>
<g id="a_edge45_Node000020_Node000006"><a xlink:title=" ">
<path fill="none" stroke="#63b8ff" d="M989.95,-58.39C992.98,-57.55 996.05,-56.73 998.99,-56 1050.92,-43.12 1110.44,-31.01 1154.16,-22.61"/>
<polygon fill="#63b8ff" stroke="#63b8ff" points="1154.55,-26.1 1163.71,-20.78 1153.23,-19.22 1154.55,-26.1"/>
</a>
</g>
</g>
<!-- Node21&#45;&gt;Node2 -->
<g id="edge47_Node000021_Node000002" class="edge">
<title>Node21&#45;&gt;Node2</title>
<g id="a_edge47_Node000021_Node000002"><a xlink:title=" ">
<path fill="none" stroke="#63b8ff" d="M554.71,-56.56C576.76,-48 611.24,-34.6 637.12,-24.55"/>
<polygon fill="#63b8ff" stroke="#63b8ff" points="638.16,-27.9 646.21,-21.02 635.62,-21.37 638.16,-27.9"/>
</a>
</g>
</g>
<!-- Node21&#45;&gt;Node3 -->
<g id="edge48_Node000021_Node000003" class="edge">
<title>Node21&#45;&gt;Node3</title>
<g id="a_edge48_Node000021_Node000003"><a xlink:title=" ">
<path fill="none" stroke="#63b8ff" d="M511.57,-55.59C492.37,-47.17 463.95,-34.69 442.05,-25.07"/>
<polygon fill="#63b8ff" stroke="#63b8ff" points="443.53,-21.9 432.97,-21.09 440.72,-28.31 443.53,-21.9"/>
</a>
</g>
</g>
<!-- Node22&#45;&gt;Node2 -->
<g id="edge50_Node000022_Node000002" class="edge">
<title>Node22&#45;&gt;Node2</title>
<g id="a_edge50_Node000022_Node000002"><a xlink:title=" ">
<path fill="none" stroke="#63b8ff" d="M749.62,-55.59C735.42,-47.44 714.61,-35.48 698.11,-26"/>
<polygon fill="#63b8ff" stroke="#63b8ff" points="700.22,-23.18 689.8,-21.23 696.73,-29.25 700.22,-23.18"/>
</a>
</g>
</g>
<!-- Node22&#45;&gt;Node3 -->
<g id="edge51_Node000022_Node000003" class="edge">
<title>Node22&#45;&gt;Node3</title>
<g id="a_edge51_Node000022_Node000003"><a xlink:title=" ">
<path fill="none" stroke="#63b8ff" d="M732.56,-57.62C729.67,-57.05 726.78,-56.5 723.99,-56 644.21,-41.75 552.39,-29.01 488.74,-20.76"/>
<polygon fill="#63b8ff" stroke="#63b8ff" points="489.45,-17.32 479.08,-19.51 488.55,-24.26 489.45,-17.32"/>
</a>
</g>
</g>
<!-- Node22&#45;&gt;Node16 -->
<g id="edge52_Node000022_Node000016" class="edge">
<title>Node22&#45;&gt;Node16</title>
<g id="a_edge52_Node000022_Node000016"><a xlink:title=" ">
<path fill="none" stroke="#63b8ff" d="M767.73,-55.59C768.97,-48.93 770.67,-39.75 772.21,-31.44"/>
<polygon fill="#63b8ff" stroke="#63b8ff" points="775.61,-32.26 773.99,-21.79 768.73,-30.98 775.61,-32.26"/>
</a>
</g>
</g>
<!-- Node23&#45;&gt;Node2 -->
<g id="edge54_Node000023_Node000002" class="edge">
<title>Node23&#45;&gt;Node2</title>
<g id="a_edge54_Node000023_Node000002"><a xlink:title=" ">
<path fill="none" stroke="#63b8ff" d="M1321.4,-57.22C1318.56,-56.77 1315.74,-56.35 1312.99,-56 1053.35,-22.91 982.1,-53.25 718.84,-20.04"/>
<polygon fill="#63b8ff" stroke="#63b8ff" points="719.64,-16.61 709.28,-18.81 718.75,-23.55 719.64,-16.61"/>
</a>
</g>
</g>
<!-- Node23&#45;&gt;Node24 -->
<g id="edge55_Node000023_Node000024" class="edge">
<title>Node23&#45;&gt;Node24</title>
<g id="a_edge55_Node000023_Node000024"><a xlink:title=" ">
<path fill="none" stroke="#63b8ff" d="M1376.76,-55.59C1392.31,-47.36 1415.17,-35.26 1433.15,-25.74"/>
<polygon fill="#63b8ff" stroke="#63b8ff" points="1434.55,-28.96 1441.75,-21.19 1431.27,-22.77 1434.55,-28.96"/>
</a>
</g>
</g>
<!-- Node25&#45;&gt;Node2 -->
<g id="edge57_Node000025_Node000002" class="edge">
<title>Node25&#45;&gt;Node2</title>
<g id="a_edge57_Node000025_Node000002"><a xlink:title=" ">
<path fill="none" stroke="#63b8ff" d="M615.01,-55.59C625,-47.77 639.45,-36.46 651.3,-27.19"/>
<polygon fill="#63b8ff" stroke="#63b8ff" points="653.2,-30.15 658.92,-21.23 648.89,-24.64 653.2,-30.15"/>
</a>
</g>
</g>
<!-- Node25&#45;&gt;Node3 -->
<g id="edge58_Node000025_Node000003" class="edge">
<title>Node25&#45;&gt;Node3</title>
<g id="a_edge58_Node000025_Node000003"><a xlink:title=" ">
<path fill="none" stroke="#63b8ff" d="M572.41,-56.44C540.62,-47.55 490.56,-33.54 454.41,-23.43"/>
<polygon fill="#63b8ff" stroke="#63b8ff" points="455.7,-20.16 445.13,-20.83 453.82,-26.9 455.7,-20.16"/>
</a>
</g>
</g>
<!-- Node25&#45;&gt;Node16 -->
<g id="edge59_Node000025_Node000016" class="edge">
<title>Node25&#45;&gt;Node16</title>
<g id="a_edge59_Node000025_Node000016"><a xlink:title=" ">
<path fill="none" stroke="#63b8ff" d="M633.13,-55.59C661.23,-46.82 703.4,-33.66 734.65,-23.9"/>
<polygon fill="#63b8ff" stroke="#63b8ff" points="735.67,-27.25 744.18,-20.93 733.59,-20.57 735.67,-27.25"/>
</a>
</g>
</g>
<!-- Node26&#45;&gt;Node2 -->
<g id="edge61_Node000026_Node000002" class="edge">
<title>Node26&#45;&gt;Node2</title>
<g id="a_edge61_Node000026_Node000002"><a xlink:title=" ">
<path fill="none" stroke="#63b8ff" d="M1007.3,-57.39C1004.49,-56.9 1001.7,-56.43 998.99,-56 877.75,-36.67 843.6,-40.18 718.95,-20.21"/>
<polygon fill="#63b8ff" stroke="#63b8ff" points="719.74,-16.79 709.31,-18.64 718.62,-23.7 719.74,-16.79"/>
</a>
</g>
</g>
<!-- Node27&#45;&gt;Node2 -->
<g id="edge63_Node000027_Node000002" class="edge">
<title>Node27&#45;&gt;Node2</title>
<g id="a_edge63_Node000027_Node000002"><a xlink:title=" ">
<path fill="none" stroke="#63b8ff" d="M1102.04,-58.01C1099.01,-57.25 1095.94,-56.55 1092.99,-56 931.52,-25.81 885.05,-43.69 718.91,-20.12"/>
<polygon fill="#63b8ff" stroke="#63b8ff" points="719.69,-16.69 709.29,-18.72 718.69,-23.62 719.69,-16.69"/>
</a>
</g>
</g>
</g>
</svg>
