<?xml version="1.0" encoding="UTF-8" standalone="no"?>
<!DOCTYPE svg PUBLIC "-//W3C//DTD SVG 1.1//EN"
 "http://www.w3.org/Graphics/SVG/1.1/DTD/svg11.dtd">
<!-- Generated by graphviz version 14.1.4 (20260321.0153)
 -->
<!-- Title: src/headers/planete.h Pages: 1 -->
<svg width="1546pt" height="196pt"
 viewBox="0.00 0.00 1546.00 196.00" xmlns="http://www.w3.org/2000/svg" xmlns:xlink="http://www.w3.org/1999/xlink">
<g id="graph0" class="graph" transform="scale(1 1) rotate(0) translate(4 192)">
<title>src/headers/planete.h</title>
<!-- Node1 -->
<g id="Node000001" class="node">
<title>Node1</title>
<g id="a_Node000001"><a xlink:title="Fichier des ecrans de planetes et transitions d&#39;environnement.">
<polygon fill="#999999" stroke="#666666" points="406.28,-188 296.53,-188 296.53,-168 406.28,-168 406.28,-188"/>
<text xml:space="preserve" text-anchor="middle" x="351.41" y="-174.5" font-family="Helvetica,sans-Serif" font-size="10.00">src/headers/planete.h</text>
</a>
</g>
</g>
<!-- Node2 -->
<g id="Node000002" class="node">
<title>Node2</title>
<g id="a_Node000002"><a xlink:title=" ">
<polygon fill="#e0e0e0" stroke="#999999" points="819.16,-20 747.66,-20 747.66,0 819.16,0 819.16,-20"/>
<text xml:space="preserve" text-anchor="middle" x="783.41" y="-6.5" font-family="Helvetica,sans-Serif" font-size="10.00">SDL3/SDL.h</text>
</a>
</g>
</g>
<!-- Node1&#45;&gt;Node2 -->
<g id="edge1_Node000001_Node000002" class="edge">
<title>Node1&#45;&gt;Node2</title>
<g id="a_edge1_Node000001_Node000002"><a xlink:title=" ">
<path fill="none" stroke="#63b8ff" d="M296.15,-174.93C181.11,-168.82 -66.69,-145.18 17.41,-56 42.15,-29.76 573.15,-15.71 736.21,-12.01"/>
<polygon fill="#63b8ff" stroke="#63b8ff" points="735.87,-15.52 745.79,-11.79 735.72,-8.52 735.87,-15.52"/>
</a>
</g>
</g>
<!-- Node3 -->
<g id="Node000003" class="node">
<title>Node3</title>
<g id="a_Node000003"><a xlink:href="main_8h.html" target="_top" xlink:title="Declarations globales et utilitaires partages entre les modules du jeu.">
<polygon fill="white" stroke="#666666" points="767.03,-132 721.78,-132 721.78,-112 767.03,-112 767.03,-132"/>
<text xml:space="preserve" text-anchor="middle" x="744.41" y="-118.5" font-family="Helvetica,sans-Serif" font-size="10.00">main.h</text>
</a>
</g>
</g>
<!-- Node1&#45;&gt;Node3 -->
<g id="edge2_Node000001_Node000003" class="edge">
<title>Node1&#45;&gt;Node3</title>
<g id="a_edge2_Node000001_Node000003"><a xlink:title=" ">
<path fill="none" stroke="#63b8ff" d="M406.47,-169.43C488.97,-158.1 642.24,-137.04 710.31,-127.69"/>
<polygon fill="#63b8ff" stroke="#63b8ff" points="710.69,-131.17 720.12,-126.34 709.74,-124.23 710.69,-131.17"/>
</a>
</g>
</g>
<!-- Node3&#45;&gt;Node2 -->
<g id="edge3_Node000003_Node000002" class="edge">
<title>Node3&#45;&gt;Node2</title>
<g id="a_edge3_Node000003_Node000002"><a xlink:title=" ">
<path fill="none" stroke="#63b8ff" d="M721.46,-119.68C648.65,-115.25 426.32,-99.86 405.41,-76 399.55,-69.31 399.51,-62.65 405.41,-56 427.03,-31.66 639.28,-18.13 735.92,-13.19"/>
<polygon fill="#63b8ff" stroke="#63b8ff" points="736.06,-16.69 745.88,-12.69 735.71,-9.69 736.06,-16.69"/>
</a>
</g>
</g>
<!-- Node4 -->
<g id="Node000004" class="node">
<title>Node4</title>
<g id="a_Node000004"><a xlink:title=" ">
<polygon fill="#e0e0e0" stroke="#999999" points="1034.66,-20 900.16,-20 900.16,0 1034.66,0 1034.66,-20"/>
<text xml:space="preserve" text-anchor="middle" x="967.41" y="-6.5" font-family="Helvetica,sans-Serif" font-size="10.00">SDL3_image/SDL_image.h</text>
</a>
</g>
</g>
<!-- Node3&#45;&gt;Node4 -->
<g id="edge4_Node000003_Node000004" class="edge">
<title>Node3&#45;&gt;Node4</title>
<g id="a_edge4_Node000003_Node000004"><a xlink:title=" ">
<path fill="none" stroke="#63b8ff" d="M767.38,-120.49C855.61,-118.29 1169.2,-108.25 1198.41,-76 1204.38,-69.41 1204.06,-62.86 1198.41,-56 1179.22,-32.71 1105.25,-21.31 1046.12,-15.84"/>
<polygon fill="#63b8ff" stroke="#63b8ff" points="1046.66,-12.38 1036.4,-14.99 1046.05,-19.35 1046.66,-12.38"/>
</a>
</g>
</g>
<!-- Node5 -->
<g id="Node000005" class="node">
<title>Node5</title>
<g id="a_Node000005"><a xlink:title=" ">
<polygon fill="#e0e0e0" stroke="#999999" points="166.41,-76 120.41,-76 120.41,-56 166.41,-56 166.41,-76"/>
<text xml:space="preserve" text-anchor="middle" x="143.41" y="-62.5" font-family="Helvetica,sans-Serif" font-size="10.00">math.h</text>
</a>
</g>
</g>
<!-- Node3&#45;&gt;Node5 -->
<g id="edge5_Node000003_Node000005" class="edge">
<title>Node3&#45;&gt;Node5</title>
<g id="a_edge5_Node000003_Node000005"><a xlink:title=" ">
<path fill="none" stroke="#63b8ff" d="M721.44,-120.79C645.25,-119.74 393.94,-113.63 177.94,-76.11"/>
<polygon fill="#63b8ff" stroke="#63b8ff" points="178.65,-72.68 168.2,-74.38 177.43,-79.57 178.65,-72.68"/>
</a>
</g>
</g>
<!-- Node6 -->
<g id="Node000006" class="node">
<title>Node6</title>
<g id="a_Node000006"><a xlink:title=" ">
<polygon fill="#e0e0e0" stroke="#999999" points="1422.41,-20 1292.41,-20 1292.41,0 1422.41,0 1422.41,-20"/>
<text xml:space="preserve" text-anchor="middle" x="1357.41" y="-6.5" font-family="Helvetica,sans-Serif" font-size="10.00">SDL3_mixer/SDL_mixer.h</text>
</a>
</g>
</g>
<!-- Node3&#45;&gt;Node6 -->
<g id="edge6_Node000003_Node000006" class="edge">
<title>Node3&#45;&gt;Node6</title>
<g id="a_edge6_Node000003_Node000006"><a xlink:title=" ">
<path fill="none" stroke="#63b8ff" d="M767.32,-121.27C879.94,-122.37 1371.18,-124.36 1416.41,-76 1432.3,-59.01 1408.27,-39.18 1386.27,-25.93"/>
<polygon fill="#63b8ff" stroke="#63b8ff" points="1388.2,-22.99 1377.78,-21.09 1384.73,-29.08 1388.2,-22.99"/>
</a>
</g>
</g>
<!-- Node7 -->
<g id="Node000007" class="node">
<title>Node7</title>
<g id="a_Node000007"><a xlink:title=" ">
<polygon fill="#e0e0e0" stroke="#999999" points="230.03,-76 184.78,-76 184.78,-56 230.03,-56 230.03,-76"/>
<text xml:space="preserve" text-anchor="middle" x="207.41" y="-62.5" font-family="Helvetica,sans-Serif" font-size="10.00">stdio.h</text>
</a>
</g>
</g>
<!-- Node3&#45;&gt;Node7 -->
<g id="edge7_Node000003_Node000007" class="edge">
<title>Node3&#45;&gt;Node7</title>
<g id="a_edge7_Node000003_Node000007"><a xlink:title=" ">
<path fill="none" stroke="#63b8ff" d="M721.5,-120.54C651.06,-118.8 431.41,-110.91 241.62,-76.29"/>
<polygon fill="#63b8ff" stroke="#63b8ff" points="242.27,-72.85 231.8,-74.46 240.99,-79.73 242.27,-72.85"/>
</a>
</g>
</g>
<!-- Node8 -->
<g id="Node000008" class="node">
<title>Node8</title>
<g id="a_Node000008"><a xlink:title=" ">
<polygon fill="#e0e0e0" stroke="#999999" points="295.16,-76 247.66,-76 247.66,-56 295.16,-56 295.16,-76"/>
<text xml:space="preserve" text-anchor="middle" x="271.41" y="-62.5" font-family="Helvetica,sans-Serif" font-size="10.00">stdlib.h</text>
</a>
</g>
</g>
<!-- Node3&#45;&gt;Node8 -->
<g id="edge8_Node000003_Node000008" class="edge">
<title>Node3&#45;&gt;Node8</title>
<g id="a_edge8_Node000003_Node000008"><a xlink:title=" ">
<path fill="none" stroke="#63b8ff" d="M721.72,-120.07C657.76,-117.15 470.47,-106.61 306.67,-76.35"/>
<polygon fill="#63b8ff" stroke="#63b8ff" points="307.38,-72.92 296.9,-74.51 306.08,-79.8 307.38,-72.92"/>
</a>
</g>
</g>
<!-- Node9 -->
<g id="Node000009" class="node">
<title>Node9</title>
<g id="a_Node000009"><a xlink:href="menu_8h.html" target="_top" xlink:title="Fichier du menu principal et des choix de navigation.">
<polygon fill="white" stroke="#666666" points="729.53,-76 681.28,-76 681.28,-56 729.53,-56 729.53,-76"/>
<text xml:space="preserve" text-anchor="middle" x="705.41" y="-62.5" font-family="Helvetica,sans-Serif" font-size="10.00">menu.h</text>
</a>
</g>
</g>
<!-- Node3&#45;&gt;Node9 -->
<g id="edge9_Node000003_Node000009" class="edge">
<title>Node3&#45;&gt;Node9</title>
<g id="a_edge9_Node000003_Node000009"><a xlink:title=" ">
<path fill="none" stroke="#63b8ff" d="M737.62,-111.59C732.42,-104.39 725.08,-94.23 718.72,-85.43"/>
<polygon fill="#63b8ff" stroke="#63b8ff" points="721.7,-83.58 713.01,-77.53 716.03,-87.68 721.7,-83.58"/>
</a>
</g>
</g>
<!-- Node10 -->
<g id="Node000010" class="node">
<title>Node10</title>
<g id="a_Node000010"><a xlink:href="game__over_8h.html" target="_top" xlink:title="Fichier de l&#39;ecran de fin de partie et des transitions associees.">
<polygon fill="white" stroke="#666666" points="819.53,-76 747.28,-76 747.28,-56 819.53,-56 819.53,-76"/>
<text xml:space="preserve" text-anchor="middle" x="783.41" y="-62.5" font-family="Helvetica,sans-Serif" font-size="10.00">game_over.h</text>
</a>
</g>
</g>
<!-- Node3&#45;&gt;Node10 -->
<g id="edge12_Node000003_Node000010" class="edge">
<title>Node3&#45;&gt;Node10</title>
<g id="a_edge12_Node000003_Node000010"><a xlink:title=" ">
<path fill="none" stroke="#63b8ff" d="M751.2,-111.59C756.4,-104.39 763.74,-94.23 770.1,-85.43"/>
<polygon fill="#63b8ff" stroke="#63b8ff" points="772.79,-87.68 775.81,-77.53 767.12,-83.58 772.79,-87.68"/>
</a>
</g>
</g>
<!-- Node11 -->
<g id="Node000011" class="node">
<title>Node11</title>
<g id="a_Node000011"><a xlink:href="jeux_8h.html" target="_top" xlink:title="Fichier de la boucle de jeu principale et de son initialisation.">
<polygon fill="white" stroke="#666666" points="1349.53,-76 1307.28,-76 1307.28,-56 1349.53,-56 1349.53,-76"/>
<text xml:space="preserve" text-anchor="middle" x="1328.41" y="-62.5" font-family="Helvetica,sans-Serif" font-size="10.00">jeux.h</text>
</a>
</g>
</g>
<!-- Node3&#45;&gt;Node11 -->
<g id="edge15_Node000003_Node000011" class="edge">
<title>Node3&#45;&gt;Node11</title>
<g id="a_edge15_Node000003_Node000011"><a xlink:title=" ">
<path fill="none" stroke="#63b8ff" d="M767.33,-120.86C842.18,-120.03 1086.22,-114.53 1295.7,-76.13"/>
<polygon fill="#63b8ff" stroke="#63b8ff" points="1296.24,-79.59 1305.43,-74.32 1294.95,-72.71 1296.24,-79.59"/>
</a>
</g>
</g>
<!-- Node12 -->
<g id="Node000012" class="node">
<title>Node12</title>
<g id="a_Node000012"><a xlink:href="bouton_8h.html" target="_top" xlink:title="Fichier des boutons UI, de leur etat et de la gestion des interactions souris.">
<polygon fill="white" stroke="#666666" points="891.16,-76 837.66,-76 837.66,-56 891.16,-56 891.16,-76"/>
<text xml:space="preserve" text-anchor="middle" x="864.41" y="-62.5" font-family="Helvetica,sans-Serif" font-size="10.00">bouton.h</text>
</a>
</g>
</g>
<!-- Node3&#45;&gt;Node12 -->
<g id="edge19_Node000003_Node000012" class="edge">
<title>Node3&#45;&gt;Node12</title>
<g id="a_edge19_Node000003_Node000012"><a xlink:title=" ">
<path fill="none" stroke="#63b8ff" d="M765.31,-111.59C784.04,-103.17 811.77,-90.69 833.13,-81.07"/>
<polygon fill="#63b8ff" stroke="#63b8ff" points="834.28,-84.4 841.96,-77.1 831.41,-78.01 834.28,-84.4"/>
</a>
</g>
</g>
<!-- Node13 -->
<g id="Node000013" class="node">
<title>Node13</title>
<g id="a_Node000013"><a xlink:href="option_8h.html" target="_top" xlink:title="Fichier de l&#39;ecran d&#39;options et des reglages de jeu.">
<polygon fill="white" stroke="#666666" points="959.66,-76 909.16,-76 909.16,-56 959.66,-56 959.66,-76"/>
<text xml:space="preserve" text-anchor="middle" x="934.41" y="-62.5" font-family="Helvetica,sans-Serif" font-size="10.00">option.h</text>
</a>
</g>
</g>
<!-- Node3&#45;&gt;Node13 -->
<g id="edge22_Node000003_Node000013" class="edge">
<title>Node3&#45;&gt;Node13</title>
<g id="a_edge22_Node000003_Node000013"><a xlink:title=" ">
<path fill="none" stroke="#63b8ff" d="M767.33,-114.49C799.76,-105.27 859.37,-88.33 897.93,-77.37"/>
<polygon fill="#63b8ff" stroke="#63b8ff" points="898.56,-80.83 907.23,-74.73 896.65,-74.09 898.56,-80.83"/>
</a>
</g>
</g>
<!-- Node14 -->
<g id="Node000014" class="node">
<title>Node14</title>
<g id="a_Node000014"><a xlink:href="perso_8h.html" target="_top" xlink:title="Fichier du personnage: deplacement, combat, stats et collisions.">
<polygon fill="white" stroke="#666666" points="1025.53,-76 977.28,-76 977.28,-56 1025.53,-56 1025.53,-76"/>
<text xml:space="preserve" text-anchor="middle" x="1001.41" y="-62.5" font-family="Helvetica,sans-Serif" font-size="10.00">perso.h</text>
</a>
</g>
</g>
<!-- Node3&#45;&gt;Node14 -->
<g id="edge25_Node000003_Node000014" class="edge">
<title>Node3&#45;&gt;Node14</title>
<g id="a_edge25_Node000003_Node000014"><a xlink:title=" ">
<path fill="none" stroke="#63b8ff" d="M767.42,-116.91C806.3,-109.89 887.7,-94.7 965.94,-76.46"/>
<polygon fill="#63b8ff" stroke="#63b8ff" points="966.54,-79.92 975.48,-74.22 964.94,-73.1 966.54,-79.92"/>
</a>
</g>
</g>
<!-- Node15 -->
<g id="Node000015" class="node">
<title>Node15</title>
<g id="a_Node000015"><a xlink:href="son_8h.html" target="_top" xlink:title="Fichier audio: musique, effets sonores et etats d&#39;activation.">
<polygon fill="white" stroke="#666666" points="1407.41,-76 1367.41,-76 1367.41,-56 1407.41,-56 1407.41,-76"/>
<text xml:space="preserve" text-anchor="middle" x="1387.41" y="-62.5" font-family="Helvetica,sans-Serif" font-size="10.00">son.h</text>
</a>
</g>
</g>
<!-- Node3&#45;&gt;Node15 -->
<g id="edge28_Node000003_Node000015" class="edge">
<title>Node3&#45;&gt;Node15</title>
<g id="a_edge28_Node000003_Node000015"><a xlink:title=" ">
<path fill="none" stroke="#63b8ff" d="M767.51,-121.19C847.83,-121.46 1122.28,-119.1 1355.87,-76.06"/>
<polygon fill="#63b8ff" stroke="#63b8ff" points="1356.29,-79.54 1365.47,-74.26 1355,-72.66 1356.29,-79.54"/>
</a>
</g>
</g>
<!-- Node17 -->
<g id="Node000017" class="node">
<title>Node17</title>
<g id="a_Node000017"><a xlink:href="boss_8h.html" target="_top" xlink:title="API de gestion des boss, de leurs phases et de leurs comportements de combat.">
<polygon fill="white" stroke="#666666" points="541.03,-76 495.78,-76 495.78,-56 541.03,-56 541.03,-76"/>
<text xml:space="preserve" text-anchor="middle" x="518.41" y="-62.5" font-family="Helvetica,sans-Serif" font-size="10.00">boss.h</text>
</a>
</g>
</g>
<!-- Node3&#45;&gt;Node17 -->
<g id="edge33_Node000003_Node000017" class="edge">
<title>Node3&#45;&gt;Node17</title>
<g id="a_edge33_Node000003_Node000017"><a xlink:title=" ">
<path fill="none" stroke="#63b8ff" d="M721.33,-116.01C686.75,-108.45 619.19,-93.39 552.19,-76.37"/>
<polygon fill="#63b8ff" stroke="#63b8ff" points="553.47,-73.08 542.91,-73.99 551.73,-79.86 553.47,-73.08"/>
</a>
</g>
</g>
<!-- Node18 -->
<g id="Node000018" class="node">
<title>Node18</title>
<g id="a_Node000018"><a xlink:href="mob_8h.html" target="_top" xlink:title="Fichier des mobs: creation, mise a jour, rendu et file de respawn.">
<polygon fill="white" stroke="#666666" points="601.91,-76 558.91,-76 558.91,-56 601.91,-56 601.91,-76"/>
<text xml:space="preserve" text-anchor="middle" x="580.41" y="-62.5" font-family="Helvetica,sans-Serif" font-size="10.00">mob.h</text>
</a>
</g>
</g>
<!-- Node3&#45;&gt;Node18 -->
<g id="edge36_Node000003_Node000018" class="edge">
<title>Node3&#45;&gt;Node18</title>
<g id="a_edge36_Node000003_Node000018"><a xlink:title=" ">
<path fill="none" stroke="#63b8ff" d="M721.61,-113.49C693.34,-104.19 644.99,-88.26 612.86,-77.69"/>
<polygon fill="#63b8ff" stroke="#63b8ff" points="614.27,-74.46 603.67,-74.66 612.08,-81.11 614.27,-74.46"/>
</a>
</g>
</g>
<!-- Node19 -->
<g id="Node000019" class="node">
<title>Node19</title>
<g id="a_Node000019"><a xlink:href="vaisseau_8h.html" target="_top" xlink:title="Fichier de la scene vaisseau, des interactions et du retour en planete.">
<polygon fill="white" stroke="#666666" points="478.03,-76 414.78,-76 414.78,-56 478.03,-56 478.03,-76"/>
<text xml:space="preserve" text-anchor="middle" x="446.41" y="-62.5" font-family="Helvetica,sans-Serif" font-size="10.00">vaisseau.h</text>
</a>
</g>
</g>
<!-- Node3&#45;&gt;Node19 -->
<g id="edge39_Node000003_Node000019" class="edge">
<title>Node3&#45;&gt;Node19</title>
<g id="a_edge39_Node000003_Node000019"><a xlink:title=" ">
<path fill="none" stroke="#63b8ff" d="M721.56,-117.4C678.23,-110.49 580.91,-94.57 489.39,-76.52"/>
<polygon fill="#63b8ff" stroke="#63b8ff" points="490.23,-73.12 479.74,-74.61 488.87,-79.99 490.23,-73.12"/>
</a>
</g>
</g>
<!-- Node20 -->
<g id="Node000020" class="node">
<title>Node20</title>
<g id="a_Node000020"><a xlink:href="map_8h.html" target="_top" xlink:title="Fichier de navigation carte et de gestion des ressources cartographiques.">
<polygon fill="white" stroke="#666666" points="1288.91,-76 1245.91,-76 1245.91,-56 1288.91,-56 1288.91,-76"/>
<text xml:space="preserve" text-anchor="middle" x="1267.41" y="-62.5" font-family="Helvetica,sans-Serif" font-size="10.00">map.h</text>
</a>
</g>
</g>
<!-- Node3&#45;&gt;Node20 -->
<g id="edge41_Node000003_Node000020" class="edge">
<title>Node3&#45;&gt;Node20</title>
<g id="a_edge41_Node000003_Node000020"><a xlink:title=" ">
<path fill="none" stroke="#63b8ff" d="M767.39,-120.12C837.45,-117.19 1054.37,-106.13 1231.41,-76 1232.41,-75.83 1233.42,-75.65 1234.44,-75.45"/>
<polygon fill="#63b8ff" stroke="#63b8ff" points="1234.93,-78.93 1243.96,-73.38 1233.44,-72.09 1234.93,-78.93"/>
</a>
</g>
</g>
<!-- Node21 -->
<g id="Node000021" class="node">
<title>Node21</title>
<g id="a_Node000021"><a xlink:href="item_8h.html" target="_top" xlink:title="Fichier de creation, d&#39;affichage et de destruction des items.">
<polygon fill="white" stroke="#666666" points="662.91,-76 619.91,-76 619.91,-56 662.91,-56 662.91,-76"/>
<text xml:space="preserve" text-anchor="middle" x="641.41" y="-62.5" font-family="Helvetica,sans-Serif" font-size="10.00">item.h</text>
</a>
</g>
</g>
<!-- Node3&#45;&gt;Node21 -->
<g id="edge45_Node000003_Node000021" class="edge">
<title>Node3&#45;&gt;Node21</title>
<g id="a_edge45_Node000003_Node000021"><a xlink:title=" ">
<path fill="none" stroke="#63b8ff" d="M726.47,-111.59C710.76,-103.36 687.68,-91.26 669.52,-81.74"/>
<polygon fill="#63b8ff" stroke="#63b8ff" points="671.31,-78.73 660.83,-77.18 668.06,-84.93 671.31,-78.73"/>
</a>
</g>
</g>
<!-- Node22 -->
<g id="Node000022" class="node">
<title>Node22</title>
<g id="a_Node000022"><a xlink:href="inventaire_8h.html" target="_top" xlink:title="Fichier de l&#39;inventaire, de la hotbar et des interactions de slots.">
<polygon fill="white" stroke="#666666" points="1189.53,-76 1123.28,-76 1123.28,-56 1189.53,-56 1189.53,-76"/>
<text xml:space="preserve" text-anchor="middle" x="1156.41" y="-62.5" font-family="Helvetica,sans-Serif" font-size="10.00">inventaire.h</text>
</a>
</g>
</g>
<!-- Node3&#45;&gt;Node22 -->
<g id="edge48_Node000003_Node000022" class="edge">
<title>Node3&#45;&gt;Node22</title>
<g id="a_edge48_Node000003_Node000022"><a xlink:title=" ">
<path fill="none" stroke="#63b8ff" d="M767.46,-118.92C824.25,-113.66 975.63,-98.69 1111.95,-76.28"/>
<polygon fill="#63b8ff" stroke="#63b8ff" points="1112.21,-79.79 1121.5,-74.69 1111.06,-72.88 1112.21,-79.79"/>
</a>
</g>
</g>
<!-- Node23 -->
<g id="Node000023" class="node">
<title>Node23</title>
<g id="a_Node000023"><a xlink:href="sauvegarde_8h.html" target="_top" xlink:title="Fichier des slots de sauvegarde et du chargement de progression.">
<polygon fill="white" stroke="#666666" points="1537.66,-76 1463.16,-76 1463.16,-56 1537.66,-56 1537.66,-76"/>
<text xml:space="preserve" text-anchor="middle" x="1500.41" y="-62.5" font-family="Helvetica,sans-Serif" font-size="10.00">sauvegarde.h</text>
</a>
</g>
</g>
<!-- Node3&#45;&gt;Node23 -->
<g id="edge52_Node000003_Node000023" class="edge">
<title>Node3&#45;&gt;Node23</title>
<g id="a_edge52_Node000003_Node000023"><a xlink:title=" ">
<path fill="none" stroke="#63b8ff" d="M767.32,-120.46C855.64,-118.19 1182.42,-107.98 1449.41,-76 1450.23,-75.9 1451.06,-75.8 1451.89,-75.69"/>
<polygon fill="#63b8ff" stroke="#63b8ff" points="1451.98,-79.21 1461.38,-74.33 1450.98,-72.29 1451.98,-79.21"/>
</a>
</g>
</g>
<!-- Node25 -->
<g id="Node000025" class="node">
<title>Node25</title>
<g id="a_Node000025"><a xlink:href="objectifs_8h.html" target="_top" xlink:title="Fichier de suivi des objectifs de quete et de leur affichage.">
<polygon fill="white" stroke="#666666" points="1104.91,-76 1043.91,-76 1043.91,-56 1104.91,-56 1104.91,-76"/>
<text xml:space="preserve" text-anchor="middle" x="1074.41" y="-62.5" font-family="Helvetica,sans-Serif" font-size="10.00">objectifs.h</text>
</a>
</g>
</g>
<!-- Node3&#45;&gt;Node25 -->
<g id="edge55_Node000003_Node000025" class="edge">
<title>Node3&#45;&gt;Node25</title>
<g id="a_edge55_Node000003_Node000025"><a xlink:title=" ">
<path fill="none" stroke="#63b8ff" d="M767.43,-117.96C814.94,-111.59 927.5,-95.89 1032.34,-76.28"/>
<polygon fill="#63b8ff" stroke="#63b8ff" points="1032.78,-79.76 1041.96,-74.46 1031.48,-72.88 1032.78,-79.76"/>
</a>
</g>
</g>
<!-- Node26 -->
<g id="Node000026" class="node">
<title>Node26</title>
<g id="a_Node000026"><a xlink:href="cinematique_8h.html" target="_top" xlink:title="Fichier des cinematics, des intros et des sequences de credits.">
<polygon fill="white" stroke="#666666" points="102.78,-76 26.03,-76 26.03,-56 102.78,-56 102.78,-76"/>
<text xml:space="preserve" text-anchor="middle" x="64.41" y="-62.5" font-family="Helvetica,sans-Serif" font-size="10.00">cinematique.h</text>
</a>
</g>
</g>
<!-- Node3&#45;&gt;Node26 -->
<g id="edge59_Node000003_Node000026" class="edge">
<title>Node3&#45;&gt;Node26</title>
<g id="a_edge59_Node000003_Node000026"><a xlink:title=" ">
<path fill="none" stroke="#63b8ff" d="M721.32,-120.34C639.72,-117.82 357.2,-107.34 114.25,-76.23"/>
<polygon fill="#63b8ff" stroke="#63b8ff" points="114.95,-72.79 104.58,-74.97 114.05,-79.73 114.95,-72.79"/>
</a>
</g>
</g>
<!-- Node27 -->
<g id="Node000027" class="node">
<title>Node27</title>
<g id="a_Node000027"><a xlink:href="shop_8h.html" target="_top" xlink:title="Fichier de la boutique, des achats et de l&#39;economie joueur.">
<polygon fill="white" stroke="#666666" points="358.03,-76 312.78,-76 312.78,-56 358.03,-56 358.03,-76"/>
<text xml:space="preserve" text-anchor="middle" x="335.41" y="-62.5" font-family="Helvetica,sans-Serif" font-size="10.00">shop.h</text>
</a>
</g>
</g>
<!-- Node3&#45;&gt;Node27 -->
<g id="edge61_Node000003_Node000027" class="edge">
<title>Node3&#45;&gt;Node27</title>
<g id="a_edge61_Node000003_Node000027"><a xlink:title=" ">
<path fill="none" stroke="#63b8ff" d="M721.62,-119.19C663.24,-114.34 503.63,-99.81 372.41,-76 371.41,-75.82 370.4,-75.63 369.39,-75.43"/>
<polygon fill="#63b8ff" stroke="#63b8ff" points="370.41,-72.07 359.89,-73.36 368.92,-78.91 370.41,-72.07"/>
</a>
</g>
</g>
<!-- Node9&#45;&gt;Node2 -->
<g id="edge10_Node000009_Node000002" class="edge">
<title>Node9&#45;&gt;Node2</title>
<g id="a_edge10_Node000009_Node000002"><a xlink:title=" ">
<path fill="none" stroke="#63b8ff" d="M719,-55.59C730.45,-47.67 747.07,-36.16 760.56,-26.82"/>
<polygon fill="#63b8ff" stroke="#63b8ff" points="762.24,-29.91 768.47,-21.34 758.26,-24.16 762.24,-29.91"/>
</a>
</g>
</g>
<!-- Node9&#45;&gt;Node4 -->
<g id="edge11_Node000009_Node000004" class="edge">
<title>Node9&#45;&gt;Node4</title>
<g id="a_edge11_Node000009_Node000004"><a xlink:title=" ">
<path fill="none" stroke="#63b8ff" d="M729.87,-58.12C732.74,-57.37 735.63,-56.65 738.41,-56 793.32,-43.13 856.23,-30.95 902.2,-22.52"/>
<polygon fill="#63b8ff" stroke="#63b8ff" points="902.8,-25.97 912.01,-20.73 901.55,-19.08 902.8,-25.97"/>
</a>
</g>
</g>
<!-- Node10&#45;&gt;Node2 -->
<g id="edge13_Node000010_Node000002" class="edge">
<title>Node10&#45;&gt;Node2</title>
<g id="a_edge13_Node000010_Node000002"><a xlink:title=" ">
<path fill="none" stroke="#63b8ff" d="M783.41,-55.59C783.41,-49.01 783.41,-39.96 783.41,-31.73"/>
<polygon fill="#63b8ff" stroke="#63b8ff" points="786.91,-31.81 783.41,-21.81 779.91,-31.81 786.91,-31.81"/>
</a>
</g>
</g>
<!-- Node10&#45;&gt;Node4 -->
<g id="edge14_Node000010_Node000004" class="edge">
<title>Node10&#45;&gt;Node4</title>
<g id="a_edge14_Node000010_Node000004"><a xlink:title=" ">
<path fill="none" stroke="#63b8ff" d="M815.46,-55.59C845.62,-46.74 891,-33.43 924.31,-23.65"/>
<polygon fill="#63b8ff" stroke="#63b8ff" points="925.05,-27.08 933.66,-20.91 923.08,-20.36 925.05,-27.08"/>
</a>
</g>
</g>
<!-- Node11&#45;&gt;Node2 -->
<g id="edge16_Node000011_Node000002" class="edge">
<title>Node11&#45;&gt;Node2</title>
<g id="a_edge16_Node000011_Node000002"><a xlink:title=" ">
<path fill="none" stroke="#63b8ff" d="M1306.91,-57.98C1304.07,-57.22 1301.19,-56.53 1298.41,-56 1286.98,-53.81 955.66,-25.6 830.59,-14.99"/>
<polygon fill="#63b8ff" stroke="#63b8ff" points="831.26,-11.54 821,-14.18 830.67,-18.51 831.26,-11.54"/>
</a>
</g>
</g>
<!-- Node11&#45;&gt;Node4 -->
<g id="edge17_Node000011_Node000004" class="edge">
<title>Node11&#45;&gt;Node4</title>
<g id="a_edge17_Node000011_Node000004"><a xlink:title=" ">
<path fill="none" stroke="#63b8ff" d="M1306.88,-58.1C1304.05,-57.33 1301.17,-56.6 1298.41,-56 1213.22,-37.55 1113.96,-25.25 1046.52,-18.24"/>
<polygon fill="#63b8ff" stroke="#63b8ff" points="1046.96,-14.77 1036.65,-17.23 1046.24,-21.73 1046.96,-14.77"/>
</a>
</g>
</g>
<!-- Node11&#45;&gt;Node6 -->
<g id="edge18_Node000011_Node000006" class="edge">
<title>Node11&#45;&gt;Node6</title>
<g id="a_edge18_Node000011_Node000006"><a xlink:title=" ">
<path fill="none" stroke="#63b8ff" d="M1333.46,-55.59C1337.2,-48.63 1342.43,-38.89 1347.05,-30.29"/>
<polygon fill="#63b8ff" stroke="#63b8ff" points="1350.05,-32.1 1351.7,-21.63 1343.89,-28.79 1350.05,-32.1"/>
</a>
</g>
</g>
<!-- Node12&#45;&gt;Node2 -->
<g id="edge20_Node000012_Node000002" class="edge">
<title>Node12&#45;&gt;Node2</title>
<g id="a_edge20_Node000012_Node000002"><a xlink:title=" ">
<path fill="none" stroke="#63b8ff" d="M850.3,-55.59C838.41,-47.67 821.14,-36.16 807.13,-26.82"/>
<polygon fill="#63b8ff" stroke="#63b8ff" points="809.15,-23.95 798.89,-21.32 805.27,-29.78 809.15,-23.95"/>
</a>
</g>
</g>
<!-- Node12&#45;&gt;Node4 -->
<g id="edge21_Node000012_Node000004" class="edge">
<title>Node12&#45;&gt;Node4</title>
<g id="a_edge21_Node000012_Node000004"><a xlink:title=" ">
<path fill="none" stroke="#63b8ff" d="M882.35,-55.59C898.06,-47.36 921.14,-35.26 939.3,-25.74"/>
<polygon fill="#63b8ff" stroke="#63b8ff" points="940.76,-28.93 947.99,-21.18 937.51,-22.73 940.76,-28.93"/>
</a>
</g>
</g>
<!-- Node13&#45;&gt;Node2 -->
<g id="edge23_Node000013_Node000002" class="edge">
<title>Node13&#45;&gt;Node2</title>
<g id="a_edge23_Node000013_Node000002"><a xlink:title=" ">
<path fill="none" stroke="#63b8ff" d="M908.79,-55.84C884.61,-47.19 848.07,-34.12 820.66,-24.32"/>
<polygon fill="#63b8ff" stroke="#63b8ff" points="821.93,-21.06 811.34,-20.99 819.58,-27.65 821.93,-21.06"/>
</a>
</g>
</g>
<!-- Node13&#45;&gt;Node4 -->
<g id="edge24_Node000013_Node000004" class="edge">
<title>Node13&#45;&gt;Node4</title>
<g id="a_edge24_Node000013_Node000004"><a xlink:title=" ">
<path fill="none" stroke="#63b8ff" d="M940.16,-55.59C944.46,-48.55 950.5,-38.67 955.8,-30"/>
<polygon fill="#63b8ff" stroke="#63b8ff" points="958.71,-31.95 960.94,-21.59 952.74,-28.3 958.71,-31.95"/>
</a>
</g>
</g>
<!-- Node14&#45;&gt;Node2 -->
<g id="edge26_Node000014_Node000002" class="edge">
<title>Node14&#45;&gt;Node2</title>
<g id="a_edge26_Node000014_Node000002"><a xlink:title=" ">
<path fill="none" stroke="#63b8ff" d="M976.92,-58.24C974.05,-57.47 971.17,-56.71 968.41,-56 921.71,-43.95 868.15,-31.02 830.71,-22.13"/>
<polygon fill="#63b8ff" stroke="#63b8ff" points="831.65,-18.75 821.11,-19.85 830.04,-25.56 831.65,-18.75"/>
</a>
</g>
</g>
<!-- Node14&#45;&gt;Node4 -->
<g id="edge27_Node000014_Node000004" class="edge">
<title>Node14&#45;&gt;Node4</title>
<g id="a_edge27_Node000014_Node000004"><a xlink:title=" ">
<path fill="none" stroke="#63b8ff" d="M995.49,-55.59C991.05,-48.55 984.83,-38.67 979.37,-30"/>
<polygon fill="#63b8ff" stroke="#63b8ff" points="982.36,-28.18 974.07,-21.58 976.44,-31.91 982.36,-28.18"/>
</a>
</g>
</g>
<!-- Node15&#45;&gt;Node2 -->
<g id="edge29_Node000015_Node000002" class="edge">
<title>Node15&#45;&gt;Node2</title>
<g id="a_edge29_Node000015_Node000002"><a xlink:title=" ">
<path fill="none" stroke="#63b8ff" d="M1366.96,-58.03C1364.11,-57.24 1361.21,-56.53 1358.41,-56 1153.94,-16.9 1098.91,-36.64 891.41,-20 871.53,-18.41 849.6,-16.59 830.72,-15.01"/>
<polygon fill="#63b8ff" stroke="#63b8ff" points="831.17,-11.53 820.91,-14.18 830.59,-18.51 831.17,-11.53"/>
</a>
</g>
</g>
<!-- Node15&#45;&gt;Node4 -->
<g id="edge30_Node000015_Node000004" class="edge">
<title>Node15&#45;&gt;Node4</title>
<g id="a_edge30_Node000015_Node000004"><a xlink:title=" ">
<path fill="none" stroke="#63b8ff" d="M1366.94,-58.13C1364.1,-57.33 1361.19,-56.59 1358.41,-56 1300.61,-43.82 1142.52,-27.56 1045.98,-18.29"/>
<polygon fill="#63b8ff" stroke="#63b8ff" points="1046.61,-14.84 1036.32,-17.37 1045.94,-21.81 1046.61,-14.84"/>
</a>
</g>
</g>
<!-- Node15&#45;&gt;Node6 -->
<g id="edge32_Node000015_Node000006" class="edge">
<title>Node15&#45;&gt;Node6</title>
<g id="a_edge32_Node000015_Node000006"><a xlink:title=" ">
<path fill="none" stroke="#63b8ff" d="M1382.18,-55.59C1378.31,-48.63 1372.9,-38.89 1368.12,-30.29"/>
<polygon fill="#63b8ff" stroke="#63b8ff" points="1371.23,-28.66 1363.31,-21.62 1365.11,-32.06 1371.23,-28.66"/>
</a>
</g>
</g>
<!-- Node16 -->
<g id="Node000016" class="node">
<title>Node16</title>
<g id="a_Node000016"><a xlink:title=" ">
<polygon fill="#e0e0e0" stroke="#999999" points="1206.41,-20 1106.41,-20 1106.41,0 1206.41,0 1206.41,-20"/>
<text xml:space="preserve" text-anchor="middle" x="1156.41" y="-6.5" font-family="Helvetica,sans-Serif" font-size="10.00">SDL3_ttf/SDL_ttf.h</text>
</a>
</g>
</g>
<!-- Node15&#45;&gt;Node16 -->
<g id="edge31_Node000015_Node000016" class="edge">
<title>Node15&#45;&gt;Node16</title>
<g id="a_edge31_Node000015_Node000016"><a xlink:title=" ">
<path fill="none" stroke="#63b8ff" d="M1367.19,-58.49C1364.25,-57.62 1361.26,-56.76 1358.41,-56 1310.49,-43.25 1255.52,-31.17 1215.04,-22.74"/>
<polygon fill="#63b8ff" stroke="#63b8ff" points="1216,-19.36 1205.5,-20.77 1214.59,-26.22 1216,-19.36"/>
</a>
</g>
</g>
<!-- Node17&#45;&gt;Node2 -->
<g id="edge34_Node000017_Node000002" class="edge">
<title>Node17&#45;&gt;Node2</title>
<g id="a_edge34_Node000017_Node000002"><a xlink:title=" ">
<path fill="none" stroke="#63b8ff" d="M541.42,-58.28C544.44,-57.47 547.49,-56.69 550.41,-56 614.3,-40.87 688.93,-27.14 736.18,-18.93"/>
<polygon fill="#63b8ff" stroke="#63b8ff" points="736.54,-22.42 745.8,-17.27 735.35,-15.52 736.54,-22.42"/>
</a>
</g>
</g>
<!-- Node17&#45;&gt;Node4 -->
<g id="edge35_Node000017_Node000004" class="edge">
<title>Node17&#45;&gt;Node4</title>
<g id="a_edge35_Node000017_Node000004"><a xlink:title=" ">
<path fill="none" stroke="#63b8ff" d="M541.37,-58.05C544.39,-57.28 547.46,-56.57 550.41,-56 666.95,-33.49 804.15,-21.4 888.45,-15.59"/>
<polygon fill="#63b8ff" stroke="#63b8ff" points="888.48,-19.09 898.22,-14.93 888,-12.11 888.48,-19.09"/>
</a>
</g>
</g>
<!-- Node18&#45;&gt;Node2 -->
<g id="edge37_Node000018_Node000002" class="edge">
<title>Node18&#45;&gt;Node2</title>
<g id="a_edge37_Node000018_Node000002"><a xlink:title=" ">
<path fill="none" stroke="#63b8ff" d="M602.4,-58.54C605.43,-57.67 608.49,-56.8 611.41,-56 653.7,-44.33 702.04,-31.75 736.69,-22.87"/>
<polygon fill="#63b8ff" stroke="#63b8ff" points="737.14,-26.36 745.96,-20.49 735.41,-19.58 737.14,-26.36"/>
</a>
</g>
</g>
<!-- Node18&#45;&gt;Node4 -->
<g id="edge38_Node000018_Node000004" class="edge">
<title>Node18&#45;&gt;Node4</title>
<g id="a_edge38_Node000018_Node000004"><a xlink:title=" ">
<path fill="none" stroke="#63b8ff" d="M602.32,-58.18C605.35,-57.37 608.45,-56.61 611.41,-56 705.8,-36.46 816.13,-24.1 888.66,-17.38"/>
<polygon fill="#63b8ff" stroke="#63b8ff" points="888.82,-20.88 898.46,-16.49 888.18,-13.91 888.82,-20.88"/>
</a>
</g>
</g>
<!-- Node19&#45;&gt;Node2 -->
<g id="edge40_Node000019_Node000002" class="edge">
<title>Node19&#45;&gt;Node2</title>
<g id="a_edge40_Node000019_Node000002"><a xlink:title=" ">
<path fill="none" stroke="#63b8ff" d="M478.24,-57.62C481,-57.05 483.75,-56.5 486.41,-56 574.34,-39.47 677.8,-24.88 736.49,-17.06"/>
<polygon fill="#63b8ff" stroke="#63b8ff" points="736.66,-20.57 746.11,-15.79 735.74,-13.63 736.66,-20.57"/>
</a>
</g>
</g>
<!-- Node20&#45;&gt;Node2 -->
<g id="edge42_Node000020_Node000002" class="edge">
<title>Node20&#45;&gt;Node2</title>
<g id="a_edge42_Node000020_Node000002"><a xlink:title=" ">
<path fill="none" stroke="#63b8ff" d="M1245.67,-62.04C1232.09,-60.22 1214.24,-57.89 1198.41,-56 1065.28,-40.1 907.84,-23.68 830.74,-15.8"/>
<polygon fill="#63b8ff" stroke="#63b8ff" points="831.33,-12.34 821.03,-14.8 830.62,-19.3 831.33,-12.34"/>
</a>
</g>
</g>
<!-- Node20&#45;&gt;Node4 -->
<g id="edge43_Node000020_Node000004" class="edge">
<title>Node20&#45;&gt;Node4</title>
<g id="a_edge43_Node000020_Node000004"><a xlink:title=" ">
<path fill="none" stroke="#63b8ff" d="M1245.77,-59.31C1241.05,-58.14 1236.08,-56.98 1231.41,-56 1168.03,-42.7 1095.47,-30.55 1042.48,-22.24"/>
<polygon fill="#63b8ff" stroke="#63b8ff" points="1043.06,-18.78 1032.64,-20.7 1041.98,-25.7 1043.06,-18.78"/>
</a>
</g>
</g>
<!-- Node20&#45;&gt;Node6 -->
<g id="edge44_Node000020_Node000006" class="edge">
<title>Node20&#45;&gt;Node6</title>
<g id="a_edge44_Node000020_Node000006"><a xlink:title=" ">
<path fill="none" stroke="#63b8ff" d="M1283.09,-55.59C1296.55,-47.51 1316.23,-35.71 1331.95,-26.27"/>
<polygon fill="#63b8ff" stroke="#63b8ff" points="1333.54,-29.4 1340.31,-21.26 1329.94,-23.4 1333.54,-29.4"/>
</a>
</g>
</g>
<!-- Node21&#45;&gt;Node2 -->
<g id="edge46_Node000021_Node000002" class="edge">
<title>Node21&#45;&gt;Node2</title>
<g id="a_edge46_Node000021_Node000002"><a xlink:title=" ">
<path fill="none" stroke="#63b8ff" d="M663.29,-56.68C685.99,-48.05 721.83,-34.42 748.46,-24.29"/>
<polygon fill="#63b8ff" stroke="#63b8ff" points="749.37,-27.69 757.47,-20.86 746.88,-21.15 749.37,-27.69"/>
</a>
</g>
</g>
<!-- Node21&#45;&gt;Node4 -->
<g id="edge47_Node000021_Node000004" class="edge">
<title>Node21&#45;&gt;Node4</title>
<g id="a_edge47_Node000021_Node000004"><a xlink:title=" ">
<path fill="none" stroke="#63b8ff" d="M663.33,-58.25C666.37,-57.43 669.45,-56.65 672.41,-56 745.01,-40 828.91,-27.79 888.63,-20.16"/>
<polygon fill="#63b8ff" stroke="#63b8ff" points="888.89,-23.66 898.37,-18.93 888.01,-16.71 888.89,-23.66"/>
</a>
</g>
</g>
<!-- Node22&#45;&gt;Node2 -->
<g id="edge49_Node000022_Node000002" class="edge">
<title>Node22&#45;&gt;Node2</title>
<g id="a_edge49_Node000022_Node000002"><a xlink:title=" ">
<path fill="none" stroke="#63b8ff" d="M1122.98,-57.6C1120.09,-57.03 1117.2,-56.49 1114.41,-56 1013.84,-38.41 895.06,-23.74 830.68,-16.28"/>
<polygon fill="#63b8ff" stroke="#63b8ff" points="831.14,-12.81 820.81,-15.15 830.34,-19.77 831.14,-12.81"/>
</a>
</g>
</g>
<!-- Node22&#45;&gt;Node4 -->
<g id="edge50_Node000022_Node000004" class="edge">
<title>Node22&#45;&gt;Node4</title>
<g id="a_edge50_Node000022_Node000004"><a xlink:title=" ">
<path fill="none" stroke="#63b8ff" d="M1123.49,-55.59C1092.38,-46.71 1045.49,-33.31 1011.23,-23.52"/>
<polygon fill="#63b8ff" stroke="#63b8ff" points="1012.62,-20.28 1002.04,-20.9 1010.7,-27.01 1012.62,-20.28"/>
</a>
</g>
</g>
<!-- Node22&#45;&gt;Node16 -->
<g id="edge51_Node000022_Node000016" class="edge">
<title>Node22&#45;&gt;Node16</title>
<g id="a_edge51_Node000022_Node000016"><a xlink:title=" ">
<path fill="none" stroke="#63b8ff" d="M1156.41,-55.59C1156.41,-49.01 1156.41,-39.96 1156.41,-31.73"/>
<polygon fill="#63b8ff" stroke="#63b8ff" points="1159.91,-31.81 1156.41,-21.81 1152.91,-31.81 1159.91,-31.81"/>
</a>
</g>
</g>
<!-- Node23&#45;&gt;Node2 -->
<g id="edge53_Node000023_Node000002" class="edge">
<title>Node23&#45;&gt;Node2</title>
<g id="a_edge53_Node000023_Node000002"><a xlink:title=" ">
<path fill="none" stroke="#63b8ff" d="M1462.81,-60.66C1448.32,-59.07 1431.6,-57.33 1416.41,-56 1183.43,-35.54 1124.62,-37.71 891.41,-20 871.52,-18.49 849.59,-16.69 830.71,-15.09"/>
<polygon fill="#63b8ff" stroke="#63b8ff" points="831.17,-11.62 820.91,-14.26 830.57,-18.59 831.17,-11.62"/>
</a>
</g>
</g>
<!-- Node24 -->
<g id="Node000024" class="node">
<title>Node24</title>
<g id="a_Node000024"><a xlink:title=" ">
<polygon fill="#e0e0e0" stroke="#999999" points="1528.28,-20 1472.53,-20 1472.53,0 1528.28,0 1528.28,-20"/>
<text xml:space="preserve" text-anchor="middle" x="1500.41" y="-6.5" font-family="Helvetica,sans-Serif" font-size="10.00">stdbool.h</text>
</a>
</g>
</g>
<!-- Node23&#45;&gt;Node24 -->
<g id="edge54_Node000023_Node000024" class="edge">
<title>Node23&#45;&gt;Node24</title>
<g id="a_edge54_Node000023_Node000024"><a xlink:title=" ">
<path fill="none" stroke="#63b8ff" d="M1500.41,-55.59C1500.41,-49.01 1500.41,-39.96 1500.41,-31.73"/>
<polygon fill="#63b8ff" stroke="#63b8ff" points="1503.91,-31.81 1500.41,-21.81 1496.91,-31.81 1503.91,-31.81"/>
</a>
</g>
</g>
<!-- Node25&#45;&gt;Node2 -->
<g id="edge56_Node000025_Node000002" class="edge">
<title>Node25&#45;&gt;Node2</title>
<g id="a_edge56_Node000025_Node000002"><a xlink:title=" ">
<path fill="none" stroke="#63b8ff" d="M1043.43,-57.89C1040.39,-57.23 1037.34,-56.59 1034.41,-56 963.55,-41.68 880.98,-27.32 830.45,-18.8"/>
<polygon fill="#63b8ff" stroke="#63b8ff" points="831.18,-15.37 820.74,-17.17 830.02,-22.28 831.18,-15.37"/>
</a>
</g>
</g>
<!-- Node25&#45;&gt;Node4 -->
<g id="edge57_Node000025_Node000004" class="edge">
<title>Node25&#45;&gt;Node4</title>
<g id="a_edge57_Node000025_Node000004"><a xlink:title=" ">
<path fill="none" stroke="#63b8ff" d="M1055.77,-55.59C1039.38,-47.32 1015.25,-35.14 996.35,-25.6"/>
<polygon fill="#63b8ff" stroke="#63b8ff" points="998.05,-22.54 987.54,-21.16 994.89,-28.79 998.05,-22.54"/>
</a>
</g>
</g>
<!-- Node25&#45;&gt;Node16 -->
<g id="edge58_Node000025_Node000016" class="edge">
<title>Node25&#45;&gt;Node16</title>
<g id="a_edge58_Node000025_Node000016"><a xlink:title=" ">
<path fill="none" stroke="#63b8ff" d="M1088.69,-55.59C1100.85,-47.59 1118.55,-35.93 1132.81,-26.54"/>
<polygon fill="#63b8ff" stroke="#63b8ff" points="1134.32,-29.73 1140.75,-21.31 1130.47,-23.89 1134.32,-29.73"/>
</a>
</g>
</g>
<!-- Node26&#45;&gt;Node2 -->
<g id="edge60_Node000026_Node000002" class="edge">
<title>Node26&#45;&gt;Node2</title>
<g id="a_edge60_Node000026_Node000002"><a xlink:title=" ">
<path fill="none" stroke="#63b8ff" d="M103.08,-57.21C105.89,-56.76 108.69,-56.35 111.41,-56 344.43,-26 625.64,-15.37 735.84,-12.19"/>
<polygon fill="#63b8ff" stroke="#63b8ff" points="735.79,-15.69 745.69,-11.91 735.59,-8.69 735.79,-15.69"/>
</a>
</g>
</g>
<!-- Node27&#45;&gt;Node2 -->
<g id="edge62_Node000027_Node000002" class="edge">
<title>Node27&#45;&gt;Node2</title>
<g id="a_edge62_Node000027_Node000002"><a xlink:title=" ">
<path fill="none" stroke="#63b8ff" d="M358.4,-58.92C363.02,-57.84 367.85,-56.8 372.41,-56 503.04,-33.06 659.2,-19.79 735.99,-14.19"/>
<polygon fill="#63b8ff" stroke="#63b8ff" points="735.94,-17.7 745.67,-13.49 735.44,-10.72 735.94,-17.7"/>
</a>
</g>
</g>
</g>
</svg>
