<?xml version="1.0" encoding="UTF-8" standalone="no"?>
<!DOCTYPE svg PUBLIC "-//W3C//DTD SVG 1.1//EN"
 "http://www.w3.org/Graphics/SVG/1.1/DTD/svg11.dtd">
<!-- Generated by graphviz version 14.1.4 (20260321.0153)
 -->
<!-- Title: appliquer_vision_reduite_planete3 Pages: 1 -->
<svg width="307pt" height="40pt"
 viewBox="0.00 0.00 307.00 40.00" xmlns="http://www.w3.org/2000/svg" xmlns:xlink="http://www.w3.org/1999/xlink">
<g id="graph0" class="graph" transform="scale(1 1) rotate(0) translate(4 36)">
<title>appliquer_vision_reduite_planete3</title>
<!-- Node1 -->
<g id="Node000001" class="node">
<title>Node1</title>
<g id="a_Node000001"><a xlink:title="Applique un masque de vision reduite autour du joueur sur la planete 3.">
<polygon fill="#999999" stroke="#666666" points="299.25,-32 179,-32 179,0 299.25,0 299.25,-32"/>
<text xml:space="preserve" text-anchor="start" x="187" y="-18.5" font-family="Helvetica,sans-Serif" font-size="10.00">appliquer_vision_reduite</text>
<text xml:space="preserve" text-anchor="middle" x="239.12" y="-6.5" font-family="Helvetica,sans-Serif" font-size="10.00">_planete3</text>
</a>
</g>
</g>
<!-- Node2 -->
<g id="Node000002" class="node">
<title>Node2</title>
<g id="a_Node000002"><a xlink:href="jeux_8c.html#a2d7491d04e8c2bdb52bb6ed7d75e4d78" target="_top" xlink:title="Execute la boucle principale de gameplay pour la planete courante.">
<polygon fill="white" stroke="#666666" points="143,-26 73,-26 73,-6 143,-6 143,-26"/>
<text xml:space="preserve" text-anchor="middle" x="108" y="-12.5" font-family="Helvetica,sans-Serif" font-size="10.00">jeu_principal</text>
</a>
</g>
</g>
<!-- Node1&#45;&gt;Node2 -->
<g id="edge1_Node000001_Node000002" class="edge">
<title>Node1&#45;&gt;Node2</title>
<g id="a_edge1_Node000001_Node000002"><a xlink:title=" ">
<path fill="none" stroke="#63b8ff" d="M167.4,-16C159.02,-16 150.78,-16 143.25,-16"/>
<polygon fill="#63b8ff" stroke="#63b8ff" points="167.34,-19.5 177.34,-16 167.34,-12.5 167.34,-19.5"/>
</a>
</g>
</g>
<!-- Node3 -->
<g id="Node000003" class="node">
<title>Node3</title>
<g id="a_Node000003"><a xlink:href="main_8c.html#a0ddf1224851353fc92bfbff6f499fa97" target="_top" xlink:title=" ">
<polygon fill="white" stroke="#666666" points="37,-26 0,-26 0,-6 37,-6 37,-26"/>
<text xml:space="preserve" text-anchor="middle" x="18.5" y="-12.5" font-family="Helvetica,sans-Serif" font-size="10.00">main</text>
</a>
</g>
</g>
<!-- Node2&#45;&gt;Node3 -->
<g id="edge2_Node000002_Node000003" class="edge">
<title>Node2&#45;&gt;Node3</title>
<g id="a_edge2_Node000002_Node000003"><a xlink:title=" ">
<path fill="none" stroke="#63b8ff" d="M61.18,-16C52.72,-16 44.36,-16 37.37,-16"/>
<polygon fill="#63b8ff" stroke="#63b8ff" points="61.16,-19.5 71.16,-16 61.16,-12.5 61.16,-19.5"/>
</a>
</g>
</g>
</g>
</svg>
