<?xml version="1.0" encoding="UTF-8" standalone="no"?>
<!DOCTYPE svg PUBLIC "-//W3C//DTD SVG 1.1//EN"
 "http://www.w3.org/Graphics/SVG/1.1/DTD/svg11.dtd">
<!-- Generated by graphviz version 14.1.4 (20260321.0153)
 -->
<!-- Title: p3_set_tile Pages: 1 -->
<svg width="679pt" height="203pt"
 viewBox="0.00 0.00 679.00 203.00" xmlns="http://www.w3.org/2000/svg" xmlns:xlink="http://www.w3.org/1999/xlink">
<g id="graph0" class="graph" transform="scale(1 1) rotate(0) translate(4 199.26)">
<title>p3_set_tile</title>
<!-- Node1 -->
<g id="Node000001" class="node">
<title>Node1</title>
<g id="a_Node000001"><a xlink:title=" ">
<polygon fill="#999999" stroke="#666666" points="671.25,-117 608,-117 608,-97 671.25,-97 671.25,-117"/>
<text xml:space="preserve" text-anchor="middle" x="639.62" y="-103.5" font-family="Helvetica,sans-Serif" font-size="10.00">p3_set_tile</text>
</a>
</g>
</g>
<!-- Node2 -->
<g id="Node000002" class="node">
<title>Node2</title>
<g id="a_Node000002"><a xlink:href="planete_8c.html#a590f905501246ac7649bbc45bc6677c5" target="_top" xlink:title="Genere le labyrinthe procedural de la planete 3 et place l&#39;engrenage objectif.">
<polygon fill="white" stroke="#666666" points="274.5,-123 179,-123 179,-91 274.5,-91 274.5,-123"/>
<text xml:space="preserve" text-anchor="start" x="187" y="-109.5" font-family="Helvetica,sans-Serif" font-size="10.00">generer_labyrinthe</text>
<text xml:space="preserve" text-anchor="middle" x="226.75" y="-97.5" font-family="Helvetica,sans-Serif" font-size="10.00">_planete3</text>
</a>
</g>
</g>
<!-- Node1&#45;&gt;Node2 -->
<g id="edge1_Node000001_Node000002" class="edge">
<title>Node1&#45;&gt;Node2</title>
<g id="a_edge1_Node000001_Node000002"><a xlink:title=" ">
<path fill="none" stroke="#63b8ff" d="M628.57,-127.54C617.68,-147.18 598.27,-175.59 572,-188 537.54,-204.27 337.41,-187.88 310.5,-177 282.06,-165.51 256.29,-140.27 241.32,-123.45"/>
<polygon fill="#63b8ff" stroke="#63b8ff" points="631.62,-129.25 633.16,-118.77 625.42,-126.01 631.62,-129.25"/>
</a>
</g>
</g>
<!-- Node5 -->
<g id="Node000005" class="node">
<title>Node5</title>
<g id="a_Node000005"><a xlink:href="planete_8c.html#a991604c564c4a18d508c8e5651478b23" target="_top" xlink:title=" ">
<polygon fill="white" stroke="#666666" points="572,-179 476.5,-179 476.5,-159 572,-159 572,-179"/>
<text xml:space="preserve" text-anchor="middle" x="524.25" y="-165.5" font-family="Helvetica,sans-Serif" font-size="10.00">p3_build_wall_ring</text>
</a>
</g>
</g>
<!-- Node1&#45;&gt;Node5 -->
<g id="edge4_Node000001_Node000005" class="edge">
<title>Node1&#45;&gt;Node5</title>
<g id="a_edge4_Node000001_Node000005"><a xlink:title=" ">
<path fill="none" stroke="#63b8ff" d="M611.1,-123.06C599.15,-129.94 584.95,-137.99 572,-145 563.5,-149.61 554.02,-154.51 545.83,-158.68"/>
<polygon fill="#63b8ff" stroke="#63b8ff" points="612.71,-126.17 619.62,-118.13 609.21,-120.11 612.71,-126.17"/>
</a>
</g>
</g>
<!-- Node6 -->
<g id="Node000006" class="node">
<title>Node6</title>
<g id="a_Node000006"><a xlink:href="planete_8c.html#aff3e59c99281abac9fcd5d9f212eb69f" target="_top" xlink:title=" ">
<polygon fill="white" stroke="#666666" points="562.25,-136 486.25,-136 486.25,-116 562.25,-116 562.25,-136"/>
<text xml:space="preserve" text-anchor="middle" x="524.25" y="-122.5" font-family="Helvetica,sans-Serif" font-size="10.00">p3_carve_line</text>
</a>
</g>
</g>
<!-- Node1&#45;&gt;Node6 -->
<g id="edge6_Node000001_Node000006" class="edge">
<title>Node1&#45;&gt;Node6</title>
<g id="a_edge6_Node000001_Node000006"><a xlink:title=" ">
<path fill="none" stroke="#63b8ff" d="M596.45,-114.07C585.36,-115.93 573.47,-117.92 562.65,-119.73"/>
<polygon fill="#63b8ff" stroke="#63b8ff" points="596.87,-117.55 606.15,-112.44 595.71,-110.64 596.87,-117.55"/>
</a>
</g>
</g>
<!-- Node8 -->
<g id="Node000008" class="node">
<title>Node8</title>
<g id="a_Node000008"><a xlink:href="planete_8c.html#a3dd7bf6192e5f47152f22df2dcd93d5e" target="_top" xlink:title=" ">
<polygon fill="white" stroke="#666666" points="408.25,-95 342.75,-95 342.75,-75 408.25,-75 408.25,-95"/>
<text xml:space="preserve" text-anchor="middle" x="375.5" y="-81.5" font-family="Helvetica,sans-Serif" font-size="10.00">p3_fill_map</text>
</a>
</g>
</g>
<!-- Node1&#45;&gt;Node8 -->
<g id="edge9_Node000001_Node000008" class="edge">
<title>Node1&#45;&gt;Node8</title>
<g id="a_edge9_Node000001_Node000008"><a xlink:title=" ">
<path fill="none" stroke="#63b8ff" d="M596.26,-103.44C543.76,-99.04 455.48,-91.63 408.38,-87.68"/>
<polygon fill="#63b8ff" stroke="#63b8ff" points="595.76,-106.91 606.02,-104.26 596.35,-99.94 595.76,-106.91"/>
</a>
</g>
</g>
<!-- Node9 -->
<g id="Node000009" class="node">
<title>Node9</title>
<g id="a_Node000009"><a xlink:href="planete_8c.html#ac4473ac7be5b628972e38290ef52a7ce" target="_top" xlink:title=" ">
<polygon fill="white" stroke="#666666" points="440.5,-57 310.5,-57 310.5,-37 440.5,-37 440.5,-57"/>
<text xml:space="preserve" text-anchor="middle" x="375.5" y="-43.5" font-family="Helvetica,sans-Serif" font-size="10.00">p3_generer_labyrinthe_dfs</text>
</a>
</g>
</g>
<!-- Node1&#45;&gt;Node9 -->
<g id="edge11_Node000001_Node000009" class="edge">
<title>Node1&#45;&gt;Node9</title>
<g id="a_edge11_Node000001_Node000009"><a xlink:title=" ">
<path fill="none" stroke="#63b8ff" d="M596.9,-96.13C588.66,-94.04 580.06,-91.92 572,-90 522.47,-78.24 465.6,-65.85 426.02,-57.41"/>
<polygon fill="#63b8ff" stroke="#63b8ff" points="595.81,-99.46 606.36,-98.54 597.54,-92.68 595.81,-99.46"/>
</a>
</g>
</g>
<!-- Node10 -->
<g id="Node000010" class="node">
<title>Node10</title>
<g id="a_Node000010"><a xlink:href="planete_8c.html#a702036ba0db73b0b01556deb574d5788" target="_top" xlink:title=" ">
<polygon fill="white" stroke="#666666" points="564.12,-20 484.38,-20 484.38,0 564.12,0 564.12,-20"/>
<text xml:space="preserve" text-anchor="middle" x="524.25" y="-6.5" font-family="Helvetica,sans-Serif" font-size="10.00">p3_open_room</text>
</a>
</g>
</g>
<!-- Node1&#45;&gt;Node10 -->
<g id="edge13_Node000001_Node000010" class="edge">
<title>Node1&#45;&gt;Node10</title>
<g id="a_edge13_Node000001_Node000010"><a xlink:title=" ">
<path fill="none" stroke="#63b8ff" d="M623.98,-87.93C611.37,-72.37 592.09,-50.52 572,-35 564.72,-29.37 555.99,-24.33 548.06,-20.27"/>
<polygon fill="#63b8ff" stroke="#63b8ff" points="621.02,-89.83 629.97,-95.5 626.51,-85.49 621.02,-89.83"/>
</a>
</g>
</g>
<!-- Node3 -->
<g id="Node000003" class="node">
<title>Node3</title>
<g id="a_Node000003"><a xlink:href="jeux_8c.html#a2d7491d04e8c2bdb52bb6ed7d75e4d78" target="_top" xlink:title="Execute la boucle principale de gameplay pour la planete courante.">
<polygon fill="white" stroke="#666666" points="143,-117 73,-117 73,-97 143,-97 143,-117"/>
<text xml:space="preserve" text-anchor="middle" x="108" y="-103.5" font-family="Helvetica,sans-Serif" font-size="10.00">jeu_principal</text>
</a>
</g>
</g>
<!-- Node2&#45;&gt;Node3 -->
<g id="edge2_Node000002_Node000003" class="edge">
<title>Node2&#45;&gt;Node3</title>
<g id="a_edge2_Node000002_Node000003"><a xlink:title=" ">
<path fill="none" stroke="#63b8ff" d="M167.16,-107C159.02,-107 150.89,-107 143.4,-107"/>
<polygon fill="#63b8ff" stroke="#63b8ff" points="167.09,-110.5 177.09,-107 167.09,-103.5 167.09,-110.5"/>
</a>
</g>
</g>
<!-- Node4 -->
<g id="Node000004" class="node">
<title>Node4</title>
<g id="a_Node000004"><a xlink:href="main_8c.html#a0ddf1224851353fc92bfbff6f499fa97" target="_top" xlink:title=" ">
<polygon fill="white" stroke="#666666" points="37,-117 0,-117 0,-97 37,-97 37,-117"/>
<text xml:space="preserve" text-anchor="middle" x="18.5" y="-103.5" font-family="Helvetica,sans-Serif" font-size="10.00">main</text>
</a>
</g>
</g>
<!-- Node3&#45;&gt;Node4 -->
<g id="edge3_Node000003_Node000004" class="edge">
<title>Node3&#45;&gt;Node4</title>
<g id="a_edge3_Node000003_Node000004"><a xlink:title=" ">
<path fill="none" stroke="#63b8ff" d="M61.18,-107C52.72,-107 44.36,-107 37.37,-107"/>
<polygon fill="#63b8ff" stroke="#63b8ff" points="61.16,-110.5 71.16,-107 61.16,-103.5 61.16,-110.5"/>
</a>
</g>
</g>
<!-- Node5&#45;&gt;Node2 -->
<g id="edge5_Node000005_Node000002" class="edge">
<title>Node5&#45;&gt;Node2</title>
<g id="a_edge5_Node000005_Node000002"><a xlink:title=" ">
<path fill="none" stroke="#63b8ff" d="M464.6,-171.77C421.16,-172.18 360.99,-169.26 310.5,-154 288.52,-147.36 266.01,-134.07 250.03,-123.32"/>
<polygon fill="#63b8ff" stroke="#63b8ff" points="464.66,-175.27 474.6,-171.61 464.54,-168.27 464.66,-175.27"/>
</a>
</g>
</g>
<!-- Node7 -->
<g id="Node000007" class="node">
<title>Node7</title>
<g id="a_Node000007"><a xlink:href="planete_8c.html#a96ef0aa842e5726f9da8593fa9a403d9" target="_top" xlink:title=" ">
<polygon fill="white" stroke="#666666" points="428.12,-145 322.88,-145 322.88,-113 428.12,-113 428.12,-145"/>
<text xml:space="preserve" text-anchor="start" x="330.88" y="-131.5" font-family="Helvetica,sans-Serif" font-size="10.00">p3_connect_isolated</text>
<text xml:space="preserve" text-anchor="middle" x="375.5" y="-119.5" font-family="Helvetica,sans-Serif" font-size="10.00">_regions</text>
</a>
</g>
</g>
<!-- Node6&#45;&gt;Node7 -->
<g id="edge7_Node000006_Node000007" class="edge">
<title>Node6&#45;&gt;Node7</title>
<g id="a_edge7_Node000006_Node000007"><a xlink:title=" ">
<path fill="none" stroke="#63b8ff" d="M474.4,-127C459.67,-127.3 443.44,-127.63 428.51,-127.94"/>
<polygon fill="#63b8ff" stroke="#63b8ff" points="474.4,-130.5 484.33,-126.8 474.26,-123.5 474.4,-130.5"/>
</a>
</g>
</g>
<!-- Node7&#45;&gt;Node2 -->
<g id="edge8_Node000007_Node000002" class="edge">
<title>Node7&#45;&gt;Node2</title>
<g id="a_edge8_Node000007_Node000002"><a xlink:title=" ">
<path fill="none" stroke="#63b8ff" d="M311.54,-119.56C299.15,-117.7 286.36,-115.79 274.62,-114.03"/>
<polygon fill="#63b8ff" stroke="#63b8ff" points="310.86,-123 321.26,-121.02 311.89,-116.08 310.86,-123"/>
</a>
</g>
</g>
<!-- Node8&#45;&gt;Node2 -->
<g id="edge10_Node000008_Node000002" class="edge">
<title>Node8&#45;&gt;Node2</title>
<g id="a_edge10_Node000008_Node000002"><a xlink:title=" ">
<path fill="none" stroke="#63b8ff" d="M331.14,-91.5C313.46,-94.15 292.98,-97.22 274.93,-99.93"/>
<polygon fill="#63b8ff" stroke="#63b8ff" points="331.43,-95 340.8,-90.05 330.39,-88.07 331.43,-95"/>
</a>
</g>
</g>
<!-- Node9&#45;&gt;Node2 -->
<g id="edge12_Node000009_Node000002" class="edge">
<title>Node9&#45;&gt;Node2</title>
<g id="a_edge12_Node000009_Node000002"><a xlink:title=" ">
<path fill="none" stroke="#63b8ff" d="M324.87,-60.81C319.98,-62.45 315.12,-64.19 310.5,-66 292.59,-73.03 273.29,-82.48 257.84,-90.54"/>
<polygon fill="#63b8ff" stroke="#63b8ff" points="325.65,-64.24 334.11,-57.86 323.52,-57.57 325.65,-64.24"/>
</a>
</g>
</g>
<!-- Node10&#45;&gt;Node2 -->
<g id="edge14_Node000010_Node000002" class="edge">
<title>Node10&#45;&gt;Node2</title>
<g id="a_edge14_Node000010_Node000002"><a xlink:title=" ">
<path fill="none" stroke="#63b8ff" d="M472.62,-5.08C427.97,-2.83 362.15,-4.73 310.5,-28 279.9,-41.79 253.64,-71.8 239.32,-90.61"/>
<polygon fill="#63b8ff" stroke="#63b8ff" points="472.35,-8.57 482.54,-5.67 472.77,-1.58 472.35,-8.57"/>
</a>
</g>
</g>
</g>
</svg>
