<?xml version="1.0" encoding="UTF-8" standalone="no"?>
<!DOCTYPE svg PUBLIC "-//W3C//DTD SVG 1.1//EN"
 "http://www.w3.org/Graphics/SVG/1.1/DTD/svg11.dtd">
<!-- Generated by graphviz version 14.1.4 (20260321.0153)
 -->
<!-- Title: src/planete.c Pages: 1 -->
<svg width="1535pt" height="252pt"
 viewBox="0.00 0.00 1535.00 252.00" xmlns="http://www.w3.org/2000/svg" xmlns:xlink="http://www.w3.org/1999/xlink">
<g id="graph0" class="graph" transform="scale(1 1) rotate(0) translate(4 248)">
<title>src/planete.c</title>
<!-- Node1 -->
<g id="Node000001" class="node">
<title>Node1</title>
<g id="a_Node000001"><a xlink:title="Gestion des planetes et des transitions d&#39;exploration.">
<polygon fill="#999999" stroke="#666666" points="1189.61,-244 1117.36,-244 1117.36,-224 1189.61,-224 1189.61,-244"/>
<text xml:space="preserve" text-anchor="middle" x="1153.48" y="-230.5" font-family="Helvetica,sans-Serif" font-size="10.00">src/planete.c</text>
</a>
</g>
</g>
<!-- Node2 -->
<g id="Node000002" class="node">
<title>Node2</title>
<g id="a_Node000002"><a xlink:title=" ">
<polygon fill="#e0e0e0" stroke="#999999" points="608.23,-20 536.73,-20 536.73,0 608.23,0 608.23,-20"/>
<text xml:space="preserve" text-anchor="middle" x="572.48" y="-6.5" font-family="Helvetica,sans-Serif" font-size="10.00">SDL3/SDL.h</text>
</a>
</g>
</g>
<!-- Node1&#45;&gt;Node2 -->
<g id="edge1_Node000001_Node000002" class="edge">
<title>Node1&#45;&gt;Node2</title>
<g id="a_edge1_Node000001_Node000002"><a xlink:title=" ">
<path fill="none" stroke="#63b8ff" d="M1117.02,-230.84C929.44,-219.39 79.14,-162.91 4.48,-76 -1.31,-69.26 -1.55,-62.53 4.48,-56 39.51,-18.09 395.04,-12.08 525.13,-11.16"/>
<polygon fill="#63b8ff" stroke="#63b8ff" points="525.14,-14.66 535.12,-11.1 525.1,-7.66 525.14,-14.66"/>
</a>
</g>
</g>
<!-- Node3 -->
<g id="Node000003" class="node">
<title>Node3</title>
<g id="a_Node000003"><a xlink:title=" ">
<polygon fill="#e0e0e0" stroke="#999999" points="1461.48,-76 1415.48,-76 1415.48,-56 1461.48,-56 1461.48,-76"/>
<text xml:space="preserve" text-anchor="middle" x="1438.48" y="-62.5" font-family="Helvetica,sans-Serif" font-size="10.00">math.h</text>
</a>
</g>
</g>
<!-- Node1&#45;&gt;Node3 -->
<g id="edge2_Node000001_Node000003" class="edge">
<title>Node1&#45;&gt;Node3</title>
<g id="a_edge2_Node000001_Node000003"><a xlink:title=" ">
<path fill="none" stroke="#63b8ff" d="M1152.15,-223.8C1149.45,-201.13 1145.98,-142.27 1177.48,-112 1212.45,-78.4 1339.93,-85.9 1403.96,-75.98"/>
<polygon fill="#63b8ff" stroke="#63b8ff" points="1404.46,-79.44 1413.66,-74.18 1403.19,-72.56 1404.46,-79.44"/>
</a>
</g>
</g>
<!-- Node4 -->
<g id="Node000004" class="node">
<title>Node4</title>
<g id="a_Node000004"><a xlink:title=" ">
<polygon fill="#e0e0e0" stroke="#999999" points="1267.23,-188 1219.73,-188 1219.73,-168 1267.23,-168 1267.23,-188"/>
<text xml:space="preserve" text-anchor="middle" x="1243.48" y="-174.5" font-family="Helvetica,sans-Serif" font-size="10.00">limits.h</text>
</a>
</g>
</g>
<!-- Node1&#45;&gt;Node4 -->
<g id="edge3_Node000001_Node000004" class="edge">
<title>Node1&#45;&gt;Node4</title>
<g id="a_edge3_Node000001_Node000004"><a xlink:title=" ">
<path fill="none" stroke="#63b8ff" d="M1169.16,-223.59C1182.63,-215.51 1202.3,-203.71 1218.03,-194.27"/>
<polygon fill="#63b8ff" stroke="#63b8ff" points="1219.61,-197.4 1226.39,-189.26 1216.01,-191.4 1219.61,-197.4"/>
</a>
</g>
</g>
<!-- Node5 -->
<g id="Node000005" class="node">
<title>Node5</title>
<g id="a_Node000005"><a xlink:title=" ">
<polygon fill="#e0e0e0" stroke="#999999" points="1527.23,-76 1479.73,-76 1479.73,-56 1527.23,-56 1527.23,-76"/>
<text xml:space="preserve" text-anchor="middle" x="1503.48" y="-62.5" font-family="Helvetica,sans-Serif" font-size="10.00">stdlib.h</text>
</a>
</g>
</g>
<!-- Node1&#45;&gt;Node5 -->
<g id="edge4_Node000001_Node000005" class="edge">
<title>Node1&#45;&gt;Node5</title>
<g id="a_edge4_Node000001_Node000005"><a xlink:title=" ">
<path fill="none" stroke="#63b8ff" d="M1159.33,-223.66C1168.56,-209.66 1187.81,-183.23 1210.48,-168 1253.98,-138.79 1400.84,-95.58 1468.65,-76.57"/>
<polygon fill="#63b8ff" stroke="#63b8ff" points="1469.43,-79.98 1478.13,-73.92 1467.55,-73.24 1469.43,-79.98"/>
</a>
</g>
</g>
<!-- Node6 -->
<g id="Node000006" class="node">
<title>Node6</title>
<g id="a_Node000006"><a xlink:href="planete_8h.html" target="_top" xlink:title="Fichier des ecrans de planetes et transitions d&#39;environnement.">
<polygon fill="white" stroke="#666666" points="841.11,-188 747.86,-188 747.86,-168 841.11,-168 841.11,-188"/>
<text xml:space="preserve" text-anchor="middle" x="794.48" y="-174.5" font-family="Helvetica,sans-Serif" font-size="10.00">headers/planete.h</text>
</a>
</g>
</g>
<!-- Node1&#45;&gt;Node6 -->
<g id="edge5_Node000001_Node000006" class="edge">
<title>Node1&#45;&gt;Node6</title>
<g id="a_edge5_Node000001_Node000006"><a xlink:title=" ">
<path fill="none" stroke="#63b8ff" d="M1117.09,-227.53C1054.77,-218.15 927.18,-198.96 852.48,-187.72"/>
<polygon fill="#63b8ff" stroke="#63b8ff" points="853.32,-184.31 842.91,-186.28 852.28,-191.23 853.32,-184.31"/>
</a>
</g>
</g>
<!-- Node6&#45;&gt;Node2 -->
<g id="edge6_Node000006_Node000002" class="edge">
<title>Node6&#45;&gt;Node2</title>
<g id="a_edge6_Node000006_Node000002"><a xlink:title=" ">
<path fill="none" stroke="#63b8ff" d="M747.4,-174.54C584.76,-165.57 53.93,-132.17 4.48,-76 -1.39,-69.33 -1.55,-62.53 4.48,-56 39.51,-18.09 395.04,-12.08 525.13,-11.16"/>
<polygon fill="#63b8ff" stroke="#63b8ff" points="525.14,-14.66 535.12,-11.1 525.1,-7.66 525.14,-14.66"/>
</a>
</g>
</g>
<!-- Node7 -->
<g id="Node000007" class="node">
<title>Node7</title>
<g id="a_Node000007"><a xlink:href="main_8h.html" target="_top" xlink:title="Declarations globales et utilitaires partages entre les modules du jeu.">
<polygon fill="white" stroke="#666666" points="817.11,-132 771.86,-132 771.86,-112 817.11,-112 817.11,-132"/>
<text xml:space="preserve" text-anchor="middle" x="794.48" y="-118.5" font-family="Helvetica,sans-Serif" font-size="10.00">main.h</text>
</a>
</g>
</g>
<!-- Node6&#45;&gt;Node7 -->
<g id="edge7_Node000006_Node000007" class="edge">
<title>Node6&#45;&gt;Node7</title>
<g id="a_edge7_Node000006_Node000007"><a xlink:title=" ">
<path fill="none" stroke="#63b8ff" d="M794.48,-167.59C794.48,-161.01 794.48,-151.96 794.48,-143.73"/>
<polygon fill="#63b8ff" stroke="#63b8ff" points="797.98,-143.81 794.48,-133.81 790.98,-143.81 797.98,-143.81"/>
</a>
</g>
</g>
<!-- Node7&#45;&gt;Node2 -->
<g id="edge8_Node000007_Node000002" class="edge">
<title>Node7&#45;&gt;Node2</title>
<g id="a_edge8_Node000007_Node000002"><a xlink:title=" ">
<path fill="none" stroke="#63b8ff" d="M771.41,-121.31C656.85,-122.62 152.87,-125.52 106.48,-76 48.14,-13.72 395.47,-9.8 525.12,-10.47"/>
<polygon fill="#63b8ff" stroke="#63b8ff" points="524.72,-13.97 534.74,-10.53 524.76,-6.97 524.72,-13.97"/>
</a>
</g>
</g>
<!-- Node7&#45;&gt;Node3 -->
<g id="edge10_Node000007_Node000003" class="edge">
<title>Node7&#45;&gt;Node3</title>
<g id="a_edge10_Node000007_Node000003"><a xlink:title=" ">
<path fill="none" stroke="#63b8ff" d="M817.47,-120.97C897.4,-120.5 1170.58,-116.02 1404.1,-76.06"/>
<polygon fill="#63b8ff" stroke="#63b8ff" points="1404.45,-79.56 1413.7,-74.39 1403.25,-72.66 1404.45,-79.56"/>
</a>
</g>
</g>
<!-- Node7&#45;&gt;Node5 -->
<g id="edge13_Node000007_Node000005" class="edge">
<title>Node7&#45;&gt;Node5</title>
<g id="a_edge13_Node000007_Node000005"><a xlink:title=" ">
<path fill="none" stroke="#63b8ff" d="M817.44,-121.13C902.55,-121.25 1208.2,-118.63 1468.28,-76.01"/>
<polygon fill="#63b8ff" stroke="#63b8ff" points="1468.68,-79.49 1477.96,-74.4 1467.53,-72.59 1468.68,-79.49"/>
</a>
</g>
</g>
<!-- Node8 -->
<g id="Node000008" class="node">
<title>Node8</title>
<g id="a_Node000008"><a xlink:title=" ">
<polygon fill="#e0e0e0" stroke="#999999" points="863.73,-20 729.23,-20 729.23,0 863.73,0 863.73,-20"/>
<text xml:space="preserve" text-anchor="middle" x="796.48" y="-6.5" font-family="Helvetica,sans-Serif" font-size="10.00">SDL3_image/SDL_image.h</text>
</a>
</g>
</g>
<!-- Node7&#45;&gt;Node8 -->
<g id="edge9_Node000007_Node000008" class="edge">
<title>Node7&#45;&gt;Node8</title>
<g id="a_edge9_Node000007_Node000008"><a xlink:title=" ">
<path fill="none" stroke="#63b8ff" d="M817.48,-120.06C896.92,-116.6 1156.2,-103.28 1180.48,-76 1186.39,-69.36 1186.39,-62.64 1180.48,-56 1170.45,-44.72 984.92,-27.08 875.48,-17.58"/>
<polygon fill="#63b8ff" stroke="#63b8ff" points="875.93,-14.1 865.66,-16.73 875.33,-21.08 875.93,-14.1"/>
</a>
</g>
</g>
<!-- Node9 -->
<g id="Node000009" class="node">
<title>Node9</title>
<g id="a_Node000009"><a xlink:title=" ">
<polygon fill="#e0e0e0" stroke="#999999" points="1263.48,-20 1133.48,-20 1133.48,0 1263.48,0 1263.48,-20"/>
<text xml:space="preserve" text-anchor="middle" x="1198.48" y="-6.5" font-family="Helvetica,sans-Serif" font-size="10.00">SDL3_mixer/SDL_mixer.h</text>
</a>
</g>
</g>
<!-- Node7&#45;&gt;Node9 -->
<g id="edge11_Node000007_Node000009" class="edge">
<title>Node7&#45;&gt;Node9</title>
<g id="a_edge11_Node000007_Node000009"><a xlink:title=" ">
<path fill="none" stroke="#63b8ff" d="M817.61,-120.63C909.48,-118.9 1245.25,-110.29 1276.48,-76 1294.43,-56.3 1263.98,-37.2 1236.03,-24.86"/>
<polygon fill="#63b8ff" stroke="#63b8ff" points="1237.52,-21.69 1226.94,-21.06 1234.82,-28.15 1237.52,-21.69"/>
</a>
</g>
</g>
<!-- Node10 -->
<g id="Node000010" class="node">
<title>Node10</title>
<g id="a_Node000010"><a xlink:title=" ">
<polygon fill="#e0e0e0" stroke="#999999" points="817.11,-76 771.86,-76 771.86,-56 817.11,-56 817.11,-76"/>
<text xml:space="preserve" text-anchor="middle" x="794.48" y="-62.5" font-family="Helvetica,sans-Serif" font-size="10.00">stdio.h</text>
</a>
</g>
</g>
<!-- Node7&#45;&gt;Node10 -->
<g id="edge12_Node000007_Node000010" class="edge">
<title>Node7&#45;&gt;Node10</title>
<g id="a_edge12_Node000007_Node000010"><a xlink:title=" ">
<path fill="none" stroke="#63b8ff" d="M794.48,-111.59C794.48,-105.01 794.48,-95.96 794.48,-87.73"/>
<polygon fill="#63b8ff" stroke="#63b8ff" points="797.98,-87.81 794.48,-77.81 790.98,-87.81 797.98,-87.81"/>
</a>
</g>
</g>
<!-- Node11 -->
<g id="Node000011" class="node">
<title>Node11</title>
<g id="a_Node000011"><a xlink:href="menu_8h.html" target="_top" xlink:title="Fichier du menu principal et des choix de navigation.">
<polygon fill="white" stroke="#666666" points="563.61,-76 515.36,-76 515.36,-56 563.61,-56 563.61,-76"/>
<text xml:space="preserve" text-anchor="middle" x="539.48" y="-62.5" font-family="Helvetica,sans-Serif" font-size="10.00">menu.h</text>
</a>
</g>
</g>
<!-- Node7&#45;&gt;Node11 -->
<g id="edge14_Node000007_Node000011" class="edge">
<title>Node7&#45;&gt;Node11</title>
<g id="a_edge14_Node000007_Node000011"><a xlink:title=" ">
<path fill="none" stroke="#63b8ff" d="M771.36,-116.84C732.7,-109.76 652.27,-94.57 574.85,-76.44"/>
<polygon fill="#63b8ff" stroke="#63b8ff" points="575.96,-73.11 565.42,-74.21 574.35,-79.92 575.96,-73.11"/>
</a>
</g>
</g>
<!-- Node12 -->
<g id="Node000012" class="node">
<title>Node12</title>
<g id="a_Node000012"><a xlink:href="game__over_8h.html" target="_top" xlink:title="Fichier de l&#39;ecran de fin de partie et des transitions associees.">
<polygon fill="white" stroke="#666666" points="364.61,-76 292.36,-76 292.36,-56 364.61,-56 364.61,-76"/>
<text xml:space="preserve" text-anchor="middle" x="328.48" y="-62.5" font-family="Helvetica,sans-Serif" font-size="10.00">game_over.h</text>
</a>
</g>
</g>
<!-- Node7&#45;&gt;Node12 -->
<g id="edge17_Node000007_Node000012" class="edge">
<title>Node7&#45;&gt;Node12</title>
<g id="a_edge17_Node000007_Node000012"><a xlink:title=" ">
<path fill="none" stroke="#63b8ff" d="M771.57,-119.29C709.57,-114.5 533.15,-99.85 376.06,-76.27"/>
<polygon fill="#63b8ff" stroke="#63b8ff" points="376.69,-72.82 366.28,-74.78 375.64,-79.74 376.69,-72.82"/>
</a>
</g>
</g>
<!-- Node13 -->
<g id="Node000013" class="node">
<title>Node13</title>
<g id="a_Node000013"><a xlink:href="jeux_8h.html" target="_top" xlink:title="Fichier de la boucle de jeu principale et de son initialisation.">
<polygon fill="white" stroke="#666666" points="1171.61,-76 1129.36,-76 1129.36,-56 1171.61,-56 1171.61,-76"/>
<text xml:space="preserve" text-anchor="middle" x="1150.48" y="-62.5" font-family="Helvetica,sans-Serif" font-size="10.00">jeux.h</text>
</a>
</g>
</g>
<!-- Node7&#45;&gt;Node13 -->
<g id="edge20_Node000007_Node000013" class="edge">
<title>Node7&#45;&gt;Node13</title>
<g id="a_edge20_Node000007_Node000013"><a xlink:title=" ">
<path fill="none" stroke="#63b8ff" d="M817.22,-119.08C869,-114.45 999.75,-101.31 1117.93,-76.27"/>
<polygon fill="#63b8ff" stroke="#63b8ff" points="1118.44,-79.74 1127.48,-74.21 1116.97,-72.9 1118.44,-79.74"/>
</a>
</g>
</g>
<!-- Node14 -->
<g id="Node000014" class="node">
<title>Node14</title>
<g id="a_Node000014"><a xlink:href="bouton_8h.html" target="_top" xlink:title="Fichier des boutons UI, de leur etat et de la gestion des interactions souris.">
<polygon fill="white" stroke="#666666" points="436.23,-76 382.73,-76 382.73,-56 436.23,-56 436.23,-76"/>
<text xml:space="preserve" text-anchor="middle" x="409.48" y="-62.5" font-family="Helvetica,sans-Serif" font-size="10.00">bouton.h</text>
</a>
</g>
</g>
<!-- Node7&#45;&gt;Node14 -->
<g id="edge24_Node000007_Node000014" class="edge">
<title>Node7&#45;&gt;Node14</title>
<g id="a_edge24_Node000007_Node000014"><a xlink:title=" ">
<path fill="none" stroke="#63b8ff" d="M771.47,-118.97C716.98,-113.97 575.66,-99.84 447.69,-76.21"/>
<polygon fill="#63b8ff" stroke="#63b8ff" points="448.5,-72.8 438.02,-74.4 447.21,-79.68 448.5,-72.8"/>
</a>
</g>
</g>
<!-- Node15 -->
<g id="Node000015" class="node">
<title>Node15</title>
<g id="a_Node000015"><a xlink:href="option_8h.html" target="_top" xlink:title="Fichier de l&#39;ecran d&#39;options et des reglages de jeu.">
<polygon fill="white" stroke="#666666" points="885.73,-76 835.23,-76 835.23,-56 885.73,-56 885.73,-76"/>
<text xml:space="preserve" text-anchor="middle" x="860.48" y="-62.5" font-family="Helvetica,sans-Serif" font-size="10.00">option.h</text>
</a>
</g>
</g>
<!-- Node7&#45;&gt;Node15 -->
<g id="edge27_Node000007_Node000015" class="edge">
<title>Node7&#45;&gt;Node15</title>
<g id="a_edge27_Node000007_Node000015"><a xlink:title=" ">
<path fill="none" stroke="#63b8ff" d="M805.98,-111.59C815.44,-103.85 829.09,-92.69 840.36,-83.47"/>
<polygon fill="#63b8ff" stroke="#63b8ff" points="842.43,-86.3 847.95,-77.26 837.99,-80.88 842.43,-86.3"/>
</a>
</g>
</g>
<!-- Node16 -->
<g id="Node000016" class="node">
<title>Node16</title>
<g id="a_Node000016"><a xlink:href="perso_8h.html" target="_top" xlink:title="Fichier du personnage: deplacement, combat, stats et collisions.">
<polygon fill="white" stroke="#666666" points="629.61,-76 581.36,-76 581.36,-56 629.61,-56 629.61,-76"/>
<text xml:space="preserve" text-anchor="middle" x="605.48" y="-62.5" font-family="Helvetica,sans-Serif" font-size="10.00">perso.h</text>
</a>
</g>
</g>
<!-- Node7&#45;&gt;Node16 -->
<g id="edge30_Node000007_Node000016" class="edge">
<title>Node7&#45;&gt;Node16</title>
<g id="a_edge30_Node000007_Node000016"><a xlink:title=" ">
<path fill="none" stroke="#63b8ff" d="M771.69,-114.49C739.07,-105.17 678.81,-87.95 640.51,-77.01"/>
<polygon fill="#63b8ff" stroke="#63b8ff" points="641.89,-73.76 631.31,-74.38 639.97,-80.49 641.89,-73.76"/>
</a>
</g>
</g>
<!-- Node17 -->
<g id="Node000017" class="node">
<title>Node17</title>
<g id="a_Node000017"><a xlink:href="son_8h.html" target="_top" xlink:title="Fichier audio: musique, effets sonores et etats d&#39;activation.">
<polygon fill="white" stroke="#666666" points="1267.48,-76 1227.48,-76 1227.48,-56 1267.48,-56 1267.48,-76"/>
<text xml:space="preserve" text-anchor="middle" x="1247.48" y="-62.5" font-family="Helvetica,sans-Serif" font-size="10.00">son.h</text>
</a>
</g>
</g>
<!-- Node7&#45;&gt;Node17 -->
<g id="edge33_Node000007_Node000017" class="edge">
<title>Node7&#45;&gt;Node17</title>
<g id="a_edge33_Node000007_Node000017"><a xlink:title=" ">
<path fill="none" stroke="#63b8ff" d="M817.37,-119.77C880.76,-116.09 1063.85,-103.67 1213.48,-76 1214.32,-75.85 1215.16,-75.68 1216.01,-75.51"/>
<polygon fill="#63b8ff" stroke="#63b8ff" points="1216.68,-78.95 1225.63,-73.28 1215.09,-72.13 1216.68,-78.95"/>
</a>
</g>
</g>
<!-- Node19 -->
<g id="Node000019" class="node">
<title>Node19</title>
<g id="a_Node000019"><a xlink:href="boss_8h.html" target="_top" xlink:title="API de gestion des boss, de leurs phases et de leurs comportements de combat.">
<polygon fill="white" stroke="#666666" points="693.11,-76 647.86,-76 647.86,-56 693.11,-56 693.11,-76"/>
<text xml:space="preserve" text-anchor="middle" x="670.48" y="-62.5" font-family="Helvetica,sans-Serif" font-size="10.00">boss.h</text>
</a>
</g>
</g>
<!-- Node7&#45;&gt;Node19 -->
<g id="edge38_Node000007_Node000019" class="edge">
<title>Node7&#45;&gt;Node19</title>
<g id="a_edge38_Node000007_Node000019"><a xlink:title=" ">
<path fill="none" stroke="#63b8ff" d="M772.89,-111.59C753.53,-103.17 724.88,-90.69 702.8,-81.07"/>
<polygon fill="#63b8ff" stroke="#63b8ff" points="704.21,-77.87 693.64,-77.08 701.41,-84.29 704.21,-77.87"/>
</a>
</g>
</g>
<!-- Node20 -->
<g id="Node000020" class="node">
<title>Node20</title>
<g id="a_Node000020"><a xlink:href="mob_8h.html" target="_top" xlink:title="Fichier des mobs: creation, mise a jour, rendu et file de respawn.">
<polygon fill="white" stroke="#666666" points="753.98,-76 710.98,-76 710.98,-56 753.98,-56 753.98,-76"/>
<text xml:space="preserve" text-anchor="middle" x="732.48" y="-62.5" font-family="Helvetica,sans-Serif" font-size="10.00">mob.h</text>
</a>
</g>
</g>
<!-- Node7&#45;&gt;Node20 -->
<g id="edge41_Node000007_Node000020" class="edge">
<title>Node7&#45;&gt;Node20</title>
<g id="a_edge41_Node000007_Node000020"><a xlink:title=" ">
<path fill="none" stroke="#63b8ff" d="M783.68,-111.59C774.88,-103.93 762.23,-92.91 751.71,-83.75"/>
<polygon fill="#63b8ff" stroke="#63b8ff" points="754.14,-81.22 744.3,-77.29 749.54,-86.5 754.14,-81.22"/>
</a>
</g>
</g>
<!-- Node21 -->
<g id="Node000021" class="node">
<title>Node21</title>
<g id="a_Node000021"><a xlink:href="vaisseau_8h.html" target="_top" xlink:title="Fichier de la scene vaisseau, des interactions et du retour en planete.">
<polygon fill="white" stroke="#666666" points="179.11,-76 115.86,-76 115.86,-56 179.11,-56 179.11,-76"/>
<text xml:space="preserve" text-anchor="middle" x="147.48" y="-62.5" font-family="Helvetica,sans-Serif" font-size="10.00">vaisseau.h</text>
</a>
</g>
</g>
<!-- Node7&#45;&gt;Node21 -->
<g id="edge44_Node000007_Node000021" class="edge">
<title>Node7&#45;&gt;Node21</title>
<g id="a_edge44_Node000007_Node000021"><a xlink:title=" ">
<path fill="none" stroke="#63b8ff" d="M771.52,-120.47C692.3,-118.39 423.1,-109.29 190.58,-76.08"/>
<polygon fill="#63b8ff" stroke="#63b8ff" points="191.08,-72.61 180.68,-74.64 190.08,-79.54 191.08,-72.61"/>
</a>
</g>
</g>
<!-- Node22 -->
<g id="Node000022" class="node">
<title>Node22</title>
<g id="a_Node000022"><a xlink:href="map_8h.html" target="_top" xlink:title="Fichier de navigation carte et de gestion des ressources cartographiques.">
<polygon fill="white" stroke="#666666" points="1110.98,-76 1067.98,-76 1067.98,-56 1110.98,-56 1110.98,-76"/>
<text xml:space="preserve" text-anchor="middle" x="1089.48" y="-62.5" font-family="Helvetica,sans-Serif" font-size="10.00">map.h</text>
</a>
</g>
</g>
<!-- Node7&#45;&gt;Node22 -->
<g id="edge46_Node000007_Node000022" class="edge">
<title>Node7&#45;&gt;Node22</title>
<g id="a_edge46_Node000007_Node000022"><a xlink:title=" ">
<path fill="none" stroke="#63b8ff" d="M817.26,-118.01C861.45,-112.02 962.06,-97.46 1056.38,-76.25"/>
<polygon fill="#63b8ff" stroke="#63b8ff" points="1057.1,-79.68 1066.07,-74.04 1055.55,-72.85 1057.1,-79.68"/>
</a>
</g>
</g>
<!-- Node23 -->
<g id="Node000023" class="node">
<title>Node23</title>
<g id="a_Node000023"><a xlink:href="item_8h.html" target="_top" xlink:title="Fichier de creation, d&#39;affichage et de destruction des items.">
<polygon fill="white" stroke="#666666" points="496.98,-76 453.98,-76 453.98,-56 496.98,-56 496.98,-76"/>
<text xml:space="preserve" text-anchor="middle" x="475.48" y="-62.5" font-family="Helvetica,sans-Serif" font-size="10.00">item.h</text>
</a>
</g>
</g>
<!-- Node7&#45;&gt;Node23 -->
<g id="edge50_Node000007_Node000023" class="edge">
<title>Node7&#45;&gt;Node23</title>
<g id="a_edge50_Node000007_Node000023"><a xlink:title=" ">
<path fill="none" stroke="#63b8ff" d="M771.52,-118.42C724.17,-112.89 612.07,-98.71 508.38,-76.17"/>
<polygon fill="#63b8ff" stroke="#63b8ff" points="509.41,-72.81 498.89,-74.07 507.9,-79.64 509.41,-72.81"/>
</a>
</g>
</g>
<!-- Node24 -->
<g id="Node000024" class="node">
<title>Node24</title>
<g id="a_Node000024"><a xlink:href="inventaire_8h.html" target="_top" xlink:title="Fichier de l&#39;inventaire, de la hotbar et des interactions de slots.">
<polygon fill="white" stroke="#666666" points="1049.61,-76 983.36,-76 983.36,-56 1049.61,-56 1049.61,-76"/>
<text xml:space="preserve" text-anchor="middle" x="1016.48" y="-62.5" font-family="Helvetica,sans-Serif" font-size="10.00">inventaire.h</text>
</a>
</g>
</g>
<!-- Node7&#45;&gt;Node24 -->
<g id="edge53_Node000007_Node000024" class="edge">
<title>Node7&#45;&gt;Node24</title>
<g id="a_edge53_Node000007_Node000024"><a xlink:title=" ">
<path fill="none" stroke="#63b8ff" d="M817.41,-115.42C853.74,-106.59 925.21,-89.2 971.89,-77.85"/>
<polygon fill="#63b8ff" stroke="#63b8ff" points="972.54,-81.29 981.43,-75.53 970.89,-74.49 972.54,-81.29"/>
</a>
</g>
</g>
<!-- Node25 -->
<g id="Node000025" class="node">
<title>Node25</title>
<g id="a_Node000025"><a xlink:href="sauvegarde_8h.html" target="_top" xlink:title="Fichier des slots de sauvegarde et du chargement de progression.">
<polygon fill="white" stroke="#666666" points="1397.73,-76 1323.23,-76 1323.23,-56 1397.73,-56 1397.73,-76"/>
<text xml:space="preserve" text-anchor="middle" x="1360.48" y="-62.5" font-family="Helvetica,sans-Serif" font-size="10.00">sauvegarde.h</text>
</a>
</g>
</g>
<!-- Node7&#45;&gt;Node25 -->
<g id="edge57_Node000007_Node000025" class="edge">
<title>Node7&#45;&gt;Node25</title>
<g id="a_edge57_Node000007_Node000025"><a xlink:title=" ">
<path fill="none" stroke="#63b8ff" d="M817.41,-119.72C889.83,-115.5 1120.17,-100.93 1309.48,-76 1310.3,-75.89 1311.13,-75.78 1311.96,-75.67"/>
<polygon fill="#63b8ff" stroke="#63b8ff" points="1312.08,-79.19 1321.45,-74.23 1311.04,-72.27 1312.08,-79.19"/>
</a>
</g>
</g>
<!-- Node27 -->
<g id="Node000027" class="node">
<title>Node27</title>
<g id="a_Node000027"><a xlink:href="objectifs_8h.html" target="_top" xlink:title="Fichier de suivi des objectifs de quete et de leur affichage.">
<polygon fill="white" stroke="#666666" points="964.98,-76 903.98,-76 903.98,-56 964.98,-56 964.98,-76"/>
<text xml:space="preserve" text-anchor="middle" x="934.48" y="-62.5" font-family="Helvetica,sans-Serif" font-size="10.00">objectifs.h</text>
</a>
</g>
</g>
<!-- Node7&#45;&gt;Node27 -->
<g id="edge60_Node000007_Node000027" class="edge">
<title>Node7&#45;&gt;Node27</title>
<g id="a_edge60_Node000007_Node000027"><a xlink:title=" ">
<path fill="none" stroke="#63b8ff" d="M817.6,-112.08C839.79,-103.52 873.62,-90.48 899.18,-80.62"/>
<polygon fill="#63b8ff" stroke="#63b8ff" points="900.44,-83.88 908.51,-77.02 897.92,-77.35 900.44,-83.88"/>
</a>
</g>
</g>
<!-- Node28 -->
<g id="Node000028" class="node">
<title>Node28</title>
<g id="a_Node000028"><a xlink:href="cinematique_8h.html" target="_top" xlink:title="Fichier des cinematics, des intros et des sequences de credits.">
<polygon fill="white" stroke="#666666" points="273.86,-76 197.11,-76 197.11,-56 273.86,-56 273.86,-76"/>
<text xml:space="preserve" text-anchor="middle" x="235.48" y="-62.5" font-family="Helvetica,sans-Serif" font-size="10.00">cinematique.h</text>
</a>
</g>
</g>
<!-- Node7&#45;&gt;Node28 -->
<g id="edge64_Node000007_Node000028" class="edge">
<title>Node7&#45;&gt;Node28</title>
<g id="a_edge64_Node000007_Node000028"><a xlink:title=" ">
<path fill="none" stroke="#63b8ff" d="M771.48,-119.78C700.67,-115.84 479.61,-102.3 285.48,-76.13"/>
<polygon fill="#63b8ff" stroke="#63b8ff" points="286.09,-72.68 275.7,-74.8 285.14,-79.62 286.09,-72.68"/>
</a>
</g>
</g>
<!-- Node29 -->
<g id="Node000029" class="node">
<title>Node29</title>
<g id="a_Node000029"><a xlink:href="shop_8h.html" target="_top" xlink:title="Fichier de la boutique, des achats et de l&#39;economie joueur.">
<polygon fill="white" stroke="#666666" points="59.11,-76 13.86,-76 13.86,-56 59.11,-56 59.11,-76"/>
<text xml:space="preserve" text-anchor="middle" x="36.48" y="-62.5" font-family="Helvetica,sans-Serif" font-size="10.00">shop.h</text>
</a>
</g>
</g>
<!-- Node7&#45;&gt;Node29 -->
<g id="edge66_Node000007_Node000029" class="edge">
<title>Node7&#45;&gt;Node29</title>
<g id="a_edge66_Node000007_Node000029"><a xlink:title=" ">
<path fill="none" stroke="#63b8ff" d="M771.6,-121.03C681.92,-120.86 345.97,-117.31 73.48,-76 72.48,-75.85 71.47,-75.68 70.45,-75.5"/>
<polygon fill="#63b8ff" stroke="#63b8ff" points="71.43,-72.13 60.93,-73.55 70.03,-78.99 71.43,-72.13"/>
</a>
</g>
</g>
<!-- Node11&#45;&gt;Node2 -->
<g id="edge15_Node000011_Node000002" class="edge">
<title>Node11&#45;&gt;Node2</title>
<g id="a_edge15_Node000011_Node000002"><a xlink:title=" ">
<path fill="none" stroke="#63b8ff" d="M545.23,-55.59C549.54,-48.55 555.58,-38.67 560.87,-30"/>
<polygon fill="#63b8ff" stroke="#63b8ff" points="563.78,-31.95 566.01,-21.59 557.81,-28.3 563.78,-31.95"/>
</a>
</g>
</g>
<!-- Node11&#45;&gt;Node8 -->
<g id="edge16_Node000011_Node000008" class="edge">
<title>Node11&#45;&gt;Node8</title>
<g id="a_edge16_Node000011_Node000008"><a xlink:title=" ">
<path fill="none" stroke="#63b8ff" d="M563.95,-58.13C566.82,-57.38 569.71,-56.66 572.48,-56 626.4,-43.25 688.15,-31.02 733.15,-22.53"/>
<polygon fill="#63b8ff" stroke="#63b8ff" points="733.54,-26.02 742.73,-20.74 732.25,-19.14 733.54,-26.02"/>
</a>
</g>
</g>
<!-- Node12&#45;&gt;Node2 -->
<g id="edge18_Node000012_Node000002" class="edge">
<title>Node12&#45;&gt;Node2</title>
<g id="a_edge18_Node000012_Node000002"><a xlink:title=" ">
<path fill="none" stroke="#63b8ff" d="M365.01,-56.92C407.75,-47.46 478.62,-31.77 525.44,-21.41"/>
<polygon fill="#63b8ff" stroke="#63b8ff" points="526.02,-24.87 535.02,-19.29 524.5,-18.03 526.02,-24.87"/>
</a>
</g>
</g>
<!-- Node12&#45;&gt;Node8 -->
<g id="edge19_Node000012_Node000008" class="edge">
<title>Node12&#45;&gt;Node8</title>
<g id="a_edge19_Node000012_Node000008"><a xlink:title=" ">
<path fill="none" stroke="#63b8ff" d="M364.78,-57.44C367.72,-56.92 370.65,-56.43 373.48,-56 492.83,-37.76 632.26,-24.46 717.44,-17.24"/>
<polygon fill="#63b8ff" stroke="#63b8ff" points="717.66,-20.73 727.33,-16.4 717.07,-13.75 717.66,-20.73"/>
</a>
</g>
</g>
<!-- Node13&#45;&gt;Node2 -->
<g id="edge21_Node000013_Node000002" class="edge">
<title>Node13&#45;&gt;Node2</title>
<g id="a_edge21_Node000013_Node000002"><a xlink:title=" ">
<path fill="none" stroke="#63b8ff" d="M1128.99,-57.96C1126.15,-57.21 1123.26,-56.52 1120.48,-56 1071.98,-46.84 744.15,-23.11 620,-14.33"/>
<polygon fill="#63b8ff" stroke="#63b8ff" points="620.37,-10.85 610.15,-13.63 619.88,-17.83 620.37,-10.85"/>
</a>
</g>
</g>
<!-- Node13&#45;&gt;Node8 -->
<g id="edge22_Node000013_Node000008" class="edge">
<title>Node13&#45;&gt;Node8</title>
<g id="a_edge22_Node000013_Node000008"><a xlink:title=" ">
<path fill="none" stroke="#63b8ff" d="M1128.96,-58.11C1126.13,-57.33 1123.25,-56.6 1120.48,-56 1037.61,-37.93 941.15,-25.62 875.17,-18.51"/>
<polygon fill="#63b8ff" stroke="#63b8ff" points="875.85,-15.06 865.54,-17.49 875.11,-22.03 875.85,-15.06"/>
</a>
</g>
</g>
<!-- Node13&#45;&gt;Node9 -->
<g id="edge23_Node000013_Node000009" class="edge">
<title>Node13&#45;&gt;Node9</title>
<g id="a_edge23_Node000013_Node000009"><a xlink:title=" ">
<path fill="none" stroke="#63b8ff" d="M1158.85,-55.59C1165.38,-48.24 1174.67,-37.8 1182.6,-28.87"/>
<polygon fill="#63b8ff" stroke="#63b8ff" points="1185.19,-31.23 1189.21,-21.43 1179.95,-26.58 1185.19,-31.23"/>
</a>
</g>
</g>
<!-- Node14&#45;&gt;Node2 -->
<g id="edge25_Node000014_Node000002" class="edge">
<title>Node14&#45;&gt;Node2</title>
<g id="a_edge25_Node000014_Node000002"><a xlink:title=" ">
<path fill="none" stroke="#63b8ff" d="M436.4,-56.08C462.7,-47.37 503.03,-34.01 532.97,-24.09"/>
<polygon fill="#63b8ff" stroke="#63b8ff" points="534.05,-27.42 542.45,-20.95 531.85,-20.77 534.05,-27.42"/>
</a>
</g>
</g>
<!-- Node14&#45;&gt;Node8 -->
<g id="edge26_Node000014_Node000008" class="edge">
<title>Node14&#45;&gt;Node8</title>
<g id="a_edge26_Node000014_Node000008"><a xlink:title=" ">
<path fill="none" stroke="#63b8ff" d="M436.54,-57.88C439.54,-57.19 442.57,-56.55 445.48,-56 538.32,-38.51 646.28,-25.79 717.69,-18.43"/>
<polygon fill="#63b8ff" stroke="#63b8ff" points="717.73,-21.94 727.32,-17.45 717.02,-14.98 717.73,-21.94"/>
</a>
</g>
</g>
<!-- Node15&#45;&gt;Node2 -->
<g id="edge28_Node000015_Node000002" class="edge">
<title>Node15&#45;&gt;Node2</title>
<g id="a_edge28_Node000015_Node000002"><a xlink:title=" ">
<path fill="none" stroke="#63b8ff" d="M834.92,-57.99C832.08,-57.28 829.23,-56.6 826.48,-56 754.87,-40.21 670.95,-26.21 619.77,-18.17"/>
<polygon fill="#63b8ff" stroke="#63b8ff" points="620.34,-14.71 609.92,-16.63 619.26,-21.63 620.34,-14.71"/>
</a>
</g>
</g>
<!-- Node15&#45;&gt;Node8 -->
<g id="edge29_Node000015_Node000008" class="edge">
<title>Node15&#45;&gt;Node8</title>
<g id="a_edge29_Node000015_Node000008"><a xlink:title=" ">
<path fill="none" stroke="#63b8ff" d="M849.34,-55.59C840.16,-47.85 826.93,-36.69 816,-27.47"/>
<polygon fill="#63b8ff" stroke="#63b8ff" points="818.56,-25.05 808.66,-21.27 814.05,-30.4 818.56,-25.05"/>
</a>
</g>
</g>
<!-- Node16&#45;&gt;Node2 -->
<g id="edge31_Node000016_Node000002" class="edge">
<title>Node16&#45;&gt;Node2</title>
<g id="a_edge31_Node000016_Node000002"><a xlink:title=" ">
<path fill="none" stroke="#63b8ff" d="M599.74,-55.59C595.43,-48.55 589.39,-38.67 584.1,-30"/>
<polygon fill="#63b8ff" stroke="#63b8ff" points="587.16,-28.3 578.96,-21.59 581.18,-31.95 587.16,-28.3"/>
</a>
</g>
</g>
<!-- Node16&#45;&gt;Node8 -->
<g id="edge32_Node000016_Node000008" class="edge">
<title>Node16&#45;&gt;Node8</title>
<g id="a_edge32_Node000016_Node000008"><a xlink:title=" ">
<path fill="none" stroke="#63b8ff" d="M630.06,-58.05C660.88,-49.34 714.25,-34.25 752.24,-23.51"/>
<polygon fill="#63b8ff" stroke="#63b8ff" points="752.88,-26.96 761.55,-20.88 750.98,-20.23 752.88,-26.96"/>
</a>
</g>
</g>
<!-- Node17&#45;&gt;Node2 -->
<g id="edge34_Node000017_Node000002" class="edge">
<title>Node17&#45;&gt;Node2</title>
<g id="a_edge34_Node000017_Node000002"><a xlink:title=" ">
<path fill="none" stroke="#63b8ff" d="M1227,-61.93C1213.75,-60.02 1196.13,-57.63 1180.48,-56 1071.87,-44.7 743.34,-22.38 619.98,-14.15"/>
<polygon fill="#63b8ff" stroke="#63b8ff" points="620.41,-10.67 610.2,-13.5 619.95,-17.65 620.41,-10.67"/>
</a>
</g>
</g>
<!-- Node17&#45;&gt;Node8 -->
<g id="edge35_Node000017_Node000008" class="edge">
<title>Node17&#45;&gt;Node8</title>
<g id="a_edge35_Node000017_Node000008"><a xlink:title=" ">
<path fill="none" stroke="#63b8ff" d="M1227.1,-59.07C1222.64,-57.92 1217.93,-56.82 1213.48,-56 1096.77,-34.38 959.62,-22.05 875.38,-15.94"/>
<polygon fill="#63b8ff" stroke="#63b8ff" points="875.84,-12.47 865.62,-15.25 875.34,-19.45 875.84,-12.47"/>
</a>
</g>
</g>
<!-- Node17&#45;&gt;Node9 -->
<g id="edge37_Node000017_Node000009" class="edge">
<title>Node17&#45;&gt;Node9</title>
<g id="a_edge37_Node000017_Node000009"><a xlink:title=" ">
<path fill="none" stroke="#63b8ff" d="M1238.95,-55.59C1232.2,-48.16 1222.6,-37.58 1214.44,-28.58"/>
<polygon fill="#63b8ff" stroke="#63b8ff" points="1217.25,-26.47 1207.94,-21.42 1212.07,-31.18 1217.25,-26.47"/>
</a>
</g>
</g>
<!-- Node18 -->
<g id="Node000018" class="node">
<title>Node18</title>
<g id="a_Node000018"><a xlink:title=" ">
<polygon fill="#e0e0e0" stroke="#999999" points="1066.48,-20 966.48,-20 966.48,0 1066.48,0 1066.48,-20"/>
<text xml:space="preserve" text-anchor="middle" x="1016.48" y="-6.5" font-family="Helvetica,sans-Serif" font-size="10.00">SDL3_ttf/SDL_ttf.h</text>
</a>
</g>
</g>
<!-- Node17&#45;&gt;Node18 -->
<g id="edge36_Node000017_Node000018" class="edge">
<title>Node17&#45;&gt;Node18</title>
<g id="a_edge36_Node000017_Node000018"><a xlink:title=" ">
<path fill="none" stroke="#63b8ff" d="M1227.02,-59.46C1222.56,-58.29 1217.87,-57.08 1213.48,-56 1165.48,-44.17 1110.63,-31.73 1071.02,-22.93"/>
<polygon fill="#63b8ff" stroke="#63b8ff" points="1072.01,-19.57 1061.49,-20.82 1070.5,-26.4 1072.01,-19.57"/>
</a>
</g>
</g>
<!-- Node19&#45;&gt;Node2 -->
<g id="edge39_Node000019_Node000002" class="edge">
<title>Node19&#45;&gt;Node2</title>
<g id="a_edge39_Node000019_Node000002"><a xlink:title=" ">
<path fill="none" stroke="#63b8ff" d="M653.41,-55.59C638.61,-47.44 616.92,-35.48 599.72,-26"/>
<polygon fill="#63b8ff" stroke="#63b8ff" points="601.46,-22.97 591.01,-21.21 598.08,-29.1 601.46,-22.97"/>
</a>
</g>
</g>
<!-- Node19&#45;&gt;Node8 -->
<g id="edge40_Node000019_Node000008" class="edge">
<title>Node19&#45;&gt;Node8</title>
<g id="a_edge40_Node000019_Node000008"><a xlink:title=" ">
<path fill="none" stroke="#63b8ff" d="M692.43,-55.59C712.19,-47.13 741.48,-34.58 763.95,-24.94"/>
<polygon fill="#63b8ff" stroke="#63b8ff" points="765.16,-28.23 772.97,-21.08 762.4,-21.8 765.16,-28.23"/>
</a>
</g>
</g>
<!-- Node20&#45;&gt;Node2 -->
<g id="edge42_Node000020_Node000002" class="edge">
<title>Node20&#45;&gt;Node2</title>
<g id="a_edge42_Node000020_Node000002"><a xlink:title=" ">
<path fill="none" stroke="#63b8ff" d="M710.57,-57.6C685.11,-49.01 642.63,-34.67 611.49,-24.16"/>
<polygon fill="#63b8ff" stroke="#63b8ff" points="612.61,-20.85 602.02,-20.97 610.37,-27.48 612.61,-20.85"/>
</a>
</g>
</g>
<!-- Node20&#45;&gt;Node8 -->
<g id="edge43_Node000020_Node000008" class="edge">
<title>Node20&#45;&gt;Node8</title>
<g id="a_edge43_Node000020_Node000008"><a xlink:title=" ">
<path fill="none" stroke="#63b8ff" d="M743.63,-55.59C752.81,-47.85 766.04,-36.69 776.97,-27.47"/>
<polygon fill="#63b8ff" stroke="#63b8ff" points="778.92,-30.4 784.31,-21.27 774.41,-25.05 778.92,-30.4"/>
</a>
</g>
</g>
<!-- Node21&#45;&gt;Node2 -->
<g id="edge45_Node000021_Node000002" class="edge">
<title>Node21&#45;&gt;Node2</title>
<g id="a_edge45_Node000021_Node000002"><a xlink:title=" ">
<path fill="none" stroke="#63b8ff" d="M179.21,-57.71C182.33,-57.09 185.47,-56.51 188.48,-56 309.13,-35.74 452.61,-21.52 525.28,-15.01"/>
<polygon fill="#63b8ff" stroke="#63b8ff" points="525.16,-18.53 534.81,-14.16 524.54,-11.56 525.16,-18.53"/>
</a>
</g>
</g>
<!-- Node22&#45;&gt;Node2 -->
<g id="edge47_Node000022_Node000002" class="edge">
<title>Node22&#45;&gt;Node2</title>
<g id="a_edge47_Node000022_Node000002"><a xlink:title=" ">
<path fill="none" stroke="#63b8ff" d="M1067.59,-58.09C1064.56,-57.29 1061.46,-56.56 1058.48,-56 975.13,-40.19 724.82,-21.58 619.74,-14.22"/>
<polygon fill="#63b8ff" stroke="#63b8ff" points="620.28,-10.75 610.06,-13.55 619.8,-17.74 620.28,-10.75"/>
</a>
</g>
</g>
<!-- Node22&#45;&gt;Node8 -->
<g id="edge48_Node000022_Node000008" class="edge">
<title>Node22&#45;&gt;Node8</title>
<g id="a_edge48_Node000022_Node000008"><a xlink:title=" ">
<path fill="none" stroke="#63b8ff" d="M1067.55,-58.3C1064.52,-57.47 1061.43,-56.68 1058.48,-56 997.52,-41.96 927.66,-30.17 875.42,-22.19"/>
<polygon fill="#63b8ff" stroke="#63b8ff" points="876.12,-18.75 865.71,-20.72 875.07,-25.68 876.12,-18.75"/>
</a>
</g>
</g>
<!-- Node22&#45;&gt;Node9 -->
<g id="edge49_Node000022_Node000009" class="edge">
<title>Node22&#45;&gt;Node9</title>
<g id="a_edge49_Node000022_Node000009"><a xlink:title=" ">
<path fill="none" stroke="#63b8ff" d="M1108.47,-55.59C1125.25,-47.28 1149.98,-35.03 1169.27,-25.47"/>
<polygon fill="#63b8ff" stroke="#63b8ff" points="1170.59,-28.73 1177.99,-21.15 1167.48,-22.45 1170.59,-28.73"/>
</a>
</g>
</g>
<!-- Node23&#45;&gt;Node2 -->
<g id="edge51_Node000023_Node000002" class="edge">
<title>Node23&#45;&gt;Node2</title>
<g id="a_edge51_Node000023_Node000002"><a xlink:title=" ">
<path fill="none" stroke="#63b8ff" d="M492.38,-55.59C507.03,-47.44 528.51,-35.48 545.53,-26"/>
<polygon fill="#63b8ff" stroke="#63b8ff" points="547.1,-29.14 554.13,-21.22 543.69,-23.02 547.1,-29.14"/>
</a>
</g>
</g>
<!-- Node23&#45;&gt;Node8 -->
<g id="edge52_Node000023_Node000008" class="edge">
<title>Node23&#45;&gt;Node8</title>
<g id="a_edge52_Node000023_Node000008"><a xlink:title=" ">
<path fill="none" stroke="#63b8ff" d="M497.41,-58.26C500.44,-57.43 503.53,-56.66 506.48,-56 577.25,-40.31 658.92,-28.16 717.53,-20.46"/>
<polygon fill="#63b8ff" stroke="#63b8ff" points="717.96,-23.93 727.43,-19.18 717.06,-16.99 717.96,-23.93"/>
</a>
</g>
</g>
<!-- Node24&#45;&gt;Node2 -->
<g id="edge54_Node000024_Node000002" class="edge">
<title>Node24&#45;&gt;Node2</title>
<g id="a_edge54_Node000024_Node000002"><a xlink:title=" ">
<path fill="none" stroke="#63b8ff" d="M983.07,-57.53C980.17,-56.97 977.28,-56.46 974.48,-56 847.17,-35.29 695.61,-21.13 620.13,-14.79"/>
<polygon fill="#63b8ff" stroke="#63b8ff" points="620.45,-11.3 610.19,-13.96 619.87,-18.28 620.45,-11.3"/>
</a>
</g>
</g>
<!-- Node24&#45;&gt;Node8 -->
<g id="edge55_Node000024_Node000008" class="edge">
<title>Node24&#45;&gt;Node8</title>
<g id="a_edge55_Node000024_Node000008"><a xlink:title=" ">
<path fill="none" stroke="#63b8ff" d="M983.07,-56.8C946.63,-47.85 887.91,-33.44 846.08,-23.17"/>
<polygon fill="#63b8ff" stroke="#63b8ff" points="847.05,-19.81 836.51,-20.82 845.38,-26.61 847.05,-19.81"/>
</a>
</g>
</g>
<!-- Node24&#45;&gt;Node18 -->
<g id="edge56_Node000024_Node000018" class="edge">
<title>Node24&#45;&gt;Node18</title>
<g id="a_edge56_Node000024_Node000018"><a xlink:title=" ">
<path fill="none" stroke="#63b8ff" d="M1016.48,-55.59C1016.48,-49.01 1016.48,-39.96 1016.48,-31.73"/>
<polygon fill="#63b8ff" stroke="#63b8ff" points="1019.98,-31.81 1016.48,-21.81 1012.98,-31.81 1019.98,-31.81"/>
</a>
</g>
</g>
<!-- Node25&#45;&gt;Node2 -->
<g id="edge58_Node000025_Node000002" class="edge">
<title>Node25&#45;&gt;Node2</title>
<g id="a_edge58_Node000025_Node000002"><a xlink:title=" ">
<path fill="none" stroke="#63b8ff" d="M1322.88,-60.62C1308.4,-59.03 1291.68,-57.3 1276.48,-56 1211.51,-50.45 767.37,-22.99 619.94,-13.91"/>
<polygon fill="#63b8ff" stroke="#63b8ff" points="620.33,-10.43 610.13,-13.31 619.9,-17.42 620.33,-10.43"/>
</a>
</g>
</g>
<!-- Node26 -->
<g id="Node000026" class="node">
<title>Node26</title>
<g id="a_Node000026"><a xlink:title=" ">
<polygon fill="#e0e0e0" stroke="#999999" points="1388.36,-20 1332.61,-20 1332.61,0 1388.36,0 1388.36,-20"/>
<text xml:space="preserve" text-anchor="middle" x="1360.48" y="-6.5" font-family="Helvetica,sans-Serif" font-size="10.00">stdbool.h</text>
</a>
</g>
</g>
<!-- Node25&#45;&gt;Node26 -->
<g id="edge59_Node000025_Node000026" class="edge">
<title>Node25&#45;&gt;Node26</title>
<g id="a_edge59_Node000025_Node000026"><a xlink:title=" ">
<path fill="none" stroke="#63b8ff" d="M1360.48,-55.59C1360.48,-49.01 1360.48,-39.96 1360.48,-31.73"/>
<polygon fill="#63b8ff" stroke="#63b8ff" points="1363.98,-31.81 1360.48,-21.81 1356.98,-31.81 1363.98,-31.81"/>
</a>
</g>
</g>
<!-- Node27&#45;&gt;Node2 -->
<g id="edge61_Node000027_Node000002" class="edge">
<title>Node27&#45;&gt;Node2</title>
<g id="a_edge61_Node000027_Node000002"><a xlink:title=" ">
<path fill="none" stroke="#63b8ff" d="M903.53,-57.77C900.48,-57.14 897.43,-56.54 894.48,-56 797.24,-38.3 682.38,-23.76 619.5,-16.34"/>
<polygon fill="#63b8ff" stroke="#63b8ff" points="620.22,-12.9 609.88,-15.21 619.4,-19.85 620.22,-12.9"/>
</a>
</g>
</g>
<!-- Node27&#45;&gt;Node8 -->
<g id="edge62_Node000027_Node000008" class="edge">
<title>Node27&#45;&gt;Node8</title>
<g id="a_edge62_Node000027_Node000008"><a xlink:title=" ">
<path fill="none" stroke="#63b8ff" d="M910.45,-55.59C888.52,-47.01 855.86,-34.23 831.11,-24.55"/>
<polygon fill="#63b8ff" stroke="#63b8ff" points="832.71,-21.42 822.12,-21.03 830.16,-27.93 832.71,-21.42"/>
</a>
</g>
</g>
<!-- Node27&#45;&gt;Node18 -->
<g id="edge63_Node000027_Node000018" class="edge">
<title>Node27&#45;&gt;Node18</title>
<g id="a_edge63_Node000027_Node000018"><a xlink:title=" ">
<path fill="none" stroke="#63b8ff" d="M948.77,-55.59C960.92,-47.59 978.62,-35.93 992.88,-26.54"/>
<polygon fill="#63b8ff" stroke="#63b8ff" points="994.4,-29.73 1000.83,-21.31 990.55,-23.89 994.4,-29.73"/>
</a>
</g>
</g>
<!-- Node28&#45;&gt;Node2 -->
<g id="edge65_Node000028_Node000002" class="edge">
<title>Node28&#45;&gt;Node2</title>
<g id="a_edge65_Node000028_Node000002"><a xlink:title=" ">
<path fill="none" stroke="#63b8ff" d="M274.24,-57.63C277.36,-57.07 280.48,-56.52 283.48,-56 368.47,-41.42 467.86,-26.38 525.16,-17.91"/>
<polygon fill="#63b8ff" stroke="#63b8ff" points="525.5,-21.4 534.88,-16.48 524.48,-14.47 525.5,-21.4"/>
</a>
</g>
</g>
<!-- Node29&#45;&gt;Node2 -->
<g id="edge67_Node000029_Node000002" class="edge">
<title>Node29&#45;&gt;Node2</title>
<g id="a_edge67_Node000029_Node000002"><a xlink:title=" ">
<path fill="none" stroke="#63b8ff" d="M59.47,-58.85C64.08,-57.77 68.92,-56.76 73.48,-56 237.94,-28.74 435.82,-17.07 524.91,-12.93"/>
<polygon fill="#63b8ff" stroke="#63b8ff" points="524.9,-16.44 534.73,-12.49 524.58,-9.44 524.9,-16.44"/>
</a>
</g>
</g>
</g>
</svg>
