<?xml version="1.0" encoding="UTF-8" standalone="no"?>
<!DOCTYPE svg PUBLIC "-//W3C//DTD SVG 1.1//EN"
 "http://www.w3.org/Graphics/SVG/1.1/DTD/svg11.dtd">
<!-- Generated by graphviz version 14.1.4 (20260321.0153)
 -->
<!-- Title: p3_build_wall_ring Pages: 1 -->
<svg width="325pt" height="28pt"
 viewBox="0.00 0.00 325.00 28.00" xmlns="http://www.w3.org/2000/svg" xmlns:xlink="http://www.w3.org/1999/xlink">
<g id="graph0" class="graph" transform="scale(1 1) rotate(0) translate(4 24)">
<title>p3_build_wall_ring</title>
<!-- Node1 -->
<g id="Node000001" class="node">
<title>Node1</title>
<g id="a_Node000001"><a xlink:title=" ">
<polygon fill="#999999" stroke="#666666" points="95.5,-20 0,-20 0,0 95.5,0 95.5,-20"/>
<text xml:space="preserve" text-anchor="middle" x="47.75" y="-6.5" font-family="Helvetica,sans-Serif" font-size="10.00">p3_build_wall_ring</text>
</a>
</g>
</g>
<!-- Node2 -->
<g id="Node000002" class="node">
<title>Node2</title>
<g id="a_Node000002"><a xlink:href="planete_8c.html#a8c37dd522d6e0ffa090fdab9bd983d00" target="_top" xlink:title=" ">
<polygon fill="white" stroke="#666666" points="194.75,-20 131.5,-20 131.5,0 194.75,0 194.75,-20"/>
<text xml:space="preserve" text-anchor="middle" x="163.12" y="-6.5" font-family="Helvetica,sans-Serif" font-size="10.00">p3_set_tile</text>
</a>
</g>
</g>
<!-- Node1&#45;&gt;Node2 -->
<g id="edge1_Node000001_Node000002" class="edge">
<title>Node1&#45;&gt;Node2</title>
<g id="a_edge1_Node000001_Node000002"><a xlink:title=" ">
<path fill="none" stroke="#63b8ff" d="M95.85,-10C103.76,-10 111.94,-10 119.73,-10"/>
<polygon fill="#63b8ff" stroke="#63b8ff" points="119.66,-13.5 129.66,-10 119.66,-6.5 119.66,-13.5"/>
</a>
</g>
</g>
<!-- Node3 -->
<g id="Node000003" class="node">
<title>Node3</title>
<g id="a_Node000003"><a xlink:href="planete_8c.html#a2b20ed1c4c5ba18a8bec6bf243e42393" target="_top" xlink:title=" ">
<polygon fill="white" stroke="#666666" points="317.25,-20 230.75,-20 230.75,0 317.25,0 317.25,-20"/>
<text xml:space="preserve" text-anchor="middle" x="274" y="-6.5" font-family="Helvetica,sans-Serif" font-size="10.00">p3_dans_limites</text>
</a>
</g>
</g>
<!-- Node2&#45;&gt;Node3 -->
<g id="edge2_Node000002_Node000003" class="edge">
<title>Node2&#45;&gt;Node3</title>
<g id="a_edge2_Node000002_Node000003"><a xlink:title=" ">
<path fill="none" stroke="#63b8ff" d="M195.03,-10C202.64,-10 211.01,-10 219.35,-10"/>
<polygon fill="#63b8ff" stroke="#63b8ff" points="219.12,-13.5 229.12,-10 219.12,-6.5 219.12,-13.5"/>
</a>
</g>
</g>
</g>
</svg>
