<?xml version="1.0" encoding="UTF-8" standalone="no"?>
<!DOCTYPE svg PUBLIC "-//W3C//DTD SVG 1.1//EN"
 "http://www.w3.org/Graphics/SVG/1.1/DTD/svg11.dtd">
<!-- Generated by graphviz version 14.1.4 (20260321.0153)
 -->
<!-- Title: generer_labyrinthe_planete3 Pages: 1 -->
<svg width="680pt" height="215pt"
 viewBox="0.00 0.00 680.00 215.00" xmlns="http://www.w3.org/2000/svg" xmlns:xlink="http://www.w3.org/1999/xlink">
<g id="graph0" class="graph" transform="scale(1 1) rotate(0) translate(4 211.09)">
<title>generer_labyrinthe_planete3</title>
<!-- Node1 -->
<g id="Node000001" class="node">
<title>Node1</title>
<g id="a_Node000001"><a xlink:title="Genere le labyrinthe procedural de la planete 3 et place l&#39;engrenage objectif.">
<polygon fill="#999999" stroke="#666666" points="95.5,-124 0,-124 0,-92 95.5,-92 95.5,-124"/>
<text xml:space="preserve" text-anchor="start" x="8" y="-110.5" font-family="Helvetica,sans-Serif" font-size="10.00">generer_labyrinthe</text>
<text xml:space="preserve" text-anchor="middle" x="47.75" y="-98.5" font-family="Helvetica,sans-Serif" font-size="10.00">_planete3</text>
</a>
</g>
</g>
<!-- Node2 -->
<g id="Node000002" class="node">
<title>Node2</title>
<g id="a_Node000002"><a xlink:href="planete_8c.html#a991604c564c4a18d508c8e5651478b23" target="_top" xlink:title=" ">
<polygon fill="white" stroke="#666666" points="385.5,-172 290,-172 290,-152 385.5,-152 385.5,-172"/>
<text xml:space="preserve" text-anchor="middle" x="337.75" y="-158.5" font-family="Helvetica,sans-Serif" font-size="10.00">p3_build_wall_ring</text>
</a>
</g>
</g>
<!-- Node1&#45;&gt;Node2 -->
<g id="edge1_Node000001_Node000002" class="edge">
<title>Node1&#45;&gt;Node2</title>
<g id="a_edge1_Node000001_Node000002"><a xlink:title=" ">
<path fill="none" stroke="#63b8ff" d="M70.61,-124.33C86.58,-135.25 109.24,-148.71 131.5,-155 179.64,-168.6 236.67,-169.39 278.38,-167.34"/>
<polygon fill="#63b8ff" stroke="#63b8ff" points="278.42,-170.84 288.21,-166.77 278.02,-163.85 278.42,-170.84"/>
</a>
</g>
</g>
<!-- Node3 -->
<g id="Node000003" class="node">
<title>Node3</title>
<g id="a_Node000003"><a xlink:href="planete_8c.html#a8c37dd522d6e0ffa090fdab9bd983d00" target="_top" xlink:title=" ">
<polygon fill="white" stroke="#666666" points="525.62,-134 462.38,-134 462.38,-114 525.62,-114 525.62,-134"/>
<text xml:space="preserve" text-anchor="middle" x="494" y="-120.5" font-family="Helvetica,sans-Serif" font-size="10.00">p3_set_tile</text>
</a>
</g>
</g>
<!-- Node1&#45;&gt;Node3 -->
<g id="edge15_Node000001_Node000003" class="edge">
<title>Node1&#45;&gt;Node3</title>
<g id="a_edge15_Node000001_Node000003"><a xlink:title=" ">
<path fill="none" stroke="#63b8ff" d="M62.63,-124.46C77.67,-140.94 103.32,-165.34 131.5,-176 244.28,-218.66 286.93,-214.51 402.75,-181 416.8,-176.94 447.83,-156.22 469.56,-140.92"/>
<polygon fill="#63b8ff" stroke="#63b8ff" points="471.44,-143.88 477.56,-135.24 467.38,-138.18 471.44,-143.88"/>
</a>
</g>
</g>
<!-- Node5 -->
<g id="Node000005" class="node">
<title>Node5</title>
<g id="a_Node000005"><a xlink:href="planete_8c.html#a96ef0aa842e5726f9da8593fa9a403d9" target="_top" xlink:title=" ">
<polygon fill="white" stroke="#666666" points="236.75,-146 131.5,-146 131.5,-114 236.75,-114 236.75,-146"/>
<text xml:space="preserve" text-anchor="start" x="139.5" y="-132.5" font-family="Helvetica,sans-Serif" font-size="10.00">p3_connect_isolated</text>
<text xml:space="preserve" text-anchor="middle" x="184.12" y="-120.5" font-family="Helvetica,sans-Serif" font-size="10.00">_regions</text>
</a>
</g>
</g>
<!-- Node1&#45;&gt;Node5 -->
<g id="edge4_Node000001_Node000005" class="edge">
<title>Node1&#45;&gt;Node5</title>
<g id="a_edge4_Node000001_Node000005"><a xlink:title=" ">
<path fill="none" stroke="#63b8ff" d="M95.75,-115.69C103.66,-116.99 111.98,-118.35 120.21,-119.7"/>
<polygon fill="#63b8ff" stroke="#63b8ff" points="119.41,-123.12 129.85,-121.28 120.54,-116.21 119.41,-123.12"/>
</a>
</g>
</g>
<!-- Node8 -->
<g id="Node000008" class="node">
<title>Node8</title>
<g id="a_Node000008"><a xlink:href="planete_8c.html#a3dd7bf6192e5f47152f22df2dcd93d5e" target="_top" xlink:title=" ">
<polygon fill="white" stroke="#666666" points="216.88,-96 151.38,-96 151.38,-76 216.88,-76 216.88,-96"/>
<text xml:space="preserve" text-anchor="middle" x="184.12" y="-82.5" font-family="Helvetica,sans-Serif" font-size="10.00">p3_fill_map</text>
</a>
</g>
</g>
<!-- Node1&#45;&gt;Node8 -->
<g id="edge9_Node000001_Node000008" class="edge">
<title>Node1&#45;&gt;Node8</title>
<g id="a_edge9_Node000001_Node000008"><a xlink:title=" ">
<path fill="none" stroke="#63b8ff" d="M95.75,-100.31C110.2,-97.94 126.03,-95.35 140.19,-93.03"/>
<polygon fill="#63b8ff" stroke="#63b8ff" points="140.34,-96.55 149.64,-91.48 139.21,-89.64 140.34,-96.55"/>
</a>
</g>
</g>
<!-- Node9 -->
<g id="Node000009" class="node">
<title>Node9</title>
<g id="a_Node000009"><a xlink:href="planete_8c.html#ac4473ac7be5b628972e38290ef52a7ce" target="_top" xlink:title=" ">
<polygon fill="white" stroke="#666666" points="402.75,-58 272.75,-58 272.75,-38 402.75,-38 402.75,-58"/>
<text xml:space="preserve" text-anchor="middle" x="337.75" y="-44.5" font-family="Helvetica,sans-Serif" font-size="10.00">p3_generer_labyrinthe_dfs</text>
</a>
</g>
</g>
<!-- Node1&#45;&gt;Node9 -->
<g id="edge11_Node000001_Node000009" class="edge">
<title>Node1&#45;&gt;Node9</title>
<g id="a_edge11_Node000001_Node000009"><a xlink:title=" ">
<path fill="none" stroke="#63b8ff" d="M75.32,-91.7C91.07,-82.85 111.76,-72.6 131.5,-67 173.33,-55.14 221.69,-50.26 260.96,-48.41"/>
<polygon fill="#63b8ff" stroke="#63b8ff" points="260.95,-51.91 270.8,-48 260.66,-44.91 260.95,-51.91"/>
</a>
</g>
</g>
<!-- Node10 -->
<g id="Node000010" class="node">
<title>Node10</title>
<g id="a_Node000010"><a xlink:href="planete_8c.html#a702036ba0db73b0b01556deb574d5788" target="_top" xlink:title=" ">
<polygon fill="white" stroke="#666666" points="224,-20 144.25,-20 144.25,0 224,0 224,-20"/>
<text xml:space="preserve" text-anchor="middle" x="184.12" y="-6.5" font-family="Helvetica,sans-Serif" font-size="10.00">p3_open_room</text>
</a>
</g>
</g>
<!-- Node1&#45;&gt;Node10 -->
<g id="edge13_Node000001_Node000010" class="edge">
<title>Node1&#45;&gt;Node10</title>
<g id="a_edge13_Node000001_Node000010"><a xlink:title=" ">
<path fill="none" stroke="#63b8ff" d="M64.07,-91.74C79.86,-75.63 105.75,-50.96 131.5,-34 136.28,-30.85 141.54,-27.9 146.81,-25.22"/>
<polygon fill="#63b8ff" stroke="#63b8ff" points="147.98,-28.54 155.49,-21.06 144.96,-22.22 147.98,-28.54"/>
</a>
</g>
</g>
<!-- Node2&#45;&gt;Node3 -->
<g id="edge2_Node000002_Node000003" class="edge">
<title>Node2&#45;&gt;Node3</title>
<g id="a_edge2_Node000002_Node000003"><a xlink:title=" ">
<path fill="none" stroke="#63b8ff" d="M381.31,-151.52C403.08,-146.15 429.48,-139.65 451.15,-134.31"/>
<polygon fill="#63b8ff" stroke="#63b8ff" points="451.98,-137.71 460.85,-131.92 450.3,-130.91 451.98,-137.71"/>
</a>
</g>
</g>
<!-- Node4 -->
<g id="Node000004" class="node">
<title>Node4</title>
<g id="a_Node000004"><a xlink:href="planete_8c.html#a2b20ed1c4c5ba18a8bec6bf243e42393" target="_top" xlink:title=" ">
<polygon fill="white" stroke="#666666" points="671.75,-153 585.25,-153 585.25,-133 671.75,-133 671.75,-153"/>
<text xml:space="preserve" text-anchor="middle" x="628.5" y="-139.5" font-family="Helvetica,sans-Serif" font-size="10.00">p3_dans_limites</text>
</a>
</g>
</g>
<!-- Node3&#45;&gt;Node4 -->
<g id="edge3_Node000003_Node000004" class="edge">
<title>Node3&#45;&gt;Node4</title>
<g id="a_edge3_Node000003_Node000004"><a xlink:title=" ">
<path fill="none" stroke="#63b8ff" d="M526.07,-128.45C540.3,-130.5 557.58,-132.97 573.82,-135.3"/>
<polygon fill="#63b8ff" stroke="#63b8ff" points="572.95,-138.71 583.35,-136.67 573.94,-131.78 572.95,-138.71"/>
</a>
</g>
</g>
<!-- Node6 -->
<g id="Node000006" class="node">
<title>Node6</title>
<g id="a_Node000006"><a xlink:href="planete_8c.html#aff3e59c99281abac9fcd5d9f212eb69f" target="_top" xlink:title=" ">
<polygon fill="white" stroke="#666666" points="375.75,-134 299.75,-134 299.75,-114 375.75,-114 375.75,-134"/>
<text xml:space="preserve" text-anchor="middle" x="337.75" y="-120.5" font-family="Helvetica,sans-Serif" font-size="10.00">p3_carve_line</text>
</a>
</g>
</g>
<!-- Node5&#45;&gt;Node6 -->
<g id="edge5_Node000005_Node000006" class="edge">
<title>Node5&#45;&gt;Node6</title>
<g id="a_edge5_Node000005_Node000006"><a xlink:title=" ">
<path fill="none" stroke="#63b8ff" d="M236.88,-127.95C253.45,-127.3 271.73,-126.57 288.07,-125.93"/>
<polygon fill="#63b8ff" stroke="#63b8ff" points="288.21,-129.42 298.06,-125.53 287.93,-122.43 288.21,-129.42"/>
</a>
</g>
</g>
<!-- Node7 -->
<g id="Node000007" class="node">
<title>Node7</title>
<g id="a_Node000007"><a xlink:href="planete_8c.html#a129cf07069dec538f2301ced259a2c40" target="_top" xlink:title=" ">
<polygon fill="white" stroke="#666666" points="549.25,-191 438.75,-191 438.75,-171 549.25,-171 549.25,-191"/>
<text xml:space="preserve" text-anchor="middle" x="494" y="-177.5" font-family="Helvetica,sans-Serif" font-size="10.00">p3_remplissage_zone</text>
</a>
</g>
</g>
<!-- Node5&#45;&gt;Node7 -->
<g id="edge7_Node000005_Node000007" class="edge">
<title>Node5&#45;&gt;Node7</title>
<g id="a_edge7_Node000005_Node000007"><a xlink:title=" ">
<path fill="none" stroke="#63b8ff" d="M206.01,-146.45C222.93,-158.66 247.94,-174.31 272.75,-181 323.35,-194.65 382.91,-193.69 427.32,-189.84"/>
<polygon fill="#63b8ff" stroke="#63b8ff" points="427.43,-193.35 437.05,-188.92 426.77,-186.38 427.43,-193.35"/>
</a>
</g>
</g>
<!-- Node6&#45;&gt;Node3 -->
<g id="edge6_Node000006_Node000003" class="edge">
<title>Node6&#45;&gt;Node3</title>
<g id="a_edge6_Node000006_Node000003"><a xlink:title=" ">
<path fill="none" stroke="#63b8ff" d="M376.09,-124C398.59,-124 427.31,-124 450.66,-124"/>
<polygon fill="#63b8ff" stroke="#63b8ff" points="450.46,-127.5 460.46,-124 450.46,-120.5 450.46,-127.5"/>
</a>
</g>
</g>
<!-- Node7&#45;&gt;Node4 -->
<g id="edge8_Node000007_Node000004" class="edge">
<title>Node7&#45;&gt;Node4</title>
<g id="a_edge8_Node000007_Node000004"><a xlink:title=" ">
<path fill="none" stroke="#63b8ff" d="M531.56,-170.52C546.62,-166.2 564.26,-161.14 580.28,-156.54"/>
<polygon fill="#63b8ff" stroke="#63b8ff" points="580.96,-159.99 589.61,-153.87 579.03,-153.26 580.96,-159.99"/>
</a>
</g>
</g>
<!-- Node8&#45;&gt;Node3 -->
<g id="edge10_Node000008_Node000003" class="edge">
<title>Node8&#45;&gt;Node3</title>
<g id="a_edge10_Node000008_Node000003"><a xlink:title=" ">
<path fill="none" stroke="#63b8ff" d="M217.35,-87.6C259.95,-89.99 337.29,-95.29 402.75,-105 418.65,-107.36 435.96,-110.79 451.13,-114.09"/>
<polygon fill="#63b8ff" stroke="#63b8ff" points="450.26,-117.48 460.78,-116.24 451.78,-110.65 450.26,-117.48"/>
</a>
</g>
</g>
<!-- Node9&#45;&gt;Node3 -->
<g id="edge12_Node000009_Node000003" class="edge">
<title>Node9&#45;&gt;Node3</title>
<g id="a_edge12_Node000009_Node000003"><a xlink:title=" ">
<path fill="none" stroke="#63b8ff" d="M369.77,-58.47C380.39,-62.36 392.23,-67.04 402.75,-72 425.17,-82.58 449.46,-96.74 467.19,-107.61"/>
<polygon fill="#63b8ff" stroke="#63b8ff" points="465.17,-110.48 475.52,-112.78 468.87,-104.53 465.17,-110.48"/>
</a>
</g>
</g>
<!-- Node10&#45;&gt;Node3 -->
<g id="edge14_Node000010_Node000003" class="edge">
<title>Node10&#45;&gt;Node3</title>
<g id="a_edge14_Node000010_Node000003"><a xlink:title=" ">
<path fill="none" stroke="#63b8ff" d="M224.24,-5.39C269.57,-1.8 345.35,-1.34 402.75,-29 437.25,-45.62 465.4,-81.46 480.64,-104.06"/>
<polygon fill="#63b8ff" stroke="#63b8ff" points="477.67,-105.92 486.05,-112.4 483.54,-102.11 477.67,-105.92"/>
</a>
</g>
</g>
</g>
</svg>
