<?xml version="1.0" encoding="UTF-8" standalone="no"?>
<!DOCTYPE svg PUBLIC "-//W3C//DTD SVG 1.1//EN"
 "http://www.w3.org/Graphics/SVG/1.1/DTD/svg11.dtd">
<!-- Generated by graphviz version 14.1.4 (20260321.0153)
 -->
<!-- Title: p3_connect_isolated_regions Pages: 1 -->
<svg width="494pt" height="66pt"
 viewBox="0.00 0.00 494.00 66.00" xmlns="http://www.w3.org/2000/svg" xmlns:xlink="http://www.w3.org/1999/xlink">
<g id="graph0" class="graph" transform="scale(1 1) rotate(0) translate(4 62)">
<title>p3_connect_isolated_regions</title>
<!-- Node1 -->
<g id="Node000001" class="node">
<title>Node1</title>
<g id="a_Node000001"><a xlink:title=" ">
<polygon fill="#999999" stroke="#666666" points="105.25,-45 0,-45 0,-13 105.25,-13 105.25,-45"/>
<text xml:space="preserve" text-anchor="start" x="8" y="-31.5" font-family="Helvetica,sans-Serif" font-size="10.00">p3_connect_isolated</text>
<text xml:space="preserve" text-anchor="middle" x="52.62" y="-19.5" font-family="Helvetica,sans-Serif" font-size="10.00">_regions</text>
</a>
</g>
</g>
<!-- Node2 -->
<g id="Node000002" class="node">
<title>Node2</title>
<g id="a_Node000002"><a xlink:href="planete_8c.html#aff3e59c99281abac9fcd5d9f212eb69f" target="_top" xlink:title=" ">
<polygon fill="white" stroke="#666666" points="217.25,-58 141.25,-58 141.25,-38 217.25,-38 217.25,-58"/>
<text xml:space="preserve" text-anchor="middle" x="179.25" y="-44.5" font-family="Helvetica,sans-Serif" font-size="10.00">p3_carve_line</text>
</a>
</g>
</g>
<!-- Node1&#45;&gt;Node2 -->
<g id="edge1_Node000001_Node000002" class="edge">
<title>Node1&#45;&gt;Node2</title>
<g id="a_edge1_Node000001_Node000002"><a xlink:title=" ">
<path fill="none" stroke="#63b8ff" d="M105.39,-36.89C113.39,-38.11 121.63,-39.37 129.56,-40.58"/>
<polygon fill="#63b8ff" stroke="#63b8ff" points="128.98,-44.03 139.39,-42.08 130.03,-37.11 128.98,-44.03"/>
</a>
</g>
</g>
<!-- Node5 -->
<g id="Node000005" class="node">
<title>Node5</title>
<g id="a_Node000005"><a xlink:href="planete_8c.html#a129cf07069dec538f2301ced259a2c40" target="_top" xlink:title=" ">
<polygon fill="white" stroke="#666666" points="363.75,-20 253.25,-20 253.25,0 363.75,0 363.75,-20"/>
<text xml:space="preserve" text-anchor="middle" x="308.5" y="-6.5" font-family="Helvetica,sans-Serif" font-size="10.00">p3_remplissage_zone</text>
</a>
</g>
</g>
<!-- Node1&#45;&gt;Node5 -->
<g id="edge4_Node000001_Node000005" class="edge">
<title>Node1&#45;&gt;Node5</title>
<g id="a_edge4_Node000001_Node000005"><a xlink:title=" ">
<path fill="none" stroke="#63b8ff" d="M105.61,-25.11C144.95,-22.17 199.24,-18.1 241.62,-14.93"/>
<polygon fill="#63b8ff" stroke="#63b8ff" points="241.73,-18.43 251.44,-14.2 241.21,-11.45 241.73,-18.43"/>
</a>
</g>
</g>
<!-- Node3 -->
<g id="Node000003" class="node">
<title>Node3</title>
<g id="a_Node000003"><a xlink:href="planete_8c.html#a8c37dd522d6e0ffa090fdab9bd983d00" target="_top" xlink:title=" ">
<polygon fill="white" stroke="#666666" points="340.12,-58 276.88,-58 276.88,-38 340.12,-38 340.12,-58"/>
<text xml:space="preserve" text-anchor="middle" x="308.5" y="-44.5" font-family="Helvetica,sans-Serif" font-size="10.00">p3_set_tile</text>
</a>
</g>
</g>
<!-- Node2&#45;&gt;Node3 -->
<g id="edge2_Node000002_Node000003" class="edge">
<title>Node2&#45;&gt;Node3</title>
<g id="a_edge2_Node000002_Node000003"><a xlink:title=" ">
<path fill="none" stroke="#63b8ff" d="M217.74,-48C232.7,-48 249.98,-48 265.37,-48"/>
<polygon fill="#63b8ff" stroke="#63b8ff" points="265.18,-51.5 275.18,-48 265.18,-44.5 265.18,-51.5"/>
</a>
</g>
</g>
<!-- Node4 -->
<g id="Node000004" class="node">
<title>Node4</title>
<g id="a_Node000004"><a xlink:href="planete_8c.html#a2b20ed1c4c5ba18a8bec6bf243e42393" target="_top" xlink:title=" ">
<polygon fill="white" stroke="#666666" points="486.25,-39 399.75,-39 399.75,-19 486.25,-19 486.25,-39"/>
<text xml:space="preserve" text-anchor="middle" x="443" y="-25.5" font-family="Helvetica,sans-Serif" font-size="10.00">p3_dans_limites</text>
</a>
</g>
</g>
<!-- Node3&#45;&gt;Node4 -->
<g id="edge3_Node000003_Node000004" class="edge">
<title>Node3&#45;&gt;Node4</title>
<g id="a_edge3_Node000003_Node000004"><a xlink:title=" ">
<path fill="none" stroke="#63b8ff" d="M340.57,-43.55C354.8,-41.5 372.08,-39.03 388.32,-36.7"/>
<polygon fill="#63b8ff" stroke="#63b8ff" points="388.44,-40.22 397.85,-35.33 387.45,-33.29 388.44,-40.22"/>
</a>
</g>
</g>
<!-- Node5&#45;&gt;Node4 -->
<g id="edge5_Node000005_Node000004" class="edge">
<title>Node5&#45;&gt;Node4</title>
<g id="a_edge5_Node000005_Node000004"><a xlink:title=" ">
<path fill="none" stroke="#63b8ff" d="M364.16,-17.84C372.11,-18.98 380.29,-20.15 388.22,-21.29"/>
<polygon fill="#63b8ff" stroke="#63b8ff" points="387.72,-24.75 398.11,-22.71 388.71,-17.82 387.72,-24.75"/>
</a>
</g>
</g>
</g>
</svg>
