<?xml version="1.0" encoding="UTF-8" standalone="no"?>
<!DOCTYPE svg PUBLIC "-//W3C//DTD SVG 1.1//EN"
 "http://www.w3.org/Graphics/SVG/1.1/DTD/svg11.dtd">
<!-- Generated by graphviz version 14.1.4 (20260321.0153)
 -->
<!-- Title: p3_open_room Pages: 1 -->
<svg width="310pt" height="28pt"
 viewBox="0.00 0.00 310.00 28.00" xmlns="http://www.w3.org/2000/svg" xmlns:xlink="http://www.w3.org/1999/xlink">
<g id="graph0" class="graph" transform="scale(1 1) rotate(0) translate(4 24)">
<title>p3_open_room</title>
<!-- Node1 -->
<g id="Node000001" class="node">
<title>Node1</title>
<g id="a_Node000001"><a xlink:title=" ">
<polygon fill="#999999" stroke="#666666" points="79.75,-20 0,-20 0,0 79.75,0 79.75,-20"/>
<text xml:space="preserve" text-anchor="middle" x="39.88" y="-6.5" font-family="Helvetica,sans-Serif" font-size="10.00">p3_open_room</text>
</a>
</g>
</g>
<!-- Node2 -->
<g id="Node000002" class="node">
<title>Node2</title>
<g id="a_Node000002"><a xlink:href="planete_8c.html#a8c37dd522d6e0ffa090fdab9bd983d00" target="_top" xlink:title=" ">
<polygon fill="white" stroke="#666666" points="179,-20 115.75,-20 115.75,0 179,0 179,-20"/>
<text xml:space="preserve" text-anchor="middle" x="147.38" y="-6.5" font-family="Helvetica,sans-Serif" font-size="10.00">p3_set_tile</text>
</a>
</g>
</g>
<!-- Node1&#45;&gt;Node2 -->
<g id="edge1_Node000001_Node000002" class="edge">
<title>Node1&#45;&gt;Node2</title>
<g id="a_edge1_Node000001_Node000002"><a xlink:title=" ">
<path fill="none" stroke="#63b8ff" d="M80.16,-10C87.95,-10 96.17,-10 104.06,-10"/>
<polygon fill="#63b8ff" stroke="#63b8ff" points="103.78,-13.5 113.78,-10 103.78,-6.5 103.78,-13.5"/>
</a>
</g>
</g>
<!-- Node3 -->
<g id="Node000003" class="node">
<title>Node3</title>
<g id="a_Node000003"><a xlink:href="planete_8c.html#a2b20ed1c4c5ba18a8bec6bf243e42393" target="_top" xlink:title=" ">
<polygon fill="white" stroke="#666666" points="301.5,-20 215,-20 215,0 301.5,0 301.5,-20"/>
<text xml:space="preserve" text-anchor="middle" x="258.25" y="-6.5" font-family="Helvetica,sans-Serif" font-size="10.00">p3_dans_limites</text>
</a>
</g>
</g>
<!-- Node2&#45;&gt;Node3 -->
<g id="edge2_Node000002_Node000003" class="edge">
<title>Node2&#45;&gt;Node3</title>
<g id="a_edge2_Node000002_Node000003"><a xlink:title=" ">
<path fill="none" stroke="#63b8ff" d="M179.28,-10C186.89,-10 195.26,-10 203.6,-10"/>
<polygon fill="#63b8ff" stroke="#63b8ff" points="203.37,-13.5 213.37,-10 203.37,-6.5 203.37,-13.5"/>
</a>
</g>
</g>
</g>
</svg>
