<?xml version="1.0" encoding="UTF-8" standalone="no"?>
<!DOCTYPE svg PUBLIC "-//W3C//DTD SVG 1.1//EN"
 "http://www.w3.org/Graphics/SVG/1.1/DTD/svg11.dtd">
<!-- Generated by graphviz version 14.1.4 (20260321.0153)
 -->
<!-- Title: p3_dans_limites Pages: 1 -->
<svg width="833pt" height="230pt"
 viewBox="0.00 0.00 833.00 230.00" xmlns="http://www.w3.org/2000/svg" xmlns:xlink="http://www.w3.org/1999/xlink">
<g id="graph0" class="graph" transform="scale(1 1) rotate(0) translate(4 226)">
<title>p3_dans_limites</title>
<!-- Node1 -->
<g id="Node000001" class="node">
<title>Node1</title>
<g id="a_Node000001"><a xlink:title=" ">
<polygon fill="#999999" stroke="#666666" points="825.25,-153 738.75,-153 738.75,-133 825.25,-133 825.25,-153"/>
<text xml:space="preserve" text-anchor="middle" x="782" y="-139.5" font-family="Helvetica,sans-Serif" font-size="10.00">p3_dans_limites</text>
</a>
</g>
</g>
<!-- Node2 -->
<g id="Node000002" class="node">
<title>Node2</title>
<g id="a_Node000002"><a xlink:href="planete_8c.html#a129cf07069dec538f2301ced259a2c40" target="_top" xlink:title=" ">
<polygon fill="white" stroke="#666666" points="702.75,-210 592.25,-210 592.25,-190 702.75,-190 702.75,-210"/>
<text xml:space="preserve" text-anchor="middle" x="647.5" y="-196.5" font-family="Helvetica,sans-Serif" font-size="10.00">p3_remplissage_zone</text>
</a>
</g>
</g>
<!-- Node1&#45;&gt;Node2 -->
<g id="edge1_Node000001_Node000002" class="edge">
<title>Node1&#45;&gt;Node2</title>
<g id="a_edge1_Node000001_Node000002"><a xlink:title=" ">
<path fill="none" stroke="#63b8ff" d="M746.26,-157.94C723.1,-167.91 693.24,-180.75 672.65,-189.61"/>
<polygon fill="#63b8ff" stroke="#63b8ff" points="747.5,-161.22 755.31,-154.05 744.74,-154.79 747.5,-161.22"/>
</a>
</g>
</g>
<!-- Node7 -->
<g id="Node000007" class="node">
<title>Node7</title>
<g id="a_Node000007"><a xlink:href="planete_8c.html#a8c37dd522d6e0ffa090fdab9bd983d00" target="_top" xlink:title=" ">
<polygon fill="white" stroke="#666666" points="679.12,-134 615.88,-134 615.88,-114 679.12,-114 679.12,-134"/>
<text xml:space="preserve" text-anchor="middle" x="647.5" y="-120.5" font-family="Helvetica,sans-Serif" font-size="10.00">p3_set_tile</text>
</a>
</g>
</g>
<!-- Node1&#45;&gt;Node7 -->
<g id="edge6_Node000001_Node000007" class="edge">
<title>Node1&#45;&gt;Node7</title>
<g id="a_edge6_Node000001_Node000007"><a xlink:title=" ">
<path fill="none" stroke="#63b8ff" d="M727.27,-135.3C710.95,-132.95 693.58,-130.46 679.31,-128.42"/>
<polygon fill="#63b8ff" stroke="#63b8ff" points="726.45,-138.71 736.85,-136.67 727.45,-131.78 726.45,-138.71"/>
</a>
</g>
</g>
<!-- Node3 -->
<g id="Node000003" class="node">
<title>Node3</title>
<g id="a_Node000003"><a xlink:href="planete_8c.html#a96ef0aa842e5726f9da8593fa9a403d9" target="_top" xlink:title=" ">
<polygon fill="white" stroke="#666666" points="428.12,-222 322.88,-222 322.88,-190 428.12,-190 428.12,-222"/>
<text xml:space="preserve" text-anchor="start" x="330.88" y="-208.5" font-family="Helvetica,sans-Serif" font-size="10.00">p3_connect_isolated</text>
<text xml:space="preserve" text-anchor="middle" x="375.5" y="-196.5" font-family="Helvetica,sans-Serif" font-size="10.00">_regions</text>
</a>
</g>
</g>
<!-- Node2&#45;&gt;Node3 -->
<g id="edge2_Node000002_Node000003" class="edge">
<title>Node2&#45;&gt;Node3</title>
<g id="a_edge2_Node000002_Node000003"><a xlink:title=" ">
<path fill="none" stroke="#63b8ff" d="M594.71,-212.82C582.19,-215.39 568.81,-217.69 556.25,-219 513.3,-223.47 464.43,-219.34 428.49,-214.59"/>
<polygon fill="#63b8ff" stroke="#63b8ff" points="595.38,-216.26 604.42,-210.74 593.91,-209.42 595.38,-216.26"/>
</a>
</g>
</g>
<!-- Node4 -->
<g id="Node000004" class="node">
<title>Node4</title>
<g id="a_Node000004"><a xlink:href="planete_8c.html#a590f905501246ac7649bbc45bc6677c5" target="_top" xlink:title="Genere le labyrinthe procedural de la planete 3 et place l&#39;engrenage objectif.">
<polygon fill="white" stroke="#666666" points="274.5,-121 179,-121 179,-89 274.5,-89 274.5,-121"/>
<text xml:space="preserve" text-anchor="start" x="187" y="-107.5" font-family="Helvetica,sans-Serif" font-size="10.00">generer_labyrinthe</text>
<text xml:space="preserve" text-anchor="middle" x="226.75" y="-95.5" font-family="Helvetica,sans-Serif" font-size="10.00">_planete3</text>
</a>
</g>
</g>
<!-- Node3&#45;&gt;Node4 -->
<g id="edge3_Node000003_Node000004" class="edge">
<title>Node3&#45;&gt;Node4</title>
<g id="a_edge3_Node000003_Node000004"><a xlink:title=" ">
<path fill="none" stroke="#63b8ff" d="M324.83,-184.37C319.89,-181.73 315.03,-178.93 310.5,-176 285.54,-159.87 260.07,-136.82 244.11,-121.4"/>
<polygon fill="#63b8ff" stroke="#63b8ff" points="323.17,-187.45 333.67,-188.86 326.33,-181.21 323.17,-187.45"/>
</a>
</g>
</g>
<!-- Node5 -->
<g id="Node000005" class="node">
<title>Node5</title>
<g id="a_Node000005"><a xlink:href="jeux_8c.html#a2d7491d04e8c2bdb52bb6ed7d75e4d78" target="_top" xlink:title="Execute la boucle principale de gameplay pour la planete courante.">
<polygon fill="white" stroke="#666666" points="143,-115 73,-115 73,-95 143,-95 143,-115"/>
<text xml:space="preserve" text-anchor="middle" x="108" y="-101.5" font-family="Helvetica,sans-Serif" font-size="10.00">jeu_principal</text>
</a>
</g>
</g>
<!-- Node4&#45;&gt;Node5 -->
<g id="edge4_Node000004_Node000005" class="edge">
<title>Node4&#45;&gt;Node5</title>
<g id="a_edge4_Node000004_Node000005"><a xlink:title=" ">
<path fill="none" stroke="#63b8ff" d="M167.16,-105C159.02,-105 150.89,-105 143.4,-105"/>
<polygon fill="#63b8ff" stroke="#63b8ff" points="167.09,-108.5 177.09,-105 167.09,-101.5 167.09,-108.5"/>
</a>
</g>
</g>
<!-- Node6 -->
<g id="Node000006" class="node">
<title>Node6</title>
<g id="a_Node000006"><a xlink:href="main_8c.html#a0ddf1224851353fc92bfbff6f499fa97" target="_top" xlink:title=" ">
<polygon fill="white" stroke="#666666" points="37,-115 0,-115 0,-95 37,-95 37,-115"/>
<text xml:space="preserve" text-anchor="middle" x="18.5" y="-101.5" font-family="Helvetica,sans-Serif" font-size="10.00">main</text>
</a>
</g>
</g>
<!-- Node5&#45;&gt;Node6 -->
<g id="edge5_Node000005_Node000006" class="edge">
<title>Node5&#45;&gt;Node6</title>
<g id="a_edge5_Node000005_Node000006"><a xlink:title=" ">
<path fill="none" stroke="#63b8ff" d="M61.18,-105C52.72,-105 44.36,-105 37.37,-105"/>
<polygon fill="#63b8ff" stroke="#63b8ff" points="61.16,-108.5 71.16,-105 61.16,-101.5 61.16,-108.5"/>
</a>
</g>
</g>
<!-- Node7&#45;&gt;Node4 -->
<g id="edge7_Node000007_Node000004" class="edge">
<title>Node7&#45;&gt;Node4</title>
<g id="a_edge7_Node000007_Node000004"><a xlink:title=" ">
<path fill="none" stroke="#63b8ff" d="M604.22,-133.6C539.96,-146.59 414.21,-165.67 310.5,-143 291.2,-138.78 271.01,-129.62 255.41,-121.35"/>
<polygon fill="#63b8ff" stroke="#63b8ff" points="604.92,-137.03 614,-131.57 603.5,-130.18 604.92,-137.03"/>
</a>
</g>
</g>
<!-- Node8 -->
<g id="Node000008" class="node">
<title>Node8</title>
<g id="a_Node000008"><a xlink:href="planete_8c.html#a991604c564c4a18d508c8e5651478b23" target="_top" xlink:title=" ">
<polygon fill="white" stroke="#666666" points="423.25,-134 327.75,-134 327.75,-114 423.25,-114 423.25,-134"/>
<text xml:space="preserve" text-anchor="middle" x="375.5" y="-120.5" font-family="Helvetica,sans-Serif" font-size="10.00">p3_build_wall_ring</text>
</a>
</g>
</g>
<!-- Node7&#45;&gt;Node8 -->
<g id="edge8_Node000007_Node000008" class="edge">
<title>Node7&#45;&gt;Node8</title>
<g id="a_edge8_Node000007_Node000008"><a xlink:title=" ">
<path fill="none" stroke="#63b8ff" d="M604.05,-124C554.93,-124 474.28,-124 423.36,-124"/>
<polygon fill="#63b8ff" stroke="#63b8ff" points="604.01,-127.5 614.01,-124 604.01,-120.5 604.01,-127.5"/>
</a>
</g>
</g>
<!-- Node9 -->
<g id="Node000009" class="node">
<title>Node9</title>
<g id="a_Node000009"><a xlink:href="planete_8c.html#aff3e59c99281abac9fcd5d9f212eb69f" target="_top" xlink:title=" ">
<polygon fill="white" stroke="#666666" points="554.38,-210 478.38,-210 478.38,-190 554.38,-190 554.38,-210"/>
<text xml:space="preserve" text-anchor="middle" x="516.38" y="-196.5" font-family="Helvetica,sans-Serif" font-size="10.00">p3_carve_line</text>
</a>
</g>
</g>
<!-- Node7&#45;&gt;Node9 -->
<g id="edge10_Node000007_Node000009" class="edge">
<title>Node7&#45;&gt;Node9</title>
<g id="a_edge10_Node000007_Node000009"><a xlink:title=" ">
<path fill="none" stroke="#63b8ff" d="M619.03,-140.17C593.57,-155.15 556.48,-176.99 534.84,-189.72"/>
<polygon fill="#63b8ff" stroke="#63b8ff" points="620.67,-143.26 627.51,-135.18 617.12,-137.23 620.67,-143.26"/>
</a>
</g>
</g>
<!-- Node10 -->
<g id="Node000010" class="node">
<title>Node10</title>
<g id="a_Node000010"><a xlink:href="planete_8c.html#a3dd7bf6192e5f47152f22df2dcd93d5e" target="_top" xlink:title=" ">
<polygon fill="white" stroke="#666666" points="549.12,-96 483.62,-96 483.62,-76 549.12,-76 549.12,-96"/>
<text xml:space="preserve" text-anchor="middle" x="516.38" y="-82.5" font-family="Helvetica,sans-Serif" font-size="10.00">p3_fill_map</text>
</a>
</g>
</g>
<!-- Node7&#45;&gt;Node10 -->
<g id="edge12_Node000007_Node000010" class="edge">
<title>Node7&#45;&gt;Node10</title>
<g id="a_edge12_Node000007_Node000010"><a xlink:title=" ">
<path fill="none" stroke="#63b8ff" d="M604.54,-111.65C586.62,-106.38 566.06,-100.33 549.4,-95.42"/>
<polygon fill="#63b8ff" stroke="#63b8ff" points="603.54,-115.01 614.12,-114.47 605.51,-108.29 603.54,-115.01"/>
</a>
</g>
</g>
<!-- Node11 -->
<g id="Node000011" class="node">
<title>Node11</title>
<g id="a_Node000011"><a xlink:href="planete_8c.html#ac4473ac7be5b628972e38290ef52a7ce" target="_top" xlink:title=" ">
<polygon fill="white" stroke="#666666" points="440.5,-58 310.5,-58 310.5,-38 440.5,-38 440.5,-58"/>
<text xml:space="preserve" text-anchor="middle" x="375.5" y="-44.5" font-family="Helvetica,sans-Serif" font-size="10.00">p3_generer_labyrinthe_dfs</text>
</a>
</g>
</g>
<!-- Node7&#45;&gt;Node11 -->
<g id="edge14_Node000007_Node000011" class="edge">
<title>Node7&#45;&gt;Node11</title>
<g id="a_edge14_Node000007_Node000011"><a xlink:title=" ">
<path fill="none" stroke="#63b8ff" d="M625.58,-106.84C608.15,-93.56 582.1,-75.98 556.25,-67 519.34,-54.18 475.82,-49.34 440.85,-47.74"/>
<polygon fill="#63b8ff" stroke="#63b8ff" points="623.09,-109.34 633.12,-112.75 627.41,-103.83 623.09,-109.34"/>
</a>
</g>
</g>
<!-- Node12 -->
<g id="Node000012" class="node">
<title>Node12</title>
<g id="a_Node000012"><a xlink:href="planete_8c.html#a702036ba0db73b0b01556deb574d5788" target="_top" xlink:title=" ">
<polygon fill="white" stroke="#666666" points="556.25,-20 476.5,-20 476.5,0 556.25,0 556.25,-20"/>
<text xml:space="preserve" text-anchor="middle" x="516.38" y="-6.5" font-family="Helvetica,sans-Serif" font-size="10.00">p3_open_room</text>
</a>
</g>
</g>
<!-- Node7&#45;&gt;Node12 -->
<g id="edge16_Node000007_Node000012" class="edge">
<title>Node7&#45;&gt;Node12</title>
<g id="a_edge16_Node000007_Node000012"><a xlink:title=" ">
<path fill="none" stroke="#63b8ff" d="M630.17,-105.34C612.89,-86.2 584.3,-56.16 556.25,-34 550.03,-29.08 542.73,-24.35 536.15,-20.4"/>
<polygon fill="#63b8ff" stroke="#63b8ff" points="627.42,-107.51 636.68,-112.65 632.64,-102.86 627.42,-107.51"/>
</a>
</g>
</g>
<!-- Node8&#45;&gt;Node4 -->
<g id="edge9_Node000008_Node000004" class="edge">
<title>Node8&#45;&gt;Node4</title>
<g id="a_edge9_Node000008_Node000004"><a xlink:title=" ">
<path fill="none" stroke="#63b8ff" d="M316.01,-116.43C302.36,-114.66 287.99,-112.8 274.9,-111.1"/>
<polygon fill="#63b8ff" stroke="#63b8ff" points="315.39,-119.88 325.76,-117.69 316.29,-112.93 315.39,-119.88"/>
</a>
</g>
</g>
<!-- Node9&#45;&gt;Node3 -->
<g id="edge11_Node000009_Node000003" class="edge">
<title>Node9&#45;&gt;Node3</title>
<g id="a_edge11_Node000009_Node000003"><a xlink:title=" ">
<path fill="none" stroke="#63b8ff" d="M467.04,-202.09C454.56,-202.63 441.09,-203.21 428.44,-203.76"/>
<polygon fill="#63b8ff" stroke="#63b8ff" points="466.81,-205.6 476.65,-201.67 466.51,-198.61 466.81,-205.6"/>
</a>
</g>
</g>
<!-- Node10&#45;&gt;Node4 -->
<g id="edge13_Node000010_Node000004" class="edge">
<title>Node10&#45;&gt;Node4</title>
<g id="a_edge13_Node000010_Node000004"><a xlink:title=" ">
<path fill="none" stroke="#63b8ff" d="M471.84,-88.88C418.8,-92.38 329.53,-98.28 274.9,-101.89"/>
<polygon fill="#63b8ff" stroke="#63b8ff" points="471.96,-92.38 481.71,-88.22 471.5,-85.39 471.96,-92.38"/>
</a>
</g>
</g>
<!-- Node11&#45;&gt;Node4 -->
<g id="edge15_Node000011_Node000004" class="edge">
<title>Node11&#45;&gt;Node4</title>
<g id="a_edge15_Node000011_Node000004"><a xlink:title=" ">
<path fill="none" stroke="#63b8ff" d="M335.77,-62.38C327.42,-65.52 318.66,-68.84 310.5,-72 296.8,-77.3 281.87,-83.21 268.51,-88.55"/>
<polygon fill="#63b8ff" stroke="#63b8ff" points="336.86,-65.71 345,-58.92 334.4,-59.15 336.86,-65.71"/>
</a>
</g>
</g>
<!-- Node12&#45;&gt;Node4 -->
<g id="edge17_Node000012_Node000004" class="edge">
<title>Node12&#45;&gt;Node4</title>
<g id="a_edge17_Node000012_Node000004"><a xlink:title=" ">
<path fill="none" stroke="#63b8ff" d="M464.86,-5.92C421.96,-4.45 359.7,-7.17 310.5,-29 280.73,-42.21 254.58,-70.53 240,-88.62"/>
<polygon fill="#63b8ff" stroke="#63b8ff" points="464.49,-9.4 474.64,-6.34 464.8,-2.41 464.49,-9.4"/>
</a>
</g>
</g>
</g>
</svg>
