<?xml version="1.0" encoding="UTF-8" standalone="no"?>
<!DOCTYPE svg PUBLIC "-//W3C//DTD SVG 1.1//EN"
 "http://www.w3.org/Graphics/SVG/1.1/DTD/svg11.dtd">
<!-- Generated by graphviz version 14.1.4 (20260321.0153)
 -->
<!-- Title: src/headers/planete.h Pages: 1 -->
<svg width="158pt" height="84pt"
 viewBox="0.00 0.00 158.00 84.00" xmlns="http://www.w3.org/2000/svg" xmlns:xlink="http://www.w3.org/1999/xlink">
<g id="graph0" class="graph" transform="scale(1 1) rotate(0) translate(4 80)">
<title>src/headers/planete.h</title>
<!-- Node1 -->
<g id="Node000001" class="node">
<title>Node1</title>
<g id="a_Node000001"><a xlink:title="Fichier des ecrans de planetes et transitions d&#39;environnement.">
<polygon fill="#999999" stroke="#666666" points="126.25,-76 16.5,-76 16.5,-56 126.25,-56 126.25,-76"/>
<text xml:space="preserve" text-anchor="middle" x="71.38" y="-62.5" font-family="Helvetica,sans-Serif" font-size="10.00">src/headers/planete.h</text>
</a>
</g>
</g>
<!-- Node2 -->
<g id="Node000002" class="node">
<title>Node2</title>
<g id="a_Node000002"><a xlink:href="jeux_8c.html" target="_top" xlink:title="Boucle principale et orchestration des etats de jeu.">
<polygon fill="white" stroke="#666666" points="58.75,-20 0,-20 0,0 58.75,0 58.75,-20"/>
<text xml:space="preserve" text-anchor="middle" x="29.38" y="-6.5" font-family="Helvetica,sans-Serif" font-size="10.00">src/jeux.c</text>
</a>
</g>
</g>
<!-- Node1&#45;&gt;Node2 -->
<g id="edge1_Node000001_Node000002" class="edge">
<title>Node1&#45;&gt;Node2</title>
<g id="a_edge1_Node000001_Node000002"><a xlink:title=" ">
<path fill="none" stroke="#63b8ff" d="M57.16,-46.72C50.25,-37.84 42.24,-27.55 36.61,-20.3"/>
<polygon fill="#63b8ff" stroke="#63b8ff" points="54.23,-48.65 63.13,-54.4 59.75,-44.36 54.23,-48.65"/>
</a>
</g>
</g>
<!-- Node3 -->
<g id="Node000003" class="node">
<title>Node3</title>
<g id="a_Node000003"><a xlink:href="planete_8c.html" target="_top" xlink:title="Gestion des planetes et des transitions d&#39;exploration.">
<polygon fill="white" stroke="#666666" points="149.5,-20 77.25,-20 77.25,0 149.5,0 149.5,-20"/>
<text xml:space="preserve" text-anchor="middle" x="113.38" y="-6.5" font-family="Helvetica,sans-Serif" font-size="10.00">src/planete.c</text>
</a>
</g>
</g>
<!-- Node1&#45;&gt;Node3 -->
<g id="edge2_Node000001_Node000003" class="edge">
<title>Node1&#45;&gt;Node3</title>
<g id="a_edge2_Node000001_Node000003"><a xlink:title=" ">
<path fill="none" stroke="#63b8ff" d="M85.59,-46.72C92.5,-37.84 100.51,-27.55 106.14,-20.3"/>
<polygon fill="#63b8ff" stroke="#63b8ff" points="83,-44.36 79.62,-54.4 88.52,-48.65 83,-44.36"/>
</a>
</g>
</g>
</g>
</svg>
