<?xml version="1.0" encoding="UTF-8" standalone="no"?>
<!DOCTYPE svg PUBLIC "-//W3C//DTD SVG 1.1//EN"
 "http://www.w3.org/Graphics/SVG/1.1/DTD/svg11.dtd">
<!-- Generated by graphviz version 14.1.4 (20260321.0153)
 -->
<!-- Title: p3_carve_line Pages: 1 -->
<svg width="536pt" height="40pt"
 viewBox="0.00 0.00 536.00 40.00" xmlns="http://www.w3.org/2000/svg" xmlns:xlink="http://www.w3.org/1999/xlink">
<g id="graph0" class="graph" transform="scale(1 1) rotate(0) translate(4 36)">
<title>p3_carve_line</title>
<!-- Node1 -->
<g id="Node000001" class="node">
<title>Node1</title>
<g id="a_Node000001"><a xlink:title=" ">
<polygon fill="#999999" stroke="#666666" points="527.75,-26 451.75,-26 451.75,-6 527.75,-6 527.75,-26"/>
<text xml:space="preserve" text-anchor="middle" x="489.75" y="-12.5" font-family="Helvetica,sans-Serif" font-size="10.00">p3_carve_line</text>
</a>
</g>
</g>
<!-- Node2 -->
<g id="Node000002" class="node">
<title>Node2</title>
<g id="a_Node000002"><a xlink:href="planete_8c.html#a96ef0aa842e5726f9da8593fa9a403d9" target="_top" xlink:title=" ">
<polygon fill="white" stroke="#666666" points="415.75,-32 310.5,-32 310.5,0 415.75,0 415.75,-32"/>
<text xml:space="preserve" text-anchor="start" x="318.5" y="-18.5" font-family="Helvetica,sans-Serif" font-size="10.00">p3_connect_isolated</text>
<text xml:space="preserve" text-anchor="middle" x="363.12" y="-6.5" font-family="Helvetica,sans-Serif" font-size="10.00">_regions</text>
</a>
</g>
</g>
<!-- Node1&#45;&gt;Node2 -->
<g id="edge1_Node000001_Node000002" class="edge">
<title>Node1&#45;&gt;Node2</title>
<g id="a_edge1_Node000001_Node000002"><a xlink:title=" ">
<path fill="none" stroke="#63b8ff" d="M439.87,-16C432.12,-16 424.06,-16 416.24,-16"/>
<polygon fill="#63b8ff" stroke="#63b8ff" points="439.84,-19.5 449.84,-16 439.84,-12.5 439.84,-19.5"/>
</a>
</g>
</g>
<!-- Node3 -->
<g id="Node000003" class="node">
<title>Node3</title>
<g id="a_Node000003"><a xlink:href="planete_8c.html#a590f905501246ac7649bbc45bc6677c5" target="_top" xlink:title="Genere le labyrinthe procedural de la planete 3 et place l&#39;engrenage objectif.">
<polygon fill="white" stroke="#666666" points="274.5,-32 179,-32 179,0 274.5,0 274.5,-32"/>
<text xml:space="preserve" text-anchor="start" x="187" y="-18.5" font-family="Helvetica,sans-Serif" font-size="10.00">generer_labyrinthe</text>
<text xml:space="preserve" text-anchor="middle" x="226.75" y="-6.5" font-family="Helvetica,sans-Serif" font-size="10.00">_planete3</text>
</a>
</g>
</g>
<!-- Node2&#45;&gt;Node3 -->
<g id="edge2_Node000002_Node000003" class="edge">
<title>Node2&#45;&gt;Node3</title>
<g id="a_edge2_Node000002_Node000003"><a xlink:title=" ">
<path fill="none" stroke="#63b8ff" d="M298.81,-16C290.7,-16 282.52,-16 274.73,-16"/>
<polygon fill="#63b8ff" stroke="#63b8ff" points="298.66,-19.5 308.66,-16 298.66,-12.5 298.66,-19.5"/>
</a>
</g>
</g>
<!-- Node4 -->
<g id="Node000004" class="node">
<title>Node4</title>
<g id="a_Node000004"><a xlink:href="jeux_8c.html#a2d7491d04e8c2bdb52bb6ed7d75e4d78" target="_top" xlink:title="Execute la boucle principale de gameplay pour la planete courante.">
<polygon fill="white" stroke="#666666" points="143,-26 73,-26 73,-6 143,-6 143,-26"/>
<text xml:space="preserve" text-anchor="middle" x="108" y="-12.5" font-family="Helvetica,sans-Serif" font-size="10.00">jeu_principal</text>
</a>
</g>
</g>
<!-- Node3&#45;&gt;Node4 -->
<g id="edge3_Node000003_Node000004" class="edge">
<title>Node3&#45;&gt;Node4</title>
<g id="a_edge3_Node000003_Node000004"><a xlink:title=" ">
<path fill="none" stroke="#63b8ff" d="M167.16,-16C159.02,-16 150.89,-16 143.4,-16"/>
<polygon fill="#63b8ff" stroke="#63b8ff" points="167.09,-19.5 177.09,-16 167.09,-12.5 167.09,-19.5"/>
</a>
</g>
</g>
<!-- Node5 -->
<g id="Node000005" class="node">
<title>Node5</title>
<g id="a_Node000005"><a xlink:href="main_8c.html#a0ddf1224851353fc92bfbff6f499fa97" target="_top" xlink:title=" ">
<polygon fill="white" stroke="#666666" points="37,-26 0,-26 0,-6 37,-6 37,-26"/>
<text xml:space="preserve" text-anchor="middle" x="18.5" y="-12.5" font-family="Helvetica,sans-Serif" font-size="10.00">main</text>
</a>
</g>
</g>
<!-- Node4&#45;&gt;Node5 -->
<g id="edge4_Node000004_Node000005" class="edge">
<title>Node4&#45;&gt;Node5</title>
<g id="a_edge4_Node000004_Node000005"><a xlink:title=" ">
<path fill="none" stroke="#63b8ff" d="M61.18,-16C52.72,-16 44.36,-16 37.37,-16"/>
<polygon fill="#63b8ff" stroke="#63b8ff" points="61.16,-19.5 71.16,-16 61.16,-12.5 61.16,-19.5"/>
</a>
</g>
</g>
</g>
</svg>
