<?xml version="1.0" encoding="UTF-8" standalone="no"?>
<!DOCTYPE svg PUBLIC "-//W3C//DTD SVG 1.1//EN"
 "http://www.w3.org/Graphics/SVG/1.1/DTD/svg11.dtd">
<!-- Generated by graphviz version 14.1.4 (20260321.0153)
 -->
<!-- Title: chemin_slot Pages: 1 -->
<svg width="683pt" height="104pt"
 viewBox="0.00 0.00 683.00 104.00" xmlns="http://www.w3.org/2000/svg" xmlns:xlink="http://www.w3.org/1999/xlink">
<g id="graph0" class="graph" transform="scale(1 1) rotate(0) translate(4 100)">
<title>chemin_slot</title>
<!-- Node1 -->
<g id="Node000001" class="node">
<title>Node1</title>
<g id="a_Node000001"><a xlink:title=" ">
<polygon fill="#999999" stroke="#666666" points="675,-58 606.5,-58 606.5,-38 675,-38 675,-58"/>
<text xml:space="preserve" text-anchor="middle" x="640.75" y="-44.5" font-family="Helvetica,sans-Serif" font-size="10.00">chemin_slot</text>
</a>
</g>
</g>
<!-- Node2 -->
<g id="Node000002" class="node">
<title>Node2</title>
<g id="a_Node000002"><a xlink:href="sauvegarde_8c.html#aadcfca2e129355799bc39cbf1ca30390" target="_top" xlink:title="Charge les donnees brutes d&#39;un slot et les place en attente d&#39;application.">
<polygon fill="white" stroke="#666666" points="403.75,-96 305.25,-96 305.25,-76 403.75,-76 403.75,-96"/>
<text xml:space="preserve" text-anchor="middle" x="354.5" y="-82.5" font-family="Helvetica,sans-Serif" font-size="10.00">charger_partie_slot</text>
</a>
</g>
</g>
<!-- Node1&#45;&gt;Node2 -->
<g id="edge1_Node000001_Node000002" class="edge">
<title>Node1&#45;&gt;Node2</title>
<g id="a_edge1_Node000001_Node000002"><a xlink:title=" ">
<path fill="none" stroke="#63b8ff" d="M595.57,-61.39C587.3,-63.53 578.68,-65.53 570.5,-67 513.89,-77.18 447.87,-81.98 404.07,-84.2"/>
<polygon fill="#63b8ff" stroke="#63b8ff" points="596.37,-64.8 605.11,-58.8 594.54,-58.04 596.37,-64.8"/>
</a>
</g>
</g>
<!-- Node5 -->
<g id="Node000005" class="node">
<title>Node5</title>
<g id="a_Node000005"><a xlink:href="sauvegarde_8c.html#a590205a1d58df634530e608349c8dc6f" target="_top" xlink:title="Verifie si un fichier de sauvegarde existe pour un slot donne.">
<polygon fill="white" stroke="#666666" points="570.12,-58 451.38,-58 451.38,-38 570.12,-38 570.12,-58"/>
<text xml:space="preserve" text-anchor="middle" x="510.75" y="-44.5" font-family="Helvetica,sans-Serif" font-size="10.00">sauvegarde_slot_existe</text>
</a>
</g>
</g>
<!-- Node1&#45;&gt;Node5 -->
<g id="edge4_Node000001_Node000005" class="edge">
<title>Node1&#45;&gt;Node5</title>
<g id="a_edge4_Node000001_Node000005"><a xlink:title=" ">
<path fill="none" stroke="#63b8ff" d="M594.62,-48C586.78,-48 578.53,-48 570.4,-48"/>
<polygon fill="#63b8ff" stroke="#63b8ff" points="594.61,-51.5 604.61,-48 594.61,-44.5 594.61,-51.5"/>
</a>
</g>
</g>
<!-- Node9 -->
<g id="Node000009" class="node">
<title>Node9</title>
<g id="a_Node000009"><a xlink:href="sauvegarde_8c.html#af41024137aa5cec5baf4cef86ae63bd8" target="_top" xlink:title="Serialize l&#39;etat de partie courant dans le slot cible.">
<polygon fill="white" stroke="#666666" points="570.5,-20 451,-20 451,0 570.5,0 570.5,-20"/>
<text xml:space="preserve" text-anchor="middle" x="510.75" y="-6.5" font-family="Helvetica,sans-Serif" font-size="10.00">sauvegarder_partie_slot</text>
</a>
</g>
</g>
<!-- Node1&#45;&gt;Node9 -->
<g id="edge10_Node000001_Node000009" class="edge">
<title>Node1&#45;&gt;Node9</title>
<g id="a_edge10_Node000001_Node000009"><a xlink:title=" ">
<path fill="none" stroke="#63b8ff" d="M595.47,-34.86C579.6,-30.14 561.94,-24.9 546.94,-20.45"/>
<polygon fill="#63b8ff" stroke="#63b8ff" points="594.09,-38.09 604.67,-37.59 596.08,-31.38 594.09,-38.09"/>
</a>
</g>
</g>
<!-- Node3 -->
<g id="Node000003" class="node">
<title>Node3</title>
<g id="a_Node000003"><a xlink:href="menu_8c.html#a55097e0b77b0fabc6cae44137b9a839a" target="_top" xlink:title="Affiche menu et met a jour les elements visuels associes.">
<polygon fill="white" stroke="#666666" points="256.88,-77 180.12,-77 180.12,-57 256.88,-57 256.88,-77"/>
<text xml:space="preserve" text-anchor="middle" x="218.5" y="-63.5" font-family="Helvetica,sans-Serif" font-size="10.00">afficher_menu</text>
</a>
</g>
</g>
<!-- Node2&#45;&gt;Node3 -->
<g id="edge2_Node000002_Node000003" class="edge">
<title>Node2&#45;&gt;Node3</title>
<g id="a_edge2_Node000002_Node000003"><a xlink:title=" ">
<path fill="none" stroke="#63b8ff" d="M293.86,-77.54C281.43,-75.78 268.67,-73.97 257.29,-72.36"/>
<polygon fill="#63b8ff" stroke="#63b8ff" points="293.23,-80.99 303.62,-78.93 294.21,-74.06 293.23,-80.99"/>
</a>
</g>
</g>
<!-- Node4 -->
<g id="Node000004" class="node">
<title>Node4</title>
<g id="a_Node000004"><a xlink:href="main_8c.html#a0ddf1224851353fc92bfbff6f499fa97" target="_top" xlink:title=" ">
<polygon fill="white" stroke="#666666" points="37,-58 0,-58 0,-38 37,-38 37,-58"/>
<text xml:space="preserve" text-anchor="middle" x="18.5" y="-44.5" font-family="Helvetica,sans-Serif" font-size="10.00">main</text>
</a>
</g>
</g>
<!-- Node3&#45;&gt;Node4 -->
<g id="edge3_Node000003_Node000004" class="edge">
<title>Node3&#45;&gt;Node4</title>
<g id="a_edge3_Node000003_Node000004"><a xlink:title=" ">
<path fill="none" stroke="#63b8ff" d="M168.56,-62.3C126.04,-58.22 66.82,-52.54 37.47,-49.72"/>
<polygon fill="#63b8ff" stroke="#63b8ff" points="168,-65.77 178.29,-63.24 168.67,-58.8 168,-65.77"/>
</a>
</g>
</g>
<!-- Node6 -->
<g id="Node000006" class="node">
<title>Node6</title>
<g id="a_Node000006"><a xlink:href="sauvegarde_8c.html#ae251037c85a5a7d8172c206539398f49" target="_top" xlink:title="Affiche l&#39;interface de selection de slot (chargement ou sauvegarde).">
<polygon fill="white" stroke="#666666" points="415,-58 294,-58 294,-38 415,-38 415,-58"/>
<text xml:space="preserve" text-anchor="middle" x="354.5" y="-44.5" font-family="Helvetica,sans-Serif" font-size="10.00">sauvegarde_choisir_slot</text>
</a>
</g>
</g>
<!-- Node5&#45;&gt;Node6 -->
<g id="edge5_Node000005_Node000006" class="edge">
<title>Node5&#45;&gt;Node6</title>
<g id="a_edge5_Node000005_Node000006"><a xlink:title=" ">
<path fill="none" stroke="#63b8ff" d="M439.64,-48C431.53,-48 423.32,-48 415.37,-48"/>
<polygon fill="#63b8ff" stroke="#63b8ff" points="439.48,-51.5 449.48,-48 439.48,-44.5 439.48,-51.5"/>
</a>
</g>
</g>
<!-- Node6&#45;&gt;Node3 -->
<g id="edge6_Node000006_Node000003" class="edge">
<title>Node6&#45;&gt;Node3</title>
<g id="a_edge6_Node000006_Node000003"><a xlink:title=" ">
<path fill="none" stroke="#63b8ff" d="M282.17,-58.11C273.52,-59.34 264.97,-60.55 257.09,-61.67"/>
<polygon fill="#63b8ff" stroke="#63b8ff" points="282.65,-61.58 292.06,-56.71 281.66,-54.65 282.65,-61.58"/>
</a>
</g>
</g>
<!-- Node7 -->
<g id="Node000007" class="node">
<title>Node7</title>
<g id="a_Node000007"><a xlink:href="pause_8c.html#abc45a9e3a6a57d6f0f44706bd52e556d" target="_top" xlink:title="Affiche pause et met a jour les elements visuels associes.">
<polygon fill="white" stroke="#666666" points="258,-39 179,-39 179,-19 258,-19 258,-39"/>
<text xml:space="preserve" text-anchor="middle" x="218.5" y="-25.5" font-family="Helvetica,sans-Serif" font-size="10.00">afficher_pause</text>
</a>
</g>
</g>
<!-- Node6&#45;&gt;Node7 -->
<g id="edge7_Node000006_Node000007" class="edge">
<title>Node6&#45;&gt;Node7</title>
<g id="a_edge7_Node000006_Node000007"><a xlink:title=" ">
<path fill="none" stroke="#63b8ff" d="M282.28,-37.9C274.01,-36.73 265.83,-35.57 258.24,-34.49"/>
<polygon fill="#63b8ff" stroke="#63b8ff" points="281.66,-41.35 292.06,-39.29 282.65,-34.42 281.66,-41.35"/>
</a>
</g>
</g>
<!-- Node8 -->
<g id="Node000008" class="node">
<title>Node8</title>
<g id="a_Node000008"><a xlink:href="jeux_8c.html#a2d7491d04e8c2bdb52bb6ed7d75e4d78" target="_top" xlink:title="Execute la boucle principale de gameplay pour la planete courante.">
<polygon fill="white" stroke="#666666" points="143,-39 73,-39 73,-19 143,-19 143,-39"/>
<text xml:space="preserve" text-anchor="middle" x="108" y="-25.5" font-family="Helvetica,sans-Serif" font-size="10.00">jeu_principal</text>
</a>
</g>
</g>
<!-- Node7&#45;&gt;Node8 -->
<g id="edge8_Node000007_Node000008" class="edge">
<title>Node7&#45;&gt;Node8</title>
<g id="a_edge8_Node000007_Node000008"><a xlink:title=" ">
<path fill="none" stroke="#63b8ff" d="M167.3,-29C159.17,-29 150.91,-29 143.28,-29"/>
<polygon fill="#63b8ff" stroke="#63b8ff" points="167.12,-32.5 177.12,-29 167.12,-25.5 167.12,-32.5"/>
</a>
</g>
</g>
<!-- Node8&#45;&gt;Node4 -->
<g id="edge9_Node000008_Node000004" class="edge">
<title>Node8&#45;&gt;Node4</title>
<g id="a_edge9_Node000008_Node000004"><a xlink:title=" ">
<path fill="none" stroke="#63b8ff" d="M61.47,-38.89C52.91,-40.75 44.44,-42.58 37.37,-44.12"/>
<polygon fill="#63b8ff" stroke="#63b8ff" points="62.16,-42.32 71.19,-36.78 60.67,-35.48 62.16,-42.32"/>
</a>
</g>
</g>
<!-- Node9&#45;&gt;Node7 -->
<g id="edge11_Node000009_Node000007" class="edge">
<title>Node9&#45;&gt;Node7</title>
<g id="a_edge11_Node000009_Node000007"><a xlink:title=" ">
<path fill="none" stroke="#63b8ff" d="M439.21,-14.62C382.25,-18.35 304.24,-23.45 258.13,-26.47"/>
<polygon fill="#63b8ff" stroke="#63b8ff" points="439.4,-18.11 449.15,-13.97 438.95,-11.13 439.4,-18.11"/>
</a>
</g>
</g>
</g>
</svg>
