<?xml version="1.0" encoding="UTF-8" standalone="no"?>
<!DOCTYPE svg PUBLIC "-//W3C//DTD SVG 1.1//EN"
 "http://www.w3.org/Graphics/SVG/1.1/DTD/svg11.dtd">
<!-- Generated by graphviz version 2.43.0 (0)
 -->
<!-- Title: src/sauvegarde.c Pages: 1 -->
<svg width="1872pt" height="192pt"
 viewBox="0.00 0.00 1871.68 192.00" xmlns="http://www.w3.org/2000/svg" xmlns:xlink="http://www.w3.org/1999/xlink">
<g id="graph0" class="graph" transform="scale(1 1) rotate(0) translate(4 188)">
<title>src/sauvegarde.c</title>
<!-- Node1 -->
<g id="Node000001" class="node">
<title>Node1</title>
<g id="a_Node000001"><a xlink:title="Gestion des sauvegardes, des chargements et des emplacements.">
<polygon fill="#999999" stroke="#666666" points="1643.18,-184 1544.18,-184 1544.18,-165 1643.18,-165 1643.18,-184"/>
<text text-anchor="middle" x="1593.68" y="-172" font-family="Helvetica,sans-Serif" font-size="10.00">src/sauvegarde.c</text>
</a>
</g>
</g>
<!-- Node2 -->
<g id="Node000002" class="node">
<title>Node2</title>
<g id="a_Node000002"><a xlink:href="main_8h.html" target="_top" xlink:title="Declarations globales et utilitaires partages entre les modules du jeu.">
<polygon fill="white" stroke="#666666" points="777.68,-129 685.68,-129 685.68,-110 777.68,-110 777.68,-129"/>
<text text-anchor="middle" x="731.68" y="-117" font-family="Helvetica,sans-Serif" font-size="10.00">headers/main.h</text>
</a>
</g>
</g>
<!-- Node1&#45;&gt;Node2 -->
<g id="edge1_Node000001_Node000002" class="edge">
<title>Node1&#45;&gt;Node2</title>
<g id="a_edge1_Node000001_Node000002"><a xlink:title=" ">
<path fill="none" stroke="#63b8ff" d="M1543.93,-170.44C1393.77,-161.21 945.8,-133.67 787.7,-123.94"/>
<polygon fill="#63b8ff" stroke="#63b8ff" points="787.9,-120.45 777.71,-123.33 787.47,-127.44 787.9,-120.45"/>
</a>
</g>
</g>
<!-- Node4 -->
<g id="Node000004" class="node">
<title>Node4</title>
<g id="a_Node000004"><a xlink:title=" ">
<polygon fill="#e0e0e0" stroke="#999999" points="576.68,-19 432.68,-19 432.68,0 576.68,0 576.68,-19"/>
<text text-anchor="middle" x="504.68" y="-7" font-family="Helvetica,sans-Serif" font-size="10.00">SDL3_image/SDL_image.h</text>
</a>
</g>
</g>
<!-- Node1&#45;&gt;Node4 -->
<g id="edge63_Node000001_Node000004" class="edge">
<title>Node1&#45;&gt;Node4</title>
<g id="a_edge63_Node000001_Node000004"><a xlink:title=" ">
<path fill="none" stroke="#63b8ff" d="M1544.13,-172.3C1281.38,-165.69 61.04,-131.93 7.68,-74 1.96,-67.79 1.98,-61.23 7.68,-55 35.05,-25.07 288.27,-15.12 422.32,-11.93"/>
<polygon fill="#63b8ff" stroke="#63b8ff" points="422.63,-15.42 432.54,-11.69 422.47,-8.43 422.63,-15.42"/>
</a>
</g>
</g>
<!-- Node7 -->
<g id="Node000007" class="node">
<title>Node7</title>
<g id="a_Node000007"><a xlink:title=" ">
<polygon fill="#e0e0e0" stroke="#999999" points="1506.68,-74 1456.68,-74 1456.68,-55 1506.68,-55 1506.68,-74"/>
<text text-anchor="middle" x="1481.68" y="-62" font-family="Helvetica,sans-Serif" font-size="10.00">stdio.h</text>
</a>
</g>
</g>
<!-- Node1&#45;&gt;Node7 -->
<g id="edge65_Node000001_Node000007" class="edge">
<title>Node1&#45;&gt;Node7</title>
<g id="a_edge65_Node000001_Node000007"><a xlink:title=" ">
<path fill="none" stroke="#63b8ff" d="M1584.52,-164.66C1565.55,-146.38 1521.8,-104.18 1497.93,-81.17"/>
<polygon fill="#63b8ff" stroke="#63b8ff" points="1500.29,-78.58 1490.66,-74.16 1495.43,-83.62 1500.29,-78.58"/>
</a>
</g>
</g>
<!-- Node16 -->
<g id="Node000016" class="node">
<title>Node16</title>
<g id="a_Node000016"><a xlink:title=" ">
<polygon fill="#e0e0e0" stroke="#999999" points="1044.68,-19 940.68,-19 940.68,0 1044.68,0 1044.68,-19"/>
<text text-anchor="middle" x="992.68" y="-7" font-family="Helvetica,sans-Serif" font-size="10.00">SDL3_ttf/SDL_ttf.h</text>
</a>
</g>
</g>
<!-- Node1&#45;&gt;Node16 -->
<g id="edge64_Node000001_Node000016" class="edge">
<title>Node1&#45;&gt;Node16</title>
<g id="a_edge64_Node000001_Node000016"><a xlink:title=" ">
<path fill="none" stroke="#63b8ff" d="M1599.75,-164.69C1613.91,-142.96 1645.82,-86.29 1616.68,-55 1578.95,-14.48 1205.32,-10.28 1054.92,-10.24"/>
<polygon fill="#63b8ff" stroke="#63b8ff" points="1054.92,-6.74 1044.92,-10.25 1054.92,-13.74 1054.92,-6.74"/>
</a>
</g>
</g>
<!-- Node23 -->
<g id="Node000023" class="node">
<title>Node23</title>
<g id="a_Node000023"><a xlink:href="sauvegarde_8h.html" target="_top" xlink:title="Fichier des slots de sauvegarde et du chargement de progression.">
<polygon fill="white" stroke="#666666" points="1608.18,-74 1525.18,-74 1525.18,-55 1608.18,-55 1608.18,-74"/>
<text text-anchor="middle" x="1566.68" y="-62" font-family="Helvetica,sans-Serif" font-size="10.00">sauvegarde.h</text>
</a>
</g>
</g>
<!-- Node1&#45;&gt;Node23 -->
<g id="edge62_Node000001_Node000023" class="edge">
<title>Node1&#45;&gt;Node23</title>
<g id="a_edge62_Node000001_Node000023"><a xlink:title=" ">
<path fill="none" stroke="#63b8ff" d="M1591.47,-164.66C1587.08,-147.09 1577.17,-107.45 1571.3,-83.95"/>
<polygon fill="#63b8ff" stroke="#63b8ff" points="1574.67,-83.01 1568.85,-74.16 1567.88,-84.71 1574.67,-83.01"/>
</a>
</g>
</g>
<!-- Node28 -->
<g id="Node000028" class="node">
<title>Node28</title>
<g id="a_Node000028"><a xlink:title=" ">
<polygon fill="#e0e0e0" stroke="#999999" points="1710.18,-129 1657.18,-129 1657.18,-110 1710.18,-110 1710.18,-129"/>
<text text-anchor="middle" x="1683.68" y="-117" font-family="Helvetica,sans-Serif" font-size="10.00">string.h</text>
</a>
</g>
</g>
<!-- Node1&#45;&gt;Node28 -->
<g id="edge66_Node000001_Node000028" class="edge">
<title>Node1&#45;&gt;Node28</title>
<g id="a_edge66_Node000001_Node000028"><a xlink:title=" ">
<path fill="none" stroke="#63b8ff" d="M1608.14,-164.98C1622.1,-156.77 1643.48,-144.18 1659.93,-134.49"/>
<polygon fill="#63b8ff" stroke="#63b8ff" points="1662.12,-137.26 1668.96,-129.17 1658.57,-131.23 1662.12,-137.26"/>
</a>
</g>
</g>
<!-- Node29 -->
<g id="Node000029" class="node">
<title>Node29</title>
<g id="a_Node000029"><a xlink:title=" ">
<polygon fill="#e0e0e0" stroke="#999999" points="1781.18,-129 1728.18,-129 1728.18,-110 1781.18,-110 1781.18,-129"/>
<text text-anchor="middle" x="1754.68" y="-117" font-family="Helvetica,sans-Serif" font-size="10.00">stdint.h</text>
</a>
</g>
</g>
<!-- Node1&#45;&gt;Node29 -->
<g id="edge67_Node000001_Node000029" class="edge">
<title>Node1&#45;&gt;Node29</title>
<g id="a_edge67_Node000001_Node000029"><a xlink:title=" ">
<path fill="none" stroke="#63b8ff" d="M1619.55,-164.98C1646.46,-156.13 1688.8,-142.19 1718.91,-132.28"/>
<polygon fill="#63b8ff" stroke="#63b8ff" points="1720.21,-135.53 1728.61,-129.08 1718.02,-128.88 1720.21,-135.53"/>
</a>
</g>
</g>
<!-- Node30 -->
<g id="Node000030" class="node">
<title>Node30</title>
<g id="a_Node000030"><a xlink:title=" ">
<polygon fill="#e0e0e0" stroke="#999999" points="1863.68,-129 1799.68,-129 1799.68,-110 1863.68,-110 1863.68,-129"/>
<text text-anchor="middle" x="1831.68" y="-117" font-family="Helvetica,sans-Serif" font-size="10.00">sys/stat.h</text>
</a>
</g>
</g>
<!-- Node1&#45;&gt;Node30 -->
<g id="edge68_Node000001_Node000030" class="edge">
<title>Node1&#45;&gt;Node30</title>
<g id="a_edge68_Node000001_Node000030"><a xlink:title=" ">
<path fill="none" stroke="#63b8ff" d="M1631.92,-164.98C1675.08,-155.37 1745.06,-139.79 1789.7,-129.85"/>
<polygon fill="#63b8ff" stroke="#63b8ff" points="1790.64,-133.22 1799.64,-127.63 1789.12,-126.39 1790.64,-133.22"/>
</a>
</g>
</g>
<!-- Node3 -->
<g id="Node000003" class="node">
<title>Node3</title>
<g id="a_Node000003"><a xlink:title=" ">
<polygon fill="#e0e0e0" stroke="#999999" points="767.68,-19 695.68,-19 695.68,0 767.68,0 767.68,-19"/>
<text text-anchor="middle" x="731.68" y="-7" font-family="Helvetica,sans-Serif" font-size="10.00">SDL3/SDL.h</text>
</a>
</g>
</g>
<!-- Node2&#45;&gt;Node3 -->
<g id="edge2_Node000002_Node000003" class="edge">
<title>Node2&#45;&gt;Node3</title>
<g id="a_edge2_Node000002_Node000003"><a xlink:title=" ">
<path fill="none" stroke="#63b8ff" d="M777.88,-118.53C910.29,-118.14 1284.03,-113.52 1320.68,-74 1326.42,-67.81 1326.42,-61.19 1320.68,-55 1302.29,-35.17 914.08,-17.8 778.17,-12.3"/>
<polygon fill="#63b8ff" stroke="#63b8ff" points="778.21,-8.8 768.08,-11.9 777.93,-15.8 778.21,-8.8"/>
</a>
</g>
</g>
<!-- Node2&#45;&gt;Node4 -->
<g id="edge3_Node000002_Node000004" class="edge">
<title>Node2&#45;&gt;Node4</title>
<g id="a_edge3_Node000002_Node000004"><a xlink:title=" ">
<path fill="none" stroke="#63b8ff" d="M685.6,-117.72C570.38,-115.29 276.86,-105.99 247.68,-74 241.99,-67.76 242.24,-61.46 247.68,-55 269.8,-28.72 355.96,-17.96 422.49,-13.55"/>
<polygon fill="#63b8ff" stroke="#63b8ff" points="422.81,-17.04 432.57,-12.93 422.37,-10.06 422.81,-17.04"/>
</a>
</g>
</g>
<!-- Node5 -->
<g id="Node000005" class="node">
<title>Node5</title>
<g id="a_Node000005"><a xlink:title=" ">
<polygon fill="#e0e0e0" stroke="#999999" points="1312.18,-74 1261.18,-74 1261.18,-55 1312.18,-55 1312.18,-74"/>
<text text-anchor="middle" x="1286.68" y="-62" font-family="Helvetica,sans-Serif" font-size="10.00">math.h</text>
</a>
</g>
</g>
<!-- Node2&#45;&gt;Node5 -->
<g id="edge4_Node000002_Node000005" class="edge">
<title>Node2&#45;&gt;Node5</title>
<g id="a_edge4_Node000002_Node000005"><a xlink:title=" ">
<path fill="none" stroke="#63b8ff" d="M777.88,-116.92C867.38,-113.34 1070.68,-102.71 1251.22,-73.79"/>
<polygon fill="#63b8ff" stroke="#63b8ff" points="1251.85,-77.23 1261.16,-72.18 1250.73,-70.32 1251.85,-77.23"/>
</a>
</g>
</g>
<!-- Node6 -->
<g id="Node000006" class="node">
<title>Node6</title>
<g id="a_Node000006"><a xlink:title=" ">
<polygon fill="#e0e0e0" stroke="#999999" points="213.18,-19 76.18,-19 76.18,0 213.18,0 213.18,-19"/>
<text text-anchor="middle" x="144.68" y="-7" font-family="Helvetica,sans-Serif" font-size="10.00">SDL3_mixer/SDL_mixer.h</text>
</a>
</g>
</g>
<!-- Node2&#45;&gt;Node6 -->
<g id="edge5_Node000002_Node000006" class="edge">
<title>Node2&#45;&gt;Node6</title>
<g id="a_edge5_Node000002_Node000006"><a xlink:title=" ">
<path fill="none" stroke="#63b8ff" d="M685.61,-117.39C529.81,-113.4 30.96,-98.75 7.68,-74 -17.75,-46.96 26.87,-30.4 71.83,-21.01"/>
<polygon fill="#63b8ff" stroke="#63b8ff" points="72.58,-24.43 81.71,-19.05 71.22,-17.56 72.58,-24.43"/>
</a>
</g>
</g>
<!-- Node2&#45;&gt;Node7 -->
<g id="edge6_Node000002_Node000007" class="edge">
<title>Node2&#45;&gt;Node7</title>
<g id="a_edge6_Node000002_Node000007"><a xlink:title=" ">
<path fill="none" stroke="#63b8ff" d="M777.99,-118.43C892.23,-117.65 1196.44,-111.87 1446.68,-74 1446.78,-73.98 1446.88,-73.97 1446.98,-73.95"/>
<polygon fill="#63b8ff" stroke="#63b8ff" points="1447.37,-77.44 1456.55,-72.16 1446.08,-70.56 1447.37,-77.44"/>
</a>
</g>
</g>
<!-- Node8 -->
<g id="Node000008" class="node">
<title>Node8</title>
<g id="a_Node000008"><a xlink:title=" ">
<polygon fill="#e0e0e0" stroke="#999999" points="70.18,-74 17.18,-74 17.18,-55 70.18,-55 70.18,-74"/>
<text text-anchor="middle" x="43.68" y="-62" font-family="Helvetica,sans-Serif" font-size="10.00">stdlib.h</text>
</a>
</g>
</g>
<!-- Node2&#45;&gt;Node8 -->
<g id="edge7_Node000002_Node000008" class="edge">
<title>Node2&#45;&gt;Node8</title>
<g id="a_edge7_Node000002_Node000008"><a xlink:title=" ">
<path fill="none" stroke="#63b8ff" d="M685.47,-118.05C579.75,-116.43 312.13,-109.05 80.31,-74"/>
<polygon fill="#63b8ff" stroke="#63b8ff" points="80.76,-70.53 70.34,-72.47 79.7,-77.44 80.76,-70.53"/>
</a>
</g>
</g>
<!-- Node9 -->
<g id="Node000009" class="node">
<title>Node9</title>
<g id="a_Node000009"><a xlink:href="menu_8h.html" target="_top" xlink:title="Fichier du menu principal et des choix de navigation.">
<polygon fill="white" stroke="#666666" points="793.18,-74 740.18,-74 740.18,-55 793.18,-55 793.18,-74"/>
<text text-anchor="middle" x="766.68" y="-62" font-family="Helvetica,sans-Serif" font-size="10.00">menu.h</text>
</a>
</g>
</g>
<!-- Node2&#45;&gt;Node9 -->
<g id="edge8_Node000002_Node000009" class="edge">
<title>Node2&#45;&gt;Node9</title>
<g id="a_edge8_Node000002_Node000009"><a xlink:title=" ">
<path fill="none" stroke="#63b8ff" d="M737.46,-109.75C742.3,-102.42 749.36,-91.73 755.33,-82.7"/>
<polygon fill="#63b8ff" stroke="#63b8ff" points="758.42,-84.36 761.01,-74.09 752.58,-80.5 758.42,-84.36"/>
</a>
</g>
</g>
<!-- Node10 -->
<g id="Node000010" class="node">
<title>Node10</title>
<g id="a_Node000010"><a xlink:href="game__over_8h.html" target="_top" xlink:title="Fichier de l&#39;ecran de fin de partie et des transitions associees.">
<polygon fill="white" stroke="#666666" points="891.68,-74 811.68,-74 811.68,-55 891.68,-55 891.68,-74"/>
<text text-anchor="middle" x="851.68" y="-62" font-family="Helvetica,sans-Serif" font-size="10.00">game_over.h</text>
</a>
</g>
</g>
<!-- Node2&#45;&gt;Node10 -->
<g id="edge11_Node000002_Node000010" class="edge">
<title>Node2&#45;&gt;Node10</title>
<g id="a_edge11_Node000002_Node000010"><a xlink:title=" ">
<path fill="none" stroke="#63b8ff" d="M750.96,-109.98C770.35,-101.42 800.49,-88.11 822.75,-78.28"/>
<polygon fill="#63b8ff" stroke="#63b8ff" points="824.32,-81.41 832.05,-74.17 821.49,-75.01 824.32,-81.41"/>
</a>
</g>
</g>
<!-- Node11 -->
<g id="Node000011" class="node">
<title>Node11</title>
<g id="a_Node000011"><a xlink:href="jeux_8h.html" target="_top" xlink:title="Fichier de la boucle de jeu principale et de son initialisation.">
<polygon fill="white" stroke="#666666" points="135.18,-74 88.18,-74 88.18,-55 135.18,-55 135.18,-74"/>
<text text-anchor="middle" x="111.68" y="-62" font-family="Helvetica,sans-Serif" font-size="10.00">jeux.h</text>
</a>
</g>
</g>
<!-- Node2&#45;&gt;Node11 -->
<g id="edge14_Node000002_Node000011" class="edge">
<title>Node2&#45;&gt;Node11</title>
<g id="a_edge14_Node000002_Node000011"><a xlink:title=" ">
<path fill="none" stroke="#63b8ff" d="M685.59,-117.89C587.6,-115.97 351.32,-108.07 145.43,-74"/>
<polygon fill="#63b8ff" stroke="#63b8ff" points="145.78,-70.51 135.34,-72.3 144.62,-77.41 145.78,-70.51"/>
</a>
</g>
</g>
<!-- Node12 -->
<g id="Node000012" class="node">
<title>Node12</title>
<g id="a_Node000012"><a xlink:href="bouton_8h.html" target="_top" xlink:title="Fichier des boutons UI, de leur etat et de la gestion des interactions souris.">
<polygon fill="white" stroke="#666666" points="316.18,-74 257.18,-74 257.18,-55 316.18,-55 316.18,-74"/>
<text text-anchor="middle" x="286.68" y="-62" font-family="Helvetica,sans-Serif" font-size="10.00">bouton.h</text>
</a>
</g>
</g>
<!-- Node2&#45;&gt;Node12 -->
<g id="edge18_Node000002_Node000012" class="edge">
<title>Node2&#45;&gt;Node12</title>
<g id="a_edge18_Node000002_Node000012"><a xlink:title=" ">
<path fill="none" stroke="#63b8ff" d="M685.5,-115.03C611.78,-109.15 462.83,-95.84 326.63,-73.98"/>
<polygon fill="#63b8ff" stroke="#63b8ff" points="326.86,-70.47 316.43,-72.32 325.74,-77.38 326.86,-70.47"/>
</a>
</g>
</g>
<!-- Node13 -->
<g id="Node000013" class="node">
<title>Node13</title>
<g id="a_Node000013"><a xlink:href="option_8h.html" target="_top" xlink:title="Fichier de l&#39;ecran d&#39;options et des reglages de jeu.">
<polygon fill="white" stroke="#666666" points="390.68,-74 334.68,-74 334.68,-55 390.68,-55 390.68,-74"/>
<text text-anchor="middle" x="362.68" y="-62" font-family="Helvetica,sans-Serif" font-size="10.00">option.h</text>
</a>
</g>
</g>
<!-- Node2&#45;&gt;Node13 -->
<g id="edge21_Node000002_Node000013" class="edge">
<title>Node2&#45;&gt;Node13</title>
<g id="a_edge21_Node000002_Node000013"><a xlink:title=" ">
<path fill="none" stroke="#63b8ff" d="M685.55,-113.68C623.19,-106.87 508.33,-93.26 400.94,-74.08"/>
<polygon fill="#63b8ff" stroke="#63b8ff" points="401.37,-70.6 390.91,-72.27 400.13,-77.49 401.37,-70.6"/>
</a>
</g>
</g>
<!-- Node14 -->
<g id="Node000014" class="node">
<title>Node14</title>
<g id="a_Node000014"><a xlink:href="perso_8h.html" target="_top" xlink:title="Fichier du personnage: deplacement, combat, stats et collisions.">
<polygon fill="white" stroke="#666666" points="462.18,-74 409.18,-74 409.18,-55 462.18,-55 462.18,-74"/>
<text text-anchor="middle" x="435.68" y="-62" font-family="Helvetica,sans-Serif" font-size="10.00">perso.h</text>
</a>
</g>
</g>
<!-- Node2&#45;&gt;Node14 -->
<g id="edge24_Node000002_Node000014" class="edge">
<title>Node2&#45;&gt;Node14</title>
<g id="a_edge24_Node000002_Node000014"><a xlink:title=" ">
<path fill="none" stroke="#63b8ff" d="M685.49,-111.49C635.42,-103.68 552.94,-90.26 472.21,-74"/>
<polygon fill="#63b8ff" stroke="#63b8ff" points="472.87,-70.56 462.38,-72 471.48,-77.42 472.87,-70.56"/>
</a>
</g>
</g>
<!-- Node15 -->
<g id="Node000015" class="node">
<title>Node15</title>
<g id="a_Node000015"><a xlink:href="son_8h.html" target="_top" xlink:title="Fichier audio: musique, effets sonores et etats d&#39;activation.">
<polygon fill="white" stroke="#666666" points="655.18,-74 612.18,-74 612.18,-55 655.18,-55 655.18,-74"/>
<text text-anchor="middle" x="633.68" y="-62" font-family="Helvetica,sans-Serif" font-size="10.00">son.h</text>
</a>
</g>
</g>
<!-- Node2&#45;&gt;Node15 -->
<g id="edge27_Node000002_Node000015" class="edge">
<title>Node2&#45;&gt;Node15</title>
<g id="a_edge27_Node000002_Node000015"><a xlink:title=" ">
<path fill="none" stroke="#63b8ff" d="M715.94,-109.98C700.46,-101.61 676.59,-88.7 658.55,-78.95"/>
<polygon fill="#63b8ff" stroke="#63b8ff" points="660.18,-75.85 649.71,-74.17 656.85,-82.01 660.18,-75.85"/>
</a>
</g>
</g>
<!-- Node17 -->
<g id="Node000017" class="node">
<title>Node17</title>
<g id="a_Node000017"><a xlink:href="boss_8h.html" target="_top" xlink:title="Fichier du module boss (declarations publiques).">
<polygon fill="white" stroke="#666666" points="528.68,-74 480.68,-74 480.68,-55 528.68,-55 528.68,-74"/>
<text text-anchor="middle" x="504.68" y="-62" font-family="Helvetica,sans-Serif" font-size="10.00">boss.h</text>
</a>
</g>
</g>
<!-- Node2&#45;&gt;Node17 -->
<g id="edge32_Node000002_Node000017" class="edge">
<title>Node2&#45;&gt;Node17</title>
<g id="a_edge32_Node000002_Node000017"><a xlink:title=" ">
<path fill="none" stroke="#63b8ff" d="M692.96,-109.94C655.82,-101.65 597.91,-88.55 538.71,-74.2"/>
<polygon fill="#63b8ff" stroke="#63b8ff" points="539.36,-70.76 528.81,-71.79 537.7,-77.56 539.36,-70.76"/>
</a>
</g>
</g>
<!-- Node18 -->
<g id="Node000018" class="node">
<title>Node18</title>
<g id="a_Node000018"><a xlink:href="mob_8h.html" target="_top" xlink:title="Fichier des mobs: creation, mise a jour, rendu et file de respawn.">
<polygon fill="white" stroke="#666666" points="594.18,-74 547.18,-74 547.18,-55 594.18,-55 594.18,-74"/>
<text text-anchor="middle" x="570.68" y="-62" font-family="Helvetica,sans-Serif" font-size="10.00">mob.h</text>
</a>
</g>
</g>
<!-- Node2&#45;&gt;Node18 -->
<g id="edge35_Node000002_Node000018" class="edge">
<title>Node2&#45;&gt;Node18</title>
<g id="a_edge35_Node000002_Node000018"><a xlink:title=" ">
<path fill="none" stroke="#63b8ff" d="M705.82,-109.98C678.18,-100.89 634.29,-86.44 604.07,-76.49"/>
<polygon fill="#63b8ff" stroke="#63b8ff" points="604.98,-73.11 594.39,-73.3 602.79,-79.75 604.98,-73.11"/>
</a>
</g>
</g>
<!-- Node19 -->
<g id="Node000019" class="node">
<title>Node19</title>
<g id="a_Node000019"><a xlink:href="vaisseau_8h.html" target="_top" xlink:title="Fichier de la scene vaisseau, des interactions et du retour en planete.">
<polygon fill="white" stroke="#666666" points="1438.18,-74 1369.18,-74 1369.18,-55 1438.18,-55 1438.18,-74"/>
<text text-anchor="middle" x="1403.68" y="-62" font-family="Helvetica,sans-Serif" font-size="10.00">vaisseau.h</text>
</a>
</g>
</g>
<!-- Node2&#45;&gt;Node19 -->
<g id="edge38_Node000002_Node000019" class="edge">
<title>Node2&#45;&gt;Node19</title>
<g id="a_edge38_Node000002_Node000019"><a xlink:title=" ">
<path fill="none" stroke="#63b8ff" d="M777.95,-116.79C881.55,-112.6 1139.95,-100.23 1354.68,-74 1355.98,-73.84 1357.3,-73.67 1358.64,-73.49"/>
<polygon fill="#63b8ff" stroke="#63b8ff" points="1359.57,-76.89 1368.95,-71.97 1358.54,-69.97 1359.57,-76.89"/>
</a>
</g>
</g>
<!-- Node20 -->
<g id="Node000020" class="node">
<title>Node20</title>
<g id="a_Node000020"><a xlink:href="map_8h.html" target="_top" xlink:title="Fichier de navigation carte et de gestion des ressources cartographiques.">
<polygon fill="white" stroke="#666666" points="200.18,-74 153.18,-74 153.18,-55 200.18,-55 200.18,-74"/>
<text text-anchor="middle" x="176.68" y="-62" font-family="Helvetica,sans-Serif" font-size="10.00">map.h</text>
</a>
</g>
</g>
<!-- Node2&#45;&gt;Node20 -->
<g id="edge40_Node000002_Node000020" class="edge">
<title>Node2&#45;&gt;Node20</title>
<g id="a_edge40_Node000002_Node000020"><a xlink:title=" ">
<path fill="none" stroke="#63b8ff" d="M685.44,-116.6C594.72,-112.42 387.19,-100.6 214.68,-74 213.22,-73.77 211.73,-73.53 210.23,-73.26"/>
<polygon fill="#63b8ff" stroke="#63b8ff" points="210.79,-69.8 200.31,-71.3 209.44,-76.67 210.79,-69.8"/>
</a>
</g>
</g>
<!-- Node21 -->
<g id="Node000021" class="node">
<title>Node21</title>
<g id="a_Node000021"><a xlink:href="item_8h.html" target="_top" xlink:title="Fichier de creation, d&#39;affichage et de destruction des items.">
<polygon fill="white" stroke="#666666" points="721.68,-74 673.68,-74 673.68,-55 721.68,-55 721.68,-74"/>
<text text-anchor="middle" x="697.68" y="-62" font-family="Helvetica,sans-Serif" font-size="10.00">item.h</text>
</a>
</g>
</g>
<!-- Node2&#45;&gt;Node21 -->
<g id="edge44_Node000002_Node000021" class="edge">
<title>Node2&#45;&gt;Node21</title>
<g id="a_edge44_Node000002_Node000021"><a xlink:title=" ">
<path fill="none" stroke="#63b8ff" d="M726.07,-109.75C721.36,-102.42 714.51,-91.73 708.71,-82.7"/>
<polygon fill="#63b8ff" stroke="#63b8ff" points="711.54,-80.62 703.19,-74.09 705.65,-84.4 711.54,-80.62"/>
</a>
</g>
</g>
<!-- Node22 -->
<g id="Node000022" class="node">
<title>Node22</title>
<g id="a_Node000022"><a xlink:href="inventaire_8h.html" target="_top" xlink:title="Fichier de l&#39;inventaire, de la hotbar et des interactions de slots.">
<polygon fill="white" stroke="#666666" points="985.18,-74 910.18,-74 910.18,-55 985.18,-55 985.18,-74"/>
<text text-anchor="middle" x="947.68" y="-62" font-family="Helvetica,sans-Serif" font-size="10.00">inventaire.h</text>
</a>
</g>
</g>
<!-- Node2&#45;&gt;Node22 -->
<g id="edge47_Node000002_Node000022" class="edge">
<title>Node2&#45;&gt;Node22</title>
<g id="a_edge47_Node000002_Node000022"><a xlink:title=" ">
<path fill="none" stroke="#63b8ff" d="M766.39,-109.98C803.44,-100.89 862.27,-86.46 902.82,-76.51"/>
<polygon fill="#63b8ff" stroke="#63b8ff" points="903.83,-79.86 912.71,-74.08 902.16,-73.07 903.83,-79.86"/>
</a>
</g>
</g>
<!-- Node2&#45;&gt;Node23 -->
<g id="edge51_Node000002_Node000023" class="edge">
<title>Node2&#45;&gt;Node23</title>
<g id="a_edge51_Node000002_Node000023"><a xlink:title=" ">
<path fill="none" stroke="#63b8ff" d="M777.78,-117.63C897.58,-114.99 1228.69,-105.32 1514.83,-73.95"/>
<polygon fill="#63b8ff" stroke="#63b8ff" points="1515.43,-77.41 1524.99,-72.83 1514.66,-70.45 1515.43,-77.41"/>
</a>
</g>
</g>
<!-- Node25 -->
<g id="Node000025" class="node">
<title>Node25</title>
<g id="a_Node000025"><a xlink:href="objectifs_8h.html" target="_top" xlink:title="Fichier de suivi des objectifs de quete et de leur affichage.">
<polygon fill="white" stroke="#666666" points="1071.68,-74 1003.68,-74 1003.68,-55 1071.68,-55 1071.68,-74"/>
<text text-anchor="middle" x="1037.68" y="-62" font-family="Helvetica,sans-Serif" font-size="10.00">objectifs.h</text>
</a>
</g>
</g>
<!-- Node2&#45;&gt;Node25 -->
<g id="edge54_Node000002_Node000025" class="edge">
<title>Node2&#45;&gt;Node25</title>
<g id="a_edge54_Node000002_Node000025"><a xlink:title=" ">
<path fill="none" stroke="#63b8ff" d="M778.12,-110.94C830.53,-102.33 918.33,-87.68 993.68,-74 993.78,-73.98 993.88,-73.96 993.98,-73.95"/>
<polygon fill="#63b8ff" stroke="#63b8ff" points="994.39,-77.43 1003.59,-72.17 993.12,-70.55 994.39,-77.43"/>
</a>
</g>
</g>
<!-- Node26 -->
<g id="Node000026" class="node">
<title>Node26</title>
<g id="a_Node000026"><a xlink:href="cinematique_8h.html" target="_top" xlink:title="Fichier des cinematics, des intros et des sequences de credits.">
<polygon fill="white" stroke="#666666" points="1175.68,-74 1089.68,-74 1089.68,-55 1175.68,-55 1175.68,-74"/>
<text text-anchor="middle" x="1132.68" y="-62" font-family="Helvetica,sans-Serif" font-size="10.00">cinematique.h</text>
</a>
</g>
</g>
<!-- Node2&#45;&gt;Node26 -->
<g id="edge58_Node000002_Node000026" class="edge">
<title>Node2&#45;&gt;Node26</title>
<g id="a_edge58_Node000002_Node000026"><a xlink:title=" ">
<path fill="none" stroke="#63b8ff" d="M777.77,-113.15C842.72,-105.49 965.15,-90.63 1079.59,-74.12"/>
<polygon fill="#63b8ff" stroke="#63b8ff" points="1080.18,-77.57 1089.57,-72.67 1079.17,-70.64 1080.18,-77.57"/>
</a>
</g>
</g>
<!-- Node27 -->
<g id="Node000027" class="node">
<title>Node27</title>
<g id="a_Node000027"><a xlink:href="shop_8h.html" target="_top" xlink:title="Fichier de la boutique, des achats et de l&#39;economie joueur.">
<polygon fill="white" stroke="#666666" points="1243.18,-74 1194.18,-74 1194.18,-55 1243.18,-55 1243.18,-74"/>
<text text-anchor="middle" x="1218.68" y="-62" font-family="Helvetica,sans-Serif" font-size="10.00">shop.h</text>
</a>
</g>
</g>
<!-- Node2&#45;&gt;Node27 -->
<g id="edge60_Node000002_Node000027" class="edge">
<title>Node2&#45;&gt;Node27</title>
<g id="a_edge60_Node000002_Node000027"><a xlink:title=" ">
<path fill="none" stroke="#63b8ff" d="M777.96,-116.21C858.5,-111.72 1029.76,-100.03 1183.77,-73.89"/>
<polygon fill="#63b8ff" stroke="#63b8ff" points="1184.63,-77.29 1193.89,-72.15 1183.44,-70.39 1184.63,-77.29"/>
</a>
</g>
</g>
<!-- Node9&#45;&gt;Node3 -->
<g id="edge9_Node000009_Node000003" class="edge">
<title>Node9&#45;&gt;Node3</title>
<g id="a_edge9_Node000009_Node000003"><a xlink:title=" ">
<path fill="none" stroke="#63b8ff" d="M760.9,-54.75C756.06,-47.42 749,-36.73 743.04,-27.7"/>
<polygon fill="#63b8ff" stroke="#63b8ff" points="745.79,-25.5 737.35,-19.09 739.94,-29.36 745.79,-25.5"/>
</a>
</g>
</g>
<!-- Node9&#45;&gt;Node4 -->
<g id="edge10_Node000009_Node000004" class="edge">
<title>Node9&#45;&gt;Node4</title>
<g id="a_edge10_Node000009_Node000004"><a xlink:title=" ">
<path fill="none" stroke="#63b8ff" d="M739.97,-57.08C736.84,-56.36 733.7,-55.65 730.68,-55 672.91,-42.5 606.5,-29.6 560.7,-20.92"/>
<polygon fill="#63b8ff" stroke="#63b8ff" points="561.14,-17.45 550.67,-19.03 559.85,-24.33 561.14,-17.45"/>
</a>
</g>
</g>
<!-- Node10&#45;&gt;Node3 -->
<g id="edge12_Node000010_Node000003" class="edge">
<title>Node10&#45;&gt;Node3</title>
<g id="a_edge12_Node000010_Node000003"><a xlink:title=" ">
<path fill="none" stroke="#63b8ff" d="M832.4,-54.98C813.01,-46.42 782.88,-33.11 760.62,-23.28"/>
<polygon fill="#63b8ff" stroke="#63b8ff" points="761.88,-20.01 751.31,-19.17 759.05,-26.41 761.88,-20.01"/>
</a>
</g>
</g>
<!-- Node10&#45;&gt;Node4 -->
<g id="edge13_Node000010_Node000004" class="edge">
<title>Node10&#45;&gt;Node4</title>
<g id="a_edge13_Node000010_Node000004"><a xlink:title=" ">
<path fill="none" stroke="#63b8ff" d="M811.58,-56.61C808.23,-56.06 804.9,-55.51 801.68,-55 723.81,-42.55 634.28,-29.28 574.05,-20.5"/>
<polygon fill="#63b8ff" stroke="#63b8ff" points="574.3,-17 563.9,-19.02 573.3,-23.93 574.3,-17"/>
</a>
</g>
</g>
<!-- Node11&#45;&gt;Node3 -->
<g id="edge15_Node000011_Node000003" class="edge">
<title>Node11&#45;&gt;Node3</title>
<g id="a_edge15_Node000011_Node000003"><a xlink:title=" ">
<path fill="none" stroke="#63b8ff" d="M135.34,-56.7C138.14,-56.05 140.96,-55.46 143.68,-55 196.51,-46.06 556.1,-21.99 685.45,-13.51"/>
<polygon fill="#63b8ff" stroke="#63b8ff" points="685.69,-17 695.44,-12.85 685.23,-10.01 685.69,-17"/>
</a>
</g>
</g>
<!-- Node11&#45;&gt;Node4 -->
<g id="edge16_Node000011_Node000004" class="edge">
<title>Node11&#45;&gt;Node4</title>
<g id="a_edge16_Node000011_Node000004"><a xlink:title=" ">
<path fill="none" stroke="#63b8ff" d="M135.36,-56.82C138.16,-56.15 140.97,-55.52 143.68,-55 238.57,-36.64 349.03,-24.33 422.53,-17.39"/>
<polygon fill="#63b8ff" stroke="#63b8ff" points="423.02,-20.86 432.65,-16.45 422.37,-13.89 423.02,-20.86"/>
</a>
</g>
</g>
<!-- Node11&#45;&gt;Node6 -->
<g id="edge17_Node000011_Node000006" class="edge">
<title>Node11&#45;&gt;Node6</title>
<g id="a_edge17_Node000011_Node000006"><a xlink:title=" ">
<path fill="none" stroke="#63b8ff" d="M117.13,-54.75C121.7,-47.42 128.35,-36.73 133.98,-27.7"/>
<polygon fill="#63b8ff" stroke="#63b8ff" points="137.02,-29.43 139.33,-19.09 131.08,-25.73 137.02,-29.43"/>
</a>
</g>
</g>
<!-- Node12&#45;&gt;Node3 -->
<g id="edge19_Node000012_Node000003" class="edge">
<title>Node12&#45;&gt;Node3</title>
<g id="a_edge19_Node000012_Node000003"><a xlink:title=" ">
<path fill="none" stroke="#63b8ff" d="M316.43,-56.68C319.55,-56.07 322.67,-55.49 325.68,-55 455.35,-33.82 610,-19.99 685.54,-13.96"/>
<polygon fill="#63b8ff" stroke="#63b8ff" points="685.97,-17.44 695.67,-13.16 685.42,-10.46 685.97,-17.44"/>
</a>
</g>
</g>
<!-- Node12&#45;&gt;Node4 -->
<g id="edge20_Node000012_Node000004" class="edge">
<title>Node12&#45;&gt;Node4</title>
<g id="a_edge20_Node000012_Node000004"><a xlink:title=" ">
<path fill="none" stroke="#63b8ff" d="M316.54,-56.24C353.46,-47.27 416.66,-31.9 459.53,-21.48"/>
<polygon fill="#63b8ff" stroke="#63b8ff" points="460.53,-24.84 469.42,-19.07 458.88,-18.03 460.53,-24.84"/>
</a>
</g>
</g>
<!-- Node13&#45;&gt;Node3 -->
<g id="edge22_Node000013_Node000003" class="edge">
<title>Node13&#45;&gt;Node3</title>
<g id="a_edge22_Node000013_Node000003"><a xlink:title=" ">
<path fill="none" stroke="#63b8ff" d="M390.91,-56.73C393.86,-56.11 396.83,-55.52 399.68,-55 501.04,-36.61 621.09,-22.36 685.43,-15.33"/>
<polygon fill="#63b8ff" stroke="#63b8ff" points="686.08,-18.78 695.65,-14.22 685.33,-11.82 686.08,-18.78"/>
</a>
</g>
</g>
<!-- Node13&#45;&gt;Node4 -->
<g id="edge23_Node000013_Node000004" class="edge">
<title>Node13&#45;&gt;Node4</title>
<g id="a_edge23_Node000013_Node000004"><a xlink:title=" ">
<path fill="none" stroke="#63b8ff" d="M385.5,-54.98C408.86,-46.27 445.39,-32.63 471.85,-22.75"/>
<polygon fill="#63b8ff" stroke="#63b8ff" points="473.31,-25.95 481.45,-19.17 470.86,-19.39 473.31,-25.95"/>
</a>
</g>
</g>
<!-- Node14&#45;&gt;Node3 -->
<g id="edge25_Node000014_Node000003" class="edge">
<title>Node14&#45;&gt;Node3</title>
<g id="a_edge25_Node000014_Node000003"><a xlink:title=" ">
<path fill="none" stroke="#63b8ff" d="M462.38,-57C465.51,-56.3 468.66,-55.61 471.68,-55 546.15,-39.85 633.32,-25.64 685.44,-17.52"/>
<polygon fill="#63b8ff" stroke="#63b8ff" points="686.03,-20.97 695.38,-15.98 684.96,-14.06 686.03,-20.97"/>
</a>
</g>
</g>
<!-- Node14&#45;&gt;Node4 -->
<g id="edge26_Node000014_Node000004" class="edge">
<title>Node14&#45;&gt;Node4</title>
<g id="a_edge26_Node000014_Node000004"><a xlink:title=" ">
<path fill="none" stroke="#63b8ff" d="M446.77,-54.98C457.17,-47 472.94,-34.88 485.4,-25.31"/>
<polygon fill="#63b8ff" stroke="#63b8ff" points="487.6,-28.04 493.4,-19.17 483.33,-22.49 487.6,-28.04"/>
</a>
</g>
</g>
<!-- Node15&#45;&gt;Node3 -->
<g id="edge28_Node000015_Node000003" class="edge">
<title>Node15&#45;&gt;Node3</title>
<g id="a_edge28_Node000015_Node000003"><a xlink:title=" ">
<path fill="none" stroke="#63b8ff" d="M649.43,-54.98C664.91,-46.61 688.78,-33.7 706.82,-23.95"/>
<polygon fill="#63b8ff" stroke="#63b8ff" points="708.52,-27.01 715.65,-19.17 705.19,-20.85 708.52,-27.01"/>
</a>
</g>
</g>
<!-- Node15&#45;&gt;Node4 -->
<g id="edge29_Node000015_Node000004" class="edge">
<title>Node15&#45;&gt;Node4</title>
<g id="a_edge29_Node000015_Node000004"><a xlink:title=" ">
<path fill="none" stroke="#63b8ff" d="M612.96,-54.98C591.92,-46.34 559.13,-32.87 535.15,-23.02"/>
<polygon fill="#63b8ff" stroke="#63b8ff" points="536.37,-19.73 525.79,-19.17 533.71,-26.21 536.37,-19.73"/>
</a>
</g>
</g>
<!-- Node15&#45;&gt;Node6 -->
<g id="edge31_Node000015_Node000006" class="edge">
<title>Node15&#45;&gt;Node6</title>
<g id="a_edge31_Node000015_Node000006"><a xlink:title=" ">
<path fill="none" stroke="#63b8ff" d="M612.11,-57.08C608.97,-56.29 605.76,-55.57 602.68,-55 470.92,-30.72 315.23,-19.15 223.51,-14.06"/>
<polygon fill="#63b8ff" stroke="#63b8ff" points="223.65,-10.57 213.47,-13.52 223.27,-17.56 223.65,-10.57"/>
</a>
</g>
</g>
<!-- Node15&#45;&gt;Node16 -->
<g id="edge30_Node000015_Node000016" class="edge">
<title>Node15&#45;&gt;Node16</title>
<g id="a_edge30_Node000015_Node000016"><a xlink:title=" ">
<path fill="none" stroke="#63b8ff" d="M655.27,-57.19C658.41,-56.38 661.62,-55.62 664.68,-55 756.34,-36.3 864.06,-23.39 930.35,-16.47"/>
<polygon fill="#63b8ff" stroke="#63b8ff" points="931.04,-19.91 940.63,-15.41 930.32,-12.95 931.04,-19.91"/>
</a>
</g>
</g>
<!-- Node17&#45;&gt;Node3 -->
<g id="edge33_Node000017_Node000003" class="edge">
<title>Node17&#45;&gt;Node3</title>
<g id="a_edge33_Node000017_Node000003"><a xlink:title=" ">
<path fill="none" stroke="#63b8ff" d="M528.81,-57.21C531.8,-56.45 534.81,-55.7 537.68,-55 588.18,-42.71 646.31,-29.5 685.67,-20.69"/>
<polygon fill="#63b8ff" stroke="#63b8ff" points="686.51,-24.09 695.5,-18.5 684.98,-17.26 686.51,-24.09"/>
</a>
</g>
</g>
<!-- Node17&#45;&gt;Node4 -->
<g id="edge34_Node000017_Node000004" class="edge">
<title>Node17&#45;&gt;Node4</title>
<g id="a_edge34_Node000017_Node000004"><a xlink:title=" ">
<path fill="none" stroke="#63b8ff" d="M504.68,-54.75C504.68,-47.8 504.68,-37.85 504.68,-29.13"/>
<polygon fill="#63b8ff" stroke="#63b8ff" points="508.18,-29.09 504.68,-19.09 501.18,-29.09 508.18,-29.09"/>
</a>
</g>
</g>
<!-- Node18&#45;&gt;Node3 -->
<g id="edge36_Node000018_Node000003" class="edge">
<title>Node18&#45;&gt;Node3</title>
<g id="a_edge36_Node000018_Node000003"><a xlink:title=" ">
<path fill="none" stroke="#63b8ff" d="M594.44,-55.68C621.27,-46.85 665.23,-32.38 696.15,-22.2"/>
<polygon fill="#63b8ff" stroke="#63b8ff" points="697.29,-25.51 705.69,-19.06 695.1,-18.86 697.29,-25.51"/>
</a>
</g>
</g>
<!-- Node18&#45;&gt;Node4 -->
<g id="edge37_Node000018_Node000004" class="edge">
<title>Node18&#45;&gt;Node4</title>
<g id="a_edge37_Node000018_Node000004"><a xlink:title=" ">
<path fill="none" stroke="#63b8ff" d="M560.08,-54.98C550.23,-47.07 535.33,-35.11 523.47,-25.58"/>
<polygon fill="#63b8ff" stroke="#63b8ff" points="525.47,-22.7 515.48,-19.17 521.09,-28.16 525.47,-22.7"/>
</a>
</g>
</g>
<!-- Node19&#45;&gt;Node3 -->
<g id="edge39_Node000019_Node000003" class="edge">
<title>Node19&#45;&gt;Node3</title>
<g id="a_edge39_Node000019_Node000003"><a xlink:title=" ">
<path fill="none" stroke="#63b8ff" d="M1368.95,-57.03C1364.17,-56.27 1359.31,-55.57 1354.68,-55 1140.06,-28.79 881.8,-16.41 778.1,-12.22"/>
<polygon fill="#63b8ff" stroke="#63b8ff" points="778.1,-8.72 767.97,-11.82 777.82,-15.71 778.1,-8.72"/>
</a>
</g>
</g>
<!-- Node20&#45;&gt;Node3 -->
<g id="edge41_Node000020_Node000003" class="edge">
<title>Node20&#45;&gt;Node3</title>
<g id="a_edge41_Node000020_Node000003"><a xlink:title=" ">
<path fill="none" stroke="#63b8ff" d="M200.33,-60.5C214.13,-58.8 231.88,-56.67 247.68,-55 408.35,-38 599.43,-21.54 685.55,-14.32"/>
<polygon fill="#63b8ff" stroke="#63b8ff" points="685.85,-17.8 695.52,-13.48 685.27,-10.83 685.85,-17.8"/>
</a>
</g>
</g>
<!-- Node20&#45;&gt;Node4 -->
<g id="edge42_Node000020_Node000004" class="edge">
<title>Node20&#45;&gt;Node4</title>
<g id="a_edge42_Node000020_Node000004"><a xlink:title=" ">
<path fill="none" stroke="#63b8ff" d="M200.35,-57.95C205.08,-56.91 210.03,-55.88 214.68,-55 287.91,-41.21 372.14,-28.65 430.89,-20.41"/>
<polygon fill="#63b8ff" stroke="#63b8ff" points="431.41,-23.88 440.83,-19.03 430.44,-16.94 431.41,-23.88"/>
</a>
</g>
</g>
<!-- Node20&#45;&gt;Node6 -->
<g id="edge43_Node000020_Node000006" class="edge">
<title>Node20&#45;&gt;Node6</title>
<g id="a_edge43_Node000020_Node000006"><a xlink:title=" ">
<path fill="none" stroke="#63b8ff" d="M171.4,-54.75C166.97,-47.42 160.52,-36.73 155.06,-27.7"/>
<polygon fill="#63b8ff" stroke="#63b8ff" points="158.03,-25.84 149.87,-19.09 152.04,-29.46 158.03,-25.84"/>
</a>
</g>
</g>
<!-- Node21&#45;&gt;Node3 -->
<g id="edge45_Node000021_Node000003" class="edge">
<title>Node21&#45;&gt;Node3</title>
<g id="a_edge45_Node000021_Node000003"><a xlink:title=" ">
<path fill="none" stroke="#63b8ff" d="M703.3,-54.75C708,-47.42 714.86,-36.73 720.65,-27.7"/>
<polygon fill="#63b8ff" stroke="#63b8ff" points="723.72,-29.4 726.17,-19.09 717.83,-25.62 723.72,-29.4"/>
</a>
</g>
</g>
<!-- Node21&#45;&gt;Node4 -->
<g id="edge46_Node000021_Node000004" class="edge">
<title>Node21&#45;&gt;Node4</title>
<g id="a_edge46_Node000021_Node000004"><a xlink:title=" ">
<path fill="none" stroke="#63b8ff" d="M673.63,-56.89C641.63,-48.11 584.57,-32.44 545.71,-21.77"/>
<polygon fill="#63b8ff" stroke="#63b8ff" points="546.32,-18.31 535.75,-19.03 544.47,-25.06 546.32,-18.31"/>
</a>
</g>
</g>
<!-- Node22&#45;&gt;Node3 -->
<g id="edge48_Node000022_Node000003" class="edge">
<title>Node22&#45;&gt;Node3</title>
<g id="a_edge48_Node000022_Node000003"><a xlink:title=" ">
<path fill="none" stroke="#63b8ff" d="M912.98,-54.98C875.93,-45.89 817.09,-31.46 776.55,-21.51"/>
<polygon fill="#63b8ff" stroke="#63b8ff" points="777.2,-18.07 766.66,-19.08 775.54,-24.86 777.2,-18.07"/>
</a>
</g>
</g>
<!-- Node22&#45;&gt;Node4 -->
<g id="edge49_Node000022_Node000004" class="edge">
<title>Node22&#45;&gt;Node4</title>
<g id="a_edge49_Node000022_Node000004"><a xlink:title=" ">
<path fill="none" stroke="#63b8ff" d="M910.01,-56.46C906.86,-55.94 903.72,-55.44 900.68,-55 792.53,-39.16 667.04,-25.92 586.81,-18.11"/>
<polygon fill="#63b8ff" stroke="#63b8ff" points="587.06,-14.62 576.77,-17.14 586.38,-21.58 587.06,-14.62"/>
</a>
</g>
</g>
<!-- Node22&#45;&gt;Node16 -->
<g id="edge50_Node000022_Node000016" class="edge">
<title>Node22&#45;&gt;Node16</title>
<g id="a_edge50_Node000022_Node000016"><a xlink:title=" ">
<path fill="none" stroke="#63b8ff" d="M955.11,-54.75C961.54,-47.18 970.99,-36.05 978.81,-26.84"/>
<polygon fill="#63b8ff" stroke="#63b8ff" points="981.59,-28.98 985.39,-19.09 976.25,-24.45 981.59,-28.98"/>
</a>
</g>
</g>
<!-- Node23&#45;&gt;Node3 -->
<g id="edge52_Node000023_Node000003" class="edge">
<title>Node23&#45;&gt;Node3</title>
<g id="a_edge52_Node000023_Node000003"><a xlink:title=" ">
<path fill="none" stroke="#63b8ff" d="M1524.99,-56.17C1521.84,-55.74 1518.72,-55.34 1515.68,-55 1371.27,-38.92 923.77,-18.76 778.06,-12.47"/>
<polygon fill="#63b8ff" stroke="#63b8ff" points="777.84,-8.96 767.69,-12.02 777.53,-15.95 777.84,-8.96"/>
</a>
</g>
</g>
<!-- Node24 -->
<g id="Node000024" class="node">
<title>Node24</title>
<g id="a_Node000024"><a xlink:title=" ">
<polygon fill="#e0e0e0" stroke="#999999" points="1597.68,-19 1535.68,-19 1535.68,0 1597.68,0 1597.68,-19"/>
<text text-anchor="middle" x="1566.68" y="-7" font-family="Helvetica,sans-Serif" font-size="10.00">stdbool.h</text>
</a>
</g>
</g>
<!-- Node23&#45;&gt;Node24 -->
<g id="edge53_Node000023_Node000024" class="edge">
<title>Node23&#45;&gt;Node24</title>
<g id="a_edge53_Node000023_Node000024"><a xlink:title=" ">
<path fill="none" stroke="#63b8ff" d="M1566.68,-54.75C1566.68,-47.8 1566.68,-37.85 1566.68,-29.13"/>
<polygon fill="#63b8ff" stroke="#63b8ff" points="1570.18,-29.09 1566.68,-19.09 1563.18,-29.09 1570.18,-29.09"/>
</a>
</g>
</g>
<!-- Node25&#45;&gt;Node3 -->
<g id="edge55_Node000025_Node000003" class="edge">
<title>Node25&#45;&gt;Node3</title>
<g id="a_edge55_Node000025_Node000003"><a xlink:title=" ">
<path fill="none" stroke="#63b8ff" d="M1003.59,-56.83C1000.24,-56.2 996.9,-55.58 993.68,-55 918.14,-41.29 830.1,-26.6 777.73,-18"/>
<polygon fill="#63b8ff" stroke="#63b8ff" points="778.19,-14.53 767.75,-16.36 777.05,-21.43 778.19,-14.53"/>
</a>
</g>
</g>
<!-- Node25&#45;&gt;Node4 -->
<g id="edge56_Node000025_Node000004" class="edge">
<title>Node25&#45;&gt;Node4</title>
<g id="a_edge56_Node000025_Node000004"><a xlink:title=" ">
<path fill="none" stroke="#63b8ff" d="M1003.63,-56.57C1000.28,-56 996.92,-55.46 993.68,-55 851.43,-34.84 684.54,-21.94 587.11,-15.47"/>
<polygon fill="#63b8ff" stroke="#63b8ff" points="587.24,-11.97 577.03,-14.81 586.78,-18.96 587.24,-11.97"/>
</a>
</g>
</g>
<!-- Node25&#45;&gt;Node16 -->
<g id="edge57_Node000025_Node000016" class="edge">
<title>Node25&#45;&gt;Node16</title>
<g id="a_edge57_Node000025_Node000016"><a xlink:title=" ">
<path fill="none" stroke="#63b8ff" d="M1030.25,-54.75C1023.83,-47.18 1014.38,-36.05 1006.56,-26.84"/>
<polygon fill="#63b8ff" stroke="#63b8ff" points="1009.12,-24.45 999.98,-19.09 1003.78,-28.98 1009.12,-24.45"/>
</a>
</g>
</g>
<!-- Node26&#45;&gt;Node3 -->
<g id="edge59_Node000026_Node000003" class="edge">
<title>Node26&#45;&gt;Node3</title>
<g id="a_edge59_Node000026_Node000003"><a xlink:title=" ">
<path fill="none" stroke="#63b8ff" d="M1089.57,-56.33C1086.56,-55.87 1083.58,-55.42 1080.68,-55 972.53,-39.27 845.07,-23.79 778.13,-15.89"/>
<polygon fill="#63b8ff" stroke="#63b8ff" points="778.25,-12.39 767.91,-14.69 777.44,-19.34 778.25,-12.39"/>
</a>
</g>
</g>
<!-- Node27&#45;&gt;Node3 -->
<g id="edge61_Node000027_Node000003" class="edge">
<title>Node27&#45;&gt;Node3</title>
<g id="a_edge61_Node000027_Node000003"><a xlink:title=" ">
<path fill="none" stroke="#63b8ff" d="M1193.89,-56.85C1190.8,-56.16 1187.68,-55.52 1184.68,-55 1037.21,-29.46 859.99,-17.36 777.77,-12.78"/>
<polygon fill="#63b8ff" stroke="#63b8ff" points="777.92,-9.29 767.75,-12.24 777.54,-16.28 777.92,-9.29"/>
</a>
</g>
</g>
</g>
</svg>
