<?xml version="1.0" encoding="UTF-8" standalone="no"?>
<!DOCTYPE svg PUBLIC "-//W3C//DTD SVG 1.1//EN"
 "http://www.w3.org/Graphics/SVG/1.1/DTD/svg11.dtd">
<!-- Generated by graphviz version 14.1.4 (20260321.0153)
 -->
<!-- Title: sauvegarde_choisir_slot Pages: 1 -->
<svg width="408pt" height="332pt"
 viewBox="0.00 0.00 408.00 332.00" xmlns="http://www.w3.org/2000/svg" xmlns:xlink="http://www.w3.org/1999/xlink">
<g id="graph0" class="graph" transform="scale(1 1) rotate(0) translate(4 328)">
<title>sauvegarde_choisir_slot</title>
<!-- Node1 -->
<g id="Node000001" class="node">
<title>Node1</title>
<g id="a_Node000001"><a xlink:title="Affiche l&#39;interface de selection de slot (chargement ou sauvegarde).">
<polygon fill="#999999" stroke="#666666" points="121,-172 0,-172 0,-152 121,-152 121,-172"/>
<text xml:space="preserve" text-anchor="middle" x="60.5" y="-158.5" font-family="Helvetica,sans-Serif" font-size="10.00">sauvegarde_choisir_slot</text>
</a>
</g>
</g>
<!-- Node2 -->
<g id="Node000002" class="node">
<title>Node2</title>
<g id="a_Node000002"><a xlink:href="bouton_8c.html#af33c1c08b52d3d015ff6f7039a9734ee" target="_top" xlink:title="Affiche texte centre et met a jour les elements visuels associes.">
<polygon fill="white" stroke="#666666" points="273.12,-324 166.38,-324 166.38,-304 273.12,-304 273.12,-324"/>
<text xml:space="preserve" text-anchor="middle" x="219.75" y="-310.5" font-family="Helvetica,sans-Serif" font-size="10.00">afficher_texte_centre</text>
</a>
</g>
</g>
<!-- Node1&#45;&gt;Node2 -->
<g id="edge1_Node000001_Node000002" class="edge">
<title>Node1&#45;&gt;Node2</title>
<g id="a_edge1_Node000001_Node000002"><a xlink:title=" ">
<path fill="none" stroke="#63b8ff" d="M66.06,-172.41C77.55,-197.42 110.15,-261.32 157,-295 158.78,-296.28 160.64,-297.47 162.57,-298.58"/>
<polygon fill="#63b8ff" stroke="#63b8ff" points="160.75,-301.59 171.27,-302.85 163.83,-295.31 160.75,-301.59"/>
</a>
</g>
</g>
<!-- Node3 -->
<g id="Node000003" class="node">
<title>Node3</title>
<g id="a_Node000003"><a xlink:href="bouton_8c.html#a11f55905044ef2518b8c38311df3c48d" target="_top" xlink:title="Dessine la texture du bouton dans son rectangle d&#39;affichage.">
<polygon fill="white" stroke="#666666" points="262.25,-286 177.25,-286 177.25,-266 262.25,-266 262.25,-286"/>
<text xml:space="preserve" text-anchor="middle" x="219.75" y="-272.5" font-family="Helvetica,sans-Serif" font-size="10.00">Bouton_Afficher</text>
</a>
</g>
</g>
<!-- Node1&#45;&gt;Node3 -->
<g id="edge2_Node000001_Node000003" class="edge">
<title>Node1&#45;&gt;Node3</title>
<g id="a_edge2_Node000001_Node000003"><a xlink:title=" ">
<path fill="none" stroke="#63b8ff" d="M68.97,-172.21C83.67,-191.57 118.3,-233.77 157,-257 159.98,-258.79 163.15,-260.42 166.41,-261.92"/>
<polygon fill="#63b8ff" stroke="#63b8ff" points="165.05,-265.14 175.63,-265.64 167.67,-258.65 165.05,-265.14"/>
</a>
</g>
</g>
<!-- Node4 -->
<g id="Node000004" class="node">
<title>Node4</title>
<g id="a_Node000004"><a xlink:href="bouton_8c.html#ab4862740c43f8a9abb996fff0aba5ca1" target="_top" xlink:title="Met a jour l&#39;etat du bouton a partir d&#39;un evenement SDL.">
<polygon fill="white" stroke="#666666" points="282.5,-248 157,-248 157,-228 282.5,-228 282.5,-248"/>
<text xml:space="preserve" text-anchor="middle" x="219.75" y="-234.5" font-family="Helvetica,sans-Serif" font-size="10.00">Bouton_GererEvenement</text>
</a>
</g>
</g>
<!-- Node1&#45;&gt;Node4 -->
<g id="edge3_Node000001_Node000004" class="edge">
<title>Node1&#45;&gt;Node4</title>
<g id="a_edge3_Node000001_Node000004"><a xlink:title=" ">
<path fill="none" stroke="#63b8ff" d="M76.44,-172.46C94.73,-184.91 127.01,-205.67 157,-219 160.81,-220.69 164.82,-222.3 168.88,-223.8"/>
<polygon fill="#63b8ff" stroke="#63b8ff" points="167.66,-227.08 178.26,-227.04 169.95,-220.47 167.66,-227.08"/>
</a>
</g>
</g>
<!-- Node6 -->
<g id="Node000006" class="node">
<title>Node6</title>
<g id="a_Node000006"><a xlink:href="bouton_8c.html#a482b1feb9004901d0544e64b1c44051c" target="_top" xlink:title="Initialise un bouton (zone, texture et etat d&#39;interaction).">
<polygon fill="white" stroke="#666666" points="252.5,-210 187,-210 187,-190 252.5,-190 252.5,-210"/>
<text xml:space="preserve" text-anchor="middle" x="219.75" y="-196.5" font-family="Helvetica,sans-Serif" font-size="10.00">Bouton_Init</text>
</a>
</g>
</g>
<!-- Node1&#45;&gt;Node6 -->
<g id="edge5_Node000001_Node000006" class="edge">
<title>Node1&#45;&gt;Node6</title>
<g id="a_edge5_Node000001_Node000006"><a xlink:title=" ">
<path fill="none" stroke="#63b8ff" d="M104.89,-172.48C127.03,-177.83 153.87,-184.32 175.93,-189.65"/>
<polygon fill="#63b8ff" stroke="#63b8ff" points="174.96,-193.02 185.51,-191.97 176.61,-186.22 174.96,-193.02"/>
</a>
</g>
</g>
<!-- Node7 -->
<g id="Node000007" class="node">
<title>Node7</title>
<g id="a_Node000007"><a xlink:href="sauvegarde_8c.html#aeb4954bdff741edc886abc066b4d9b49" target="_top" xlink:title=" ">
<polygon fill="white" stroke="#666666" points="252.12,-172 187.38,-172 187.38,-152 252.12,-152 252.12,-172"/>
<text xml:space="preserve" text-anchor="middle" x="219.75" y="-158.5" font-family="Helvetica,sans-Serif" font-size="10.00">creer_texte</text>
</a>
</g>
</g>
<!-- Node1&#45;&gt;Node7 -->
<g id="edge6_Node000001_Node000007" class="edge">
<title>Node1&#45;&gt;Node7</title>
<g id="a_edge6_Node000001_Node000007"><a xlink:title=" ">
<path fill="none" stroke="#63b8ff" d="M121.4,-162C139.59,-162 159.21,-162 176.03,-162"/>
<polygon fill="#63b8ff" stroke="#63b8ff" points="175.66,-165.5 185.66,-162 175.66,-158.5 175.66,-165.5"/>
</a>
</g>
</g>
<!-- Node8 -->
<g id="Node000008" class="node">
<title>Node8</title>
<g id="a_Node000008"><a xlink:href="sauvegarde_8c.html#a590205a1d58df634530e608349c8dc6f" target="_top" xlink:title="Verifie si un fichier de sauvegarde existe pour un slot donne.">
<polygon fill="white" stroke="#666666" points="279.12,-134 160.38,-134 160.38,-114 279.12,-114 279.12,-134"/>
<text xml:space="preserve" text-anchor="middle" x="219.75" y="-120.5" font-family="Helvetica,sans-Serif" font-size="10.00">sauvegarde_slot_existe</text>
</a>
</g>
</g>
<!-- Node1&#45;&gt;Node8 -->
<g id="edge7_Node000001_Node000008" class="edge">
<title>Node1&#45;&gt;Node8</title>
<g id="a_edge7_Node000001_Node000008"><a xlink:title=" ">
<path fill="none" stroke="#63b8ff" d="M104.89,-151.52C123.28,-147.07 144.91,-141.84 164.35,-137.15"/>
<polygon fill="#63b8ff" stroke="#63b8ff" points="165.14,-140.56 174.03,-134.81 163.49,-133.75 165.14,-140.56"/>
</a>
</g>
</g>
<!-- Node10 -->
<g id="Node000010" class="node">
<title>Node10</title>
<g id="a_Node000010"><a xlink:href="main_8h.html#a6c672075bc554c92548a916c9501bdb5" target="_top" xlink:title=" ">
<polygon fill="white" stroke="#666666" points="263.75,-96 175.75,-96 175.75,-76 263.75,-76 263.75,-96"/>
<text xml:space="preserve" text-anchor="middle" x="219.75" y="-82.5" font-family="Helvetica,sans-Serif" font-size="10.00">screen_center_x</text>
</a>
</g>
</g>
<!-- Node1&#45;&gt;Node10 -->
<g id="edge9_Node000001_Node000010" class="edge">
<title>Node1&#45;&gt;Node10</title>
<g id="a_edge9_Node000001_Node000010"><a xlink:title=" ">
<path fill="none" stroke="#63b8ff" d="M76.44,-151.54C94.73,-139.09 127.01,-118.33 157,-105 160.81,-103.31 164.82,-101.7 168.88,-100.2"/>
<polygon fill="#63b8ff" stroke="#63b8ff" points="169.95,-103.53 178.26,-96.96 167.66,-96.92 169.95,-103.53"/>
</a>
</g>
</g>
<!-- Node12 -->
<g id="Node000012" class="node">
<title>Node12</title>
<g id="a_Node000012"><a xlink:href="main_8h.html#a6456affd0d0a21e911b531a5ba25676d" target="_top" xlink:title=" ">
<polygon fill="white" stroke="#666666" points="263.75,-58 175.75,-58 175.75,-38 263.75,-38 263.75,-58"/>
<text xml:space="preserve" text-anchor="middle" x="219.75" y="-44.5" font-family="Helvetica,sans-Serif" font-size="10.00">screen_center_y</text>
</a>
</g>
</g>
<!-- Node1&#45;&gt;Node12 -->
<g id="edge11_Node000001_Node000012" class="edge">
<title>Node1&#45;&gt;Node12</title>
<g id="a_edge11_Node000001_Node000012"><a xlink:title=" ">
<path fill="none" stroke="#63b8ff" d="M68.97,-151.79C83.67,-132.43 118.3,-90.23 157,-67 159.57,-65.46 162.28,-64.03 165.07,-62.71"/>
<polygon fill="#63b8ff" stroke="#63b8ff" points="166.13,-66.06 174.01,-58.97 163.43,-59.6 166.13,-66.06"/>
</a>
</g>
</g>
<!-- Node14 -->
<g id="Node000014" class="node">
<title>Node14</title>
<g id="a_Node000014"><a xlink:href="main_8c.html#a82958224f33fa21d40f4f7965f8396bc" target="_top" xlink:title="Met a jour screen metrics en fonction de l&#39;etat courant du jeu.">
<polygon fill="white" stroke="#666666" points="278.38,-20 161.12,-20 161.12,0 278.38,0 278.38,-20"/>
<text xml:space="preserve" text-anchor="middle" x="219.75" y="-6.5" font-family="Helvetica,sans-Serif" font-size="10.00">update_screen_metrics</text>
</a>
</g>
</g>
<!-- Node1&#45;&gt;Node14 -->
<g id="edge13_Node000001_Node000014" class="edge">
<title>Node1&#45;&gt;Node14</title>
<g id="a_edge13_Node000001_Node000014"><a xlink:title=" ">
<path fill="none" stroke="#63b8ff" d="M66.06,-151.59C77.55,-126.58 110.15,-62.68 157,-29 158.78,-27.72 160.64,-26.53 162.57,-25.42"/>
<polygon fill="#63b8ff" stroke="#63b8ff" points="163.83,-28.69 171.27,-21.15 160.75,-22.41 163.83,-28.69"/>
</a>
</g>
</g>
<!-- Node5 -->
<g id="Node000005" class="node">
<title>Node5</title>
<g id="a_Node000005"><a xlink:href="bouton_8c.html#a273a0b22067678e17b3e6b4be36e3641" target="_top" xlink:title=" ">
<polygon fill="white" stroke="#666666" points="399.75,-248 318.5,-248 318.5,-228 399.75,-228 399.75,-248"/>
<text xml:space="preserve" text-anchor="middle" x="359.12" y="-234.5" font-family="Helvetica,sans-Serif" font-size="10.00">pointDansRect</text>
</a>
</g>
</g>
<!-- Node4&#45;&gt;Node5 -->
<g id="edge4_Node000004_Node000005" class="edge">
<title>Node4&#45;&gt;Node5</title>
<g id="a_edge4_Node000004_Node000005"><a xlink:title=" ">
<path fill="none" stroke="#63b8ff" d="M282.61,-238C290.74,-238 299,-238 306.93,-238"/>
<polygon fill="#63b8ff" stroke="#63b8ff" points="306.75,-241.5 316.75,-238 306.75,-234.5 306.75,-241.5"/>
</a>
</g>
</g>
<!-- Node9 -->
<g id="Node000009" class="node">
<title>Node9</title>
<g id="a_Node000009"><a xlink:href="sauvegarde_8c.html#ab305de40501185a8bfc008354c2d0f15" target="_top" xlink:title=" ">
<polygon fill="white" stroke="#666666" points="393.38,-134 324.88,-134 324.88,-114 393.38,-114 393.38,-134"/>
<text xml:space="preserve" text-anchor="middle" x="359.12" y="-120.5" font-family="Helvetica,sans-Serif" font-size="10.00">chemin_slot</text>
</a>
</g>
</g>
<!-- Node8&#45;&gt;Node9 -->
<g id="edge8_Node000008_Node000009" class="edge">
<title>Node8&#45;&gt;Node9</title>
<g id="a_edge8_Node000008_Node000009"><a xlink:title=" ">
<path fill="none" stroke="#63b8ff" d="M279.41,-124C290.76,-124 302.49,-124 313.31,-124"/>
<polygon fill="#63b8ff" stroke="#63b8ff" points="313.13,-127.5 323.13,-124 313.13,-120.5 313.13,-127.5"/>
</a>
</g>
</g>
<!-- Node11 -->
<g id="Node000011" class="node">
<title>Node11</title>
<g id="a_Node000011"><a xlink:href="main_8h.html#aaaa1e9fcb86ff8e60b297faa7815ad1d" target="_top" xlink:title=" ">
<polygon fill="white" stroke="#666666" points="397.5,-96 320.75,-96 320.75,-76 397.5,-76 397.5,-96"/>
<text xml:space="preserve" text-anchor="middle" x="359.12" y="-82.5" font-family="Helvetica,sans-Serif" font-size="10.00">screen_widthf</text>
</a>
</g>
</g>
<!-- Node10&#45;&gt;Node11 -->
<g id="edge10_Node000010_Node000011" class="edge">
<title>Node10&#45;&gt;Node11</title>
<g id="a_edge10_Node000010_Node000011"><a xlink:title=" ">
<path fill="none" stroke="#63b8ff" d="M264.22,-86C278.48,-86 294.43,-86 309.08,-86"/>
<polygon fill="#63b8ff" stroke="#63b8ff" points="308.98,-89.5 318.98,-86 308.98,-82.5 308.98,-89.5"/>
</a>
</g>
</g>
<!-- Node13 -->
<g id="Node000013" class="node">
<title>Node13</title>
<g id="a_Node000013"><a xlink:href="main_8h.html#a9b4aefc63ea00e60ec88da19e24e8236" target="_top" xlink:title=" ">
<polygon fill="white" stroke="#666666" points="399,-58 319.25,-58 319.25,-38 399,-38 399,-58"/>
<text xml:space="preserve" text-anchor="middle" x="359.12" y="-44.5" font-family="Helvetica,sans-Serif" font-size="10.00">screen_heightf</text>
</a>
</g>
</g>
<!-- Node12&#45;&gt;Node13 -->
<g id="edge12_Node000012_Node000013" class="edge">
<title>Node12&#45;&gt;Node13</title>
<g id="a_edge12_Node000012_Node000013"><a xlink:title=" ">
<path fill="none" stroke="#63b8ff" d="M264.22,-48C278.11,-48 293.6,-48 307.93,-48"/>
<polygon fill="#63b8ff" stroke="#63b8ff" points="307.61,-51.5 317.61,-48 307.61,-44.5 307.61,-51.5"/>
</a>
</g>
</g>
</g>
</svg>
