<?xml version="1.0" encoding="UTF-8" standalone="no"?>
<!DOCTYPE svg PUBLIC "-//W3C//DTD SVG 1.1//EN"
 "http://www.w3.org/Graphics/SVG/1.1/DTD/svg11.dtd">
<!-- Generated by graphviz version 14.1.4 (20260321.0153)
 -->
<!-- Title: sauvegarde_appliquer_si_disponible Pages: 1 -->
<svg width="364pt" height="66pt"
 viewBox="0.00 0.00 364.00 66.00" xmlns="http://www.w3.org/2000/svg" xmlns:xlink="http://www.w3.org/1999/xlink">
<g id="graph0" class="graph" transform="scale(1 1) rotate(0) translate(4 62)">
<title>sauvegarde_appliquer_si_disponible</title>
<!-- Node1 -->
<g id="Node000001" class="node">
<title>Node1</title>
<g id="a_Node000001"><a xlink:title="Applique a l&#39;etat global les donnees precedemment chargees si presentes.">
<polygon fill="#999999" stroke="#666666" points="110.5,-45 0,-45 0,-13 110.5,-13 110.5,-45"/>
<text xml:space="preserve" text-anchor="start" x="8" y="-31.5" font-family="Helvetica,sans-Serif" font-size="10.00">sauvegarde_appliquer</text>
<text xml:space="preserve" text-anchor="middle" x="55.25" y="-19.5" font-family="Helvetica,sans-Serif" font-size="10.00">_si_disponible</text>
</a>
</g>
</g>
<!-- Node2 -->
<g id="Node000002" class="node">
<title>Node2</title>
<g id="a_Node000002"><a xlink:href="sauvegarde_8c.html#a4315a4b9ba87a34c26921be907a041ac" target="_top" xlink:title=" ">
<polygon fill="white" stroke="#666666" points="254.38,-58 158.88,-58 158.88,-38 254.38,-38 254.38,-58"/>
<text xml:space="preserve" text-anchor="middle" x="206.62" y="-44.5" font-family="Helvetica,sans-Serif" font-size="10.00">liberer_case_array</text>
</a>
</g>
</g>
<!-- Node1&#45;&gt;Node2 -->
<g id="edge1_Node000001_Node000002" class="edge">
<title>Node1&#45;&gt;Node2</title>
<g id="a_edge1_Node000001_Node000002"><a xlink:title=" ">
<path fill="none" stroke="#63b8ff" d="M110.6,-35.91C122.48,-37.42 135.11,-39.03 147.15,-40.56"/>
<polygon fill="#63b8ff" stroke="#63b8ff" points="146.6,-44.02 156.97,-41.81 147.49,-37.08 146.6,-44.02"/>
</a>
</g>
</g>
<!-- Node3 -->
<g id="Node000003" class="node">
<title>Node3</title>
<g id="a_Node000003"><a xlink:href="sauvegarde_8c.html#a0f767253f223388fe1d131a28fc01d10" target="_top" xlink:title=" ">
<polygon fill="white" stroke="#666666" points="266.75,-20 146.5,-20 146.5,0 266.75,0 266.75,-20"/>
<text xml:space="preserve" text-anchor="middle" x="206.62" y="-6.5" font-family="Helvetica,sans-Serif" font-size="10.00">reconstruire_case_array</text>
</a>
</g>
</g>
<!-- Node1&#45;&gt;Node3 -->
<g id="edge2_Node000001_Node000003" class="edge">
<title>Node1&#45;&gt;Node3</title>
<g id="a_edge2_Node000001_Node000003"><a xlink:title=" ">
<path fill="none" stroke="#63b8ff" d="M110.6,-22.09C118.42,-21.09 126.57,-20.06 134.66,-19.03"/>
<polygon fill="#63b8ff" stroke="#63b8ff" points="135.04,-22.51 144.51,-17.77 134.15,-15.56 135.04,-22.51"/>
</a>
</g>
</g>
<!-- Node4 -->
<g id="Node000004" class="node">
<title>Node4</title>
<g id="a_Node000004"><a xlink:href="item_8c.html#ac066d9bc77b421f23ca66756b7ff4a33" target="_top" xlink:title="Initialise item et prepare les ressources necessaires.">
<polygon fill="white" stroke="#666666" points="355.5,-20 302.75,-20 302.75,0 355.5,0 355.5,-20"/>
<text xml:space="preserve" text-anchor="middle" x="329.12" y="-6.5" font-family="Helvetica,sans-Serif" font-size="10.00">init_item</text>
</a>
</g>
</g>
<!-- Node3&#45;&gt;Node4 -->
<g id="edge3_Node000003_Node000004" class="edge">
<title>Node3&#45;&gt;Node4</title>
<g id="a_edge3_Node000003_Node000004"><a xlink:title=" ">
<path fill="none" stroke="#63b8ff" d="M267.17,-10C275.34,-10 283.53,-10 291.13,-10"/>
<polygon fill="#63b8ff" stroke="#63b8ff" points="291,-13.5 301,-10 291,-6.5 291,-13.5"/>
</a>
</g>
</g>
</g>
</svg>
