<?xml version="1.0" encoding="UTF-8" standalone="no"?>
<!DOCTYPE svg PUBLIC "-//W3C//DTD SVG 1.1//EN"
 "http://www.w3.org/Graphics/SVG/1.1/DTD/svg11.dtd">
<!-- Generated by graphviz version 14.1.4 (20260321.0153)
 -->
<!-- Title: src/headers/sauvegarde.h Pages: 1 -->
<svg width="1747pt" height="196pt"
 viewBox="0.00 0.00 1747.00 196.00" xmlns="http://www.w3.org/2000/svg" xmlns:xlink="http://www.w3.org/1999/xlink">
<g id="graph0" class="graph" transform="scale(1 1) rotate(0) translate(4 192)">
<title>src/headers/sauvegarde.h</title>
<!-- Node1 -->
<g id="Node000001" class="node">
<title>Node1</title>
<g id="a_Node000001"><a xlink:title="Fichier des slots de sauvegarde et du chargement de progression.">
<polygon fill="#999999" stroke="#666666" points="1023.25,-188 894.75,-188 894.75,-168 1023.25,-168 1023.25,-188"/>
<text xml:space="preserve" text-anchor="middle" x="959" y="-174.5" font-family="Helvetica,sans-Serif" font-size="10.00">src/headers/sauvegarde.h</text>
</a>
</g>
</g>
<!-- Node2 -->
<g id="Node000002" class="node">
<title>Node2</title>
<g id="a_Node000002"><a xlink:href="main_8h.html" target="_top" xlink:title="Declarations globales et utilitaires partages entre les modules du jeu.">
<polygon fill="white" stroke="#666666" points="969.62,-132 870.38,-132 870.38,-112 969.62,-112 969.62,-132"/>
<text xml:space="preserve" text-anchor="middle" x="920" y="-118.5" font-family="Helvetica,sans-Serif" font-size="10.00">src/headers/main.h</text>
</a>
</g>
</g>
<!-- Node1&#45;&gt;Node2 -->
<g id="edge1_Node000001_Node000002" class="edge">
<title>Node1&#45;&gt;Node2</title>
<g id="a_edge1_Node000001_Node000002"><a xlink:title=" ">
<path fill="none" stroke="#63b8ff" d="M945.59,-158.44C939.23,-149.62 931.89,-139.47 926.72,-132.3"/>
<polygon fill="#63b8ff" stroke="#63b8ff" points="942.63,-160.31 951.32,-166.37 948.3,-156.21 942.63,-160.31"/>
</a>
</g>
</g>
<!-- Node20 -->
<g id="Node000020" class="node">
<title>Node20</title>
<g id="a_Node000020"><a xlink:href="sauvegarde_8c.html" target="_top" xlink:title="Gestion des sauvegardes, des chargements et des emplacements.">
<polygon fill="white" stroke="#666666" points="1738.5,-76 1647.5,-76 1647.5,-56 1738.5,-56 1738.5,-76"/>
<text xml:space="preserve" text-anchor="middle" x="1693" y="-62.5" font-family="Helvetica,sans-Serif" font-size="10.00">src/sauvegarde.c</text>
</a>
</g>
</g>
<!-- Node1&#45;&gt;Node20 -->
<g id="edge24_Node000001_Node000020" class="edge">
<title>Node1&#45;&gt;Node20</title>
<g id="a_edge24_Node000001_Node000020"><a xlink:title=" ">
<path fill="none" stroke="#63b8ff" d="M1034.65,-166.21C1160.26,-148.19 1419.78,-110.55 1639,-76 1641.63,-75.59 1644.33,-75.15 1647.05,-74.71"/>
<polygon fill="#63b8ff" stroke="#63b8ff" points="1034.18,-162.74 1024.78,-167.62 1035.17,-169.67 1034.18,-162.74"/>
</a>
</g>
</g>
<!-- Node3 -->
<g id="Node000003" class="node">
<title>Node3</title>
<g id="a_Node000003"><a xlink:href="arcade_8c.html" target="_top" xlink:title="Gestion de la séquence d&#39;arcade et de ses ecrans associes.">
<polygon fill="white" stroke="#666666" points="70,-76 0,-76 0,-56 70,-56 70,-76"/>
<text xml:space="preserve" text-anchor="middle" x="35" y="-62.5" font-family="Helvetica,sans-Serif" font-size="10.00">src/arcade.c</text>
</a>
</g>
</g>
<!-- Node2&#45;&gt;Node3 -->
<g id="edge2_Node000002_Node000003" class="edge">
<title>Node2&#45;&gt;Node3</title>
<g id="a_edge2_Node000002_Node000003"><a xlink:title=" ">
<path fill="none" stroke="#63b8ff" d="M858.77,-120.83C719.64,-119.76 369.23,-113.24 79,-76 76.22,-75.64 73.34,-75.21 70.47,-74.72"/>
<polygon fill="#63b8ff" stroke="#63b8ff" points="858.46,-124.32 868.49,-120.89 858.51,-117.32 858.46,-124.32"/>
</a>
</g>
</g>
<!-- Node4 -->
<g id="Node000004" class="node">
<title>Node4</title>
<g id="a_Node000004"><a xlink:href="boss_8c.html" target="_top" xlink:title="Gestion du boss, de ses phases et de ses attaques.">
<polygon fill="white" stroke="#666666" points="149.88,-76 88.12,-76 88.12,-56 149.88,-56 149.88,-76"/>
<text xml:space="preserve" text-anchor="middle" x="119" y="-62.5" font-family="Helvetica,sans-Serif" font-size="10.00">src/boss.c</text>
</a>
</g>
</g>
<!-- Node2&#45;&gt;Node4 -->
<g id="edge3_Node000002_Node000004" class="edge">
<title>Node2&#45;&gt;Node4</title>
<g id="a_edge3_Node000002_Node000004"><a xlink:title=" ">
<path fill="none" stroke="#63b8ff" d="M859.09,-120.74C729.58,-119.46 417.56,-112.49 159,-76 156.18,-75.6 153.27,-75.11 150.35,-74.56"/>
<polygon fill="#63b8ff" stroke="#63b8ff" points="858.77,-124.24 868.8,-120.83 858.83,-117.24 858.77,-124.24"/>
</a>
</g>
</g>
<!-- Node5 -->
<g id="Node000005" class="node">
<title>Node5</title>
<g id="a_Node000005"><a xlink:href="cinematique_8c.html" target="_top" xlink:title="Lecture des cinematics et enchainement des sequences narratives.">
<polygon fill="white" stroke="#666666" points="261.62,-76 168.38,-76 168.38,-56 261.62,-56 261.62,-76"/>
<text xml:space="preserve" text-anchor="middle" x="215" y="-62.5" font-family="Helvetica,sans-Serif" font-size="10.00">src/cinematique.c</text>
</a>
</g>
</g>
<!-- Node2&#45;&gt;Node5 -->
<g id="edge4_Node000002_Node000005" class="edge">
<title>Node2&#45;&gt;Node5</title>
<g id="a_edge4_Node000002_Node000005"><a xlink:title=" ">
<path fill="none" stroke="#63b8ff" d="M858.82,-118.6C743.54,-113.67 486.34,-100.72 271,-76 268.07,-75.66 265.05,-75.28 262.01,-74.87"/>
<polygon fill="#63b8ff" stroke="#63b8ff" points="858.54,-122.09 868.68,-119.01 858.84,-115.1 858.54,-122.09"/>
</a>
</g>
</g>
<!-- Node6 -->
<g id="Node000006" class="node">
<title>Node6</title>
<g id="a_Node000006"><a xlink:href="game__over_8c.html" target="_top" xlink:title="Affichage de l&#39;ecran de fin de partie et retour au menu.">
<polygon fill="white" stroke="#666666" points="368.38,-76 279.62,-76 279.62,-56 368.38,-56 368.38,-76"/>
<text xml:space="preserve" text-anchor="middle" x="324" y="-62.5" font-family="Helvetica,sans-Serif" font-size="10.00">src/game_over.c</text>
</a>
</g>
</g>
<!-- Node2&#45;&gt;Node6 -->
<g id="edge5_Node000002_Node000006" class="edge">
<title>Node2&#45;&gt;Node6</title>
<g id="a_edge5_Node000002_Node000006"><a xlink:title=" ">
<path fill="none" stroke="#63b8ff" d="M858.81,-117.29C758.84,-110.92 554.34,-96.55 382,-76 377.65,-75.48 373.12,-74.88 368.6,-74.25"/>
<polygon fill="#63b8ff" stroke="#63b8ff" points="858.47,-120.78 868.68,-117.92 858.92,-113.79 858.47,-120.78"/>
</a>
</g>
</g>
<!-- Node7 -->
<g id="Node000007" class="node">
<title>Node7</title>
<g id="a_Node000007"><a xlink:href="planete_8h.html" target="_top" xlink:title="Fichier des ecrans de planetes et transitions d&#39;environnement.">
<polygon fill="white" stroke="#666666" points="533.88,-76 424.12,-76 424.12,-56 533.88,-56 533.88,-76"/>
<text xml:space="preserve" text-anchor="middle" x="479" y="-62.5" font-family="Helvetica,sans-Serif" font-size="10.00">src/headers/planete.h</text>
</a>
</g>
</g>
<!-- Node2&#45;&gt;Node7 -->
<g id="edge6_Node000002_Node000007" class="edge">
<title>Node2&#45;&gt;Node7</title>
<g id="a_edge6_Node000002_Node000007"><a xlink:title=" ">
<path fill="none" stroke="#63b8ff" d="M858.91,-114.11C784.31,-105.59 654.29,-90.47 543,-76 540.11,-75.62 537.14,-75.23 534.15,-74.83"/>
<polygon fill="#63b8ff" stroke="#63b8ff" points="858.12,-117.54 868.45,-115.19 858.91,-110.58 858.12,-117.54"/>
</a>
</g>
</g>
<!-- Node8 -->
<g id="Node000008" class="node">
<title>Node8</title>
<g id="a_Node000008"><a xlink:href="jeux_8c.html" target="_top" xlink:title="Boucle principale et orchestration des etats de jeu.">
<polygon fill="white" stroke="#666666" points="425.38,-20 366.62,-20 366.62,0 425.38,0 425.38,-20"/>
<text xml:space="preserve" text-anchor="middle" x="396" y="-6.5" font-family="Helvetica,sans-Serif" font-size="10.00">src/jeux.c</text>
</a>
</g>
</g>
<!-- Node2&#45;&gt;Node8 -->
<g id="edge11_Node000002_Node000008" class="edge">
<title>Node2&#45;&gt;Node8</title>
<g id="a_edge11_Node000002_Node000008"><a xlink:title=" ">
<path fill="none" stroke="#63b8ff" d="M858.83,-119.37C731.85,-115.43 448.64,-103.63 415,-76 398.28,-62.27 395.78,-34.7 395.7,-20.27"/>
<polygon fill="#63b8ff" stroke="#63b8ff" points="858.64,-122.86 868.74,-119.67 858.85,-115.86 858.64,-122.86"/>
</a>
</g>
</g>
<!-- Node10 -->
<g id="Node000010" class="node">
<title>Node10</title>
<g id="a_Node000010"><a xlink:href="inventaire_8c.html" target="_top" xlink:title="Gestion de l&#39;inventaire, de la hotbar et des objets ramassables.">
<polygon fill="white" stroke="#666666" points="634.38,-76 551.62,-76 551.62,-56 634.38,-56 634.38,-76"/>
<text xml:space="preserve" text-anchor="middle" x="593" y="-62.5" font-family="Helvetica,sans-Serif" font-size="10.00">src/inventaire.c</text>
</a>
</g>
</g>
<!-- Node2&#45;&gt;Node10 -->
<g id="edge9_Node000002_Node000010" class="edge">
<title>Node2&#45;&gt;Node10</title>
<g id="a_edge9_Node000002_Node000010"><a xlink:title=" ">
<path fill="none" stroke="#63b8ff" d="M858.74,-111.35C802.58,-102.44 717.13,-88.69 643,-76 640.3,-75.54 637.53,-75.06 634.73,-74.57"/>
<polygon fill="#63b8ff" stroke="#63b8ff" points="858,-114.78 868.42,-112.89 859.09,-107.87 858,-114.78"/>
</a>
</g>
</g>
<!-- Node11 -->
<g id="Node000011" class="node">
<title>Node11</title>
<g id="a_Node000011"><a xlink:href="item_8c.html" target="_top" xlink:title="Creation, affichage et ramassage des objets du monde.">
<polygon fill="white" stroke="#666666" points="711.75,-76 652.25,-76 652.25,-56 711.75,-56 711.75,-76"/>
<text xml:space="preserve" text-anchor="middle" x="682" y="-62.5" font-family="Helvetica,sans-Serif" font-size="10.00">src/item.c</text>
</a>
</g>
</g>
<!-- Node2&#45;&gt;Node11 -->
<g id="edge10_Node000002_Node000011" class="edge">
<title>Node2&#45;&gt;Node11</title>
<g id="a_edge10_Node000002_Node000011"><a xlink:title=" ">
<path fill="none" stroke="#63b8ff" d="M866.94,-109.07C826.84,-100.04 770.45,-87.3 721,-76 718.15,-75.35 715.19,-74.67 712.23,-73.99"/>
<polygon fill="#63b8ff" stroke="#63b8ff" points="866.06,-112.46 876.58,-111.24 867.6,-105.63 866.06,-112.46"/>
</a>
</g>
</g>
<!-- Node12 -->
<g id="Node000012" class="node">
<title>Node12</title>
<g id="a_Node000012"><a xlink:href="main_8c.html" target="_top" xlink:title="Point d&#39;entree du jeu et orchestration globale des ecrans.">
<polygon fill="white" stroke="#666666" points="791.88,-76 730.12,-76 730.12,-56 791.88,-56 791.88,-76"/>
<text xml:space="preserve" text-anchor="middle" x="761" y="-62.5" font-family="Helvetica,sans-Serif" font-size="10.00">src/main.c</text>
</a>
</g>
</g>
<!-- Node2&#45;&gt;Node12 -->
<g id="edge12_Node000002_Node000012" class="edge">
<title>Node2&#45;&gt;Node12</title>
<g id="a_edge12_Node000002_Node000012"><a xlink:title=" ">
<path fill="none" stroke="#63b8ff" d="M881.49,-107.92C852.9,-98.21 814.59,-85.2 788.91,-76.48"/>
<polygon fill="#63b8ff" stroke="#63b8ff" points="880.28,-111.21 890.87,-111.11 882.53,-104.58 880.28,-111.21"/>
</a>
</g>
</g>
<!-- Node13 -->
<g id="Node000013" class="node">
<title>Node13</title>
<g id="a_Node000013"><a xlink:href="map_8c.html" target="_top" xlink:title="Chargement, rendu et interactions de la carte du monde.">
<polygon fill="white" stroke="#666666" points="869.75,-76 810.25,-76 810.25,-56 869.75,-56 869.75,-76"/>
<text xml:space="preserve" text-anchor="middle" x="840" y="-62.5" font-family="Helvetica,sans-Serif" font-size="10.00">src/map.c</text>
</a>
</g>
</g>
<!-- Node2&#45;&gt;Node13 -->
<g id="edge13_Node000002_Node000013" class="edge">
<title>Node2&#45;&gt;Node13</title>
<g id="a_edge13_Node000002_Node000013"><a xlink:title=" ">
<path fill="none" stroke="#63b8ff" d="M896.7,-105.27C882.88,-95.94 865.82,-84.43 854.04,-76.48"/>
<polygon fill="#63b8ff" stroke="#63b8ff" points="894.56,-108.05 904.81,-110.75 898.48,-102.25 894.56,-108.05"/>
</a>
</g>
</g>
<!-- Node14 -->
<g id="Node000014" class="node">
<title>Node14</title>
<g id="a_Node000014"><a xlink:href="menu_8c.html" target="_top" xlink:title="Menu principal et navigation entre les ecrans.">
<polygon fill="white" stroke="#666666" points="952.38,-76 887.62,-76 887.62,-56 952.38,-56 952.38,-76"/>
<text xml:space="preserve" text-anchor="middle" x="920" y="-62.5" font-family="Helvetica,sans-Serif" font-size="10.00">src/menu.c</text>
</a>
</g>
</g>
<!-- Node2&#45;&gt;Node14 -->
<g id="edge14_Node000002_Node000014" class="edge">
<title>Node2&#45;&gt;Node14</title>
<g id="a_edge14_Node000002_Node000014"><a xlink:title=" ">
<path fill="none" stroke="#63b8ff" d="M920,-100.13C920,-91.9 920,-82.85 920,-76.3"/>
<polygon fill="#63b8ff" stroke="#63b8ff" points="916.5,-100.08 920,-110.08 923.5,-100.08 916.5,-100.08"/>
</a>
</g>
</g>
<!-- Node15 -->
<g id="Node000015" class="node">
<title>Node15</title>
<g id="a_Node000015"><a xlink:href="mob_8c.html" target="_top" xlink:title="Gestion des ennemis, de leur deplacement et de leur apparition.">
<polygon fill="white" stroke="#666666" points="1029.75,-76 970.25,-76 970.25,-56 1029.75,-56 1029.75,-76"/>
<text xml:space="preserve" text-anchor="middle" x="1000" y="-62.5" font-family="Helvetica,sans-Serif" font-size="10.00">src/mob.c</text>
</a>
</g>
</g>
<!-- Node2&#45;&gt;Node15 -->
<g id="edge15_Node000002_Node000015" class="edge">
<title>Node2&#45;&gt;Node15</title>
<g id="a_edge15_Node000002_Node000015"><a xlink:title=" ">
<path fill="none" stroke="#63b8ff" d="M943.3,-105.27C957.12,-95.94 974.18,-84.43 985.96,-76.48"/>
<polygon fill="#63b8ff" stroke="#63b8ff" points="941.52,-102.25 935.19,-110.75 945.44,-108.05 941.52,-102.25"/>
</a>
</g>
</g>
<!-- Node16 -->
<g id="Node000016" class="node">
<title>Node16</title>
<g id="a_Node000016"><a xlink:href="objectifs_8c.html" target="_top" xlink:title="Gestion des objectifs de progression et de leur affichage.">
<polygon fill="white" stroke="#666666" points="1125.75,-76 1048.25,-76 1048.25,-56 1125.75,-56 1125.75,-76"/>
<text xml:space="preserve" text-anchor="middle" x="1087" y="-62.5" font-family="Helvetica,sans-Serif" font-size="10.00">src/objectifs.c</text>
</a>
</g>
</g>
<!-- Node2&#45;&gt;Node16 -->
<g id="edge16_Node000002_Node000016" class="edge">
<title>Node2&#45;&gt;Node16</title>
<g id="a_edge16_Node000002_Node000016"><a xlink:title=" ">
<path fill="none" stroke="#63b8ff" d="M959.66,-108.18C989.76,-98.44 1030.48,-85.28 1057.68,-76.48"/>
<polygon fill="#63b8ff" stroke="#63b8ff" points="958.97,-104.72 950.53,-111.13 961.12,-111.38 958.97,-104.72"/>
</a>
</g>
</g>
<!-- Node17 -->
<g id="Node000017" class="node">
<title>Node17</title>
<g id="a_Node000017"><a xlink:href="option_8c.html" target="_top" xlink:title="Menu des options audio et aide aux commandes.">
<polygon fill="white" stroke="#666666" points="1210.5,-76 1143.5,-76 1143.5,-56 1210.5,-56 1210.5,-76"/>
<text xml:space="preserve" text-anchor="middle" x="1177" y="-62.5" font-family="Helvetica,sans-Serif" font-size="10.00">src/option.c</text>
</a>
</g>
</g>
<!-- Node2&#45;&gt;Node17 -->
<g id="edge17_Node000002_Node000017" class="edge">
<title>Node2&#45;&gt;Node17</title>
<g id="a_edge17_Node000002_Node000017"><a xlink:title=" ">
<path fill="none" stroke="#63b8ff" d="M976.49,-109.25C1019.86,-100.22 1081.23,-87.39 1135,-76 1137.63,-75.44 1140.34,-74.87 1143.08,-74.28"/>
<polygon fill="#63b8ff" stroke="#63b8ff" points="975.87,-105.81 966.79,-111.27 977.3,-112.66 975.87,-105.81"/>
</a>
</g>
</g>
<!-- Node18 -->
<g id="Node000018" class="node">
<title>Node18</title>
<g id="a_Node000018"><a xlink:href="pause_8c.html" target="_top" xlink:title="Menu pause et actions disponibles pendant une partie.">
<polygon fill="white" stroke="#666666" points="1295.5,-76 1228.5,-76 1228.5,-56 1295.5,-56 1295.5,-76"/>
<text xml:space="preserve" text-anchor="middle" x="1262" y="-62.5" font-family="Helvetica,sans-Serif" font-size="10.00">src/pause.c</text>
</a>
</g>
</g>
<!-- Node2&#45;&gt;Node18 -->
<g id="edge18_Node000002_Node000018" class="edge">
<title>Node2&#45;&gt;Node18</title>
<g id="a_edge18_Node000002_Node000018"><a xlink:title=" ">
<path fill="none" stroke="#63b8ff" d="M981.13,-112.84C1041.68,-104.51 1136.97,-90.74 1219,-76 1222,-75.46 1225.12,-74.87 1228.23,-74.26"/>
<polygon fill="#63b8ff" stroke="#63b8ff" points="980.81,-109.35 971.37,-114.17 981.75,-116.29 980.81,-109.35"/>
</a>
</g>
</g>
<!-- Node19 -->
<g id="Node000019" class="node">
<title>Node19</title>
<g id="a_Node000019"><a xlink:href="perso_8c.html" target="_top" xlink:title="Deplacement, animation, combat et collecte du personnage.">
<polygon fill="white" stroke="#666666" points="1378.38,-76 1313.62,-76 1313.62,-56 1378.38,-56 1378.38,-76"/>
<text xml:space="preserve" text-anchor="middle" x="1346" y="-62.5" font-family="Helvetica,sans-Serif" font-size="10.00">src/perso.c</text>
</a>
</g>
</g>
<!-- Node2&#45;&gt;Node19 -->
<g id="edge19_Node000002_Node000019" class="edge">
<title>Node2&#45;&gt;Node19</title>
<g id="a_edge19_Node000002_Node000019"><a xlink:title=" ">
<path fill="none" stroke="#63b8ff" d="M981.33,-115.73C1057.53,-108.76 1191.37,-95.06 1305,-76 1307.73,-75.54 1310.55,-75.02 1313.38,-74.47"/>
<polygon fill="#63b8ff" stroke="#63b8ff" points="981.21,-112.23 971.57,-116.62 981.84,-119.2 981.21,-112.23"/>
</a>
</g>
</g>
<!-- Node2&#45;&gt;Node20 -->
<g id="edge20_Node000002_Node000020" class="edge">
<title>Node2&#45;&gt;Node20</title>
<g id="a_edge20_Node000002_Node000020"><a xlink:title=" ">
<path fill="none" stroke="#63b8ff" d="M980.98,-119.3C1105.16,-115.36 1396.19,-103.76 1639,-76 1641.64,-75.7 1644.36,-75.35 1647.09,-74.98"/>
<polygon fill="#63b8ff" stroke="#63b8ff" points="981.24,-115.79 971.35,-119.59 981.46,-122.78 981.24,-115.79"/>
</a>
</g>
</g>
<!-- Node21 -->
<g id="Node000021" class="node">
<title>Node21</title>
<g id="a_Node000021"><a xlink:href="shop_8c.html" target="_top" xlink:title="Interface de boutique du vaisseau et achats du joueur.">
<polygon fill="white" stroke="#666666" points="1457.88,-76 1396.12,-76 1396.12,-56 1457.88,-56 1457.88,-76"/>
<text xml:space="preserve" text-anchor="middle" x="1427" y="-62.5" font-family="Helvetica,sans-Serif" font-size="10.00">src/shop.c</text>
</a>
</g>
</g>
<!-- Node2&#45;&gt;Node21 -->
<g id="edge21_Node000002_Node000021" class="edge">
<title>Node2&#45;&gt;Node21</title>
<g id="a_edge21_Node000002_Node000021"><a xlink:title=" ">
<path fill="none" stroke="#63b8ff" d="M981.32,-117.55C1070.88,-111.95 1242.53,-99.12 1387,-76 1389.81,-75.55 1392.72,-75.02 1395.63,-74.45"/>
<polygon fill="#63b8ff" stroke="#63b8ff" points="981.3,-114.04 971.53,-118.15 981.73,-121.03 981.3,-114.04"/>
</a>
</g>
</g>
<!-- Node22 -->
<g id="Node000022" class="node">
<title>Node22</title>
<g id="a_Node000022"><a xlink:href="son_8c.html" target="_top" xlink:title="Gestion des musiques, des effets sonores et de leur etat.">
<polygon fill="white" stroke="#666666" points="1532.25,-76 1475.75,-76 1475.75,-56 1532.25,-56 1532.25,-76"/>
<text xml:space="preserve" text-anchor="middle" x="1504" y="-62.5" font-family="Helvetica,sans-Serif" font-size="10.00">src/son.c</text>
</a>
</g>
</g>
<!-- Node2&#45;&gt;Node22 -->
<g id="edge22_Node000002_Node000022" class="edge">
<title>Node2&#45;&gt;Node22</title>
<g id="a_edge22_Node000002_Node000022"><a xlink:title=" ">
<path fill="none" stroke="#63b8ff" d="M981.35,-119.08C1082.93,-115.21 1292.19,-104.27 1467,-76 1469.74,-75.56 1472.58,-75.02 1475.41,-74.42"/>
<polygon fill="#63b8ff" stroke="#63b8ff" points="981.47,-115.58 971.61,-119.44 981.73,-122.57 981.47,-115.58"/>
</a>
</g>
</g>
<!-- Node23 -->
<g id="Node000023" class="node">
<title>Node23</title>
<g id="a_Node000023"><a xlink:href="vaisseau_8c.html" target="_top" xlink:title="Exploration du vaisseau, interactions et retour vers la planete.">
<polygon fill="white" stroke="#666666" points="1629.88,-76 1550.12,-76 1550.12,-56 1629.88,-56 1629.88,-76"/>
<text xml:space="preserve" text-anchor="middle" x="1590" y="-62.5" font-family="Helvetica,sans-Serif" font-size="10.00">src/vaisseau.c</text>
</a>
</g>
</g>
<!-- Node2&#45;&gt;Node23 -->
<g id="edge23_Node000002_Node000023" class="edge">
<title>Node2&#45;&gt;Node23</title>
<g id="a_edge23_Node000002_Node000023"><a xlink:title=" ">
<path fill="none" stroke="#63b8ff" d="M981.45,-118.78C1093.2,-114.23 1336.99,-102.05 1541,-76 1543.83,-75.64 1546.75,-75.22 1549.68,-74.77"/>
<polygon fill="#63b8ff" stroke="#63b8ff" points="981.46,-115.27 971.6,-119.17 981.74,-122.27 981.46,-115.27"/>
</a>
</g>
</g>
<!-- Node7&#45;&gt;Node8 -->
<g id="edge7_Node000007_Node000008" class="edge">
<title>Node7&#45;&gt;Node8</title>
<g id="a_edge7_Node000007_Node000008"><a xlink:title=" ">
<path fill="none" stroke="#63b8ff" d="M455.24,-49.54C440.83,-40.17 422.91,-28.51 410.57,-20.48"/>
<polygon fill="#63b8ff" stroke="#63b8ff" points="452.98,-52.25 463.27,-54.77 456.8,-46.38 452.98,-52.25"/>
</a>
</g>
</g>
<!-- Node9 -->
<g id="Node000009" class="node">
<title>Node9</title>
<g id="a_Node000009"><a xlink:href="planete_8c.html" target="_top" xlink:title="Gestion des planetes et des transitions d&#39;exploration.">
<polygon fill="white" stroke="#666666" points="516.12,-20 443.88,-20 443.88,0 516.12,0 516.12,-20"/>
<text xml:space="preserve" text-anchor="middle" x="480" y="-6.5" font-family="Helvetica,sans-Serif" font-size="10.00">src/planete.c</text>
</a>
</g>
</g>
<!-- Node7&#45;&gt;Node9 -->
<g id="edge8_Node000007_Node000009" class="edge">
<title>Node7&#45;&gt;Node9</title>
<g id="a_edge8_Node000007_Node000009"><a xlink:title=" ">
<path fill="none" stroke="#63b8ff" d="M479.39,-44.13C479.54,-35.9 479.71,-26.85 479.83,-20.3"/>
<polygon fill="#63b8ff" stroke="#63b8ff" points="475.89,-44.02 479.2,-54.08 482.89,-44.15 475.89,-44.02"/>
</a>
</g>
</g>
</g>
</svg>
