<?xml version="1.0" encoding="UTF-8" standalone="no"?>
<!DOCTYPE svg PUBLIC "-//W3C//DTD SVG 1.1//EN"
 "http://www.w3.org/Graphics/SVG/1.1/DTD/svg11.dtd">
<!-- Generated by graphviz version 14.1.4 (20260321.0153)
 -->
<!-- Title: src/sauvegarde.c Pages: 1 -->
<svg width="1682pt" height="196pt"
 viewBox="0.00 0.00 1682.00 196.00" xmlns="http://www.w3.org/2000/svg" xmlns:xlink="http://www.w3.org/1999/xlink">
<g id="graph0" class="graph" transform="scale(1 1) rotate(0) translate(4 192)">
<title>src/sauvegarde.c</title>
<!-- Node1 -->
<g id="Node000001" class="node">
<title>Node1</title>
<g id="a_Node000001"><a xlink:title="Gestion des sauvegardes, des chargements et des emplacements.">
<polygon fill="#999999" stroke="#666666" points="1500.81,-188 1409.81,-188 1409.81,-168 1500.81,-168 1500.81,-188"/>
<text xml:space="preserve" text-anchor="middle" x="1455.31" y="-174.5" font-family="Helvetica,sans-Serif" font-size="10.00">src/sauvegarde.c</text>
</a>
</g>
</g>
<!-- Node2 -->
<g id="Node000002" class="node">
<title>Node2</title>
<g id="a_Node000002"><a xlink:href="main_8h.html" target="_top" xlink:title="Declarations globales et utilitaires partages entre les modules du jeu.">
<polygon fill="white" stroke="#666666" points="726.69,-132 643.94,-132 643.94,-112 726.69,-112 726.69,-132"/>
<text xml:space="preserve" text-anchor="middle" x="685.31" y="-118.5" font-family="Helvetica,sans-Serif" font-size="10.00">headers/main.h</text>
</a>
</g>
</g>
<!-- Node1&#45;&gt;Node2 -->
<g id="edge1_Node000001_Node000002" class="edge">
<title>Node1&#45;&gt;Node2</title>
<g id="a_edge1_Node000001_Node000002"><a xlink:title=" ">
<path fill="none" stroke="#63b8ff" d="M1409.45,-173.78C1274.85,-164.34 881.39,-136.75 738.2,-126.71"/>
<polygon fill="#63b8ff" stroke="#63b8ff" points="738.86,-123.25 728.64,-126.04 738.37,-130.23 738.86,-123.25"/>
</a>
</g>
</g>
<!-- Node4 -->
<g id="Node000004" class="node">
<title>Node4</title>
<g id="a_Node000004"><a xlink:title=" ">
<polygon fill="#e0e0e0" stroke="#999999" points="538.56,-20 404.06,-20 404.06,0 538.56,0 538.56,-20"/>
<text xml:space="preserve" text-anchor="middle" x="471.31" y="-6.5" font-family="Helvetica,sans-Serif" font-size="10.00">SDL3_image/SDL_image.h</text>
</a>
</g>
</g>
<!-- Node1&#45;&gt;Node4 -->
<g id="edge63_Node000001_Node000004" class="edge">
<title>Node1&#45;&gt;Node4</title>
<g id="a_edge63_Node000001_Node000004"><a xlink:title=" ">
<path fill="none" stroke="#63b8ff" d="M1409.46,-177.45C1173.57,-179.31 104.11,-181.81 7.31,-76 1.31,-69.44 1.34,-62.58 7.31,-56 32.63,-28.11 266.56,-16.98 392.26,-12.99"/>
<polygon fill="#63b8ff" stroke="#63b8ff" points="392.31,-16.49 402.2,-12.68 392.09,-9.49 392.31,-16.49"/>
</a>
</g>
</g>
<!-- Node7 -->
<g id="Node000007" class="node">
<title>Node7</title>
<g id="a_Node000007"><a xlink:title=" ">
<polygon fill="#e0e0e0" stroke="#999999" points="1399.94,-76 1354.69,-76 1354.69,-56 1399.94,-56 1399.94,-76"/>
<text xml:space="preserve" text-anchor="middle" x="1377.31" y="-62.5" font-family="Helvetica,sans-Serif" font-size="10.00">stdio.h</text>
</a>
</g>
</g>
<!-- Node1&#45;&gt;Node7 -->
<g id="edge65_Node000001_Node000007" class="edge">
<title>Node1&#45;&gt;Node7</title>
<g id="a_edge65_Node000001_Node000007"><a xlink:title=" ">
<path fill="none" stroke="#63b8ff" d="M1448.66,-167.62C1435.83,-149.52 1407.42,-109.45 1390.58,-85.7"/>
<polygon fill="#63b8ff" stroke="#63b8ff" points="1393.46,-83.72 1384.82,-77.59 1387.75,-87.77 1393.46,-83.72"/>
</a>
</g>
</g>
<!-- Node16 -->
<g id="Node000016" class="node">
<title>Node16</title>
<g id="a_Node000016"><a xlink:title=" ">
<polygon fill="#e0e0e0" stroke="#999999" points="973.31,-20 873.31,-20 873.31,0 973.31,0 973.31,-20"/>
<text xml:space="preserve" text-anchor="middle" x="923.31" y="-6.5" font-family="Helvetica,sans-Serif" font-size="10.00">SDL3_ttf/SDL_ttf.h</text>
</a>
</g>
</g>
<!-- Node1&#45;&gt;Node16 -->
<g id="edge64_Node000001_Node000016" class="edge">
<title>Node1&#45;&gt;Node16</title>
<g id="a_edge64_Node000001_Node000016"><a xlink:title=" ">
<path fill="none" stroke="#63b8ff" d="M1464.71,-167.57C1485.68,-145.4 1532.14,-89.32 1501.31,-56 1466.78,-18.68 1126.64,-12.24 984.86,-11.18"/>
<polygon fill="#63b8ff" stroke="#63b8ff" points="984.93,-7.68 974.9,-11.11 984.88,-14.68 984.93,-7.68"/>
</a>
</g>
</g>
<!-- Node23 -->
<g id="Node000023" class="node">
<title>Node23</title>
<g id="a_Node000023"><a xlink:href="sauvegarde_8h.html" target="_top" xlink:title="Fichier des slots de sauvegarde et du chargement de progression.">
<polygon fill="white" stroke="#666666" points="1492.56,-76 1418.06,-76 1418.06,-56 1492.56,-56 1492.56,-76"/>
<text xml:space="preserve" text-anchor="middle" x="1455.31" y="-62.5" font-family="Helvetica,sans-Serif" font-size="10.00">sauvegarde.h</text>
</a>
</g>
</g>
<!-- Node1&#45;&gt;Node23 -->
<g id="edge62_Node000001_Node000023" class="edge">
<title>Node1&#45;&gt;Node23</title>
<g id="a_edge62_Node000001_Node000023"><a xlink:title=" ">
<path fill="none" stroke="#63b8ff" d="M1455.31,-167.62C1455.31,-150.01 1455.31,-111.59 1455.31,-87.65"/>
<polygon fill="#63b8ff" stroke="#63b8ff" points="1458.81,-87.87 1455.31,-77.87 1451.81,-87.87 1458.81,-87.87"/>
</a>
</g>
</g>
<!-- Node28 -->
<g id="Node000028" class="node">
<title>Node28</title>
<g id="a_Node000028"><a xlink:title=" ">
<polygon fill="#e0e0e0" stroke="#999999" points="1596.44,-132 1548.19,-132 1548.19,-112 1596.44,-112 1596.44,-132"/>
<text xml:space="preserve" text-anchor="middle" x="1572.31" y="-118.5" font-family="Helvetica,sans-Serif" font-size="10.00">string.h</text>
</a>
</g>
</g>
<!-- Node1&#45;&gt;Node28 -->
<g id="edge66_Node000001_Node000028" class="edge">
<title>Node1&#45;&gt;Node28</title>
<g id="a_edge66_Node000001_Node000028"><a xlink:title=" ">
<path fill="none" stroke="#63b8ff" d="M1475.69,-167.59C1493.87,-159.21 1520.74,-146.8 1541.53,-137.21"/>
<polygon fill="#63b8ff" stroke="#63b8ff" points="1542.79,-140.48 1550.4,-133.11 1539.86,-134.13 1542.79,-140.48"/>
</a>
</g>
</g>
<!-- Node29 -->
<g id="Node000029" class="node">
<title>Node29</title>
<g id="a_Node000029"><a xlink:title=" ">
<polygon fill="#e0e0e0" stroke="#999999" points="1674.06,-132 1614.56,-132 1614.56,-112 1674.06,-112 1674.06,-132"/>
<text xml:space="preserve" text-anchor="middle" x="1644.31" y="-118.5" font-family="Helvetica,sans-Serif" font-size="10.00">sys/stat.h</text>
</a>
</g>
</g>
<!-- Node1&#45;&gt;Node29 -->
<g id="edge67_Node000001_Node000029" class="edge">
<title>Node1&#45;&gt;Node29</title>
<g id="a_edge67_Node000001_Node000029"><a xlink:title=" ">
<path fill="none" stroke="#63b8ff" d="M1488.24,-167.59C1520.3,-158.43 1569.12,-144.48 1603.61,-134.63"/>
<polygon fill="#63b8ff" stroke="#63b8ff" points="1604.15,-138.11 1612.81,-132 1602.23,-131.38 1604.15,-138.11"/>
</a>
</g>
</g>
<!-- Node3 -->
<g id="Node000003" class="node">
<title>Node3</title>
<g id="a_Node000003"><a xlink:title=" ">
<polygon fill="#e0e0e0" stroke="#999999" points="721.06,-20 649.56,-20 649.56,0 721.06,0 721.06,-20"/>
<text xml:space="preserve" text-anchor="middle" x="685.31" y="-6.5" font-family="Helvetica,sans-Serif" font-size="10.00">SDL3/SDL.h</text>
</a>
</g>
</g>
<!-- Node2&#45;&gt;Node3 -->
<g id="edge2_Node000002_Node000003" class="edge">
<title>Node2&#45;&gt;Node3</title>
<g id="a_edge2_Node000002_Node000003"><a xlink:title=" ">
<path fill="none" stroke="#63b8ff" d="M726.9,-120.7C847.78,-119.41 1192.69,-112.54 1226.31,-76 1232.33,-69.46 1232.33,-62.54 1226.31,-56 1209.68,-37.93 861.31,-19.44 732.58,-13.21"/>
<polygon fill="#63b8ff" stroke="#63b8ff" points="732.85,-9.72 722.69,-12.73 732.51,-16.71 732.85,-9.72"/>
</a>
</g>
</g>
<!-- Node2&#45;&gt;Node4 -->
<g id="edge3_Node000002_Node000004" class="edge">
<title>Node2&#45;&gt;Node4</title>
<g id="a_edge3_Node000002_Node000004"><a xlink:title=" ">
<path fill="none" stroke="#63b8ff" d="M643.44,-119.97C536.64,-116.9 260.57,-106.11 233.31,-76 227.35,-69.41 227.64,-62.84 233.31,-56 253.36,-31.8 331.11,-20.52 392.36,-15.32"/>
<polygon fill="#63b8ff" stroke="#63b8ff" points="392.4,-18.83 402.08,-14.54 391.83,-11.85 392.4,-18.83"/>
</a>
</g>
</g>
<!-- Node5 -->
<g id="Node000005" class="node">
<title>Node5</title>
<g id="a_Node000005"><a xlink:title=" ">
<polygon fill="#e0e0e0" stroke="#999999" points="1217.31,-76 1171.31,-76 1171.31,-56 1217.31,-56 1217.31,-76"/>
<text xml:space="preserve" text-anchor="middle" x="1194.31" y="-62.5" font-family="Helvetica,sans-Serif" font-size="10.00">math.h</text>
</a>
</g>
</g>
<!-- Node2&#45;&gt;Node5 -->
<g id="edge4_Node000002_Node000005" class="edge">
<title>Node2&#45;&gt;Node5</title>
<g id="a_edge4_Node000002_Node000005"><a xlink:title=" ">
<path fill="none" stroke="#63b8ff" d="M727.14,-119.58C808.76,-116.28 995.03,-106.07 1160.17,-76.08"/>
<polygon fill="#63b8ff" stroke="#63b8ff" points="1160.32,-79.61 1169.52,-74.35 1159.05,-72.73 1160.32,-79.61"/>
</a>
</g>
</g>
<!-- Node6 -->
<g id="Node000006" class="node">
<title>Node6</title>
<g id="a_Node000006"><a xlink:title=" ">
<polygon fill="#e0e0e0" stroke="#999999" points="199.31,-20 69.31,-20 69.31,0 199.31,0 199.31,-20"/>
<text xml:space="preserve" text-anchor="middle" x="134.31" y="-6.5" font-family="Helvetica,sans-Serif" font-size="10.00">SDL3_mixer/SDL_mixer.h</text>
</a>
</g>
</g>
<!-- Node2&#45;&gt;Node6 -->
<g id="edge5_Node000002_Node000006" class="edge">
<title>Node2&#45;&gt;Node6</title>
<g id="a_edge5_Node000002_Node000006"><a xlink:title=" ">
<path fill="none" stroke="#63b8ff" d="M643.53,-121.46C502.55,-122.57 50.79,-122.46 7.31,-76 -16.61,-50.43 24.62,-33.28 66.33,-23.05"/>
<polygon fill="#63b8ff" stroke="#63b8ff" points="67.05,-26.47 76.01,-20.81 65.48,-19.65 67.05,-26.47"/>
</a>
</g>
</g>
<!-- Node2&#45;&gt;Node7 -->
<g id="edge6_Node000002_Node000007" class="edge">
<title>Node2&#45;&gt;Node7</title>
<g id="a_edge6_Node000002_Node000007"><a xlink:title=" ">
<path fill="none" stroke="#63b8ff" d="M727.07,-121.25C830.38,-121.21 1106.18,-117.1 1343.17,-76.22"/>
<polygon fill="#63b8ff" stroke="#63b8ff" points="1343.69,-79.68 1352.93,-74.5 1342.48,-72.78 1343.69,-79.68"/>
</a>
</g>
</g>
<!-- Node8 -->
<g id="Node000008" class="node">
<title>Node8</title>
<g id="a_Node000008"><a xlink:title=" ">
<polygon fill="#e0e0e0" stroke="#999999" points="64.06,-76 16.56,-76 16.56,-56 64.06,-56 64.06,-76"/>
<text xml:space="preserve" text-anchor="middle" x="40.31" y="-62.5" font-family="Helvetica,sans-Serif" font-size="10.00">stdlib.h</text>
</a>
</g>
</g>
<!-- Node2&#45;&gt;Node8 -->
<g id="edge7_Node000002_Node000008" class="edge">
<title>Node2&#45;&gt;Node8</title>
<g id="a_edge7_Node000002_Node000008"><a xlink:title=" ">
<path fill="none" stroke="#63b8ff" d="M643.79,-120.7C546.13,-119.4 294.23,-112.65 75.4,-76.01"/>
<polygon fill="#63b8ff" stroke="#63b8ff" points="76.28,-72.61 65.84,-74.38 75.11,-79.51 76.28,-72.61"/>
</a>
</g>
</g>
<!-- Node9 -->
<g id="Node000009" class="node">
<title>Node9</title>
<g id="a_Node000009"><a xlink:href="menu_8h.html" target="_top" xlink:title="Fichier du menu principal et des choix de navigation.">
<polygon fill="white" stroke="#666666" points="741.44,-76 693.19,-76 693.19,-56 741.44,-56 741.44,-76"/>
<text xml:space="preserve" text-anchor="middle" x="717.31" y="-62.5" font-family="Helvetica,sans-Serif" font-size="10.00">menu.h</text>
</a>
</g>
</g>
<!-- Node2&#45;&gt;Node9 -->
<g id="edge8_Node000002_Node000009" class="edge">
<title>Node2&#45;&gt;Node9</title>
<g id="a_edge8_Node000002_Node000009"><a xlink:title=" ">
<path fill="none" stroke="#63b8ff" d="M690.89,-111.59C695.06,-104.55 700.92,-94.67 706.05,-86"/>
<polygon fill="#63b8ff" stroke="#63b8ff" points="708.95,-87.99 711.03,-77.6 702.92,-84.42 708.95,-87.99"/>
</a>
</g>
</g>
<!-- Node10 -->
<g id="Node000010" class="node">
<title>Node10</title>
<g id="a_Node000010"><a xlink:href="game__over_8h.html" target="_top" xlink:title="Fichier de l&#39;ecran de fin de partie et des transitions associees.">
<polygon fill="white" stroke="#666666" points="831.44,-76 759.19,-76 759.19,-56 831.44,-56 831.44,-76"/>
<text xml:space="preserve" text-anchor="middle" x="795.31" y="-62.5" font-family="Helvetica,sans-Serif" font-size="10.00">game_over.h</text>
</a>
</g>
</g>
<!-- Node2&#45;&gt;Node10 -->
<g id="edge11_Node000002_Node000010" class="edge">
<title>Node2&#45;&gt;Node10</title>
<g id="a_edge11_Node000002_Node000010"><a xlink:title=" ">
<path fill="none" stroke="#63b8ff" d="M704.48,-111.59C721.41,-103.28 746.36,-91.03 765.84,-81.47"/>
<polygon fill="#63b8ff" stroke="#63b8ff" points="767.21,-84.7 774.65,-77.15 764.13,-78.41 767.21,-84.7"/>
</a>
</g>
</g>
<!-- Node11 -->
<g id="Node000011" class="node">
<title>Node11</title>
<g id="a_Node000011"><a xlink:href="jeux_8h.html" target="_top" xlink:title="Fichier de la boucle de jeu principale et de son initialisation.">
<polygon fill="white" stroke="#666666" points="124.44,-76 82.19,-76 82.19,-56 124.44,-56 124.44,-76"/>
<text xml:space="preserve" text-anchor="middle" x="103.31" y="-62.5" font-family="Helvetica,sans-Serif" font-size="10.00">jeux.h</text>
</a>
</g>
</g>
<!-- Node2&#45;&gt;Node11 -->
<g id="edge14_Node000002_Node000011" class="edge">
<title>Node2&#45;&gt;Node11</title>
<g id="a_edge14_Node000002_Node000011"><a xlink:title=" ">
<path fill="none" stroke="#63b8ff" d="M643.72,-120.58C552.94,-119.03 330.27,-111.79 136.09,-76.15"/>
<polygon fill="#63b8ff" stroke="#63b8ff" points="136.77,-72.71 126.3,-74.32 135.48,-79.59 136.77,-72.71"/>
</a>
</g>
</g>
<!-- Node12 -->
<g id="Node000012" class="node">
<title>Node12</title>
<g id="a_Node000012"><a xlink:href="bouton_8h.html" target="_top" xlink:title="Fichier des boutons UI, de leur etat et de la gestion des interactions souris.">
<polygon fill="white" stroke="#666666" points="296.06,-76 242.56,-76 242.56,-56 296.06,-56 296.06,-76"/>
<text xml:space="preserve" text-anchor="middle" x="269.31" y="-62.5" font-family="Helvetica,sans-Serif" font-size="10.00">bouton.h</text>
</a>
</g>
</g>
<!-- Node2&#45;&gt;Node12 -->
<g id="edge18_Node000002_Node000012" class="edge">
<title>Node2&#45;&gt;Node12</title>
<g id="a_edge18_Node000002_Node000012"><a xlink:title=" ">
<path fill="none" stroke="#63b8ff" d="M643.44,-117.79C575.15,-112.18 435.39,-99.12 307.51,-76.18"/>
<polygon fill="#63b8ff" stroke="#63b8ff" points="308.32,-72.77 297.85,-74.42 307.06,-79.66 308.32,-72.77"/>
</a>
</g>
</g>
<!-- Node13 -->
<g id="Node000013" class="node">
<title>Node13</title>
<g id="a_Node000013"><a xlink:href="option_8h.html" target="_top" xlink:title="Fichier de l&#39;ecran d&#39;options et des reglages de jeu.">
<polygon fill="white" stroke="#666666" points="364.56,-76 314.06,-76 314.06,-56 364.56,-56 364.56,-76"/>
<text xml:space="preserve" text-anchor="middle" x="339.31" y="-62.5" font-family="Helvetica,sans-Serif" font-size="10.00">option.h</text>
</a>
</g>
</g>
<!-- Node2&#45;&gt;Node13 -->
<g id="edge21_Node000002_Node000013" class="edge">
<title>Node2&#45;&gt;Node13</title>
<g id="a_edge21_Node000002_Node000013"><a xlink:title=" ">
<path fill="none" stroke="#63b8ff" d="M643.67,-116.54C585.71,-110 477.27,-96.55 375.91,-76.34"/>
<polygon fill="#63b8ff" stroke="#63b8ff" points="376.84,-72.95 366.34,-74.4 375.45,-79.82 376.84,-72.95"/>
</a>
</g>
</g>
<!-- Node14 -->
<g id="Node000014" class="node">
<title>Node14</title>
<g id="a_Node000014"><a xlink:href="perso_8h.html" target="_top" xlink:title="Fichier du personnage: deplacement, combat, stats et collisions.">
<polygon fill="white" stroke="#666666" points="430.44,-76 382.19,-76 382.19,-56 430.44,-56 430.44,-76"/>
<text xml:space="preserve" text-anchor="middle" x="406.31" y="-62.5" font-family="Helvetica,sans-Serif" font-size="10.00">perso.h</text>
</a>
</g>
</g>
<!-- Node2&#45;&gt;Node14 -->
<g id="edge24_Node000002_Node000014" class="edge">
<title>Node2&#45;&gt;Node14</title>
<g id="a_edge24_Node000002_Node000014"><a xlink:title=" ">
<path fill="none" stroke="#63b8ff" d="M643.75,-114.51C596.86,-106.94 518.13,-93.5 441.55,-76.36"/>
<polygon fill="#63b8ff" stroke="#63b8ff" points="442.77,-73.05 432.24,-74.25 441.22,-79.87 442.77,-73.05"/>
</a>
</g>
</g>
<!-- Node15 -->
<g id="Node000015" class="node">
<title>Node15</title>
<g id="a_Node000015"><a xlink:href="son_8h.html" target="_top" xlink:title="Fichier audio: musique, effets sonores et etats d&#39;activation.">
<polygon fill="white" stroke="#666666" points="613.31,-76 573.31,-76 573.31,-56 613.31,-56 613.31,-76"/>
<text xml:space="preserve" text-anchor="middle" x="593.31" y="-62.5" font-family="Helvetica,sans-Serif" font-size="10.00">son.h</text>
</a>
</g>
</g>
<!-- Node2&#45;&gt;Node15 -->
<g id="edge27_Node000002_Node000015" class="edge">
<title>Node2&#45;&gt;Node15</title>
<g id="a_edge27_Node000002_Node000015"><a xlink:title=" ">
<path fill="none" stroke="#63b8ff" d="M669.29,-111.59C655.52,-103.51 635.41,-91.71 619.34,-82.27"/>
<polygon fill="#63b8ff" stroke="#63b8ff" points="621.17,-79.29 610.77,-77.25 617.62,-85.33 621.17,-79.29"/>
</a>
</g>
</g>
<!-- Node17 -->
<g id="Node000017" class="node">
<title>Node17</title>
<g id="a_Node000017"><a xlink:href="boss_8h.html" target="_top" xlink:title="Fichier du module boss (declarations publiques).">
<polygon fill="white" stroke="#666666" points="493.94,-76 448.69,-76 448.69,-56 493.94,-56 493.94,-76"/>
<text xml:space="preserve" text-anchor="middle" x="471.31" y="-62.5" font-family="Helvetica,sans-Serif" font-size="10.00">boss.h</text>
</a>
</g>
</g>
<!-- Node2&#45;&gt;Node17 -->
<g id="edge32_Node000002_Node000017" class="edge">
<title>Node2&#45;&gt;Node17</title>
<g id="a_edge32_Node000002_Node000017"><a xlink:title=" ">
<path fill="none" stroke="#63b8ff" d="M644.85,-111.56C610.08,-103.33 558.35,-90.83 505.29,-76.73"/>
<polygon fill="#63b8ff" stroke="#63b8ff" points="506.33,-73.38 495.77,-74.18 504.53,-80.15 506.33,-73.38"/>
</a>
</g>
</g>
<!-- Node18 -->
<g id="Node000018" class="node">
<title>Node18</title>
<g id="a_Node000018"><a xlink:href="mob_8h.html" target="_top" xlink:title="Fichier des mobs: creation, mise a jour, rendu et file de respawn.">
<polygon fill="white" stroke="#666666" points="554.81,-76 511.81,-76 511.81,-56 554.81,-56 554.81,-76"/>
<text xml:space="preserve" text-anchor="middle" x="533.31" y="-62.5" font-family="Helvetica,sans-Serif" font-size="10.00">mob.h</text>
</a>
</g>
</g>
<!-- Node2&#45;&gt;Node18 -->
<g id="edge35_Node000002_Node000018" class="edge">
<title>Node2&#45;&gt;Node18</title>
<g id="a_edge35_Node000002_Node000018"><a xlink:title=" ">
<path fill="none" stroke="#63b8ff" d="M658.84,-111.59C632.97,-102.4 593.55,-88.4 565.8,-78.54"/>
<polygon fill="#63b8ff" stroke="#63b8ff" points="567.08,-75.28 556.49,-75.23 564.74,-81.88 567.08,-75.28"/>
</a>
</g>
</g>
<!-- Node19 -->
<g id="Node000019" class="node">
<title>Node19</title>
<g id="a_Node000019"><a xlink:href="vaisseau_8h.html" target="_top" xlink:title="Fichier de la scene vaisseau, des interactions et du retour en planete.">
<polygon fill="white" stroke="#666666" points="1336.94,-76 1273.69,-76 1273.69,-56 1336.94,-56 1336.94,-76"/>
<text xml:space="preserve" text-anchor="middle" x="1305.31" y="-62.5" font-family="Helvetica,sans-Serif" font-size="10.00">vaisseau.h</text>
</a>
</g>
</g>
<!-- Node2&#45;&gt;Node19 -->
<g id="edge38_Node000002_Node000019" class="edge">
<title>Node2&#45;&gt;Node19</title>
<g id="a_edge38_Node000002_Node000019"><a xlink:title=" ">
<path fill="none" stroke="#63b8ff" d="M726.91,-119.38C821.72,-115.33 1060.99,-103.08 1259.31,-76 1260.16,-75.88 1261.02,-75.76 1261.88,-75.64"/>
<polygon fill="#63b8ff" stroke="#63b8ff" points="1262.43,-79.09 1271.73,-74.01 1261.29,-72.19 1262.43,-79.09"/>
</a>
</g>
</g>
<!-- Node20 -->
<g id="Node000020" class="node">
<title>Node20</title>
<g id="a_Node000020"><a xlink:href="map_8h.html" target="_top" xlink:title="Fichier de navigation carte et de gestion des ressources cartographiques.">
<polygon fill="white" stroke="#666666" points="185.81,-76 142.81,-76 142.81,-56 185.81,-56 185.81,-76"/>
<text xml:space="preserve" text-anchor="middle" x="164.31" y="-62.5" font-family="Helvetica,sans-Serif" font-size="10.00">map.h</text>
</a>
</g>
</g>
<!-- Node2&#45;&gt;Node20 -->
<g id="edge40_Node000002_Node000020" class="edge">
<title>Node2&#45;&gt;Node20</title>
<g id="a_edge40_Node000002_Node000020"><a xlink:title=" ">
<path fill="none" stroke="#63b8ff" d="M643.51,-119.27C559.19,-115.31 362.87,-103.69 200.31,-76 199.31,-75.83 198.3,-75.65 197.28,-75.45"/>
<polygon fill="#63b8ff" stroke="#63b8ff" points="198.28,-72.09 187.77,-73.38 196.79,-78.93 198.28,-72.09"/>
</a>
</g>
</g>
<!-- Node21 -->
<g id="Node000021" class="node">
<title>Node21</title>
<g id="a_Node000021"><a xlink:href="item_8h.html" target="_top" xlink:title="Fichier de creation, d&#39;affichage et de destruction des items.">
<polygon fill="white" stroke="#666666" points="674.81,-76 631.81,-76 631.81,-56 674.81,-56 674.81,-76"/>
<text xml:space="preserve" text-anchor="middle" x="653.31" y="-62.5" font-family="Helvetica,sans-Serif" font-size="10.00">item.h</text>
</a>
</g>
</g>
<!-- Node2&#45;&gt;Node21 -->
<g id="edge44_Node000002_Node000021" class="edge">
<title>Node2&#45;&gt;Node21</title>
<g id="a_edge44_Node000002_Node000021"><a xlink:title=" ">
<path fill="none" stroke="#63b8ff" d="M679.74,-111.59C675.56,-104.55 669.71,-94.67 664.57,-86"/>
<polygon fill="#63b8ff" stroke="#63b8ff" points="667.71,-84.42 659.6,-77.6 661.68,-87.99 667.71,-84.42"/>
</a>
</g>
</g>
<!-- Node22 -->
<g id="Node000022" class="node">
<title>Node22</title>
<g id="a_Node000022"><a xlink:href="inventaire_8h.html" target="_top" xlink:title="Fichier de l&#39;inventaire, de la hotbar et des interactions de slots.">
<polygon fill="white" stroke="#666666" points="915.44,-76 849.19,-76 849.19,-56 915.44,-56 915.44,-76"/>
<text xml:space="preserve" text-anchor="middle" x="882.31" y="-62.5" font-family="Helvetica,sans-Serif" font-size="10.00">inventaire.h</text>
</a>
</g>
</g>
<!-- Node2&#45;&gt;Node22 -->
<g id="edge47_Node000002_Node000022" class="edge">
<title>Node2&#45;&gt;Node22</title>
<g id="a_edge47_Node000002_Node000022"><a xlink:title=" ">
<path fill="none" stroke="#63b8ff" d="M719.63,-111.59C752.36,-102.62 801.83,-89.06 837.62,-79.25"/>
<polygon fill="#63b8ff" stroke="#63b8ff" points="838.54,-82.63 847.26,-76.61 836.69,-75.88 838.54,-82.63"/>
</a>
</g>
</g>
<!-- Node2&#45;&gt;Node23 -->
<g id="edge51_Node000002_Node000023" class="edge">
<title>Node2&#45;&gt;Node23</title>
<g id="a_edge51_Node000002_Node000023"><a xlink:title=" ">
<path fill="none" stroke="#63b8ff" d="M727.12,-120.32C836.9,-118.11 1142.55,-109.36 1406.38,-76.21"/>
<polygon fill="#63b8ff" stroke="#63b8ff" points="1406.74,-79.7 1416.22,-74.96 1405.86,-72.75 1406.74,-79.7"/>
</a>
</g>
</g>
<!-- Node25 -->
<g id="Node000025" class="node">
<title>Node25</title>
<g id="a_Node000025"><a xlink:href="objectifs_8h.html" target="_top" xlink:title="Fichier de suivi des objectifs de quete et de leur affichage.">
<polygon fill="white" stroke="#666666" points="994.81,-76 933.81,-76 933.81,-56 994.81,-56 994.81,-76"/>
<text xml:space="preserve" text-anchor="middle" x="964.31" y="-62.5" font-family="Helvetica,sans-Serif" font-size="10.00">objectifs.h</text>
</a>
</g>
</g>
<!-- Node2&#45;&gt;Node25 -->
<g id="edge54_Node000002_Node000025" class="edge">
<title>Node2&#45;&gt;Node25</title>
<g id="a_edge54_Node000002_Node000025"><a xlink:title=" ">
<path fill="none" stroke="#63b8ff" d="M726.85,-113.64C772.36,-105.47 847.77,-91.64 922.34,-76.35"/>
<polygon fill="#63b8ff" stroke="#63b8ff" points="922.76,-79.84 931.85,-74.39 921.35,-72.98 922.76,-79.84"/>
</a>
</g>
</g>
<!-- Node26 -->
<g id="Node000026" class="node">
<title>Node26</title>
<g id="a_Node000026"><a xlink:href="cinematique_8h.html" target="_top" xlink:title="Fichier des cinematics, des intros et des sequences de credits.">
<polygon fill="white" stroke="#666666" points="1089.69,-76 1012.94,-76 1012.94,-56 1089.69,-56 1089.69,-76"/>
<text xml:space="preserve" text-anchor="middle" x="1051.31" y="-62.5" font-family="Helvetica,sans-Serif" font-size="10.00">cinematique.h</text>
</a>
</g>
</g>
<!-- Node2&#45;&gt;Node26 -->
<g id="edge58_Node000002_Node000026" class="edge">
<title>Node2&#45;&gt;Node26</title>
<g id="a_edge58_Node000002_Node000026"><a xlink:title=" ">
<path fill="none" stroke="#63b8ff" d="M727.08,-115.7C785.87,-108.1 896.65,-93.29 1001.46,-76.24"/>
<polygon fill="#63b8ff" stroke="#63b8ff" points="1001.77,-79.73 1011.07,-74.66 1000.64,-72.83 1001.77,-79.73"/>
</a>
</g>
</g>
<!-- Node27 -->
<g id="Node000027" class="node">
<title>Node27</title>
<g id="a_Node000027"><a xlink:href="shop_8h.html" target="_top" xlink:title="Fichier de la boutique, des achats et de l&#39;economie joueur.">
<polygon fill="white" stroke="#666666" points="1152.94,-76 1107.69,-76 1107.69,-56 1152.94,-56 1152.94,-76"/>
<text xml:space="preserve" text-anchor="middle" x="1130.31" y="-62.5" font-family="Helvetica,sans-Serif" font-size="10.00">shop.h</text>
</a>
</g>
</g>
<!-- Node2&#45;&gt;Node27 -->
<g id="edge60_Node000002_Node000027" class="edge">
<title>Node2&#45;&gt;Node27</title>
<g id="a_edge60_Node000002_Node000027"><a xlink:title=" ">
<path fill="none" stroke="#63b8ff" d="M726.98,-118.75C799.97,-114.31 955.78,-102.64 1096.39,-76.06"/>
<polygon fill="#63b8ff" stroke="#63b8ff" points="1096.71,-79.56 1105.87,-74.24 1095.38,-72.69 1096.71,-79.56"/>
</a>
</g>
</g>
<!-- Node9&#45;&gt;Node3 -->
<g id="edge9_Node000009_Node000003" class="edge">
<title>Node9&#45;&gt;Node3</title>
<g id="a_edge9_Node000009_Node000003"><a xlink:title=" ">
<path fill="none" stroke="#63b8ff" d="M711.74,-55.59C707.56,-48.55 701.71,-38.67 696.57,-30"/>
<polygon fill="#63b8ff" stroke="#63b8ff" points="699.71,-28.42 691.6,-21.6 693.68,-31.99 699.71,-28.42"/>
</a>
</g>
</g>
<!-- Node9&#45;&gt;Node4 -->
<g id="edge10_Node000009_Node000004" class="edge">
<title>Node9&#45;&gt;Node4</title>
<g id="a_edge10_Node000009_Node000004"><a xlink:title=" ">
<path fill="none" stroke="#63b8ff" d="M692.84,-58.37C689.64,-57.54 686.4,-56.74 683.31,-56 631.74,-43.71 572.71,-31.31 530.06,-22.66"/>
<polygon fill="#63b8ff" stroke="#63b8ff" points="531.02,-19.28 520.52,-20.73 529.63,-26.14 531.02,-19.28"/>
</a>
</g>
</g>
<!-- Node10&#45;&gt;Node3 -->
<g id="edge12_Node000010_Node000003" class="edge">
<title>Node10&#45;&gt;Node3</title>
<g id="a_edge12_Node000010_Node000003"><a xlink:title=" ">
<path fill="none" stroke="#63b8ff" d="M776.15,-55.59C759.22,-47.28 734.27,-35.03 714.79,-25.47"/>
<polygon fill="#63b8ff" stroke="#63b8ff" points="716.5,-22.41 705.98,-21.15 713.42,-28.7 716.5,-22.41"/>
</a>
</g>
</g>
<!-- Node10&#45;&gt;Node4 -->
<g id="edge13_Node000010_Node000004" class="edge">
<title>Node10&#45;&gt;Node4</title>
<g id="a_edge13_Node000010_Node000004"><a xlink:title=" ">
<path fill="none" stroke="#63b8ff" d="M758.99,-57.61C756.06,-57.05 753.14,-56.51 750.31,-56 681.09,-43.5 601.89,-30.89 545.61,-22.21"/>
<polygon fill="#63b8ff" stroke="#63b8ff" points="546.22,-18.76 535.81,-20.7 545.16,-25.68 546.22,-18.76"/>
</a>
</g>
</g>
<!-- Node11&#45;&gt;Node3 -->
<g id="edge15_Node000011_Node000003" class="edge">
<title>Node11&#45;&gt;Node3</title>
<g id="a_edge15_Node000011_Node000003"><a xlink:title=" ">
<path fill="none" stroke="#63b8ff" d="M124.81,-57.96C127.65,-57.21 130.54,-56.52 133.31,-56 182.23,-46.78 513.17,-23.03 637.89,-14.29"/>
<polygon fill="#63b8ff" stroke="#63b8ff" points="638.06,-17.79 647.79,-13.6 637.57,-10.81 638.06,-17.79"/>
</a>
</g>
</g>
<!-- Node11&#45;&gt;Node4 -->
<g id="edge16_Node000011_Node000004" class="edge">
<title>Node11&#45;&gt;Node4</title>
<g id="a_edge16_Node000011_Node000004"><a xlink:title=" ">
<path fill="none" stroke="#63b8ff" d="M124.84,-58.1C127.67,-57.32 130.55,-56.59 133.31,-56 221.17,-37.1 323.68,-24.79 392.57,-17.9"/>
<polygon fill="#63b8ff" stroke="#63b8ff" points="392.64,-21.41 402.25,-16.95 391.95,-14.45 392.64,-21.41"/>
</a>
</g>
</g>
<!-- Node11&#45;&gt;Node6 -->
<g id="edge17_Node000011_Node000006" class="edge">
<title>Node11&#45;&gt;Node6</title>
<g id="a_edge17_Node000011_Node000006"><a xlink:title=" ">
<path fill="none" stroke="#63b8ff" d="M108.71,-55.59C112.76,-48.55 118.43,-38.67 123.41,-30"/>
<polygon fill="#63b8ff" stroke="#63b8ff" points="126.28,-32.03 128.22,-21.61 120.21,-28.54 126.28,-32.03"/>
</a>
</g>
</g>
<!-- Node12&#45;&gt;Node3 -->
<g id="edge19_Node000012_Node000003" class="edge">
<title>Node12&#45;&gt;Node3</title>
<g id="a_edge19_Node000012_Node000003"><a xlink:title=" ">
<path fill="none" stroke="#63b8ff" d="M296.36,-57.85C299.37,-57.17 302.4,-56.53 305.31,-56 424,-34.23 565.57,-20.7 637.8,-14.67"/>
<polygon fill="#63b8ff" stroke="#63b8ff" points="638.01,-18.17 647.69,-13.86 637.44,-11.19 638.01,-18.17"/>
</a>
</g>
</g>
<!-- Node12&#45;&gt;Node4 -->
<g id="edge20_Node000012_Node000004" class="edge">
<title>Node12&#45;&gt;Node4</title>
<g id="a_edge20_Node000012_Node000004"><a xlink:title=" ">
<path fill="none" stroke="#63b8ff" d="M296.56,-57.72C329.46,-48.92 385.33,-33.98 425.04,-23.37"/>
<polygon fill="#63b8ff" stroke="#63b8ff" points="425.81,-26.79 434.57,-20.82 424.01,-20.02 425.81,-26.79"/>
</a>
</g>
</g>
<!-- Node13&#45;&gt;Node3 -->
<g id="edge22_Node000013_Node000003" class="edge">
<title>Node13&#45;&gt;Node3</title>
<g id="a_edge22_Node000013_Node000003"><a xlink:title=" ">
<path fill="none" stroke="#63b8ff" d="M364.86,-57.9C367.7,-57.21 370.56,-56.56 373.31,-56 466.51,-37.01 576.97,-23.06 638.3,-16.07"/>
<polygon fill="#63b8ff" stroke="#63b8ff" points="638.47,-19.57 648.02,-14.97 637.69,-12.61 638.47,-19.57"/>
</a>
</g>
</g>
<!-- Node13&#45;&gt;Node4 -->
<g id="edge23_Node000013_Node000004" class="edge">
<title>Node13&#45;&gt;Node4</title>
<g id="a_edge23_Node000013_Node000004"><a xlink:title=" ">
<path fill="none" stroke="#63b8ff" d="M362.31,-55.59C383.09,-47.09 413.96,-34.46 437.55,-24.81"/>
<polygon fill="#63b8ff" stroke="#63b8ff" points="438.81,-28.08 446.74,-21.05 436.16,-21.6 438.81,-28.08"/>
</a>
</g>
</g>
<!-- Node14&#45;&gt;Node3 -->
<g id="edge25_Node000014_Node000003" class="edge">
<title>Node14&#45;&gt;Node3</title>
<g id="a_edge25_Node000014_Node000003"><a xlink:title=" ">
<path fill="none" stroke="#63b8ff" d="M430.76,-58.08C433.64,-57.34 436.54,-56.63 439.31,-56 507.9,-40.4 588.2,-26.52 637.92,-18.44"/>
<polygon fill="#63b8ff" stroke="#63b8ff" points="638.46,-21.89 647.77,-16.85 637.34,-14.98 638.46,-21.89"/>
</a>
</g>
</g>
<!-- Node14&#45;&gt;Node4 -->
<g id="edge26_Node000014_Node000004" class="edge">
<title>Node14&#45;&gt;Node4</title>
<g id="a_edge26_Node000014_Node000004"><a xlink:title=" ">
<path fill="none" stroke="#63b8ff" d="M417.64,-55.59C426.96,-47.85 440.39,-36.69 451.49,-27.47"/>
<polygon fill="#63b8ff" stroke="#63b8ff" points="453.5,-30.35 458.96,-21.27 449.03,-24.96 453.5,-30.35"/>
</a>
</g>
</g>
<!-- Node15&#45;&gt;Node3 -->
<g id="edge28_Node000015_Node000003" class="edge">
<title>Node15&#45;&gt;Node3</title>
<g id="a_edge28_Node000015_Node000003"><a xlink:title=" ">
<path fill="none" stroke="#63b8ff" d="M609.34,-55.59C623.11,-47.51 643.22,-35.71 659.29,-26.27"/>
<polygon fill="#63b8ff" stroke="#63b8ff" points="661.01,-29.33 667.86,-21.25 657.46,-23.29 661.01,-29.33"/>
</a>
</g>
</g>
<!-- Node15&#45;&gt;Node4 -->
<g id="edge29_Node000015_Node000004" class="edge">
<title>Node15&#45;&gt;Node4</title>
<g id="a_edge29_Node000015_Node000004"><a xlink:title=" ">
<path fill="none" stroke="#63b8ff" d="M572.89,-55.96C553.86,-47.54 525.18,-34.84 503.14,-25.09"/>
<polygon fill="#63b8ff" stroke="#63b8ff" points="504.57,-21.89 494.01,-21.04 501.73,-28.29 504.57,-21.89"/>
</a>
</g>
</g>
<!-- Node15&#45;&gt;Node6 -->
<g id="edge31_Node000015_Node000006" class="edge">
<title>Node15&#45;&gt;Node6</title>
<g id="a_edge31_Node000015_Node000006"><a xlink:title=" ">
<path fill="none" stroke="#63b8ff" d="M573.11,-58.38C569.86,-57.48 566.51,-56.64 563.31,-56 441.4,-31.54 297.15,-19.88 210.84,-14.7"/>
<polygon fill="#63b8ff" stroke="#63b8ff" points="211.27,-11.22 201.08,-14.13 210.86,-18.21 211.27,-11.22"/>
</a>
</g>
</g>
<!-- Node15&#45;&gt;Node16 -->
<g id="edge30_Node000015_Node000016" class="edge">
<title>Node15&#45;&gt;Node16</title>
<g id="a_edge30_Node000015_Node000016"><a xlink:title=" ">
<path fill="none" stroke="#63b8ff" d="M613.8,-58.22C616.64,-57.4 619.54,-56.63 622.31,-56 704.22,-37.28 800.5,-24.46 861.7,-17.42"/>
<polygon fill="#63b8ff" stroke="#63b8ff" points="862.03,-20.91 871.58,-16.31 861.25,-13.95 862.03,-20.91"/>
</a>
</g>
</g>
<!-- Node17&#45;&gt;Node3 -->
<g id="edge33_Node000017_Node000003" class="edge">
<title>Node17&#45;&gt;Node3</title>
<g id="a_edge33_Node000017_Node000003"><a xlink:title=" ">
<path fill="none" stroke="#63b8ff" d="M494.31,-58.21C497,-57.45 499.72,-56.7 502.31,-56 548.28,-43.68 601.09,-30.83 638.13,-22.04"/>
<polygon fill="#63b8ff" stroke="#63b8ff" points="638.69,-25.5 647.62,-19.79 637.08,-18.69 638.69,-25.5"/>
</a>
</g>
</g>
<!-- Node17&#45;&gt;Node4 -->
<g id="edge34_Node000017_Node000004" class="edge">
<title>Node17&#45;&gt;Node4</title>
<g id="a_edge34_Node000017_Node000004"><a xlink:title=" ">
<path fill="none" stroke="#63b8ff" d="M471.31,-55.59C471.31,-49.01 471.31,-39.96 471.31,-31.73"/>
<polygon fill="#63b8ff" stroke="#63b8ff" points="474.81,-31.81 471.31,-21.81 467.81,-31.81 474.81,-31.81"/>
</a>
</g>
</g>
<!-- Node18&#45;&gt;Node3 -->
<g id="edge36_Node000018_Node000003" class="edge">
<title>Node18&#45;&gt;Node3</title>
<g id="a_edge36_Node000018_Node000003"><a xlink:title=" ">
<path fill="none" stroke="#63b8ff" d="M555.09,-57.26C579.33,-48.65 618.92,-34.59 648.1,-24.22"/>
<polygon fill="#63b8ff" stroke="#63b8ff" points="649.04,-27.6 657.29,-20.96 646.7,-21.01 649.04,-27.6"/>
</a>
</g>
</g>
<!-- Node18&#45;&gt;Node4 -->
<g id="edge37_Node000018_Node000004" class="edge">
<title>Node18&#45;&gt;Node4</title>
<g id="a_edge37_Node000018_Node000004"><a xlink:title=" ">
<path fill="none" stroke="#63b8ff" d="M522.51,-55.59C513.71,-47.93 501.06,-36.91 490.54,-27.75"/>
<polygon fill="#63b8ff" stroke="#63b8ff" points="492.97,-25.22 483.13,-21.29 488.37,-30.5 492.97,-25.22"/>
</a>
</g>
</g>
<!-- Node19&#45;&gt;Node3 -->
<g id="edge39_Node000019_Node000003" class="edge">
<title>Node19&#45;&gt;Node3</title>
<g id="a_edge39_Node000019_Node000003"><a xlink:title=" ">
<path fill="none" stroke="#63b8ff" d="M1273.22,-58.23C1268.57,-57.39 1263.83,-56.62 1259.31,-56 1157.84,-42.14 851.01,-21.63 732.62,-14"/>
<polygon fill="#63b8ff" stroke="#63b8ff" points="733.15,-10.53 722.95,-13.38 732.7,-17.52 733.15,-10.53"/>
</a>
</g>
</g>
<!-- Node20&#45;&gt;Node3 -->
<g id="edge41_Node000020_Node000003" class="edge">
<title>Node20&#45;&gt;Node3</title>
<g id="a_edge41_Node000020_Node000003"><a xlink:title=" ">
<path fill="none" stroke="#63b8ff" d="M186.05,-61.99C199.62,-60.16 217.47,-57.82 233.31,-56 380.76,-39.05 555.69,-22.7 638.02,-15.23"/>
<polygon fill="#63b8ff" stroke="#63b8ff" points="638.09,-18.74 647.73,-14.35 637.46,-11.77 638.09,-18.74"/>
</a>
</g>
</g>
<!-- Node20&#45;&gt;Node4 -->
<g id="edge42_Node000020_Node000004" class="edge">
<title>Node20&#45;&gt;Node4</title>
<g id="a_edge42_Node000020_Node000004"><a xlink:title=" ">
<path fill="none" stroke="#63b8ff" d="M185.95,-59.29C190.67,-58.13 195.65,-56.97 200.31,-56 265.16,-42.53 339.4,-30.43 393.76,-22.18"/>
<polygon fill="#63b8ff" stroke="#63b8ff" points="394.19,-25.66 403.55,-20.71 393.14,-18.74 394.19,-25.66"/>
</a>
</g>
</g>
<!-- Node20&#45;&gt;Node6 -->
<g id="edge43_Node000020_Node000006" class="edge">
<title>Node20&#45;&gt;Node6</title>
<g id="a_edge43_Node000020_Node000006"><a xlink:title=" ">
<path fill="none" stroke="#63b8ff" d="M159.09,-55.59C155.22,-48.63 149.81,-38.89 145.03,-30.29"/>
<polygon fill="#63b8ff" stroke="#63b8ff" points="148.13,-28.66 140.22,-21.62 142.01,-32.06 148.13,-28.66"/>
</a>
</g>
</g>
<!-- Node21&#45;&gt;Node3 -->
<g id="edge45_Node000021_Node000003" class="edge">
<title>Node21&#45;&gt;Node3</title>
<g id="a_edge45_Node000021_Node000003"><a xlink:title=" ">
<path fill="none" stroke="#63b8ff" d="M658.89,-55.59C663.06,-48.55 668.92,-38.67 674.05,-30"/>
<polygon fill="#63b8ff" stroke="#63b8ff" points="676.95,-31.99 679.03,-21.6 670.92,-28.42 676.95,-31.99"/>
</a>
</g>
</g>
<!-- Node21&#45;&gt;Node4 -->
<g id="edge46_Node000021_Node000004" class="edge">
<title>Node21&#45;&gt;Node4</title>
<g id="a_edge46_Node000021_Node000004"><a xlink:title=" ">
<path fill="none" stroke="#63b8ff" d="M631.36,-58.49C602.4,-49.89 550.81,-34.59 514.03,-23.67"/>
<polygon fill="#63b8ff" stroke="#63b8ff" points="515.17,-20.36 504.58,-20.87 513.17,-27.07 515.17,-20.36"/>
</a>
</g>
</g>
<!-- Node22&#45;&gt;Node3 -->
<g id="edge48_Node000022_Node000003" class="edge">
<title>Node22&#45;&gt;Node3</title>
<g id="a_edge48_Node000022_Node000003"><a xlink:title=" ">
<path fill="none" stroke="#63b8ff" d="M848.9,-55.84C816.36,-46.92 766.69,-33.31 730.62,-23.42"/>
<polygon fill="#63b8ff" stroke="#63b8ff" points="731.92,-20.15 721.35,-20.88 730.07,-26.9 731.92,-20.15"/>
</a>
</g>
</g>
<!-- Node22&#45;&gt;Node4 -->
<g id="edge49_Node000022_Node000004" class="edge">
<title>Node22&#45;&gt;Node4</title>
<g id="a_edge49_Node000022_Node000004"><a xlink:title=" ">
<path fill="none" stroke="#63b8ff" d="M848.9,-57.56C846,-57 843.11,-56.47 840.31,-56 740.73,-39.29 625.03,-26.2 550.12,-18.54"/>
<polygon fill="#63b8ff" stroke="#63b8ff" points="550.72,-15.08 540.42,-17.56 550.01,-22.05 550.72,-15.08"/>
</a>
</g>
</g>
<!-- Node22&#45;&gt;Node16 -->
<g id="edge50_Node000022_Node000016" class="edge">
<title>Node22&#45;&gt;Node16</title>
<g id="a_edge50_Node000022_Node000016"><a xlink:title=" ">
<path fill="none" stroke="#63b8ff" d="M889.46,-55.59C894.92,-48.39 902.64,-38.23 909.32,-29.43"/>
<polygon fill="#63b8ff" stroke="#63b8ff" points="912.08,-31.58 915.34,-21.5 906.5,-27.35 912.08,-31.58"/>
</a>
</g>
</g>
<!-- Node23&#45;&gt;Node3 -->
<g id="edge52_Node000023_Node000003" class="edge">
<title>Node23&#45;&gt;Node3</title>
<g id="a_edge52_Node000023_Node000003"><a xlink:title=" ">
<path fill="none" stroke="#63b8ff" d="M1417.72,-57.23C1414.89,-56.77 1412.06,-56.35 1409.31,-56 1342.59,-47.44 882.83,-21.82 732.65,-13.58"/>
<polygon fill="#63b8ff" stroke="#63b8ff" points="733.25,-10.11 723.07,-13.06 732.86,-17.1 733.25,-10.11"/>
</a>
</g>
</g>
<!-- Node24 -->
<g id="Node000024" class="node">
<title>Node24</title>
<g id="a_Node000024"><a xlink:title=" ">
<polygon fill="#e0e0e0" stroke="#999999" points="1483.19,-20 1427.44,-20 1427.44,0 1483.19,0 1483.19,-20"/>
<text xml:space="preserve" text-anchor="middle" x="1455.31" y="-6.5" font-family="Helvetica,sans-Serif" font-size="10.00">stdbool.h</text>
</a>
</g>
</g>
<!-- Node23&#45;&gt;Node24 -->
<g id="edge53_Node000023_Node000024" class="edge">
<title>Node23&#45;&gt;Node24</title>
<g id="a_edge53_Node000023_Node000024"><a xlink:title=" ">
<path fill="none" stroke="#63b8ff" d="M1455.31,-55.59C1455.31,-49.01 1455.31,-39.96 1455.31,-31.73"/>
<polygon fill="#63b8ff" stroke="#63b8ff" points="1458.81,-31.81 1455.31,-21.81 1451.81,-31.81 1458.81,-31.81"/>
</a>
</g>
</g>
<!-- Node25&#45;&gt;Node3 -->
<g id="edge55_Node000025_Node000003" class="edge">
<title>Node25&#45;&gt;Node3</title>
<g id="a_edge55_Node000025_Node000003"><a xlink:title=" ">
<path fill="none" stroke="#63b8ff" d="M933.33,-57.92C930.29,-57.25 927.24,-56.6 924.31,-56 857.9,-42.28 780.74,-28.06 732.46,-19.37"/>
<polygon fill="#63b8ff" stroke="#63b8ff" points="733.38,-15.98 722.92,-17.66 732.14,-22.87 733.38,-15.98"/>
</a>
</g>
</g>
<!-- Node25&#45;&gt;Node4 -->
<g id="edge56_Node000025_Node000004" class="edge">
<title>Node25&#45;&gt;Node4</title>
<g id="a_edge56_Node000025_Node000004"><a xlink:title=" ">
<path fill="none" stroke="#63b8ff" d="M933.38,-57.65C930.33,-57.04 927.27,-56.48 924.31,-56 793.94,-34.94 640.75,-22.2 550.09,-15.89"/>
<polygon fill="#63b8ff" stroke="#63b8ff" points="550.53,-12.41 540.31,-15.22 550.05,-19.4 550.53,-12.41"/>
</a>
</g>
</g>
<!-- Node25&#45;&gt;Node16 -->
<g id="edge57_Node000025_Node000016" class="edge">
<title>Node25&#45;&gt;Node16</title>
<g id="a_edge57_Node000025_Node000016"><a xlink:title=" ">
<path fill="none" stroke="#63b8ff" d="M957.17,-55.59C951.71,-48.39 943.99,-38.23 937.31,-29.43"/>
<polygon fill="#63b8ff" stroke="#63b8ff" points="940.12,-27.35 931.29,-21.5 934.55,-31.58 940.12,-27.35"/>
</a>
</g>
</g>
<!-- Node26&#45;&gt;Node3 -->
<g id="edge59_Node000026_Node000003" class="edge">
<title>Node26&#45;&gt;Node3</title>
<g id="a_edge59_Node000026_Node000003"><a xlink:title=" ">
<path fill="none" stroke="#63b8ff" d="M1012.57,-57.58C1009.44,-57.03 1006.33,-56.5 1003.31,-56 907.43,-40.24 794.73,-25.08 732.54,-17.01"/>
<polygon fill="#63b8ff" stroke="#63b8ff" points="733.03,-13.55 722.66,-15.73 732.13,-20.49 733.03,-13.55"/>
</a>
</g>
</g>
<!-- Node27&#45;&gt;Node3 -->
<g id="edge61_Node000027_Node000003" class="edge">
<title>Node27&#45;&gt;Node3</title>
<g id="a_edge61_Node000027_Node000003"><a xlink:title=" ">
<path fill="none" stroke="#63b8ff" d="M1107.35,-58.05C1104.33,-57.28 1101.26,-56.57 1098.31,-56 967.32,-30.62 809.97,-18.42 732.76,-13.61"/>
<polygon fill="#63b8ff" stroke="#63b8ff" points="733.23,-10.13 723.03,-13.02 732.8,-17.12 733.23,-10.13"/>
</a>
</g>
</g>
</g>
</svg>
