<?xml version="1.0" encoding="UTF-8" standalone="no"?>
<!DOCTYPE svg PUBLIC "-//W3C//DTD SVG 1.1//EN"
 "http://www.w3.org/Graphics/SVG/1.1/DTD/svg11.dtd">
<!-- Generated by graphviz version 14.1.4 (20260321.0153)
 -->
<!-- Title: sauvegarder_partie_slot Pages: 1 -->
<svg width="280pt" height="66pt"
 viewBox="0.00 0.00 280.00 66.00" xmlns="http://www.w3.org/2000/svg" xmlns:xlink="http://www.w3.org/1999/xlink">
<g id="graph0" class="graph" transform="scale(1 1) rotate(0) translate(4 62)">
<title>sauvegarder_partie_slot</title>
<!-- Node1 -->
<g id="Node000001" class="node">
<title>Node1</title>
<g id="a_Node000001"><a xlink:title="Serialize l&#39;etat de partie courant dans le slot cible.">
<polygon fill="#999999" stroke="#666666" points="119.5,-39 0,-39 0,-19 119.5,-19 119.5,-39"/>
<text xml:space="preserve" text-anchor="middle" x="59.75" y="-25.5" font-family="Helvetica,sans-Serif" font-size="10.00">sauvegarder_partie_slot</text>
</a>
</g>
</g>
<!-- Node2 -->
<g id="Node000002" class="node">
<title>Node2</title>
<g id="a_Node000002"><a xlink:href="sauvegarde_8c.html#a7fa8471112a5e1439781a4d1950fbe51" target="_top" xlink:title=" ">
<polygon fill="white" stroke="#666666" points="272,-58 155.5,-58 155.5,-38 272,-38 272,-58"/>
<text xml:space="preserve" text-anchor="middle" x="213.75" y="-44.5" font-family="Helvetica,sans-Serif" font-size="10.00">assurer_dossier_saves</text>
</a>
</g>
</g>
<!-- Node1&#45;&gt;Node2 -->
<g id="edge1_Node000001_Node000002" class="edge">
<title>Node1&#45;&gt;Node2</title>
<g id="a_edge1_Node000001_Node000002"><a xlink:title=" ">
<path fill="none" stroke="#63b8ff" d="M119.95,-36.4C127.88,-37.39 136.07,-38.42 144.15,-39.42"/>
<polygon fill="#63b8ff" stroke="#63b8ff" points="143.6,-42.88 153.95,-40.65 144.46,-35.94 143.6,-42.88"/>
</a>
</g>
</g>
<!-- Node3 -->
<g id="Node000003" class="node">
<title>Node3</title>
<g id="a_Node000003"><a xlink:href="sauvegarde_8c.html#ab305de40501185a8bfc008354c2d0f15" target="_top" xlink:title=" ">
<polygon fill="white" stroke="#666666" points="248,-20 179.5,-20 179.5,0 248,0 248,-20"/>
<text xml:space="preserve" text-anchor="middle" x="213.75" y="-6.5" font-family="Helvetica,sans-Serif" font-size="10.00">chemin_slot</text>
</a>
</g>
</g>
<!-- Node1&#45;&gt;Node3 -->
<g id="edge2_Node000001_Node000003" class="edge">
<title>Node1&#45;&gt;Node3</title>
<g id="a_edge2_Node000001_Node000003"><a xlink:title=" ">
<path fill="none" stroke="#63b8ff" d="M119.95,-21.6C136.03,-19.59 153.16,-17.45 168.27,-15.56"/>
<polygon fill="#63b8ff" stroke="#63b8ff" points="168.39,-19.07 177.88,-14.36 167.52,-12.13 168.39,-19.07"/>
</a>
</g>
</g>
</g>
</svg>
