<?xml version="1.0" encoding="UTF-8" standalone="no"?>
<!DOCTYPE svg PUBLIC "-//W3C//DTD SVG 1.1//EN"
 "http://www.w3.org/Graphics/SVG/1.1/DTD/svg11.dtd">
<!-- Generated by graphviz version 14.1.4 (20260321.0153)
 -->
<!-- Title: sauvegarde_choisir_slot Pages: 1 -->
<svg width="430pt" height="66pt"
 viewBox="0.00 0.00 430.00 66.00" xmlns="http://www.w3.org/2000/svg" xmlns:xlink="http://www.w3.org/1999/xlink">

<svg id="main" version="1.1" xmlns="http://www.w3.org/2000/svg" xmlns:xlink="http://www.w3.org/1999/xlink" xml:space="preserve">

<style type="text/css"><![CDATA[
.node, .edge {opacity: 0.7;}
.node.selected, .edge.selected {opacity: 1;}
.edge:hover path { stroke: red; }
.edge:hover polygon { stroke: red; fill: red; }
]]></style>
<script type="application/ecmascript" xlink:href="svg.min.js"/>
<svg id="graph" class="graph">
<g id="graph0" class="graph" transform="scale(1 1) rotate(0) translate(4 62)">
<title>sauvegarde_choisir_slot</title>
<!-- Node1 -->
<g id="Node000001" class="node">
<title>Node1</title>
<g id="a_Node000001"><a xlink:title="Affiche l&#39;interface de selection de slot (chargement ou sauvegarde).">
<polygon fill="#999999" stroke="#666666" points="421.75,-39 300.75,-39 300.75,-19 421.75,-19 421.75,-39"/>
<text xml:space="preserve" text-anchor="middle" x="361.25" y="-25.5" font-family="Helvetica,sans-Serif" font-size="10.00">sauvegarde_choisir_slot</text>
</a>
</g>
</g>
<!-- Node2 -->
<g id="Node000002" class="node">
<title>Node2</title>
<g id="a_Node000002"><a xlink:href="menu_8c.html#a55097e0b77b0fabc6cae44137b9a839a" target="_top" xlink:title="Affiche menu et met a jour les elements visuels associes.">
<polygon fill="white" stroke="#666666" points="149.75,-58 73,-58 73,-38 149.75,-38 149.75,-58"/>
<text xml:space="preserve" text-anchor="middle" x="111.38" y="-44.5" font-family="Helvetica,sans-Serif" font-size="10.00">afficher_menu</text>
</a>
</g>
</g>
<!-- Node1&#45;&gt;Node2 -->
<g id="edge1_Node000001_Node000002" class="edge">
<title>Node1&#45;&gt;Node2</title>
<g id="a_edge1_Node000001_Node000002"><a xlink:title=" ">
<path fill="none" stroke="#63b8ff" d="M289.29,-34.44C243.9,-37.92 186.83,-42.29 149.98,-45.12"/>
<polygon fill="#63b8ff" stroke="#63b8ff" points="289.35,-37.94 299.05,-33.69 288.81,-30.97 289.35,-37.94"/>
</a>
</g>
</g>
<!-- Node4 -->
<g id="Node000004" class="node">
<title>Node4</title>
<g id="a_Node000004"><a xlink:href="pause_8c.html#abc45a9e3a6a57d6f0f44706bd52e556d" target="_top" xlink:title="Affiche pause et met a jour les elements visuels associes.">
<polygon fill="white" stroke="#666666" points="264.75,-20 185.75,-20 185.75,0 264.75,0 264.75,-20"/>
<text xml:space="preserve" text-anchor="middle" x="225.25" y="-6.5" font-family="Helvetica,sans-Serif" font-size="10.00">afficher_pause</text>
</a>
</g>
</g>
<!-- Node1&#45;&gt;Node4 -->
<g id="edge3_Node000001_Node000004" class="edge">
<title>Node1&#45;&gt;Node4</title>
<g id="a_edge3_Node000001_Node000004"><a xlink:title=" ">
<path fill="none" stroke="#63b8ff" d="M289.03,-18.9C280.76,-17.73 272.58,-16.57 264.99,-15.49"/>
<polygon fill="#63b8ff" stroke="#63b8ff" points="288.41,-22.35 298.81,-20.29 289.4,-15.42 288.41,-22.35"/>
</a>
</g>
</g>
<!-- Node3 -->
<g id="Node000003" class="node">
<title>Node3</title>
<g id="a_Node000003"><a xlink:href="main_8c.html#a0ddf1224851353fc92bfbff6f499fa97" target="_top" xlink:title=" ">
<polygon fill="white" stroke="#666666" points="37,-39 0,-39 0,-19 37,-19 37,-39"/>
<text xml:space="preserve" text-anchor="middle" x="18.5" y="-25.5" font-family="Helvetica,sans-Serif" font-size="10.00">main</text>
</a>
</g>
</g>
<!-- Node2&#45;&gt;Node3 -->
<g id="edge2_Node000002_Node000003" class="edge">
<title>Node2&#45;&gt;Node3</title>
<g id="a_edge2_Node000002_Node000003"><a xlink:title=" ">
<path fill="none" stroke="#63b8ff" d="M61.57,-37.8C52.84,-35.97 44.28,-34.18 37.18,-32.7"/>
<polygon fill="#63b8ff" stroke="#63b8ff" points="60.64,-41.18 71.14,-39.8 62.07,-34.33 60.64,-41.18"/>
</a>
</g>
</g>
<!-- Node5 -->
<g id="Node000005" class="node">
<title>Node5</title>
<g id="a_Node000005"><a xlink:href="jeux_8c.html#a2d7491d04e8c2bdb52bb6ed7d75e4d78" target="_top" xlink:title="Execute la boucle principale de gameplay pour la planete courante.">
<polygon fill="white" stroke="#666666" points="146.38,-20 76.38,-20 76.38,0 146.38,0 146.38,-20"/>
<text xml:space="preserve" text-anchor="middle" x="111.38" y="-6.5" font-family="Helvetica,sans-Serif" font-size="10.00">jeu_principal</text>
</a>
</g>
</g>
<!-- Node4&#45;&gt;Node5 -->
<g id="edge4_Node000004_Node000005" class="edge">
<title>Node4&#45;&gt;Node5</title>
<g id="a_edge4_Node000004_Node000005"><a xlink:title=" ">
<path fill="none" stroke="#63b8ff" d="M173.93,-10C164.7,-10 155.26,-10 146.64,-10"/>
<polygon fill="#63b8ff" stroke="#63b8ff" points="173.92,-13.5 183.92,-10 173.92,-6.5 173.92,-13.5"/>
</a>
</g>
</g>
<!-- Node5&#45;&gt;Node3 -->
<g id="edge5_Node000005_Node000003" class="edge">
<title>Node5&#45;&gt;Node3</title>
<g id="a_edge5_Node000005_Node000003"><a xlink:title=" ">
<path fill="none" stroke="#63b8ff" d="M65.02,-19.48C55.19,-21.54 45.35,-23.6 37.35,-25.27"/>
<polygon fill="#63b8ff" stroke="#63b8ff" points="65.47,-22.97 74.54,-17.49 64.03,-16.11 65.47,-22.97"/>
</a>
</g>
</g>
</g>
</svg>
</svg>

<style type='text/css'>
<![CDATA[
[data-mouse-over-selected='false'] { opacity: 0.7; }
[data-mouse-over-selected='true']  { opacity: 1.0; }
]]>
</style>
<script type="application/ecmascript"><![CDATA[
document.addEventListener('DOMContentLoaded', (event) => {
  highlightEdges();
  highlightAdjacentNodes();
});
]]></script>
</svg>
