<?xml version="1.0" encoding="UTF-8" standalone="no"?>
<!DOCTYPE svg PUBLIC "-//W3C//DTD SVG 1.1//EN"
 "http://www.w3.org/Graphics/SVG/1.1/DTD/svg11.dtd">
<!-- Generated by graphviz version 14.1.4 (20260321.0153)
 -->
<!-- Title: afficher_shop Pages: 1 -->
<svg width="381pt" height="408pt"
 viewBox="0.00 0.00 381.00 408.00" xmlns="http://www.w3.org/2000/svg" xmlns:xlink="http://www.w3.org/1999/xlink">

<svg id="main" version="1.1" xmlns="http://www.w3.org/2000/svg" xmlns:xlink="http://www.w3.org/1999/xlink" xml:space="preserve">

<style type="text/css"><![CDATA[
.node, .edge {opacity: 0.7;}
.node.selected, .edge.selected {opacity: 1;}
.edge:hover path { stroke: red; }
.edge:hover polygon { stroke: red; fill: red; }
]]></style>
<script type="application/ecmascript" xlink:href="svg.min.js"/>
<svg id="graph" class="graph">
<g id="graph0" class="graph" transform="scale(1 1) rotate(0) translate(4 404)">
<title>afficher_shop</title>
<!-- Node1 -->
<g id="Node000001" class="node">
<title>Node1</title>
<g id="a_Node000001"><a xlink:title="Affiche shop et met a jour les elements visuels associes.">
<polygon fill="#999999" stroke="#666666" points="73.75,-210 0,-210 0,-190 73.75,-190 73.75,-210"/>
<text xml:space="preserve" text-anchor="middle" x="36.88" y="-196.5" font-family="Helvetica,sans-Serif" font-size="10.00">afficher_shop</text>
</a>
</g>
</g>
<!-- Node2 -->
<g id="Node000002" class="node">
<title>Node2</title>
<g id="a_Node000002"><a xlink:href="shop_8c.html#a2397e5f82f3eccdbdb0419b1aa1dbd16" target="_top" xlink:title=" ">
<polygon fill="white" stroke="#666666" points="216.5,-400 128.5,-400 128.5,-380 216.5,-380 216.5,-400"/>
<text xml:space="preserve" text-anchor="middle" x="172.5" y="-386.5" font-family="Helvetica,sans-Serif" font-size="10.00">achat_faim_max</text>
</a>
</g>
</g>
<!-- Node1&#45;&gt;Node2 -->
<g id="edge1_Node000001_Node000002" class="edge">
<title>Node1&#45;&gt;Node2</title>
<g id="a_edge1_Node000001_Node000002"><a xlink:title=" ">
<path fill="none" stroke="#63b8ff" d="M39.15,-210.18C43.37,-239.62 59.61,-325.62 109.75,-371 112.21,-373.22 114.92,-375.19 117.79,-376.92"/>
<polygon fill="#63b8ff" stroke="#63b8ff" points="116.19,-380.03 126.7,-381.3 119.28,-373.75 116.19,-380.03"/>
</a>
</g>
</g>
<!-- Node3 -->
<g id="Node000003" class="node">
<title>Node3</title>
<g id="a_Node000003"><a xlink:href="shop_8c.html#a39103a3471c9d17e017aa8f676c074b8" target="_top" xlink:title=" ">
<polygon fill="white" stroke="#666666" points="212,-362 133,-362 133,-342 212,-342 212,-362"/>
<text xml:space="preserve" text-anchor="middle" x="172.5" y="-348.5" font-family="Helvetica,sans-Serif" font-size="10.00">achat_kit_soin</text>
</a>
</g>
</g>
<!-- Node1&#45;&gt;Node3 -->
<g id="edge2_Node000001_Node000003" class="edge">
<title>Node1&#45;&gt;Node3</title>
<g id="a_edge2_Node000001_Node000003"><a xlink:title=" ">
<path fill="none" stroke="#63b8ff" d="M40.54,-210.4C47.5,-235.38 68.55,-299.21 109.75,-333 113.46,-336.04 117.65,-338.6 122.06,-340.74"/>
<polygon fill="#63b8ff" stroke="#63b8ff" points="120.64,-343.94 131.22,-344.48 123.28,-337.46 120.64,-343.94"/>
</a>
</g>
</g>
<!-- Node6 -->
<g id="Node000006" class="node">
<title>Node6</title>
<g id="a_Node000006"><a xlink:href="shop_8c.html#a3a0cf67cd8050dab4ed60ba8eb5fb734" target="_top" xlink:title=" ">
<polygon fill="white" stroke="#666666" points="213.5,-324 131.5,-324 131.5,-304 213.5,-304 213.5,-324"/>
<text xml:space="preserve" text-anchor="middle" x="172.5" y="-310.5" font-family="Helvetica,sans-Serif" font-size="10.00">achat_vie_max</text>
</a>
</g>
</g>
<!-- Node1&#45;&gt;Node6 -->
<g id="edge5_Node000001_Node000006" class="edge">
<title>Node1&#45;&gt;Node6</title>
<g id="a_edge5_Node000001_Node000006"><a xlink:title=" ">
<path fill="none" stroke="#63b8ff" d="M42.85,-210.27C52.8,-229.74 77.05,-272.11 109.75,-295 113.17,-297.39 116.89,-299.49 120.77,-301.33"/>
<polygon fill="#63b8ff" stroke="#63b8ff" points="119.28,-304.5 129.86,-305.04 121.93,-298.02 119.28,-304.5"/>
</a>
</g>
</g>
<!-- Node7 -->
<g id="Node000007" class="node">
<title>Node7</title>
<g id="a_Node000007"><a xlink:href="shop_8c.html#a93418f2a71acc3e290c08470f486876b" target="_top" xlink:title=" ">
<polygon fill="white" stroke="#666666" points="210.88,-286 134.12,-286 134.12,-266 210.88,-266 210.88,-286"/>
<text xml:space="preserve" text-anchor="middle" x="172.5" y="-272.5" font-family="Helvetica,sans-Serif" font-size="10.00">achat_vitesse</text>
</a>
</g>
</g>
<!-- Node1&#45;&gt;Node7 -->
<g id="edge6_Node000001_Node000007" class="edge">
<title>Node1&#45;&gt;Node7</title>
<g id="a_edge6_Node000001_Node000007"><a xlink:title=" ">
<path fill="none" stroke="#63b8ff" d="M48.18,-210.26C61.4,-222.9 85.51,-244.24 109.75,-257 113.94,-259.2 118.42,-261.2 122.99,-262.99"/>
<polygon fill="#63b8ff" stroke="#63b8ff" points="121.69,-266.24 132.28,-266.3 124.04,-259.65 121.69,-266.24"/>
</a>
</g>
</g>
<!-- Node8 -->
<g id="Node000008" class="node">
<title>Node8</title>
<g id="a_Node000008"><a xlink:href="bouton_8c.html#a11f55905044ef2518b8c38311df3c48d" target="_top" xlink:title="Dessine la texture du bouton dans son rectangle d&#39;affichage.">
<polygon fill="white" stroke="#666666" points="215,-248 130,-248 130,-228 215,-228 215,-248"/>
<text xml:space="preserve" text-anchor="middle" x="172.5" y="-234.5" font-family="Helvetica,sans-Serif" font-size="10.00">Bouton_Afficher</text>
</a>
</g>
</g>
<!-- Node1&#45;&gt;Node8 -->
<g id="edge7_Node000001_Node000008" class="edge">
<title>Node1&#45;&gt;Node8</title>
<g id="a_edge7_Node000001_Node000008"><a xlink:title=" ">
<path fill="none" stroke="#63b8ff" d="M74.04,-210.28C89.36,-214.64 107.43,-219.78 123.82,-224.44"/>
<polygon fill="#63b8ff" stroke="#63b8ff" points="122.81,-227.79 133.39,-227.16 124.73,-221.06 122.81,-227.79"/>
</a>
</g>
</g>
<!-- Node9 -->
<g id="Node000009" class="node">
<title>Node9</title>
<g id="a_Node000009"><a xlink:href="bouton_8c.html#ab4862740c43f8a9abb996fff0aba5ca1" target="_top" xlink:title="Met a jour l&#39;etat du bouton a partir d&#39;un evenement SDL.">
<polygon fill="white" stroke="#666666" points="235.25,-210 109.75,-210 109.75,-190 235.25,-190 235.25,-210"/>
<text xml:space="preserve" text-anchor="middle" x="172.5" y="-196.5" font-family="Helvetica,sans-Serif" font-size="10.00">Bouton_GererEvenement</text>
</a>
</g>
</g>
<!-- Node1&#45;&gt;Node9 -->
<g id="edge8_Node000001_Node000009" class="edge">
<title>Node1&#45;&gt;Node9</title>
<g id="a_edge8_Node000001_Node000009"><a xlink:title=" ">
<path fill="none" stroke="#63b8ff" d="M74.04,-200C81.53,-200 89.68,-200 97.97,-200"/>
<polygon fill="#63b8ff" stroke="#63b8ff" points="97.79,-203.5 107.79,-200 97.79,-196.5 97.79,-203.5"/>
</a>
</g>
</g>
<!-- Node11 -->
<g id="Node000011" class="node">
<title>Node11</title>
<g id="a_Node000011"><a xlink:href="bouton_8c.html#a482b1feb9004901d0544e64b1c44051c" target="_top" xlink:title="Initialise un bouton (zone, texture et etat d&#39;interaction).">
<polygon fill="white" stroke="#666666" points="205.25,-172 139.75,-172 139.75,-152 205.25,-152 205.25,-172"/>
<text xml:space="preserve" text-anchor="middle" x="172.5" y="-158.5" font-family="Helvetica,sans-Serif" font-size="10.00">Bouton_Init</text>
</a>
</g>
</g>
<!-- Node1&#45;&gt;Node11 -->
<g id="edge10_Node000001_Node000011" class="edge">
<title>Node1&#45;&gt;Node11</title>
<g id="a_edge10_Node000001_Node000011"><a xlink:title=" ">
<path fill="none" stroke="#63b8ff" d="M74.04,-189.72C90.85,-184.93 110.98,-179.21 128.57,-174.21"/>
<polygon fill="#63b8ff" stroke="#63b8ff" points="129.3,-177.64 137.96,-171.54 127.38,-170.91 129.3,-177.64"/>
</a>
</g>
</g>
<!-- Node12 -->
<g id="Node000012" class="node">
<title>Node12</title>
<g id="a_Node000012"><a xlink:href="shop_8c.html#a37bfa7f5dbb58dbb60f0a9f9a3f6673b" target="_top" xlink:title=" ">
<polygon fill="white" stroke="#666666" points="201.12,-134 143.88,-134 143.88,-114 201.12,-114 201.12,-134"/>
<text xml:space="preserve" text-anchor="middle" x="172.5" y="-120.5" font-family="Helvetica,sans-Serif" font-size="10.00">draw_line</text>
</a>
</g>
</g>
<!-- Node1&#45;&gt;Node12 -->
<g id="edge11_Node000001_Node000012" class="edge">
<title>Node1&#45;&gt;Node12</title>
<g id="a_edge11_Node000001_Node000012"><a xlink:title=" ">
<path fill="none" stroke="#63b8ff" d="M48.18,-189.74C61.4,-177.1 85.51,-155.76 109.75,-143 116.9,-139.24 124.92,-136.09 132.75,-133.5"/>
<polygon fill="#63b8ff" stroke="#63b8ff" points="133.57,-136.91 142.13,-130.66 131.55,-130.21 133.57,-136.91"/>
</a>
</g>
</g>
<!-- Node14 -->
<g id="Node000014" class="node">
<title>Node14</title>
<g id="a_Node000014"><a xlink:href="main_8h.html#a9b4aefc63ea00e60ec88da19e24e8236" target="_top" xlink:title=" ">
<polygon fill="white" stroke="#666666" points="212.38,-96 132.62,-96 132.62,-76 212.38,-76 212.38,-96"/>
<text xml:space="preserve" text-anchor="middle" x="172.5" y="-82.5" font-family="Helvetica,sans-Serif" font-size="10.00">screen_heightf</text>
</a>
</g>
</g>
<!-- Node1&#45;&gt;Node14 -->
<g id="edge13_Node000001_Node000014" class="edge">
<title>Node1&#45;&gt;Node14</title>
<g id="a_edge13_Node000001_Node000014"><a xlink:title=" ">
<path fill="none" stroke="#63b8ff" d="M42.85,-189.73C52.8,-170.26 77.05,-127.89 109.75,-105 113.42,-102.43 117.44,-100.2 121.63,-98.27"/>
<polygon fill="#63b8ff" stroke="#63b8ff" points="122.83,-101.56 130.83,-94.61 120.24,-95.05 122.83,-101.56"/>
</a>
</g>
</g>
<!-- Node15 -->
<g id="Node000015" class="node">
<title>Node15</title>
<g id="a_Node000015"><a xlink:href="main_8h.html#aaaa1e9fcb86ff8e60b297faa7815ad1d" target="_top" xlink:title=" ">
<polygon fill="white" stroke="#666666" points="210.88,-58 134.12,-58 134.12,-38 210.88,-38 210.88,-58"/>
<text xml:space="preserve" text-anchor="middle" x="172.5" y="-44.5" font-family="Helvetica,sans-Serif" font-size="10.00">screen_widthf</text>
</a>
</g>
</g>
<!-- Node1&#45;&gt;Node15 -->
<g id="edge14_Node000001_Node000015" class="edge">
<title>Node1&#45;&gt;Node15</title>
<g id="a_edge14_Node000001_Node000015"><a xlink:title=" ">
<path fill="none" stroke="#63b8ff" d="M40.54,-189.6C47.5,-164.62 68.55,-100.79 109.75,-67 113.87,-63.62 118.59,-60.84 123.54,-58.56"/>
<polygon fill="#63b8ff" stroke="#63b8ff" points="124.45,-61.96 132.5,-55.07 121.91,-55.43 124.45,-61.96"/>
</a>
</g>
</g>
<!-- Node16 -->
<g id="Node000016" class="node">
<title>Node16</title>
<g id="a_Node000016"><a xlink:href="main_8c.html#a82958224f33fa21d40f4f7965f8396bc" target="_top" xlink:title="Met a jour screen metrics en fonction de l&#39;etat courant du jeu.">
<polygon fill="white" stroke="#666666" points="231.12,-20 113.88,-20 113.88,0 231.12,0 231.12,-20"/>
<text xml:space="preserve" text-anchor="middle" x="172.5" y="-6.5" font-family="Helvetica,sans-Serif" font-size="10.00">update_screen_metrics</text>
</a>
</g>
</g>
<!-- Node1&#45;&gt;Node16 -->
<g id="edge15_Node000001_Node000016" class="edge">
<title>Node1&#45;&gt;Node16</title>
<g id="a_edge15_Node000001_Node000016"><a xlink:title=" ">
<path fill="none" stroke="#63b8ff" d="M39.15,-189.82C43.37,-160.38 59.61,-74.38 109.75,-29 110.83,-28.03 111.95,-27.1 113.12,-26.23"/>
<polygon fill="#63b8ff" stroke="#63b8ff" points="114.71,-29.35 121.44,-21.17 111.08,-23.37 114.71,-29.35"/>
</a>
</g>
</g>
<!-- Node4 -->
<g id="Node000004" class="node">
<title>Node4</title>
<g id="a_Node000004"><a xlink:href="inventaire_8c.html#af0bb60f5edfe743f3132d027eaf1bcbb" target="_top" xlink:title="Ajoute un item dans la hotbar (slot libre ou pile compatible).">
<polygon fill="white" stroke="#666666" points="372.75,-381 271.25,-381 271.25,-361 372.75,-361 372.75,-381"/>
<text xml:space="preserve" text-anchor="middle" x="322" y="-367.5" font-family="Helvetica,sans-Serif" font-size="10.00">ajouter_item_hotbar</text>
</a>
</g>
</g>
<!-- Node3&#45;&gt;Node4 -->
<g id="edge3_Node000003_Node000004" class="edge">
<title>Node3&#45;&gt;Node4</title>
<g id="a_edge3_Node000003_Node000004"><a xlink:title=" ">
<path fill="none" stroke="#63b8ff" d="M212.25,-356.99C226.82,-358.87 243.75,-361.05 259.86,-363.12"/>
<polygon fill="#63b8ff" stroke="#63b8ff" points="258.97,-366.54 269.34,-364.35 259.87,-359.6 258.97,-366.54"/>
</a>
</g>
</g>
<!-- Node5 -->
<g id="Node000005" class="node">
<title>Node5</title>
<g id="a_Node000005"><a xlink:href="item_8c.html#ac066d9bc77b421f23ca66756b7ff4a33" target="_top" xlink:title="Initialise item et prepare les ressources necessaires.">
<polygon fill="white" stroke="#666666" points="348.38,-343 295.62,-343 295.62,-323 348.38,-323 348.38,-343"/>
<text xml:space="preserve" text-anchor="middle" x="322" y="-329.5" font-family="Helvetica,sans-Serif" font-size="10.00">init_item</text>
</a>
</g>
</g>
<!-- Node3&#45;&gt;Node5 -->
<g id="edge4_Node000003_Node000005" class="edge">
<title>Node3&#45;&gt;Node5</title>
<g id="a_edge4_Node000003_Node000005"><a xlink:title=" ">
<path fill="none" stroke="#63b8ff" d="M212.25,-347.01C234.54,-344.14 262.37,-340.55 284.3,-337.73"/>
<polygon fill="#63b8ff" stroke="#63b8ff" points="284.51,-341.23 293.99,-336.48 283.62,-334.29 284.51,-341.23"/>
</a>
</g>
</g>
<!-- Node10 -->
<g id="Node000010" class="node">
<title>Node10</title>
<g id="a_Node000010"><a xlink:href="bouton_8c.html#a273a0b22067678e17b3e6b4be36e3641" target="_top" xlink:title=" ">
<polygon fill="white" stroke="#666666" points="362.62,-210 281.38,-210 281.38,-190 362.62,-190 362.62,-210"/>
<text xml:space="preserve" text-anchor="middle" x="322" y="-196.5" font-family="Helvetica,sans-Serif" font-size="10.00">pointDansRect</text>
</a>
</g>
</g>
<!-- Node9&#45;&gt;Node10 -->
<g id="edge9_Node000009_Node000010" class="edge">
<title>Node9&#45;&gt;Node10</title>
<g id="a_edge9_Node000009_Node000010"><a xlink:title=" ">
<path fill="none" stroke="#63b8ff" d="M235.63,-200C247.08,-200 258.92,-200 269.99,-200"/>
<polygon fill="#63b8ff" stroke="#63b8ff" points="269.7,-203.5 279.7,-200 269.7,-196.5 269.7,-203.5"/>
</a>
</g>
</g>
<!-- Node13 -->
<g id="Node000013" class="node">
<title>Node13</title>
<g id="a_Node000013"><a xlink:href="shop_8c.html#a1f2a5347c920158ddff867b4f809baa3" target="_top" xlink:title=" ">
<polygon fill="white" stroke="#666666" points="352.88,-134 291.12,-134 291.12,-114 352.88,-114 352.88,-134"/>
<text xml:space="preserve" text-anchor="middle" x="322" y="-120.5" font-family="Helvetica,sans-Serif" font-size="10.00">make_text</text>
</a>
</g>
</g>
<!-- Node12&#45;&gt;Node13 -->
<g id="edge12_Node000012_Node000013" class="edge">
<title>Node12&#45;&gt;Node13</title>
<g id="a_edge12_Node000012_Node000013"><a xlink:title=" ">
<path fill="none" stroke="#63b8ff" d="M201.59,-124C223.6,-124 254.55,-124 279.43,-124"/>
<polygon fill="#63b8ff" stroke="#63b8ff" points="279.22,-127.5 289.22,-124 279.22,-120.5 279.22,-127.5"/>
</a>
</g>
</g>
</g>
</svg>
</svg>

<style type='text/css'>
<![CDATA[
[data-mouse-over-selected='false'] { opacity: 0.7; }
[data-mouse-over-selected='true']  { opacity: 1.0; }
]]>
</style>
<script type="application/ecmascript"><![CDATA[
document.addEventListener('DOMContentLoaded', (event) => {
  highlightEdges();
  highlightAdjacentNodes();
});
]]></script>
</svg>
