<?xml version="1.0" encoding="UTF-8" standalone="no"?>
<!DOCTYPE svg PUBLIC "-//W3C//DTD SVG 1.1//EN"
 "http://www.w3.org/Graphics/SVG/1.1/DTD/svg11.dtd">
<!-- Generated by graphviz version 14.1.4 (20260321.0153)
 -->
<!-- Title: afficher_shop Pages: 1 -->
<svg width="361pt" height="142pt"
 viewBox="0.00 0.00 361.00 142.00" xmlns="http://www.w3.org/2000/svg" xmlns:xlink="http://www.w3.org/1999/xlink">
<g id="graph0" class="graph" transform="scale(1 1) rotate(0) translate(4 138)">
<title>afficher_shop</title>
<!-- Node1 -->
<g id="Node000001" class="node">
<title>Node1</title>
<g id="a_Node000001"><a xlink:title="Affiche shop et met a jour les elements visuels associes.">
<polygon fill="#999999" stroke="#666666" points="73.75,-77 0,-77 0,-57 73.75,-57 73.75,-77"/>
<text xml:space="preserve" text-anchor="middle" x="36.88" y="-63.5" font-family="Helvetica,sans-Serif" font-size="10.00">afficher_shop</text>
</a>
</g>
</g>
<!-- Node2 -->
<g id="Node000002" class="node">
<title>Node2</title>
<g id="a_Node000002"><a xlink:href="bouton_8c.html#a11f55905044ef2518b8c38311df3c48d" target="_top" xlink:title="Dessine la texture du bouton dans son rectangle d&#39;affichage.">
<polygon fill="white" stroke="#666666" points="215,-134 130,-134 130,-114 215,-114 215,-134"/>
<text xml:space="preserve" text-anchor="middle" x="172.5" y="-120.5" font-family="Helvetica,sans-Serif" font-size="10.00">Bouton_Afficher</text>
</a>
</g>
</g>
<!-- Node1&#45;&gt;Node2 -->
<g id="edge1_Node000001_Node000002" class="edge">
<title>Node1&#45;&gt;Node2</title>
<g id="a_edge1_Node000001_Node000002"><a xlink:title=" ">
<path fill="none" stroke="#63b8ff" d="M55.44,-77.49C69.72,-85.71 90.58,-97.07 109.75,-105 113.89,-106.71 118.24,-108.35 122.63,-109.9"/>
<polygon fill="#63b8ff" stroke="#63b8ff" points="121.52,-113.22 132.11,-113.07 123.74,-106.58 121.52,-113.22"/>
</a>
</g>
</g>
<!-- Node3 -->
<g id="Node000003" class="node">
<title>Node3</title>
<g id="a_Node000003"><a xlink:href="bouton_8c.html#ab4862740c43f8a9abb996fff0aba5ca1" target="_top" xlink:title="Met a jour l&#39;etat du bouton a partir d&#39;un evenement SDL.">
<polygon fill="white" stroke="#666666" points="235.25,-96 109.75,-96 109.75,-76 235.25,-76 235.25,-96"/>
<text xml:space="preserve" text-anchor="middle" x="172.5" y="-82.5" font-family="Helvetica,sans-Serif" font-size="10.00">Bouton_GererEvenement</text>
</a>
</g>
</g>
<!-- Node1&#45;&gt;Node3 -->
<g id="edge2_Node000001_Node000003" class="edge">
<title>Node1&#45;&gt;Node3</title>
<g id="a_edge2_Node000001_Node000003"><a xlink:title=" ">
<path fill="none" stroke="#63b8ff" d="M74.04,-72.14C81.53,-73.21 89.68,-74.37 97.97,-75.54"/>
<polygon fill="#63b8ff" stroke="#63b8ff" points="97.41,-79 107.81,-76.94 98.4,-72.07 97.41,-79"/>
</a>
</g>
</g>
<!-- Node5 -->
<g id="Node000005" class="node">
<title>Node5</title>
<g id="a_Node000005"><a xlink:href="bouton_8c.html#a482b1feb9004901d0544e64b1c44051c" target="_top" xlink:title="Initialise un bouton (zone, texture et etat d&#39;interaction).">
<polygon fill="white" stroke="#666666" points="205.25,-58 139.75,-58 139.75,-38 205.25,-38 205.25,-58"/>
<text xml:space="preserve" text-anchor="middle" x="172.5" y="-44.5" font-family="Helvetica,sans-Serif" font-size="10.00">Bouton_Init</text>
</a>
</g>
</g>
<!-- Node1&#45;&gt;Node5 -->
<g id="edge4_Node000001_Node000005" class="edge">
<title>Node1&#45;&gt;Node5</title>
<g id="a_edge4_Node000001_Node000005"><a xlink:title=" ">
<path fill="none" stroke="#63b8ff" d="M74.04,-61.86C90.69,-59.49 110.6,-56.66 128.07,-54.18"/>
<polygon fill="#63b8ff" stroke="#63b8ff" points="128.51,-57.65 137.92,-52.78 127.52,-50.72 128.51,-57.65"/>
</a>
</g>
</g>
<!-- Node6 -->
<g id="Node000006" class="node">
<title>Node6</title>
<g id="a_Node000006"><a xlink:href="main_8c.html#a82958224f33fa21d40f4f7965f8396bc" target="_top" xlink:title="Met a jour screen metrics en fonction de l&#39;etat courant du jeu.">
<polygon fill="white" stroke="#666666" points="231.12,-20 113.88,-20 113.88,0 231.12,0 231.12,-20"/>
<text xml:space="preserve" text-anchor="middle" x="172.5" y="-6.5" font-family="Helvetica,sans-Serif" font-size="10.00">update_screen_metrics</text>
</a>
</g>
</g>
<!-- Node1&#45;&gt;Node6 -->
<g id="edge5_Node000001_Node000006" class="edge">
<title>Node1&#45;&gt;Node6</title>
<g id="a_edge5_Node000001_Node000006"><a xlink:title=" ">
<path fill="none" stroke="#63b8ff" d="M55.44,-56.51C69.72,-48.29 90.58,-36.93 109.75,-29 113.89,-27.29 118.24,-25.65 122.63,-24.1"/>
<polygon fill="#63b8ff" stroke="#63b8ff" points="123.74,-27.42 132.11,-20.93 121.52,-20.78 123.74,-27.42"/>
</a>
</g>
</g>
<!-- Node4 -->
<g id="Node000004" class="node">
<title>Node4</title>
<g id="a_Node000004"><a xlink:href="bouton_8c.html#a273a0b22067678e17b3e6b4be36e3641" target="_top" xlink:title=" ">
<polygon fill="white" stroke="#666666" points="352.5,-96 271.25,-96 271.25,-76 352.5,-76 352.5,-96"/>
<text xml:space="preserve" text-anchor="middle" x="311.88" y="-82.5" font-family="Helvetica,sans-Serif" font-size="10.00">pointDansRect</text>
</a>
</g>
</g>
<!-- Node3&#45;&gt;Node4 -->
<g id="edge3_Node000003_Node000004" class="edge">
<title>Node3&#45;&gt;Node4</title>
<g id="a_edge3_Node000003_Node000004"><a xlink:title=" ">
<path fill="none" stroke="#63b8ff" d="M235.36,-86C243.49,-86 251.75,-86 259.68,-86"/>
<polygon fill="#63b8ff" stroke="#63b8ff" points="259.5,-89.5 269.5,-86 259.5,-82.5 259.5,-89.5"/>
</a>
</g>
</g>
</g>
</svg>
