<?xml version="1.0" encoding="UTF-8" standalone="no"?>
<!DOCTYPE svg PUBLIC "-//W3C//DTD SVG 1.1//EN"
 "http://www.w3.org/Graphics/SVG/1.1/DTD/svg11.dtd">
<!-- Generated by graphviz version 14.1.4 (20260321.0153)
 -->
<!-- Title: achat_vitesse Pages: 1 -->
<svg width="763pt" height="66pt"
 viewBox="0.00 0.00 763.00 66.00" xmlns="http://www.w3.org/2000/svg" xmlns:xlink="http://www.w3.org/1999/xlink">
<g id="graph0" class="graph" transform="scale(1 1) rotate(0) translate(4 62)">
<title>achat_vitesse</title>
<!-- Node1 -->
<g id="Node000001" class="node">
<title>Node1</title>
<g id="a_Node000001"><a xlink:title=" ">
<polygon fill="#999999" stroke="#666666" points="754.75,-20 678,-20 678,0 754.75,0 754.75,-20"/>
<text xml:space="preserve" text-anchor="middle" x="716.38" y="-6.5" font-family="Helvetica,sans-Serif" font-size="10.00">achat_vitesse</text>
</a>
</g>
</g>
<!-- Node2 -->
<g id="Node000002" class="node">
<title>Node2</title>
<g id="a_Node000002"><a xlink:href="shop_8c.html#ad1ea096e4fe280946f862273fc94eb30" target="_top" xlink:title="Affiche shop et met a jour les elements visuels associes.">
<polygon fill="white" stroke="#666666" points="642,-20 568.25,-20 568.25,0 642,0 642,-20"/>
<text xml:space="preserve" text-anchor="middle" x="605.12" y="-6.5" font-family="Helvetica,sans-Serif" font-size="10.00">afficher_shop</text>
</a>
</g>
</g>
<!-- Node1&#45;&gt;Node2 -->
<g id="edge1_Node000001_Node000002" class="edge">
<title>Node1&#45;&gt;Node2</title>
<g id="a_edge1_Node000001_Node000002"><a xlink:title=" ">
<path fill="none" stroke="#63b8ff" d="M666.48,-10C658.35,-10 650.05,-10 642.32,-10"/>
<polygon fill="#63b8ff" stroke="#63b8ff" points="666.26,-13.5 676.26,-10 666.26,-6.5 666.26,-13.5"/>
</a>
</g>
</g>
<!-- Node3 -->
<g id="Node000003" class="node">
<title>Node3</title>
<g id="a_Node000003"><a xlink:href="vaisseau_8c.html#ace614afc8df3a40bd5ea0771044ff217" target="_top" xlink:title=" ">
<polygon fill="white" stroke="#666666" points="532.25,-20 418,-20 418,0 532.25,0 532.25,-20"/>
<text xml:space="preserve" text-anchor="middle" x="475.12" y="-6.5" font-family="Helvetica,sans-Serif" font-size="10.00">gerer_interaction_objet</text>
</a>
</g>
</g>
<!-- Node2&#45;&gt;Node3 -->
<g id="edge2_Node000002_Node000003" class="edge">
<title>Node2&#45;&gt;Node3</title>
<g id="a_edge2_Node000002_Node000003"><a xlink:title=" ">
<path fill="none" stroke="#63b8ff" d="M556.38,-10C548.64,-10 540.57,-10 532.65,-10"/>
<polygon fill="#63b8ff" stroke="#63b8ff" points="556.27,-13.5 566.27,-10 556.27,-6.5 556.27,-13.5"/>
</a>
</g>
</g>
<!-- Node4 -->
<g id="Node000004" class="node">
<title>Node4</title>
<g id="a_Node000004"><a xlink:href="vaisseau_8c.html#a8ea9afc9440149ddd36e96b97d8ed6c5" target="_top" xlink:title="Lance la scene interieure du vaisseau (deplacement, interactions, mini&#45;jeux, sortie).">
<polygon fill="white" stroke="#666666" points="382,-39 327,-39 327,-19 382,-19 382,-39"/>
<text xml:space="preserve" text-anchor="middle" x="354.5" y="-25.5" font-family="Helvetica,sans-Serif" font-size="10.00">vaisseau</text>
</a>
</g>
</g>
<!-- Node3&#45;&gt;Node4 -->
<g id="edge3_Node000003_Node000004" class="edge">
<title>Node3&#45;&gt;Node4</title>
<g id="a_edge3_Node000003_Node000004"><a xlink:title=" ">
<path fill="none" stroke="#63b8ff" d="M406.37,-20.85C397.89,-22.21 389.65,-23.53 382.35,-24.7"/>
<polygon fill="#63b8ff" stroke="#63b8ff" points="406.78,-24.33 416.1,-19.29 405.67,-17.42 406.78,-24.33"/>
</a>
</g>
</g>
<!-- Node5 -->
<g id="Node000005" class="node">
<title>Node5</title>
<g id="a_Node000005"><a xlink:href="cinematique_8c.html#a418cc3e727578f4cd509ad27cd6a2a31" target="_top" xlink:title="Lance cinematique fin et gere son deroulement complet.">
<polygon fill="white" stroke="#666666" points="291,-39 180.5,-39 180.5,-19 291,-19 291,-39"/>
<text xml:space="preserve" text-anchor="middle" x="235.75" y="-25.5" font-family="Helvetica,sans-Serif" font-size="10.00">jouer_cinematique_fin</text>
</a>
</g>
</g>
<!-- Node4&#45;&gt;Node5 -->
<g id="edge4_Node000004_Node000005" class="edge">
<title>Node4&#45;&gt;Node5</title>
<g id="a_edge4_Node000004_Node000005"><a xlink:title=" ">
<path fill="none" stroke="#63b8ff" d="M315.4,-29C307.61,-29 299.28,-29 291.05,-29"/>
<polygon fill="#63b8ff" stroke="#63b8ff" points="315.2,-32.5 325.2,-29 315.2,-25.5 315.2,-32.5"/>
</a>
</g>
</g>
<!-- Node7 -->
<g id="Node000007" class="node">
<title>Node7</title>
<g id="a_Node000007"><a xlink:href="main_8c.html#a0ddf1224851353fc92bfbff6f499fa97" target="_top" xlink:title=" ">
<polygon fill="white" stroke="#666666" points="37,-58 0,-58 0,-38 37,-38 37,-58"/>
<text xml:space="preserve" text-anchor="middle" x="18.5" y="-44.5" font-family="Helvetica,sans-Serif" font-size="10.00">main</text>
</a>
</g>
</g>
<!-- Node4&#45;&gt;Node7 -->
<g id="edge8_Node000004_Node000007" class="edge">
<title>Node4&#45;&gt;Node7</title>
<g id="a_edge8_Node000004_Node000007"><a xlink:title=" ">
<path fill="none" stroke="#63b8ff" d="M315.58,-42.47C307.57,-44.77 299.08,-46.8 291,-48 196.35,-62.07 81.09,-53.83 37.42,-49.81"/>
<polygon fill="#63b8ff" stroke="#63b8ff" points="316.55,-45.84 325.07,-39.55 314.49,-39.15 316.55,-45.84"/>
</a>
</g>
</g>
<!-- Node6 -->
<g id="Node000006" class="node">
<title>Node6</title>
<g id="a_Node000006"><a xlink:href="map_8c.html#ad462ccdd50801fb085dc8134fc3765d1" target="_top" xlink:title="Affiche la carte et met a jour les elements visuels associes.">
<polygon fill="white" stroke="#666666" points="144.5,-39 73,-39 73,-19 144.5,-19 144.5,-39"/>
<text xml:space="preserve" text-anchor="middle" x="108.75" y="-25.5" font-family="Helvetica,sans-Serif" font-size="10.00">afficher_map</text>
</a>
</g>
</g>
<!-- Node5&#45;&gt;Node6 -->
<g id="edge5_Node000005_Node000006" class="edge">
<title>Node5&#45;&gt;Node6</title>
<g id="a_edge5_Node000005_Node000006"><a xlink:title=" ">
<path fill="none" stroke="#63b8ff" d="M169,-29C160.72,-29 152.51,-29 144.96,-29"/>
<polygon fill="#63b8ff" stroke="#63b8ff" points="168.77,-32.5 178.77,-29 168.77,-25.5 168.77,-32.5"/>
</a>
</g>
</g>
<!-- Node6&#45;&gt;Node3 -->
<g id="edge6_Node000006_Node000003" class="edge">
<title>Node6&#45;&gt;Node3</title>
<g id="a_edge6_Node000006_Node000003"><a xlink:title=" ">
<path fill="none" stroke="#63b8ff" d="M152.33,-15.64C161.53,-13.29 171.27,-11.22 180.5,-10 262.37,0.8 358.21,-2.07 417.55,-5.63"/>
<polygon fill="#63b8ff" stroke="#63b8ff" points="151.64,-12.2 142.9,-18.19 153.47,-18.95 151.64,-12.2"/>
</a>
</g>
</g>
<!-- Node6&#45;&gt;Node7 -->
<g id="edge7_Node000006_Node000007" class="edge">
<title>Node6&#45;&gt;Node7</title>
<g id="a_edge7_Node000006_Node000007"><a xlink:title=" ">
<path fill="none" stroke="#63b8ff" d="M61.39,-38.98C52.82,-40.83 44.36,-42.65 37.31,-44.17"/>
<polygon fill="#63b8ff" stroke="#63b8ff" points="62.1,-42.41 71.14,-36.88 60.63,-35.57 62.1,-42.41"/>
</a>
</g>
</g>
</g>
</svg>
