<?xml version="1.0" encoding="UTF-8" standalone="no"?>
<!DOCTYPE svg PUBLIC "-//W3C//DTD SVG 1.1//EN"
 "http://www.w3.org/Graphics/SVG/1.1/DTD/svg11.dtd">
<!-- Generated by graphviz version 14.1.4 (20260321.0153)
 -->
<!-- Title: achat_kit_soin Pages: 1 -->
<svg width="225pt" height="66pt"
 viewBox="0.00 0.00 225.00 66.00" xmlns="http://www.w3.org/2000/svg" xmlns:xlink="http://www.w3.org/1999/xlink">
<g id="graph0" class="graph" transform="scale(1 1) rotate(0) translate(4 62)">
<title>achat_kit_soin</title>
<!-- Node1 -->
<g id="Node000001" class="node">
<title>Node1</title>
<g id="a_Node000001"><a xlink:title=" ">
<polygon fill="#999999" stroke="#666666" points="79,-39 0,-39 0,-19 79,-19 79,-39"/>
<text xml:space="preserve" text-anchor="middle" x="39.5" y="-25.5" font-family="Helvetica,sans-Serif" font-size="10.00">achat_kit_soin</text>
</a>
</g>
</g>
<!-- Node2 -->
<g id="Node000002" class="node">
<title>Node2</title>
<g id="a_Node000002"><a xlink:href="inventaire_8c.html#af0bb60f5edfe743f3132d027eaf1bcbb" target="_top" xlink:title="Ajoute un item dans la hotbar (slot libre ou pile compatible).">
<polygon fill="white" stroke="#666666" points="216.5,-58 115,-58 115,-38 216.5,-38 216.5,-58"/>
<text xml:space="preserve" text-anchor="middle" x="165.75" y="-44.5" font-family="Helvetica,sans-Serif" font-size="10.00">ajouter_item_hotbar</text>
</a>
</g>
</g>
<!-- Node1&#45;&gt;Node2 -->
<g id="edge1_Node000001_Node000002" class="edge">
<title>Node1&#45;&gt;Node2</title>
<g id="a_edge1_Node000001_Node000002"><a xlink:title=" ">
<path fill="none" stroke="#63b8ff" d="M79.47,-34.96C87.02,-36.11 95.1,-37.35 103.16,-38.58"/>
<polygon fill="#63b8ff" stroke="#63b8ff" points="102.59,-42.04 113,-40.09 103.65,-35.12 102.59,-42.04"/>
</a>
</g>
</g>
<!-- Node3 -->
<g id="Node000003" class="node">
<title>Node3</title>
<g id="a_Node000003"><a xlink:href="item_8c.html#ac066d9bc77b421f23ca66756b7ff4a33" target="_top" xlink:title="Initialise item et prepare les ressources necessaires.">
<polygon fill="white" stroke="#666666" points="192.12,-20 139.38,-20 139.38,0 192.12,0 192.12,-20"/>
<text xml:space="preserve" text-anchor="middle" x="165.75" y="-6.5" font-family="Helvetica,sans-Serif" font-size="10.00">init_item</text>
</a>
</g>
</g>
<!-- Node1&#45;&gt;Node3 -->
<g id="edge2_Node000001_Node000003" class="edge">
<title>Node1&#45;&gt;Node3</title>
<g id="a_edge2_Node000001_Node000003"><a xlink:title=" ">
<path fill="none" stroke="#63b8ff" d="M79.47,-23.04C95.01,-20.66 112.81,-17.94 128.11,-15.6"/>
<polygon fill="#63b8ff" stroke="#63b8ff" points="128.39,-19.1 137.75,-14.13 127.33,-12.18 128.39,-19.1"/>
</a>
</g>
</g>
</g>
</svg>
