<?xml version="1.0" encoding="UTF-8" standalone="no"?>
<!DOCTYPE svg PUBLIC "-//W3C//DTD SVG 1.1//EN"
 "http://www.w3.org/Graphics/SVG/1.1/DTD/svg11.dtd">
<!-- Generated by graphviz version 14.1.4 (20260321.0153)
 -->
<!-- Title: src/shop.c Pages: 1 -->
<svg width="1517pt" height="196pt"
 viewBox="0.00 0.00 1517.00 196.00" xmlns="http://www.w3.org/2000/svg" xmlns:xlink="http://www.w3.org/1999/xlink">
<g id="graph0" class="graph" transform="scale(1 1) rotate(0) translate(4 192)">
<title>src/shop.c</title>
<!-- Node1 -->
<g id="Node000001" class="node">
<title>Node1</title>
<g id="a_Node000001"><a xlink:title="Interface de boutique du vaisseau et achats du joueur.">
<polygon fill="#999999" stroke="#666666" points="1118.95,-188 1057.2,-188 1057.2,-168 1118.95,-168 1118.95,-188"/>
<text xml:space="preserve" text-anchor="middle" x="1088.08" y="-174.5" font-family="Helvetica,sans-Serif" font-size="10.00">src/shop.c</text>
</a>
</g>
</g>
<!-- Node2 -->
<g id="Node000002" class="node">
<title>Node2</title>
<g id="a_Node000002"><a xlink:href="main_8h.html" target="_top" xlink:title="Declarations globales et utilitaires partages entre les modules du jeu.">
<polygon fill="white" stroke="#666666" points="736.45,-132 653.7,-132 653.7,-112 736.45,-112 736.45,-132"/>
<text xml:space="preserve" text-anchor="middle" x="695.08" y="-118.5" font-family="Helvetica,sans-Serif" font-size="10.00">headers/main.h</text>
</a>
</g>
</g>
<!-- Node1&#45;&gt;Node2 -->
<g id="edge1_Node000001_Node000002" class="edge">
<title>Node1&#45;&gt;Node2</title>
<g id="a_edge1_Node000001_Node000002"><a xlink:title=" ">
<path fill="none" stroke="#63b8ff" d="M1056.91,-172.72C989.81,-163.5 831.02,-141.68 747.89,-130.26"/>
<polygon fill="#63b8ff" stroke="#63b8ff" points="748.56,-126.82 738.18,-128.92 747.61,-133.75 748.56,-126.82"/>
</a>
</g>
</g>
<!-- Node16 -->
<g id="Node000016" class="node">
<title>Node16</title>
<g id="a_Node000016"><a xlink:title=" ">
<polygon fill="#e0e0e0" stroke="#999999" points="1158.08,-20 1058.08,-20 1058.08,0 1158.08,0 1158.08,-20"/>
<text xml:space="preserve" text-anchor="middle" x="1108.08" y="-6.5" font-family="Helvetica,sans-Serif" font-size="10.00">SDL3_ttf/SDL_ttf.h</text>
</a>
</g>
</g>
<!-- Node1&#45;&gt;Node16 -->
<g id="edge62_Node000001_Node000016" class="edge">
<title>Node1&#45;&gt;Node16</title>
<g id="a_edge62_Node000001_Node000016"><a xlink:title=" ">
<path fill="none" stroke="#63b8ff" d="M1119.26,-173.49C1224.5,-161.04 1557.05,-116.47 1503.08,-56 1481.31,-31.62 1275.54,-18.68 1169.95,-13.6"/>
<polygon fill="#63b8ff" stroke="#63b8ff" points="1170.18,-10.11 1160.02,-13.13 1169.85,-17.1 1170.18,-10.11"/>
</a>
</g>
</g>
<!-- Node3 -->
<g id="Node000003" class="node">
<title>Node3</title>
<g id="a_Node000003"><a xlink:title=" ">
<polygon fill="#e0e0e0" stroke="#999999" points="805.83,-20 734.33,-20 734.33,0 805.83,0 805.83,-20"/>
<text xml:space="preserve" text-anchor="middle" x="770.08" y="-6.5" font-family="Helvetica,sans-Serif" font-size="10.00">SDL3/SDL.h</text>
</a>
</g>
</g>
<!-- Node2&#45;&gt;Node3 -->
<g id="edge2_Node000002_Node000003" class="edge">
<title>Node2&#45;&gt;Node3</title>
<g id="a_edge2_Node000002_Node000003"><a xlink:title=" ">
<path fill="none" stroke="#63b8ff" d="M736.8,-118.12C791.88,-113.35 884.33,-101.66 905.08,-76 932.46,-42.12 866.26,-24.75 817.18,-16.79"/>
<polygon fill="#63b8ff" stroke="#63b8ff" points="817.99,-13.37 807.57,-15.33 816.93,-20.29 817.99,-13.37"/>
</a>
</g>
</g>
<!-- Node4 -->
<g id="Node000004" class="node">
<title>Node4</title>
<g id="a_Node000004"><a xlink:title=" ">
<polygon fill="#e0e0e0" stroke="#999999" points="612.33,-20 477.83,-20 477.83,0 612.33,0 612.33,-20"/>
<text xml:space="preserve" text-anchor="middle" x="545.08" y="-6.5" font-family="Helvetica,sans-Serif" font-size="10.00">SDL3_image/SDL_image.h</text>
</a>
</g>
</g>
<!-- Node2&#45;&gt;Node4 -->
<g id="edge3_Node000002_Node000004" class="edge">
<title>Node2&#45;&gt;Node4</title>
<g id="a_edge3_Node000002_Node000004"><a xlink:title=" ">
<path fill="none" stroke="#63b8ff" d="M653.48,-119.35C556.61,-115.08 322.4,-102.13 299.08,-76 293.16,-69.37 293.38,-62.83 299.08,-56 320.16,-30.71 402.58,-19.6 466.28,-14.73"/>
<polygon fill="#63b8ff" stroke="#63b8ff" points="466.3,-18.24 476.02,-14.03 465.8,-11.26 466.3,-18.24"/>
</a>
</g>
</g>
<!-- Node5 -->
<g id="Node000005" class="node">
<title>Node5</title>
<g id="a_Node000005"><a xlink:title=" ">
<polygon fill="#e0e0e0" stroke="#999999" points="1494.08,-76 1448.08,-76 1448.08,-56 1494.08,-56 1494.08,-76"/>
<text xml:space="preserve" text-anchor="middle" x="1471.08" y="-62.5" font-family="Helvetica,sans-Serif" font-size="10.00">math.h</text>
</a>
</g>
</g>
<!-- Node2&#45;&gt;Node5 -->
<g id="edge4_Node000002_Node000005" class="edge">
<title>Node2&#45;&gt;Node5</title>
<g id="a_edge4_Node000002_Node000005"><a xlink:title=" ">
<path fill="none" stroke="#63b8ff" d="M736.56,-121.58C848.41,-122.49 1165.48,-120.76 1436.54,-76.05"/>
<polygon fill="#63b8ff" stroke="#63b8ff" points="1437.01,-79.53 1446.29,-74.42 1435.85,-72.62 1437.01,-79.53"/>
</a>
</g>
</g>
<!-- Node6 -->
<g id="Node000006" class="node">
<title>Node6</title>
<g id="a_Node000006"><a xlink:title=" ">
<polygon fill="#e0e0e0" stroke="#999999" points="265.08,-20 135.08,-20 135.08,0 265.08,0 265.08,-20"/>
<text xml:space="preserve" text-anchor="middle" x="200.08" y="-6.5" font-family="Helvetica,sans-Serif" font-size="10.00">SDL3_mixer/SDL_mixer.h</text>
</a>
</g>
</g>
<!-- Node2&#45;&gt;Node6 -->
<g id="edge5_Node000002_Node000006" class="edge">
<title>Node2&#45;&gt;Node6</title>
<g id="a_edge5_Node000002_Node000006"><a xlink:title=" ">
<path fill="none" stroke="#63b8ff" d="M653.35,-121.49C511.48,-122.72 54.07,-122.98 10.08,-76 -27.96,-35.38 55.29,-20.15 123.38,-14.43"/>
<polygon fill="#63b8ff" stroke="#63b8ff" points="123.38,-17.94 133.08,-13.68 122.84,-10.96 123.38,-17.94"/>
</a>
</g>
</g>
<!-- Node7 -->
<g id="Node000007" class="node">
<title>Node7</title>
<g id="a_Node000007"><a xlink:title=" ">
<polygon fill="#e0e0e0" stroke="#999999" points="64.7,-76 19.45,-76 19.45,-56 64.7,-56 64.7,-76"/>
<text xml:space="preserve" text-anchor="middle" x="42.08" y="-62.5" font-family="Helvetica,sans-Serif" font-size="10.00">stdio.h</text>
</a>
</g>
</g>
<!-- Node2&#45;&gt;Node7 -->
<g id="edge6_Node000002_Node000007" class="edge">
<title>Node2&#45;&gt;Node7</title>
<g id="a_edge6_Node000002_Node000007"><a xlink:title=" ">
<path fill="none" stroke="#63b8ff" d="M653.21,-120.99C554.14,-120.34 297.59,-114.87 76.15,-76.22"/>
<polygon fill="#63b8ff" stroke="#63b8ff" points="76.92,-72.8 66.46,-74.49 75.69,-79.69 76.92,-72.8"/>
</a>
</g>
</g>
<!-- Node8 -->
<g id="Node000008" class="node">
<title>Node8</title>
<g id="a_Node000008"><a xlink:title=" ">
<polygon fill="#e0e0e0" stroke="#999999" points="129.83,-76 82.33,-76 82.33,-56 129.83,-56 129.83,-76"/>
<text xml:space="preserve" text-anchor="middle" x="106.08" y="-62.5" font-family="Helvetica,sans-Serif" font-size="10.00">stdlib.h</text>
</a>
</g>
</g>
<!-- Node2&#45;&gt;Node8 -->
<g id="edge7_Node000002_Node000008" class="edge">
<title>Node2&#45;&gt;Node8</title>
<g id="a_edge7_Node000002_Node000008"><a xlink:title=" ">
<path fill="none" stroke="#63b8ff" d="M653.24,-120.26C561.88,-118.07 337.66,-109.63 141.22,-76.04"/>
<polygon fill="#63b8ff" stroke="#63b8ff" points="142.05,-72.63 131.6,-74.37 140.85,-79.53 142.05,-72.63"/>
</a>
</g>
</g>
<!-- Node9 -->
<g id="Node000009" class="node">
<title>Node9</title>
<g id="a_Node000009"><a xlink:href="menu_8h.html" target="_top" xlink:title="Fichier du menu principal et des choix de navigation.">
<polygon fill="white" stroke="#666666" points="600.2,-76 551.95,-76 551.95,-56 600.2,-56 600.2,-76"/>
<text xml:space="preserve" text-anchor="middle" x="576.08" y="-62.5" font-family="Helvetica,sans-Serif" font-size="10.00">menu.h</text>
</a>
</g>
</g>
<!-- Node2&#45;&gt;Node9 -->
<g id="edge8_Node000002_Node000009" class="edge">
<title>Node2&#45;&gt;Node9</title>
<g id="a_edge8_Node000002_Node000009"><a xlink:title=" ">
<path fill="none" stroke="#63b8ff" d="M674.35,-111.59C655.86,-103.21 628.53,-90.8 607.38,-81.21"/>
<polygon fill="#63b8ff" stroke="#63b8ff" points="608.9,-78.05 598.34,-77.1 606,-84.42 608.9,-78.05"/>
</a>
</g>
</g>
<!-- Node10 -->
<g id="Node000010" class="node">
<title>Node10</title>
<g id="a_Node000010"><a xlink:href="game__over_8h.html" target="_top" xlink:title="Fichier de l&#39;ecran de fin de partie et des transitions associees.">
<polygon fill="white" stroke="#666666" points="690.2,-76 617.95,-76 617.95,-56 690.2,-56 690.2,-76"/>
<text xml:space="preserve" text-anchor="middle" x="654.08" y="-62.5" font-family="Helvetica,sans-Serif" font-size="10.00">game_over.h</text>
</a>
</g>
</g>
<!-- Node2&#45;&gt;Node10 -->
<g id="edge11_Node000002_Node000010" class="edge">
<title>Node2&#45;&gt;Node10</title>
<g id="a_edge11_Node000002_Node000010"><a xlink:title=" ">
<path fill="none" stroke="#63b8ff" d="M687.93,-111.59C682.47,-104.39 674.75,-94.23 668.07,-85.43"/>
<polygon fill="#63b8ff" stroke="#63b8ff" points="670.89,-83.35 662.05,-77.5 665.31,-87.58 670.89,-83.35"/>
</a>
</g>
</g>
<!-- Node11 -->
<g id="Node000011" class="node">
<title>Node11</title>
<g id="a_Node000011"><a xlink:href="jeux_8h.html" target="_top" xlink:title="Fichier de la boucle de jeu principale et de son initialisation.">
<polygon fill="white" stroke="#666666" points="190.2,-76 147.95,-76 147.95,-56 190.2,-56 190.2,-76"/>
<text xml:space="preserve" text-anchor="middle" x="169.08" y="-62.5" font-family="Helvetica,sans-Serif" font-size="10.00">jeux.h</text>
</a>
</g>
</g>
<!-- Node2&#45;&gt;Node11 -->
<g id="edge14_Node000002_Node000011" class="edge">
<title>Node2&#45;&gt;Node11</title>
<g id="a_edge14_Node000002_Node000011"><a xlink:title=" ">
<path fill="none" stroke="#63b8ff" d="M653.2,-120.03C569.15,-117.49 373.88,-108.52 201.87,-76.18"/>
<polygon fill="#63b8ff" stroke="#63b8ff" points="202.54,-72.74 192.06,-74.3 201.23,-79.62 202.54,-72.74"/>
</a>
</g>
</g>
<!-- Node12 -->
<g id="Node000012" class="node">
<title>Node12</title>
<g id="a_Node000012"><a xlink:href="bouton_8h.html" target="_top" xlink:title="Fichier des boutons UI, de leur etat et de la gestion des interactions souris.">
<polygon fill="white" stroke="#666666" points="761.83,-76 708.33,-76 708.33,-56 761.83,-56 761.83,-76"/>
<text xml:space="preserve" text-anchor="middle" x="735.08" y="-62.5" font-family="Helvetica,sans-Serif" font-size="10.00">bouton.h</text>
</a>
</g>
</g>
<!-- Node2&#45;&gt;Node12 -->
<g id="edge18_Node000002_Node000012" class="edge">
<title>Node2&#45;&gt;Node12</title>
<g id="a_edge18_Node000002_Node000012"><a xlink:title=" ">
<path fill="none" stroke="#63b8ff" d="M702.04,-111.59C707.38,-104.39 714.9,-94.23 721.42,-85.43"/>
<polygon fill="#63b8ff" stroke="#63b8ff" points="724.15,-87.63 727.29,-77.51 718.52,-83.47 724.15,-87.63"/>
</a>
</g>
</g>
<!-- Node13 -->
<g id="Node000013" class="node">
<title>Node13</title>
<g id="a_Node000013"><a xlink:href="option_8h.html" target="_top" xlink:title="Fichier de l&#39;ecran d&#39;options et des reglages de jeu.">
<polygon fill="white" stroke="#666666" points="830.33,-76 779.83,-76 779.83,-56 830.33,-56 830.33,-76"/>
<text xml:space="preserve" text-anchor="middle" x="805.08" y="-62.5" font-family="Helvetica,sans-Serif" font-size="10.00">option.h</text>
</a>
</g>
</g>
<!-- Node2&#45;&gt;Node13 -->
<g id="edge21_Node000002_Node000013" class="edge">
<title>Node2&#45;&gt;Node13</title>
<g id="a_edge21_Node000002_Node000013"><a xlink:title=" ">
<path fill="none" stroke="#63b8ff" d="M714.24,-111.59C731.17,-103.28 756.12,-91.03 775.6,-81.47"/>
<polygon fill="#63b8ff" stroke="#63b8ff" points="776.97,-84.7 784.41,-77.15 773.89,-78.41 776.97,-84.7"/>
</a>
</g>
</g>
<!-- Node14 -->
<g id="Node000014" class="node">
<title>Node14</title>
<g id="a_Node000014"><a xlink:href="perso_8h.html" target="_top" xlink:title="Fichier du personnage: deplacement, combat, stats et collisions.">
<polygon fill="white" stroke="#666666" points="896.2,-76 847.95,-76 847.95,-56 896.2,-56 896.2,-76"/>
<text xml:space="preserve" text-anchor="middle" x="872.08" y="-62.5" font-family="Helvetica,sans-Serif" font-size="10.00">perso.h</text>
</a>
</g>
</g>
<!-- Node2&#45;&gt;Node14 -->
<g id="edge24_Node000002_Node000014" class="edge">
<title>Node2&#45;&gt;Node14</title>
<g id="a_edge24_Node000002_Node000014"><a xlink:title=" ">
<path fill="none" stroke="#63b8ff" d="M725.91,-111.59C756.83,-102.16 804.39,-87.65 836.79,-77.76"/>
<polygon fill="#63b8ff" stroke="#63b8ff" points="837.58,-81.18 846.13,-74.92 835.54,-74.49 837.58,-81.18"/>
</a>
</g>
</g>
<!-- Node15 -->
<g id="Node000015" class="node">
<title>Node15</title>
<g id="a_Node000015"><a xlink:href="son_8h.html" target="_top" xlink:title="Fichier audio: musique, effets sonores et etats d&#39;activation.">
<polygon fill="white" stroke="#666666" points="534.08,-76 494.08,-76 494.08,-56 534.08,-56 534.08,-76"/>
<text xml:space="preserve" text-anchor="middle" x="514.08" y="-62.5" font-family="Helvetica,sans-Serif" font-size="10.00">son.h</text>
</a>
</g>
</g>
<!-- Node2&#45;&gt;Node15 -->
<g id="edge27_Node000002_Node000015" class="edge">
<title>Node2&#45;&gt;Node15</title>
<g id="a_edge27_Node000002_Node000015"><a xlink:title=" ">
<path fill="none" stroke="#63b8ff" d="M662.72,-111.55C634.15,-103.18 591.09,-90.5 545.13,-76.6"/>
<polygon fill="#63b8ff" stroke="#63b8ff" points="546.38,-73.32 535.79,-73.77 544.35,-80.02 546.38,-73.32"/>
</a>
</g>
</g>
<!-- Node17 -->
<g id="Node000017" class="node">
<title>Node17</title>
<g id="a_Node000017"><a xlink:href="boss_8h.html" target="_top" xlink:title="Fichier du module boss (declarations publiques).">
<polygon fill="white" stroke="#666666" points="353.7,-76 308.45,-76 308.45,-56 353.7,-56 353.7,-76"/>
<text xml:space="preserve" text-anchor="middle" x="331.08" y="-62.5" font-family="Helvetica,sans-Serif" font-size="10.00">boss.h</text>
</a>
</g>
</g>
<!-- Node2&#45;&gt;Node17 -->
<g id="edge32_Node000002_Node000017" class="edge">
<title>Node2&#45;&gt;Node17</title>
<g id="a_edge32_Node000002_Node000017"><a xlink:title=" ">
<path fill="none" stroke="#63b8ff" d="M653.2,-117.35C591.86,-111.57 473.84,-98.8 365.16,-76.41"/>
<polygon fill="#63b8ff" stroke="#63b8ff" points="365.99,-73 355.48,-74.38 364.55,-79.86 365.99,-73"/>
</a>
</g>
</g>
<!-- Node18 -->
<g id="Node000018" class="node">
<title>Node18</title>
<g id="a_Node000018"><a xlink:href="mob_8h.html" target="_top" xlink:title="Fichier des mobs: creation, mise a jour, rendu et file de respawn.">
<polygon fill="white" stroke="#666666" points="414.58,-76 371.58,-76 371.58,-56 414.58,-56 414.58,-76"/>
<text xml:space="preserve" text-anchor="middle" x="393.08" y="-62.5" font-family="Helvetica,sans-Serif" font-size="10.00">mob.h</text>
</a>
</g>
</g>
<!-- Node2&#45;&gt;Node18 -->
<g id="edge35_Node000002_Node000018" class="edge">
<title>Node2&#45;&gt;Node18</title>
<g id="a_edge35_Node000002_Node000018"><a xlink:title=" ">
<path fill="none" stroke="#63b8ff" d="M653.28,-115.77C601.85,-108.97 511.72,-95.85 426.16,-76.49"/>
<polygon fill="#63b8ff" stroke="#63b8ff" points="426.95,-73.08 416.42,-74.25 425.38,-79.9 426.95,-73.08"/>
</a>
</g>
</g>
<!-- Node19 -->
<g id="Node000019" class="node">
<title>Node19</title>
<g id="a_Node000019"><a xlink:href="vaisseau_8h.html" target="_top" xlink:title="Fichier de la scene vaisseau, des interactions et du retour en planete.">
<polygon fill="white" stroke="#666666" points="1015.7,-76 952.45,-76 952.45,-56 1015.7,-56 1015.7,-76"/>
<text xml:space="preserve" text-anchor="middle" x="984.08" y="-62.5" font-family="Helvetica,sans-Serif" font-size="10.00">vaisseau.h</text>
</a>
</g>
</g>
<!-- Node2&#45;&gt;Node19 -->
<g id="edge38_Node000002_Node000019" class="edge">
<title>Node2&#45;&gt;Node19</title>
<g id="a_edge38_Node000002_Node000019"><a xlink:title=" ">
<path fill="none" stroke="#63b8ff" d="M736.81,-113.4C785.23,-104.56 867.48,-89.44 938.08,-76 939.09,-75.81 940.12,-75.61 941.15,-75.41"/>
<polygon fill="#63b8ff" stroke="#63b8ff" points="941.77,-78.86 950.92,-73.53 940.44,-71.99 941.77,-78.86"/>
</a>
</g>
</g>
<!-- Node20 -->
<g id="Node000020" class="node">
<title>Node20</title>
<g id="a_Node000020"><a xlink:href="map_8h.html" target="_top" xlink:title="Fichier de navigation carte et de gestion des ressources cartographiques.">
<polygon fill="white" stroke="#666666" points="251.58,-76 208.58,-76 208.58,-56 251.58,-56 251.58,-76"/>
<text xml:space="preserve" text-anchor="middle" x="230.08" y="-62.5" font-family="Helvetica,sans-Serif" font-size="10.00">map.h</text>
</a>
</g>
</g>
<!-- Node2&#45;&gt;Node20 -->
<g id="edge40_Node000002_Node000020" class="edge">
<title>Node2&#45;&gt;Node20</title>
<g id="a_edge40_Node000002_Node000020"><a xlink:title=" ">
<path fill="none" stroke="#63b8ff" d="M653.39,-118.58C576.41,-113.68 406.93,-100.87 266.08,-76 265.08,-75.82 264.06,-75.63 263.04,-75.44"/>
<polygon fill="#63b8ff" stroke="#63b8ff" points="264.05,-72.07 253.53,-73.34 262.55,-78.91 264.05,-72.07"/>
</a>
</g>
</g>
<!-- Node21 -->
<g id="Node000021" class="node">
<title>Node21</title>
<g id="a_Node000021"><a xlink:href="item_8h.html" target="_top" xlink:title="Fichier de creation, d&#39;affichage et de destruction des items.">
<polygon fill="white" stroke="#666666" points="475.58,-76 432.58,-76 432.58,-56 475.58,-56 475.58,-76"/>
<text xml:space="preserve" text-anchor="middle" x="454.08" y="-62.5" font-family="Helvetica,sans-Serif" font-size="10.00">item.h</text>
</a>
</g>
</g>
<!-- Node2&#45;&gt;Node21 -->
<g id="edge44_Node000002_Node000021" class="edge">
<title>Node2&#45;&gt;Node21</title>
<g id="a_edge44_Node000002_Node000021"><a xlink:title=" ">
<path fill="none" stroke="#63b8ff" d="M653.43,-112.99C613.24,-105.06 550.45,-92.13 487.04,-76.35"/>
<polygon fill="#63b8ff" stroke="#63b8ff" points="488.06,-73 477.51,-73.96 486.35,-79.79 488.06,-73"/>
</a>
</g>
</g>
<!-- Node22 -->
<g id="Node000022" class="node">
<title>Node22</title>
<g id="a_Node000022"><a xlink:href="inventaire_8h.html" target="_top" xlink:title="Fichier de l&#39;inventaire, de la hotbar et des interactions de slots.">
<polygon fill="white" stroke="#666666" points="1100.2,-76 1033.95,-76 1033.95,-56 1100.2,-56 1100.2,-76"/>
<text xml:space="preserve" text-anchor="middle" x="1067.08" y="-62.5" font-family="Helvetica,sans-Serif" font-size="10.00">inventaire.h</text>
</a>
</g>
</g>
<!-- Node2&#45;&gt;Node22 -->
<g id="edge47_Node000002_Node000022" class="edge">
<title>Node2&#45;&gt;Node22</title>
<g id="a_edge47_Node000002_Node000022"><a xlink:title=" ">
<path fill="none" stroke="#63b8ff" d="M736.91,-116.32C797.62,-109.31 913.93,-95.04 1022.49,-76.34"/>
<polygon fill="#63b8ff" stroke="#63b8ff" points="1022.91,-79.82 1032.16,-74.66 1021.71,-72.93 1022.91,-79.82"/>
</a>
</g>
</g>
<!-- Node23 -->
<g id="Node000023" class="node">
<title>Node23</title>
<g id="a_Node000023"><a xlink:href="sauvegarde_8h.html" target="_top" xlink:title="Fichier des slots de sauvegarde et du chargement de progression.">
<polygon fill="white" stroke="#666666" points="1430.33,-76 1355.83,-76 1355.83,-56 1430.33,-56 1430.33,-76"/>
<text xml:space="preserve" text-anchor="middle" x="1393.08" y="-62.5" font-family="Helvetica,sans-Serif" font-size="10.00">sauvegarde.h</text>
</a>
</g>
</g>
<!-- Node2&#45;&gt;Node23 -->
<g id="edge51_Node000002_Node000023" class="edge">
<title>Node2&#45;&gt;Node23</title>
<g id="a_edge51_Node000002_Node000023"><a xlink:title=" ">
<path fill="none" stroke="#63b8ff" d="M736.83,-119.92C838.88,-116.89 1109.25,-106.54 1344.32,-76.21"/>
<polygon fill="#63b8ff" stroke="#63b8ff" points="1344.52,-79.71 1353.98,-74.95 1343.61,-72.77 1344.52,-79.71"/>
</a>
</g>
</g>
<!-- Node25 -->
<g id="Node000025" class="node">
<title>Node25</title>
<g id="a_Node000025"><a xlink:href="objectifs_8h.html" target="_top" xlink:title="Fichier de suivi des objectifs de quete et de leur affichage.">
<polygon fill="white" stroke="#666666" points="1179.58,-76 1118.58,-76 1118.58,-56 1179.58,-56 1179.58,-76"/>
<text xml:space="preserve" text-anchor="middle" x="1149.08" y="-62.5" font-family="Helvetica,sans-Serif" font-size="10.00">objectifs.h</text>
</a>
</g>
</g>
<!-- Node2&#45;&gt;Node25 -->
<g id="edge54_Node000002_Node000025" class="edge">
<title>Node2&#45;&gt;Node25</title>
<g id="a_edge54_Node000002_Node000025"><a xlink:title=" ">
<path fill="none" stroke="#63b8ff" d="M736.71,-118.04C809.68,-112.51 965.57,-99.2 1107.1,-76.15"/>
<polygon fill="#63b8ff" stroke="#63b8ff" points="1107.35,-79.65 1116.64,-74.57 1106.2,-72.75 1107.35,-79.65"/>
</a>
</g>
</g>
<!-- Node26 -->
<g id="Node000026" class="node">
<title>Node26</title>
<g id="a_Node000026"><a xlink:href="cinematique_8h.html" target="_top" xlink:title="Fichier des cinematics, des intros et des sequences de credits.">
<polygon fill="white" stroke="#666666" points="1274.45,-76 1197.7,-76 1197.7,-56 1274.45,-56 1274.45,-76"/>
<text xml:space="preserve" text-anchor="middle" x="1236.08" y="-62.5" font-family="Helvetica,sans-Serif" font-size="10.00">cinematique.h</text>
</a>
</g>
</g>
<!-- Node2&#45;&gt;Node26 -->
<g id="edge58_Node000002_Node000026" class="edge">
<title>Node2&#45;&gt;Node26</title>
<g id="a_edge58_Node000002_Node000026"><a xlink:title=" ">
<path fill="none" stroke="#63b8ff" d="M736.87,-118.59C820.35,-113.46 1013.81,-100.09 1186.08,-76.3"/>
<polygon fill="#63b8ff" stroke="#63b8ff" points="1186.48,-79.78 1195.9,-74.93 1185.51,-72.85 1186.48,-79.78"/>
</a>
</g>
</g>
<!-- Node27 -->
<g id="Node000027" class="node">
<title>Node27</title>
<g id="a_Node000027"><a xlink:href="shop_8h.html" target="_top" xlink:title="Fichier de la boutique, des achats et de l&#39;economie joueur.">
<polygon fill="white" stroke="#666666" points="1337.7,-76 1292.45,-76 1292.45,-56 1337.7,-56 1337.7,-76"/>
<text xml:space="preserve" text-anchor="middle" x="1315.08" y="-62.5" font-family="Helvetica,sans-Serif" font-size="10.00">shop.h</text>
</a>
</g>
</g>
<!-- Node2&#45;&gt;Node27 -->
<g id="edge60_Node000002_Node000027" class="edge">
<title>Node2&#45;&gt;Node27</title>
<g id="a_edge60_Node000002_Node000027"><a xlink:title=" ">
<path fill="none" stroke="#63b8ff" d="M736.78,-120.63C831.82,-119.19 1071.81,-112.14 1280.93,-76.01"/>
<polygon fill="#63b8ff" stroke="#63b8ff" points="1281.4,-79.48 1290.64,-74.3 1280.18,-72.59 1281.4,-79.48"/>
</a>
</g>
</g>
<!-- Node9&#45;&gt;Node3 -->
<g id="edge9_Node000009_Node000003" class="edge">
<title>Node9&#45;&gt;Node3</title>
<g id="a_edge9_Node000009_Node000003"><a xlink:title=" ">
<path fill="none" stroke="#63b8ff" d="M600.65,-58.16C631.92,-49.46 686.53,-34.26 725.29,-23.47"/>
<polygon fill="#63b8ff" stroke="#63b8ff" points="726.11,-26.87 734.81,-20.82 724.24,-20.13 726.11,-26.87"/>
</a>
</g>
</g>
<!-- Node9&#45;&gt;Node4 -->
<g id="edge10_Node000009_Node000004" class="edge">
<title>Node9&#45;&gt;Node4</title>
<g id="a_edge10_Node000009_Node000004"><a xlink:title=" ">
<path fill="none" stroke="#63b8ff" d="M570.68,-55.59C566.63,-48.55 560.96,-38.67 555.98,-30"/>
<polygon fill="#63b8ff" stroke="#63b8ff" points="559.18,-28.54 551.17,-21.61 553.11,-32.03 559.18,-28.54"/>
</a>
</g>
</g>
<!-- Node10&#45;&gt;Node3 -->
<g id="edge12_Node000010_Node000003" class="edge">
<title>Node10&#45;&gt;Node3</title>
<g id="a_edge12_Node000010_Node000003"><a xlink:title=" ">
<path fill="none" stroke="#63b8ff" d="M674.28,-55.59C692.3,-47.21 718.94,-34.8 739.56,-25.21"/>
<polygon fill="#63b8ff" stroke="#63b8ff" points="740.75,-28.51 748.34,-21.12 737.8,-22.17 740.75,-28.51"/>
</a>
</g>
</g>
<!-- Node10&#45;&gt;Node4 -->
<g id="edge13_Node000010_Node000004" class="edge">
<title>Node10&#45;&gt;Node4</title>
<g id="a_edge13_Node000010_Node000004"><a xlink:title=" ">
<path fill="none" stroke="#63b8ff" d="M635.09,-55.59C618.31,-47.28 593.58,-35.03 574.29,-25.47"/>
<polygon fill="#63b8ff" stroke="#63b8ff" points="576.08,-22.45 565.57,-21.15 572.97,-28.73 576.08,-22.45"/>
</a>
</g>
</g>
<!-- Node11&#45;&gt;Node3 -->
<g id="edge15_Node000011_Node000003" class="edge">
<title>Node11&#45;&gt;Node3</title>
<g id="a_edge15_Node000011_Node000003"><a xlink:title=" ">
<path fill="none" stroke="#63b8ff" d="M190.57,-57.95C193.41,-57.2 196.3,-56.52 199.08,-56 249.9,-46.49 595.11,-22.72 722.75,-14.15"/>
<polygon fill="#63b8ff" stroke="#63b8ff" points="722.8,-17.65 732.55,-13.49 722.33,-10.67 722.8,-17.65"/>
</a>
</g>
</g>
<!-- Node11&#45;&gt;Node4 -->
<g id="edge16_Node000011_Node000004" class="edge">
<title>Node11&#45;&gt;Node4</title>
<g id="a_edge16_Node000011_Node000004"><a xlink:title=" ">
<path fill="none" stroke="#63b8ff" d="M190.6,-58.09C193.43,-57.31 196.31,-56.59 199.08,-56 289.7,-36.65 395.58,-24.35 466.11,-17.59"/>
<polygon fill="#63b8ff" stroke="#63b8ff" points="466.42,-21.08 476.04,-16.66 465.76,-14.11 466.42,-21.08"/>
</a>
</g>
</g>
<!-- Node11&#45;&gt;Node6 -->
<g id="edge17_Node000011_Node000006" class="edge">
<title>Node11&#45;&gt;Node6</title>
<g id="a_edge17_Node000011_Node000006"><a xlink:title=" ">
<path fill="none" stroke="#63b8ff" d="M174.48,-55.59C178.52,-48.55 184.19,-38.67 189.17,-30"/>
<polygon fill="#63b8ff" stroke="#63b8ff" points="192.04,-32.03 193.98,-21.61 185.97,-28.54 192.04,-32.03"/>
</a>
</g>
</g>
<!-- Node12&#45;&gt;Node3 -->
<g id="edge19_Node000012_Node000003" class="edge">
<title>Node12&#45;&gt;Node3</title>
<g id="a_edge19_Node000012_Node000003"><a xlink:title=" ">
<path fill="none" stroke="#63b8ff" d="M741.17,-55.59C745.79,-48.47 752.28,-38.45 757.94,-29.72"/>
<polygon fill="#63b8ff" stroke="#63b8ff" points="760.72,-31.86 763.23,-21.57 754.85,-28.06 760.72,-31.86"/>
</a>
</g>
</g>
<!-- Node12&#45;&gt;Node4 -->
<g id="edge20_Node000012_Node000004" class="edge">
<title>Node12&#45;&gt;Node4</title>
<g id="a_edge20_Node000012_Node000004"><a xlink:title=" ">
<path fill="none" stroke="#63b8ff" d="M707.85,-57.26C676.89,-48.46 625.87,-33.96 589.2,-23.54"/>
<polygon fill="#63b8ff" stroke="#63b8ff" points="590.35,-20.23 579.78,-20.86 588.44,-26.96 590.35,-20.23"/>
</a>
</g>
</g>
<!-- Node13&#45;&gt;Node3 -->
<g id="edge22_Node000013_Node000003" class="edge">
<title>Node13&#45;&gt;Node3</title>
<g id="a_edge22_Node000013_Node000003"><a xlink:title=" ">
<path fill="none" stroke="#63b8ff" d="M798.98,-55.59C794.36,-48.47 787.87,-38.45 782.21,-29.72"/>
<polygon fill="#63b8ff" stroke="#63b8ff" points="785.3,-28.06 776.93,-21.57 779.43,-31.86 785.3,-28.06"/>
</a>
</g>
</g>
<!-- Node13&#45;&gt;Node4 -->
<g id="edge23_Node000013_Node000004" class="edge">
<title>Node13&#45;&gt;Node4</title>
<g id="a_edge23_Node000013_Node000004"><a xlink:title=" ">
<path fill="none" stroke="#63b8ff" d="M779.5,-58.05C776.66,-57.33 773.81,-56.63 771.08,-56 716.46,-43.35 653.93,-31.06 608.5,-22.54"/>
<polygon fill="#63b8ff" stroke="#63b8ff" points="609.3,-19.12 598.82,-20.73 608.01,-26.01 609.3,-19.12"/>
</a>
</g>
</g>
<!-- Node14&#45;&gt;Node3 -->
<g id="edge25_Node000014_Node000003" class="edge">
<title>Node14&#45;&gt;Node3</title>
<g id="a_edge25_Node000014_Node000003"><a xlink:title=" ">
<path fill="none" stroke="#63b8ff" d="M854.31,-55.59C838.75,-47.36 815.89,-35.26 797.91,-25.74"/>
<polygon fill="#63b8ff" stroke="#63b8ff" points="799.79,-22.77 789.32,-21.19 796.52,-28.96 799.79,-22.77"/>
</a>
</g>
</g>
<!-- Node14&#45;&gt;Node4 -->
<g id="edge26_Node000014_Node000004" class="edge">
<title>Node14&#45;&gt;Node4</title>
<g id="a_edge26_Node000014_Node000004"><a xlink:title=" ">
<path fill="none" stroke="#63b8ff" d="M847.64,-58C844.77,-57.28 841.86,-56.59 839.08,-56 766.71,-40.65 683.26,-28.38 623.8,-20.56"/>
<polygon fill="#63b8ff" stroke="#63b8ff" points="624.48,-17.12 614.11,-19.3 623.58,-24.06 624.48,-17.12"/>
</a>
</g>
</g>
<!-- Node15&#45;&gt;Node3 -->
<g id="edge28_Node000015_Node000003" class="edge">
<title>Node15&#45;&gt;Node3</title>
<g id="a_edge28_Node000015_Node000003"><a xlink:title=" ">
<path fill="none" stroke="#63b8ff" d="M534.28,-58.43C537.22,-57.56 540.21,-56.73 543.08,-56 604.65,-40.39 676.75,-26.9 722.89,-18.86"/>
<polygon fill="#63b8ff" stroke="#63b8ff" points="723.29,-22.34 732.55,-17.19 722.1,-15.45 723.29,-22.34"/>
</a>
</g>
</g>
<!-- Node15&#45;&gt;Node4 -->
<g id="edge29_Node000015_Node000004" class="edge">
<title>Node15&#45;&gt;Node4</title>
<g id="a_edge29_Node000015_Node000004"><a xlink:title=" ">
<path fill="none" stroke="#63b8ff" d="M519.48,-55.59C523.52,-48.55 529.19,-38.67 534.17,-30"/>
<polygon fill="#63b8ff" stroke="#63b8ff" points="537.04,-32.03 538.98,-21.61 530.97,-28.54 537.04,-32.03"/>
</a>
</g>
</g>
<!-- Node15&#45;&gt;Node6 -->
<g id="edge31_Node000015_Node000006" class="edge">
<title>Node15&#45;&gt;Node6</title>
<g id="a_edge31_Node000015_Node000006"><a xlink:title=" ">
<path fill="none" stroke="#63b8ff" d="M493.84,-58.53C490.59,-57.61 487.26,-56.73 484.08,-56 414.49,-40.13 334.05,-27.95 276.58,-20.29"/>
<polygon fill="#63b8ff" stroke="#63b8ff" points="277.28,-16.85 266.91,-19.01 276.37,-23.79 277.28,-16.85"/>
</a>
</g>
</g>
<!-- Node15&#45;&gt;Node16 -->
<g id="edge30_Node000015_Node000016" class="edge">
<title>Node15&#45;&gt;Node16</title>
<g id="a_edge30_Node000015_Node000016"><a xlink:title=" ">
<path fill="none" stroke="#63b8ff" d="M534.53,-58.04C537.37,-57.25 540.28,-56.54 543.08,-56 723.76,-21.21 941.93,-13.24 1046.43,-11.46"/>
<polygon fill="#63b8ff" stroke="#63b8ff" points="1046.24,-14.97 1056.18,-11.31 1046.13,-7.97 1046.24,-14.97"/>
</a>
</g>
</g>
<!-- Node17&#45;&gt;Node3 -->
<g id="edge33_Node000017_Node000003" class="edge">
<title>Node17&#45;&gt;Node3</title>
<g id="a_edge33_Node000017_Node000003"><a xlink:title=" ">
<path fill="none" stroke="#63b8ff" d="M353.99,-57.87C356.7,-57.17 359.44,-56.52 362.08,-56 491.22,-30.33 646.48,-18.27 722.88,-13.55"/>
<polygon fill="#63b8ff" stroke="#63b8ff" points="722.73,-17.07 732.5,-12.97 722.31,-10.08 722.73,-17.07"/>
</a>
</g>
</g>
<!-- Node17&#45;&gt;Node4 -->
<g id="edge34_Node000017_Node000004" class="edge">
<title>Node17&#45;&gt;Node4</title>
<g id="a_edge34_Node000017_Node000004"><a xlink:title=" ">
<path fill="none" stroke="#63b8ff" d="M354.07,-58.21C356.76,-57.45 359.48,-56.7 362.08,-56 406.32,-44.14 456.91,-31.79 493.67,-23.04"/>
<polygon fill="#63b8ff" stroke="#63b8ff" points="494.22,-26.51 503.14,-20.79 492.6,-19.7 494.22,-26.51"/>
</a>
</g>
</g>
<!-- Node18&#45;&gt;Node3 -->
<g id="edge36_Node000018_Node000003" class="edge">
<title>Node18&#45;&gt;Node3</title>
<g id="a_edge36_Node000018_Node000003"><a xlink:title=" ">
<path fill="none" stroke="#63b8ff" d="M414.92,-58C417.65,-57.26 420.42,-56.57 423.08,-56 528.86,-33.43 655.36,-20.49 722.58,-14.7"/>
<polygon fill="#63b8ff" stroke="#63b8ff" points="722.85,-18.19 732.53,-13.86 722.27,-11.21 722.85,-18.19"/>
</a>
</g>
</g>
<!-- Node18&#45;&gt;Node4 -->
<g id="edge37_Node000018_Node000004" class="edge">
<title>Node18&#45;&gt;Node4</title>
<g id="a_edge37_Node000018_Node000004"><a xlink:title=" ">
<path fill="none" stroke="#63b8ff" d="M414.85,-57.26C439.09,-48.65 478.68,-34.59 507.86,-24.22"/>
<polygon fill="#63b8ff" stroke="#63b8ff" points="508.8,-27.6 517.05,-20.96 506.46,-21.01 508.8,-27.6"/>
</a>
</g>
</g>
<!-- Node19&#45;&gt;Node3 -->
<g id="edge39_Node000019_Node000003" class="edge">
<title>Node19&#45;&gt;Node3</title>
<g id="a_edge39_Node000019_Node000003"><a xlink:title=" ">
<path fill="none" stroke="#63b8ff" d="M952.04,-56.92C916.33,-47.91 858.25,-33.25 817.33,-22.92"/>
<polygon fill="#63b8ff" stroke="#63b8ff" points="818.29,-19.56 807.74,-20.5 816.58,-26.35 818.29,-19.56"/>
</a>
</g>
</g>
<!-- Node20&#45;&gt;Node3 -->
<g id="edge41_Node000020_Node000003" class="edge">
<title>Node20&#45;&gt;Node3</title>
<g id="a_edge41_Node000020_Node000003"><a xlink:title=" ">
<path fill="none" stroke="#63b8ff" d="M251.81,-61.97C265.38,-60.13 283.23,-57.79 299.08,-56 453.82,-38.52 637.68,-22.25 722.66,-14.99"/>
<polygon fill="#63b8ff" stroke="#63b8ff" points="722.81,-18.49 732.48,-14.15 722.22,-11.51 722.81,-18.49"/>
</a>
</g>
</g>
<!-- Node20&#45;&gt;Node4 -->
<g id="edge42_Node000020_Node000004" class="edge">
<title>Node20&#45;&gt;Node4</title>
<g id="a_edge42_Node000020_Node000004"><a xlink:title=" ">
<path fill="none" stroke="#63b8ff" d="M251.71,-59.27C256.43,-58.11 261.41,-56.96 266.08,-56 333.18,-42.23 410.09,-30.09 466.14,-21.9"/>
<polygon fill="#63b8ff" stroke="#63b8ff" points="466.52,-25.38 475.92,-20.49 465.52,-18.46 466.52,-25.38"/>
</a>
</g>
</g>
<!-- Node20&#45;&gt;Node6 -->
<g id="edge43_Node000020_Node000006" class="edge">
<title>Node20&#45;&gt;Node6</title>
<g id="a_edge43_Node000020_Node000006"><a xlink:title=" ">
<path fill="none" stroke="#63b8ff" d="M224.85,-55.59C220.98,-48.63 215.57,-38.89 210.79,-30.29"/>
<polygon fill="#63b8ff" stroke="#63b8ff" points="213.89,-28.66 205.98,-21.62 207.77,-32.06 213.89,-28.66"/>
</a>
</g>
</g>
<!-- Node21&#45;&gt;Node3 -->
<g id="edge45_Node000021_Node000003" class="edge">
<title>Node21&#45;&gt;Node3</title>
<g id="a_edge45_Node000021_Node000003"><a xlink:title=" ">
<path fill="none" stroke="#63b8ff" d="M476,-58.26C479.03,-57.44 482.12,-56.66 485.08,-56 568.09,-37.47 666.37,-23.73 723.13,-16.57"/>
<polygon fill="#63b8ff" stroke="#63b8ff" points="723.27,-20.08 732.76,-15.37 722.4,-13.13 723.27,-20.08"/>
</a>
</g>
</g>
<!-- Node21&#45;&gt;Node4 -->
<g id="edge46_Node000021_Node000004" class="edge">
<title>Node21&#45;&gt;Node4</title>
<g id="a_edge46_Node000021_Node000004"><a xlink:title=" ">
<path fill="none" stroke="#63b8ff" d="M469.93,-55.59C483.54,-47.51 503.44,-35.71 519.34,-26.27"/>
<polygon fill="#63b8ff" stroke="#63b8ff" points="520.99,-29.37 527.8,-21.25 517.41,-23.35 520.99,-29.37"/>
</a>
</g>
</g>
<!-- Node22&#45;&gt;Node3 -->
<g id="edge48_Node000022_Node000003" class="edge">
<title>Node22&#45;&gt;Node3</title>
<g id="a_edge48_Node000022_Node000003"><a xlink:title=" ">
<path fill="none" stroke="#63b8ff" d="M1033.63,-57.72C1030.74,-57.12 1027.86,-56.54 1025.08,-56 952.68,-41.86 868.32,-27.36 817.08,-18.77"/>
<polygon fill="#63b8ff" stroke="#63b8ff" points="817.98,-15.37 807.54,-17.17 816.83,-22.27 817.98,-15.37"/>
</a>
</g>
</g>
<!-- Node22&#45;&gt;Node4 -->
<g id="edge49_Node000022_Node000004" class="edge">
<title>Node22&#45;&gt;Node4</title>
<g id="a_edge49_Node000022_Node000004"><a xlink:title=" ">
<path fill="none" stroke="#63b8ff" d="M1033.67,-57.47C1030.77,-56.93 1027.88,-56.43 1025.08,-56 884.56,-34.43 719.21,-21.68 623.83,-15.53"/>
<polygon fill="#63b8ff" stroke="#63b8ff" points="624.27,-12.05 614.07,-14.91 623.82,-19.04 624.27,-12.05"/>
</a>
</g>
</g>
<!-- Node22&#45;&gt;Node16 -->
<g id="edge50_Node000022_Node000016" class="edge">
<title>Node22&#45;&gt;Node16</title>
<g id="a_edge50_Node000022_Node000016"><a xlink:title=" ">
<path fill="none" stroke="#63b8ff" d="M1074.22,-55.59C1079.68,-48.39 1087.4,-38.23 1094.08,-29.43"/>
<polygon fill="#63b8ff" stroke="#63b8ff" points="1096.84,-31.58 1100.1,-21.5 1091.27,-27.35 1096.84,-31.58"/>
</a>
</g>
</g>
<!-- Node23&#45;&gt;Node3 -->
<g id="edge52_Node000023_Node000003" class="edge">
<title>Node23&#45;&gt;Node3</title>
<g id="a_edge52_Node000023_Node000003"><a xlink:title=" ">
<path fill="none" stroke="#63b8ff" d="M1355.48,-57.28C1352.64,-56.81 1349.82,-56.37 1347.08,-56 1151.44,-29.32 916.16,-17.09 817.37,-12.84"/>
<polygon fill="#63b8ff" stroke="#63b8ff" points="817.67,-9.35 807.53,-12.42 817.37,-16.34 817.67,-9.35"/>
</a>
</g>
</g>
<!-- Node24 -->
<g id="Node000024" class="node">
<title>Node24</title>
<g id="a_Node000024"><a xlink:title=" ">
<polygon fill="#e0e0e0" stroke="#999999" points="1420.95,-20 1365.2,-20 1365.2,0 1420.95,0 1420.95,-20"/>
<text xml:space="preserve" text-anchor="middle" x="1393.08" y="-6.5" font-family="Helvetica,sans-Serif" font-size="10.00">stdbool.h</text>
</a>
</g>
</g>
<!-- Node23&#45;&gt;Node24 -->
<g id="edge53_Node000023_Node000024" class="edge">
<title>Node23&#45;&gt;Node24</title>
<g id="a_edge53_Node000023_Node000024"><a xlink:title=" ">
<path fill="none" stroke="#63b8ff" d="M1393.08,-55.59C1393.08,-49.01 1393.08,-39.96 1393.08,-31.73"/>
<polygon fill="#63b8ff" stroke="#63b8ff" points="1396.58,-31.81 1393.08,-21.81 1389.58,-31.81 1396.58,-31.81"/>
</a>
</g>
</g>
<!-- Node25&#45;&gt;Node3 -->
<g id="edge55_Node000025_Node000003" class="edge">
<title>Node25&#45;&gt;Node3</title>
<g id="a_edge55_Node000025_Node000003"><a xlink:title=" ">
<path fill="none" stroke="#63b8ff" d="M1118.12,-57.75C1115.07,-57.12 1112.02,-56.53 1109.08,-56 1005.42,-37.5 882.68,-23.03 817.05,-15.89"/>
<polygon fill="#63b8ff" stroke="#63b8ff" points="817.69,-12.44 807.37,-14.85 816.94,-19.4 817.69,-12.44"/>
</a>
</g>
</g>
<!-- Node25&#45;&gt;Node4 -->
<g id="edge56_Node000025_Node000004" class="edge">
<title>Node25&#45;&gt;Node4</title>
<g id="a_edge56_Node000025_Node000004"><a xlink:title=" ">
<path fill="none" stroke="#63b8ff" d="M1118.15,-57.59C1115.09,-56.99 1112.03,-56.45 1109.08,-56 1017.77,-42.16 756.35,-24.37 623.95,-15.91"/>
<polygon fill="#63b8ff" stroke="#63b8ff" points="624.42,-12.43 614.22,-15.29 623.98,-19.41 624.42,-12.43"/>
</a>
</g>
</g>
<!-- Node25&#45;&gt;Node16 -->
<g id="edge57_Node000025_Node000016" class="edge">
<title>Node25&#45;&gt;Node16</title>
<g id="a_edge57_Node000025_Node000016"><a xlink:title=" ">
<path fill="none" stroke="#63b8ff" d="M1141.93,-55.59C1136.47,-48.39 1128.75,-38.23 1122.07,-29.43"/>
<polygon fill="#63b8ff" stroke="#63b8ff" points="1124.89,-27.35 1116.05,-21.5 1119.31,-31.58 1124.89,-27.35"/>
</a>
</g>
</g>
<!-- Node26&#45;&gt;Node3 -->
<g id="edge59_Node000026_Node000003" class="edge">
<title>Node26&#45;&gt;Node3</title>
<g id="a_edge59_Node000026_Node000003"><a xlink:title=" ">
<path fill="none" stroke="#63b8ff" d="M1197.39,-57.33C1194.58,-56.85 1191.79,-56.4 1189.08,-56 1054.86,-35.98 895.18,-21.35 817.39,-14.8"/>
<polygon fill="#63b8ff" stroke="#63b8ff" points="817.84,-11.33 807.58,-13.99 817.26,-18.31 817.84,-11.33"/>
</a>
</g>
</g>
<!-- Node27&#45;&gt;Node3 -->
<g id="edge61_Node000027_Node000003" class="edge">
<title>Node27&#45;&gt;Node3</title>
<g id="a_edge61_Node000027_Node000003"><a xlink:title=" ">
<path fill="none" stroke="#63b8ff" d="M1292.12,-57.99C1289.1,-57.23 1286.03,-56.54 1283.08,-56 1113.51,-25 908.38,-15.17 817.43,-12.21"/>
<polygon fill="#63b8ff" stroke="#63b8ff" points="817.76,-8.71 807.66,-11.9 817.54,-15.71 817.76,-8.71"/>
</a>
</g>
</g>
</g>
</svg>
