<?xml version="1.0" encoding="UTF-8" standalone="no"?>
<!DOCTYPE svg PUBLIC "-//W3C//DTD SVG 1.1//EN"
 "http://www.w3.org/Graphics/SVG/1.1/DTD/svg11.dtd">
<!-- Generated by graphviz version 14.1.4 (20260321.0153)
 -->
<!-- Title: jouer_son Pages: 1 -->
<!--zoomable 708 -->

<svg id="main" version="1.1" xmlns="http://www.w3.org/2000/svg" xmlns:xlink="http://www.w3.org/1999/xlink" xml:space="preserve" onload="init(evt)">

<style type="text/css"><![CDATA[
.node, .edge {opacity: 0.7;}
.node.selected, .edge.selected {opacity: 1;}
.edge:hover path { stroke: red; }
.edge:hover polygon { stroke: red; fill: red; }
]]></style>

<defs>
  <circle id="rim" cx="0" cy="0" r="7"/>
  <circle id="rim2" cx="0" cy="0" r="3.5"/>
  <g id="zoomPlus">
    <use xlink:href="#rim" fill="#404040"><set attributeName="fill" to="#808080" begin="zoomplus.mouseover" end="zoomplus.mouseout"/></use>
    <path d="M-4,0h8M0,-4v8" fill="none" stroke="white" stroke-width="1.5" pointer-events="none"/>
  </g>
  <g id="zoomMin">
    <use xlink:href="#rim" fill="#404040"><set attributeName="fill" to="#808080" begin="zoomminus.mouseover" end="zoomminus.mouseout"/></use>
    <path d="M-4,0h8" fill="none" stroke="white" stroke-width="1.5" pointer-events="none"/>
  </g>
  <g id="arrowUp" transform="translate(30 24)">
    <use xlink:href="#rim"/>
    <path pointer-events="none" fill="none" stroke="white" stroke-width="1.5" d="M0,-3.0v7 M-2.5,-0.5L0,-3.0L2.5,-0.5"/>
  </g>
  <g id="arrowRight" transform="rotate(90) translate(36 -43)">
    <use xlink:href="#rim"/>
    <path pointer-events="none" fill="none" stroke="white" stroke-width="1.5" d="M0,-3.0v7 M-2.5,-0.5L0,-3.0L2.5,-0.5"/>
  </g>
  <g id="arrowDown" transform="rotate(180) translate(-30 -48)">
    <use xlink:href="#rim"/>
    <path pointer-events="none" fill="none" stroke="white" stroke-width="1.5" d="M0,-3.0v7 M-2.5,-0.5L0,-3.0L2.5,-0.5"/>
  </g>
  <g id="arrowLeft" transform="rotate(270) translate(-36 17)">
    <use xlink:href="#rim"/>
    <path pointer-events="none" fill="none" stroke="white" stroke-width="1.5" d="M0,-3.0v7 M-2.5,-0.5L0,-3.0L2.5,-0.5"/>
  </g>
  <g id="resetDef">
    <use xlink:href="#rim2" fill="#404040"><set attributeName="fill" to="#808080" begin="reset.mouseover" end="reset.mouseout"/></use>
  </g>
</defs>
<script type="application/ecmascript">
var viewWidth = 766;
var viewHeight = 708;
var sectionId = 'dynsection-1';
</script>
<script type="application/ecmascript" xlink:href="svg.min.js"/>
<svg id="graph" class="graph">
<g id="viewport">
<title>jouer_son</title>
<!-- Node1 -->
<g id="Node000001" class="node">
<title>Node1</title>
<g id="a_Node000001"><a xlink:title="Charge (ou recupere du cache) puis joue une piste audio.">
<polygon fill="#999999" stroke="#666666" points="757.5,-357.71 699.5,-357.71 699.5,-337.71 757.5,-337.71 757.5,-357.71"/>
<text xml:space="preserve" text-anchor="middle" x="728.5" y="-344.21" font-family="Helvetica,sans-Serif" font-size="10.00">jouer_son</text>
</a>
</g>
</g>
<!-- Node2 -->
<g id="Node000002" class="node">
<title>Node2</title>
<g id="a_Node000002"><a xlink:href="map_8c.html#ad462ccdd50801fb085dc8134fc3765d1" target="_top" xlink:title="Affiche la carte et met a jour les elements visuels associes.">
<polygon fill="white" stroke="#666666" points="638.75,-193.71 567.25,-193.71 567.25,-173.71 638.75,-173.71 638.75,-193.71"/>
<text xml:space="preserve" text-anchor="middle" x="603" y="-180.21" font-family="Helvetica,sans-Serif" font-size="10.00">afficher_map</text>
</a>
</g>
</g>
<!-- Node1&#45;&gt;Node2 -->
<g id="edge1_Node000001_Node000002" class="edge">
<title>Node1&#45;&gt;Node2</title>
<g id="a_edge1_Node000001_Node000002"><a xlink:title=" ">
<path fill="none" stroke="#63b8ff" d="M719.83,-326.66C709.75,-301.02 690.15,-257.36 663.5,-226.71 651.88,-213.34 635.33,-201.81 622.64,-194.07"/>
<polygon fill="#63b8ff" stroke="#63b8ff" points="716.53,-327.84 723.35,-335.94 723.07,-325.35 716.53,-327.84"/>
</a>
</g>
</g>
<!-- Node5 -->
<g id="Node000005" class="node">
<title>Node5</title>
<g id="a_Node000005"><a xlink:href="cinematique_8c.html#a418cc3e727578f4cd509ad27cd6a2a31" target="_top" xlink:title="Lance cinematique fin et gere son deroulement complet.">
<polygon fill="white" stroke="#666666" points="183.5,-212.71 73,-212.71 73,-192.71 183.5,-192.71 183.5,-212.71"/>
<text xml:space="preserve" text-anchor="middle" x="128.25" y="-199.21" font-family="Helvetica,sans-Serif" font-size="10.00">jouer_cinematique_fin</text>
</a>
</g>
</g>
<!-- Node1&#45;&gt;Node5 -->
<g id="edge23_Node000001_Node000005" class="edge">
<title>Node1&#45;&gt;Node5</title>
<g id="a_edge23_Node000001_Node000005"><a xlink:title=" ">
<path fill="none" stroke="#63b8ff" d="M695.92,-332.46C653.73,-312.7 576.17,-278.58 506.5,-259.71 446.72,-243.52 272.98,-220.57 183.67,-209.37"/>
<polygon fill="#63b8ff" stroke="#63b8ff" points="694.2,-335.51 704.74,-336.62 697.19,-329.18 694.2,-335.51"/>
</a>
</g>
</g>
<!-- Node6 -->
<g id="Node000006" class="node">
<title>Node6</title>
<g id="a_Node000006"><a xlink:href="main_8c.html#a0ddf1224851353fc92bfbff6f499fa97" target="_top" xlink:title=" ">
<polygon fill="white" stroke="#666666" points="37,-136.71 0,-136.71 0,-116.71 37,-116.71 37,-136.71"/>
<text xml:space="preserve" text-anchor="middle" x="18.5" y="-123.21" font-family="Helvetica,sans-Serif" font-size="10.00">main</text>
</a>
</g>
</g>
<!-- Node1&#45;&gt;Node6 -->
<g id="edge24_Node000001_Node000006" class="edge">
<title>Node1&#45;&gt;Node6</title>
<g id="a_edge24_Node000001_Node000006"><a xlink:title=" ">
<path fill="none" stroke="#63b8ff" d="M725.94,-326.24C722.05,-288.44 708.69,-209.76 663.5,-164.71 590.39,-91.82 547.24,-88.71 444,-88.71 444,-88.71 444,-88.71 280.5,-88.71 188.23,-88.71 79.51,-112.25 37.41,-122.28"/>
<polygon fill="#63b8ff" stroke="#63b8ff" points="722.42,-326.22 726.79,-335.87 729.39,-325.6 722.42,-326.22"/>
</a>
</g>
</g>
<!-- Node7 -->
<g id="Node000007" class="node">
<title>Node7</title>
<g id="a_Node000007"><a xlink:href="menu_8c.html#a55097e0b77b0fabc6cae44137b9a839a" target="_top" xlink:title="Affiche menu et met a jour les elements visuels associes.">
<polygon fill="white" stroke="#666666" points="166.62,-60.71 89.88,-60.71 89.88,-40.71 166.62,-40.71 166.62,-60.71"/>
<text xml:space="preserve" text-anchor="middle" x="128.25" y="-47.21" font-family="Helvetica,sans-Serif" font-size="10.00">afficher_menu</text>
</a>
</g>
</g>
<!-- Node1&#45;&gt;Node7 -->
<g id="edge8_Node000001_Node000007" class="edge">
<title>Node1&#45;&gt;Node7</title>
<g id="a_edge8_Node000001_Node000007"><a xlink:title=" ">
<path fill="none" stroke="#63b8ff" d="M725.72,-326.11C720.4,-267.4 702.5,-107.08 663.5,-74.71 514.36,49.07 253.21,-13.06 161.89,-40.21"/>
<polygon fill="#63b8ff" stroke="#63b8ff" points="722.21,-326.14 726.56,-335.8 729.18,-325.53 722.21,-326.14"/>
</a>
</g>
</g>
<!-- Node8 -->
<g id="Node000008" class="node">
<title>Node8</title>
<g id="a_Node000008"><a xlink:href="boss_8c.html#abdd4c54b66ea8d0ee227b3c01036670f" target="_top" xlink:title=" ">
<polygon fill="white" stroke="#666666" points="663.5,-357.71 542.5,-357.71 542.5,-337.71 663.5,-337.71 663.5,-357.71"/>
<text xml:space="preserve" text-anchor="middle" x="603" y="-344.21" font-family="Helvetica,sans-Serif" font-size="10.00">appliquer_degats_joueur</text>
</a>
</g>
</g>
<!-- Node1&#45;&gt;Node8 -->
<g id="edge10_Node000001_Node000008" class="edge">
<title>Node1&#45;&gt;Node8</title>
<g id="a_edge10_Node000001_Node000008"><a xlink:title=" ">
<path fill="none" stroke="#63b8ff" d="M687.72,-347.71C680.11,-347.71 672,-347.71 663.93,-347.71"/>
<polygon fill="#63b8ff" stroke="#63b8ff" points="687.65,-351.21 697.65,-347.71 687.65,-344.21 687.65,-351.21"/>
</a>
</g>
</g>
<!-- Node11 -->
<g id="Node000011" class="node">
<title>Node11</title>
<g id="a_Node000011"><a xlink:href="jeux_8c.html#a2d7491d04e8c2bdb52bb6ed7d75e4d78" target="_top" xlink:title="Execute la boucle principale de gameplay pour la planete courante.">
<polygon fill="white" stroke="#666666" points="163.25,-547.71 93.25,-547.71 93.25,-527.71 163.25,-527.71 163.25,-547.71"/>
<text xml:space="preserve" text-anchor="middle" x="128.25" y="-534.21" font-family="Helvetica,sans-Serif" font-size="10.00">jeu_principal</text>
</a>
</g>
</g>
<!-- Node1&#45;&gt;Node11 -->
<g id="edge20_Node000001_Node000011" class="edge">
<title>Node1&#45;&gt;Node11</title>
<g id="a_edge20_Node000001_Node000011"><a xlink:title=" ">
<path fill="none" stroke="#63b8ff" d="M688.69,-362.01C644.78,-377.97 570.96,-404.12 506.5,-423.71 380.25,-462.08 344.39,-457.11 219.5,-499.71 195.85,-507.78 169.6,-519.11 151.54,-527.3"/>
<polygon fill="#63b8ff" stroke="#63b8ff" points="689.84,-365.32 698.03,-358.6 687.44,-358.74 689.84,-365.32"/>
</a>
</g>
</g>
<!-- Node14 -->
<g id="Node000014" class="node">
<title>Node14</title>
<g id="a_Node000014"><a xlink:href="cinematique_8c.html#a68c4780c65b14d27f0088cfc6514eb60" target="_top" xlink:title="Lance cinematique crash et gere son deroulement complet.">
<polygon fill="white" stroke="#666666" points="343.5,-699.71 219.5,-699.71 219.5,-679.71 343.5,-679.71 343.5,-699.71"/>
<text xml:space="preserve" text-anchor="middle" x="281.5" y="-686.21" font-family="Helvetica,sans-Serif" font-size="10.00">jouer_cinematique_crash</text>
</a>
</g>
</g>
<!-- Node1&#45;&gt;Node14 -->
<g id="edge21_Node000001_Node000014" class="edge">
<title>Node1&#45;&gt;Node14</title>
<g id="a_edge21_Node000001_Node000014"><a xlink:title=" ">
<path fill="none" stroke="#63b8ff" d="M727.7,-369.31C727.01,-415.83 719.21,-526.76 663.5,-594.71 586.02,-689.21 430.25,-697.95 343.81,-694.69"/>
<polygon fill="#63b8ff" stroke="#63b8ff" points="731.2,-369.51 727.73,-359.5 724.2,-369.49 731.2,-369.51"/>
</a>
</g>
</g>
<!-- Node15 -->
<g id="Node000015" class="node">
<title>Node15</title>
<g id="a_Node000015"><a xlink:href="perso_8c.html#a2a53403cf290bb65fb010b095c4843cf" target="_top" xlink:title="Verifie collision et retourne le resultat du test.">
<polygon fill="white" stroke="#666666" points="639.5,-585.71 566.5,-585.71 566.5,-565.71 639.5,-565.71 639.5,-585.71"/>
<text xml:space="preserve" text-anchor="middle" x="603" y="-572.21" font-family="Helvetica,sans-Serif" font-size="10.00">test_collision</text>
</a>
</g>
</g>
<!-- Node1&#45;&gt;Node15 -->
<g id="edge25_Node000001_Node000015" class="edge">
<title>Node1&#45;&gt;Node15</title>
<g id="a_edge25_Node000001_Node000015"><a xlink:title=" ">
<path fill="none" stroke="#63b8ff" d="M720.09,-368.6C709.39,-397.75 688.14,-451.88 663.5,-494.71 648.01,-521.63 625.3,-550.27 612.89,-565.23"/>
<polygon fill="#63b8ff" stroke="#63b8ff" points="723.28,-370.08 723.39,-359.49 716.7,-367.7 723.28,-370.08"/>
</a>
</g>
</g>
<!-- Node20 -->
<g id="Node000020" class="node">
<title>Node20</title>
<g id="a_Node000020"><a xlink:href="perso_8c.html#a13de525da0f522f0738bde93c1d62255" target="_top" xlink:title="Met a jour combat en fonction de l&#39;etat courant du jeu.">
<polygon fill="white" stroke="#666666" points="322.88,-528.71 240.12,-528.71 240.12,-508.71 322.88,-508.71 322.88,-528.71"/>
<text xml:space="preserve" text-anchor="middle" x="281.5" y="-515.21" font-family="Helvetica,sans-Serif" font-size="10.00">update_combat</text>
</a>
</g>
</g>
<!-- Node1&#45;&gt;Node20 -->
<g id="edge36_Node000001_Node000020" class="edge">
<title>Node1&#45;&gt;Node20</title>
<g id="a_edge36_Node000001_Node000020"><a xlink:title=" ">
<path fill="none" stroke="#63b8ff" d="M721.29,-368.85C712.68,-394.14 694.56,-435.68 663.5,-456.71 557.78,-528.27 505.28,-477.88 379.5,-499.71 360.9,-502.94 340.38,-506.9 323.02,-510.37"/>
<polygon fill="#63b8ff" stroke="#63b8ff" points="724.52,-370.24 724.21,-359.65 717.85,-368.12 724.52,-370.24"/>
</a>
</g>
</g>
<!-- Node3 -->
<g id="Node000003" class="node">
<title>Node3</title>
<g id="a_Node000003"><a xlink:href="vaisseau_8c.html#ace614afc8df3a40bd5ea0771044ff217" target="_top" xlink:title=" ">
<polygon fill="white" stroke="#666666" points="500.12,-174.71 385.88,-174.71 385.88,-154.71 500.12,-154.71 500.12,-174.71"/>
<text xml:space="preserve" text-anchor="middle" x="443" y="-161.21" font-family="Helvetica,sans-Serif" font-size="10.00">gerer_interaction_objet</text>
</a>
</g>
</g>
<!-- Node2&#45;&gt;Node3 -->
<g id="edge2_Node000002_Node000003" class="edge">
<title>Node2&#45;&gt;Node3</title>
<g id="a_edge2_Node000002_Node000003"><a xlink:title=" ">
<path fill="none" stroke="#63b8ff" d="M555.93,-178.17C538.56,-176.08 518.59,-173.68 500.38,-171.49"/>
<polygon fill="#63b8ff" stroke="#63b8ff" points="555.09,-181.59 565.43,-179.31 555.92,-174.64 555.09,-181.59"/>
</a>
</g>
</g>
<!-- Node2&#45;&gt;Node6 -->
<g id="edge7_Node000002_Node000006" class="edge">
<title>Node2&#45;&gt;Node6</title>
<g id="a_edge7_Node000002_Node000006"><a xlink:title=" ">
<path fill="none" stroke="#63b8ff" d="M571.42,-168.45C553.08,-160.09 529.01,-150.48 506.5,-145.71 326.88,-107.64 101.85,-120.46 37.46,-125.25"/>
<polygon fill="#63b8ff" stroke="#63b8ff" points="569.86,-171.58 580.4,-172.67 572.84,-165.25 569.86,-171.58"/>
</a>
</g>
</g>
<!-- Node4 -->
<g id="Node000004" class="node">
<title>Node4</title>
<g id="a_Node000004"><a xlink:href="vaisseau_8c.html#a8ea9afc9440149ddd36e96b97d8ed6c5" target="_top" xlink:title="Lance la scene interieure du vaisseau (deplacement, interactions, mini&#45;jeux, sortie).">
<polygon fill="white" stroke="#666666" points="309,-174.71 254,-174.71 254,-154.71 309,-154.71 309,-174.71"/>
<text xml:space="preserve" text-anchor="middle" x="281.5" y="-161.21" font-family="Helvetica,sans-Serif" font-size="10.00">vaisseau</text>
</a>
</g>
</g>
<!-- Node3&#45;&gt;Node4 -->
<g id="edge3_Node000003_Node000004" class="edge">
<title>Node3&#45;&gt;Node4</title>
<g id="a_edge3_Node000003_Node000004"><a xlink:title=" ">
<path fill="none" stroke="#63b8ff" d="M374.3,-164.71C351.36,-164.71 327.07,-164.71 309.24,-164.71"/>
<polygon fill="#63b8ff" stroke="#63b8ff" points="374.25,-168.21 384.25,-164.71 374.25,-161.21 374.25,-168.21"/>
</a>
</g>
</g>
<!-- Node4&#45;&gt;Node5 -->
<g id="edge4_Node000004_Node000005" class="edge">
<title>Node4&#45;&gt;Node5</title>
<g id="a_edge4_Node000004_Node000005"><a xlink:title=" ">
<path fill="none" stroke="#63b8ff" d="M242.93,-174.15C221.02,-179.65 193.34,-186.61 170.79,-192.27"/>
<polygon fill="#63b8ff" stroke="#63b8ff" points="243.49,-177.62 252.34,-171.78 241.79,-170.83 243.49,-177.62"/>
</a>
</g>
</g>
<!-- Node4&#45;&gt;Node6 -->
<g id="edge6_Node000004_Node000006" class="edge">
<title>Node4&#45;&gt;Node6</title>
<g id="a_edge6_Node000004_Node000006"><a xlink:title=" ">
<path fill="none" stroke="#63b8ff" d="M242.5,-161.93C200.7,-158.5 131.68,-151.72 73,-140.71 60.92,-138.44 47.55,-134.94 37.19,-132.01"/>
<polygon fill="#63b8ff" stroke="#63b8ff" points="242.03,-165.4 252.28,-162.71 242.59,-158.43 242.03,-165.4"/>
</a>
</g>
</g>
<!-- Node5&#45;&gt;Node2 -->
<g id="edge5_Node000005_Node000002" class="edge">
<title>Node5&#45;&gt;Node2</title>
<g id="a_edge5_Node000005_Node000002"><a xlink:title=" ">
<path fill="none" stroke="#63b8ff" d="M195.08,-200.06C296.67,-195.98 488.14,-188.29 566.85,-185.12"/>
<polygon fill="#63b8ff" stroke="#63b8ff" points="195.11,-196.56 185.26,-200.46 195.39,-203.55 195.11,-196.56"/>
</a>
</g>
</g>
<!-- Node7&#45;&gt;Node6 -->
<g id="edge9_Node000007_Node000006" class="edge">
<title>Node7&#45;&gt;Node6</title>
<g id="a_edge9_Node000007_Node000006"><a xlink:title=" ">
<path fill="none" stroke="#63b8ff" d="M88.42,-65.85C83.08,-68.51 77.79,-71.48 73,-74.71 55.18,-86.74 37.97,-105.03 28.08,-116.41"/>
<polygon fill="#63b8ff" stroke="#63b8ff" points="89.68,-69.13 97.28,-61.75 86.73,-62.77 89.68,-69.13"/>
</a>
</g>
</g>
<!-- Node9 -->
<g id="Node000009" class="node">
<title>Node9</title>
<g id="a_Node000009"><a xlink:href="boss_8c.html#af427d4c0d85f6029c589ec2c599df015" target="_top" xlink:title=" ">
<polygon fill="white" stroke="#666666" points="506.5,-338.71 379.5,-338.71 379.5,-318.71 506.5,-318.71 506.5,-338.71"/>
<text xml:space="preserve" text-anchor="middle" x="443" y="-325.21" font-family="Helvetica,sans-Serif" font-size="10.00">appliquer_degats_contact</text>
</a>
</g>
</g>
<!-- Node8&#45;&gt;Node9 -->
<g id="edge11_Node000008_Node000009" class="edge">
<title>Node8&#45;&gt;Node9</title>
<g id="a_edge11_Node000008_Node000009"><a xlink:title=" ">
<path fill="none" stroke="#63b8ff" d="M531.04,-339.18C523.02,-338.21 514.89,-337.23 506.98,-336.28"/>
<polygon fill="#63b8ff" stroke="#63b8ff" points="530.42,-342.63 540.76,-340.35 531.25,-335.68 530.42,-342.63"/>
</a>
</g>
</g>
<!-- Node10 -->
<g id="Node000010" class="node">
<title>Node10</title>
<g id="a_Node000010"><a xlink:href="boss_8c.html#abbb99b844a32a59c50228b7d6dcb888b" target="_top" xlink:title="Met a jour boss en fonction de l&#39;etat courant du jeu.">
<polygon fill="white" stroke="#666666" points="332.25,-376.71 230.75,-376.71 230.75,-356.71 332.25,-356.71 332.25,-376.71"/>
<text xml:space="preserve" text-anchor="middle" x="281.5" y="-363.21" font-family="Helvetica,sans-Serif" font-size="10.00">mettre_a_jour_boss</text>
</a>
</g>
</g>
<!-- Node8&#45;&gt;Node10 -->
<g id="edge17_Node000008_Node000010" class="edge">
<title>Node8&#45;&gt;Node10</title>
<g id="a_edge17_Node000008_Node000010"><a xlink:title=" ">
<path fill="none" stroke="#63b8ff" d="M530.97,-351.93C470.81,-355.51 386.07,-360.55 332.73,-363.72"/>
<polygon fill="#63b8ff" stroke="#63b8ff" points="530.99,-355.44 540.77,-351.35 530.58,-348.45 530.99,-355.44"/>
</a>
</g>
</g>
<!-- Node12 -->
<g id="Node000012" class="node">
<title>Node12</title>
<g id="a_Node000012"><a xlink:href="boss_8c.html#ad702f42cf8f6318134fb3270d630ab00" target="_top" xlink:title=" ">
<polygon fill="white" stroke="#666666" points="503.5,-300.71 382.5,-300.71 382.5,-268.71 503.5,-268.71 503.5,-300.71"/>
<text xml:space="preserve" text-anchor="start" x="390.5" y="-287.21" font-family="Helvetica,sans-Serif" font-size="10.00">appliquer_degats_hache</text>
<text xml:space="preserve" text-anchor="middle" x="443" y="-275.21" font-family="Helvetica,sans-Serif" font-size="10.00">_minotaure</text>
</a>
</g>
</g>
<!-- Node8&#45;&gt;Node12 -->
<g id="edge15_Node000008_Node000012" class="edge">
<title>Node8&#45;&gt;Node12</title>
<g id="a_edge15_Node000008_Node000012"><a xlink:title=" ">
<path fill="none" stroke="#63b8ff" d="M565.47,-333.15C541.52,-323.59 510.14,-311.08 485.28,-301.17"/>
<polygon fill="#63b8ff" stroke="#63b8ff" points="563.92,-336.29 574.5,-336.75 566.51,-329.79 563.92,-336.29"/>
</a>
</g>
</g>
<!-- Node13 -->
<g id="Node000013" class="node">
<title>Node13</title>
<g id="a_Node000013"><a xlink:href="boss_8c.html#a0bba4ecad554b4cae0f277f1c11459d5" target="_top" xlink:title=" ">
<polygon fill="white" stroke="#666666" points="490.38,-414.71 395.62,-414.71 395.62,-394.71 490.38,-394.71 490.38,-414.71"/>
<text xml:space="preserve" text-anchor="middle" x="443" y="-401.21" font-family="Helvetica,sans-Serif" font-size="10.00">update_projectiles</text>
</a>
</g>
</g>
<!-- Node8&#45;&gt;Node13 -->
<g id="edge18_Node000008_Node000013" class="edge">
<title>Node8&#45;&gt;Node13</title>
<g id="a_edge18_Node000008_Node000013"><a xlink:title=" ">
<path fill="none" stroke="#63b8ff" d="M562.47,-361.97C534.7,-371.99 498.18,-385.16 473.06,-394.22"/>
<polygon fill="#63b8ff" stroke="#63b8ff" points="563.38,-365.36 571.6,-358.68 561,-358.78 563.38,-365.36"/>
</a>
</g>
</g>
<!-- Node9&#45;&gt;Node10 -->
<g id="edge12_Node000009_Node000010" class="edge">
<title>Node9&#45;&gt;Node10</title>
<g id="a_edge12_Node000009_Node000010"><a xlink:title=" ">
<path fill="none" stroke="#63b8ff" d="M386.95,-341.82C367.14,-346.54 345.09,-351.8 326.36,-356.26"/>
<polygon fill="#63b8ff" stroke="#63b8ff" points="387.6,-345.27 396.52,-339.54 385.98,-338.46 387.6,-345.27"/>
</a>
</g>
</g>
<!-- Node10&#45;&gt;Node11 -->
<g id="edge13_Node000010_Node000011" class="edge">
<title>Node10&#45;&gt;Node11</title>
<g id="a_edge13_Node000010_Node000011"><a xlink:title=" ">
<path fill="none" stroke="#63b8ff" d="M261.71,-384.98C249.42,-397.12 233.18,-413.56 219.5,-428.71 187.89,-463.72 152.93,-507.53 137.42,-527.24"/>
<polygon fill="#63b8ff" stroke="#63b8ff" points="264.09,-387.54 268.78,-378.04 259.19,-382.54 264.09,-387.54"/>
</a>
</g>
</g>
<!-- Node11&#45;&gt;Node6 -->
<g id="edge14_Node000011_Node000006" class="edge">
<title>Node11&#45;&gt;Node6</title>
<g id="a_edge14_Node000011_Node000006"><a xlink:title=" ">
<path fill="none" stroke="#63b8ff" d="M121.77,-516.8C102.21,-442.19 36.27,-190.66 22.17,-136.88"/>
<polygon fill="#63b8ff" stroke="#63b8ff" points="118.28,-517.3 124.2,-526.09 125.05,-515.52 118.28,-517.3"/>
</a>
</g>
</g>
<!-- Node12&#45;&gt;Node10 -->
<g id="edge16_Node000012_Node000010" class="edge">
<title>Node12&#45;&gt;Node10</title>
<g id="a_edge16_Node000012_Node000010"><a xlink:title=" ">
<path fill="none" stroke="#63b8ff" d="M388.3,-305.57C385.3,-306.93 382.35,-308.31 379.5,-309.71 350.04,-324.16 317.47,-344.19 298.56,-356.26"/>
<polygon fill="#63b8ff" stroke="#63b8ff" points="389.44,-308.89 397.21,-301.69 386.64,-302.48 389.44,-308.89"/>
</a>
</g>
</g>
<!-- Node13&#45;&gt;Node10 -->
<g id="edge19_Node000013_Node000010" class="edge">
<title>Node13&#45;&gt;Node10</title>
<g id="a_edge19_Node000013_Node000010"><a xlink:title=" ">
<path fill="none" stroke="#63b8ff" d="M386.95,-391.59C367.14,-386.88 345.09,-381.62 326.36,-377.16"/>
<polygon fill="#63b8ff" stroke="#63b8ff" points="385.98,-394.96 396.52,-393.87 387.6,-388.15 385.98,-394.96"/>
</a>
</g>
</g>
<!-- Node14&#45;&gt;Node11 -->
<g id="edge22_Node000014_Node000011" class="edge">
<title>Node14&#45;&gt;Node11</title>
<g id="a_edge22_Node000014_Node000011"><a xlink:title=" ">
<path fill="none" stroke="#63b8ff" d="M250.21,-673.65C239.92,-667.49 228.71,-659.94 219.5,-651.71 182.6,-618.75 149.3,-569.43 135.72,-548.13"/>
<polygon fill="#63b8ff" stroke="#63b8ff" points="248.35,-676.62 258.76,-678.57 251.84,-670.55 248.35,-676.62"/>
</a>
</g>
</g>
<!-- Node15&#45;&gt;Node11 -->
<g id="edge28_Node000015_Node000011" class="edge">
<title>Node15&#45;&gt;Node11</title>
<g id="a_edge28_Node000015_Node000011"><a xlink:title=" ">
<path fill="none" stroke="#63b8ff" d="M555.06,-582.07C482.24,-590.52 338.05,-601.58 219.5,-575.71 193.76,-570.09 166.1,-557.35 148.29,-548.16"/>
<polygon fill="#63b8ff" stroke="#63b8ff" points="555.11,-585.59 564.62,-580.92 554.28,-578.64 555.11,-585.59"/>
</a>
</g>
</g>
<!-- Node16 -->
<g id="Node000016" class="node">
<title>Node16</title>
<g id="a_Node000016"><a xlink:href="mob_8c.html#af2bb33cec05837a53c00e0f901d38c68" target="_top" xlink:title="Initialise mobs et prepare les ressources necessaires.">
<polygon fill="white" stroke="#666666" points="310.5,-566.71 252.5,-566.71 252.5,-546.71 310.5,-546.71 310.5,-566.71"/>
<text xml:space="preserve" text-anchor="middle" x="281.5" y="-553.21" font-family="Helvetica,sans-Serif" font-size="10.00">init_mobs</text>
</a>
</g>
</g>
<!-- Node15&#45;&gt;Node16 -->
<g id="edge26_Node000015_Node000016" class="edge">
<title>Node15&#45;&gt;Node16</title>
<g id="a_edge26_Node000015_Node000016"><a xlink:title=" ">
<path fill="none" stroke="#63b8ff" d="M555.18,-572.93C487.97,-568.93 366.15,-561.68 310.99,-558.4"/>
<polygon fill="#63b8ff" stroke="#63b8ff" points="554.58,-576.4 564.77,-573.5 554.99,-569.41 554.58,-576.4"/>
</a>
</g>
</g>
<!-- Node17 -->
<g id="Node000017" class="node">
<title>Node17</title>
<g id="a_Node000017"><a xlink:href="mob_8c.html#ad937d045795912d2cc7b363b7d2d19b8" target="_top" xlink:title=" ">
<polygon fill="white" stroke="#666666" points="506.5,-642.71 379.5,-642.71 379.5,-622.71 506.5,-622.71 506.5,-642.71"/>
<text xml:space="preserve" text-anchor="middle" x="443" y="-629.21" font-family="Helvetica,sans-Serif" font-size="10.00">spawn_one_mob_of_type</text>
</a>
</g>
</g>
<!-- Node15&#45;&gt;Node17 -->
<g id="edge29_Node000015_Node000017" class="edge">
<title>Node15&#45;&gt;Node17</title>
<g id="a_edge29_Node000015_Node000017"><a xlink:title=" ">
<path fill="none" stroke="#63b8ff" d="M562.47,-589.97C534.7,-599.99 498.18,-613.16 473.06,-622.22"/>
<polygon fill="#63b8ff" stroke="#63b8ff" points="563.38,-593.36 571.6,-586.68 561,-586.78 563.38,-593.36"/>
</a>
</g>
</g>
<!-- Node18 -->
<g id="Node000018" class="node">
<title>Node18</title>
<g id="a_Node000018"><a xlink:href="mob_8c.html#a1f766d8b9a9348d960e6f211fce5d558" target="_top" xlink:title="Met a jour mobs en fonction de l&#39;etat courant du jeu.">
<polygon fill="white" stroke="#666666" points="318.75,-642.71 244.25,-642.71 244.25,-622.71 318.75,-622.71 318.75,-642.71"/>
<text xml:space="preserve" text-anchor="middle" x="281.5" y="-629.21" font-family="Helvetica,sans-Serif" font-size="10.00">update_mobs</text>
</a>
</g>
</g>
<!-- Node15&#45;&gt;Node18 -->
<g id="edge35_Node000015_Node000018" class="edge">
<title>Node15&#45;&gt;Node18</title>
<g id="a_edge35_Node000015_Node000018"><a xlink:title=" ">
<path fill="none" stroke="#63b8ff" d="M585.79,-594.5C568.38,-613.11 538.82,-640.42 506.5,-651.71 440.73,-674.69 357.78,-656.38 313.58,-643.2"/>
<polygon fill="#63b8ff" stroke="#63b8ff" points="588.2,-597.05 592.31,-587.29 583.01,-592.36 588.2,-597.05"/>
</a>
</g>
</g>
<!-- Node19 -->
<g id="Node000019" class="node">
<title>Node19</title>
<g id="a_Node000019"><a xlink:href="perso_8c.html#a8ed2806e634464929c59457d470b930b" target="_top" xlink:title="Evalue les collisions de combat (joueur/mobs/items) pour la frame courante.">
<polygon fill="white" stroke="#666666" points="502.38,-528.71 383.62,-528.71 383.62,-508.71 502.38,-508.71 502.38,-528.71"/>
<text xml:space="preserve" text-anchor="middle" x="443" y="-515.21" font-family="Helvetica,sans-Serif" font-size="10.00">tester_collision_combat</text>
</a>
</g>
</g>
<!-- Node15&#45;&gt;Node19 -->
<g id="edge32_Node000015_Node000019" class="edge">
<title>Node15&#45;&gt;Node19</title>
<g id="a_edge32_Node000015_Node000019"><a xlink:title=" ">
<path fill="none" stroke="#63b8ff" d="M562.47,-561.45C534.7,-551.43 498.18,-538.25 473.06,-529.19"/>
<polygon fill="#63b8ff" stroke="#63b8ff" points="561,-564.64 571.6,-564.74 563.38,-558.06 561,-564.64"/>
</a>
</g>
</g>
<!-- Node16&#45;&gt;Node11 -->
<g id="edge27_Node000016_Node000011" class="edge">
<title>Node16&#45;&gt;Node11</title>
<g id="a_edge27_Node000016_Node000011"><a xlink:title=" ">
<path fill="none" stroke="#63b8ff" d="M240.85,-551.73C216.88,-548.72 186.63,-544.92 163.67,-542.03"/>
<polygon fill="#63b8ff" stroke="#63b8ff" points="240.19,-555.17 250.55,-552.95 241.06,-548.23 240.19,-555.17"/>
</a>
</g>
</g>
<!-- Node17&#45;&gt;Node18 -->
<g id="edge30_Node000017_Node000018" class="edge">
<title>Node17&#45;&gt;Node18</title>
<g id="a_edge30_Node000017_Node000018"><a xlink:title=" ">
<path fill="none" stroke="#63b8ff" d="M368.29,-632.71C351.22,-632.71 333.79,-632.71 319.13,-632.71"/>
<polygon fill="#63b8ff" stroke="#63b8ff" points="367.91,-636.21 377.91,-632.71 367.91,-629.21 367.91,-636.21"/>
</a>
</g>
</g>
<!-- Node18&#45;&gt;Node11 -->
<g id="edge31_Node000018_Node000011" class="edge">
<title>Node18&#45;&gt;Node11</title>
<g id="a_edge31_Node000018_Node000011"><a xlink:title=" ">
<path fill="none" stroke="#63b8ff" d="M238.73,-618.16C232.14,-615.34 225.53,-612.16 219.5,-608.71 188.37,-590.86 156.4,-563.01 140.16,-548.05"/>
<polygon fill="#63b8ff" stroke="#63b8ff" points="236.98,-621.23 247.57,-621.75 239.61,-614.74 236.98,-621.23"/>
</a>
</g>
</g>
<!-- Node19&#45;&gt;Node20 -->
<g id="edge33_Node000019_Node000020" class="edge">
<title>Node19&#45;&gt;Node20</title>
<g id="a_edge33_Node000019_Node000020"><a xlink:title=" ">
<path fill="none" stroke="#63b8ff" d="M372.04,-518.71C355.29,-518.71 337.94,-518.71 323.04,-518.71"/>
<polygon fill="#63b8ff" stroke="#63b8ff" points="372,-522.21 382,-518.71 372,-515.21 372,-522.21"/>
</a>
</g>
</g>
<!-- Node20&#45;&gt;Node11 -->
<g id="edge34_Node000020_Node000011" class="edge">
<title>Node20&#45;&gt;Node11</title>
<g id="a_edge34_Node000020_Node000011"><a xlink:title=" ">
<path fill="none" stroke="#63b8ff" d="M228.72,-525.21C207.26,-527.91 182.95,-530.96 163.74,-533.38"/>
<polygon fill="#63b8ff" stroke="#63b8ff" points="228.98,-528.71 238.47,-523.99 228.11,-521.76 228.98,-528.71"/>
</a>
</g>
</g>
</g>
</svg>

<g id="navigator" transform="translate(0 0)" fill="#404254">
  <rect fill="#f2f5e9" fill-opacity="0.5" stroke="#606060" stroke-width=".5" x="0" y="0" width="60" height="60"/>
  <use id="zoomplus" xlink:href="#zoomPlus" x="17" y="9" onmousedown="handleZoom(evt,'in')"/>
  <use id="zoomminus" xlink:href="#zoomMin" x="42" y="9" onmousedown="handleZoom(evt,'out')"/>
  <use id="reset" xlink:href="#resetDef" x="30" y="36" onmousedown="handleReset()"/>
   <use id="arrowup" xlink:href="#arrowUp" x="0" y="0" onmousedown="handlePan(0,-1)"/>
  <use id="arrowright" xlink:href="#arrowRight" x="0" y="0" onmousedown="handlePan(1,0)"/>
  <use id="arrowdown" xlink:href="#arrowDown" x="0" y="0" onmousedown="handlePan(0,1)"/>
  <use id="arrowleft" xlink:href="#arrowLeft" x="0" y="0" onmousedown="handlePan(-1,0)"/>
</g>
<svg viewBox="0 0 15 15" width="100%" height="30px" preserveAspectRatio="xMaxYMin meet">
 <g id="arrow_out" transform="scale(0.3 0.3)">
  <a xlink:href="son_8c_ae145ae699cc1eecf0684bdd530bd26f0_icgraph_org.svg" target="_base">
   <rect id="button" ry="5" rx="5" y="6" x="6" height="38" width="38"
        fill="#f2f5e9" fill-opacity="0.5" stroke="#606060" stroke-width="1.0"/>
   <path id="arrow"
     d="M 11.500037,31.436501 C 11.940474,20.09759 22.043105,11.32322 32.158766,21.979434 L 37.068811,17.246167 C 37.068811,17.246167 37.088388,32 37.088388,32 L 22.160133,31.978069 C 22.160133,31.978069 26.997745,27.140456 26.997745,27.140456 C 18.528582,18.264221 13.291696,25.230495 11.500037,31.436501 z"
     style="fill:#404040;"/>
  </a>
 </g>
</svg>

<style type='text/css'>
<![CDATA[
[data-mouse-over-selected='false'] { opacity: 0.7; }
[data-mouse-over-selected='true']  { opacity: 1.0; }
]]>
</style>
<script type="application/ecmascript"><![CDATA[
document.addEventListener('DOMContentLoaded', (event) => {
  highlightEdges();
  highlightAdjacentNodes();
});
]]></script>
</svg>
