<?xml version="1.0" encoding="UTF-8" standalone="no"?>
<!DOCTYPE svg PUBLIC "-//W3C//DTD SVG 1.1//EN"
 "http://www.w3.org/Graphics/SVG/1.1/DTD/svg11.dtd">
<!-- Generated by graphviz version 14.1.4 (20260321.0153)
 -->
<!-- Title: recuperer_son Pages: 1 -->
<svg width="903pt" height="687pt"
 viewBox="0.00 0.00 903.00 687.00" xmlns="http://www.w3.org/2000/svg" xmlns:xlink="http://www.w3.org/1999/xlink">
<g id="graph0" class="graph" transform="scale(1 1) rotate(0) translate(4 683.07)">
<title>recuperer_son</title>
<!-- Node1 -->
<g id="Node000001" class="node">
<title>Node1</title>
<g id="a_Node000001"><a xlink:title=" ">
<polygon fill="#999999" stroke="#666666" points="895,-188.22 817.5,-188.22 817.5,-168.22 895,-168.22 895,-188.22"/>
<text xml:space="preserve" text-anchor="middle" x="856.25" y="-174.72" font-family="Helvetica,sans-Serif" font-size="10.00">recuperer_son</text>
</a>
</g>
</g>
<!-- Node2 -->
<g id="Node000002" class="node">
<title>Node2</title>
<g id="a_Node000002"><a xlink:href="son_8c.html#ae145ae699cc1eecf0684bdd530bd26f0" target="_top" xlink:title="Charge (ou recupere du cache) puis joue une piste audio.">
<polygon fill="white" stroke="#666666" points="759.75,-302.22 701.75,-302.22 701.75,-282.22 759.75,-282.22 759.75,-302.22"/>
<text xml:space="preserve" text-anchor="middle" x="730.75" y="-288.72" font-family="Helvetica,sans-Serif" font-size="10.00">jouer_son</text>
</a>
</g>
</g>
<!-- Node1&#45;&gt;Node2 -->
<g id="edge1_Node000001_Node000002" class="edge">
<title>Node1&#45;&gt;Node2</title>
<g id="a_edge1_Node000001_Node000002"><a xlink:title=" ">
<path fill="none" stroke="#63b8ff" d="M835.93,-196.05C809.75,-220.21 763.9,-262.54 742.86,-281.96"/>
<polygon fill="#63b8ff" stroke="#63b8ff" points="838.2,-198.71 843.18,-189.36 833.46,-193.57 838.2,-198.71"/>
</a>
</g>
</g>
<!-- Node22 -->
<g id="Node000022" class="node">
<title>Node22</title>
<g id="a_Node000022"><a xlink:href="son_8c.html#a028240b6e82e6b66131d717e14b94af1" target="_top" xlink:title="Precharge les effets sonores frequents dans le cache audio.">
<polygon fill="white" stroke="#666666" points="781.5,-169.22 680,-169.22 680,-149.22 781.5,-149.22 781.5,-169.22"/>
<text xml:space="preserve" text-anchor="middle" x="730.75" y="-155.72" font-family="Helvetica,sans-Serif" font-size="10.00">son_precharger_sfx</text>
</a>
</g>
</g>
<!-- Node1&#45;&gt;Node22 -->
<g id="edge38_Node000001_Node000022" class="edge">
<title>Node1&#45;&gt;Node22</title>
<g id="a_edge38_Node000001_Node000022"><a xlink:title=" ">
<path fill="none" stroke="#63b8ff" d="M805.83,-170.61C797.9,-169.39 789.69,-168.13 781.74,-166.91"/>
<polygon fill="#63b8ff" stroke="#63b8ff" points="805.28,-174.07 815.69,-172.13 806.34,-167.15 805.28,-174.07"/>
</a>
</g>
</g>
<!-- Node3 -->
<g id="Node000003" class="node">
<title>Node3</title>
<g id="a_Node000003"><a xlink:href="map_8c.html#ad462ccdd50801fb085dc8134fc3765d1" target="_top" xlink:title="Affiche la carte et met a jour les elements visuels associes.">
<polygon fill="white" stroke="#666666" points="617.75,-188.22 546.25,-188.22 546.25,-168.22 617.75,-168.22 617.75,-188.22"/>
<text xml:space="preserve" text-anchor="middle" x="582" y="-174.72" font-family="Helvetica,sans-Serif" font-size="10.00">afficher_map</text>
</a>
</g>
</g>
<!-- Node2&#45;&gt;Node3 -->
<g id="edge2_Node000002_Node000003" class="edge">
<title>Node2&#45;&gt;Node3</title>
<g id="a_edge2_Node000002_Node000003"><a xlink:title=" ">
<path fill="none" stroke="#63b8ff" d="M709.15,-274.39C692,-259.75 666.8,-238.65 644,-221.22 628.87,-209.65 611,-197.19 598.53,-188.67"/>
<polygon fill="#63b8ff" stroke="#63b8ff" points="706.76,-276.96 716.63,-280.82 711.32,-271.65 706.76,-276.96"/>
</a>
</g>
</g>
<!-- Node6 -->
<g id="Node000006" class="node">
<title>Node6</title>
<g id="a_Node000006"><a xlink:href="cinematique_8c.html#a418cc3e727578f4cd509ad27cd6a2a31" target="_top" xlink:title="Lance cinematique fin et gere son deroulement complet.">
<polygon fill="white" stroke="#666666" points="183.5,-207.22 73,-207.22 73,-187.22 183.5,-187.22 183.5,-207.22"/>
<text xml:space="preserve" text-anchor="middle" x="128.25" y="-193.72" font-family="Helvetica,sans-Serif" font-size="10.00">jouer_cinematique_fin</text>
</a>
</g>
</g>
<!-- Node2&#45;&gt;Node6 -->
<g id="edge24_Node000002_Node000006" class="edge">
<title>Node2&#45;&gt;Node6</title>
<g id="a_edge24_Node000002_Node000006"><a xlink:title=" ">
<path fill="none" stroke="#63b8ff" d="M690.37,-285.99C586.22,-269.51 303.35,-224.76 183.78,-205.84"/>
<polygon fill="#63b8ff" stroke="#63b8ff" points="689.67,-289.42 700.1,-287.53 690.77,-282.51 689.67,-289.42"/>
</a>
</g>
</g>
<!-- Node7 -->
<g id="Node000007" class="node">
<title>Node7</title>
<g id="a_Node000007"><a xlink:href="main_8c.html#a0ddf1224851353fc92bfbff6f499fa97" target="_top" xlink:title=" ">
<polygon fill="white" stroke="#666666" points="37,-112.22 0,-112.22 0,-92.22 37,-92.22 37,-112.22"/>
<text xml:space="preserve" text-anchor="middle" x="18.5" y="-98.72" font-family="Helvetica,sans-Serif" font-size="10.00">main</text>
</a>
</g>
</g>
<!-- Node2&#45;&gt;Node7 -->
<g id="edge25_Node000002_Node000007" class="edge">
<title>Node2&#45;&gt;Node7</title>
<g id="a_edge25_Node000002_Node000007"><a xlink:title=" ">
<path fill="none" stroke="#63b8ff" d="M721.54,-271.29C709.06,-242.12 682.61,-189.41 644,-159.22 561.68,-94.85 526,-83.22 421.5,-83.22 421.5,-83.22 421.5,-83.22 269.25,-83.22 182.06,-83.22 78.25,-94.87 37.33,-99.92"/>
<polygon fill="#63b8ff" stroke="#63b8ff" points="718.28,-272.58 725.32,-280.49 724.75,-269.91 718.28,-272.58"/>
</a>
</g>
</g>
<!-- Node8 -->
<g id="Node000008" class="node">
<title>Node8</title>
<g id="a_Node000008"><a xlink:href="menu_8c.html#a55097e0b77b0fabc6cae44137b9a839a" target="_top" xlink:title="Affiche menu et met a jour les elements visuels associes.">
<polygon fill="white" stroke="#666666" points="166.62,-55.22 89.88,-55.22 89.88,-35.22 166.62,-35.22 166.62,-55.22"/>
<text xml:space="preserve" text-anchor="middle" x="128.25" y="-41.72" font-family="Helvetica,sans-Serif" font-size="10.00">afficher_menu</text>
</a>
</g>
</g>
<!-- Node2&#45;&gt;Node8 -->
<g id="edge9_Node000002_Node000008" class="edge">
<title>Node2&#45;&gt;Node8</title>
<g id="a_edge9_Node000002_Node000008"><a xlink:title=" ">
<path fill="none" stroke="#63b8ff" d="M720.06,-271.59C709.58,-248.94 692.68,-211.37 680,-178.22 661.78,-130.56 684.64,-100.06 644,-69.22 569.44,-12.63 272.86,-32.51 167.02,-41.66"/>
<polygon fill="#63b8ff" stroke="#63b8ff" points="716.86,-273.02 724.26,-280.6 723.21,-270.06 716.86,-273.02"/>
</a>
</g>
</g>
<!-- Node9 -->
<g id="Node000009" class="node">
<title>Node9</title>
<g id="a_Node000009"><a xlink:href="boss_8c.html#abdd4c54b66ea8d0ee227b3c01036670f" target="_top" xlink:title=" ">
<polygon fill="white" stroke="#666666" points="642.5,-593.22 521.5,-593.22 521.5,-573.22 642.5,-573.22 642.5,-593.22"/>
<text xml:space="preserve" text-anchor="middle" x="582" y="-579.72" font-family="Helvetica,sans-Serif" font-size="10.00">appliquer_degats_joueur</text>
</a>
</g>
</g>
<!-- Node2&#45;&gt;Node9 -->
<g id="edge11_Node000002_Node000009" class="edge">
<title>Node2&#45;&gt;Node9</title>
<g id="a_edge11_Node000002_Node000009"><a xlink:title=" ">
<path fill="none" stroke="#63b8ff" d="M724.88,-313.43C714.6,-355.36 687.97,-450.77 644,-520.22 630.64,-541.31 609.36,-561.23 595.8,-572.83"/>
<polygon fill="#63b8ff" stroke="#63b8ff" points="728.23,-314.45 727.14,-303.91 721.42,-312.83 728.23,-314.45"/>
</a>
</g>
</g>
<!-- Node12 -->
<g id="Node000012" class="node">
<title>Node12</title>
<g id="a_Node000012"><a xlink:href="jeux_8c.html#a2d7491d04e8c2bdb52bb6ed7d75e4d78" target="_top" xlink:title="Execute la boucle principale de gameplay pour la planete courante.">
<polygon fill="white" stroke="#666666" points="163.25,-416.22 93.25,-416.22 93.25,-396.22 163.25,-396.22 163.25,-416.22"/>
<text xml:space="preserve" text-anchor="middle" x="128.25" y="-402.72" font-family="Helvetica,sans-Serif" font-size="10.00">jeu_principal</text>
</a>
</g>
</g>
<!-- Node2&#45;&gt;Node12 -->
<g id="edge21_Node000002_Node000012" class="edge">
<title>Node2&#45;&gt;Node12</title>
<g id="a_edge21_Node000002_Node000012"><a xlink:title=" ">
<path fill="none" stroke="#63b8ff" d="M729.99,-314.02C729.41,-369.36 720.37,-516.89 644,-602.22 592.92,-659.28 559.21,-651.73 484,-666.22 365.23,-689.09 304.85,-687.92 219.5,-602.22 163.46,-545.94 138.34,-448.46 131.37,-416.61"/>
<polygon fill="#63b8ff" stroke="#63b8ff" points="733.49,-314.08 729.99,-304.08 726.49,-314.08 733.49,-314.08"/>
</a>
</g>
</g>
<!-- Node15 -->
<g id="Node000015" class="node">
<title>Node15</title>
<g id="a_Node000015"><a xlink:href="cinematique_8c.html#a68c4780c65b14d27f0088cfc6514eb60" target="_top" xlink:title="Lance cinematique crash et gere son deroulement complet.">
<polygon fill="white" stroke="#666666" points="644,-511.22 520,-511.22 520,-491.22 644,-491.22 644,-511.22"/>
<text xml:space="preserve" text-anchor="middle" x="582" y="-497.72" font-family="Helvetica,sans-Serif" font-size="10.00">jouer_cinematique_crash</text>
</a>
</g>
</g>
<!-- Node2&#45;&gt;Node15 -->
<g id="edge22_Node000002_Node000015" class="edge">
<title>Node2&#45;&gt;Node15</title>
<g id="a_edge22_Node000002_Node000015"><a xlink:title=" ">
<path fill="none" stroke="#63b8ff" d="M725.29,-313.82C716.37,-351.88 692.84,-431.19 644,-477.22 637.87,-482.99 630.19,-487.43 622.36,-490.83"/>
<polygon fill="#63b8ff" stroke="#63b8ff" points="728.7,-314.6 727.44,-304.08 721.87,-313.09 728.7,-314.6"/>
</a>
</g>
</g>
<!-- Node16 -->
<g id="Node000016" class="node">
<title>Node16</title>
<g id="a_Node000016"><a xlink:href="perso_8c.html#a2a53403cf290bb65fb010b095c4843cf" target="_top" xlink:title="Verifie collision et retourne le resultat du test.">
<polygon fill="white" stroke="#666666" points="618.5,-340.22 545.5,-340.22 545.5,-320.22 618.5,-320.22 618.5,-340.22"/>
<text xml:space="preserve" text-anchor="middle" x="582" y="-326.72" font-family="Helvetica,sans-Serif" font-size="10.00">test_collision</text>
</a>
</g>
</g>
<!-- Node2&#45;&gt;Node16 -->
<g id="edge26_Node000002_Node000016" class="edge">
<title>Node2&#45;&gt;Node16</title>
<g id="a_edge26_Node000002_Node000016"><a xlink:title=" ">
<path fill="none" stroke="#63b8ff" d="M690.35,-302.42C668.06,-308.19 640.41,-315.35 618.75,-320.96"/>
<polygon fill="#63b8ff" stroke="#63b8ff" points="691.19,-305.82 699.99,-299.92 689.43,-299.04 691.19,-305.82"/>
</a>
</g>
</g>
<!-- Node21 -->
<g id="Node000021" class="node">
<title>Node21</title>
<g id="a_Node000021"><a xlink:href="perso_8c.html#a13de525da0f522f0738bde93c1d62255" target="_top" xlink:title="Met a jour combat en fonction de l&#39;etat courant du jeu.">
<polygon fill="white" stroke="#666666" points="311.62,-435.22 228.88,-435.22 228.88,-415.22 311.62,-415.22 311.62,-435.22"/>
<text xml:space="preserve" text-anchor="middle" x="270.25" y="-421.72" font-family="Helvetica,sans-Serif" font-size="10.00">update_combat</text>
</a>
</g>
</g>
<!-- Node2&#45;&gt;Node21 -->
<g id="edge37_Node000002_Node000021" class="edge">
<title>Node2&#45;&gt;Node21</title>
<g id="a_edge37_Node000002_Node000021"><a xlink:title=" ">
<path fill="none" stroke="#63b8ff" d="M710.25,-309.89C670.98,-344.13 578.05,-418.4 484,-444.22 422.85,-461 348.47,-446.89 305.81,-435.66"/>
<polygon fill="#63b8ff" stroke="#63b8ff" points="712.33,-312.73 717.5,-303.48 707.7,-307.48 712.33,-312.73"/>
</a>
</g>
</g>
<!-- Node4 -->
<g id="Node000004" class="node">
<title>Node4</title>
<g id="a_Node000004"><a xlink:href="vaisseau_8c.html#ace614afc8df3a40bd5ea0771044ff217" target="_top" xlink:title=" ">
<polygon fill="white" stroke="#666666" points="477.62,-169.22 363.38,-169.22 363.38,-149.22 477.62,-149.22 477.62,-169.22"/>
<text xml:space="preserve" text-anchor="middle" x="420.5" y="-155.72" font-family="Helvetica,sans-Serif" font-size="10.00">gerer_interaction_objet</text>
</a>
</g>
</g>
<!-- Node3&#45;&gt;Node4 -->
<g id="edge3_Node000003_Node000004" class="edge">
<title>Node3&#45;&gt;Node4</title>
<g id="a_edge3_Node000003_Node000004"><a xlink:title=" ">
<path fill="none" stroke="#63b8ff" d="M534.79,-172.71C517.06,-170.6 496.63,-168.17 478.05,-165.95"/>
<polygon fill="#63b8ff" stroke="#63b8ff" points="534.15,-176.16 544.49,-173.87 534.98,-169.21 534.15,-176.16"/>
</a>
</g>
</g>
<!-- Node3&#45;&gt;Node7 -->
<g id="edge8_Node000003_Node000007" class="edge">
<title>Node3&#45;&gt;Node7</title>
<g id="a_edge8_Node000003_Node000007"><a xlink:title=" ">
<path fill="none" stroke="#63b8ff" d="M549.37,-163.11C530.77,-154.92 506.54,-145.43 484,-140.22 313.34,-100.71 99.12,-100.85 37.07,-101.83"/>
<polygon fill="#63b8ff" stroke="#63b8ff" points="547.69,-166.19 558.24,-167.12 550.57,-159.81 547.69,-166.19"/>
</a>
</g>
</g>
<!-- Node5 -->
<g id="Node000005" class="node">
<title>Node5</title>
<g id="a_Node000005"><a xlink:href="vaisseau_8c.html#a8ea9afc9440149ddd36e96b97d8ed6c5" target="_top" xlink:title="Lance la scene interieure du vaisseau (deplacement, interactions, mini&#45;jeux, sortie).">
<polygon fill="white" stroke="#666666" points="297.75,-169.22 242.75,-169.22 242.75,-149.22 297.75,-149.22 297.75,-169.22"/>
<text xml:space="preserve" text-anchor="middle" x="270.25" y="-155.72" font-family="Helvetica,sans-Serif" font-size="10.00">vaisseau</text>
</a>
</g>
</g>
<!-- Node4&#45;&gt;Node5 -->
<g id="edge4_Node000004_Node000005" class="edge">
<title>Node4&#45;&gt;Node5</title>
<g id="a_edge4_Node000004_Node000005"><a xlink:title=" ">
<path fill="none" stroke="#63b8ff" d="M351.66,-159.22C332.72,-159.22 313.22,-159.22 298.17,-159.22"/>
<polygon fill="#63b8ff" stroke="#63b8ff" points="351.52,-162.72 361.52,-159.22 351.52,-155.72 351.52,-162.72"/>
</a>
</g>
</g>
<!-- Node5&#45;&gt;Node6 -->
<g id="edge5_Node000005_Node000006" class="edge">
<title>Node5&#45;&gt;Node6</title>
<g id="a_edge5_Node000005_Node000006"><a xlink:title=" ">
<path fill="none" stroke="#63b8ff" d="M231.23,-169.54C211.55,-174.88 187.57,-181.39 167.81,-186.75"/>
<polygon fill="#63b8ff" stroke="#63b8ff" points="232.06,-172.94 240.8,-166.94 230.23,-166.18 232.06,-172.94"/>
</a>
</g>
</g>
<!-- Node5&#45;&gt;Node7 -->
<g id="edge7_Node000005_Node000007" class="edge">
<title>Node5&#45;&gt;Node7</title>
<g id="a_edge7_Node000005_Node000007"><a xlink:title=" ">
<path fill="none" stroke="#63b8ff" d="M230.95,-159.34C190.58,-158.37 125.66,-153.68 73,-135.22 58.17,-130.02 43.1,-120.23 32.74,-112.65"/>
<polygon fill="#63b8ff" stroke="#63b8ff" points="230.83,-162.83 240.89,-159.5 230.95,-155.84 230.83,-162.83"/>
</a>
</g>
</g>
<!-- Node6&#45;&gt;Node3 -->
<g id="edge6_Node000006_Node000003" class="edge">
<title>Node6&#45;&gt;Node3</title>
<g id="a_edge6_Node000006_Node000003"><a xlink:title=" ">
<path fill="none" stroke="#63b8ff" d="M195.27,-194.44C292.45,-190.35 470.63,-182.86 545.93,-179.69"/>
<polygon fill="#63b8ff" stroke="#63b8ff" points="195.19,-190.94 185.34,-194.86 195.48,-197.93 195.19,-190.94"/>
</a>
</g>
</g>
<!-- Node8&#45;&gt;Node7 -->
<g id="edge10_Node000008_Node000007" class="edge">
<title>Node8&#45;&gt;Node7</title>
<g id="a_edge10_Node000008_Node000007"><a xlink:title=" ">
<path fill="none" stroke="#63b8ff" d="M91.52,-60.19C85.28,-63.04 78.9,-66.11 73,-69.22 59.87,-76.13 45.59,-85.01 35.09,-91.82"/>
<polygon fill="#63b8ff" stroke="#63b8ff" points="92.69,-63.5 100.41,-56.24 89.85,-57.1 92.69,-63.5"/>
</a>
</g>
</g>
<!-- Node10 -->
<g id="Node000010" class="node">
<title>Node10</title>
<g id="a_Node000010"><a xlink:href="boss_8c.html#af427d4c0d85f6029c589ec2c599df015" target="_top" xlink:title=" ">
<polygon fill="white" stroke="#666666" points="484,-637.22 357,-637.22 357,-617.22 484,-617.22 484,-637.22"/>
<text xml:space="preserve" text-anchor="middle" x="420.5" y="-623.72" font-family="Helvetica,sans-Serif" font-size="10.00">appliquer_degats_contact</text>
</a>
</g>
</g>
<!-- Node9&#45;&gt;Node10 -->
<g id="edge12_Node000009_Node000010" class="edge">
<title>Node9&#45;&gt;Node10</title>
<g id="a_edge12_Node000009_Node000010"><a xlink:title=" ">
<path fill="none" stroke="#63b8ff" d="M532.41,-596.62C508.93,-603.1 481.17,-610.75 459.3,-616.79"/>
<polygon fill="#63b8ff" stroke="#63b8ff" points="533.03,-600.08 541.74,-594.05 531.17,-593.33 533.03,-600.08"/>
</a>
</g>
</g>
<!-- Node11 -->
<g id="Node000011" class="node">
<title>Node11</title>
<g id="a_Node000011"><a xlink:href="boss_8c.html#abbb99b844a32a59c50228b7d6dcb888b" target="_top" xlink:title="Met a jour boss en fonction de l&#39;etat courant du jeu.">
<polygon fill="white" stroke="#666666" points="321,-593.22 219.5,-593.22 219.5,-573.22 321,-573.22 321,-593.22"/>
<text xml:space="preserve" text-anchor="middle" x="270.25" y="-579.72" font-family="Helvetica,sans-Serif" font-size="10.00">mettre_a_jour_boss</text>
</a>
</g>
</g>
<!-- Node9&#45;&gt;Node11 -->
<g id="edge18_Node000009_Node000011" class="edge">
<title>Node9&#45;&gt;Node11</title>
<g id="a_edge18_Node000009_Node000011"><a xlink:title=" ">
<path fill="none" stroke="#63b8ff" d="M561.24,-601.03C542.78,-616.38 513.68,-637.42 484,-646.22 429.88,-662.25 410.64,-663.8 357,-646.22 325.05,-635.74 295.19,-608.32 280.59,-593.34"/>
<polygon fill="#63b8ff" stroke="#63b8ff" points="563.42,-603.77 568.73,-594.6 558.86,-598.46 563.42,-603.77"/>
</a>
</g>
</g>
<!-- Node13 -->
<g id="Node000013" class="node">
<title>Node13</title>
<g id="a_Node000013"><a xlink:href="boss_8c.html#ad702f42cf8f6318134fb3270d630ab00" target="_top" xlink:title=" ">
<polygon fill="white" stroke="#666666" points="481,-599.22 360,-599.22 360,-567.22 481,-567.22 481,-599.22"/>
<text xml:space="preserve" text-anchor="start" x="368" y="-585.72" font-family="Helvetica,sans-Serif" font-size="10.00">appliquer_degats_hache</text>
<text xml:space="preserve" text-anchor="middle" x="420.5" y="-573.72" font-family="Helvetica,sans-Serif" font-size="10.00">_minotaure</text>
</a>
</g>
</g>
<!-- Node9&#45;&gt;Node13 -->
<g id="edge16_Node000009_Node000013" class="edge">
<title>Node9&#45;&gt;Node13</title>
<g id="a_edge16_Node000009_Node000013"><a xlink:title=" ">
<path fill="none" stroke="#63b8ff" d="M509.73,-583.22C500.28,-583.22 490.66,-583.22 481.42,-583.22"/>
<polygon fill="#63b8ff" stroke="#63b8ff" points="509.64,-586.72 519.64,-583.22 509.64,-579.72 509.64,-586.72"/>
</a>
</g>
</g>
<!-- Node14 -->
<g id="Node000014" class="node">
<title>Node14</title>
<g id="a_Node000014"><a xlink:href="boss_8c.html#a0bba4ecad554b4cae0f277f1c11459d5" target="_top" xlink:title=" ">
<polygon fill="white" stroke="#666666" points="467.88,-549.22 373.12,-549.22 373.12,-529.22 467.88,-529.22 467.88,-549.22"/>
<text xml:space="preserve" text-anchor="middle" x="420.5" y="-535.72" font-family="Helvetica,sans-Serif" font-size="10.00">update_projectiles</text>
</a>
</g>
</g>
<!-- Node9&#45;&gt;Node14 -->
<g id="edge19_Node000009_Node000014" class="edge">
<title>Node9&#45;&gt;Node14</title>
<g id="a_edge19_Node000009_Node000014"><a xlink:title=" ">
<path fill="none" stroke="#63b8ff" d="M532.41,-569.81C508.93,-563.33 481.17,-555.68 459.3,-549.64"/>
<polygon fill="#63b8ff" stroke="#63b8ff" points="531.17,-573.1 541.74,-572.39 533.03,-566.35 531.17,-573.1"/>
</a>
</g>
</g>
<!-- Node10&#45;&gt;Node11 -->
<g id="edge13_Node000010_Node000011" class="edge">
<title>Node10&#45;&gt;Node11</title>
<g id="a_edge13_Node000010_Node000011"><a xlink:title=" ">
<path fill="none" stroke="#63b8ff" d="M373.44,-613.55C351.81,-607.13 326.44,-599.6 306.39,-593.64"/>
<polygon fill="#63b8ff" stroke="#63b8ff" points="372.33,-616.87 382.92,-616.36 374.33,-610.16 372.33,-616.87"/>
</a>
</g>
</g>
<!-- Node11&#45;&gt;Node12 -->
<g id="edge14_Node000011_Node000012" class="edge">
<title>Node11&#45;&gt;Node12</title>
<g id="a_edge14_Node000011_Node000012"><a xlink:title=" ">
<path fill="none" stroke="#63b8ff" d="M254.08,-564.04C224.53,-526.68 160.15,-445.28 137.4,-416.53"/>
<polygon fill="#63b8ff" stroke="#63b8ff" points="251.23,-566.08 260.18,-571.75 256.72,-561.73 251.23,-566.08"/>
</a>
</g>
</g>
<!-- Node12&#45;&gt;Node7 -->
<g id="edge15_Node000012_Node000007" class="edge">
<title>Node12&#45;&gt;Node7</title>
<g id="a_edge15_Node000012_Node000007"><a xlink:title=" ">
<path fill="none" stroke="#63b8ff" d="M119.73,-385C98.51,-325.12 38.67,-156.31 23.19,-112.64"/>
<polygon fill="#63b8ff" stroke="#63b8ff" points="116.4,-386.07 123.04,-394.33 122.99,-383.73 116.4,-386.07"/>
</a>
</g>
</g>
<!-- Node13&#45;&gt;Node11 -->
<g id="edge17_Node000013_Node000011" class="edge">
<title>Node13&#45;&gt;Node11</title>
<g id="a_edge17_Node000013_Node000011"><a xlink:title=" ">
<path fill="none" stroke="#63b8ff" d="M348.21,-583.22C339.14,-583.22 330.01,-583.22 321.36,-583.22"/>
<polygon fill="#63b8ff" stroke="#63b8ff" points="348.11,-586.72 358.11,-583.22 348.11,-579.72 348.11,-586.72"/>
</a>
</g>
</g>
<!-- Node14&#45;&gt;Node11 -->
<g id="edge20_Node000014_Node000011" class="edge">
<title>Node14&#45;&gt;Node11</title>
<g id="a_edge20_Node000014_Node000011"><a xlink:title=" ">
<path fill="none" stroke="#63b8ff" d="M373.44,-552.89C351.81,-559.31 326.44,-566.84 306.39,-572.79"/>
<polygon fill="#63b8ff" stroke="#63b8ff" points="374.33,-556.27 382.92,-550.07 372.33,-549.56 374.33,-556.27"/>
</a>
</g>
</g>
<!-- Node15&#45;&gt;Node12 -->
<g id="edge23_Node000015_Node000012" class="edge">
<title>Node15&#45;&gt;Node12</title>
<g id="a_edge23_Node000015_Node000012"><a xlink:title=" ">
<path fill="none" stroke="#63b8ff" d="M508.74,-496.67C434.6,-490.43 316.69,-476.1 219.5,-444.22 195.59,-436.37 169.16,-424.9 151.12,-416.61"/>
<polygon fill="#63b8ff" stroke="#63b8ff" points="508.04,-500.12 518.29,-497.44 508.61,-493.14 508.04,-500.12"/>
</a>
</g>
</g>
<!-- Node16&#45;&gt;Node12 -->
<g id="edge29_Node000016_Node000012" class="edge">
<title>Node16&#45;&gt;Node12</title>
<g id="a_edge29_Node000016_Node000012"><a xlink:title=" ">
<path fill="none" stroke="#63b8ff" d="M534.12,-342.79C518.28,-346.78 500.44,-350.99 484,-354.22 367.34,-377.14 227.29,-394.8 163.68,-402.3"/>
<polygon fill="#63b8ff" stroke="#63b8ff" points="534.97,-346.19 543.79,-340.32 533.23,-339.4 534.97,-346.19"/>
</a>
</g>
</g>
<!-- Node17 -->
<g id="Node000017" class="node">
<title>Node17</title>
<g id="a_Node000017"><a xlink:href="mob_8c.html#af2bb33cec05837a53c00e0f901d38c68" target="_top" xlink:title="Initialise mobs et prepare les ressources necessaires.">
<polygon fill="white" stroke="#666666" points="299.25,-302.22 241.25,-302.22 241.25,-282.22 299.25,-282.22 299.25,-302.22"/>
<text xml:space="preserve" text-anchor="middle" x="270.25" y="-288.72" font-family="Helvetica,sans-Serif" font-size="10.00">init_mobs</text>
</a>
</g>
</g>
<!-- Node16&#45;&gt;Node17 -->
<g id="edge27_Node000016_Node000017" class="edge">
<title>Node16&#45;&gt;Node17</title>
<g id="a_edge27_Node000016_Node000017"><a xlink:title=" ">
<path fill="none" stroke="#63b8ff" d="M550.6,-314.91C531.91,-306.37 507.18,-296.59 484,-292.22 418.85,-279.91 340.47,-284.86 299.44,-288.92"/>
<polygon fill="#63b8ff" stroke="#63b8ff" points="548.95,-318 559.48,-319.1 551.93,-311.67 548.95,-318"/>
</a>
</g>
</g>
<!-- Node18 -->
<g id="Node000018" class="node">
<title>Node18</title>
<g id="a_Node000018"><a xlink:href="mob_8c.html#ad937d045795912d2cc7b363b7d2d19b8" target="_top" xlink:title=" ">
<polygon fill="white" stroke="#666666" points="484,-321.22 357,-321.22 357,-301.22 484,-301.22 484,-321.22"/>
<text xml:space="preserve" text-anchor="middle" x="420.5" y="-307.72" font-family="Helvetica,sans-Serif" font-size="10.00">spawn_one_mob_of_type</text>
</a>
</g>
</g>
<!-- Node16&#45;&gt;Node18 -->
<g id="edge30_Node000016_Node000018" class="edge">
<title>Node16&#45;&gt;Node18</title>
<g id="a_edge30_Node000016_Node000018"><a xlink:title=" ">
<path fill="none" stroke="#63b8ff" d="M533.81,-324.59C518.34,-322.75 500.89,-320.67 484.44,-318.71"/>
<polygon fill="#63b8ff" stroke="#63b8ff" points="533.36,-328.07 543.7,-325.77 534.19,-321.11 533.36,-328.07"/>
</a>
</g>
</g>
<!-- Node19 -->
<g id="Node000019" class="node">
<title>Node19</title>
<g id="a_Node000019"><a xlink:href="mob_8c.html#a1f766d8b9a9348d960e6f211fce5d558" target="_top" xlink:title="Met a jour mobs en fonction de l&#39;etat courant du jeu.">
<polygon fill="white" stroke="#666666" points="307.5,-359.22 233,-359.22 233,-339.22 307.5,-339.22 307.5,-359.22"/>
<text xml:space="preserve" text-anchor="middle" x="270.25" y="-345.72" font-family="Helvetica,sans-Serif" font-size="10.00">update_mobs</text>
</a>
</g>
</g>
<!-- Node16&#45;&gt;Node19 -->
<g id="edge36_Node000016_Node000019" class="edge">
<title>Node16&#45;&gt;Node19</title>
<g id="a_edge36_Node000016_Node000019"><a xlink:title=" ">
<path fill="none" stroke="#63b8ff" d="M533.75,-333.11C471.66,-336.92 363.91,-343.53 307.72,-346.98"/>
<polygon fill="#63b8ff" stroke="#63b8ff" points="533.89,-336.61 543.65,-332.51 533.46,-329.63 533.89,-336.61"/>
</a>
</g>
</g>
<!-- Node20 -->
<g id="Node000020" class="node">
<title>Node20</title>
<g id="a_Node000020"><a xlink:href="perso_8c.html#a8ed2806e634464929c59457d470b930b" target="_top" xlink:title="Evalue les collisions de combat (joueur/mobs/items) pour la frame courante.">
<polygon fill="white" stroke="#666666" points="479.88,-435.22 361.12,-435.22 361.12,-415.22 479.88,-415.22 479.88,-435.22"/>
<text xml:space="preserve" text-anchor="middle" x="420.5" y="-421.72" font-family="Helvetica,sans-Serif" font-size="10.00">tester_collision_combat</text>
</a>
</g>
</g>
<!-- Node16&#45;&gt;Node20 -->
<g id="edge33_Node000016_Node000020" class="edge">
<title>Node16&#45;&gt;Node20</title>
<g id="a_edge33_Node000016_Node000020"><a xlink:title=" ">
<path fill="none" stroke="#63b8ff" d="M560.51,-347.73C541.58,-363.27 512.21,-385.83 484,-401.22 474.41,-406.45 463.43,-411.07 453.38,-414.83"/>
<polygon fill="#63b8ff" stroke="#63b8ff" points="562.55,-350.58 567.99,-341.49 558.06,-345.2 562.55,-350.58"/>
</a>
</g>
</g>
<!-- Node17&#45;&gt;Node12 -->
<g id="edge28_Node000017_Node000012" class="edge">
<title>Node17&#45;&gt;Node12</title>
<g id="a_edge28_Node000017_Node000012"><a xlink:title=" ">
<path fill="none" stroke="#63b8ff" d="M246.22,-309.45C237.75,-315.88 228.12,-323.3 219.5,-330.22 190.9,-353.16 158.17,-381.18 141.07,-395.95"/>
<polygon fill="#63b8ff" stroke="#63b8ff" points="248.09,-312.42 253.97,-303.6 243.88,-306.83 248.09,-312.42"/>
</a>
</g>
</g>
<!-- Node18&#45;&gt;Node19 -->
<g id="edge31_Node000018_Node000019" class="edge">
<title>Node18&#45;&gt;Node19</title>
<g id="a_edge31_Node000018_Node000019"><a xlink:title=" ">
<path fill="none" stroke="#63b8ff" d="M367.63,-324.51C347.95,-329.55 325.97,-335.19 307.97,-339.8"/>
<polygon fill="#63b8ff" stroke="#63b8ff" points="368.31,-327.95 377.13,-322.08 366.58,-321.17 368.31,-327.95"/>
</a>
</g>
</g>
<!-- Node19&#45;&gt;Node12 -->
<g id="edge32_Node000019_Node000012" class="edge">
<title>Node19&#45;&gt;Node12</title>
<g id="a_edge32_Node000019_Node000012"><a xlink:title=" ">
<path fill="none" stroke="#63b8ff" d="M233.21,-363.89C208.64,-373.89 176.72,-386.89 154.77,-395.83"/>
<polygon fill="#63b8ff" stroke="#63b8ff" points="234.23,-367.25 242.17,-360.24 231.59,-360.77 234.23,-367.25"/>
</a>
</g>
</g>
<!-- Node20&#45;&gt;Node21 -->
<g id="edge34_Node000020_Node000021" class="edge">
<title>Node20&#45;&gt;Node21</title>
<g id="a_edge34_Node000020_Node000021"><a xlink:title=" ">
<path fill="none" stroke="#63b8ff" d="M349.67,-425.22C336.79,-425.22 323.74,-425.22 312.07,-425.22"/>
<polygon fill="#63b8ff" stroke="#63b8ff" points="349.39,-428.72 359.39,-425.22 349.39,-421.72 349.39,-428.72"/>
</a>
</g>
</g>
<!-- Node21&#45;&gt;Node12 -->
<g id="edge35_Node000021_Node000012" class="edge">
<title>Node21&#45;&gt;Node12</title>
<g id="a_edge35_Node000021_Node000012"><a xlink:title=" ">
<path fill="none" stroke="#63b8ff" d="M217.15,-418.15C199.17,-415.7 179.49,-413.03 163.32,-410.84"/>
<polygon fill="#63b8ff" stroke="#63b8ff" points="216.5,-421.59 226.88,-419.47 217.44,-414.65 216.5,-421.59"/>
</a>
</g>
</g>
<!-- Node22&#45;&gt;Node7 -->
<g id="edge39_Node000022_Node000007" class="edge">
<title>Node22&#45;&gt;Node7</title>
<g id="a_edge39_Node000022_Node000007"><a xlink:title=" ">
<path fill="none" stroke="#63b8ff" d="M722.08,-138.07C710.26,-108.8 684.6,-56.8 644,-32.22 558.87,19.32 521.01,-7.22 421.5,-7.22 421.5,-7.22 421.5,-7.22 269.25,-7.22 181.62,-7.22 148.74,17.85 73,-26.22 46.92,-41.39 30.39,-74.95 23.38,-91.94"/>
<polygon fill="#63b8ff" stroke="#63b8ff" points="718.79,-139.25 725.64,-147.32 725.32,-136.73 718.79,-139.25"/>
</a>
</g>
</g>
</g>
</svg>
