<?xml version="1.0" encoding="UTF-8" standalone="no"?>
<!DOCTYPE svg PUBLIC "-//W3C//DTD SVG 1.1//EN"
 "http://www.w3.org/Graphics/SVG/1.1/DTD/svg11.dtd">
<!-- Generated by graphviz version 14.1.4 (20260321.0153)
 -->
<!-- Title: jouer_son Pages: 1 -->
<!--zoomable 414 -->

<svg id="main" version="1.1" xmlns="http://www.w3.org/2000/svg" xmlns:xlink="http://www.w3.org/1999/xlink" xml:space="preserve" onload="init(evt)">

<style type="text/css"><![CDATA[
.node, .edge {opacity: 0.7;}
.node.selected, .edge.selected {opacity: 1;}
.edge:hover path { stroke: red; }
.edge:hover polygon { stroke: red; fill: red; }
]]></style>

<defs>
  <circle id="rim" cx="0" cy="0" r="7"/>
  <circle id="rim2" cx="0" cy="0" r="3.5"/>
  <g id="zoomPlus">
    <use xlink:href="#rim" fill="#404040"><set attributeName="fill" to="#808080" begin="zoomplus.mouseover" end="zoomplus.mouseout"/></use>
    <path d="M-4,0h8M0,-4v8" fill="none" stroke="white" stroke-width="1.5" pointer-events="none"/>
  </g>
  <g id="zoomMin">
    <use xlink:href="#rim" fill="#404040"><set attributeName="fill" to="#808080" begin="zoomminus.mouseover" end="zoomminus.mouseout"/></use>
    <path d="M-4,0h8" fill="none" stroke="white" stroke-width="1.5" pointer-events="none"/>
  </g>
  <g id="arrowUp" transform="translate(30 24)">
    <use xlink:href="#rim"/>
    <path pointer-events="none" fill="none" stroke="white" stroke-width="1.5" d="M0,-3.0v7 M-2.5,-0.5L0,-3.0L2.5,-0.5"/>
  </g>
  <g id="arrowRight" transform="rotate(90) translate(36 -43)">
    <use xlink:href="#rim"/>
    <path pointer-events="none" fill="none" stroke="white" stroke-width="1.5" d="M0,-3.0v7 M-2.5,-0.5L0,-3.0L2.5,-0.5"/>
  </g>
  <g id="arrowDown" transform="rotate(180) translate(-30 -48)">
    <use xlink:href="#rim"/>
    <path pointer-events="none" fill="none" stroke="white" stroke-width="1.5" d="M0,-3.0v7 M-2.5,-0.5L0,-3.0L2.5,-0.5"/>
  </g>
  <g id="arrowLeft" transform="rotate(270) translate(-36 17)">
    <use xlink:href="#rim"/>
    <path pointer-events="none" fill="none" stroke="white" stroke-width="1.5" d="M0,-3.0v7 M-2.5,-0.5L0,-3.0L2.5,-0.5"/>
  </g>
  <g id="resetDef">
    <use xlink:href="#rim2" fill="#404040"><set attributeName="fill" to="#808080" begin="reset.mouseover" end="reset.mouseout"/></use>
  </g>
</defs>
<script type="application/ecmascript">
var viewWidth = 713;
var viewHeight = 414;
var sectionId = 'dynsection-2';
</script>
<script type="application/ecmascript" xlink:href="svg.min.js"/>
<svg id="graph" class="graph">
<g id="viewport">
<title>jouer_son</title>
<!-- Node1 -->
<g id="Node000001" class="node">
<title>Node1</title>
<g id="a_Node000001"><a xlink:title="Charge (ou recupere du cache) puis joue une piste audio.">
<polygon fill="#999999" stroke="#666666" points="705,-265.76 647,-265.76 647,-245.76 705,-245.76 705,-265.76"/>
<text xml:space="preserve" text-anchor="middle" x="676" y="-252.26" font-family="Helvetica,sans-Serif" font-size="10.00">jouer_son</text>
</a>
</g>
</g>
<!-- Node2 -->
<g id="Node000002" class="node">
<title>Node2</title>
<g id="a_Node000002"><a xlink:href="map_8c.html#ad462ccdd50801fb085dc8134fc3765d1" target="_top" xlink:title="Affiche la carte et met a jour les elements visuels associes.">
<polygon fill="white" stroke="#666666" points="440.88,-379.76 369.38,-379.76 369.38,-359.76 440.88,-359.76 440.88,-379.76"/>
<text xml:space="preserve" text-anchor="middle" x="405.12" y="-366.26" font-family="Helvetica,sans-Serif" font-size="10.00">afficher_map</text>
</a>
</g>
</g>
<!-- Node1&#45;&gt;Node2 -->
<g id="edge1_Node000001_Node000002" class="edge">
<title>Node1&#45;&gt;Node2</title>
<g id="a_edge1_Node000001_Node000002"><a xlink:title=" ">
<path fill="none" stroke="#63b8ff" d="M671.77,-277.38C665.86,-308.32 650.09,-364.19 611,-388.76 553.69,-424.78 468.96,-397.06 428.81,-380.23"/>
<polygon fill="#63b8ff" stroke="#63b8ff" points="675.2,-278.1 673.43,-267.66 668.3,-276.92 675.2,-278.1"/>
</a>
</g>
</g>
<!-- Node3 -->
<g id="Node000003" class="node">
<title>Node3</title>
<g id="a_Node000003"><a xlink:href="main_8c.html#a0ddf1224851353fc92bfbff6f499fa97" target="_top" xlink:title=" ">
<polygon fill="white" stroke="#666666" points="37,-322.76 0,-322.76 0,-302.76 37,-302.76 37,-322.76"/>
<text xml:space="preserve" text-anchor="middle" x="18.5" y="-309.26" font-family="Helvetica,sans-Serif" font-size="10.00">main</text>
</a>
</g>
</g>
<!-- Node1&#45;&gt;Node3 -->
<g id="edge11_Node000001_Node000003" class="edge">
<title>Node1&#45;&gt;Node3</title>
<g id="a_edge11_Node000001_Node000003"><a xlink:title=" ">
<path fill="none" stroke="#63b8ff" d="M643.28,-270.89C593.8,-293.06 494.74,-331.76 406.12,-331.76 406.12,-331.76 406.12,-331.76 246.75,-331.76 168.56,-331.76 75.76,-320.45 37.43,-315.28"/>
<polygon fill="#63b8ff" stroke="#63b8ff" points="644.6,-274.13 652.25,-266.8 641.7,-267.76 644.6,-274.13"/>
</a>
</g>
</g>
<!-- Node4 -->
<g id="Node000004" class="node">
<title>Node4</title>
<g id="a_Node000004"><a xlink:href="menu_8c.html#a55097e0b77b0fabc6cae44137b9a839a" target="_top" xlink:title="Affiche menu et met a jour les elements visuels associes.">
<polygon fill="white" stroke="#666666" points="149.75,-303.76 73,-303.76 73,-283.76 149.75,-283.76 149.75,-303.76"/>
<text xml:space="preserve" text-anchor="middle" x="111.38" y="-290.26" font-family="Helvetica,sans-Serif" font-size="10.00">afficher_menu</text>
</a>
</g>
</g>
<!-- Node1&#45;&gt;Node4 -->
<g id="edge3_Node000001_Node000004" class="edge">
<title>Node1&#45;&gt;Node4</title>
<g id="a_edge3_Node000001_Node000004"><a xlink:title=" ">
<path fill="none" stroke="#63b8ff" d="M635.51,-258.43C531.62,-265.44 251.73,-284.35 150,-291.22"/>
<polygon fill="#63b8ff" stroke="#63b8ff" points="635.46,-261.94 645.2,-257.77 634.99,-254.95 635.46,-261.94"/>
</a>
</g>
</g>
<!-- Node5 -->
<g id="Node000005" class="node">
<title>Node5</title>
<g id="a_Node000005"><a xlink:href="jeux_8c.html#a2d7491d04e8c2bdb52bb6ed7d75e4d78" target="_top" xlink:title="Execute la boucle principale de gameplay pour la planete courante.">
<polygon fill="white" stroke="#666666" points="146.38,-189.76 76.38,-189.76 76.38,-169.76 146.38,-169.76 146.38,-189.76"/>
<text xml:space="preserve" text-anchor="middle" x="111.38" y="-176.26" font-family="Helvetica,sans-Serif" font-size="10.00">jeu_principal</text>
</a>
</g>
</g>
<!-- Node1&#45;&gt;Node5 -->
<g id="edge5_Node000001_Node000005" class="edge">
<title>Node1&#45;&gt;Node5</title>
<g id="a_edge5_Node000001_Node000005"><a xlink:title=" ">
<path fill="none" stroke="#63b8ff" d="M670.71,-234.6C663.66,-205.74 646.68,-154.78 611,-129.76 456.23,-21.23 362.35,-55.37 185.75,-122.76 159.23,-132.88 134.49,-156.03 121.62,-169.5"/>
<polygon fill="#63b8ff" stroke="#63b8ff" points="667.21,-235 672.82,-243.99 674.04,-233.47 667.21,-235"/>
</a>
</g>
</g>
<!-- Node6 -->
<g id="Node000006" class="node">
<title>Node6</title>
<g id="a_Node000006"><a xlink:href="cinematique_8c.html#a68c4780c65b14d27f0088cfc6514eb60" target="_top" xlink:title="Lance cinematique crash et gere son deroulement complet.">
<polygon fill="white" stroke="#666666" points="309.75,-37.76 185.75,-37.76 185.75,-17.76 309.75,-17.76 309.75,-37.76"/>
<text xml:space="preserve" text-anchor="middle" x="247.75" y="-24.26" font-family="Helvetica,sans-Serif" font-size="10.00">jouer_cinematique_crash</text>
</a>
</g>
</g>
<!-- Node1&#45;&gt;Node6 -->
<g id="edge7_Node000001_Node000006" class="edge">
<title>Node1&#45;&gt;Node6</title>
<g id="a_edge7_Node000001_Node000006"><a xlink:title=" ">
<path fill="none" stroke="#63b8ff" d="M675.52,-234.05C675.23,-191.3 667.85,-96.47 611,-51.76 516.25,22.76 360.89,-0.67 288.37,-17.29"/>
<polygon fill="#63b8ff" stroke="#63b8ff" points="672.02,-233.99 675.44,-244.02 679.02,-234.05 672.02,-233.99"/>
</a>
</g>
</g>
<!-- Node7 -->
<g id="Node000007" class="node">
<title>Node7</title>
<g id="a_Node000007"><a xlink:href="cinematique_8c.html#a418cc3e727578f4cd509ad27cd6a2a31" target="_top" xlink:title="Lance cinematique fin et gere son deroulement complet.">
<polygon fill="white" stroke="#666666" points="611,-379.76 500.5,-379.76 500.5,-359.76 611,-359.76 611,-379.76"/>
<text xml:space="preserve" text-anchor="middle" x="555.75" y="-366.26" font-family="Helvetica,sans-Serif" font-size="10.00">jouer_cinematique_fin</text>
</a>
</g>
</g>
<!-- Node1&#45;&gt;Node7 -->
<g id="edge9_Node000001_Node000007" class="edge">
<title>Node1&#45;&gt;Node7</title>
<g id="a_edge9_Node000001_Node000007"><a xlink:title=" ">
<path fill="none" stroke="#63b8ff" d="M664.84,-275.94C653.9,-295.94 634.81,-326.32 611,-345.76 604.22,-351.29 595.96,-355.8 587.95,-359.35"/>
<polygon fill="#63b8ff" stroke="#63b8ff" points="667.79,-277.85 669.35,-267.37 661.6,-274.58 667.79,-277.85"/>
</a>
</g>
</g>
<!-- Node8 -->
<g id="Node000008" class="node">
<title>Node8</title>
<g id="a_Node000008"><a xlink:href="perso_8c.html#a2a53403cf290bb65fb010b095c4843cf" target="_top" xlink:title="Verifie collision et retourne le resultat du test.">
<polygon fill="white" stroke="#666666" points="592.25,-227.76 519.25,-227.76 519.25,-207.76 592.25,-207.76 592.25,-227.76"/>
<text xml:space="preserve" text-anchor="middle" x="555.75" y="-214.26" font-family="Helvetica,sans-Serif" font-size="10.00">test_collision</text>
</a>
</g>
</g>
<!-- Node1&#45;&gt;Node8 -->
<g id="edge12_Node000001_Node000008" class="edge">
<title>Node1&#45;&gt;Node8</title>
<g id="a_edge12_Node000001_Node000008"><a xlink:title=" ">
<path fill="none" stroke="#63b8ff" d="M636.01,-243.23C620.78,-238.34 603.53,-232.79 589.02,-228.13"/>
<polygon fill="#63b8ff" stroke="#63b8ff" points="634.64,-246.47 645.24,-246.19 636.79,-239.8 634.64,-246.47"/>
</a>
</g>
</g>
<!-- Node11 -->
<g id="Node000011" class="node">
<title>Node11</title>
<g id="a_Node000011"><a xlink:href="perso_8c.html#a13de525da0f522f0738bde93c1d62255" target="_top" xlink:title="Met a jour combat en fonction de l&#39;etat courant du jeu.">
<polygon fill="white" stroke="#666666" points="289.12,-151.76 206.38,-151.76 206.38,-131.76 289.12,-131.76 289.12,-151.76"/>
<text xml:space="preserve" text-anchor="middle" x="247.75" y="-138.26" font-family="Helvetica,sans-Serif" font-size="10.00">update_combat</text>
</a>
</g>
</g>
<!-- Node1&#45;&gt;Node11 -->
<g id="edge21_Node000001_Node000011" class="edge">
<title>Node1&#45;&gt;Node11</title>
<g id="a_edge21_Node000001_Node000011"><a xlink:title=" ">
<path fill="none" stroke="#63b8ff" d="M657.2,-237.7C644.89,-225.79 627.76,-210.3 611,-198.76 550.59,-157.16 535.76,-140.14 464.5,-122.76 403.13,-107.79 329.39,-120.65 285.95,-131.26"/>
<polygon fill="#63b8ff" stroke="#63b8ff" points="654.59,-240.04 664.16,-244.58 659.5,-235.06 654.59,-240.04"/>
</a>
</g>
</g>
<!-- Node2&#45;&gt;Node3 -->
<g id="edge2_Node000002_Node000003" class="edge">
<title>Node2&#45;&gt;Node3</title>
<g id="a_edge2_Node000002_Node000003"><a xlink:title=" ">
<path fill="none" stroke="#63b8ff" d="M358.15,-373.2C292.98,-376.58 170.79,-377.36 73,-345.76 57.84,-340.86 42.57,-330.82 32.25,-323.09"/>
<polygon fill="#63b8ff" stroke="#63b8ff" points="357.96,-376.72 367.74,-372.66 357.56,-369.73 357.96,-376.72"/>
</a>
</g>
</g>
<!-- Node4&#45;&gt;Node3 -->
<g id="edge4_Node000004_Node000003" class="edge">
<title>Node4&#45;&gt;Node3</title>
<g id="a_edge4_Node000004_Node000003"><a xlink:title=" ">
<path fill="none" stroke="#63b8ff" d="M61.57,-303.96C52.84,-305.79 44.28,-307.58 37.18,-309.06"/>
<polygon fill="#63b8ff" stroke="#63b8ff" points="62.07,-307.43 71.14,-301.96 60.64,-300.58 62.07,-307.43"/>
</a>
</g>
</g>
<!-- Node5&#45;&gt;Node3 -->
<g id="edge6_Node000005_Node000003" class="edge">
<title>Node5&#45;&gt;Node3</title>
<g id="a_edge6_Node000005_Node000003"><a xlink:title=" ">
<path fill="none" stroke="#63b8ff" d="M96.81,-199.61C77.22,-228.28 41.7,-280.27 26.6,-302.37"/>
<polygon fill="#63b8ff" stroke="#63b8ff" points="99.64,-201.68 102.39,-191.45 93.86,-197.73 99.64,-201.68"/>
</a>
</g>
</g>
<!-- Node6&#45;&gt;Node5 -->
<g id="edge8_Node000006_Node000005" class="edge">
<title>Node6&#45;&gt;Node5</title>
<g id="a_edge8_Node000006_Node000005"><a xlink:title=" ">
<path fill="none" stroke="#63b8ff" d="M198.49,-43.05C193.93,-45.56 189.58,-48.45 185.75,-51.76 146.6,-85.59 123.55,-145.73 115.57,-169.59"/>
<polygon fill="#63b8ff" stroke="#63b8ff" points="199.85,-46.29 207.35,-38.8 196.82,-39.97 199.85,-46.29"/>
</a>
</g>
</g>
<!-- Node7&#45;&gt;Node2 -->
<g id="edge10_Node000007_Node000002" class="edge">
<title>Node7&#45;&gt;Node2</title>
<g id="a_edge10_Node000007_Node000002"><a xlink:title=" ">
<path fill="none" stroke="#63b8ff" d="M488.99,-369.76C472.53,-369.76 455.51,-369.76 441.2,-369.76"/>
<polygon fill="#63b8ff" stroke="#63b8ff" points="488.74,-373.26 498.74,-369.76 488.74,-366.26 488.74,-373.26"/>
</a>
</g>
</g>
<!-- Node8&#45;&gt;Node5 -->
<g id="edge15_Node000008_Node000005" class="edge">
<title>Node8&#45;&gt;Node5</title>
<g id="a_edge15_Node000008_Node000005"><a xlink:title=" ">
<path fill="none" stroke="#63b8ff" d="M508.06,-231.02C436.49,-248.97 296.34,-274.67 185.75,-236.76 158.59,-227.45 133.72,-203.53 121.09,-189.82"/>
<polygon fill="#63b8ff" stroke="#63b8ff" points="508.66,-234.48 517.47,-228.59 506.92,-227.7 508.66,-234.48"/>
</a>
</g>
</g>
<!-- Node9 -->
<g id="Node000009" class="node">
<title>Node9</title>
<g id="a_Node000009"><a xlink:href="mob_8c.html#af2bb33cec05837a53c00e0f901d38c68" target="_top" xlink:title="Initialise mobs et prepare les ressources necessaires.">
<polygon fill="white" stroke="#666666" points="276.75,-227.76 218.75,-227.76 218.75,-207.76 276.75,-207.76 276.75,-227.76"/>
<text xml:space="preserve" text-anchor="middle" x="247.75" y="-214.26" font-family="Helvetica,sans-Serif" font-size="10.00">init_mobs</text>
</a>
</g>
</g>
<!-- Node8&#45;&gt;Node9 -->
<g id="edge13_Node000008_Node000009" class="edge">
<title>Node8&#45;&gt;Node9</title>
<g id="a_edge13_Node000008_Node000009"><a xlink:title=" ">
<path fill="none" stroke="#63b8ff" d="M507.62,-217.76C443.19,-217.76 329.64,-217.76 277,-217.76"/>
<polygon fill="#63b8ff" stroke="#63b8ff" points="507.54,-221.26 517.54,-217.76 507.54,-214.26 507.54,-221.26"/>
</a>
</g>
</g>
<!-- Node10 -->
<g id="Node000010" class="node">
<title>Node10</title>
<g id="a_Node000010"><a xlink:href="perso_8c.html#a8ed2806e634464929c59457d470b930b" target="_top" xlink:title="Evalue les collisions de combat (joueur/mobs/items) pour la frame courante.">
<polygon fill="white" stroke="#666666" points="464.5,-151.76 345.75,-151.76 345.75,-131.76 464.5,-131.76 464.5,-151.76"/>
<text xml:space="preserve" text-anchor="middle" x="405.12" y="-138.26" font-family="Helvetica,sans-Serif" font-size="10.00">tester_collision_combat</text>
</a>
</g>
</g>
<!-- Node8&#45;&gt;Node10 -->
<g id="edge16_Node000008_Node000010" class="edge">
<title>Node8&#45;&gt;Node10</title>
<g id="a_edge16_Node000008_Node000010"><a xlink:title=" ">
<path fill="none" stroke="#63b8ff" d="M531.7,-200.94C513.99,-188.59 488.56,-172.06 464.5,-160.76 457.75,-157.59 450.32,-154.73 443.1,-152.25"/>
<polygon fill="#63b8ff" stroke="#63b8ff" points="529.28,-203.51 539.46,-206.44 533.33,-197.8 529.28,-203.51"/>
</a>
</g>
</g>
<!-- Node12 -->
<g id="Node000012" class="node">
<title>Node12</title>
<g id="a_Node000012"><a xlink:href="mob_8c.html#a1f766d8b9a9348d960e6f211fce5d558" target="_top" xlink:title="Met a jour mobs en fonction de l&#39;etat courant du jeu.">
<polygon fill="white" stroke="#666666" points="442.38,-189.76 367.88,-189.76 367.88,-169.76 442.38,-169.76 442.38,-189.76"/>
<text xml:space="preserve" text-anchor="middle" x="405.12" y="-176.26" font-family="Helvetica,sans-Serif" font-size="10.00">update_mobs</text>
</a>
</g>
</g>
<!-- Node8&#45;&gt;Node12 -->
<g id="edge19_Node000008_Node000012" class="edge">
<title>Node8&#45;&gt;Node12</title>
<g id="a_edge19_Node000008_Node000012"><a xlink:title=" ">
<path fill="none" stroke="#63b8ff" d="M507.83,-205.76C486.83,-200.39 462.44,-194.16 442.8,-189.14"/>
<polygon fill="#63b8ff" stroke="#63b8ff" points="506.75,-209.1 517.31,-208.19 508.48,-202.32 506.75,-209.1"/>
</a>
</g>
</g>
<!-- Node9&#45;&gt;Node5 -->
<g id="edge14_Node000009_Node000005" class="edge">
<title>Node9&#45;&gt;Node5</title>
<g id="a_edge14_Node000009_Node000005"><a xlink:title=" ">
<path fill="none" stroke="#63b8ff" d="M207.39,-206.63C188.09,-201.17 165.09,-194.67 146.54,-189.42"/>
<polygon fill="#63b8ff" stroke="#63b8ff" points="206.22,-209.94 216.8,-209.29 208.13,-203.2 206.22,-209.94"/>
</a>
</g>
</g>
<!-- Node10&#45;&gt;Node11 -->
<g id="edge17_Node000010_Node000011" class="edge">
<title>Node10&#45;&gt;Node11</title>
<g id="a_edge17_Node000010_Node000011"><a xlink:title=" ">
<path fill="none" stroke="#63b8ff" d="M334.26,-141.76C318.84,-141.76 303,-141.76 289.21,-141.76"/>
<polygon fill="#63b8ff" stroke="#63b8ff" points="333.87,-145.26 343.87,-141.76 333.87,-138.26 333.87,-145.26"/>
</a>
</g>
</g>
<!-- Node11&#45;&gt;Node5 -->
<g id="edge18_Node000011_Node000005" class="edge">
<title>Node11&#45;&gt;Node5</title>
<g id="a_edge18_Node000011_Node000005"><a xlink:title=" ">
<path fill="none" stroke="#63b8ff" d="M198.67,-155.36C181.44,-160.23 162.38,-165.62 146.56,-170.09"/>
<polygon fill="#63b8ff" stroke="#63b8ff" points="199.55,-158.74 208.22,-152.66 197.64,-152.01 199.55,-158.74"/>
</a>
</g>
</g>
<!-- Node12&#45;&gt;Node5 -->
<g id="edge20_Node000012_Node000005" class="edge">
<title>Node12&#45;&gt;Node5</title>
<g id="a_edge20_Node000012_Node000005"><a xlink:title=" ">
<path fill="none" stroke="#63b8ff" d="M356.24,-179.76C297.34,-179.76 198.79,-179.76 146.84,-179.76"/>
<polygon fill="#63b8ff" stroke="#63b8ff" points="355.96,-183.26 365.96,-179.76 355.96,-176.26 355.96,-183.26"/>
</a>
</g>
</g>
</g>
</svg>

<g id="navigator" transform="translate(0 0)" fill="#404254">
  <rect fill="#f2f5e9" fill-opacity="0.5" stroke="#606060" stroke-width=".5" x="0" y="0" width="60" height="60"/>
  <use id="zoomplus" xlink:href="#zoomPlus" x="17" y="9" onmousedown="handleZoom(evt,'in')"/>
  <use id="zoomminus" xlink:href="#zoomMin" x="42" y="9" onmousedown="handleZoom(evt,'out')"/>
  <use id="reset" xlink:href="#resetDef" x="30" y="36" onmousedown="handleReset()"/>
   <use id="arrowup" xlink:href="#arrowUp" x="0" y="0" onmousedown="handlePan(0,-1)"/>
  <use id="arrowright" xlink:href="#arrowRight" x="0" y="0" onmousedown="handlePan(1,0)"/>
  <use id="arrowdown" xlink:href="#arrowDown" x="0" y="0" onmousedown="handlePan(0,1)"/>
  <use id="arrowleft" xlink:href="#arrowLeft" x="0" y="0" onmousedown="handlePan(-1,0)"/>
</g>
<svg viewBox="0 0 15 15" width="100%" height="30px" preserveAspectRatio="xMaxYMin meet">
 <g id="arrow_out" transform="scale(0.3 0.3)">
  <a xlink:href="son_8h_ae145ae699cc1eecf0684bdd530bd26f0_icgraph_org.svg" target="_base">
   <rect id="button" ry="5" rx="5" y="6" x="6" height="38" width="38"
        fill="#f2f5e9" fill-opacity="0.5" stroke="#606060" stroke-width="1.0"/>
   <path id="arrow"
     d="M 11.500037,31.436501 C 11.940474,20.09759 22.043105,11.32322 32.158766,21.979434 L 37.068811,17.246167 C 37.068811,17.246167 37.088388,32 37.088388,32 L 22.160133,31.978069 C 22.160133,31.978069 26.997745,27.140456 26.997745,27.140456 C 18.528582,18.264221 13.291696,25.230495 11.500037,31.436501 z"
     style="fill:#404040;"/>
  </a>
 </g>
</svg>

<style type='text/css'>
<![CDATA[
[data-mouse-over-selected='false'] { opacity: 0.7; }
[data-mouse-over-selected='true']  { opacity: 1.0; }
]]>
</style>
<script type="application/ecmascript"><![CDATA[
document.addEventListener('DOMContentLoaded', (event) => {
  highlightEdges();
  highlightAdjacentNodes();
});
]]></script>
</svg>
