<?xml version="1.0" encoding="UTF-8" standalone="no"?>
<!DOCTYPE svg PUBLIC "-//W3C//DTD SVG 1.1//EN"
 "http://www.w3.org/Graphics/SVG/1.1/DTD/svg11.dtd">
<!-- Generated by graphviz version 14.1.4 (20260321.0153)
 -->
<!-- Title: son_sfx_est_actif Pages: 1 -->
<svg width="510pt" height="47pt"
 viewBox="0.00 0.00 510.00 47.00" xmlns="http://www.w3.org/2000/svg" xmlns:xlink="http://www.w3.org/1999/xlink">
<g id="graph0" class="graph" transform="scale(1 1) rotate(0) translate(4 43)">
<title>son_sfx_est_actif</title>
<!-- Node1 -->
<g id="Node000001" class="node">
<title>Node1</title>
<g id="a_Node000001"><a xlink:title="Indique si la categorie SFX est active.">
<polygon fill="#999999" stroke="#666666" points="502.25,-20 409,-20 409,0 502.25,0 502.25,-20"/>
<text xml:space="preserve" text-anchor="middle" x="455.62" y="-6.5" font-family="Helvetica,sans-Serif" font-size="10.00">son_sfx_est_actif</text>
</a>
</g>
</g>
<!-- Node2 -->
<g id="Node000002" class="node">
<title>Node2</title>
<g id="a_Node000002"><a xlink:href="option_8c.html#ac77b6b0f042469d82d75b270f5193806" target="_top" xlink:title="Affiche option et met a jour les elements visuels associes.">
<polygon fill="white" stroke="#666666" points="373,-20 294,-20 294,0 373,0 373,-20"/>
<text xml:space="preserve" text-anchor="middle" x="333.5" y="-6.5" font-family="Helvetica,sans-Serif" font-size="10.00">afficher_option</text>
</a>
</g>
</g>
<!-- Node1&#45;&gt;Node2 -->
<g id="edge1_Node000001_Node000002" class="edge">
<title>Node1&#45;&gt;Node2</title>
<g id="a_edge1_Node000001_Node000002"><a xlink:title=" ">
<path fill="none" stroke="#63b8ff" d="M397.17,-10C389.06,-10 380.89,-10 373.25,-10"/>
<polygon fill="#63b8ff" stroke="#63b8ff" points="397.01,-13.5 407.01,-10 397.01,-6.5 397.01,-13.5"/>
</a>
</g>
</g>
<!-- Node3 -->
<g id="Node000003" class="node">
<title>Node3</title>
<g id="a_Node000003"><a xlink:href="pause_8c.html#abc45a9e3a6a57d6f0f44706bd52e556d" target="_top" xlink:title="Affiche pause et met a jour les elements visuels associes.">
<polygon fill="white" stroke="#666666" points="258,-39 179,-39 179,-19 258,-19 258,-39"/>
<text xml:space="preserve" text-anchor="middle" x="218.5" y="-25.5" font-family="Helvetica,sans-Serif" font-size="10.00">afficher_pause</text>
</a>
</g>
</g>
<!-- Node2&#45;&gt;Node3 -->
<g id="edge2_Node000002_Node000003" class="edge">
<title>Node2&#45;&gt;Node3</title>
<g id="a_edge2_Node000002_Node000003"><a xlink:title=" ">
<path fill="none" stroke="#63b8ff" d="M282.44,-18.42C274.4,-19.77 266.19,-21.15 258.46,-22.45"/>
<polygon fill="#63b8ff" stroke="#63b8ff" points="282.84,-21.9 292.12,-16.79 281.68,-15 282.84,-21.9"/>
</a>
</g>
</g>
<!-- Node5 -->
<g id="Node000005" class="node">
<title>Node5</title>
<g id="a_Node000005"><a xlink:href="main_8c.html#a0ddf1224851353fc92bfbff6f499fa97" target="_top" xlink:title=" ">
<polygon fill="white" stroke="#666666" points="37,-20 0,-20 0,0 37,0 37,-20"/>
<text xml:space="preserve" text-anchor="middle" x="18.5" y="-6.5" font-family="Helvetica,sans-Serif" font-size="10.00">main</text>
</a>
</g>
</g>
<!-- Node2&#45;&gt;Node5 -->
<g id="edge5_Node000002_Node000005" class="edge">
<title>Node2&#45;&gt;Node5</title>
<g id="a_edge5_Node000002_Node000005"><a xlink:title=" ">
<path fill="none" stroke="#63b8ff" d="M282.45,-10C211.18,-10 83.94,-10 37.28,-10"/>
<polygon fill="#63b8ff" stroke="#63b8ff" points="282.29,-13.5 292.29,-10 282.29,-6.5 282.29,-13.5"/>
</a>
</g>
</g>
<!-- Node4 -->
<g id="Node000004" class="node">
<title>Node4</title>
<g id="a_Node000004"><a xlink:href="jeux_8c.html#a2d7491d04e8c2bdb52bb6ed7d75e4d78" target="_top" xlink:title="Execute la boucle principale de gameplay pour la planete courante.">
<polygon fill="white" stroke="#666666" points="143,-39 73,-39 73,-19 143,-19 143,-39"/>
<text xml:space="preserve" text-anchor="middle" x="108" y="-25.5" font-family="Helvetica,sans-Serif" font-size="10.00">jeu_principal</text>
</a>
</g>
</g>
<!-- Node3&#45;&gt;Node4 -->
<g id="edge3_Node000003_Node000004" class="edge">
<title>Node3&#45;&gt;Node4</title>
<g id="a_edge3_Node000003_Node000004"><a xlink:title=" ">
<path fill="none" stroke="#63b8ff" d="M167.3,-29C159.17,-29 150.91,-29 143.28,-29"/>
<polygon fill="#63b8ff" stroke="#63b8ff" points="167.12,-32.5 177.12,-29 167.12,-25.5 167.12,-32.5"/>
</a>
</g>
</g>
<!-- Node4&#45;&gt;Node5 -->
<g id="edge4_Node000004_Node000005" class="edge">
<title>Node4&#45;&gt;Node5</title>
<g id="a_edge4_Node000004_Node000005"><a xlink:title=" ">
<path fill="none" stroke="#63b8ff" d="M61.47,-19.11C52.91,-17.25 44.44,-15.42 37.37,-13.88"/>
<polygon fill="#63b8ff" stroke="#63b8ff" points="60.67,-22.52 71.19,-21.22 62.16,-15.68 60.67,-22.52"/>
</a>
</g>
</g>
</g>
</svg>
