<?xml version="1.0" encoding="UTF-8" standalone="no"?>
<!DOCTYPE svg PUBLIC "-//W3C//DTD SVG 1.1//EN"
 "http://www.w3.org/Graphics/SVG/1.1/DTD/svg11.dtd">
<!-- Generated by graphviz version 14.1.4 (20260321.0153)
 -->
<!-- Title: son_ambiance_est_active Pages: 1 -->
<svg width="546pt" height="85pt"
 viewBox="0.00 0.00 546.00 85.00" xmlns="http://www.w3.org/2000/svg" xmlns:xlink="http://www.w3.org/1999/xlink">
<g id="graph0" class="graph" transform="scale(1 1) rotate(0) translate(4 81)">
<title>son_ambiance_est_active</title>
<!-- Node1 -->
<g id="Node000001" class="node">
<title>Node1</title>
<g id="a_Node000001"><a xlink:title="Indique si la categorie ambiance/musique est active.">
<polygon fill="#999999" stroke="#666666" points="538.25,-20 409,-20 409,0 538.25,0 538.25,-20"/>
<text xml:space="preserve" text-anchor="middle" x="473.62" y="-6.5" font-family="Helvetica,sans-Serif" font-size="10.00">son_ambiance_est_active</text>
</a>
</g>
</g>
<!-- Node2 -->
<g id="Node000002" class="node">
<title>Node2</title>
<g id="a_Node000002"><a xlink:href="option_8c.html#ac77b6b0f042469d82d75b270f5193806" target="_top" xlink:title="Affiche option et met a jour les elements visuels associes.">
<polygon fill="white" stroke="#666666" points="373,-39 294,-39 294,-19 373,-19 373,-39"/>
<text xml:space="preserve" text-anchor="middle" x="333.5" y="-25.5" font-family="Helvetica,sans-Serif" font-size="10.00">afficher_option</text>
</a>
</g>
</g>
<!-- Node1&#45;&gt;Node2 -->
<g id="edge1_Node000001_Node000002" class="edge">
<title>Node1&#45;&gt;Node2</title>
<g id="a_edge1_Node000001_Node000002"><a xlink:title=" ">
<path fill="none" stroke="#63b8ff" d="M397.69,-20.31C389.24,-21.47 380.91,-22.62 373.21,-23.68"/>
<polygon fill="#63b8ff" stroke="#63b8ff" points="397.89,-23.81 407.32,-18.98 396.94,-16.88 397.89,-23.81"/>
</a>
</g>
</g>
<!-- Node5 -->
<g id="Node000005" class="node">
<title>Node5</title>
<g id="a_Node000005"><a xlink:href="main_8c.html#a0ddf1224851353fc92bfbff6f499fa97" target="_top" xlink:title=" ">
<polygon fill="white" stroke="#666666" points="37,-39 0,-39 0,-19 37,-19 37,-39"/>
<text xml:space="preserve" text-anchor="middle" x="18.5" y="-25.5" font-family="Helvetica,sans-Serif" font-size="10.00">main</text>
</a>
</g>
</g>
<!-- Node1&#45;&gt;Node5 -->
<g id="edge6_Node000001_Node000005" class="edge">
<title>Node1&#45;&gt;Node5</title>
<g id="a_edge6_Node000001_Node000005"><a xlink:title=" ">
<path fill="none" stroke="#63b8ff" d="M397.08,-8.87C365.25,-8.68 327.81,-8.85 294,-10 195.61,-13.34 171.2,-18 73,-25 61.11,-25.85 47.73,-26.85 37.33,-27.64"/>
<polygon fill="#63b8ff" stroke="#63b8ff" points="397,-12.37 407.02,-8.94 397.05,-5.37 397,-12.37"/>
</a>
</g>
</g>
<!-- Node3 -->
<g id="Node000003" class="node">
<title>Node3</title>
<g id="a_Node000003"><a xlink:href="pause_8c.html#abc45a9e3a6a57d6f0f44706bd52e556d" target="_top" xlink:title="Affiche pause et met a jour les elements visuels associes.">
<polygon fill="white" stroke="#666666" points="258,-77 179,-77 179,-57 258,-57 258,-77"/>
<text xml:space="preserve" text-anchor="middle" x="218.5" y="-63.5" font-family="Helvetica,sans-Serif" font-size="10.00">afficher_pause</text>
</a>
</g>
</g>
<!-- Node2&#45;&gt;Node3 -->
<g id="edge2_Node000002_Node000003" class="edge">
<title>Node2&#45;&gt;Node3</title>
<g id="a_edge2_Node000002_Node000003"><a xlink:title=" ">
<path fill="none" stroke="#63b8ff" d="M290.54,-43.11C277.3,-47.56 262.91,-52.4 250.58,-56.55"/>
<polygon fill="#63b8ff" stroke="#63b8ff" points="291.53,-46.47 299.89,-39.97 289.29,-39.84 291.53,-46.47"/>
</a>
</g>
</g>
<!-- Node2&#45;&gt;Node5 -->
<g id="edge5_Node000002_Node000005" class="edge">
<title>Node2&#45;&gt;Node5</title>
<g id="a_edge5_Node000002_Node000005"><a xlink:title=" ">
<path fill="none" stroke="#63b8ff" d="M282.45,-29C211.18,-29 83.94,-29 37.28,-29"/>
<polygon fill="#63b8ff" stroke="#63b8ff" points="282.29,-32.5 292.29,-29 282.29,-25.5 282.29,-32.5"/>
</a>
</g>
</g>
<!-- Node4 -->
<g id="Node000004" class="node">
<title>Node4</title>
<g id="a_Node000004"><a xlink:href="jeux_8c.html#a2d7491d04e8c2bdb52bb6ed7d75e4d78" target="_top" xlink:title="Execute la boucle principale de gameplay pour la planete courante.">
<polygon fill="white" stroke="#666666" points="143,-77 73,-77 73,-57 143,-57 143,-77"/>
<text xml:space="preserve" text-anchor="middle" x="108" y="-63.5" font-family="Helvetica,sans-Serif" font-size="10.00">jeu_principal</text>
</a>
</g>
</g>
<!-- Node3&#45;&gt;Node4 -->
<g id="edge3_Node000003_Node000004" class="edge">
<title>Node3&#45;&gt;Node4</title>
<g id="a_edge3_Node000003_Node000004"><a xlink:title=" ">
<path fill="none" stroke="#63b8ff" d="M167.3,-67C159.17,-67 150.91,-67 143.28,-67"/>
<polygon fill="#63b8ff" stroke="#63b8ff" points="167.12,-70.5 177.12,-67 167.12,-63.5 167.12,-70.5"/>
</a>
</g>
</g>
<!-- Node4&#45;&gt;Node5 -->
<g id="edge4_Node000004_Node000005" class="edge">
<title>Node4&#45;&gt;Node5</title>
<g id="a_edge4_Node000004_Node000005"><a xlink:title=" ">
<path fill="none" stroke="#63b8ff" d="M72.79,-52.14C60.65,-46.87 47.48,-41.15 37.27,-36.72"/>
<polygon fill="#63b8ff" stroke="#63b8ff" points="71.14,-55.24 81.7,-56.01 73.92,-48.82 71.14,-55.24"/>
</a>
</g>
</g>
</g>
</svg>
