<?xml version="1.0" encoding="UTF-8" standalone="no"?>
<!DOCTYPE svg PUBLIC "-//W3C//DTD SVG 1.1//EN"
 "http://www.w3.org/Graphics/SVG/1.1/DTD/svg11.dtd">
<!-- Generated by graphviz version 14.1.4 (20260321.0153)
 -->
<!-- Title: recuperer_mixer Pages: 1 -->
<svg width="1044pt" height="690pt"
 viewBox="0.00 0.00 1044.00 690.00" xmlns="http://www.w3.org/2000/svg" xmlns:xlink="http://www.w3.org/1999/xlink">
<g id="graph0" class="graph" transform="scale(1 1) rotate(0) translate(4 685.98)">
<title>recuperer_mixer</title>
<!-- Node1 -->
<g id="Node000001" class="node">
<title>Node1</title>
<g id="a_Node000001"><a xlink:title=" ">
<polygon fill="#999999" stroke="#666666" points="1036.25,-189.15 950.5,-189.15 950.5,-169.15 1036.25,-169.15 1036.25,-189.15"/>
<text xml:space="preserve" text-anchor="middle" x="993.38" y="-175.65" font-family="Helvetica,sans-Serif" font-size="10.00">recuperer_mixer</text>
</a>
</g>
</g>
<!-- Node2 -->
<g id="Node000002" class="node">
<title>Node2</title>
<g id="a_Node000002"><a xlink:href="son_8c.html#ad0d6e981433bdc8e4291e672fa8c039b" target="_top" xlink:title=" ">
<polygon fill="white" stroke="#666666" points="914.5,-189.15 837,-189.15 837,-169.15 914.5,-169.15 914.5,-189.15"/>
<text xml:space="preserve" text-anchor="middle" x="875.75" y="-175.65" font-family="Helvetica,sans-Serif" font-size="10.00">recuperer_son</text>
</a>
</g>
</g>
<!-- Node1&#45;&gt;Node2 -->
<g id="edge1_Node000001_Node000002" class="edge">
<title>Node1&#45;&gt;Node2</title>
<g id="a_edge1_Node000001_Node000002"><a xlink:title=" ">
<path fill="none" stroke="#63b8ff" d="M938.92,-179.15C930.77,-179.15 922.5,-179.15 914.76,-179.15"/>
<polygon fill="#63b8ff" stroke="#63b8ff" points="938.79,-182.65 948.79,-179.15 938.79,-175.65 938.79,-182.65"/>
</a>
</g>
</g>
<!-- Node3 -->
<g id="Node000003" class="node">
<title>Node3</title>
<g id="a_Node000003"><a xlink:href="son_8c.html#ae145ae699cc1eecf0684bdd530bd26f0" target="_top" xlink:title="Charge (ou recupere du cache) puis joue une piste audio.">
<polygon fill="white" stroke="#666666" points="779.25,-303.15 721.25,-303.15 721.25,-283.15 779.25,-283.15 779.25,-303.15"/>
<text xml:space="preserve" text-anchor="middle" x="750.25" y="-289.65" font-family="Helvetica,sans-Serif" font-size="10.00">jouer_son</text>
</a>
</g>
</g>
<!-- Node2&#45;&gt;Node3 -->
<g id="edge2_Node000002_Node000003" class="edge">
<title>Node2&#45;&gt;Node3</title>
<g id="a_edge2_Node000002_Node000003"><a xlink:title=" ">
<path fill="none" stroke="#63b8ff" d="M855.43,-196.99C829.25,-221.14 783.4,-263.48 762.36,-282.89"/>
<polygon fill="#63b8ff" stroke="#63b8ff" points="857.7,-199.65 862.68,-190.29 852.96,-194.5 857.7,-199.65"/>
</a>
</g>
</g>
<!-- Node23 -->
<g id="Node000023" class="node">
<title>Node23</title>
<g id="a_Node000023"><a xlink:href="son_8c.html#a028240b6e82e6b66131d717e14b94af1" target="_top" xlink:title="Precharge les effets sonores frequents dans le cache audio.">
<polygon fill="white" stroke="#666666" points="801,-170.15 699.5,-170.15 699.5,-150.15 801,-150.15 801,-170.15"/>
<text xml:space="preserve" text-anchor="middle" x="750.25" y="-156.65" font-family="Helvetica,sans-Serif" font-size="10.00">son_precharger_sfx</text>
</a>
</g>
</g>
<!-- Node2&#45;&gt;Node23 -->
<g id="edge39_Node000002_Node000023" class="edge">
<title>Node2&#45;&gt;Node23</title>
<g id="a_edge39_Node000002_Node000023"><a xlink:title=" ">
<path fill="none" stroke="#63b8ff" d="M825.33,-171.55C817.4,-170.33 809.19,-169.06 801.24,-167.84"/>
<polygon fill="#63b8ff" stroke="#63b8ff" points="824.78,-175 835.19,-173.06 825.84,-168.08 824.78,-175"/>
</a>
</g>
</g>
<!-- Node4 -->
<g id="Node000004" class="node">
<title>Node4</title>
<g id="a_Node000004"><a xlink:href="map_8c.html#ad462ccdd50801fb085dc8134fc3765d1" target="_top" xlink:title="Affiche la carte et met a jour les elements visuels associes.">
<polygon fill="white" stroke="#666666" points="638.75,-189.15 567.25,-189.15 567.25,-169.15 638.75,-169.15 638.75,-189.15"/>
<text xml:space="preserve" text-anchor="middle" x="603" y="-175.65" font-family="Helvetica,sans-Serif" font-size="10.00">afficher_map</text>
</a>
</g>
</g>
<!-- Node3&#45;&gt;Node4 -->
<g id="edge3_Node000003_Node000004" class="edge">
<title>Node3&#45;&gt;Node4</title>
<g id="a_edge3_Node000003_Node000004"><a xlink:title=" ">
<path fill="none" stroke="#63b8ff" d="M728.59,-275.4C711.42,-260.79 686.2,-239.72 663.5,-222.15 648.58,-210.6 631.03,-198.04 618.87,-189.49"/>
<polygon fill="#63b8ff" stroke="#63b8ff" points="726.21,-277.97 736.09,-281.8 730.76,-272.64 726.21,-277.97"/>
</a>
</g>
</g>
<!-- Node7 -->
<g id="Node000007" class="node">
<title>Node7</title>
<g id="a_Node000007"><a xlink:href="cinematique_8c.html#a418cc3e727578f4cd509ad27cd6a2a31" target="_top" xlink:title="Lance cinematique fin et gere son deroulement complet.">
<polygon fill="white" stroke="#666666" points="183.5,-208.15 73,-208.15 73,-188.15 183.5,-188.15 183.5,-208.15"/>
<text xml:space="preserve" text-anchor="middle" x="128.25" y="-194.65" font-family="Helvetica,sans-Serif" font-size="10.00">jouer_cinematique_fin</text>
</a>
</g>
</g>
<!-- Node3&#45;&gt;Node7 -->
<g id="edge25_Node000003_Node000007" class="edge">
<title>Node3&#45;&gt;Node7</title>
<g id="a_edge25_Node000003_Node000007"><a xlink:title=" ">
<path fill="none" stroke="#63b8ff" d="M709.78,-287.1C602.74,-270.7 306.81,-225.35 183.88,-206.52"/>
<polygon fill="#63b8ff" stroke="#63b8ff" points="709.09,-290.54 719.5,-288.59 710.15,-283.62 709.09,-290.54"/>
</a>
</g>
</g>
<!-- Node8 -->
<g id="Node000008" class="node">
<title>Node8</title>
<g id="a_Node000008"><a xlink:href="main_8c.html#a0ddf1224851353fc92bfbff6f499fa97" target="_top" xlink:title=" ">
<polygon fill="white" stroke="#666666" points="37,-113.15 0,-113.15 0,-93.15 37,-93.15 37,-113.15"/>
<text xml:space="preserve" text-anchor="middle" x="18.5" y="-99.65" font-family="Helvetica,sans-Serif" font-size="10.00">main</text>
</a>
</g>
</g>
<!-- Node3&#45;&gt;Node8 -->
<g id="edge26_Node000003_Node000008" class="edge">
<title>Node3&#45;&gt;Node8</title>
<g id="a_edge26_Node000003_Node000008"><a xlink:title=" ">
<path fill="none" stroke="#63b8ff" d="M741.02,-272.25C728.52,-243.1 702.05,-190.42 663.5,-160.15 582.31,-96.39 547.24,-84.15 444,-84.15 444,-84.15 444,-84.15 280.5,-84.15 188.73,-84.15 79.28,-95.98 37.19,-100.97"/>
<polygon fill="#63b8ff" stroke="#63b8ff" points="737.76,-273.53 744.81,-281.44 744.23,-270.86 737.76,-273.53"/>
</a>
</g>
</g>
<!-- Node9 -->
<g id="Node000009" class="node">
<title>Node9</title>
<g id="a_Node000009"><a xlink:href="menu_8c.html#a55097e0b77b0fabc6cae44137b9a839a" target="_top" xlink:title="Affiche menu et met a jour les elements visuels associes.">
<polygon fill="white" stroke="#666666" points="166.62,-56.15 89.88,-56.15 89.88,-36.15 166.62,-36.15 166.62,-56.15"/>
<text xml:space="preserve" text-anchor="middle" x="128.25" y="-42.65" font-family="Helvetica,sans-Serif" font-size="10.00">afficher_menu</text>
</a>
</g>
</g>
<!-- Node3&#45;&gt;Node9 -->
<g id="edge10_Node000003_Node000009" class="edge">
<title>Node3&#45;&gt;Node9</title>
<g id="a_edge10_Node000003_Node000009"><a xlink:title=" ">
<path fill="none" stroke="#63b8ff" d="M739.56,-272.52C729.08,-249.87 712.18,-212.3 699.5,-179.15 681.28,-131.5 704.17,-100.96 663.5,-70.15 585.7,-11.21 275.33,-32.89 166.89,-42.53"/>
<polygon fill="#63b8ff" stroke="#63b8ff" points="736.36,-273.95 743.76,-281.54 742.71,-270.99 736.36,-273.95"/>
</a>
</g>
</g>
<!-- Node10 -->
<g id="Node000010" class="node">
<title>Node10</title>
<g id="a_Node000010"><a xlink:href="boss_8c.html#abdd4c54b66ea8d0ee227b3c01036670f" target="_top" xlink:title=" ">
<polygon fill="white" stroke="#666666" points="663.5,-594.15 542.5,-594.15 542.5,-574.15 663.5,-574.15 663.5,-594.15"/>
<text xml:space="preserve" text-anchor="middle" x="603" y="-580.65" font-family="Helvetica,sans-Serif" font-size="10.00">appliquer_degats_joueur</text>
</a>
</g>
</g>
<!-- Node3&#45;&gt;Node10 -->
<g id="edge12_Node000003_Node000010" class="edge">
<title>Node3&#45;&gt;Node10</title>
<g id="a_edge12_Node000003_Node000010"><a xlink:title=" ">
<path fill="none" stroke="#63b8ff" d="M743.75,-314.54C732.61,-355.64 704.87,-447.6 663.5,-516.15 649.72,-538.98 628,-561.48 614.97,-574.01"/>
<polygon fill="#63b8ff" stroke="#63b8ff" points="747.11,-315.53 746.28,-304.97 740.34,-313.74 747.11,-315.53"/>
</a>
</g>
</g>
<!-- Node13 -->
<g id="Node000013" class="node">
<title>Node13</title>
<g id="a_Node000013"><a xlink:href="jeux_8c.html#a2d7491d04e8c2bdb52bb6ed7d75e4d78" target="_top" xlink:title="Execute la boucle principale de gameplay pour la planete courante.">
<polygon fill="white" stroke="#666666" points="163.25,-417.15 93.25,-417.15 93.25,-397.15 163.25,-397.15 163.25,-417.15"/>
<text xml:space="preserve" text-anchor="middle" x="128.25" y="-403.65" font-family="Helvetica,sans-Serif" font-size="10.00">jeu_principal</text>
</a>
</g>
</g>
<!-- Node3&#45;&gt;Node13 -->
<g id="edge22_Node000003_Node000013" class="edge">
<title>Node3&#45;&gt;Node13</title>
<g id="a_edge22_Node000003_Node000013"><a xlink:title=" ">
<path fill="none" stroke="#63b8ff" d="M749.45,-314.92C748.8,-370.19 739.59,-517.58 663.5,-603.15 613.43,-659.46 580.45,-652.66 506.5,-667.15 378.25,-692.28 314.24,-693.17 219.5,-603.15 161.66,-548.18 137.59,-449 131.14,-417.23"/>
<polygon fill="#63b8ff" stroke="#63b8ff" points="752.95,-315.01 749.47,-305 745.95,-314.99 752.95,-315.01"/>
</a>
</g>
</g>
<!-- Node16 -->
<g id="Node000016" class="node">
<title>Node16</title>
<g id="a_Node000016"><a xlink:href="cinematique_8c.html#a68c4780c65b14d27f0088cfc6514eb60" target="_top" xlink:title="Lance cinematique crash et gere son deroulement complet.">
<polygon fill="white" stroke="#666666" points="343.5,-493.15 219.5,-493.15 219.5,-473.15 343.5,-473.15 343.5,-493.15"/>
<text xml:space="preserve" text-anchor="middle" x="281.5" y="-479.65" font-family="Helvetica,sans-Serif" font-size="10.00">jouer_cinematique_crash</text>
</a>
</g>
</g>
<!-- Node3&#45;&gt;Node16 -->
<g id="edge23_Node000003_Node000016" class="edge">
<title>Node3&#45;&gt;Node16</title>
<g id="a_edge23_Node000003_Node000016"><a xlink:title=" ">
<path fill="none" stroke="#63b8ff" d="M739.81,-313.67C726.49,-340.38 699.73,-386.77 663.5,-413.15 568.22,-482.52 424.84,-489.72 343.87,-487.36"/>
<polygon fill="#63b8ff" stroke="#63b8ff" points="742.84,-315.43 744.02,-304.9 736.54,-312.4 742.84,-315.43"/>
</a>
</g>
</g>
<!-- Node17 -->
<g id="Node000017" class="node">
<title>Node17</title>
<g id="a_Node000017"><a xlink:href="perso_8c.html#a2a53403cf290bb65fb010b095c4843cf" target="_top" xlink:title="Verifie collision et retourne le resultat du test.">
<polygon fill="white" stroke="#666666" points="639.5,-341.15 566.5,-341.15 566.5,-321.15 639.5,-321.15 639.5,-341.15"/>
<text xml:space="preserve" text-anchor="middle" x="603" y="-327.65" font-family="Helvetica,sans-Serif" font-size="10.00">test_collision</text>
</a>
</g>
</g>
<!-- Node3&#45;&gt;Node17 -->
<g id="edge27_Node000003_Node000017" class="edge">
<title>Node3&#45;&gt;Node17</title>
<g id="a_edge27_Node000003_Node000017"><a xlink:title=" ">
<path fill="none" stroke="#63b8ff" d="M709.98,-303.42C688.09,-309.15 661.04,-316.23 639.75,-321.8"/>
<polygon fill="#63b8ff" stroke="#63b8ff" points="710.65,-306.87 719.44,-300.95 708.87,-300.09 710.65,-306.87"/>
</a>
</g>
</g>
<!-- Node22 -->
<g id="Node000022" class="node">
<title>Node22</title>
<g id="a_Node000022"><a xlink:href="perso_8c.html#a13de525da0f522f0738bde93c1d62255" target="_top" xlink:title="Met a jour combat en fonction de l&#39;etat courant du jeu.">
<polygon fill="white" stroke="#666666" points="322.88,-436.15 240.12,-436.15 240.12,-416.15 322.88,-416.15 322.88,-436.15"/>
<text xml:space="preserve" text-anchor="middle" x="281.5" y="-422.65" font-family="Helvetica,sans-Serif" font-size="10.00">update_combat</text>
</a>
</g>
</g>
<!-- Node3&#45;&gt;Node22 -->
<g id="edge38_Node000003_Node000022" class="edge">
<title>Node3&#45;&gt;Node22</title>
<g id="a_edge38_Node000003_Node000022"><a xlink:title=" ">
<path fill="none" stroke="#63b8ff" d="M730.03,-310.8C691.3,-344.99 599.61,-419.17 506.5,-445.15 441.46,-463.29 362.03,-448.24 317.36,-436.57"/>
<polygon fill="#63b8ff" stroke="#63b8ff" points="732.06,-313.68 737.17,-304.4 727.38,-308.47 732.06,-313.68"/>
</a>
</g>
</g>
<!-- Node5 -->
<g id="Node000005" class="node">
<title>Node5</title>
<g id="a_Node000005"><a xlink:href="vaisseau_8c.html#ace614afc8df3a40bd5ea0771044ff217" target="_top" xlink:title=" ">
<polygon fill="white" stroke="#666666" points="500.12,-170.15 385.88,-170.15 385.88,-150.15 500.12,-150.15 500.12,-170.15"/>
<text xml:space="preserve" text-anchor="middle" x="443" y="-156.65" font-family="Helvetica,sans-Serif" font-size="10.00">gerer_interaction_objet</text>
</a>
</g>
</g>
<!-- Node4&#45;&gt;Node5 -->
<g id="edge4_Node000004_Node000005" class="edge">
<title>Node4&#45;&gt;Node5</title>
<g id="a_edge4_Node000004_Node000005"><a xlink:title=" ">
<path fill="none" stroke="#63b8ff" d="M555.93,-173.61C538.56,-171.52 518.59,-169.12 500.38,-166.93"/>
<polygon fill="#63b8ff" stroke="#63b8ff" points="555.09,-177.03 565.43,-174.75 555.92,-170.08 555.09,-177.03"/>
</a>
</g>
</g>
<!-- Node4&#45;&gt;Node8 -->
<g id="edge9_Node000004_Node000008" class="edge">
<title>Node4&#45;&gt;Node8</title>
<g id="a_edge9_Node000004_Node000008"><a xlink:title=" ">
<path fill="none" stroke="#63b8ff" d="M570.99,-164.05C552.67,-155.84 528.77,-146.32 506.5,-141.15 327.25,-99.5 101.96,-101.16 37.48,-102.63"/>
<polygon fill="#63b8ff" stroke="#63b8ff" points="569.42,-167.18 579.97,-168.19 572.35,-160.82 569.42,-167.18"/>
</a>
</g>
</g>
<!-- Node6 -->
<g id="Node000006" class="node">
<title>Node6</title>
<g id="a_Node000006"><a xlink:href="vaisseau_8c.html#a8ea9afc9440149ddd36e96b97d8ed6c5" target="_top" xlink:title="Lance la scene interieure du vaisseau (deplacement, interactions, mini&#45;jeux, sortie).">
<polygon fill="white" stroke="#666666" points="309,-170.15 254,-170.15 254,-150.15 309,-150.15 309,-170.15"/>
<text xml:space="preserve" text-anchor="middle" x="281.5" y="-156.65" font-family="Helvetica,sans-Serif" font-size="10.00">vaisseau</text>
</a>
</g>
</g>
<!-- Node5&#45;&gt;Node6 -->
<g id="edge5_Node000005_Node000006" class="edge">
<title>Node5&#45;&gt;Node6</title>
<g id="a_edge5_Node000005_Node000006"><a xlink:title=" ">
<path fill="none" stroke="#63b8ff" d="M374.3,-160.15C351.36,-160.15 327.07,-160.15 309.24,-160.15"/>
<polygon fill="#63b8ff" stroke="#63b8ff" points="374.25,-163.65 384.25,-160.15 374.25,-156.65 374.25,-163.65"/>
</a>
</g>
</g>
<!-- Node6&#45;&gt;Node7 -->
<g id="edge6_Node000006_Node000007" class="edge">
<title>Node6&#45;&gt;Node7</title>
<g id="a_edge6_Node000006_Node000007"><a xlink:title=" ">
<path fill="none" stroke="#63b8ff" d="M242.93,-169.59C221.02,-175.09 193.34,-182.05 170.79,-187.71"/>
<polygon fill="#63b8ff" stroke="#63b8ff" points="243.49,-173.05 252.34,-167.22 241.79,-166.27 243.49,-173.05"/>
</a>
</g>
</g>
<!-- Node6&#45;&gt;Node8 -->
<g id="edge8_Node000006_Node000008" class="edge">
<title>Node6&#45;&gt;Node8</title>
<g id="a_edge8_Node000006_Node000008"><a xlink:title=" ">
<path fill="none" stroke="#63b8ff" d="M242.33,-160.65C199.85,-160.09 129.72,-155.83 73,-136.15 58.15,-131 43.08,-121.2 32.74,-113.61"/>
<polygon fill="#63b8ff" stroke="#63b8ff" points="242.27,-164.15 252.29,-160.71 242.32,-157.15 242.27,-164.15"/>
</a>
</g>
</g>
<!-- Node7&#45;&gt;Node4 -->
<g id="edge7_Node000007_Node000004" class="edge">
<title>Node7&#45;&gt;Node4</title>
<g id="a_edge7_Node000007_Node000004"><a xlink:title=" ">
<path fill="none" stroke="#63b8ff" d="M195.08,-195.5C296.67,-191.42 488.14,-183.72 566.85,-180.56"/>
<polygon fill="#63b8ff" stroke="#63b8ff" points="195.11,-192 185.26,-195.9 195.39,-198.99 195.11,-192"/>
</a>
</g>
</g>
<!-- Node9&#45;&gt;Node8 -->
<g id="edge11_Node000009_Node000008" class="edge">
<title>Node9&#45;&gt;Node8</title>
<g id="a_edge11_Node000009_Node000008"><a xlink:title=" ">
<path fill="none" stroke="#63b8ff" d="M91.52,-61.12C85.28,-63.98 78.9,-67.04 73,-70.15 59.87,-77.06 45.59,-85.94 35.09,-92.75"/>
<polygon fill="#63b8ff" stroke="#63b8ff" points="92.69,-64.43 100.41,-57.17 89.85,-58.04 92.69,-64.43"/>
</a>
</g>
</g>
<!-- Node11 -->
<g id="Node000011" class="node">
<title>Node11</title>
<g id="a_Node000011"><a xlink:href="boss_8c.html#af427d4c0d85f6029c589ec2c599df015" target="_top" xlink:title=" ">
<polygon fill="white" stroke="#666666" points="506.5,-638.15 379.5,-638.15 379.5,-618.15 506.5,-618.15 506.5,-638.15"/>
<text xml:space="preserve" text-anchor="middle" x="443" y="-624.65" font-family="Helvetica,sans-Serif" font-size="10.00">appliquer_degats_contact</text>
</a>
</g>
</g>
<!-- Node10&#45;&gt;Node11 -->
<g id="edge13_Node000010_Node000011" class="edge">
<title>Node10&#45;&gt;Node11</title>
<g id="a_edge13_Node000010_Node000011"><a xlink:title=" ">
<path fill="none" stroke="#63b8ff" d="M553.55,-597.64C530.36,-604.1 503.02,-611.71 481.45,-617.72"/>
<polygon fill="#63b8ff" stroke="#63b8ff" points="554.4,-601.04 563.1,-594.98 552.53,-594.29 554.4,-601.04"/>
</a>
</g>
</g>
<!-- Node12 -->
<g id="Node000012" class="node">
<title>Node12</title>
<g id="a_Node000012"><a xlink:href="boss_8c.html#abbb99b844a32a59c50228b7d6dcb888b" target="_top" xlink:title="Met a jour boss en fonction de l&#39;etat courant du jeu.">
<polygon fill="white" stroke="#666666" points="332.25,-594.15 230.75,-594.15 230.75,-574.15 332.25,-574.15 332.25,-594.15"/>
<text xml:space="preserve" text-anchor="middle" x="281.5" y="-580.65" font-family="Helvetica,sans-Serif" font-size="10.00">mettre_a_jour_boss</text>
</a>
</g>
</g>
<!-- Node10&#45;&gt;Node12 -->
<g id="edge19_Node000010_Node000012" class="edge">
<title>Node10&#45;&gt;Node12</title>
<g id="a_edge19_Node000010_Node000012"><a xlink:title=" ">
<path fill="none" stroke="#63b8ff" d="M582.6,-601.96C564.45,-617.31 535.82,-638.35 506.5,-647.15 452.44,-663.37 433.62,-663.18 379.5,-647.15 344.65,-636.82 310.59,-609.61 293.63,-594.54"/>
<polygon fill="#63b8ff" stroke="#63b8ff" points="584.71,-604.75 589.94,-595.54 580.11,-599.48 584.71,-604.75"/>
</a>
</g>
</g>
<!-- Node14 -->
<g id="Node000014" class="node">
<title>Node14</title>
<g id="a_Node000014"><a xlink:href="boss_8c.html#ad702f42cf8f6318134fb3270d630ab00" target="_top" xlink:title=" ">
<polygon fill="white" stroke="#666666" points="503.5,-600.15 382.5,-600.15 382.5,-568.15 503.5,-568.15 503.5,-600.15"/>
<text xml:space="preserve" text-anchor="start" x="390.5" y="-586.65" font-family="Helvetica,sans-Serif" font-size="10.00">appliquer_degats_hache</text>
<text xml:space="preserve" text-anchor="middle" x="443" y="-574.65" font-family="Helvetica,sans-Serif" font-size="10.00">_minotaure</text>
</a>
</g>
</g>
<!-- Node10&#45;&gt;Node14 -->
<g id="edge17_Node000010_Node000014" class="edge">
<title>Node10&#45;&gt;Node14</title>
<g id="a_edge17_Node000010_Node000014"><a xlink:title=" ">
<path fill="none" stroke="#63b8ff" d="M530.91,-584.15C521.86,-584.15 512.67,-584.15 503.82,-584.15"/>
<polygon fill="#63b8ff" stroke="#63b8ff" points="530.75,-587.65 540.75,-584.15 530.75,-580.65 530.75,-587.65"/>
</a>
</g>
</g>
<!-- Node15 -->
<g id="Node000015" class="node">
<title>Node15</title>
<g id="a_Node000015"><a xlink:href="boss_8c.html#a0bba4ecad554b4cae0f277f1c11459d5" target="_top" xlink:title=" ">
<polygon fill="white" stroke="#666666" points="490.38,-550.15 395.62,-550.15 395.62,-530.15 490.38,-530.15 490.38,-550.15"/>
<text xml:space="preserve" text-anchor="middle" x="443" y="-536.65" font-family="Helvetica,sans-Serif" font-size="10.00">update_projectiles</text>
</a>
</g>
</g>
<!-- Node10&#45;&gt;Node15 -->
<g id="edge20_Node000010_Node000015" class="edge">
<title>Node10&#45;&gt;Node15</title>
<g id="a_edge20_Node000010_Node000015"><a xlink:title=" ">
<path fill="none" stroke="#63b8ff" d="M553.55,-570.66C530.36,-564.2 503.02,-556.58 481.45,-550.58"/>
<polygon fill="#63b8ff" stroke="#63b8ff" points="552.53,-574 563.1,-573.32 554.4,-567.26 552.53,-574"/>
</a>
</g>
</g>
<!-- Node11&#45;&gt;Node12 -->
<g id="edge14_Node000011_Node000012" class="edge">
<title>Node11&#45;&gt;Node12</title>
<g id="a_edge14_Node000011_Node000012"><a xlink:title=" ">
<path fill="none" stroke="#63b8ff" d="M393.41,-614.74C369.93,-608.27 342.17,-600.61 320.3,-594.58"/>
<polygon fill="#63b8ff" stroke="#63b8ff" points="392.17,-618.03 402.74,-617.32 394.03,-611.29 392.17,-618.03"/>
</a>
</g>
</g>
<!-- Node12&#45;&gt;Node13 -->
<g id="edge15_Node000012_Node000013" class="edge">
<title>Node12&#45;&gt;Node13</title>
<g id="a_edge15_Node000012_Node000013"><a xlink:title=" ">
<path fill="none" stroke="#63b8ff" d="M264.52,-565.45C232.78,-528.31 162.73,-446.33 138.06,-417.46"/>
<polygon fill="#63b8ff" stroke="#63b8ff" points="261.57,-567.39 270.73,-572.72 266.9,-562.84 261.57,-567.39"/>
</a>
</g>
</g>
<!-- Node13&#45;&gt;Node8 -->
<g id="edge16_Node000013_Node000008" class="edge">
<title>Node13&#45;&gt;Node8</title>
<g id="a_edge16_Node000013_Node000008"><a xlink:title=" ">
<path fill="none" stroke="#63b8ff" d="M119.73,-385.94C98.51,-326.06 38.67,-157.24 23.19,-113.57"/>
<polygon fill="#63b8ff" stroke="#63b8ff" points="116.4,-387 123.04,-395.26 122.99,-384.66 116.4,-387"/>
</a>
</g>
</g>
<!-- Node14&#45;&gt;Node12 -->
<g id="edge18_Node000014_Node000012" class="edge">
<title>Node14&#45;&gt;Node12</title>
<g id="a_edge18_Node000014_Node000012"><a xlink:title=" ">
<path fill="none" stroke="#63b8ff" d="M370.89,-584.15C357.94,-584.15 344.69,-584.15 332.51,-584.15"/>
<polygon fill="#63b8ff" stroke="#63b8ff" points="370.64,-587.65 380.64,-584.15 370.64,-580.65 370.64,-587.65"/>
</a>
</g>
</g>
<!-- Node15&#45;&gt;Node12 -->
<g id="edge21_Node000015_Node000012" class="edge">
<title>Node15&#45;&gt;Node12</title>
<g id="a_edge21_Node000015_Node000012"><a xlink:title=" ">
<path fill="none" stroke="#63b8ff" d="M393.41,-553.55C369.93,-560.03 342.17,-567.69 320.3,-573.72"/>
<polygon fill="#63b8ff" stroke="#63b8ff" points="394.03,-557.01 402.74,-550.98 392.17,-550.26 394.03,-557.01"/>
</a>
</g>
</g>
<!-- Node16&#45;&gt;Node13 -->
<g id="edge24_Node000016_Node000013" class="edge">
<title>Node16&#45;&gt;Node13</title>
<g id="a_edge24_Node000016_Node000013"><a xlink:title=" ">
<path fill="none" stroke="#63b8ff" d="M249.51,-467.58C219.67,-452.58 175.39,-430.33 149.71,-417.43"/>
<polygon fill="#63b8ff" stroke="#63b8ff" points="247.93,-470.7 258.43,-472.06 251.07,-464.44 247.93,-470.7"/>
</a>
</g>
</g>
<!-- Node17&#45;&gt;Node13 -->
<g id="edge30_Node000017_Node000013" class="edge">
<title>Node17&#45;&gt;Node13</title>
<g id="a_edge30_Node000017_Node000013"><a xlink:title=" ">
<path fill="none" stroke="#63b8ff" d="M555.48,-343.92C539.98,-347.89 522.57,-352.03 506.5,-355.15 381.07,-379.48 230.04,-396.71 163.53,-403.69"/>
<polygon fill="#63b8ff" stroke="#63b8ff" points="556.12,-347.37 564.92,-341.47 554.36,-340.6 556.12,-347.37"/>
</a>
</g>
</g>
<!-- Node18 -->
<g id="Node000018" class="node">
<title>Node18</title>
<g id="a_Node000018"><a xlink:href="mob_8c.html#af2bb33cec05837a53c00e0f901d38c68" target="_top" xlink:title="Initialise mobs et prepare les ressources necessaires.">
<polygon fill="white" stroke="#666666" points="310.5,-303.15 252.5,-303.15 252.5,-283.15 310.5,-283.15 310.5,-303.15"/>
<text xml:space="preserve" text-anchor="middle" x="281.5" y="-289.65" font-family="Helvetica,sans-Serif" font-size="10.00">init_mobs</text>
</a>
</g>
</g>
<!-- Node17&#45;&gt;Node18 -->
<g id="edge28_Node000017_Node000018" class="edge">
<title>Node17&#45;&gt;Node18</title>
<g id="a_edge28_Node000017_Node000018"><a xlink:title=" ">
<path fill="none" stroke="#63b8ff" d="M571.84,-315.73C553.48,-307.22 529.25,-297.51 506.5,-293.15 437.18,-279.86 353.56,-285.42 310.76,-289.77"/>
<polygon fill="#63b8ff" stroke="#63b8ff" points="570.29,-318.86 580.82,-320.03 573.31,-312.55 570.29,-318.86"/>
</a>
</g>
</g>
<!-- Node19 -->
<g id="Node000019" class="node">
<title>Node19</title>
<g id="a_Node000019"><a xlink:href="mob_8c.html#ad937d045795912d2cc7b363b7d2d19b8" target="_top" xlink:title=" ">
<polygon fill="white" stroke="#666666" points="506.5,-322.15 379.5,-322.15 379.5,-302.15 506.5,-302.15 506.5,-322.15"/>
<text xml:space="preserve" text-anchor="middle" x="443" y="-308.65" font-family="Helvetica,sans-Serif" font-size="10.00">spawn_one_mob_of_type</text>
</a>
</g>
</g>
<!-- Node17&#45;&gt;Node19 -->
<g id="edge31_Node000017_Node000019" class="edge">
<title>Node17&#45;&gt;Node19</title>
<g id="a_edge31_Node000017_Node000019"><a xlink:title=" ">
<path fill="none" stroke="#63b8ff" d="M554.98,-325.49C539.83,-323.67 522.79,-321.62 506.7,-319.69"/>
<polygon fill="#63b8ff" stroke="#63b8ff" points="554.3,-328.94 564.64,-326.66 555.13,-321.99 554.3,-328.94"/>
</a>
</g>
</g>
<!-- Node20 -->
<g id="Node000020" class="node">
<title>Node20</title>
<g id="a_Node000020"><a xlink:href="mob_8c.html#a1f766d8b9a9348d960e6f211fce5d558" target="_top" xlink:title="Met a jour mobs en fonction de l&#39;etat courant du jeu.">
<polygon fill="white" stroke="#666666" points="318.75,-360.15 244.25,-360.15 244.25,-340.15 318.75,-340.15 318.75,-360.15"/>
<text xml:space="preserve" text-anchor="middle" x="281.5" y="-346.65" font-family="Helvetica,sans-Serif" font-size="10.00">update_mobs</text>
</a>
</g>
</g>
<!-- Node17&#45;&gt;Node20 -->
<g id="edge37_Node000017_Node000020" class="edge">
<title>Node17&#45;&gt;Node20</title>
<g id="a_edge37_Node000017_Node000020"><a xlink:title=" ">
<path fill="none" stroke="#63b8ff" d="M554.89,-333.95C490.7,-337.77 377.09,-344.52 318.97,-347.98"/>
<polygon fill="#63b8ff" stroke="#63b8ff" points="554.99,-337.45 564.77,-333.36 554.58,-330.46 554.99,-337.45"/>
</a>
</g>
</g>
<!-- Node21 -->
<g id="Node000021" class="node">
<title>Node21</title>
<g id="a_Node000021"><a xlink:href="perso_8c.html#a8ed2806e634464929c59457d470b930b" target="_top" xlink:title="Evalue les collisions de combat (joueur/mobs/items) pour la frame courante.">
<polygon fill="white" stroke="#666666" points="502.38,-436.15 383.62,-436.15 383.62,-416.15 502.38,-416.15 502.38,-436.15"/>
<text xml:space="preserve" text-anchor="middle" x="443" y="-422.65" font-family="Helvetica,sans-Serif" font-size="10.00">tester_collision_combat</text>
</a>
</g>
</g>
<!-- Node17&#45;&gt;Node21 -->
<g id="edge34_Node000017_Node000021" class="edge">
<title>Node17&#45;&gt;Node21</title>
<g id="a_edge34_Node000017_Node000021"><a xlink:title=" ">
<path fill="none" stroke="#63b8ff" d="M581.61,-348.9C563,-364.44 534.25,-386.88 506.5,-402.15 497.03,-407.36 486.19,-411.95 476.23,-415.69"/>
<polygon fill="#63b8ff" stroke="#63b8ff" points="583.85,-351.59 589.21,-342.45 579.32,-346.25 583.85,-351.59"/>
</a>
</g>
</g>
<!-- Node18&#45;&gt;Node13 -->
<g id="edge29_Node000018_Node000013" class="edge">
<title>Node18&#45;&gt;Node13</title>
<g id="a_edge29_Node000018_Node000013"><a xlink:title=" ">
<path fill="none" stroke="#63b8ff" d="M252.57,-309.39C241.99,-315.84 229.98,-323.53 219.5,-331.15 189.67,-352.83 157.17,-381.59 140.5,-396.76"/>
<polygon fill="#63b8ff" stroke="#63b8ff" points="254.1,-312.56 260.88,-304.41 250.5,-306.55 254.1,-312.56"/>
</a>
</g>
</g>
<!-- Node19&#45;&gt;Node20 -->
<g id="edge32_Node000019_Node000020" class="edge">
<title>Node19&#45;&gt;Node20</title>
<g id="a_edge32_Node000019_Node000020"><a xlink:title=" ">
<path fill="none" stroke="#63b8ff" d="M386.91,-325.27C364.49,-330.62 339.18,-336.65 319.09,-341.43"/>
<polygon fill="#63b8ff" stroke="#63b8ff" points="387.6,-328.71 396.52,-322.98 385.98,-321.9 387.6,-328.71"/>
</a>
</g>
</g>
<!-- Node20&#45;&gt;Node13 -->
<g id="edge33_Node000020_Node000013" class="edge">
<title>Node20&#45;&gt;Node13</title>
<g id="a_edge33_Node000020_Node000013"><a xlink:title=" ">
<path fill="none" stroke="#63b8ff" d="M242.31,-364.54C215.77,-374.54 181.01,-387.64 157.07,-396.66"/>
<polygon fill="#63b8ff" stroke="#63b8ff" points="243.22,-367.94 251.34,-361.14 240.75,-361.39 243.22,-367.94"/>
</a>
</g>
</g>
<!-- Node21&#45;&gt;Node22 -->
<g id="edge35_Node000021_Node000022" class="edge">
<title>Node21&#45;&gt;Node22</title>
<g id="a_edge35_Node000021_Node000022"><a xlink:title=" ">
<path fill="none" stroke="#63b8ff" d="M372.04,-426.15C355.29,-426.15 337.94,-426.15 323.04,-426.15"/>
<polygon fill="#63b8ff" stroke="#63b8ff" points="372,-429.65 382,-426.15 372,-422.65 372,-429.65"/>
</a>
</g>
</g>
<!-- Node22&#45;&gt;Node13 -->
<g id="edge36_Node000022_Node000013" class="edge">
<title>Node22&#45;&gt;Node13</title>
<g id="a_edge36_Node000022_Node000013"><a xlink:title=" ">
<path fill="none" stroke="#63b8ff" d="M228.72,-419.64C207.26,-416.95 182.95,-413.89 163.74,-411.48"/>
<polygon fill="#63b8ff" stroke="#63b8ff" points="228.11,-423.09 238.47,-420.87 228.98,-416.15 228.11,-423.09"/>
</a>
</g>
</g>
<!-- Node23&#45;&gt;Node8 -->
<g id="edge40_Node000023_Node000008" class="edge">
<title>Node23&#45;&gt;Node8</title>
<g id="a_edge40_Node000023_Node000008"><a xlink:title=" ">
<path fill="none" stroke="#63b8ff" d="M741.82,-139.25C730.14,-109.83 704.52,-57 663.5,-32.15 579.57,18.7 542.14,-8.15 444,-8.15 444,-8.15 444,-8.15 280.5,-8.15 187.89,-8.15 153.17,19.22 73,-27.15 46.88,-42.26 30.37,-75.84 23.37,-92.85"/>
<polygon fill="#63b8ff" stroke="#63b8ff" points="738.51,-140.41 745.32,-148.53 745.06,-137.94 738.51,-140.41"/>
</a>
</g>
</g>
</g>
</svg>
