<?xml version="1.0" encoding="UTF-8" standalone="no"?>
<!DOCTYPE svg PUBLIC "-//W3C//DTD SVG 1.1//EN"
 "http://www.w3.org/Graphics/SVG/1.1/DTD/svg11.dtd">
<!-- Generated by graphviz version 14.1.4 (20260321.0153)
 -->
<!-- Title: son_precharger_sfx Pages: 1 -->
<svg width="345pt" height="28pt"
 viewBox="0.00 0.00 345.00 28.00" xmlns="http://www.w3.org/2000/svg" xmlns:xlink="http://www.w3.org/1999/xlink">
<g id="graph0" class="graph" transform="scale(1 1) rotate(0) translate(4 24)">
<title>son_precharger_sfx</title>
<!-- Node1 -->
<g id="Node000001" class="node">
<title>Node1</title>
<g id="a_Node000001"><a xlink:title="Precharge les effets sonores frequents dans le cache audio.">
<polygon fill="#999999" stroke="#666666" points="101.5,-20 0,-20 0,0 101.5,0 101.5,-20"/>
<text xml:space="preserve" text-anchor="middle" x="50.75" y="-6.5" font-family="Helvetica,sans-Serif" font-size="10.00">son_precharger_sfx</text>
</a>
</g>
</g>
<!-- Node2 -->
<g id="Node000002" class="node">
<title>Node2</title>
<g id="a_Node000002"><a xlink:href="son_8c.html#ad0d6e981433bdc8e4291e672fa8c039b" target="_top" xlink:title=" ">
<polygon fill="white" stroke="#666666" points="215,-20 137.5,-20 137.5,0 215,0 215,-20"/>
<text xml:space="preserve" text-anchor="middle" x="176.25" y="-6.5" font-family="Helvetica,sans-Serif" font-size="10.00">recuperer_son</text>
</a>
</g>
</g>
<!-- Node1&#45;&gt;Node2 -->
<g id="edge1_Node000001_Node000002" class="edge">
<title>Node1&#45;&gt;Node2</title>
<g id="a_edge1_Node000001_Node000002"><a xlink:title=" ">
<path fill="none" stroke="#63b8ff" d="M101.98,-10C109.88,-10 118.04,-10 125.91,-10"/>
<polygon fill="#63b8ff" stroke="#63b8ff" points="125.67,-13.5 135.67,-10 125.67,-6.5 125.67,-13.5"/>
</a>
</g>
</g>
<!-- Node3 -->
<g id="Node000003" class="node">
<title>Node3</title>
<g id="a_Node000003"><a xlink:href="son_8c.html#aad43af6485e6418e4f26007ec64dba14" target="_top" xlink:title=" ">
<polygon fill="white" stroke="#666666" points="336.75,-20 251,-20 251,0 336.75,0 336.75,-20"/>
<text xml:space="preserve" text-anchor="middle" x="293.88" y="-6.5" font-family="Helvetica,sans-Serif" font-size="10.00">recuperer_mixer</text>
</a>
</g>
</g>
<!-- Node2&#45;&gt;Node3 -->
<g id="edge2_Node000002_Node000003" class="edge">
<title>Node2&#45;&gt;Node3</title>
<g id="a_edge2_Node000002_Node000003"><a xlink:title=" ">
<path fill="none" stroke="#63b8ff" d="M215.43,-10C223.12,-10 231.34,-10 239.44,-10"/>
<polygon fill="#63b8ff" stroke="#63b8ff" points="239.23,-13.5 249.23,-10 239.23,-6.5 239.23,-13.5"/>
</a>
</g>
</g>
</g>
</svg>
