<?xml version="1.0" encoding="UTF-8" standalone="no"?>
<!DOCTYPE svg PUBLIC "-//W3C//DTD SVG 1.1//EN"
 "http://www.w3.org/Graphics/SVG/1.1/DTD/svg11.dtd">
<!-- Generated by graphviz version 14.1.4 (20260321.0153)
 -->
<!-- Title: src/headers/son.h Pages: 1 -->
<svg width="498pt" height="84pt"
 viewBox="0.00 0.00 498.00 84.00" xmlns="http://www.w3.org/2000/svg" xmlns:xlink="http://www.w3.org/1999/xlink">
<g id="graph0" class="graph" transform="scale(1 1) rotate(0) translate(4 80)">
<title>src/headers/son.h</title>
<!-- Node1 -->
<g id="Node000001" class="node">
<title>Node1</title>
<g id="a_Node000001"><a xlink:title="Fichier audio: musique, effets sonores et etats d&#39;activation.">
<polygon fill="#999999" stroke="#666666" points="270.75,-76 176.75,-76 176.75,-56 270.75,-56 270.75,-76"/>
<text xml:space="preserve" text-anchor="middle" x="223.75" y="-62.5" font-family="Helvetica,sans-Serif" font-size="10.00">src/headers/son.h</text>
</a>
</g>
</g>
<!-- Node2 -->
<g id="Node000002" class="node">
<title>Node2</title>
<g id="a_Node000002"><a xlink:title=" ">
<polygon fill="#e0e0e0" stroke="#999999" points="71.5,-20 0,-20 0,0 71.5,0 71.5,-20"/>
<text xml:space="preserve" text-anchor="middle" x="35.75" y="-6.5" font-family="Helvetica,sans-Serif" font-size="10.00">SDL3/SDL.h</text>
</a>
</g>
</g>
<!-- Node1&#45;&gt;Node2 -->
<g id="edge1_Node000001_Node000002" class="edge">
<title>Node1&#45;&gt;Node2</title>
<g id="a_edge1_Node000001_Node000002"><a xlink:title=" ">
<path fill="none" stroke="#63b8ff" d="M191,-55.59C160.19,-46.74 113.83,-33.43 79.78,-23.65"/>
<polygon fill="#63b8ff" stroke="#63b8ff" points="80.78,-20.29 70.21,-20.9 78.85,-27.02 80.78,-20.29"/>
</a>
</g>
</g>
<!-- Node3 -->
<g id="Node000003" class="node">
<title>Node3</title>
<g id="a_Node000003"><a xlink:title=" ">
<polygon fill="#e0e0e0" stroke="#999999" points="224,-20 89.5,-20 89.5,0 224,0 224,-20"/>
<text xml:space="preserve" text-anchor="middle" x="156.75" y="-6.5" font-family="Helvetica,sans-Serif" font-size="10.00">SDL3_image/SDL_image.h</text>
</a>
</g>
</g>
<!-- Node1&#45;&gt;Node3 -->
<g id="edge2_Node000001_Node000003" class="edge">
<title>Node1&#45;&gt;Node3</title>
<g id="a_edge2_Node000001_Node000003"><a xlink:title=" ">
<path fill="none" stroke="#63b8ff" d="M212.08,-55.59C202.47,-47.85 188.62,-36.69 177.18,-27.47"/>
<polygon fill="#63b8ff" stroke="#63b8ff" points="179.45,-24.8 169.47,-21.25 175.05,-30.25 179.45,-24.8"/>
</a>
</g>
</g>
<!-- Node4 -->
<g id="Node000004" class="node">
<title>Node4</title>
<g id="a_Node000004"><a xlink:title=" ">
<polygon fill="#e0e0e0" stroke="#999999" points="341.75,-20 241.75,-20 241.75,0 341.75,0 341.75,-20"/>
<text xml:space="preserve" text-anchor="middle" x="291.75" y="-6.5" font-family="Helvetica,sans-Serif" font-size="10.00">SDL3_ttf/SDL_ttf.h</text>
</a>
</g>
</g>
<!-- Node1&#45;&gt;Node4 -->
<g id="edge3_Node000001_Node000004" class="edge">
<title>Node1&#45;&gt;Node4</title>
<g id="a_edge3_Node000001_Node000004"><a xlink:title=" ">
<path fill="none" stroke="#63b8ff" d="M235.59,-55.59C245.44,-47.77 259.68,-36.46 271.36,-27.19"/>
<polygon fill="#63b8ff" stroke="#63b8ff" points="273.2,-30.2 278.86,-21.24 268.85,-24.72 273.2,-30.2"/>
</a>
</g>
</g>
<!-- Node5 -->
<g id="Node000005" class="node">
<title>Node5</title>
<g id="a_Node000005"><a xlink:title=" ">
<polygon fill="#e0e0e0" stroke="#999999" points="489.75,-20 359.75,-20 359.75,0 489.75,0 489.75,-20"/>
<text xml:space="preserve" text-anchor="middle" x="424.75" y="-6.5" font-family="Helvetica,sans-Serif" font-size="10.00">SDL3_mixer/SDL_mixer.h</text>
</a>
</g>
</g>
<!-- Node1&#45;&gt;Node5 -->
<g id="edge4_Node000001_Node000005" class="edge">
<title>Node1&#45;&gt;Node5</title>
<g id="a_edge4_Node000001_Node000005"><a xlink:title=" ">
<path fill="none" stroke="#63b8ff" d="M258.76,-55.59C291.99,-46.67 342.14,-33.19 378.62,-23.39"/>
<polygon fill="#63b8ff" stroke="#63b8ff" points="379.25,-26.85 388,-20.87 377.44,-20.09 379.25,-26.85"/>
</a>
</g>
</g>
</g>
</svg>
