<?xml version="1.0" encoding="UTF-8" standalone="no"?>
<!DOCTYPE svg PUBLIC "-//W3C//DTD SVG 1.1//EN"
 "http://www.w3.org/Graphics/SVG/1.1/DTD/svg11.dtd">
<!-- Generated by graphviz version 14.1.4 (20260321.0153)
 -->
<!-- Title: src/son.c Pages: 1 -->
<!--zoomable 196 -->

<svg id="main" version="1.1" xmlns="http://www.w3.org/2000/svg" xmlns:xlink="http://www.w3.org/1999/xlink" xml:space="preserve" onload="init(evt)">

<style type="text/css"><![CDATA[
.node, .edge {opacity: 0.7;}
.node.selected, .edge.selected {opacity: 1;}
.edge:hover path { stroke: red; }
.edge:hover polygon { stroke: red; fill: red; }
]]></style>

<defs>
  <circle id="rim" cx="0" cy="0" r="7"/>
  <circle id="rim2" cx="0" cy="0" r="3.5"/>
  <g id="zoomPlus">
    <use xlink:href="#rim" fill="#404040"><set attributeName="fill" to="#808080" begin="zoomplus.mouseover" end="zoomplus.mouseout"/></use>
    <path d="M-4,0h8M0,-4v8" fill="none" stroke="white" stroke-width="1.5" pointer-events="none"/>
  </g>
  <g id="zoomMin">
    <use xlink:href="#rim" fill="#404040"><set attributeName="fill" to="#808080" begin="zoomminus.mouseover" end="zoomminus.mouseout"/></use>
    <path d="M-4,0h8" fill="none" stroke="white" stroke-width="1.5" pointer-events="none"/>
  </g>
  <g id="arrowUp" transform="translate(30 24)">
    <use xlink:href="#rim"/>
    <path pointer-events="none" fill="none" stroke="white" stroke-width="1.5" d="M0,-3.0v7 M-2.5,-0.5L0,-3.0L2.5,-0.5"/>
  </g>
  <g id="arrowRight" transform="rotate(90) translate(36 -43)">
    <use xlink:href="#rim"/>
    <path pointer-events="none" fill="none" stroke="white" stroke-width="1.5" d="M0,-3.0v7 M-2.5,-0.5L0,-3.0L2.5,-0.5"/>
  </g>
  <g id="arrowDown" transform="rotate(180) translate(-30 -48)">
    <use xlink:href="#rim"/>
    <path pointer-events="none" fill="none" stroke="white" stroke-width="1.5" d="M0,-3.0v7 M-2.5,-0.5L0,-3.0L2.5,-0.5"/>
  </g>
  <g id="arrowLeft" transform="rotate(270) translate(-36 17)">
    <use xlink:href="#rim"/>
    <path pointer-events="none" fill="none" stroke="white" stroke-width="1.5" d="M0,-3.0v7 M-2.5,-0.5L0,-3.0L2.5,-0.5"/>
  </g>
  <g id="resetDef">
    <use xlink:href="#rim2" fill="#404040"><set attributeName="fill" to="#808080" begin="reset.mouseover" end="reset.mouseout"/></use>
  </g>
</defs>
<script type="application/ecmascript">
var viewWidth = 1667;
var viewHeight = 196;
var sectionId = 'dynsection-0';
</script>
<script type="application/ecmascript" xlink:href="svg.min.js"/>
<svg id="graph" class="graph">
<g id="viewport">
<title>src/son.c</title>
<!-- Node1 -->
<g id="Node000001" class="node">
<title>Node1</title>
<g id="a_Node000001"><a xlink:title="Gestion des musiques, des effets sonores et de leur etat.">
<polygon fill="#999999" stroke="#666666" points="1141.25,-188 1084.75,-188 1084.75,-168 1141.25,-168 1141.25,-188"/>
<text xml:space="preserve" text-anchor="middle" x="1113" y="-174.5" font-family="Helvetica,sans-Serif" font-size="10.00">src/son.c</text>
</a>
</g>
</g>
<!-- Node2 -->
<g id="Node000002" class="node">
<title>Node2</title>
<g id="a_Node000002"><a xlink:title=" ">
<polygon fill="#e0e0e0" stroke="#999999" points="869.75,-20 798.25,-20 798.25,0 869.75,0 869.75,-20"/>
<text xml:space="preserve" text-anchor="middle" x="834" y="-6.5" font-family="Helvetica,sans-Serif" font-size="10.00">SDL3/SDL.h</text>
</a>
</g>
</g>
<!-- Node1&#45;&gt;Node2 -->
<g id="edge1_Node000001_Node000002" class="edge">
<title>Node1&#45;&gt;Node2</title>
<g id="a_edge1_Node000001_Node000002"><a xlink:title=" ">
<path fill="none" stroke="#63b8ff" d="M1141.44,-175.92C1234.82,-171.46 1521.2,-149.97 1434,-56 1397.55,-16.71 1006.44,-24.02 953,-20 929.45,-18.23 903.27,-16.25 881.48,-14.6"/>
<polygon fill="#63b8ff" stroke="#63b8ff" points="881.94,-11.12 871.7,-13.86 881.41,-18.1 881.94,-11.12"/>
</a>
</g>
</g>
<!-- Node3 -->
<g id="Node000003" class="node">
<title>Node3</title>
<g id="a_Node000003"><a xlink:title=" ">
<polygon fill="#e0e0e0" stroke="#999999" points="653.25,-20 518.75,-20 518.75,0 653.25,0 653.25,-20"/>
<text xml:space="preserve" text-anchor="middle" x="586" y="-6.5" font-family="Helvetica,sans-Serif" font-size="10.00">SDL3_image/SDL_image.h</text>
</a>
</g>
</g>
<!-- Node1&#45;&gt;Node3 -->
<g id="edge2_Node000001_Node000003" class="edge">
<title>Node1&#45;&gt;Node3</title>
<g id="a_edge2_Node000001_Node000003"><a xlink:title=" ">
<path fill="none" stroke="#63b8ff" d="M1084.39,-176.57C920.64,-173.79 106.89,-156.03 34,-76 28.01,-69.43 27.98,-62.54 34,-56 65.37,-21.97 361.79,-13.67 506.83,-11.65"/>
<polygon fill="#63b8ff" stroke="#63b8ff" points="506.81,-15.15 516.76,-11.52 506.71,-8.15 506.81,-15.15"/>
</a>
</g>
</g>
<!-- Node4 -->
<g id="Node000004" class="node">
<title>Node4</title>
<g id="a_Node000004"><a xlink:title=" ">
<polygon fill="#e0e0e0" stroke="#999999" points="1062,-20 962,-20 962,0 1062,0 1062,-20"/>
<text xml:space="preserve" text-anchor="middle" x="1012" y="-6.5" font-family="Helvetica,sans-Serif" font-size="10.00">SDL3_ttf/SDL_ttf.h</text>
</a>
</g>
</g>
<!-- Node1&#45;&gt;Node4 -->
<g id="edge3_Node000001_Node000004" class="edge">
<title>Node1&#45;&gt;Node4</title>
<g id="a_edge3_Node000001_Node000004"><a xlink:title=" ">
<path fill="none" stroke="#63b8ff" d="M1141.38,-177.15C1202.56,-176.67 1350.76,-171.17 1467,-132 1518.9,-114.51 1601.12,-96.27 1564,-56 1531.31,-20.54 1210.75,-13.02 1073.67,-11.43"/>
<polygon fill="#63b8ff" stroke="#63b8ff" points="1073.71,-7.93 1063.67,-11.32 1073.63,-14.93 1073.71,-7.93"/>
</a>
</g>
</g>
<!-- Node5 -->
<g id="Node000005" class="node">
<title>Node5</title>
<g id="a_Node000005"><a xlink:title=" ">
<polygon fill="#e0e0e0" stroke="#999999" points="130,-20 0,-20 0,0 130,0 130,-20"/>
<text xml:space="preserve" text-anchor="middle" x="65" y="-6.5" font-family="Helvetica,sans-Serif" font-size="10.00">SDL3_mixer/SDL_mixer.h</text>
</a>
</g>
</g>
<!-- Node1&#45;&gt;Node5 -->
<g id="edge4_Node000001_Node000005" class="edge">
<title>Node1&#45;&gt;Node5</title>
<g id="a_edge4_Node000001_Node000005"><a xlink:title=" ">
<path fill="none" stroke="#63b8ff" d="M1084.63,-176.46C933.18,-173.45 223.16,-158.04 129,-132 78.4,-118.01 51.92,-121.07 25,-76 15.15,-59.51 29.27,-40.86 43.38,-27.78"/>
<polygon fill="#63b8ff" stroke="#63b8ff" points="45.49,-30.58 50.8,-21.41 40.93,-25.27 45.49,-30.58"/>
</a>
</g>
</g>
<!-- Node6 -->
<g id="Node000006" class="node">
<title>Node6</title>
<g id="a_Node000006"><a xlink:href="main_8h.html" target="_top" xlink:title="Declarations globales et utilitaires partages entre les modules du jeu.">
<polygon fill="white" stroke="#666666" points="784.38,-132 701.62,-132 701.62,-112 784.38,-112 784.38,-132"/>
<text xml:space="preserve" text-anchor="middle" x="743" y="-118.5" font-family="Helvetica,sans-Serif" font-size="10.00">headers/main.h</text>
</a>
</g>
</g>
<!-- Node1&#45;&gt;Node6 -->
<g id="edge5_Node000001_Node000006" class="edge">
<title>Node1&#45;&gt;Node6</title>
<g id="a_edge5_Node000001_Node000006"><a xlink:title=" ">
<path fill="none" stroke="#63b8ff" d="M1084.27,-172.81C1022.29,-163.76 875.21,-142.3 795.89,-130.72"/>
<polygon fill="#63b8ff" stroke="#63b8ff" points="796.59,-127.28 786.19,-129.3 795.58,-134.21 796.59,-127.28"/>
</a>
</g>
</g>
<!-- Node28 -->
<g id="Node000028" class="node">
<title>Node28</title>
<g id="a_Node000028"><a xlink:title=" ">
<polygon fill="#e0e0e0" stroke="#999999" points="1659.12,-132 1610.88,-132 1610.88,-112 1659.12,-112 1659.12,-132"/>
<text xml:space="preserve" text-anchor="middle" x="1635" y="-118.5" font-family="Helvetica,sans-Serif" font-size="10.00">string.h</text>
</a>
</g>
</g>
<!-- Node1&#45;&gt;Node28 -->
<g id="edge66_Node000001_Node000028" class="edge">
<title>Node1&#45;&gt;Node28</title>
<g id="a_edge66_Node000001_Node000028"><a xlink:title=" ">
<path fill="none" stroke="#63b8ff" d="M1141.54,-175.74C1216.59,-172.13 1425.45,-160.15 1597,-132 1597.83,-131.86 1598.66,-131.72 1599.51,-131.57"/>
<polygon fill="#63b8ff" stroke="#63b8ff" points="1599.99,-135.04 1609.09,-129.62 1598.59,-128.18 1599.99,-135.04"/>
</a>
</g>
</g>
<!-- Node6&#45;&gt;Node2 -->
<g id="edge6_Node000006_Node000002" class="edge">
<title>Node6&#45;&gt;Node2</title>
<g id="a_edge6_Node000006_Node000002"><a xlink:title=" ">
<path fill="none" stroke="#63b8ff" d="M784.52,-119.56C884.37,-115.67 1131.47,-103.35 1156,-76 1161.94,-69.38 1161.83,-62.71 1156,-56 1138.26,-35.61 966.89,-20.55 881.65,-14.25"/>
<polygon fill="#63b8ff" stroke="#63b8ff" points="881.96,-10.76 871.73,-13.53 881.45,-17.74 881.96,-10.76"/>
</a>
</g>
</g>
<!-- Node6&#45;&gt;Node3 -->
<g id="edge7_Node000006_Node000003" class="edge">
<title>Node6&#45;&gt;Node3</title>
<g id="a_edge7_Node000006_Node000003"><a xlink:title=" ">
<path fill="none" stroke="#63b8ff" d="M701.15,-119.63C599.86,-115.88 348,-103.82 323,-76 317.06,-69.39 317.27,-62.79 323,-56 346.23,-28.45 438.37,-17.77 507.08,-13.62"/>
<polygon fill="#63b8ff" stroke="#63b8ff" points="507.02,-17.13 516.81,-13.08 506.63,-10.14 507.02,-17.13"/>
</a>
</g>
</g>
<!-- Node6&#45;&gt;Node5 -->
<g id="edge9_Node000006_Node000005" class="edge">
<title>Node6&#45;&gt;Node5</title>
<g id="a_edge9_Node000006_Node000005"><a xlink:title=" ">
<path fill="none" stroke="#63b8ff" d="M701.27,-119.91C552.68,-115.84 56.95,-100.45 34,-76 21.25,-62.41 33.86,-42.61 46.61,-28.44"/>
<polygon fill="#63b8ff" stroke="#63b8ff" points="48.86,-31.15 53.3,-21.53 43.83,-26.28 48.86,-31.15"/>
</a>
</g>
</g>
<!-- Node7 -->
<g id="Node000007" class="node">
<title>Node7</title>
<g id="a_Node000007"><a xlink:title=" ">
<polygon fill="#e0e0e0" stroke="#999999" points="1425,-76 1379,-76 1379,-56 1425,-56 1425,-76"/>
<text xml:space="preserve" text-anchor="middle" x="1402" y="-62.5" font-family="Helvetica,sans-Serif" font-size="10.00">math.h</text>
</a>
</g>
</g>
<!-- Node6&#45;&gt;Node7 -->
<g id="edge8_Node000006_Node000007" class="edge">
<title>Node6&#45;&gt;Node7</title>
<g id="a_edge8_Node000006_Node000007"><a xlink:title=" ">
<path fill="none" stroke="#63b8ff" d="M784.81,-120.91C884.35,-120.08 1143.24,-114.27 1367.39,-76.1"/>
<polygon fill="#63b8ff" stroke="#63b8ff" points="1367.96,-79.55 1377.22,-74.4 1366.77,-72.66 1367.96,-79.55"/>
</a>
</g>
</g>
<!-- Node8 -->
<g id="Node000008" class="node">
<title>Node8</title>
<g id="a_Node000008"><a xlink:title=" ">
<polygon fill="#e0e0e0" stroke="#999999" points="210.62,-76 165.38,-76 165.38,-56 210.62,-56 210.62,-76"/>
<text xml:space="preserve" text-anchor="middle" x="188" y="-62.5" font-family="Helvetica,sans-Serif" font-size="10.00">stdio.h</text>
</a>
</g>
</g>
<!-- Node6&#45;&gt;Node8 -->
<g id="edge10_Node000006_Node000008" class="edge">
<title>Node6&#45;&gt;Node8</title>
<g id="a_edge10_Node000006_Node000008"><a xlink:title=" ">
<path fill="none" stroke="#63b8ff" d="M701.19,-120.2C613.69,-117.92 404.87,-109.37 222.07,-76.25"/>
<polygon fill="#63b8ff" stroke="#63b8ff" points="222.86,-72.84 212.39,-74.47 221.59,-79.72 222.86,-72.84"/>
</a>
</g>
</g>
<!-- Node9 -->
<g id="Node000009" class="node">
<title>Node9</title>
<g id="a_Node000009"><a xlink:title=" ">
<polygon fill="#e0e0e0" stroke="#999999" points="275.75,-76 228.25,-76 228.25,-56 275.75,-56 275.75,-76"/>
<text xml:space="preserve" text-anchor="middle" x="252" y="-62.5" font-family="Helvetica,sans-Serif" font-size="10.00">stdlib.h</text>
</a>
</g>
</g>
<!-- Node6&#45;&gt;Node9 -->
<g id="edge11_Node000006_Node000009" class="edge">
<title>Node6&#45;&gt;Node9</title>
<g id="a_edge11_Node000006_Node000009"><a xlink:title=" ">
<path fill="none" stroke="#63b8ff" d="M701.22,-118.72C621.05,-113.93 440.25,-101.14 290,-76 289.01,-75.83 288,-75.66 286.98,-75.47"/>
<polygon fill="#63b8ff" stroke="#63b8ff" points="288.01,-72.11 277.51,-73.51 286.59,-78.96 288.01,-72.11"/>
</a>
</g>
</g>
<!-- Node10 -->
<g id="Node000010" class="node">
<title>Node10</title>
<g id="a_Node000010"><a xlink:href="menu_8h.html" target="_top" xlink:title="Fichier du menu principal et des choix de navigation.">
<polygon fill="white" stroke="#666666" points="920.12,-76 871.88,-76 871.88,-56 920.12,-56 920.12,-76"/>
<text xml:space="preserve" text-anchor="middle" x="896" y="-62.5" font-family="Helvetica,sans-Serif" font-size="10.00">menu.h</text>
</a>
</g>
</g>
<!-- Node6&#45;&gt;Node10 -->
<g id="edge12_Node000006_Node000010" class="edge">
<title>Node6&#45;&gt;Node10</title>
<g id="a_edge12_Node000006_Node000010"><a xlink:title=" ">
<path fill="none" stroke="#63b8ff" d="M769.65,-111.59C794.86,-102.7 832.86,-89.29 860.6,-79.49"/>
<polygon fill="#63b8ff" stroke="#63b8ff" points="861.73,-82.81 870,-76.18 859.4,-76.21 861.73,-82.81"/>
</a>
</g>
</g>
<!-- Node11 -->
<g id="Node000011" class="node">
<title>Node11</title>
<g id="a_Node000011"><a xlink:href="game__over_8h.html" target="_top" xlink:title="Fichier de l&#39;ecran de fin de partie et des transitions associees.">
<polygon fill="white" stroke="#666666" points="404.12,-76 331.88,-76 331.88,-56 404.12,-56 404.12,-76"/>
<text xml:space="preserve" text-anchor="middle" x="368" y="-62.5" font-family="Helvetica,sans-Serif" font-size="10.00">game_over.h</text>
</a>
</g>
</g>
<!-- Node6&#45;&gt;Node11 -->
<g id="edge15_Node000006_Node000011" class="edge">
<title>Node6&#45;&gt;Node11</title>
<g id="a_edge15_Node000006_Node000011"><a xlink:title=" ">
<path fill="none" stroke="#63b8ff" d="M701.2,-116.14C640.52,-108.9 524.26,-94.35 415.49,-76.33"/>
<polygon fill="#63b8ff" stroke="#63b8ff" points="416.25,-72.91 405.81,-74.71 415.09,-79.81 416.25,-72.91"/>
</a>
</g>
</g>
<!-- Node12 -->
<g id="Node000012" class="node">
<title>Node12</title>
<g id="a_Node000012"><a xlink:href="jeux_8h.html" target="_top" xlink:title="Fichier de la boucle de jeu principale et de son initialisation.">
<polygon fill="white" stroke="#666666" points="147.12,-76 104.88,-76 104.88,-56 147.12,-56 147.12,-76"/>
<text xml:space="preserve" text-anchor="middle" x="126" y="-62.5" font-family="Helvetica,sans-Serif" font-size="10.00">jeux.h</text>
</a>
</g>
</g>
<!-- Node6&#45;&gt;Node12 -->
<g id="edge18_Node000006_Node000012" class="edge">
<title>Node6&#45;&gt;Node12</title>
<g id="a_edge18_Node000006_Node000012"><a xlink:title=" ">
<path fill="none" stroke="#63b8ff" d="M701.33,-120.87C606.35,-119.91 366.6,-113.8 158.63,-76.11"/>
<polygon fill="#63b8ff" stroke="#63b8ff" points="159.45,-72.7 148.98,-74.33 158.18,-79.58 159.45,-72.7"/>
</a>
</g>
</g>
<!-- Node13 -->
<g id="Node000013" class="node">
<title>Node13</title>
<g id="a_Node000013"><a xlink:href="bouton_8h.html" target="_top" xlink:title="Fichier des boutons UI, de leur etat et de la gestion des interactions souris.">
<polygon fill="white" stroke="#666666" points="475.75,-76 422.25,-76 422.25,-56 475.75,-56 475.75,-76"/>
<text xml:space="preserve" text-anchor="middle" x="449" y="-62.5" font-family="Helvetica,sans-Serif" font-size="10.00">bouton.h</text>
</a>
</g>
</g>
<!-- Node6&#45;&gt;Node13 -->
<g id="edge22_Node000006_Node000013" class="edge">
<title>Node6&#45;&gt;Node13</title>
<g id="a_edge22_Node000006_Node000013"><a xlink:title=" ">
<path fill="none" stroke="#63b8ff" d="M701.27,-114.67C652.3,-107.04 568.44,-93.32 487.03,-76.3"/>
<polygon fill="#63b8ff" stroke="#63b8ff" points="488.07,-72.95 477.56,-74.31 486.62,-79.8 488.07,-72.95"/>
</a>
</g>
</g>
<!-- Node14 -->
<g id="Node000014" class="node">
<title>Node14</title>
<g id="a_Node000014"><a xlink:href="option_8h.html" target="_top" xlink:title="Fichier de l&#39;ecran d&#39;options et des reglages de jeu.">
<polygon fill="white" stroke="#666666" points="544.25,-76 493.75,-76 493.75,-56 544.25,-56 544.25,-76"/>
<text xml:space="preserve" text-anchor="middle" x="519" y="-62.5" font-family="Helvetica,sans-Serif" font-size="10.00">option.h</text>
</a>
</g>
</g>
<!-- Node6&#45;&gt;Node14 -->
<g id="edge25_Node000006_Node000014" class="edge">
<title>Node6&#45;&gt;Node14</title>
<g id="a_edge25_Node000006_Node000014"><a xlink:title=" ">
<path fill="none" stroke="#63b8ff" d="M701.78,-111.57C665.66,-103.22 611.44,-90.53 555.75,-76.65"/>
<polygon fill="#63b8ff" stroke="#63b8ff" points="556.62,-73.25 546.07,-74.22 554.92,-80.05 556.62,-73.25"/>
</a>
</g>
</g>
<!-- Node15 -->
<g id="Node000015" class="node">
<title>Node15</title>
<g id="a_Node000015"><a xlink:href="perso_8h.html" target="_top" xlink:title="Fichier du personnage: deplacement, combat, stats et collisions.">
<polygon fill="white" stroke="#666666" points="610.12,-76 561.88,-76 561.88,-56 610.12,-56 610.12,-76"/>
<text xml:space="preserve" text-anchor="middle" x="586" y="-62.5" font-family="Helvetica,sans-Serif" font-size="10.00">perso.h</text>
</a>
</g>
</g>
<!-- Node6&#45;&gt;Node15 -->
<g id="edge28_Node000006_Node000015" class="edge">
<title>Node6&#45;&gt;Node15</title>
<g id="a_edge28_Node000006_Node000015"><a xlink:title=" ">
<path fill="none" stroke="#63b8ff" d="M715.65,-111.59C689.44,-102.58 649.74,-88.92 621.18,-79.1"/>
<polygon fill="#63b8ff" stroke="#63b8ff" points="622.48,-75.85 611.89,-75.9 620.2,-82.47 622.48,-75.85"/>
</a>
</g>
</g>
<!-- Node16 -->
<g id="Node000016" class="node">
<title>Node16</title>
<g id="a_Node000016"><a xlink:href="son_8h.html" target="_top" xlink:title="Fichier audio: musique, effets sonores et etats d&#39;activation.">
<polygon fill="white" stroke="#666666" points="854,-76 814,-76 814,-56 854,-56 854,-76"/>
<text xml:space="preserve" text-anchor="middle" x="834" y="-62.5" font-family="Helvetica,sans-Serif" font-size="10.00">son.h</text>
</a>
</g>
</g>
<!-- Node6&#45;&gt;Node16 -->
<g id="edge31_Node000006_Node000016" class="edge">
<title>Node6&#45;&gt;Node16</title>
<g id="a_edge31_Node000006_Node000016"><a xlink:title=" ">
<path fill="none" stroke="#63b8ff" d="M758.85,-111.59C772.47,-103.51 792.36,-91.71 808.26,-82.27"/>
<polygon fill="#63b8ff" stroke="#63b8ff" points="809.91,-85.37 816.72,-77.25 806.34,-79.35 809.91,-85.37"/>
</a>
</g>
</g>
<!-- Node17 -->
<g id="Node000017" class="node">
<title>Node17</title>
<g id="a_Node000017"><a xlink:href="boss_8h.html" target="_top" xlink:title="Fichier du module boss (declarations publiques).">
<polygon fill="white" stroke="#666666" points="673.62,-76 628.38,-76 628.38,-56 673.62,-56 673.62,-76"/>
<text xml:space="preserve" text-anchor="middle" x="651" y="-62.5" font-family="Helvetica,sans-Serif" font-size="10.00">boss.h</text>
</a>
</g>
</g>
<!-- Node6&#45;&gt;Node17 -->
<g id="edge36_Node000006_Node000017" class="edge">
<title>Node6&#45;&gt;Node17</title>
<g id="a_edge36_Node000006_Node000017"><a xlink:title=" ">
<path fill="none" stroke="#63b8ff" d="M726.97,-111.59C713.21,-103.51 693.1,-91.71 677.02,-82.27"/>
<polygon fill="#63b8ff" stroke="#63b8ff" points="678.85,-79.29 668.46,-77.25 675.31,-85.33 678.85,-79.29"/>
</a>
</g>
</g>
<!-- Node18 -->
<g id="Node000018" class="node">
<title>Node18</title>
<g id="a_Node000018"><a xlink:href="mob_8h.html" target="_top" xlink:title="Fichier des mobs: creation, mise a jour, rendu et file de respawn.">
<polygon fill="white" stroke="#666666" points="734.5,-76 691.5,-76 691.5,-56 734.5,-56 734.5,-76"/>
<text xml:space="preserve" text-anchor="middle" x="713" y="-62.5" font-family="Helvetica,sans-Serif" font-size="10.00">mob.h</text>
</a>
</g>
</g>
<!-- Node6&#45;&gt;Node18 -->
<g id="edge39_Node000006_Node000018" class="edge">
<title>Node6&#45;&gt;Node18</title>
<g id="a_edge39_Node000006_Node000018"><a xlink:title=" ">
<path fill="none" stroke="#63b8ff" d="M737.77,-111.59C733.9,-104.63 728.49,-94.89 723.72,-86.29"/>
<polygon fill="#63b8ff" stroke="#63b8ff" points="726.82,-84.66 718.9,-77.62 720.7,-88.06 726.82,-84.66"/>
</a>
</g>
</g>
<!-- Node19 -->
<g id="Node000019" class="node">
<title>Node19</title>
<g id="a_Node000019"><a xlink:href="vaisseau_8h.html" target="_top" xlink:title="Fichier de la scene vaisseau, des interactions et du retour en planete.">
<polygon fill="white" stroke="#666666" points="1266.62,-76 1203.38,-76 1203.38,-56 1266.62,-56 1266.62,-76"/>
<text xml:space="preserve" text-anchor="middle" x="1235" y="-62.5" font-family="Helvetica,sans-Serif" font-size="10.00">vaisseau.h</text>
</a>
</g>
</g>
<!-- Node6&#45;&gt;Node19 -->
<g id="edge42_Node000006_Node000019" class="edge">
<title>Node6&#45;&gt;Node19</title>
<g id="a_edge42_Node000006_Node000019"><a xlink:title=" ">
<path fill="none" stroke="#63b8ff" d="M784.66,-118.09C863.76,-112.28 1041,-97.9 1189,-76 1189.85,-75.87 1190.7,-75.75 1191.56,-75.61"/>
<polygon fill="#63b8ff" stroke="#63b8ff" points="1192.13,-79.06 1201.4,-73.93 1190.96,-72.16 1192.13,-79.06"/>
</a>
</g>
</g>
<!-- Node20 -->
<g id="Node000020" class="node">
<title>Node20</title>
<g id="a_Node000020"><a xlink:href="map_8h.html" target="_top" xlink:title="Fichier de navigation carte et de gestion des ressources cartographiques.">
<polygon fill="white" stroke="#666666" points="86.5,-76 43.5,-76 43.5,-56 86.5,-56 86.5,-76"/>
<text xml:space="preserve" text-anchor="middle" x="65" y="-62.5" font-family="Helvetica,sans-Serif" font-size="10.00">map.h</text>
</a>
</g>
</g>
<!-- Node6&#45;&gt;Node20 -->
<g id="edge44_Node000006_Node000020" class="edge">
<title>Node6&#45;&gt;Node20</title>
<g id="a_edge44_Node000006_Node000020"><a xlink:title=" ">
<path fill="none" stroke="#63b8ff" d="M701.37,-121.16C599.66,-120.91 330.46,-116.32 97.92,-75.93"/>
<polygon fill="#63b8ff" stroke="#63b8ff" points="98.83,-72.53 88.37,-74.24 97.61,-79.43 98.83,-72.53"/>
</a>
</g>
</g>
<!-- Node21 -->
<g id="Node000021" class="node">
<title>Node21</title>
<g id="a_Node000021"><a xlink:href="item_8h.html" target="_top" xlink:title="Fichier de creation, d&#39;affichage et de destruction des items.">
<polygon fill="white" stroke="#666666" points="795.5,-76 752.5,-76 752.5,-56 795.5,-56 795.5,-76"/>
<text xml:space="preserve" text-anchor="middle" x="774" y="-62.5" font-family="Helvetica,sans-Serif" font-size="10.00">item.h</text>
</a>
</g>
</g>
<!-- Node6&#45;&gt;Node21 -->
<g id="edge48_Node000006_Node000021" class="edge">
<title>Node6&#45;&gt;Node21</title>
<g id="a_edge48_Node000006_Node000021"><a xlink:title=" ">
<path fill="none" stroke="#63b8ff" d="M748.4,-111.59C752.44,-104.55 758.12,-94.67 763.09,-86"/>
<polygon fill="#63b8ff" stroke="#63b8ff" points="765.97,-88.03 767.91,-77.61 759.89,-84.54 765.97,-88.03"/>
</a>
</g>
</g>
<!-- Node22 -->
<g id="Node000022" class="node">
<title>Node22</title>
<g id="a_Node000022"><a xlink:href="inventaire_8h.html" target="_top" xlink:title="Fichier de l&#39;inventaire, de la hotbar et des interactions de slots.">
<polygon fill="white" stroke="#666666" points="1004.12,-76 937.88,-76 937.88,-56 1004.12,-56 1004.12,-76"/>
<text xml:space="preserve" text-anchor="middle" x="971" y="-62.5" font-family="Helvetica,sans-Serif" font-size="10.00">inventaire.h</text>
</a>
</g>
</g>
<!-- Node6&#45;&gt;Node22 -->
<g id="edge51_Node000006_Node000022" class="edge">
<title>Node6&#45;&gt;Node22</title>
<g id="a_edge51_Node000006_Node000022"><a xlink:title=" ">
<path fill="none" stroke="#63b8ff" d="M782.98,-111.53C823.02,-102.05 884.52,-87.48 926.19,-77.61"/>
<polygon fill="#63b8ff" stroke="#63b8ff" points="926.99,-81.02 935.91,-75.31 925.37,-74.21 926.99,-81.02"/>
</a>
</g>
</g>
<!-- Node23 -->
<g id="Node000023" class="node">
<title>Node23</title>
<g id="a_Node000023"><a xlink:href="sauvegarde_8h.html" target="_top" xlink:title="Fichier des slots de sauvegarde et du chargement de progression.">
<polygon fill="white" stroke="#666666" points="1555.25,-76 1480.75,-76 1480.75,-56 1555.25,-56 1555.25,-76"/>
<text xml:space="preserve" text-anchor="middle" x="1518" y="-62.5" font-family="Helvetica,sans-Serif" font-size="10.00">sauvegarde.h</text>
</a>
</g>
</g>
<!-- Node6&#45;&gt;Node23 -->
<g id="edge55_Node000006_Node000023" class="edge">
<title>Node6&#45;&gt;Node23</title>
<g id="a_edge55_Node000006_Node000023"><a xlink:title=" ">
<path fill="none" stroke="#63b8ff" d="M784.72,-118.89C892.34,-113.32 1188.16,-97.17 1434,-76 1445.4,-75.02 1457.65,-73.8 1469.17,-72.58"/>
<polygon fill="#63b8ff" stroke="#63b8ff" points="1469.33,-76.08 1478.89,-71.53 1468.58,-69.12 1469.33,-76.08"/>
</a>
</g>
</g>
<!-- Node25 -->
<g id="Node000025" class="node">
<title>Node25</title>
<g id="a_Node000025"><a xlink:href="objectifs_8h.html" target="_top" xlink:title="Fichier de suivi des objectifs de quete et de leur affichage.">
<polygon fill="white" stroke="#666666" points="1083.5,-76 1022.5,-76 1022.5,-56 1083.5,-56 1083.5,-76"/>
<text xml:space="preserve" text-anchor="middle" x="1053" y="-62.5" font-family="Helvetica,sans-Serif" font-size="10.00">objectifs.h</text>
</a>
</g>
</g>
<!-- Node6&#45;&gt;Node25 -->
<g id="edge58_Node000006_Node000025" class="edge">
<title>Node6&#45;&gt;Node25</title>
<g id="a_edge58_Node000006_Node000025"><a xlink:title=" ">
<path fill="none" stroke="#63b8ff" d="M784.76,-114.78C835.69,-107.04 924.68,-92.99 1010.73,-76.35"/>
<polygon fill="#63b8ff" stroke="#63b8ff" points="1011.4,-79.79 1020.54,-74.44 1010.06,-72.92 1011.4,-79.79"/>
</a>
</g>
</g>
<!-- Node26 -->
<g id="Node000026" class="node">
<title>Node26</title>
<g id="a_Node000026"><a xlink:href="cinematique_8h.html" target="_top" xlink:title="Fichier des cinematics, des intros et des sequences de credits.">
<polygon fill="white" stroke="#666666" points="1361.38,-76 1284.62,-76 1284.62,-56 1361.38,-56 1361.38,-76"/>
<text xml:space="preserve" text-anchor="middle" x="1323" y="-62.5" font-family="Helvetica,sans-Serif" font-size="10.00">cinematique.h</text>
</a>
</g>
</g>
<!-- Node6&#45;&gt;Node26 -->
<g id="edge62_Node000006_Node000026" class="edge">
<title>Node6&#45;&gt;Node26</title>
<g id="a_edge62_Node000006_Node000026"><a xlink:title=" ">
<path fill="none" stroke="#63b8ff" d="M784.63,-118.98C872.86,-114.37 1085.33,-101.57 1273.13,-76.27"/>
<polygon fill="#63b8ff" stroke="#63b8ff" points="1273.39,-79.76 1282.82,-74.94 1272.44,-72.83 1273.39,-79.76"/>
</a>
</g>
</g>
<!-- Node27 -->
<g id="Node000027" class="node">
<title>Node27</title>
<g id="a_Node000027"><a xlink:href="shop_8h.html" target="_top" xlink:title="Fichier de la boutique, des achats et de l&#39;economie joueur.">
<polygon fill="white" stroke="#666666" points="1146.62,-76 1101.38,-76 1101.38,-56 1146.62,-56 1146.62,-76"/>
<text xml:space="preserve" text-anchor="middle" x="1124" y="-62.5" font-family="Helvetica,sans-Serif" font-size="10.00">shop.h</text>
</a>
</g>
</g>
<!-- Node6&#45;&gt;Node27 -->
<g id="edge64_Node000006_Node000027" class="edge">
<title>Node6&#45;&gt;Node27</title>
<g id="a_edge64_Node000006_Node000027"><a xlink:title=" ">
<path fill="none" stroke="#63b8ff" d="M784.83,-117.73C848.77,-112.27 974.75,-99.73 1089.96,-76.38"/>
<polygon fill="#63b8ff" stroke="#63b8ff" points="1090.51,-79.84 1099.59,-74.39 1089.09,-72.98 1090.51,-79.84"/>
</a>
</g>
</g>
<!-- Node10&#45;&gt;Node2 -->
<g id="edge13_Node000010_Node000002" class="edge">
<title>Node10&#45;&gt;Node2</title>
<g id="a_edge13_Node000010_Node000002"><a xlink:title=" ">
<path fill="none" stroke="#63b8ff" d="M885.2,-55.59C876.4,-47.93 863.75,-36.91 853.23,-27.75"/>
<polygon fill="#63b8ff" stroke="#63b8ff" points="855.66,-25.22 845.82,-21.29 851.06,-30.5 855.66,-25.22"/>
</a>
</g>
</g>
<!-- Node10&#45;&gt;Node3 -->
<g id="edge14_Node000010_Node000003" class="edge">
<title>Node10&#45;&gt;Node3</title>
<g id="a_edge14_Node000010_Node000003"><a xlink:title=" ">
<path fill="none" stroke="#63b8ff" d="M871.56,-58.03C868.69,-57.3 865.79,-56.6 863,-56 796.63,-41.6 720.41,-29.54 664.74,-21.54"/>
<polygon fill="#63b8ff" stroke="#63b8ff" points="665.43,-18.1 655.04,-20.16 664.45,-25.03 665.43,-18.1"/>
</a>
</g>
</g>
<!-- Node11&#45;&gt;Node2 -->
<g id="edge16_Node000011_Node000002" class="edge">
<title>Node11&#45;&gt;Node2</title>
<g id="a_edge16_Node000011_Node000002"><a xlink:title=" ">
<path fill="none" stroke="#63b8ff" d="M404.3,-57.45C407.24,-56.92 410.16,-56.43 413,-56 547.77,-35.36 708.25,-21.01 786.44,-14.67"/>
<polygon fill="#63b8ff" stroke="#63b8ff" points="786.62,-18.16 796.31,-13.87 786.06,-11.18 786.62,-18.16"/>
</a>
</g>
</g>
<!-- Node11&#45;&gt;Node3 -->
<g id="edge17_Node000011_Node000003" class="edge">
<title>Node11&#45;&gt;Node3</title>
<g id="a_edge17_Node000011_Node000003"><a xlink:title=" ">
<path fill="none" stroke="#63b8ff" d="M404.49,-55.96C440.75,-46.98 496.61,-33.14 536.78,-23.19"/>
<polygon fill="#63b8ff" stroke="#63b8ff" points="537.59,-26.6 546.46,-20.8 535.91,-19.8 537.59,-26.6"/>
</a>
</g>
</g>
<!-- Node12&#45;&gt;Node2 -->
<g id="edge19_Node000012_Node000002" class="edge">
<title>Node12&#45;&gt;Node2</title>
<g id="a_edge19_Node000012_Node000002"><a xlink:title=" ">
<path fill="none" stroke="#63b8ff" d="M147.49,-57.92C150.33,-57.17 153.22,-56.5 156,-56 217.54,-44.87 642.27,-21.31 786.33,-13.54"/>
<polygon fill="#63b8ff" stroke="#63b8ff" points="786.49,-17.04 796.29,-13.01 786.12,-10.05 786.49,-17.04"/>
</a>
</g>
</g>
<!-- Node12&#45;&gt;Node3 -->
<g id="edge20_Node000012_Node000003" class="edge">
<title>Node12&#45;&gt;Node3</title>
<g id="a_edge20_Node000012_Node000003"><a xlink:title=" ">
<path fill="none" stroke="#63b8ff" d="M147.51,-58.02C150.34,-57.26 153.23,-56.56 156,-56 277.15,-31.71 420.28,-20.05 507.04,-14.82"/>
<polygon fill="#63b8ff" stroke="#63b8ff" points="507.09,-18.33 516.87,-14.25 506.68,-11.34 507.09,-18.33"/>
</a>
</g>
</g>
<!-- Node12&#45;&gt;Node5 -->
<g id="edge21_Node000012_Node000005" class="edge">
<title>Node12&#45;&gt;Node5</title>
<g id="a_edge21_Node000012_Node000005"><a xlink:title=" ">
<path fill="none" stroke="#63b8ff" d="M115.37,-55.59C106.72,-47.93 94.27,-36.91 83.92,-27.75"/>
<polygon fill="#63b8ff" stroke="#63b8ff" points="86.44,-25.31 76.64,-21.3 81.8,-30.55 86.44,-25.31"/>
</a>
</g>
</g>
<!-- Node13&#45;&gt;Node2 -->
<g id="edge23_Node000013_Node000002" class="edge">
<title>Node13&#45;&gt;Node2</title>
<g id="a_edge23_Node000013_Node000002"><a xlink:title=" ">
<path fill="none" stroke="#63b8ff" d="M476.05,-57.88C479.06,-57.19 482.09,-56.55 485,-56 592.11,-35.78 719.45,-21.88 786.79,-15.32"/>
<polygon fill="#63b8ff" stroke="#63b8ff" points="786.73,-18.84 796.35,-14.4 786.06,-11.87 786.73,-18.84"/>
</a>
</g>
</g>
<!-- Node13&#45;&gt;Node3 -->
<g id="edge24_Node000013_Node000003" class="edge">
<title>Node13&#45;&gt;Node3</title>
<g id="a_edge24_Node000013_Node000003"><a xlink:title=" ">
<path fill="none" stroke="#63b8ff" d="M472.86,-55.59C494.54,-47.05 526.77,-34.35 551.29,-24.68"/>
<polygon fill="#63b8ff" stroke="#63b8ff" points="552.52,-27.96 560.54,-21.03 549.96,-21.45 552.52,-27.96"/>
</a>
</g>
</g>
<!-- Node14&#45;&gt;Node2 -->
<g id="edge26_Node000014_Node000002" class="edge">
<title>Node14&#45;&gt;Node2</title>
<g id="a_edge26_Node000014_Node000002"><a xlink:title=" ">
<path fill="none" stroke="#63b8ff" d="M544.55,-57.94C547.39,-57.25 550.25,-56.58 553,-56 634.45,-38.74 730.43,-24.71 786.51,-17.13"/>
<polygon fill="#63b8ff" stroke="#63b8ff" points="786.91,-20.61 796.36,-15.81 785.98,-13.67 786.91,-20.61"/>
</a>
</g>
</g>
<!-- Node14&#45;&gt;Node3 -->
<g id="edge27_Node000014_Node000003" class="edge">
<title>Node14&#45;&gt;Node3</title>
<g id="a_edge27_Node000014_Node000003"><a xlink:title=" ">
<path fill="none" stroke="#63b8ff" d="M530.67,-55.59C540.28,-47.85 554.13,-36.69 565.57,-27.47"/>
<polygon fill="#63b8ff" stroke="#63b8ff" points="567.7,-30.25 573.28,-21.25 563.3,-24.8 567.7,-30.25"/>
</a>
</g>
</g>
<!-- Node15&#45;&gt;Node2 -->
<g id="edge29_Node000015_Node000002" class="edge">
<title>Node15&#45;&gt;Node2</title>
<g id="a_edge29_Node000015_Node000002"><a xlink:title=" ">
<path fill="none" stroke="#63b8ff" d="M610.47,-58.15C613.34,-57.4 616.23,-56.67 619,-56 676.52,-42.15 743.28,-28.56 786.96,-20"/>
<polygon fill="#63b8ff" stroke="#63b8ff" points="787.46,-23.47 796.61,-18.12 786.12,-16.6 787.46,-23.47"/>
</a>
</g>
</g>
<!-- Node15&#45;&gt;Node3 -->
<g id="edge30_Node000015_Node000003" class="edge">
<title>Node15&#45;&gt;Node3</title>
<g id="a_edge30_Node000015_Node000003"><a xlink:title=" ">
<path fill="none" stroke="#63b8ff" d="M586,-55.59C586,-49.01 586,-39.96 586,-31.73"/>
<polygon fill="#63b8ff" stroke="#63b8ff" points="589.5,-31.81 586,-21.81 582.5,-31.81 589.5,-31.81"/>
</a>
</g>
</g>
<!-- Node16&#45;&gt;Node2 -->
<g id="edge32_Node000016_Node000002" class="edge">
<title>Node16&#45;&gt;Node2</title>
<g id="a_edge32_Node000016_Node000002"><a xlink:title=" ">
<path fill="none" stroke="#63b8ff" d="M834,-55.59C834,-49.01 834,-39.96 834,-31.73"/>
<polygon fill="#63b8ff" stroke="#63b8ff" points="837.5,-31.81 834,-21.81 830.5,-31.81 837.5,-31.81"/>
</a>
</g>
</g>
<!-- Node16&#45;&gt;Node3 -->
<g id="edge33_Node000016_Node000003" class="edge">
<title>Node16&#45;&gt;Node3</title>
<g id="a_edge33_Node000016_Node000003"><a xlink:title=" ">
<path fill="none" stroke="#63b8ff" d="M813.79,-58.45C810.85,-57.58 807.86,-56.74 805,-56 753.47,-42.75 694.34,-30.78 650.52,-22.53"/>
<polygon fill="#63b8ff" stroke="#63b8ff" points="651.4,-19.13 640.93,-20.74 650.11,-26.02 651.4,-19.13"/>
</a>
</g>
</g>
<!-- Node16&#45;&gt;Node4 -->
<g id="edge34_Node000016_Node000004" class="edge">
<title>Node16&#45;&gt;Node4</title>
<g id="a_edge34_Node000016_Node000004"><a xlink:title=" ">
<path fill="none" stroke="#63b8ff" d="M854.28,-58.69C857.2,-57.78 860.18,-56.86 863,-56 898.86,-45.02 939.62,-32.72 969.44,-23.76"/>
<polygon fill="#63b8ff" stroke="#63b8ff" points="970.28,-27.16 978.85,-20.93 968.26,-20.46 970.28,-27.16"/>
</a>
</g>
</g>
<!-- Node16&#45;&gt;Node5 -->
<g id="edge35_Node000016_Node000005" class="edge">
<title>Node16&#45;&gt;Node5</title>
<g id="a_edge35_Node000016_Node000005"><a xlink:title=" ">
<path fill="none" stroke="#63b8ff" d="M813.56,-57.99C810.71,-57.21 807.8,-56.51 805,-56 679.5,-33.06 304.62,-18.66 141.84,-13.33"/>
<polygon fill="#63b8ff" stroke="#63b8ff" points="142.12,-9.84 132.01,-13.02 141.89,-16.84 142.12,-9.84"/>
</a>
</g>
</g>
<!-- Node17&#45;&gt;Node2 -->
<g id="edge37_Node000017_Node000002" class="edge">
<title>Node17&#45;&gt;Node2</title>
<g id="a_edge37_Node000017_Node000002"><a xlink:title=" ">
<path fill="none" stroke="#63b8ff" d="M673.81,-58.27C703.07,-49.64 754.42,-34.48 791.1,-23.66"/>
<polygon fill="#63b8ff" stroke="#63b8ff" points="791.91,-27.07 800.51,-20.88 789.93,-20.35 791.91,-27.07"/>
</a>
</g>
</g>
<!-- Node17&#45;&gt;Node3 -->
<g id="edge38_Node000017_Node000003" class="edge">
<title>Node17&#45;&gt;Node3</title>
<g id="a_edge38_Node000017_Node000003"><a xlink:title=" ">
<path fill="none" stroke="#63b8ff" d="M639.68,-55.59C630.36,-47.85 616.92,-36.69 605.82,-27.47"/>
<polygon fill="#63b8ff" stroke="#63b8ff" points="608.29,-24.96 598.36,-21.27 603.81,-30.35 608.29,-24.96"/>
</a>
</g>
</g>
<!-- Node18&#45;&gt;Node2 -->
<g id="edge40_Node000018_Node000002" class="edge">
<title>Node18&#45;&gt;Node2</title>
<g id="a_edge40_Node000018_Node000002"><a xlink:title=" ">
<path fill="none" stroke="#63b8ff" d="M734.08,-55.59C752.96,-47.17 780.92,-34.69 802.46,-25.07"/>
<polygon fill="#63b8ff" stroke="#63b8ff" points="803.67,-28.37 811.38,-21.1 800.82,-21.98 803.67,-28.37"/>
</a>
</g>
</g>
<!-- Node18&#45;&gt;Node3 -->
<g id="edge41_Node000018_Node000003" class="edge">
<title>Node18&#45;&gt;Node3</title>
<g id="a_edge41_Node000018_Node000003"><a xlink:title=" ">
<path fill="none" stroke="#63b8ff" d="M691.17,-55.72C671.18,-47.22 641.32,-34.52 618.52,-24.83"/>
<polygon fill="#63b8ff" stroke="#63b8ff" points="619.94,-21.63 609.37,-20.93 617.2,-28.07 619.94,-21.63"/>
</a>
</g>
</g>
<!-- Node19&#45;&gt;Node2 -->
<g id="edge43_Node000019_Node000002" class="edge">
<title>Node19&#45;&gt;Node2</title>
<g id="a_edge43_Node000019_Node000002"><a xlink:title=" ">
<path fill="none" stroke="#63b8ff" d="M1202.88,-58.43C1198.23,-57.56 1193.5,-56.72 1189,-56 1079.27,-38.33 949.54,-23.38 881.35,-15.98"/>
<polygon fill="#63b8ff" stroke="#63b8ff" points="881.97,-12.53 871.65,-14.93 881.22,-19.49 881.97,-12.53"/>
</a>
</g>
</g>
<!-- Node20&#45;&gt;Node2 -->
<g id="edge45_Node000020_Node000002" class="edge">
<title>Node20&#45;&gt;Node2</title>
<g id="a_edge45_Node000020_Node000002"><a xlink:title=" ">
<path fill="none" stroke="#63b8ff" d="M86.87,-58C89.92,-57.22 93.02,-56.52 96,-56 130.05,-50.1 629.1,-22.28 786.68,-13.6"/>
<polygon fill="#63b8ff" stroke="#63b8ff" points="786.56,-17.11 796.35,-13.06 786.17,-10.12 786.56,-17.11"/>
</a>
</g>
</g>
<!-- Node20&#45;&gt;Node3 -->
<g id="edge46_Node000020_Node000003" class="edge">
<title>Node20&#45;&gt;Node3</title>
<g id="a_edge46_Node000020_Node000003"><a xlink:title=" ">
<path fill="none" stroke="#63b8ff" d="M86.89,-58.08C89.93,-57.29 93.03,-56.56 96,-56 239.52,-28.84 409.9,-17.88 507.25,-13.6"/>
<polygon fill="#63b8ff" stroke="#63b8ff" points="507.11,-17.11 516.95,-13.19 506.81,-10.12 507.11,-17.11"/>
</a>
</g>
</g>
<!-- Node20&#45;&gt;Node5 -->
<g id="edge47_Node000020_Node000005" class="edge">
<title>Node20&#45;&gt;Node5</title>
<g id="a_edge47_Node000020_Node000005"><a xlink:title=" ">
<path fill="none" stroke="#63b8ff" d="M65,-55.59C65,-49.01 65,-39.96 65,-31.73"/>
<polygon fill="#63b8ff" stroke="#63b8ff" points="68.5,-31.81 65,-21.81 61.5,-31.81 68.5,-31.81"/>
</a>
</g>
</g>
<!-- Node21&#45;&gt;Node2 -->
<g id="edge49_Node000021_Node000002" class="edge">
<title>Node21&#45;&gt;Node2</title>
<g id="a_edge49_Node000021_Node000002"><a xlink:title=" ">
<path fill="none" stroke="#63b8ff" d="M784.45,-55.59C792.97,-47.93 805.21,-36.91 815.39,-27.75"/>
<polygon fill="#63b8ff" stroke="#63b8ff" points="817.45,-30.6 822.54,-21.31 812.77,-25.4 817.45,-30.6"/>
</a>
</g>
</g>
<!-- Node21&#45;&gt;Node3 -->
<g id="edge50_Node000021_Node000003" class="edge">
<title>Node21&#45;&gt;Node3</title>
<g id="a_edge50_Node000021_Node000003"><a xlink:title=" ">
<path fill="none" stroke="#63b8ff" d="M752.06,-58.38C749.34,-57.57 746.61,-56.76 744,-56 705.68,-44.79 662.02,-32.39 630.32,-23.44"/>
<polygon fill="#63b8ff" stroke="#63b8ff" points="631.67,-20.19 621.09,-20.84 629.77,-26.92 631.67,-20.19"/>
</a>
</g>
</g>
<!-- Node22&#45;&gt;Node2 -->
<g id="edge52_Node000022_Node000002" class="edge">
<title>Node22&#45;&gt;Node2</title>
<g id="a_edge52_Node000022_Node000002"><a xlink:title=" ">
<path fill="none" stroke="#63b8ff" d="M947.14,-55.59C925.46,-47.05 893.23,-34.35 868.71,-24.68"/>
<polygon fill="#63b8ff" stroke="#63b8ff" points="870.04,-21.45 859.46,-21.03 867.48,-27.96 870.04,-21.45"/>
</a>
</g>
</g>
<!-- Node22&#45;&gt;Node3 -->
<g id="edge53_Node000022_Node000003" class="edge">
<title>Node22&#45;&gt;Node3</title>
<g id="a_edge53_Node000022_Node000003"><a xlink:title=" ">
<path fill="none" stroke="#63b8ff" d="M937.58,-57.58C934.68,-57.02 931.79,-56.48 929,-56 838.88,-40.46 734.61,-27.48 664.91,-19.52"/>
<polygon fill="#63b8ff" stroke="#63b8ff" points="665.44,-16.06 655.11,-18.41 664.65,-23.01 665.44,-16.06"/>
</a>
</g>
</g>
<!-- Node22&#45;&gt;Node4 -->
<g id="edge54_Node000022_Node000004" class="edge">
<title>Node22&#45;&gt;Node4</title>
<g id="a_edge54_Node000022_Node000004"><a xlink:title=" ">
<path fill="none" stroke="#63b8ff" d="M978.14,-55.59C983.61,-48.39 991.32,-38.23 998.01,-29.43"/>
<polygon fill="#63b8ff" stroke="#63b8ff" points="1000.77,-31.58 1004.02,-21.5 995.19,-27.35 1000.77,-31.58"/>
</a>
</g>
</g>
<!-- Node23&#45;&gt;Node2 -->
<g id="edge56_Node000023_Node000002" class="edge">
<title>Node23&#45;&gt;Node2</title>
<g id="a_edge56_Node000023_Node000002"><a xlink:title=" ">
<path fill="none" stroke="#63b8ff" d="M1480.47,-57.92C1475.94,-57.2 1471.37,-56.54 1467,-56 1239.71,-28.06 1181.4,-36.64 953,-20 929.44,-18.28 903.26,-16.31 881.47,-14.65"/>
<polygon fill="#63b8ff" stroke="#63b8ff" points="881.94,-11.18 871.7,-13.9 881.4,-18.16 881.94,-11.18"/>
</a>
</g>
</g>
<!-- Node24 -->
<g id="Node000024" class="node">
<title>Node24</title>
<g id="a_Node000024"><a xlink:title=" ">
<polygon fill="#e0e0e0" stroke="#999999" points="1545.88,-20 1490.12,-20 1490.12,0 1545.88,0 1545.88,-20"/>
<text xml:space="preserve" text-anchor="middle" x="1518" y="-6.5" font-family="Helvetica,sans-Serif" font-size="10.00">stdbool.h</text>
</a>
</g>
</g>
<!-- Node23&#45;&gt;Node24 -->
<g id="edge57_Node000023_Node000024" class="edge">
<title>Node23&#45;&gt;Node24</title>
<g id="a_edge57_Node000023_Node000024"><a xlink:title=" ">
<path fill="none" stroke="#63b8ff" d="M1518,-55.59C1518,-49.01 1518,-39.96 1518,-31.73"/>
<polygon fill="#63b8ff" stroke="#63b8ff" points="1521.5,-31.81 1518,-21.81 1514.5,-31.81 1521.5,-31.81"/>
</a>
</g>
</g>
<!-- Node25&#45;&gt;Node2 -->
<g id="edge59_Node000025_Node000002" class="edge">
<title>Node25&#45;&gt;Node2</title>
<g id="a_edge59_Node000025_Node000002"><a xlink:title=" ">
<path fill="none" stroke="#63b8ff" d="M1022.09,-57.38C985.4,-48.33 923.82,-33.15 881.17,-22.63"/>
<polygon fill="#63b8ff" stroke="#63b8ff" points="882.24,-19.29 871.69,-20.29 880.56,-26.09 882.24,-19.29"/>
</a>
</g>
</g>
<!-- Node25&#45;&gt;Node3 -->
<g id="edge60_Node000025_Node000003" class="edge">
<title>Node25&#45;&gt;Node3</title>
<g id="a_edge60_Node000025_Node000003"><a xlink:title=" ">
<path fill="none" stroke="#63b8ff" d="M1022.06,-57.67C1019.01,-57.05 1015.95,-56.49 1013,-56 892.28,-36.13 750.83,-23.24 664.86,-16.55"/>
<polygon fill="#63b8ff" stroke="#63b8ff" points="665.37,-13.08 655.13,-15.8 664.84,-20.06 665.37,-13.08"/>
</a>
</g>
</g>
<!-- Node25&#45;&gt;Node4 -->
<g id="edge61_Node000025_Node000004" class="edge">
<title>Node25&#45;&gt;Node4</title>
<g id="a_edge61_Node000025_Node000004"><a xlink:title=" ">
<path fill="none" stroke="#63b8ff" d="M1045.86,-55.59C1040.39,-48.39 1032.68,-38.23 1025.99,-29.43"/>
<polygon fill="#63b8ff" stroke="#63b8ff" points="1028.81,-27.35 1019.98,-21.5 1023.23,-31.58 1028.81,-27.35"/>
</a>
</g>
</g>
<!-- Node26&#45;&gt;Node2 -->
<g id="edge63_Node000026_Node000002" class="edge">
<title>Node26&#45;&gt;Node2</title>
<g id="a_edge63_Node000026_Node000002"><a xlink:title=" ">
<path fill="none" stroke="#63b8ff" d="M1284.32,-57.31C1281.51,-56.84 1278.71,-56.4 1276,-56 1133.06,-35.08 962.7,-20.68 881.54,-14.46"/>
<polygon fill="#63b8ff" stroke="#63b8ff" points="881.97,-10.99 871.74,-13.72 881.44,-17.97 881.97,-10.99"/>
</a>
</g>
</g>
<!-- Node27&#45;&gt;Node2 -->
<g id="edge65_Node000027_Node000002" class="edge">
<title>Node27&#45;&gt;Node2</title>
<g id="a_edge65_Node000027_Node000002"><a xlink:title=" ">
<path fill="none" stroke="#63b8ff" d="M1101.05,-58.03C1098.35,-57.3 1095.62,-56.61 1093,-56 1019.62,-39.03 933.23,-25.24 881.08,-17.58"/>
<polygon fill="#63b8ff" stroke="#63b8ff" points="881.76,-14.14 871.36,-16.17 880.75,-21.07 881.76,-14.14"/>
</a>
</g>
</g>
</g>
</svg>

<g id="navigator" transform="translate(0 0)" fill="#404254">
  <rect fill="#f2f5e9" fill-opacity="0.5" stroke="#606060" stroke-width=".5" x="0" y="0" width="60" height="60"/>
  <use id="zoomplus" xlink:href="#zoomPlus" x="17" y="9" onmousedown="handleZoom(evt,'in')"/>
  <use id="zoomminus" xlink:href="#zoomMin" x="42" y="9" onmousedown="handleZoom(evt,'out')"/>
  <use id="reset" xlink:href="#resetDef" x="30" y="36" onmousedown="handleReset()"/>
   <use id="arrowup" xlink:href="#arrowUp" x="0" y="0" onmousedown="handlePan(0,-1)"/>
  <use id="arrowright" xlink:href="#arrowRight" x="0" y="0" onmousedown="handlePan(1,0)"/>
  <use id="arrowdown" xlink:href="#arrowDown" x="0" y="0" onmousedown="handlePan(0,1)"/>
  <use id="arrowleft" xlink:href="#arrowLeft" x="0" y="0" onmousedown="handlePan(-1,0)"/>
</g>
<svg viewBox="0 0 15 15" width="100%" height="30px" preserveAspectRatio="xMaxYMin meet">
 <g id="arrow_out" transform="scale(0.3 0.3)">
  <a xlink:href="son_8c__incl_org.svg" target="_base">
   <rect id="button" ry="5" rx="5" y="6" x="6" height="38" width="38"
        fill="#f2f5e9" fill-opacity="0.5" stroke="#606060" stroke-width="1.0"/>
   <path id="arrow"
     d="M 11.500037,31.436501 C 11.940474,20.09759 22.043105,11.32322 32.158766,21.979434 L 37.068811,17.246167 C 37.068811,17.246167 37.088388,32 37.088388,32 L 22.160133,31.978069 C 22.160133,31.978069 26.997745,27.140456 26.997745,27.140456 C 18.528582,18.264221 13.291696,25.230495 11.500037,31.436501 z"
     style="fill:#404040;"/>
  </a>
 </g>
</svg>

<style type='text/css'>
<![CDATA[
[data-mouse-over-selected='false'] { opacity: 0.7; }
[data-mouse-over-selected='true']  { opacity: 1.0; }
]]>
</style>
<script type="application/ecmascript"><![CDATA[
document.addEventListener('DOMContentLoaded', (event) => {
  highlightEdges();
  highlightAdjacentNodes();
});
]]></script>
</svg>
