<?xml version="1.0" encoding="UTF-8" standalone="no"?>
<!DOCTYPE svg PUBLIC "-//W3C//DTD SVG 1.1//EN"
 "http://www.w3.org/Graphics/SVG/1.1/DTD/svg11.dtd">
<!-- Generated by graphviz version 14.1.4 (20260321.0153)
 -->
<!-- Title: p3_cell_t Pages: 1 -->
<svg width="55pt" height="76pt"
 viewBox="0.00 0.00 55.00 76.00" xmlns="http://www.w3.org/2000/svg" xmlns:xlink="http://www.w3.org/1999/xlink">
<g id="graph0" class="graph" transform="scale(1 1) rotate(0) translate(4 72)">
<title>p3_cell_t</title>
<!-- Node1 -->
<g id="Node000001" class="node">
<title>Node1</title>
<g id="a_Node000001"><a xlink:title=" ">
<polygon fill="#999999" stroke="none" points="47,-68 0,-68 0,0 47,0 47,-68"/>
<text xml:space="preserve" text-anchor="start" x="4" y="-54.25" font-family="Helvetica,sans-Serif" font-size="10.00">p3_cell_t</text>
<text xml:space="preserve" text-anchor="start" x="9.94" y="-38.25" font-family="Helvetica,sans-Serif" font-size="10.00">+</text>
<text xml:space="preserve" text-anchor="start" x="25.88" y="-38.25" font-family="Helvetica,sans-Serif" font-size="10.00">x</text>
<text xml:space="preserve" text-anchor="start" x="9.94" y="-22.25" font-family="Helvetica,sans-Serif" font-size="10.00">+</text>
<text xml:space="preserve" text-anchor="start" x="25.88" y="-22.25" font-family="Helvetica,sans-Serif" font-size="10.00">y</text>
<text xml:space="preserve" text-anchor="start" x="22" y="-6.25" font-family="Helvetica,sans-Serif" font-size="10.00"> </text>
<polygon fill="#666666" stroke="#666666" points="0,-50 0,-50 47,-50 47,-50 0,-50"/>
<polygon fill="#666666" stroke="#666666" points="0,-18 0,-18 23.88,-18 23.88,-18 0,-18"/>
<polygon fill="#666666" stroke="#666666" points="23.88,-18 23.88,-18 47,-18 47,-18 23.88,-18"/>
<polygon fill="none" stroke="#666666" points="0,0 0,-68 47,-68 47,0 0,0"/>
</a>
</g>
</g>
</g>
</svg>
