<?xml version="1.0" encoding="UTF-8" standalone="no"?>
<!DOCTYPE svg PUBLIC "-//W3C//DTD SVG 1.1//EN"
 "http://www.w3.org/Graphics/SVG/1.1/DTD/svg11.dtd">
<!-- Generated by graphviz version 14.1.4 (20260321.0153)
 -->
<!-- Title: t_objectifs Pages: 1 -->
<svg width="91pt" height="246pt"
 viewBox="0.00 0.00 91.00 246.00" xmlns="http://www.w3.org/2000/svg" xmlns:xlink="http://www.w3.org/1999/xlink">

<svg id="main" version="1.1" xmlns="http://www.w3.org/2000/svg" xmlns:xlink="http://www.w3.org/1999/xlink" xml:space="preserve">

<style type="text/css"><![CDATA[
.node, .edge {opacity: 0.7;}
.node.selected, .edge.selected {opacity: 1;}
.edge:hover path { stroke: red; }
.edge:hover polygon { stroke: red; fill: red; }
]]></style>
<script type="application/ecmascript" xlink:href="svg.min.js"/>
<svg id="graph" class="graph">
<g id="graph0" class="graph" transform="scale(1 1) rotate(0) translate(4 242)">
<title>t_objectifs</title>
<!-- Node1 -->
<g id="Node000001" class="node">
<title>Node1</title>
<g id="a_Node000001"><a xlink:title="Ensemble des objectifs actifs, avec etat d&#39;affichage et animation de validation.">
<polygon fill="#999999" stroke="none" points="68.25,-100 0,-100 0,0 68.25,0 68.25,-100"/>
<text xml:space="preserve" text-anchor="start" x="11.62" y="-86.25" font-family="Helvetica,sans-Serif" font-size="10.00">t_objectifs</text>
<text xml:space="preserve" text-anchor="start" x="4" y="-70.25" font-family="Helvetica,sans-Serif" font-size="10.00">+</text>
<text xml:space="preserve" text-anchor="start" x="14" y="-70.25" font-family="Helvetica,sans-Serif" font-size="10.00">nb</text>
<text xml:space="preserve" text-anchor="start" x="4" y="-54.25" font-family="Helvetica,sans-Serif" font-size="10.00">+</text>
<text xml:space="preserve" text-anchor="start" x="14" y="-54.25" font-family="Helvetica,sans-Serif" font-size="10.00">visible</text>
<text xml:space="preserve" text-anchor="start" x="4" y="-38.25" font-family="Helvetica,sans-Serif" font-size="10.00">+</text>
<text xml:space="preserve" text-anchor="start" x="14" y="-38.25" font-family="Helvetica,sans-Serif" font-size="10.00">anim_slot</text>
<text xml:space="preserve" text-anchor="start" x="4" y="-22.25" font-family="Helvetica,sans-Serif" font-size="10.00">+</text>
<text xml:space="preserve" text-anchor="start" x="14" y="-22.25" font-family="Helvetica,sans-Serif" font-size="10.00">anim_debut</text>
<text xml:space="preserve" text-anchor="start" x="32.62" y="-6.25" font-family="Helvetica,sans-Serif" font-size="10.00"> </text>
<polygon fill="#666666" stroke="#666666" points="0,-82 0,-82 68.25,-82 68.25,-82 0,-82"/>
<polygon fill="#666666" stroke="#666666" points="0,-18 0,-18 12,-18 12,-18 0,-18"/>
<polygon fill="#666666" stroke="#666666" points="12,-18 12,-18 68.25,-18 68.25,-18 12,-18"/>
<polygon fill="none" stroke="#666666" points="0,0 0,-100 68.25,-100 68.25,0 0,0"/>
</a>
</g>
</g>
<!-- Node2 -->
<g id="Node000002" class="node">
<title>Node2</title>
<g id="a_Node000002"><a xlink:href="structt__objectif.html" target="_top" xlink:title="Unite d&#39;objectif individuelle (description, etat valide, predicate de verification).">
<polygon fill="white" stroke="none" points="66.75,-238 1.5,-238 1.5,-154 66.75,-154 66.75,-238"/>
<text xml:space="preserve" text-anchor="start" x="14.25" y="-224.25" font-family="Helvetica,sans-Serif" font-size="10.00">t_objectif</text>
<text xml:space="preserve" text-anchor="start" x="5.5" y="-208.25" font-family="Helvetica,sans-Serif" font-size="10.00">+</text>
<text xml:space="preserve" text-anchor="start" x="15.5" y="-208.25" font-family="Helvetica,sans-Serif" font-size="10.00">description</text>
<text xml:space="preserve" text-anchor="start" x="5.5" y="-192.25" font-family="Helvetica,sans-Serif" font-size="10.00">+</text>
<text xml:space="preserve" text-anchor="start" x="15.5" y="-192.25" font-family="Helvetica,sans-Serif" font-size="10.00">valide</text>
<text xml:space="preserve" text-anchor="start" x="5.5" y="-176.25" font-family="Helvetica,sans-Serif" font-size="10.00">+</text>
<text xml:space="preserve" text-anchor="start" x="15.5" y="-176.25" font-family="Helvetica,sans-Serif" font-size="10.00">verifier</text>
<text xml:space="preserve" text-anchor="start" x="32.62" y="-160.25" font-family="Helvetica,sans-Serif" font-size="10.00"> </text>
<polygon fill="#666666" stroke="#666666" points="1.5,-220 1.5,-220 66.75,-220 66.75,-220 1.5,-220"/>
<polygon fill="#666666" stroke="#666666" points="1.5,-172 1.5,-172 13.5,-172 13.5,-172 1.5,-172"/>
<polygon fill="#666666" stroke="#666666" points="13.5,-172 13.5,-172 66.75,-172 66.75,-172 13.5,-172"/>
<polygon fill="none" stroke="#666666" points="1.5,-154 1.5,-238 66.75,-238 66.75,-154 1.5,-154"/>
</a>
</g>
</g>
<!-- Node2&#45;&gt;Node1 -->
<g id="edge1_Node000001_Node000002" class="edge">
<title>Node2&#45;&gt;Node1</title>
<g id="a_edge1_Node000001_Node000002"><a xlink:title=" ">
<path fill="none" stroke="#63b8ff" d="M34.12,-154.12C34.12,-141.2 34.12,-126.62 34.12,-112.58"/>
<polygon fill="none" stroke="#63b8ff" points="34.13,-112.8 30.13,-106.8 34.13,-100.8 38.13,-106.8 34.13,-112.8"/>
</a>
</g>
<text xml:space="preserve" text-anchor="start" x="37.12" y="-123.25" font-family="Helvetica,sans-Serif" font-size="10.00" fill="grey">+objectifs</text>
</g>
</g>
</svg>
</svg>

<style type='text/css'>
<![CDATA[
[data-mouse-over-selected='false'] { opacity: 0.7; }
[data-mouse-over-selected='true']  { opacity: 1.0; }
]]>
</style>
<script type="application/ecmascript"><![CDATA[
document.addEventListener('DOMContentLoaded', (event) => {
  highlightEdges();
  highlightAdjacentNodes();
});
]]></script>
</svg>
