<?xml version="1.0" encoding="UTF-8" standalone="no"?>
<!DOCTYPE svg PUBLIC "-//W3C//DTD SVG 1.1//EN"
 "http://www.w3.org/Graphics/SVG/1.1/DTD/svg11.dtd">
<!-- Generated by graphviz version 14.1.4 (20260321.0153)
 -->
<!-- Title: tileset_ Pages: 1 -->
<svg width="56pt" height="214pt"
 viewBox="0.00 0.00 56.00 214.00" xmlns="http://www.w3.org/2000/svg" xmlns:xlink="http://www.w3.org/1999/xlink">

<svg id="main" version="1.1" xmlns="http://www.w3.org/2000/svg" xmlns:xlink="http://www.w3.org/1999/xlink" xml:space="preserve">

<style type="text/css"><![CDATA[
.node, .edge {opacity: 0.7;}
.node.selected, .edge.selected {opacity: 1;}
.edge:hover path { stroke: red; }
.edge:hover polygon { stroke: red; fill: red; }
]]></style>
<script type="application/ecmascript" xlink:href="svg.min.js"/>
<svg id="graph" class="graph">
<g id="graph0" class="graph" transform="scale(1 1) rotate(0) translate(4 210)">
<title>tileset_</title>
<!-- Node1 -->
<g id="Node000001" class="node">
<title>Node1</title>
<g id="a_Node000001"><a xlink:title=" ">
<polygon fill="#999999" stroke="none" points="44.25,-68 0,-68 0,0 44.25,0 44.25,-68"/>
<text xml:space="preserve" text-anchor="start" x="6.38" y="-54.25" font-family="Helvetica,sans-Serif" font-size="10.00">tileset_</text>
<text xml:space="preserve" text-anchor="start" x="4" y="-38.25" font-family="Helvetica,sans-Serif" font-size="10.00">+</text>
<text xml:space="preserve" text-anchor="start" x="14" y="-38.25" font-family="Helvetica,sans-Serif" font-size="10.00">width</text>
<text xml:space="preserve" text-anchor="start" x="4" y="-22.25" font-family="Helvetica,sans-Serif" font-size="10.00">+</text>
<text xml:space="preserve" text-anchor="start" x="14" y="-22.25" font-family="Helvetica,sans-Serif" font-size="10.00">height</text>
<text xml:space="preserve" text-anchor="start" x="20.62" y="-6.25" font-family="Helvetica,sans-Serif" font-size="10.00"> </text>
<polygon fill="#666666" stroke="#666666" points="0,-50 0,-50 44.25,-50 44.25,-50 0,-50"/>
<polygon fill="#666666" stroke="#666666" points="0,-18 0,-18 12,-18 12,-18 0,-18"/>
<polygon fill="#666666" stroke="#666666" points="12,-18 12,-18 44.25,-18 44.25,-18 12,-18"/>
<polygon fill="none" stroke="#666666" points="0,0 0,-68 44.25,-68 44.25,0 0,0"/>
</a>
</g>
</g>
<!-- Node2 -->
<g id="Node000002" class="node">
<title>Node2</title>
<g id="a_Node000002"><a xlink:href="structtile__.html" target="_top" xlink:title=" ">
<polygon fill="white" stroke="none" points="44.25,-206 0,-206 0,-122 44.25,-122 44.25,-206"/>
<text xml:space="preserve" text-anchor="start" x="13.12" y="-192.25" font-family="Helvetica,sans-Serif" font-size="10.00">tile_</text>
<text xml:space="preserve" text-anchor="start" x="4" y="-176.25" font-family="Helvetica,sans-Serif" font-size="10.00">+</text>
<text xml:space="preserve" text-anchor="start" x="14" y="-176.25" font-family="Helvetica,sans-Serif" font-size="10.00">type</text>
<text xml:space="preserve" text-anchor="start" x="4" y="-160.25" font-family="Helvetica,sans-Serif" font-size="10.00">+</text>
<text xml:space="preserve" text-anchor="start" x="14" y="-160.25" font-family="Helvetica,sans-Serif" font-size="10.00">width</text>
<text xml:space="preserve" text-anchor="start" x="4" y="-144.25" font-family="Helvetica,sans-Serif" font-size="10.00">+</text>
<text xml:space="preserve" text-anchor="start" x="14" y="-144.25" font-family="Helvetica,sans-Serif" font-size="10.00">height</text>
<text xml:space="preserve" text-anchor="start" x="20.62" y="-128.25" font-family="Helvetica,sans-Serif" font-size="10.00"> </text>
<polygon fill="#666666" stroke="#666666" points="0,-188 0,-188 44.25,-188 44.25,-188 0,-188"/>
<polygon fill="#666666" stroke="#666666" points="0,-140 0,-140 12,-140 12,-140 0,-140"/>
<polygon fill="#666666" stroke="#666666" points="12,-140 12,-140 44.25,-140 44.25,-140 12,-140"/>
<polygon fill="none" stroke="#666666" points="0,-122 0,-206 44.25,-206 44.25,-122 0,-122"/>
</a>
</g>
</g>
<!-- Node2&#45;&gt;Node1 -->
<g id="edge1_Node000001_Node000002" class="edge">
<title>Node2&#45;&gt;Node1</title>
<g id="a_edge1_Node000001_Node000002"><a xlink:title=" ">
<path fill="none" stroke="#63b8ff" d="M22.12,-122.15C22.12,-108.98 22.12,-94.3 22.12,-80.8"/>
<polygon fill="none" stroke="#63b8ff" points="22.13,-80.69 18.13,-74.69 22.13,-68.69 26.13,-74.69 22.13,-80.69"/>
</a>
</g>
<text xml:space="preserve" text-anchor="start" x="25.12" y="-91.25" font-family="Helvetica,sans-Serif" font-size="10.00" fill="grey">+tab</text>
</g>
</g>
</svg>
</svg>

<style type='text/css'>
<![CDATA[
[data-mouse-over-selected='false'] { opacity: 0.7; }
[data-mouse-over-selected='true']  { opacity: 1.0; }
]]>
</style>
<script type="application/ecmascript"><![CDATA[
document.addEventListener('DOMContentLoaded', (event) => {
  highlightEdges();
  highlightAdjacentNodes();
});
]]></script>
</svg>
