<?xml version="1.0" encoding="UTF-8" standalone="no"?>
<!DOCTYPE svg PUBLIC "-//W3C//DTD SVG 1.1//EN"
 "http://www.w3.org/Graphics/SVG/1.1/DTD/svg11.dtd">
<!-- Generated by graphviz version 14.1.4 (20260321.0153)
 -->
<!-- Title: src/vaisseau.c Pages: 1 -->
<svg width="1687pt" height="196pt"
 viewBox="0.00 0.00 1687.00 196.00" xmlns="http://www.w3.org/2000/svg" xmlns:xlink="http://www.w3.org/1999/xlink">
<g id="graph0" class="graph" transform="scale(1 1) rotate(0) translate(4 192)">
<title>src/vaisseau.c</title>
<!-- Node1 -->
<g id="Node000001" class="node">
<title>Node1</title>
<g id="a_Node000001"><a xlink:title="Exploration du vaisseau, interactions et retour vers la planete.">
<polygon fill="#999999" stroke="#666666" points="1542.35,-188 1462.6,-188 1462.6,-168 1542.35,-168 1542.35,-188"/>
<text xml:space="preserve" text-anchor="middle" x="1502.48" y="-174.5" font-family="Helvetica,sans-Serif" font-size="10.00">src/vaisseau.c</text>
</a>
</g>
</g>
<!-- Node2 -->
<g id="Node000002" class="node">
<title>Node2</title>
<g id="a_Node000002"><a xlink:title=" ">
<polygon fill="#e0e0e0" stroke="#999999" points="976.23,-20 904.73,-20 904.73,0 976.23,0 976.23,-20"/>
<text xml:space="preserve" text-anchor="middle" x="940.48" y="-6.5" font-family="Helvetica,sans-Serif" font-size="10.00">SDL3/SDL.h</text>
</a>
</g>
</g>
<!-- Node1&#45;&gt;Node2 -->
<g id="edge1_Node000001_Node000002" class="edge">
<title>Node1&#45;&gt;Node2</title>
<g id="a_edge1_Node000001_Node000002"><a xlink:title=" ">
<path fill="none" stroke="#63b8ff" d="M1505.05,-167.65C1508.61,-154.94 1515.42,-131.54 1522.48,-112 1528.37,-95.7 1534.08,-93 1537.48,-76 1539.22,-67.28 1543.52,-62.52 1537.48,-56 1518.85,-35.91 1125.9,-18.39 987.89,-12.83"/>
<polygon fill="#63b8ff" stroke="#63b8ff" points="988.13,-9.34 978,-12.44 987.85,-16.33 988.13,-9.34"/>
</a>
</g>
</g>
<!-- Node3 -->
<g id="Node000003" class="node">
<title>Node3</title>
<g id="a_Node000003"><a xlink:title=" ">
<polygon fill="#e0e0e0" stroke="#999999" points="596.73,-20 462.23,-20 462.23,0 596.73,0 596.73,-20"/>
<text xml:space="preserve" text-anchor="middle" x="529.48" y="-6.5" font-family="Helvetica,sans-Serif" font-size="10.00">SDL3_image/SDL_image.h</text>
</a>
</g>
</g>
<!-- Node1&#45;&gt;Node3 -->
<g id="edge2_Node000001_Node000003" class="edge">
<title>Node1&#45;&gt;Node3</title>
<g id="a_edge2_Node000001_Node000003"><a xlink:title=" ">
<path fill="none" stroke="#63b8ff" d="M1462.33,-175.87C1228.84,-169.08 54.29,-132.2 4.48,-76 -1.42,-69.35 -1.53,-62.55 4.48,-56 19.34,-39.81 307.73,-22.57 450.61,-14.98"/>
<polygon fill="#63b8ff" stroke="#63b8ff" points="450.58,-18.49 460.38,-14.46 450.21,-11.49 450.58,-18.49"/>
</a>
</g>
</g>
<!-- Node4 -->
<g id="Node000004" class="node">
<title>Node4</title>
<g id="a_Node000004"><a xlink:title=" ">
<polygon fill="#e0e0e0" stroke="#999999" points="1617.35,-20 1561.6,-20 1561.6,0 1617.35,0 1617.35,-20"/>
<text xml:space="preserve" text-anchor="middle" x="1589.48" y="-6.5" font-family="Helvetica,sans-Serif" font-size="10.00">stdbool.h</text>
</a>
</g>
</g>
<!-- Node1&#45;&gt;Node4 -->
<g id="edge3_Node000001_Node000004" class="edge">
<title>Node1&#45;&gt;Node4</title>
<g id="a_edge3_Node000001_Node000004"><a xlink:title=" ">
<path fill="none" stroke="#63b8ff" d="M1542.64,-171.44C1585.67,-164.56 1649.77,-151.35 1664.48,-132 1684.92,-105.11 1681.12,-85.39 1664.48,-56 1656.41,-41.75 1641.84,-31.52 1627.66,-24.46"/>
<polygon fill="#63b8ff" stroke="#63b8ff" points="1629.45,-21.42 1618.89,-20.48 1626.56,-27.8 1629.45,-21.42"/>
</a>
</g>
</g>
<!-- Node5 -->
<g id="Node000005" class="node">
<title>Node5</title>
<g id="a_Node000005"><a xlink:title=" ">
<polygon fill="#e0e0e0" stroke="#999999" points="59.1,-76 13.85,-76 13.85,-56 59.1,-56 59.1,-76"/>
<text xml:space="preserve" text-anchor="middle" x="36.48" y="-62.5" font-family="Helvetica,sans-Serif" font-size="10.00">stdio.h</text>
</a>
</g>
</g>
<!-- Node1&#45;&gt;Node5 -->
<g id="edge4_Node000001_Node000005" class="edge">
<title>Node1&#45;&gt;Node5</title>
<g id="a_edge4_Node000001_Node000005"><a xlink:title=" ">
<path fill="none" stroke="#63b8ff" d="M1462.38,-175.34C1345.09,-170.34 992.48,-154.43 700.48,-132 444.91,-112.37 381.56,-101.2 126.48,-76 107.94,-74.17 87.26,-72.1 70.4,-70.41"/>
<polygon fill="#63b8ff" stroke="#63b8ff" points="71.22,-66.98 60.92,-69.46 70.52,-73.94 71.22,-66.98"/>
</a>
</g>
</g>
<!-- Node6 -->
<g id="Node000006" class="node">
<title>Node6</title>
<g id="a_Node000006"><a xlink:href="main_8h.html" target="_top" xlink:title="Declarations globales et utilitaires partages entre les modules du jeu.">
<polygon fill="white" stroke="#666666" points="791.85,-132 709.1,-132 709.1,-112 791.85,-112 791.85,-132"/>
<text xml:space="preserve" text-anchor="middle" x="750.48" y="-118.5" font-family="Helvetica,sans-Serif" font-size="10.00">headers/main.h</text>
</a>
</g>
</g>
<!-- Node1&#45;&gt;Node6 -->
<g id="edge5_Node000001_Node000006" class="edge">
<title>Node1&#45;&gt;Node6</title>
<g id="a_edge5_Node000001_Node000006"><a xlink:title=" ">
<path fill="none" stroke="#63b8ff" d="M1462.31,-174.12C1335.91,-165.04 946.18,-137.05 803.51,-126.81"/>
<polygon fill="#63b8ff" stroke="#63b8ff" points="803.81,-123.32 793.59,-126.1 803.31,-130.3 803.81,-123.32"/>
</a>
</g>
</g>
<!-- Node17 -->
<g id="Node000017" class="node">
<title>Node17</title>
<g id="a_Node000017"><a xlink:title=" ">
<polygon fill="#e0e0e0" stroke="#999999" points="1319.48,-20 1219.48,-20 1219.48,0 1319.48,0 1319.48,-20"/>
<text xml:space="preserve" text-anchor="middle" x="1269.48" y="-6.5" font-family="Helvetica,sans-Serif" font-size="10.00">SDL3_ttf/SDL_ttf.h</text>
</a>
</g>
</g>
<!-- Node1&#45;&gt;Node17 -->
<g id="edge66_Node000001_Node000017" class="edge">
<title>Node1&#45;&gt;Node17</title>
<g id="a_edge66_Node000001_Node000017"><a xlink:title=" ">
<path fill="none" stroke="#63b8ff" d="M1542.66,-174.81C1572.56,-170.83 1611.5,-160.14 1631.48,-132 1653.88,-100.47 1606.54,-66.07 1589.48,-56 1546.95,-30.88 1411.52,-19.03 1331.12,-14.07"/>
<polygon fill="#63b8ff" stroke="#63b8ff" points="1331.38,-10.58 1321.19,-13.48 1330.96,-17.57 1331.38,-10.58"/>
</a>
</g>
</g>
<!-- Node28 -->
<g id="Node000028" class="node">
<title>Node28</title>
<g id="a_Node000028"><a xlink:href="arcade_8h.html" target="_top" xlink:title="Fichier des mini&#45;jeux d&#39;arcade utilises dans la progression.">
<polygon fill="white" stroke="#666666" points="1621.98,-132 1530.98,-132 1530.98,-112 1621.98,-112 1621.98,-132"/>
<text xml:space="preserve" text-anchor="middle" x="1576.48" y="-118.5" font-family="Helvetica,sans-Serif" font-size="10.00">headers/arcade.h</text>
</a>
</g>
</g>
<!-- Node1&#45;&gt;Node28 -->
<g id="edge67_Node000001_Node000028" class="edge">
<title>Node1&#45;&gt;Node28</title>
<g id="a_edge67_Node000001_Node000028"><a xlink:title=" ">
<path fill="none" stroke="#63b8ff" d="M1515.37,-167.59C1526.19,-159.7 1541.89,-148.24 1554.67,-138.92"/>
<polygon fill="#63b8ff" stroke="#63b8ff" points="1556.5,-141.91 1562.51,-133.19 1552.37,-136.26 1556.5,-141.91"/>
</a>
</g>
</g>
<!-- Node6&#45;&gt;Node2 -->
<g id="edge6_Node000006_Node000002" class="edge">
<title>Node6&#45;&gt;Node2</title>
<g id="a_edge6_Node000006_Node000002"><a xlink:title=" ">
<path fill="none" stroke="#63b8ff" d="M792.11,-121.5C869.62,-121.46 1031.43,-116.39 1066.48,-76 1093.01,-45.43 1033.46,-27.31 987.48,-18.26"/>
<polygon fill="#63b8ff" stroke="#63b8ff" points="988.4,-14.87 977.93,-16.49 987.12,-21.76 988.4,-14.87"/>
</a>
</g>
</g>
<!-- Node6&#45;&gt;Node3 -->
<g id="edge7_Node000006_Node000003" class="edge">
<title>Node6&#45;&gt;Node3</title>
<g id="a_edge7_Node000006_Node000003"><a xlink:title=" ">
<path fill="none" stroke="#63b8ff" d="M708.92,-119.45C575.21,-114.27 163.7,-96.7 144.48,-76 101.43,-29.64 325.87,-16.33 450.59,-12.52"/>
<polygon fill="#63b8ff" stroke="#63b8ff" points="450.57,-16.02 460.46,-12.23 450.36,-9.02 450.57,-16.02"/>
</a>
</g>
</g>
<!-- Node6&#45;&gt;Node5 -->
<g id="edge10_Node000006_Node000005" class="edge">
<title>Node6&#45;&gt;Node5</title>
<g id="a_edge10_Node000006_Node000005"><a xlink:title=" ">
<path fill="none" stroke="#63b8ff" d="M708.61,-120.72C601.99,-119.45 311.86,-112.64 73.48,-76 72.48,-75.85 71.47,-75.68 70.44,-75.5"/>
<polygon fill="#63b8ff" stroke="#63b8ff" points="71.43,-72.13 60.93,-73.54 70.02,-78.99 71.43,-72.13"/>
</a>
</g>
</g>
<!-- Node7 -->
<g id="Node000007" class="node">
<title>Node7</title>
<g id="a_Node000007"><a xlink:title=" ">
<polygon fill="#e0e0e0" stroke="#999999" points="806.48,-76 760.48,-76 760.48,-56 806.48,-56 806.48,-76"/>
<text xml:space="preserve" text-anchor="middle" x="783.48" y="-62.5" font-family="Helvetica,sans-Serif" font-size="10.00">math.h</text>
</a>
</g>
</g>
<!-- Node6&#45;&gt;Node7 -->
<g id="edge8_Node000006_Node000007" class="edge">
<title>Node6&#45;&gt;Node7</title>
<g id="a_edge8_Node000006_Node000007"><a xlink:title=" ">
<path fill="none" stroke="#63b8ff" d="M756.23,-111.59C760.53,-104.55 766.57,-94.67 771.87,-86"/>
<polygon fill="#63b8ff" stroke="#63b8ff" points="774.78,-87.95 777.01,-77.59 768.81,-84.3 774.78,-87.95"/>
</a>
</g>
</g>
<!-- Node8 -->
<g id="Node000008" class="node">
<title>Node8</title>
<g id="a_Node000008"><a xlink:title=" ">
<polygon fill="#e0e0e0" stroke="#999999" points="270.48,-20 140.48,-20 140.48,0 270.48,0 270.48,-20"/>
<text xml:space="preserve" text-anchor="middle" x="205.48" y="-6.5" font-family="Helvetica,sans-Serif" font-size="10.00">SDL3_mixer/SDL_mixer.h</text>
</a>
</g>
</g>
<!-- Node6&#45;&gt;Node8 -->
<g id="edge9_Node000006_Node000008" class="edge">
<title>Node6&#45;&gt;Node8</title>
<g id="a_edge9_Node000006_Node000008"><a xlink:title=" ">
<path fill="none" stroke="#63b8ff" d="M708.77,-119.49C573.58,-114.41 155.02,-97.02 135.48,-76 118.31,-57.53 146.23,-38.07 171.74,-25.31"/>
<polygon fill="#63b8ff" stroke="#63b8ff" points="173.11,-28.53 180.65,-21.09 170.11,-22.21 173.11,-28.53"/>
</a>
</g>
</g>
<!-- Node9 -->
<g id="Node000009" class="node">
<title>Node9</title>
<g id="a_Node000009"><a xlink:title=" ">
<polygon fill="#e0e0e0" stroke="#999999" points="872.23,-76 824.73,-76 824.73,-56 872.23,-56 872.23,-76"/>
<text xml:space="preserve" text-anchor="middle" x="848.48" y="-62.5" font-family="Helvetica,sans-Serif" font-size="10.00">stdlib.h</text>
</a>
</g>
</g>
<!-- Node6&#45;&gt;Node9 -->
<g id="edge11_Node000006_Node000009" class="edge">
<title>Node6&#45;&gt;Node9</title>
<g id="a_edge11_Node000006_Node000009"><a xlink:title=" ">
<path fill="none" stroke="#63b8ff" d="M767.55,-111.59C782.35,-103.44 804.05,-91.48 821.25,-82"/>
<polygon fill="#63b8ff" stroke="#63b8ff" points="822.88,-85.1 829.95,-77.21 819.5,-78.97 822.88,-85.1"/>
</a>
</g>
</g>
<!-- Node10 -->
<g id="Node000010" class="node">
<title>Node10</title>
<g id="a_Node000010"><a xlink:href="menu_8h.html" target="_top" xlink:title="Fichier du menu principal et des choix de navigation.">
<polygon fill="white" stroke="#666666" points="742.6,-76 694.35,-76 694.35,-56 742.6,-56 742.6,-76"/>
<text xml:space="preserve" text-anchor="middle" x="718.48" y="-62.5" font-family="Helvetica,sans-Serif" font-size="10.00">menu.h</text>
</a>
</g>
</g>
<!-- Node6&#45;&gt;Node10 -->
<g id="edge12_Node000006_Node000010" class="edge">
<title>Node6&#45;&gt;Node10</title>
<g id="a_edge12_Node000006_Node000010"><a xlink:title=" ">
<path fill="none" stroke="#63b8ff" d="M744.91,-111.59C740.73,-104.55 734.88,-94.67 729.74,-86"/>
<polygon fill="#63b8ff" stroke="#63b8ff" points="732.87,-84.42 724.76,-77.6 726.85,-87.99 732.87,-84.42"/>
</a>
</g>
</g>
<!-- Node11 -->
<g id="Node000011" class="node">
<title>Node11</title>
<g id="a_Node000011"><a xlink:href="game__over_8h.html" target="_top" xlink:title="Fichier de l&#39;ecran de fin de partie et des transitions associees.">
<polygon fill="white" stroke="#666666" points="347.6,-76 275.35,-76 275.35,-56 347.6,-56 347.6,-76"/>
<text xml:space="preserve" text-anchor="middle" x="311.48" y="-62.5" font-family="Helvetica,sans-Serif" font-size="10.00">game_over.h</text>
</a>
</g>
</g>
<!-- Node6&#45;&gt;Node11 -->
<g id="edge15_Node000006_Node000011" class="edge">
<title>Node6&#45;&gt;Node11</title>
<g id="a_edge15_Node000006_Node000011"><a xlink:title=" ">
<path fill="none" stroke="#63b8ff" d="M708.63,-117.38C638.46,-111.06 492.45,-96.83 359,-76.28"/>
<polygon fill="#63b8ff" stroke="#63b8ff" points="359.7,-72.85 349.28,-74.76 358.62,-79.76 359.7,-72.85"/>
</a>
</g>
</g>
<!-- Node12 -->
<g id="Node000012" class="node">
<title>Node12</title>
<g id="a_Node000012"><a xlink:href="jeux_8h.html" target="_top" xlink:title="Fichier de la boucle de jeu principale et de son initialisation.">
<polygon fill="white" stroke="#666666" points="195.6,-76 153.35,-76 153.35,-56 195.6,-56 195.6,-76"/>
<text xml:space="preserve" text-anchor="middle" x="174.48" y="-62.5" font-family="Helvetica,sans-Serif" font-size="10.00">jeux.h</text>
</a>
</g>
</g>
<!-- Node6&#45;&gt;Node12 -->
<g id="edge18_Node000006_Node000012" class="edge">
<title>Node6&#45;&gt;Node12</title>
<g id="a_edge18_Node000006_Node000012"><a xlink:title=" ">
<path fill="none" stroke="#63b8ff" d="M708.64,-120.52C618.41,-118.86 398.8,-111.41 207.11,-76.12"/>
<polygon fill="#63b8ff" stroke="#63b8ff" points="207.94,-72.72 197.46,-74.32 206.65,-79.6 207.94,-72.72"/>
</a>
</g>
</g>
<!-- Node13 -->
<g id="Node000013" class="node">
<title>Node13</title>
<g id="a_Node000013"><a xlink:href="bouton_8h.html" target="_top" xlink:title="Fichier des boutons UI, de leur etat et de la gestion des interactions souris.">
<polygon fill="white" stroke="#666666" points="419.23,-76 365.73,-76 365.73,-56 419.23,-56 419.23,-76"/>
<text xml:space="preserve" text-anchor="middle" x="392.48" y="-62.5" font-family="Helvetica,sans-Serif" font-size="10.00">bouton.h</text>
</a>
</g>
</g>
<!-- Node6&#45;&gt;Node13 -->
<g id="edge22_Node000006_Node000013" class="edge">
<title>Node6&#45;&gt;Node13</title>
<g id="a_edge22_Node000006_Node000013"><a xlink:title=" ">
<path fill="none" stroke="#63b8ff" d="M708.82,-116.61C649.33,-110.03 536.41,-96.38 430.73,-76.25"/>
<polygon fill="#63b8ff" stroke="#63b8ff" points="431.51,-72.84 421.02,-74.38 430.18,-79.71 431.51,-72.84"/>
</a>
</g>
</g>
<!-- Node14 -->
<g id="Node000014" class="node">
<title>Node14</title>
<g id="a_Node000014"><a xlink:href="option_8h.html" target="_top" xlink:title="Fichier de l&#39;ecran d&#39;options et des reglages de jeu.">
<polygon fill="white" stroke="#666666" points="487.73,-76 437.23,-76 437.23,-56 487.73,-56 487.73,-76"/>
<text xml:space="preserve" text-anchor="middle" x="462.48" y="-62.5" font-family="Helvetica,sans-Serif" font-size="10.00">option.h</text>
</a>
</g>
</g>
<!-- Node6&#45;&gt;Node14 -->
<g id="edge25_Node000006_Node000014" class="edge">
<title>Node6&#45;&gt;Node14</title>
<g id="a_edge25_Node000006_Node000014"><a xlink:title=" ">
<path fill="none" stroke="#63b8ff" d="M708.91,-114.73C660.71,-107.21 578.62,-93.68 499.23,-76.47"/>
<polygon fill="#63b8ff" stroke="#63b8ff" points="500.04,-73.06 489.52,-74.34 498.54,-79.9 500.04,-73.06"/>
</a>
</g>
</g>
<!-- Node15 -->
<g id="Node000015" class="node">
<title>Node15</title>
<g id="a_Node000015"><a xlink:href="perso_8h.html" target="_top" xlink:title="Fichier du personnage: deplacement, combat, stats et collisions.">
<polygon fill="white" stroke="#666666" points="553.6,-76 505.35,-76 505.35,-56 553.6,-56 553.6,-76"/>
<text xml:space="preserve" text-anchor="middle" x="529.48" y="-62.5" font-family="Helvetica,sans-Serif" font-size="10.00">perso.h</text>
</a>
</g>
</g>
<!-- Node6&#45;&gt;Node15 -->
<g id="edge28_Node000006_Node000015" class="edge">
<title>Node6&#45;&gt;Node15</title>
<g id="a_edge28_Node000006_Node000015"><a xlink:title=" ">
<path fill="none" stroke="#63b8ff" d="M709.31,-111.54C673.55,-103.23 620.08,-90.6 565,-76.59"/>
<polygon fill="#63b8ff" stroke="#63b8ff" points="565.99,-73.23 555.43,-74.14 564.25,-80.01 565.99,-73.23"/>
</a>
</g>
</g>
<!-- Node16 -->
<g id="Node000016" class="node">
<title>Node16</title>
<g id="a_Node000016"><a xlink:href="son_8h.html" target="_top" xlink:title="Fichier audio: musique, effets sonores et etats d&#39;activation.">
<polygon fill="white" stroke="#666666" points="930.48,-76 890.48,-76 890.48,-56 930.48,-56 930.48,-76"/>
<text xml:space="preserve" text-anchor="middle" x="910.48" y="-62.5" font-family="Helvetica,sans-Serif" font-size="10.00">son.h</text>
</a>
</g>
</g>
<!-- Node6&#45;&gt;Node16 -->
<g id="edge31_Node000006_Node000016" class="edge">
<title>Node6&#45;&gt;Node16</title>
<g id="a_edge31_Node000006_Node000016"><a xlink:title=" ">
<path fill="none" stroke="#63b8ff" d="M778.35,-111.59C806.49,-102.1 849.87,-87.46 879.17,-77.57"/>
<polygon fill="#63b8ff" stroke="#63b8ff" points="880.24,-80.9 888.6,-74.38 878,-74.27 880.24,-80.9"/>
</a>
</g>
</g>
<!-- Node18 -->
<g id="Node000018" class="node">
<title>Node18</title>
<g id="a_Node000018"><a xlink:href="boss_8h.html" target="_top" xlink:title="API de gestion des boss, de leurs phases et de leurs comportements de combat.">
<polygon fill="white" stroke="#666666" points="994.1,-76 948.85,-76 948.85,-56 994.1,-56 994.1,-76"/>
<text xml:space="preserve" text-anchor="middle" x="971.48" y="-62.5" font-family="Helvetica,sans-Serif" font-size="10.00">boss.h</text>
</a>
</g>
</g>
<!-- Node6&#45;&gt;Node18 -->
<g id="edge36_Node000006_Node000018" class="edge">
<title>Node6&#45;&gt;Node18</title>
<g id="a_edge36_Node000006_Node000018"><a xlink:title=" ">
<path fill="none" stroke="#63b8ff" d="M792.26,-111.56C828.24,-103.32 881.82,-90.78 937.32,-76.48"/>
<polygon fill="#63b8ff" stroke="#63b8ff" points="938.17,-79.88 946.97,-73.98 936.41,-73.1 938.17,-79.88"/>
</a>
</g>
</g>
<!-- Node19 -->
<g id="Node000019" class="node">
<title>Node19</title>
<g id="a_Node000019"><a xlink:href="mob_8h.html" target="_top" xlink:title="Fichier des mobs: creation, mise a jour, rendu et file de respawn.">
<polygon fill="white" stroke="#666666" points="614.98,-76 571.98,-76 571.98,-56 614.98,-56 614.98,-76"/>
<text xml:space="preserve" text-anchor="middle" x="593.48" y="-62.5" font-family="Helvetica,sans-Serif" font-size="10.00">mob.h</text>
</a>
</g>
</g>
<!-- Node6&#45;&gt;Node19 -->
<g id="edge39_Node000006_Node000019" class="edge">
<title>Node6&#45;&gt;Node19</title>
<g id="a_edge39_Node000006_Node000019"><a xlink:title=" ">
<path fill="none" stroke="#63b8ff" d="M723.13,-111.59C696.14,-102.31 654.86,-88.11 626.16,-78.24"/>
<polygon fill="#63b8ff" stroke="#63b8ff" points="627.48,-74.99 616.89,-75.05 625.2,-81.61 627.48,-74.99"/>
</a>
</g>
</g>
<!-- Node20 -->
<g id="Node000020" class="node">
<title>Node20</title>
<g id="a_Node000020"><a xlink:href="vaisseau_8h.html" target="_top" xlink:title="Fichier de la scene vaisseau, des interactions et du retour en planete.">
<polygon fill="white" stroke="#666666" points="1177.1,-76 1113.85,-76 1113.85,-56 1177.1,-56 1177.1,-76"/>
<text xml:space="preserve" text-anchor="middle" x="1145.48" y="-62.5" font-family="Helvetica,sans-Serif" font-size="10.00">vaisseau.h</text>
</a>
</g>
</g>
<!-- Node6&#45;&gt;Node20 -->
<g id="edge42_Node000006_Node000020" class="edge">
<title>Node6&#45;&gt;Node20</title>
<g id="a_edge42_Node000006_Node000020"><a xlink:title=" ">
<path fill="none" stroke="#63b8ff" d="M792.24,-116.5C857.84,-109.24 988.97,-93.92 1099.48,-76 1100.32,-75.86 1101.17,-75.72 1102.03,-75.58"/>
<polygon fill="#63b8ff" stroke="#63b8ff" points="1102.64,-79.03 1111.87,-73.83 1101.41,-72.13 1102.64,-79.03"/>
</a>
</g>
</g>
<!-- Node21 -->
<g id="Node000021" class="node">
<title>Node21</title>
<g id="a_Node000021"><a xlink:href="map_8h.html" target="_top" xlink:title="Fichier de navigation carte et de gestion des ressources cartographiques.">
<polygon fill="white" stroke="#666666" points="256.98,-76 213.98,-76 213.98,-56 256.98,-56 256.98,-76"/>
<text xml:space="preserve" text-anchor="middle" x="235.48" y="-62.5" font-family="Helvetica,sans-Serif" font-size="10.00">map.h</text>
</a>
</g>
</g>
<!-- Node6&#45;&gt;Node21 -->
<g id="edge44_Node000006_Node000021" class="edge">
<title>Node6&#45;&gt;Node21</title>
<g id="a_edge44_Node000006_Node000021"><a xlink:title=" ">
<path fill="none" stroke="#63b8ff" d="M708.67,-119.78C626.2,-116.81 436.72,-107.13 268.66,-76.04"/>
<polygon fill="#63b8ff" stroke="#63b8ff" points="269.33,-72.61 258.86,-74.19 268.04,-79.48 269.33,-72.61"/>
</a>
</g>
</g>
<!-- Node22 -->
<g id="Node000022" class="node">
<title>Node22</title>
<g id="a_Node000022"><a xlink:href="item_8h.html" target="_top" xlink:title="Fichier de creation, d&#39;affichage et de destruction des items.">
<polygon fill="white" stroke="#666666" points="675.98,-76 632.98,-76 632.98,-56 675.98,-56 675.98,-76"/>
<text xml:space="preserve" text-anchor="middle" x="654.48" y="-62.5" font-family="Helvetica,sans-Serif" font-size="10.00">item.h</text>
</a>
</g>
</g>
<!-- Node6&#45;&gt;Node22 -->
<g id="edge48_Node000006_Node000022" class="edge">
<title>Node6&#45;&gt;Node22</title>
<g id="a_edge48_Node000006_Node000022"><a xlink:title=" ">
<path fill="none" stroke="#63b8ff" d="M733.76,-111.59C719.25,-103.44 698,-91.48 681.15,-82"/>
<polygon fill="#63b8ff" stroke="#63b8ff" points="683.08,-79.07 672.65,-77.22 679.65,-85.17 683.08,-79.07"/>
</a>
</g>
</g>
<!-- Node23 -->
<g id="Node000023" class="node">
<title>Node23</title>
<g id="a_Node000023"><a xlink:href="inventaire_8h.html" target="_top" xlink:title="Fichier de l&#39;inventaire, de la hotbar et des interactions de slots.">
<polygon fill="white" stroke="#666666" points="1261.6,-76 1195.35,-76 1195.35,-56 1261.6,-56 1261.6,-76"/>
<text xml:space="preserve" text-anchor="middle" x="1228.48" y="-62.5" font-family="Helvetica,sans-Serif" font-size="10.00">inventaire.h</text>
</a>
</g>
</g>
<!-- Node6&#45;&gt;Node23 -->
<g id="edge51_Node000006_Node000023" class="edge">
<title>Node6&#45;&gt;Node23</title>
<g id="a_edge51_Node000006_Node000023"><a xlink:title=" ">
<path fill="none" stroke="#63b8ff" d="M792.15,-118.21C868.08,-112.8 1034.18,-99.45 1183.86,-76.26"/>
<polygon fill="#63b8ff" stroke="#63b8ff" points="1184.24,-79.74 1193.57,-74.74 1183.15,-72.83 1184.24,-79.74"/>
</a>
</g>
</g>
<!-- Node24 -->
<g id="Node000024" class="node">
<title>Node24</title>
<g id="a_Node000024"><a xlink:href="sauvegarde_8h.html" target="_top" xlink:title="Fichier des slots de sauvegarde et du chargement de progression.">
<polygon fill="white" stroke="#666666" points="1528.73,-76 1454.23,-76 1454.23,-56 1528.73,-56 1528.73,-76"/>
<text xml:space="preserve" text-anchor="middle" x="1491.48" y="-62.5" font-family="Helvetica,sans-Serif" font-size="10.00">sauvegarde.h</text>
</a>
</g>
</g>
<!-- Node6&#45;&gt;Node24 -->
<g id="edge55_Node000006_Node000024" class="edge">
<title>Node6&#45;&gt;Node24</title>
<g id="a_edge55_Node000006_Node000024"><a xlink:title=" ">
<path fill="none" stroke="#63b8ff" d="M792.11,-120.11C898.59,-117.43 1189.66,-107.71 1442.58,-76.06"/>
<polygon fill="#63b8ff" stroke="#63b8ff" points="1442.85,-79.56 1452.33,-74.83 1441.97,-72.61 1442.85,-79.56"/>
</a>
</g>
</g>
<!-- Node25 -->
<g id="Node000025" class="node">
<title>Node25</title>
<g id="a_Node000025"><a xlink:href="objectifs_8h.html" target="_top" xlink:title="Fichier de suivi des objectifs de quete et de leur affichage.">
<polygon fill="white" stroke="#666666" points="1340.98,-76 1279.98,-76 1279.98,-56 1340.98,-56 1340.98,-76"/>
<text xml:space="preserve" text-anchor="middle" x="1310.48" y="-62.5" font-family="Helvetica,sans-Serif" font-size="10.00">objectifs.h</text>
</a>
</g>
</g>
<!-- Node6&#45;&gt;Node25 -->
<g id="edge58_Node000006_Node000025" class="edge">
<title>Node6&#45;&gt;Node25</title>
<g id="a_edge58_Node000006_Node000025"><a xlink:title=" ">
<path fill="none" stroke="#63b8ff" d="M792.16,-119.3C878.92,-115.37 1085.37,-103.86 1268.36,-76.11"/>
<polygon fill="#63b8ff" stroke="#63b8ff" points="1268.7,-79.6 1278.05,-74.62 1267.64,-72.68 1268.7,-79.6"/>
</a>
</g>
</g>
<!-- Node26 -->
<g id="Node000026" class="node">
<title>Node26</title>
<g id="a_Node000026"><a xlink:href="cinematique_8h.html" target="_top" xlink:title="Fichier des cinematics, des intros et des sequences de credits.">
<polygon fill="white" stroke="#666666" points="1435.85,-76 1359.1,-76 1359.1,-56 1435.85,-56 1435.85,-76"/>
<text xml:space="preserve" text-anchor="middle" x="1397.48" y="-62.5" font-family="Helvetica,sans-Serif" font-size="10.00">cinematique.h</text>
</a>
</g>
</g>
<!-- Node6&#45;&gt;Node26 -->
<g id="edge62_Node000006_Node000026" class="edge">
<title>Node6&#45;&gt;Node26</title>
<g id="a_edge62_Node000006_Node000026"><a xlink:title=" ">
<path fill="none" stroke="#63b8ff" d="M792.11,-119.52C888.24,-115.74 1133.26,-104.12 1347.65,-76.24"/>
<polygon fill="#63b8ff" stroke="#63b8ff" points="1347.85,-79.74 1357.31,-74.97 1346.94,-72.8 1347.85,-79.74"/>
</a>
</g>
</g>
<!-- Node27 -->
<g id="Node000027" class="node">
<title>Node27</title>
<g id="a_Node000027"><a xlink:href="shop_8h.html" target="_top" xlink:title="Fichier de la boutique, des achats et de l&#39;economie joueur.">
<polygon fill="white" stroke="#666666" points="1057.1,-76 1011.85,-76 1011.85,-56 1057.1,-56 1057.1,-76"/>
<text xml:space="preserve" text-anchor="middle" x="1034.48" y="-62.5" font-family="Helvetica,sans-Serif" font-size="10.00">shop.h</text>
</a>
</g>
</g>
<!-- Node6&#45;&gt;Node27 -->
<g id="edge64_Node000006_Node000027" class="edge">
<title>Node6&#45;&gt;Node27</title>
<g id="a_edge64_Node000006_Node000027"><a xlink:title=" ">
<path fill="none" stroke="#63b8ff" d="M791.95,-115.01C840.03,-107.77 921.85,-94.5 1000.46,-76.53"/>
<polygon fill="#63b8ff" stroke="#63b8ff" points="1001.1,-79.97 1010.05,-74.3 999.52,-73.15 1001.1,-79.97"/>
</a>
</g>
</g>
<!-- Node10&#45;&gt;Node2 -->
<g id="edge13_Node000010_Node000002" class="edge">
<title>Node10&#45;&gt;Node2</title>
<g id="a_edge13_Node000010_Node000002"><a xlink:title=" ">
<path fill="none" stroke="#63b8ff" d="M742.96,-58.23C745.83,-57.46 748.72,-56.71 751.48,-56 799.82,-43.66 855.38,-30.56 893.7,-21.69"/>
<polygon fill="#63b8ff" stroke="#63b8ff" points="894.08,-25.2 903.04,-19.54 892.51,-18.38 894.08,-25.2"/>
</a>
</g>
</g>
<!-- Node10&#45;&gt;Node3 -->
<g id="edge14_Node000010_Node000003" class="edge">
<title>Node10&#45;&gt;Node3</title>
<g id="a_edge14_Node000010_Node000003"><a xlink:title=" ">
<path fill="none" stroke="#63b8ff" d="M694.16,-58.05C663.67,-49.34 610.85,-34.25 573.26,-23.51"/>
<polygon fill="#63b8ff" stroke="#63b8ff" points="574.64,-20.26 564.06,-20.88 572.71,-26.99 574.64,-20.26"/>
</a>
</g>
</g>
<!-- Node11&#45;&gt;Node2 -->
<g id="edge16_Node000011_Node000002" class="edge">
<title>Node11&#45;&gt;Node2</title>
<g id="a_edge16_Node000011_Node000002"><a xlink:title=" ">
<path fill="none" stroke="#63b8ff" d="M347.77,-57.35C350.71,-56.85 353.64,-56.39 356.48,-56 554.68,-28.65 793.18,-16.76 892.96,-12.72"/>
<polygon fill="#63b8ff" stroke="#63b8ff" points="893.07,-16.22 902.92,-12.33 892.79,-9.22 893.07,-16.22"/>
</a>
</g>
</g>
<!-- Node11&#45;&gt;Node3 -->
<g id="edge17_Node000011_Node000003" class="edge">
<title>Node11&#45;&gt;Node3</title>
<g id="a_edge17_Node000011_Node000003"><a xlink:title=" ">
<path fill="none" stroke="#63b8ff" d="M347.97,-55.96C384.23,-46.98 440.09,-33.14 480.26,-23.19"/>
<polygon fill="#63b8ff" stroke="#63b8ff" points="481.07,-26.6 489.94,-20.8 479.39,-19.8 481.07,-26.6"/>
</a>
</g>
</g>
<!-- Node12&#45;&gt;Node2 -->
<g id="edge19_Node000012_Node000002" class="edge">
<title>Node12&#45;&gt;Node2</title>
<g id="a_edge19_Node000012_Node000002"><a xlink:title=" ">
<path fill="none" stroke="#63b8ff" d="M195.97,-57.91C198.81,-57.16 201.7,-56.5 204.48,-56 337.64,-32.28 752.43,-17.06 893.2,-12.47"/>
<polygon fill="#63b8ff" stroke="#63b8ff" points="893.01,-15.97 902.89,-12.15 892.78,-8.98 893.01,-15.97"/>
</a>
</g>
</g>
<!-- Node12&#45;&gt;Node3 -->
<g id="edge20_Node000012_Node000003" class="edge">
<title>Node12&#45;&gt;Node3</title>
<g id="a_edge20_Node000012_Node000003"><a xlink:title=" ">
<path fill="none" stroke="#63b8ff" d="M196.01,-58.11C198.84,-57.33 201.72,-56.6 204.48,-56 287.74,-37.86 384.67,-25.55 450.87,-18.46"/>
<polygon fill="#63b8ff" stroke="#63b8ff" points="450.95,-21.97 460.53,-17.44 450.22,-15.01 450.95,-21.97"/>
</a>
</g>
</g>
<!-- Node12&#45;&gt;Node8 -->
<g id="edge21_Node000012_Node000008" class="edge">
<title>Node12&#45;&gt;Node8</title>
<g id="a_edge21_Node000012_Node000008"><a xlink:title=" ">
<path fill="none" stroke="#63b8ff" d="M179.88,-55.59C183.92,-48.55 189.6,-38.67 194.57,-30"/>
<polygon fill="#63b8ff" stroke="#63b8ff" points="197.44,-32.03 199.39,-21.61 191.37,-28.54 197.44,-32.03"/>
</a>
</g>
</g>
<!-- Node13&#45;&gt;Node2 -->
<g id="edge23_Node000013_Node000002" class="edge">
<title>Node13&#45;&gt;Node2</title>
<g id="a_edge23_Node000013_Node000002"><a xlink:title=" ">
<path fill="none" stroke="#63b8ff" d="M419.51,-57.76C422.52,-57.1 425.56,-56.49 428.48,-56 598.14,-27.52 802.65,-16.41 893.29,-12.67"/>
<polygon fill="#63b8ff" stroke="#63b8ff" points="893.18,-16.17 903.03,-12.28 892.9,-9.18 893.18,-16.17"/>
</a>
</g>
</g>
<!-- Node13&#45;&gt;Node3 -->
<g id="edge24_Node000013_Node000003" class="edge">
<title>Node13&#45;&gt;Node3</title>
<g id="a_edge24_Node000013_Node000003"><a xlink:title=" ">
<path fill="none" stroke="#63b8ff" d="M416.34,-55.59C438.02,-47.05 470.25,-34.35 494.77,-24.68"/>
<polygon fill="#63b8ff" stroke="#63b8ff" points="496,-27.96 504.02,-21.03 493.43,-21.45 496,-27.96"/>
</a>
</g>
</g>
<!-- Node14&#45;&gt;Node2 -->
<g id="edge26_Node000014_Node000002" class="edge">
<title>Node14&#45;&gt;Node2</title>
<g id="a_edge26_Node000014_Node000002"><a xlink:title=" ">
<path fill="none" stroke="#63b8ff" d="M488,-57.78C490.85,-57.12 493.72,-56.5 496.48,-56 639.43,-30 811.2,-17.95 892.86,-13.36"/>
<polygon fill="#63b8ff" stroke="#63b8ff" points="892.93,-16.86 902.73,-12.82 892.55,-9.87 892.93,-16.86"/>
</a>
</g>
</g>
<!-- Node14&#45;&gt;Node3 -->
<g id="edge27_Node000014_Node000003" class="edge">
<title>Node14&#45;&gt;Node3</title>
<g id="a_edge27_Node000014_Node000003"><a xlink:title=" ">
<path fill="none" stroke="#63b8ff" d="M474.15,-55.59C483.76,-47.85 497.61,-36.69 509.05,-27.47"/>
<polygon fill="#63b8ff" stroke="#63b8ff" points="511.17,-30.25 516.76,-21.25 506.78,-24.8 511.17,-30.25"/>
</a>
</g>
</g>
<!-- Node15&#45;&gt;Node2 -->
<g id="edge29_Node000015_Node000002" class="edge">
<title>Node15&#45;&gt;Node2</title>
<g id="a_edge29_Node000015_Node000002"><a xlink:title=" ">
<path fill="none" stroke="#63b8ff" d="M553.89,-57.91C556.77,-57.2 559.68,-56.54 562.48,-56 680.15,-33.08 820.86,-20.05 892.87,-14.4"/>
<polygon fill="#63b8ff" stroke="#63b8ff" points="893.03,-17.9 902.73,-13.64 892.49,-10.92 893.03,-17.9"/>
</a>
</g>
</g>
<!-- Node15&#45;&gt;Node3 -->
<g id="edge30_Node000015_Node000003" class="edge">
<title>Node15&#45;&gt;Node3</title>
<g id="a_edge30_Node000015_Node000003"><a xlink:title=" ">
<path fill="none" stroke="#63b8ff" d="M529.48,-55.59C529.48,-49.01 529.48,-39.96 529.48,-31.73"/>
<polygon fill="#63b8ff" stroke="#63b8ff" points="532.98,-31.81 529.48,-21.81 525.98,-31.81 532.98,-31.81"/>
</a>
</g>
</g>
<!-- Node16&#45;&gt;Node2 -->
<g id="edge32_Node000016_Node000002" class="edge">
<title>Node16&#45;&gt;Node2</title>
<g id="a_edge32_Node000016_Node000002"><a xlink:title=" ">
<path fill="none" stroke="#63b8ff" d="M915.71,-55.59C919.58,-48.63 924.99,-38.89 929.76,-30.29"/>
<polygon fill="#63b8ff" stroke="#63b8ff" points="932.78,-32.06 934.58,-21.62 926.66,-28.66 932.78,-32.06"/>
</a>
</g>
</g>
<!-- Node16&#45;&gt;Node3 -->
<g id="edge33_Node000016_Node000003" class="edge">
<title>Node16&#45;&gt;Node3</title>
<g id="a_edge33_Node000016_Node000003"><a xlink:title=" ">
<path fill="none" stroke="#63b8ff" d="M890,-58.16C887.16,-57.35 884.26,-56.6 881.48,-56 788.76,-35.85 680.2,-23.65 608.42,-17.14"/>
<polygon fill="#63b8ff" stroke="#63b8ff" points="609,-13.68 598.73,-16.28 608.38,-20.65 609,-13.68"/>
</a>
</g>
</g>
<!-- Node16&#45;&gt;Node8 -->
<g id="edge35_Node000016_Node000008" class="edge">
<title>Node16&#45;&gt;Node8</title>
<g id="a_edge35_Node000016_Node000008"><a xlink:title=" ">
<path fill="none" stroke="#63b8ff" d="M890.03,-58C887.19,-57.22 884.28,-56.52 881.48,-56 768.45,-35 433.87,-19.83 282,-13.83"/>
<polygon fill="#63b8ff" stroke="#63b8ff" points="282.59,-10.36 272.46,-13.46 282.32,-17.35 282.59,-10.36"/>
</a>
</g>
</g>
<!-- Node16&#45;&gt;Node17 -->
<g id="edge34_Node000016_Node000017" class="edge">
<title>Node16&#45;&gt;Node17</title>
<g id="a_edge34_Node000016_Node000017"><a xlink:title=" ">
<path fill="none" stroke="#63b8ff" d="M930.96,-58.18C933.8,-57.37 936.7,-56.62 939.48,-56 1031.93,-35.5 1141.15,-22.81 1207.85,-16.33"/>
<polygon fill="#63b8ff" stroke="#63b8ff" points="1207.86,-19.85 1217.48,-15.41 1207.19,-12.88 1207.86,-19.85"/>
</a>
</g>
</g>
<!-- Node18&#45;&gt;Node2 -->
<g id="edge37_Node000018_Node000002" class="edge">
<title>Node18&#45;&gt;Node2</title>
<g id="a_edge37_Node000018_Node000002"><a xlink:title=" ">
<path fill="none" stroke="#63b8ff" d="M966.08,-55.59C962.03,-48.55 956.36,-38.67 951.39,-30"/>
<polygon fill="#63b8ff" stroke="#63b8ff" points="954.59,-28.54 946.57,-21.61 948.51,-32.03 954.59,-28.54"/>
</a>
</g>
</g>
<!-- Node18&#45;&gt;Node3 -->
<g id="edge38_Node000018_Node000003" class="edge">
<title>Node18&#45;&gt;Node3</title>
<g id="a_edge38_Node000018_Node000003"><a xlink:title=" ">
<path fill="none" stroke="#63b8ff" d="M948.52,-58.05C945.49,-57.28 942.43,-56.57 939.48,-56 825.51,-33.88 691.46,-21.73 608.47,-15.79"/>
<polygon fill="#63b8ff" stroke="#63b8ff" points="608.83,-12.31 598.61,-15.1 608.34,-19.29 608.83,-12.31"/>
</a>
</g>
</g>
<!-- Node19&#45;&gt;Node2 -->
<g id="edge40_Node000019_Node000002" class="edge">
<title>Node19&#45;&gt;Node2</title>
<g id="a_edge40_Node000019_Node000002"><a xlink:title=" ">
<path fill="none" stroke="#63b8ff" d="M615.33,-58.03C618.06,-57.28 620.82,-56.58 623.48,-56 718.09,-35.22 830.79,-21.88 893.11,-15.48"/>
<polygon fill="#63b8ff" stroke="#63b8ff" points="893.41,-18.96 903.01,-14.48 892.7,-12 893.41,-18.96"/>
</a>
</g>
</g>
<!-- Node19&#45;&gt;Node3 -->
<g id="edge41_Node000019_Node000003" class="edge">
<title>Node19&#45;&gt;Node3</title>
<g id="a_edge41_Node000019_Node000003"><a xlink:title=" ">
<path fill="none" stroke="#63b8ff" d="M582.33,-55.59C573.15,-47.85 559.92,-36.69 549,-27.47"/>
<polygon fill="#63b8ff" stroke="#63b8ff" points="551.56,-25.05 541.66,-21.27 547.04,-30.4 551.56,-25.05"/>
</a>
</g>
</g>
<!-- Node20&#45;&gt;Node2 -->
<g id="edge43_Node000020_Node000002" class="edge">
<title>Node20&#45;&gt;Node2</title>
<g id="a_edge43_Node000020_Node000002"><a xlink:title=" ">
<path fill="none" stroke="#63b8ff" d="M1113.45,-56.56C1079.63,-47.65 1025.96,-33.52 987.38,-23.35"/>
<polygon fill="#63b8ff" stroke="#63b8ff" points="988.45,-20.02 977.89,-20.85 986.66,-26.79 988.45,-20.02"/>
</a>
</g>
</g>
<!-- Node21&#45;&gt;Node2 -->
<g id="edge45_Node000021_Node000002" class="edge">
<title>Node21&#45;&gt;Node2</title>
<g id="a_edge45_Node000021_Node000002"><a xlink:title=" ">
<path fill="none" stroke="#63b8ff" d="M257.36,-58.01C260.4,-57.23 263.5,-56.53 266.48,-56 387.28,-34.69 760.69,-18.16 893.23,-12.83"/>
<polygon fill="#63b8ff" stroke="#63b8ff" points="893.19,-16.33 903.04,-12.43 892.91,-9.34 893.19,-16.33"/>
</a>
</g>
</g>
<!-- Node21&#45;&gt;Node3 -->
<g id="edge46_Node000021_Node000003" class="edge">
<title>Node21&#45;&gt;Node3</title>
<g id="a_edge46_Node000021_Node000003"><a xlink:title=" ">
<path fill="none" stroke="#63b8ff" d="M257.41,-58.3C260.45,-57.47 263.53,-56.68 266.48,-56 327.78,-41.9 398.04,-30.1 450.52,-22.12"/>
<polygon fill="#63b8ff" stroke="#63b8ff" points="450.9,-25.61 460.27,-20.66 449.86,-18.68 450.9,-25.61"/>
</a>
</g>
</g>
<!-- Node21&#45;&gt;Node8 -->
<g id="edge47_Node000021_Node000008" class="edge">
<title>Node21&#45;&gt;Node8</title>
<g id="a_edge47_Node000021_Node000008"><a xlink:title=" ">
<path fill="none" stroke="#63b8ff" d="M230.25,-55.59C226.38,-48.63 220.97,-38.89 216.19,-30.29"/>
<polygon fill="#63b8ff" stroke="#63b8ff" points="219.3,-28.66 211.38,-21.62 213.18,-32.06 219.3,-28.66"/>
</a>
</g>
</g>
<!-- Node22&#45;&gt;Node2 -->
<g id="edge49_Node000022_Node000002" class="edge">
<title>Node22&#45;&gt;Node2</title>
<g id="a_edge49_Node000022_Node000002"><a xlink:title=" ">
<path fill="none" stroke="#63b8ff" d="M676.42,-58.31C679.45,-57.48 682.53,-56.69 685.48,-56 757.33,-39.28 841.84,-25.51 893.26,-17.77"/>
<polygon fill="#63b8ff" stroke="#63b8ff" points="893.46,-21.28 902.84,-16.34 892.43,-14.36 893.46,-21.28"/>
</a>
</g>
</g>
<!-- Node22&#45;&gt;Node3 -->
<g id="edge50_Node000022_Node000003" class="edge">
<title>Node22&#45;&gt;Node3</title>
<g id="a_edge50_Node000022_Node000003"><a xlink:title=" ">
<path fill="none" stroke="#63b8ff" d="M632.71,-55.59C613.11,-47.13 584.05,-34.58 561.75,-24.94"/>
<polygon fill="#63b8ff" stroke="#63b8ff" points="563.38,-21.83 552.81,-21.08 560.6,-28.26 563.38,-21.83"/>
</a>
</g>
</g>
<!-- Node23&#45;&gt;Node2 -->
<g id="edge52_Node000023_Node000002" class="edge">
<title>Node23&#45;&gt;Node2</title>
<g id="a_edge52_Node000023_Node000002"><a xlink:title=" ">
<path fill="none" stroke="#63b8ff" d="M1195.03,-57.74C1192.14,-57.14 1189.26,-56.55 1186.48,-56 1117.49,-42.3 1037.29,-27.92 987.71,-19.2"/>
<polygon fill="#63b8ff" stroke="#63b8ff" points="988.34,-15.76 977.89,-17.48 987.13,-22.66 988.34,-15.76"/>
</a>
</g>
</g>
<!-- Node23&#45;&gt;Node3 -->
<g id="edge53_Node000023_Node000003" class="edge">
<title>Node23&#45;&gt;Node3</title>
<g id="a_edge53_Node000023_Node000003"><a xlink:title=" ">
<path fill="none" stroke="#63b8ff" d="M1195.09,-57.39C1192.18,-56.87 1189.29,-56.39 1186.48,-56 978.98,-26.81 731.84,-16.35 608.18,-12.77"/>
<polygon fill="#63b8ff" stroke="#63b8ff" points="608.57,-9.27 598.47,-12.49 608.37,-16.27 608.57,-9.27"/>
</a>
</g>
</g>
<!-- Node23&#45;&gt;Node17 -->
<g id="edge54_Node000023_Node000017" class="edge">
<title>Node23&#45;&gt;Node17</title>
<g id="a_edge54_Node000023_Node000017"><a xlink:title=" ">
<path fill="none" stroke="#63b8ff" d="M1235.62,-55.59C1241.09,-48.39 1248.8,-38.23 1255.49,-29.43"/>
<polygon fill="#63b8ff" stroke="#63b8ff" points="1258.24,-31.58 1261.5,-21.5 1252.67,-27.35 1258.24,-31.58"/>
</a>
</g>
</g>
<!-- Node24&#45;&gt;Node2 -->
<g id="edge56_Node000024_Node000002" class="edge">
<title>Node24&#45;&gt;Node2</title>
<g id="a_edge56_Node000024_Node000002"><a xlink:title=" ">
<path fill="none" stroke="#63b8ff" d="M1453.82,-57.45C1450.67,-56.92 1447.52,-56.43 1444.48,-56 1277.54,-32.62 1077.7,-19.01 988.07,-13.66"/>
<polygon fill="#63b8ff" stroke="#63b8ff" points="988.38,-10.17 978.19,-13.07 987.97,-17.16 988.38,-10.17"/>
</a>
</g>
</g>
<!-- Node24&#45;&gt;Node4 -->
<g id="edge57_Node000024_Node000004" class="edge">
<title>Node24&#45;&gt;Node4</title>
<g id="a_edge57_Node000024_Node000004"><a xlink:title=" ">
<path fill="none" stroke="#63b8ff" d="M1508.55,-55.59C1523.35,-47.44 1545.05,-35.48 1562.25,-26"/>
<polygon fill="#63b8ff" stroke="#63b8ff" points="1563.88,-29.1 1570.95,-21.21 1560.5,-22.97 1563.88,-29.1"/>
</a>
</g>
</g>
<!-- Node25&#45;&gt;Node2 -->
<g id="edge59_Node000025_Node000002" class="edge">
<title>Node25&#45;&gt;Node2</title>
<g id="a_edge59_Node000025_Node000002"><a xlink:title=" ">
<path fill="none" stroke="#63b8ff" d="M1279.52,-57.76C1276.48,-57.13 1273.42,-56.53 1270.48,-56 1170.3,-37.93 1051.85,-23.44 987.63,-16.14"/>
<polygon fill="#63b8ff" stroke="#63b8ff" points="988.12,-12.67 977.79,-15.03 987.34,-19.63 988.12,-12.67"/>
</a>
</g>
</g>
<!-- Node25&#45;&gt;Node3 -->
<g id="edge60_Node000025_Node000003" class="edge">
<title>Node25&#45;&gt;Node3</title>
<g id="a_edge60_Node000025_Node000003"><a xlink:title=" ">
<path fill="none" stroke="#63b8ff" d="M1279.56,-57.53C1276.5,-56.94 1273.44,-56.42 1270.48,-56 1031.02,-22.01 744.46,-13.67 608.52,-11.64"/>
<polygon fill="#63b8ff" stroke="#63b8ff" points="608.58,-8.14 598.54,-11.5 608.49,-15.14 608.58,-8.14"/>
</a>
</g>
</g>
<!-- Node25&#45;&gt;Node17 -->
<g id="edge61_Node000025_Node000017" class="edge">
<title>Node25&#45;&gt;Node17</title>
<g id="a_edge61_Node000025_Node000017"><a xlink:title=" ">
<path fill="none" stroke="#63b8ff" d="M1303.34,-55.59C1297.87,-48.39 1290.16,-38.23 1283.47,-29.43"/>
<polygon fill="#63b8ff" stroke="#63b8ff" points="1286.29,-27.35 1277.45,-21.5 1280.71,-31.58 1286.29,-27.35"/>
</a>
</g>
</g>
<!-- Node26&#45;&gt;Node2 -->
<g id="edge63_Node000026_Node000002" class="edge">
<title>Node26&#45;&gt;Node2</title>
<g id="a_edge63_Node000026_Node000002"><a xlink:title=" ">
<path fill="none" stroke="#63b8ff" d="M1358.79,-57.34C1355.98,-56.86 1353.19,-56.41 1350.48,-56 1219.64,-36.33 1064.09,-21.61 987.66,-14.94"/>
<polygon fill="#63b8ff" stroke="#63b8ff" points="988.3,-11.49 978.03,-14.11 987.7,-18.46 988.3,-11.49"/>
</a>
</g>
</g>
<!-- Node27&#45;&gt;Node2 -->
<g id="edge65_Node000027_Node000002" class="edge">
<title>Node27&#45;&gt;Node2</title>
<g id="a_edge65_Node000027_Node000002"><a xlink:title=" ">
<path fill="none" stroke="#63b8ff" d="M1018.11,-55.59C1003.91,-47.44 983.1,-35.48 966.6,-26"/>
<polygon fill="#63b8ff" stroke="#63b8ff" points="968.71,-23.18 958.29,-21.23 965.22,-29.25 968.71,-23.18"/>
</a>
</g>
</g>
<!-- Node28&#45;&gt;Node2 -->
<g id="edge68_Node000028_Node000002" class="edge">
<title>Node28&#45;&gt;Node2</title>
<g id="a_edge68_Node000028_Node000002"><a xlink:title=" ">
<path fill="none" stroke="#63b8ff" d="M1578.86,-111.93C1581.96,-97.79 1585.38,-70.59 1570.48,-56 1549.72,-35.66 1131.14,-18.14 988,-12.73"/>
<polygon fill="#63b8ff" stroke="#63b8ff" points="988.23,-9.23 978.1,-12.35 987.97,-16.23 988.23,-9.23"/>
</a>
</g>
</g>
</g>
</svg>
