<?xml version="1.0" encoding="UTF-8" standalone="no"?>
<!DOCTYPE svg PUBLIC "-//W3C//DTD SVG 1.1//EN"
 "http://www.w3.org/Graphics/SVG/1.1/DTD/svg11.dtd">
<!-- Generated by graphviz version 14.1.4 (20260321.0153)
 -->
<!-- Title: spawn_perso Pages: 1 -->
<svg width="685pt" height="116pt"
 viewBox="0.00 0.00 685.00 116.00" xmlns="http://www.w3.org/2000/svg" xmlns:xlink="http://www.w3.org/1999/xlink">
<g id="graph0" class="graph" transform="scale(1 1) rotate(0) translate(4 112.14)">
<title>spawn_perso</title>
<!-- Node1 -->
<g id="Node000001" class="node">
<title>Node1</title>
<g id="a_Node000001"><a xlink:title="Positionne le personnage a une tuile donnee en recentrant la camera.">
<polygon fill="#999999" stroke="#666666" points="677.25,-80.14 603.5,-80.14 603.5,-60.14 677.25,-60.14 677.25,-80.14"/>
<text xml:space="preserve" text-anchor="middle" x="640.38" y="-66.64" font-family="Helvetica,sans-Serif" font-size="10.00">spawn_perso</text>
</a>
</g>
</g>
<!-- Node2 -->
<g id="Node000002" class="node">
<title>Node2</title>
<g id="a_Node000002"><a xlink:href="vaisseau_8c.html#a0a52a68b442fd4ce981c10ec1ff84f8a" target="_top" xlink:title=" ">
<polygon fill="white" stroke="#666666" points="567.5,-61.14 495.25,-61.14 495.25,-41.14 567.5,-41.14 567.5,-61.14"/>
<text xml:space="preserve" text-anchor="middle" x="531.38" y="-47.64" font-family="Helvetica,sans-Serif" font-size="10.00">charger_map</text>
</a>
</g>
</g>
<!-- Node1&#45;&gt;Node2 -->
<g id="edge1_Node000001_Node000002" class="edge">
<title>Node1&#45;&gt;Node2</title>
<g id="a_edge1_Node000001_Node000002"><a xlink:title=" ">
<path fill="none" stroke="#63b8ff" d="M591.91,-61.71C583.82,-60.28 575.55,-58.81 567.84,-57.44"/>
<polygon fill="#63b8ff" stroke="#63b8ff" points="591.2,-65.14 601.66,-63.44 592.43,-58.25 591.2,-65.14"/>
</a>
</g>
</g>
<!-- Node6 -->
<g id="Node000006" class="node">
<title>Node6</title>
<g id="a_Node000006"><a xlink:href="vaisseau_8c.html#ace614afc8df3a40bd5ea0771044ff217" target="_top" xlink:title=" ">
<polygon fill="white" stroke="#666666" points="114.25,-80.14 0,-80.14 0,-60.14 114.25,-60.14 114.25,-80.14"/>
<text xml:space="preserve" text-anchor="middle" x="57.13" y="-66.64" font-family="Helvetica,sans-Serif" font-size="10.00">gerer_interaction_objet</text>
</a>
</g>
</g>
<!-- Node1&#45;&gt;Node6 -->
<g id="edge9_Node000001_Node000006" class="edge">
<title>Node1&#45;&gt;Node6</title>
<g id="a_edge9_Node000001_Node000006"><a xlink:title=" ">
<path fill="none" stroke="#63b8ff" d="M593.4,-83.55C551.82,-94.49 488.71,-108.14 432.75,-108.14 432.75,-108.14 432.75,-108.14 312,-108.14 237.35,-108.14 151.7,-91.87 101.41,-80.62"/>
<polygon fill="#63b8ff" stroke="#63b8ff" points="594.06,-87 602.81,-81.02 592.24,-80.24 594.06,-87"/>
</a>
</g>
</g>
<!-- Node3 -->
<g id="Node000003" class="node">
<title>Node3</title>
<g id="a_Node000003"><a xlink:href="vaisseau_8c.html#a8ea9afc9440149ddd36e96b97d8ed6c5" target="_top" xlink:title="Lance la scene interieure du vaisseau (deplacement, interactions, mini&#45;jeux, sortie).">
<polygon fill="white" stroke="#666666" points="459.25,-51.14 404.25,-51.14 404.25,-31.14 459.25,-31.14 459.25,-51.14"/>
<text xml:space="preserve" text-anchor="middle" x="431.75" y="-37.64" font-family="Helvetica,sans-Serif" font-size="10.00">vaisseau</text>
</a>
</g>
</g>
<!-- Node2&#45;&gt;Node3 -->
<g id="edge2_Node000002_Node000003" class="edge">
<title>Node2&#45;&gt;Node3</title>
<g id="a_edge2_Node000002_Node000003"><a xlink:title=" ">
<path fill="none" stroke="#63b8ff" d="M483.4,-46.33C475.2,-45.49 466.93,-44.64 459.52,-43.88"/>
<polygon fill="#63b8ff" stroke="#63b8ff" points="483.04,-49.81 493.35,-47.35 483.76,-42.85 483.04,-49.81"/>
</a>
</g>
</g>
<!-- Node4 -->
<g id="Node000004" class="node">
<title>Node4</title>
<g id="a_Node000004"><a xlink:href="cinematique_8c.html#a418cc3e727578f4cd509ad27cd6a2a31" target="_top" xlink:title="Lance cinematique fin et gere son deroulement complet.">
<polygon fill="white" stroke="#666666" points="368.25,-42.14 257.75,-42.14 257.75,-22.14 368.25,-22.14 368.25,-42.14"/>
<text xml:space="preserve" text-anchor="middle" x="313" y="-28.64" font-family="Helvetica,sans-Serif" font-size="10.00">jouer_cinematique_fin</text>
</a>
</g>
</g>
<!-- Node3&#45;&gt;Node4 -->
<g id="edge3_Node000003_Node000004" class="edge">
<title>Node3&#45;&gt;Node4</title>
<g id="a_edge3_Node000003_Node000004"><a xlink:title=" ">
<path fill="none" stroke="#63b8ff" d="M392.65,-38.2C384.86,-37.6 376.53,-36.96 368.3,-36.33"/>
<polygon fill="#63b8ff" stroke="#63b8ff" points="392.22,-41.68 402.46,-38.96 392.75,-34.7 392.22,-41.68"/>
</a>
</g>
</g>
<!-- Node7 -->
<g id="Node000007" class="node">
<title>Node7</title>
<g id="a_Node000007"><a xlink:href="main_8c.html#a0ddf1224851353fc92bfbff6f499fa97" target="_top" xlink:title=" ">
<polygon fill="white" stroke="#666666" points="75.62,-23.14 38.63,-23.14 38.63,-3.14 75.62,-3.14 75.62,-23.14"/>
<text xml:space="preserve" text-anchor="middle" x="57.13" y="-9.64" font-family="Helvetica,sans-Serif" font-size="10.00">main</text>
</a>
</g>
</g>
<!-- Node3&#45;&gt;Node7 -->
<g id="edge8_Node000003_Node000007" class="edge">
<title>Node3&#45;&gt;Node7</title>
<g id="a_edge8_Node000003_Node000007"><a xlink:title=" ">
<path fill="none" stroke="#63b8ff" d="M402.65,-25.53C392.18,-20.53 379.99,-15.65 368.25,-13.14 259.26,10.16 123.76,-4.22 75.88,-10.58"/>
<polygon fill="#63b8ff" stroke="#63b8ff" points="400.99,-28.61 411.5,-30 404.15,-22.36 400.99,-28.61"/>
</a>
</g>
</g>
<!-- Node5 -->
<g id="Node000005" class="node">
<title>Node5</title>
<g id="a_Node000005"><a xlink:href="map_8c.html#ad462ccdd50801fb085dc8134fc3765d1" target="_top" xlink:title="Affiche la carte et met a jour les elements visuels associes.">
<polygon fill="white" stroke="#666666" points="221.75,-42.14 150.25,-42.14 150.25,-22.14 221.75,-22.14 221.75,-42.14"/>
<text xml:space="preserve" text-anchor="middle" x="186" y="-28.64" font-family="Helvetica,sans-Serif" font-size="10.00">afficher_map</text>
</a>
</g>
</g>
<!-- Node4&#45;&gt;Node5 -->
<g id="edge4_Node000004_Node000005" class="edge">
<title>Node4&#45;&gt;Node5</title>
<g id="a_edge4_Node000004_Node000005"><a xlink:title=" ">
<path fill="none" stroke="#63b8ff" d="M246.25,-32.14C237.97,-32.14 229.76,-32.14 222.21,-32.14"/>
<polygon fill="#63b8ff" stroke="#63b8ff" points="246.02,-35.64 256.02,-32.14 246.02,-28.64 246.02,-35.64"/>
</a>
</g>
</g>
<!-- Node5&#45;&gt;Node6 -->
<g id="edge5_Node000005_Node000006" class="edge">
<title>Node5&#45;&gt;Node6</title>
<g id="a_edge5_Node000005_Node000006"><a xlink:title=" ">
<path fill="none" stroke="#63b8ff" d="M139.22,-45.85C123.99,-50.41 107.29,-55.42 93.02,-59.69"/>
<polygon fill="#63b8ff" stroke="#63b8ff" points="139.97,-49.28 148.55,-43.06 137.96,-42.57 139.97,-49.28"/>
</a>
</g>
</g>
<!-- Node5&#45;&gt;Node7 -->
<g id="edge7_Node000005_Node000007" class="edge">
<title>Node5&#45;&gt;Node7</title>
<g id="a_edge7_Node000005_Node000007"><a xlink:title=" ">
<path fill="none" stroke="#63b8ff" d="M138.89,-25.23C117.01,-21.96 92.16,-18.24 75.87,-15.8"/>
<polygon fill="#63b8ff" stroke="#63b8ff" points="138.09,-28.65 148.5,-26.67 139.13,-21.73 138.09,-28.65"/>
</a>
</g>
</g>
<!-- Node6&#45;&gt;Node3 -->
<g id="edge6_Node000006_Node000003" class="edge">
<title>Node6&#45;&gt;Node3</title>
<g id="a_edge6_Node000006_Node000003"><a xlink:title=" ">
<path fill="none" stroke="#63b8ff" d="M125.93,-67.89C188.87,-65.35 285.09,-60.32 368.25,-51.14 379.94,-49.85 392.77,-47.89 403.76,-46.05"/>
<polygon fill="#63b8ff" stroke="#63b8ff" points="125.94,-64.39 116.09,-68.28 126.22,-71.38 125.94,-64.39"/>
</a>
</g>
</g>
</g>
</svg>
