<?xml version="1.0" encoding="UTF-8" standalone="no"?>
<!DOCTYPE svg PUBLIC "-//W3C//DTD SVG 1.1//EN"
 "http://www.w3.org/Graphics/SVG/1.1/DTD/svg11.dtd">
<!-- Generated by graphviz version 14.1.4 (20260321.0153)
 -->
<!-- Title: vaisseau Pages: 1 -->
<svg width="316pt" height="332pt"
 viewBox="0.00 0.00 316.00 332.00" xmlns="http://www.w3.org/2000/svg" xmlns:xlink="http://www.w3.org/1999/xlink">

<svg id="main" version="1.1" xmlns="http://www.w3.org/2000/svg" xmlns:xlink="http://www.w3.org/1999/xlink" xml:space="preserve">

<style type="text/css"><![CDATA[
.node, .edge {opacity: 0.7;}
.node.selected, .edge.selected {opacity: 1;}
.edge:hover path { stroke: red; }
.edge:hover polygon { stroke: red; fill: red; }
]]></style>
<script type="application/ecmascript" xlink:href="svg.min.js"/>
<svg id="graph" class="graph">
<g id="graph0" class="graph" transform="scale(1 1) rotate(0) translate(4 328)">
<title>vaisseau</title>
<!-- Node1 -->
<g id="Node000001" class="node">
<title>Node1</title>
<g id="a_Node000001"><a xlink:title="Lance la scene interieure du vaisseau (deplacement, interactions, mini&#45;jeux, sortie).">
<polygon fill="#999999" stroke="#666666" points="55,-172 0,-172 0,-152 55,-152 55,-172"/>
<text xml:space="preserve" text-anchor="middle" x="27.5" y="-158.5" font-family="Helvetica,sans-Serif" font-size="10.00">vaisseau</text>
</a>
</g>
</g>
<!-- Node2 -->
<g id="Node000002" class="node">
<title>Node2</title>
<g id="a_Node000002"><a xlink:href="perso_8c.html#ae1d84a7757bff4f91b5388a92d99653c" target="_top" xlink:title="Affiche perso et met a jour les elements visuels associes.">
<polygon fill="white" stroke="#666666" points="183.12,-324 106.38,-324 106.38,-304 183.12,-304 183.12,-324"/>
<text xml:space="preserve" text-anchor="middle" x="144.75" y="-310.5" font-family="Helvetica,sans-Serif" font-size="10.00">afficher_perso</text>
</a>
</g>
</g>
<!-- Node1&#45;&gt;Node2 -->
<g id="edge1_Node000001_Node000002" class="edge">
<title>Node1&#45;&gt;Node2</title>
<g id="a_edge1_Node000001_Node000002"><a xlink:title=" ">
<path fill="none" stroke="#63b8ff" d="M30.5,-172.26C35.84,-196.93 52.71,-260.13 91,-295 92.62,-296.47 94.36,-297.84 96.19,-299.09"/>
<polygon fill="#63b8ff" stroke="#63b8ff" points="94.17,-301.98 104.61,-303.82 97.6,-295.87 94.17,-301.98"/>
</a>
</g>
</g>
<!-- Node3 -->
<g id="Node000003" class="node">
<title>Node3</title>
<g id="a_Node000003"><a xlink:href="perso_8c.html#aa234db7602e3e4190d21e9ffc79f3899" target="_top" xlink:title="Affiche les statistiques et met a jour les elements visuels associes.">
<polygon fill="white" stroke="#666666" points="179.38,-286 110.12,-286 110.12,-266 179.38,-266 179.38,-286"/>
<text xml:space="preserve" text-anchor="middle" x="144.75" y="-272.5" font-family="Helvetica,sans-Serif" font-size="10.00">afficher_stat</text>
</a>
</g>
</g>
<!-- Node1&#45;&gt;Node3 -->
<g id="edge2_Node000001_Node000003" class="edge">
<title>Node1&#45;&gt;Node3</title>
<g id="a_edge2_Node000001_Node000003"><a xlink:title=" ">
<path fill="none" stroke="#63b8ff" d="M32.68,-172.45C40.96,-191.83 61.23,-233.54 91,-257 93.58,-259.03 96.4,-260.86 99.34,-262.5"/>
<polygon fill="#63b8ff" stroke="#63b8ff" points="97.8,-265.64 108.33,-266.74 100.78,-259.31 97.8,-265.64"/>
</a>
</g>
</g>
<!-- Node4 -->
<g id="Node000004" class="node">
<title>Node4</title>
<g id="a_Node000004"><a xlink:href="vaisseau_8c.html#a65aa51a88252bf0513ce59cb9ef35358" target="_top" xlink:title=" ">
<polygon fill="white" stroke="#666666" points="179.38,-248 110.12,-248 110.12,-228 179.38,-228 179.38,-248"/>
<text xml:space="preserve" text-anchor="middle" x="144.75" y="-234.5" font-family="Helvetica,sans-Serif" font-size="10.00">afficher_text</text>
</a>
</g>
</g>
<!-- Node1&#45;&gt;Node4 -->
<g id="edge3_Node000001_Node000004" class="edge">
<title>Node1&#45;&gt;Node4</title>
<g id="a_edge3_Node000001_Node000004"><a xlink:title=" ">
<path fill="none" stroke="#63b8ff" d="M37.28,-172.17C48.59,-184.71 69.37,-205.96 91,-219 93.61,-220.57 96.36,-222.04 99.19,-223.41"/>
<polygon fill="#63b8ff" stroke="#63b8ff" points="97.68,-226.57 108.25,-227.35 100.47,-220.15 97.68,-226.57"/>
</a>
</g>
</g>
<!-- Node5 -->
<g id="Node000005" class="node">
<title>Node5</title>
<g id="a_Node000005"><a xlink:href="vaisseau_8c.html#a0a52a68b442fd4ce981c10ec1ff84f8a" target="_top" xlink:title=" ">
<polygon fill="white" stroke="#666666" points="180.88,-210 108.62,-210 108.62,-190 180.88,-190 180.88,-210"/>
<text xml:space="preserve" text-anchor="middle" x="144.75" y="-196.5" font-family="Helvetica,sans-Serif" font-size="10.00">charger_map</text>
</a>
</g>
</g>
<!-- Node1&#45;&gt;Node5 -->
<g id="edge4_Node000001_Node000005" class="edge">
<title>Node1&#45;&gt;Node5</title>
<g id="a_edge4_Node000001_Node000005"><a xlink:title=" ">
<path fill="none" stroke="#63b8ff" d="M55.23,-170.81C68.93,-175.33 85.93,-180.94 101.37,-186.03"/>
<polygon fill="#63b8ff" stroke="#63b8ff" points="100.23,-189.33 110.82,-189.14 102.42,-182.69 100.23,-189.33"/>
</a>
</g>
</g>
<!-- Node7 -->
<g id="Node000007" class="node">
<title>Node7</title>
<g id="a_Node000007"><a xlink:href="perso_8c.html#ac17ff910702e240707df1bb1443a3411" target="_top" xlink:title="Met a jour la position du joueur selon les entrees clavier et le delta temps.">
<polygon fill="white" stroke="#666666" points="185.75,-172 103.75,-172 103.75,-152 185.75,-152 185.75,-172"/>
<text xml:space="preserve" text-anchor="middle" x="144.75" y="-158.5" font-family="Helvetica,sans-Serif" font-size="10.00">deplacer_perso</text>
</a>
</g>
</g>
<!-- Node1&#45;&gt;Node7 -->
<g id="edge6_Node000001_Node000007" class="edge">
<title>Node1&#45;&gt;Node7</title>
<g id="a_edge6_Node000001_Node000007"><a xlink:title=" ">
<path fill="none" stroke="#63b8ff" d="M55.23,-162C66.23,-162 79.36,-162 92.09,-162"/>
<polygon fill="#63b8ff" stroke="#63b8ff" points="92.09,-165.5 102.09,-162 92.09,-158.5 92.09,-165.5"/>
</a>
</g>
</g>
<!-- Node8 -->
<g id="Node000008" class="node">
<title>Node8</title>
<g id="a_Node000008"><a xlink:href="vaisseau_8c.html#abd89247360d01ab77071e64639967e59" target="_top" xlink:title=" ">
<polygon fill="white" stroke="#666666" points="175.25,-134 114.25,-134 114.25,-114 175.25,-114 175.25,-134"/>
<text xml:space="preserve" text-anchor="middle" x="144.75" y="-120.5" font-family="Helvetica,sans-Serif" font-size="10.00">draw_map</text>
</a>
</g>
</g>
<!-- Node1&#45;&gt;Node8 -->
<g id="edge7_Node000001_Node000008" class="edge">
<title>Node1&#45;&gt;Node8</title>
<g id="a_edge7_Node000001_Node000008"><a xlink:title=" ">
<path fill="none" stroke="#63b8ff" d="M55.23,-153.19C69.49,-148.48 87.34,-142.6 103.27,-137.35"/>
<polygon fill="#63b8ff" stroke="#63b8ff" points="104.08,-140.76 112.48,-134.31 101.89,-134.12 104.08,-140.76"/>
</a>
</g>
</g>
<!-- Node9 -->
<g id="Node000009" class="node">
<title>Node9</title>
<g id="a_Node000009"><a xlink:href="vaisseau_8c.html#a5046ff6c88d57c428dd11a79a392baf5" target="_top" xlink:title=" ">
<polygon fill="white" stroke="#666666" points="198.5,-96 91,-96 91,-76 198.5,-76 198.5,-96"/>
<text xml:space="preserve" text-anchor="middle" x="144.75" y="-82.5" font-family="Helvetica,sans-Serif" font-size="10.00">est_en_collision_rect</text>
</a>
</g>
</g>
<!-- Node1&#45;&gt;Node9 -->
<g id="edge8_Node000001_Node000009" class="edge">
<title>Node1&#45;&gt;Node9</title>
<g id="a_edge8_Node000001_Node000009"><a xlink:title=" ">
<path fill="none" stroke="#63b8ff" d="M37.28,-151.83C48.59,-139.29 69.37,-118.04 91,-105 93.29,-103.62 95.69,-102.32 98.15,-101.1"/>
<polygon fill="#63b8ff" stroke="#63b8ff" points="99.42,-104.36 107.14,-97.11 96.58,-97.97 99.42,-104.36"/>
</a>
</g>
</g>
<!-- Node11 -->
<g id="Node000011" class="node">
<title>Node11</title>
<g id="a_Node000011"><a xlink:href="vaisseau_8c.html#a6d467f247475d877f0ac79307d90a748" target="_top" xlink:title=" ">
<polygon fill="white" stroke="#666666" points="176.75,-58 112.75,-58 112.75,-38 176.75,-38 176.75,-58"/>
<text xml:space="preserve" text-anchor="middle" x="144.75" y="-44.5" font-family="Helvetica,sans-Serif" font-size="10.00">est_proche</text>
</a>
</g>
</g>
<!-- Node1&#45;&gt;Node11 -->
<g id="edge10_Node000001_Node000011" class="edge">
<title>Node1&#45;&gt;Node11</title>
<g id="a_edge10_Node000001_Node000011"><a xlink:title=" ">
<path fill="none" stroke="#63b8ff" d="M32.68,-151.55C40.96,-132.17 61.23,-90.46 91,-67 94.33,-64.38 98.06,-62.09 101.94,-60.12"/>
<polygon fill="#63b8ff" stroke="#63b8ff" points="103.29,-63.35 111.07,-56.16 100.5,-56.93 103.29,-63.35"/>
</a>
</g>
</g>
<!-- Node12 -->
<g id="Node000012" class="node">
<title>Node12</title>
<g id="a_Node000012"><a xlink:href="perso_8c.html#a3a1b30f1d4b3a050543f4a881d549636" target="_top" xlink:title="Met a jour animation en fonction de l&#39;etat courant du jeu.">
<polygon fill="white" stroke="#666666" points="191,-20 98.5,-20 98.5,0 191,0 191,-20"/>
<text xml:space="preserve" text-anchor="middle" x="144.75" y="-6.5" font-family="Helvetica,sans-Serif" font-size="10.00">update_animation</text>
</a>
</g>
</g>
<!-- Node1&#45;&gt;Node12 -->
<g id="edge11_Node000001_Node000012" class="edge">
<title>Node1&#45;&gt;Node12</title>
<g id="a_edge11_Node000001_Node000012"><a xlink:title=" ">
<path fill="none" stroke="#63b8ff" d="M30.5,-151.74C35.84,-127.07 52.71,-63.87 91,-29 92.05,-28.04 93.16,-27.13 94.3,-26.26"/>
<polygon fill="#63b8ff" stroke="#63b8ff" points="95.78,-29.47 102.48,-21.26 92.13,-23.49 95.78,-29.47"/>
</a>
</g>
</g>
<!-- Node6 -->
<g id="Node000006" class="node">
<title>Node6</title>
<g id="a_Node000006"><a xlink:href="vaisseau_8c.html#ab8c3ef62605a90b8f6064f44052a3318" target="_top" xlink:title="Positionne le personnage a une tuile donnee en recentrant la camera.">
<polygon fill="white" stroke="#666666" points="308.25,-210 234.5,-210 234.5,-190 308.25,-190 308.25,-210"/>
<text xml:space="preserve" text-anchor="middle" x="271.38" y="-196.5" font-family="Helvetica,sans-Serif" font-size="10.00">spawn_perso</text>
</a>
</g>
</g>
<!-- Node5&#45;&gt;Node6 -->
<g id="edge5_Node000005_Node000006" class="edge">
<title>Node5&#45;&gt;Node6</title>
<g id="a_edge5_Node000005_Node000006"><a xlink:title=" ">
<path fill="none" stroke="#63b8ff" d="M181.13,-200C194.06,-200 208.91,-200 222.73,-200"/>
<polygon fill="#63b8ff" stroke="#63b8ff" points="222.53,-203.5 232.53,-200 222.53,-196.5 222.53,-203.5"/>
</a>
</g>
</g>
<!-- Node10 -->
<g id="Node000010" class="node">
<title>Node10</title>
<g id="a_Node000010"><a xlink:href="vaisseau_8c.html#a2d5dec4ed1b45587058f07a6de497eaf" target="_top" xlink:title=" ">
<polygon fill="white" stroke="#666666" points="304.88,-96 237.88,-96 237.88,-76 304.88,-76 304.88,-96"/>
<text xml:space="preserve" text-anchor="middle" x="271.38" y="-82.5" font-family="Helvetica,sans-Serif" font-size="10.00">en_collision</text>
</a>
</g>
</g>
<!-- Node9&#45;&gt;Node10 -->
<g id="edge9_Node000009_Node000010" class="edge">
<title>Node9&#45;&gt;Node10</title>
<g id="a_edge9_Node000009_Node000010"><a xlink:title=" ">
<path fill="none" stroke="#63b8ff" d="M198.96,-86C208.07,-86 217.44,-86 226.28,-86"/>
<polygon fill="#63b8ff" stroke="#63b8ff" points="226.01,-89.5 236.01,-86 226.01,-82.5 226.01,-89.5"/>
</a>
</g>
</g>
</g>
</svg>
</svg>

<style type='text/css'>
<![CDATA[
[data-mouse-over-selected='false'] { opacity: 0.7; }
[data-mouse-over-selected='true']  { opacity: 1.0; }
]]>
</style>
<script type="application/ecmascript"><![CDATA[
document.addEventListener('DOMContentLoaded', (event) => {
  highlightEdges();
  highlightAdjacentNodes();
});
]]></script>
</svg>
