<?xml version="1.0" encoding="UTF-8" standalone="no"?>
<!DOCTYPE svg PUBLIC "-//W3C//DTD SVG 1.1//EN"
 "http://www.w3.org/Graphics/SVG/1.1/DTD/svg11.dtd">
<!-- Generated by graphviz version 14.1.4 (20260321.0153)
 -->
<!-- Title: spawn_perso Pages: 1 -->
<svg width="322pt" height="66pt"
 viewBox="0.00 0.00 322.00 66.00" xmlns="http://www.w3.org/2000/svg" xmlns:xlink="http://www.w3.org/1999/xlink">
<g id="graph0" class="graph" transform="scale(1 1) rotate(0) translate(4 62)">
<title>spawn_perso</title>
<!-- Node1 -->
<g id="Node000001" class="node">
<title>Node1</title>
<g id="a_Node000001"><a xlink:title="Positionne le personnage a une tuile donnee en recentrant la camera.">
<polygon fill="#999999" stroke="#666666" points="73.75,-39 0,-39 0,-19 73.75,-19 73.75,-39"/>
<text xml:space="preserve" text-anchor="middle" x="36.88" y="-25.5" font-family="Helvetica,sans-Serif" font-size="10.00">spawn_perso</text>
</a>
</g>
</g>
<!-- Node2 -->
<g id="Node000002" class="node">
<title>Node2</title>
<g id="a_Node000002"><a xlink:href="main_8h.html#a6c672075bc554c92548a916c9501bdb5" target="_top" xlink:title=" ">
<polygon fill="white" stroke="#666666" points="197.75,-58 109.75,-58 109.75,-38 197.75,-38 197.75,-58"/>
<text xml:space="preserve" text-anchor="middle" x="153.75" y="-44.5" font-family="Helvetica,sans-Serif" font-size="10.00">screen_center_x</text>
</a>
</g>
</g>
<!-- Node1&#45;&gt;Node2 -->
<g id="edge1_Node000001_Node000002" class="edge">
<title>Node1&#45;&gt;Node2</title>
<g id="a_edge1_Node000001_Node000002"><a xlink:title=" ">
<path fill="none" stroke="#63b8ff" d="M74.22,-35.01C81.82,-36.27 89.98,-37.62 98.08,-38.96"/>
<polygon fill="#63b8ff" stroke="#63b8ff" points="97.47,-42.4 107.91,-40.58 98.61,-35.5 97.47,-42.4"/>
</a>
</g>
</g>
<!-- Node4 -->
<g id="Node000004" class="node">
<title>Node4</title>
<g id="a_Node000004"><a xlink:href="main_8h.html#a6456affd0d0a21e911b531a5ba25676d" target="_top" xlink:title=" ">
<polygon fill="white" stroke="#666666" points="197.75,-20 109.75,-20 109.75,0 197.75,0 197.75,-20"/>
<text xml:space="preserve" text-anchor="middle" x="153.75" y="-6.5" font-family="Helvetica,sans-Serif" font-size="10.00">screen_center_y</text>
</a>
</g>
</g>
<!-- Node1&#45;&gt;Node4 -->
<g id="edge3_Node000001_Node000004" class="edge">
<title>Node1&#45;&gt;Node4</title>
<g id="a_edge3_Node000001_Node000004"><a xlink:title=" ">
<path fill="none" stroke="#63b8ff" d="M74.22,-22.99C81.82,-21.73 89.98,-20.38 98.08,-19.04"/>
<polygon fill="#63b8ff" stroke="#63b8ff" points="98.61,-22.5 107.91,-17.42 97.47,-15.6 98.61,-22.5"/>
</a>
</g>
</g>
<!-- Node3 -->
<g id="Node000003" class="node">
<title>Node3</title>
<g id="a_Node000003"><a xlink:href="main_8h.html#aaaa1e9fcb86ff8e60b297faa7815ad1d" target="_top" xlink:title=" ">
<polygon fill="white" stroke="#666666" points="312,-58 235.25,-58 235.25,-38 312,-38 312,-58"/>
<text xml:space="preserve" text-anchor="middle" x="273.62" y="-44.5" font-family="Helvetica,sans-Serif" font-size="10.00">screen_widthf</text>
</a>
</g>
</g>
<!-- Node2&#45;&gt;Node3 -->
<g id="edge2_Node000002_Node000003" class="edge">
<title>Node2&#45;&gt;Node3</title>
<g id="a_edge2_Node000002_Node000003"><a xlink:title=" ">
<path fill="none" stroke="#63b8ff" d="M197.97,-48C206.28,-48 215.05,-48 223.53,-48"/>
<polygon fill="#63b8ff" stroke="#63b8ff" points="223.34,-51.5 233.34,-48 223.34,-44.5 223.34,-51.5"/>
</a>
</g>
</g>
<!-- Node5 -->
<g id="Node000005" class="node">
<title>Node5</title>
<g id="a_Node000005"><a xlink:href="main_8h.html#a9b4aefc63ea00e60ec88da19e24e8236" target="_top" xlink:title=" ">
<polygon fill="white" stroke="#666666" points="313.5,-20 233.75,-20 233.75,0 313.5,0 313.5,-20"/>
<text xml:space="preserve" text-anchor="middle" x="273.62" y="-6.5" font-family="Helvetica,sans-Serif" font-size="10.00">screen_heightf</text>
</a>
</g>
</g>
<!-- Node4&#45;&gt;Node5 -->
<g id="edge4_Node000004_Node000005" class="edge">
<title>Node4&#45;&gt;Node5</title>
<g id="a_edge4_Node000004_Node000005"><a xlink:title=" ">
<path fill="none" stroke="#63b8ff" d="M197.97,-10C205.74,-10 213.91,-10 221.87,-10"/>
<polygon fill="#63b8ff" stroke="#63b8ff" points="221.8,-13.5 231.8,-10 221.8,-6.5 221.8,-13.5"/>
</a>
</g>
</g>
</g>
</svg>
