<?xml version="1.0" encoding="UTF-8" standalone="no"?>
<!DOCTYPE svg PUBLIC "-//W3C//DTD SVG 1.1//EN"
 "http://www.w3.org/Graphics/SVG/1.1/DTD/svg11.dtd">
<!-- Generated by graphviz version 14.1.4 (20260321.0153)
 -->
<!-- Title: est_en_collision_rect Pages: 1 -->
<svg width="611pt" height="75pt"
 viewBox="0.00 0.00 611.00 75.00" xmlns="http://www.w3.org/2000/svg" xmlns:xlink="http://www.w3.org/1999/xlink">
<g id="graph0" class="graph" transform="scale(1 1) rotate(0) translate(4 71)">
<title>est_en_collision_rect</title>
<!-- Node1 -->
<g id="Node000001" class="node">
<title>Node1</title>
<g id="a_Node000001"><a xlink:title=" ">
<polygon fill="#999999" stroke="#666666" points="602.75,-39 495.25,-39 495.25,-19 602.75,-19 602.75,-39"/>
<text xml:space="preserve" text-anchor="middle" x="549" y="-25.5" font-family="Helvetica,sans-Serif" font-size="10.00">est_en_collision_rect</text>
</a>
</g>
</g>
<!-- Node2 -->
<g id="Node000002" class="node">
<title>Node2</title>
<g id="a_Node000002"><a xlink:href="vaisseau_8c.html#a8ea9afc9440149ddd36e96b97d8ed6c5" target="_top" xlink:title="Lance la scene interieure du vaisseau (deplacement, interactions, mini&#45;jeux, sortie).">
<polygon fill="white" stroke="#666666" points="459.25,-39 404.25,-39 404.25,-19 459.25,-19 459.25,-39"/>
<text xml:space="preserve" text-anchor="middle" x="431.75" y="-25.5" font-family="Helvetica,sans-Serif" font-size="10.00">vaisseau</text>
</a>
</g>
</g>
<!-- Node1&#45;&gt;Node2 -->
<g id="edge1_Node000001_Node000002" class="edge">
<title>Node1&#45;&gt;Node2</title>
<g id="a_edge1_Node000001_Node000002"><a xlink:title=" ">
<path fill="none" stroke="#63b8ff" d="M483.36,-29C475.04,-29 466.92,-29 459.7,-29"/>
<polygon fill="#63b8ff" stroke="#63b8ff" points="483.25,-32.5 493.25,-29 483.25,-25.5 483.25,-32.5"/>
</a>
</g>
</g>
<!-- Node3 -->
<g id="Node000003" class="node">
<title>Node3</title>
<g id="a_Node000003"><a xlink:href="cinematique_8c.html#a418cc3e727578f4cd509ad27cd6a2a31" target="_top" xlink:title="Lance cinematique fin et gere son deroulement complet.">
<polygon fill="white" stroke="#666666" points="368.25,-39 257.75,-39 257.75,-19 368.25,-19 368.25,-39"/>
<text xml:space="preserve" text-anchor="middle" x="313" y="-25.5" font-family="Helvetica,sans-Serif" font-size="10.00">jouer_cinematique_fin</text>
</a>
</g>
</g>
<!-- Node2&#45;&gt;Node3 -->
<g id="edge2_Node000002_Node000003" class="edge">
<title>Node2&#45;&gt;Node3</title>
<g id="a_edge2_Node000002_Node000003"><a xlink:title=" ">
<path fill="none" stroke="#63b8ff" d="M392.65,-29C384.86,-29 376.53,-29 368.3,-29"/>
<polygon fill="#63b8ff" stroke="#63b8ff" points="392.45,-32.5 402.45,-29 392.45,-25.5 392.45,-32.5"/>
</a>
</g>
</g>
<!-- Node6 -->
<g id="Node000006" class="node">
<title>Node6</title>
<g id="a_Node000006"><a xlink:href="main_8c.html#a0ddf1224851353fc92bfbff6f499fa97" target="_top" xlink:title=" ">
<polygon fill="white" stroke="#666666" points="75.62,-67 38.63,-67 38.63,-47 75.62,-47 75.62,-67"/>
<text xml:space="preserve" text-anchor="middle" x="57.13" y="-53.5" font-family="Helvetica,sans-Serif" font-size="10.00">main</text>
</a>
</g>
</g>
<!-- Node2&#45;&gt;Node6 -->
<g id="edge7_Node000002_Node000006" class="edge">
<title>Node2&#45;&gt;Node6</title>
<g id="a_edge7_Node000002_Node000006"><a xlink:title=" ">
<path fill="none" stroke="#63b8ff" d="M393.31,-42.14C385.15,-44.51 376.48,-46.65 368.25,-48 258.48,-65.95 124.01,-60.8 76.11,-58.13"/>
<polygon fill="#63b8ff" stroke="#63b8ff" points="394.08,-45.57 402.6,-39.27 392.02,-38.88 394.08,-45.57"/>
</a>
</g>
</g>
<!-- Node4 -->
<g id="Node000004" class="node">
<title>Node4</title>
<g id="a_Node000004"><a xlink:href="map_8c.html#ad462ccdd50801fb085dc8134fc3765d1" target="_top" xlink:title="Affiche la carte et met a jour les elements visuels associes.">
<polygon fill="white" stroke="#666666" points="221.75,-39 150.25,-39 150.25,-19 221.75,-19 221.75,-39"/>
<text xml:space="preserve" text-anchor="middle" x="186" y="-25.5" font-family="Helvetica,sans-Serif" font-size="10.00">afficher_map</text>
</a>
</g>
</g>
<!-- Node3&#45;&gt;Node4 -->
<g id="edge3_Node000003_Node000004" class="edge">
<title>Node3&#45;&gt;Node4</title>
<g id="a_edge3_Node000003_Node000004"><a xlink:title=" ">
<path fill="none" stroke="#63b8ff" d="M246.25,-29C237.97,-29 229.76,-29 222.21,-29"/>
<polygon fill="#63b8ff" stroke="#63b8ff" points="246.02,-32.5 256.02,-29 246.02,-25.5 246.02,-32.5"/>
</a>
</g>
</g>
<!-- Node5 -->
<g id="Node000005" class="node">
<title>Node5</title>
<g id="a_Node000005"><a xlink:href="vaisseau_8c.html#ace614afc8df3a40bd5ea0771044ff217" target="_top" xlink:title=" ">
<polygon fill="white" stroke="#666666" points="114.25,-20 0,-20 0,0 114.25,0 114.25,-20"/>
<text xml:space="preserve" text-anchor="middle" x="57.13" y="-6.5" font-family="Helvetica,sans-Serif" font-size="10.00">gerer_interaction_objet</text>
</a>
</g>
</g>
<!-- Node4&#45;&gt;Node5 -->
<g id="edge4_Node000004_Node000005" class="edge">
<title>Node4&#45;&gt;Node5</title>
<g id="a_edge4_Node000004_Node000005"><a xlink:title=" ">
<path fill="none" stroke="#63b8ff" d="M138.76,-22.08C130.87,-20.89 122.58,-19.65 114.46,-18.44"/>
<polygon fill="#63b8ff" stroke="#63b8ff" points="138.09,-25.51 148.5,-23.53 139.13,-18.59 138.09,-25.51"/>
</a>
</g>
</g>
<!-- Node4&#45;&gt;Node6 -->
<g id="edge6_Node000004_Node000006" class="edge">
<title>Node4&#45;&gt;Node6</title>
<g id="a_edge6_Node000004_Node000006"><a xlink:title=" ">
<path fill="none" stroke="#63b8ff" d="M138.89,-39.18C117.01,-44 92.16,-49.49 75.87,-53.08"/>
<polygon fill="#63b8ff" stroke="#63b8ff" points="139.51,-42.62 148.52,-37.05 138,-35.79 139.51,-42.62"/>
</a>
</g>
</g>
<!-- Node5&#45;&gt;Node2 -->
<g id="edge5_Node000005_Node000002" class="edge">
<title>Node5&#45;&gt;Node2</title>
<g id="a_edge5_Node000005_Node000002"><a xlink:title=" ">
<path fill="none" stroke="#63b8ff" d="M125.9,-4.3C189.01,-0.33 285.53,2.3 368.25,-10 380.14,-11.77 392.9,-15.33 403.77,-18.9"/>
<polygon fill="#63b8ff" stroke="#63b8ff" points="125.77,-0.8 116.03,-4.95 126.24,-7.78 125.77,-0.8"/>
</a>
</g>
</g>
</g>
</svg>
